<?xml version="1.0" encoding="utf-8" ?>
<svg baseProfile="full" height="300mm" version="1.1" viewBox="0,0,200,300" width="200mm" xmlns="http://www.w3.org/2000/svg" xmlns:ev="http://www.w3.org/2001/xml-events" xmlns:xlink="http://www.w3.org/1999/xlink"><defs /><rect fill="#222222" height="300" width="200" x="0" y="0" /><text fill="#FFFFFF" style="font-size:12px; font-family:Arial; font-weight:bold;" x="10" y="20">Over 5km Runs</text><text fill="#FFFFFF" style="font-size:4px; font-family:Arial" x="10" y="280">ATHLETE</text><text fill="#FFFFFF" style="font-size:9px; font-family:Arial" x="10" y="290">sagasw</text><text fill="#FFFFFF" style="font-size:4px; font-family:Arial" x="65" y="280">SPECIAL TRACKS</text><rect fill="yellow" height="2.6" width="2.6" x="65" y="283" /><text fill="#FFFFFF" style="font-size:3px; font-family:Arial" x="70" y="285.5">Over 20.0 km</text><rect fill="red" height="2.6" width="2.6" x="65" y="287" /><text fill="#FFFFFF" style="font-size:3px; font-family:Arial" x="70" y="289.5">Over 40.0 km</text><text fill="#FFFFFF" style="font-size:4px; font-family:Arial" x="120" y="280">STATISTICS</text><text fill="#FFFFFF" style="font-size:3px; font-family:Arial" x="120" y="285">Number: 21</text><text fill="#FFFFFF" style="font-size:3px; font-family:Arial" x="120" y="290">Weekly: 2.3</text><text fill="#FFFFFF" style="font-size:3px; font-family:Arial" x="141" y="285">Total: 269.5 km</text><text fill="#FFFFFF" style="font-size:3px; font-family:Arial" x="141" y="290">Avg: 12.8 km</text><text fill="#FFFFFF" style="font-size:3px; font-family:Arial" x="167" y="285">Min: 7.7 km</text><text fill="#FFFFFF" style="font-size:3px; font-family:Arial" x="167" y="290">Max: 19.1 km</text><polyline fill="none" points="12.0,58.217748547845986 12.583063396567013,58.32474305476353 14.432207311445381,57.85396666114684 14.782045349362306,56.03504417433578 19.34659879677929,54.280298333396786 19.713095788960345,54.87948211666662 19.87968533084495,57.72557284636423 21.878759833402,60.25063130729541 25.893567792663816,59.223493941070046 27.326237852859776,59.33048774044437 29.458583988889586,60.05804357957095 31.874132346129045,58.92391090250749 33.923183711245656,58.431737486462225 37.005090235965326,58.8597144602827 38.004627487272955,57.74697182305681 38.754280425666366,57.36178978237149 39.65386395191308,57.982360367605 41.30310041643679,58.346141947142314 43.5187413233798,57.639976909573306 45.451180009229574,55.47866353896097 46.86719111521961,53.10332331417885 47.75011568714399,50.25714607196278 47.96668209164636,47.64632010075729 47.31698287819745,44.15801544254646 46.08422026829794,41.2688681739528 44.95141138357576,40.2202011415211 43.38546968990704,39.74936869269004 42.186024988419376,39.87777768695378 41.01989819528535,40.477018226345535 38.88755205925554,42.93815995861951 37.904673762095626,44.47902841705945 37.02174919017125,46.768901308605564 36.63859324390069,49.829144886360154 37.17167977784993,53.93790654008626 38.6210087921354,56.9766067659948 39.58722813508939,57.896764575416455 40.53678852377925,58.2391474552569 41.602961591794156,58.36754083647975 42.88570106436964,58.003759308106964 44.3350300785969,56.91240950176143 45.66774641367374,55.200472457901924 47.53354928275803,51.4127432556852 48.0,47.475116831526975 47.70013882452622,45.377861140077584 46.85053216101369,42.76695138824289 45.934289680677466,41.01205242660944 45.10134197125444,40.305806884673075 43.418787598318886,39.770770199247636 42.25266080518486,39.85637619539921 41.11985192040447,40.519821031659376 39.55391022673575,41.99651043584163 37.571494678384624,45.24945679069788 36.93845441925805,47.239712021677406 36.67191115219612,49.85054497430974 37.20499768626178,54.066303552957834 37.97130957886111,56.056443388864864 38.92086996755097,57.29759268069756 39.520592318382114,57.85396666114684 41.369736233202275,58.38893972277583 42.83572420175187,58.02515824565489 44.3350300785969,56.869611310525215 46.76723739010049,53.40291781970882 47.48357242019847,51.605341932488955 47.93336418323452,48.82333735827706 47.68347987043671,45.2922582525498 46.117538176709786,41.29026946662634 44.95141138357576,40.24160258179472 43.45210550673073,39.770770199247636 42.15270708000753,39.87777768695378 41.01989819528535,40.541222429819754 39.520592318382114,42.01791162614245 38.60434983804589,43.43038352466829" stroke="#4DD2FF" stroke-linecap="round" stroke-linejoin="round" stroke-width="0.5"><title>2025-01-01 8.4km</title><desc>1735690205000</desc></polyline><polyline fill="none" points="58.66666666668607,55.99286864566966 59.41483292583143,56.671255264329375 63.75713121431181,57.349638446525205 64.21189894055715,57.010447284978 65.15077424613992,56.89738337357994 65.41483292588964,55.29563437307661 68.14343928277958,54.05191017081961 69.47840260789962,53.769243968403316 69.66911165445345,53.901154937106185 69.93317033414496,57.21773087470501 71.53219233901473,59.026737675245386 75.5664221678744,58.103393507393776 78.38304808473913,58.894831755256746 79.71801140997559,58.06570585510053 81.83048084756592,57.48154588844045 84.85248573753051,57.801891992116 86.07008964952547,56.463970828815945 86.65688671555836,56.501658931869315 87.93317033408675,57.236574821479735 90.0456397717935,57.16119901840284 92.55419722903753,54.67377371585462 93.40505297470372,53.29813230513537 94.31458842707798,50.79179039254086 94.59331703337375,47.5504365505185 94.24123879370745,45.38320852648758 93.4490627546329,43.17825358133996 92.78891605534591,42.14172375270573 91.89405052969232,41.36903266006266 90.58842705778079,40.99210855770798 89.0774246128858,41.19941694533918 87.94784026080742,42.104031607785146 86.33414832921699,44.10170066979481 84.98451507743448,47.15468448570755 84.57375713123474,50.77294553886168 85.48329258355079,54.65492940842523 86.48084759572521,56.33206238459388 87.43439282797044,56.99160330637824 88.8867155664484,57.368482374746236 90.07497962506022,57.12351110095915 92.61287693551276,54.617240785606555 94.28524857375305,50.999083608418005 94.62265688664047,47.663508354176884 93.62510187446605,43.555171529529616 92.17277913610451,41.51980200393882 90.69111654435983,40.99210855770798 89.37082314584404,41.12403211419587 87.87449062755331,42.17941588713438 86.30480847589206,44.13939225241484 84.86715566419298,47.49390061282611 84.57375713123474,50.60334173605952 84.7057864710223,51.828253262952785 85.85004074976314,55.408699636827805 86.5248573757126,56.36975052478374 87.46373268129537,57.04813523424673 88.74001629988197,57.349638446525205 90.01629991846858,57.16119901840284 92.5982070089085,54.617240785606555 93.78647106763674,52.450127134507056 94.32925835362403,50.8294800920994 94.60798696009442,47.531591240578564 93.4490627546329,43.15940765608684 92.56886715564178,41.82134018231591 91.64466177672148,41.21826314649661 90.22167889162665,40.99210855770798 89.06275468616514,41.23710934491828 88.035859820724,42.028647286002524 86.61287693562917,43.70593841174559 85.29258353711339,46.13703094818629 84.66177669109311,48.831911401081015 84.61776691116393,50.67872123049165 84.8231458842638,52.41243789116561 85.45395273022586,54.44764185175882 86.20211898942944,55.91749214255833 87.24368378159124,56.916227365421946 89.29747351258993,57.349638446525205 90.20700896496419,57.04813523424673 91.95273023628397,55.408699636827805 93.84515077422839,52.35590400626825 94.35859820700716,50.77294553886168 94.66666666668607,48.153485066693975 94.21189894044073,45.251289166364586 92.86226568860002,42.198261950296 92.11409942945465,41.48210968388594 90.82314588420559,40.99210855770798 89.88427057868103,40.973262324754614 88.50529747345718,41.5763404640893 86.33414832921699,44.21477538582985" stroke="#4DD2FF" stroke-linecap="round" stroke-linejoin="round" stroke-width="0.5"><title>2024-12-31 11.1km</title><desc>1735607974000</desc></polyline><polyline fill="none" points="105.33333333331393,55.526695733409724 106.03691639518365,56.26101615389052 110.419652551529,56.825875273571 111.81216069485527,56.46813144130283 111.95874049939448,55.03714654754731 112.32519001082983,54.698226831184 114.49457111826632,53.64380444579001 116.25352877302794,53.34253938093025 116.37079261668259,55.77146965470456 116.66395222581923,56.75056086204131 118.26167209545383,58.53926668355416 118.90662323555443,58.63340843281185 120.04994571115822,57.99324323136534 122.02877307264134,57.635502520162845 124.87242128117941,58.46395323636534 127.23235613462748,57.25893231717055 129.2991313788225,57.014161116909236 130.80890336586162,57.31541791516065 132.1867535287165,57.9367579195241 132.7584147664602,59.29239882349793 135.3382193268044,59.46185297080956 135.60206297494005,58.689893450646196 135.05971769802272,57.9367579195241 135.2502714440343,57.24010377917148 137.06786102056503,56.37398816860514 138.00597176974406,55.62083960225573 139.14929424534785,54.340477310324786 140.65906623227056,51.44078800287389 141.28935939189978,47.43007519481762 140.36590662319213,43.41924215373001 139.5010857762536,41.705657105718274 138.34310532029485,40.83944092754973 136.67209554830333,40.55697791776038 135.51411509228637,40.9335951317189 133.5499457111,42.91081811078766 132.56786102056503,44.454914783054846 131.61509229097283,46.99698633792286 131.35124864272075,48.48454654956004 131.5564603690873,50.80058838837431 131.3805646036053,51.45961735690071 131.7176981541561,52.96595709591929 132.72909880557563,55.26309254822263 133.84310532029485,56.48696008787374 134.89847991312854,56.84470386985049 136.2030401736847,56.84470386985049 137.5808903365396,56.03507183835609 139.14929424534785,54.340477310324786 140.64440825185739,51.47844670833729 141.1867535287165,49.3695428793726 141.33333333331393,47.44890511329868 140.26330076000886,43.08029300645285 139.38382193265716,41.611503444990376 138.32844733976526,40.82061007877928 136.8479913137271,40.57580880360911 135.5727470140555,40.95242596451135 134.4440825189231,41.89396422842401 132.9929424538277,43.72052956371044 131.57111834955867,47.18528601316211 131.27795874048024,49.74613528676855 131.52714440820273,50.91356501352857 131.3952225840767,51.45961735690071 131.77633007592522,53.07893189266906 132.9049945710576,55.54552451246127 134.356134636153,56.712903640422155 135.646036916296,58.652236774752964 135.11834961990826,57.97441479675763 135.3382193268044,57.24010377917148 136.11509229091462,57.145961049594916 136.2176981541561,56.825875273571 137.68349619972287,55.94092826095584 140.0580890335841,52.909469661768526 140.93756786093581,50.59346432783059 141.2747014114866,48.54103585192934 140.9522258414072,45.17046573481639 139.70629750262015,41.96928700323042 138.79750271438388,41.06541090607061 137.4929424537695,40.55697791776038 136.32030401728116,40.66996319324244 135.39685124863172,41.08424172035302 133.00760043424089,43.68286867457209 131.5564603690873,47.10996617485944 131.3952225840767,51.38429992481542 132.45059717696859,54.73588461983309 132.96362649294315,55.62083960225573 134.15092290978646,56.61876053987362 136.23235613456927,56.84470386985049 137.5808903365396,56.03507183835609 139.1053203039919,54.41579307845677 140.45385450596223,52.0056674718071 141.12812160688918,49.840283222991275 141.33333333331393,47.50539485293848 140.61509229091462,43.89000343368389 139.64766558079282,41.87513352803944 139.0173724212218,41.19722655059013 137.96199782838812,40.68879406322958 136.78935939189978,40.57580880360911 135.52877307264134,40.990087622296414 134.79587404988706,41.59267270487908 133.3300760043203,43.26859819430683 132.23072747007245,45.22695643638144 131.36590662319213,48.635184636179474 131.3952225840767,51.421958646184066 132.0255157437059,53.775607698378735 133.13952225836692,55.84678461725707 135.04505971766775,57.61667403516185 135.66069489676738,58.57692339118512 135.58740499446867,59.36771180435608 135.646036916296,58.63340843281185 135.13300760043785,58.03090009272273 135.2356134635629,57.25893231717055 136.18838219321333,57.0894753800676 138.65092290984467,54.924173404157045 140.4831704668468,52.024496746395016 141.09880564600462,49.85911280226719 141.28935939189978,47.015816317347344 140.3219326818362,43.15561511339911 139.48642779584043,41.705657105718274 138.3870792616508,40.82061007877928 136.7747014114866,40.55697791776038 135.646036916296,40.87710261717439 133.5499457111,42.967309766521794 131.83496199781075,46.224954898585565 131.35124864272075,48.277418903657235 131.33659066224936,50.14155617369397 131.65906623232877,52.57054455597245 132.3479913137271,54.491108804097166 132.94896851241356,55.60201083376887 134.00434310530545,56.54344601181219 135.42616720951628,56.90118964269641 136.30564603686798,56.825875273571 137.46362649288494,56.11038665258093 139.28121606941568,54.227503578717005 140.4831704668468,52.0056674718071 141.2014115091879,49.16241660347441 141.33333333331393,47.37358542345464 140.98154180234997,45.13280525372829 140.33659066224936,43.15561511339911 139.76492942450568,41.988117690358195 138.65092290984467,40.95242596451135 137.36102062964346,40.57580880360911 135.92453854501946,40.782948373336694 134.9277958740131,41.442026688717306 133.62323561345693,42.87315699370811 132.1867535287165,45.151635495596565 131.7909880563966,46.356765459728194 131.3072747013648,50.02857889670122 131.58577633003006,52.32576477895782 132.3479913137271,54.50993772894435 132.94896851241356,55.60201083376887 134.0483170466032,56.52461737318663 135.45548317040084,56.86353246343788 136.5401737241773,56.712903640422155 137.46362649288494,56.11038665258093 139.25190010853112,54.26516149987583 140.51248642773135,51.89269176883681 141.14277958736056,49.63315767583845 141.31867535278434,47.44890511329868 140.40988056448987,43.400411668088054 139.4277958740131,41.611503444990376 138.40173724212218,40.82061007877928 137.24375678604702,40.53814702920499 135.76330076000886,40.82061007877928 134.03365906619,42.345900241372874 133.03691639518365,43.645207774825394" stroke="#4DD2FF" stroke-linecap="round" stroke-linejoin="round" stroke-width="0.5"><title>2024-12-30 19.1km</title><desc>1735521239000</desc></polyline><polyline fill="none" points="152.0,56.074786885103094 152.43583535106154,55.869509209296666 153.08958837768296,56.65329498924257 157.27360774809495,57.2318005697598 158.72639225178864,56.82124848221429 159.01694915251574,55.272335982037475 163.0992736077169,53.7420673128363 163.54963680385845,56.87723293264571 164.98789346247213,58.911318602389656 165.8450363195734,58.87399621051736 168.46004842605907,57.978255654583336 170.0145278450218,58.14620746967557 171.72881355928257,58.78069018491078 173.6319612590596,57.75431957030378 175.15738498792052,57.381091922856285 176.15980629529804,57.30644626732101 178.30992736073676,57.69833549010218 179.53026634379057,56.41069512376271 181.4188861985458,57.13849338878936 183.29297820816282,56.98920176255342 184.04842615011148,56.578648923983565 185.67554479418322,54.899101349452394 186.95399515738245,52.808967994569684 187.7530266343383,50.23357980801666 188.0,47.844769241681206 187.30266343825497,44.560084445925895 186.30024213076103,42.46978812009911 185.25423728814349,41.44329125309014 183.75786924938438,41.088681397624896 182.8571428571595,41.18199987258413 181.76755447936011,41.79790016011975 179.21065375301987,45.119979652314214 178.32445520575857,47.54616489514592 178.0774818402133,49.487081128696445 178.4116222760058,52.958264326734934 179.0508474576054,54.84311606393021 180.198547215492,56.4293566676788 181.3753026634804,57.157154830230866 182.9588377723121,57.17581626903848 183.90314769971883,56.69061800603231 185.70460048422683,54.91776310601563 187.34624697332038,51.85719992604572 187.9854721549782,47.900757481809705 187.1428571428405,44.05617673890083 185.69007263920503,41.72324573212245 184.48426150117302,41.18199987258413 183.27845036319923,41.088681397624896 181.89830508473096,41.704582118589315 180.98305084742606,42.63775957812322 179.76271186437225,44.16815639483684 178.7021791767329,46.27708892060036 178.06295399513328,49.636381200747564 178.57142857142026,53.51812407524267 179.41404358349973,55.42162954094238 180.34382566582644,56.5973104442528 181.25907990313135,57.13849338878936 182.55205811135238,57.26912342378637 184.23728813556954,56.392033577300026 185.6610169491032,54.91776310601563 186.7941888620262,53.14488450551289 187.86924939468736,49.56173118570587 187.9854721549782,47.956745698335 187.63680387410568,45.77318773845036 186.5036319612991,42.749740431958344 185.69007263920503,41.68591850242228 184.35351089586038,41.16333618281351 183.2493946730392,41.10734509784379 182.15980629541446,41.53660947842582 179.71912832930684,44.24280944626662 178.35351089586038,47.54616489514592 178.0774818402133,49.86033099361521 178.16464891040232,51.89452429271478 178.60048426152207,53.70474346620904 179.41404358349973,55.458952904402395 179.9225181597867,56.24274111074919 180.98305084742606,57.045186142087914 182.26150121062528,57.30644626732101 183.4673123486573,56.95187882974278 185.74818401935045,54.88043959021161 187.30266343825497,51.91318647208391 187.76755447936011,50.214917392251664 187.9709443098982,47.86343199106341 187.0556900726515,43.73890053346986 185.48668280866696,41.57393675018102 184.04842615011148,41.16333618281351 182.9152542373049,41.219327244121814 182.2760290557053,41.46195490335231 180.59079903148813,43.08568242599722 178.76029055693652,46.20243701444997 178.30992736073676,47.564827686481294 178.04842615011148,49.99096819819533 178.45520581112942,53.2568564866815 179.07990314770723,54.82445429687505 180.41646489105187,56.765264008237864 181.50605326873483,57.17581626903848 182.81355932203587,57.26912342378637 184.94915254233638,55.8508475865965 187.0847457627533,52.58502318125102 187.94188861985458,48.759240870247595 187.6658595642075,45.81051381757425 187.24455205810955,44.37345218514383 186.73607748182258,43.17899949554703 185.74818401935045,41.81656376052706 184.22276029054774,41.18199987258413 183.205811138032,41.16333618281351 182.17433414037805,41.57393675018102 180.91041162225883,42.73107696292573 179.73365617427044,44.22414618732 178.67312348663108,46.35174078471027 178.06295399513328,49.50574364689237 178.19370460044593,51.950510823066 178.76029055693652,54.22727636365744 180.32929782074643,56.65329498924257 181.47699757863302,57.1944777052413 182.97336561739212,57.213139138839324 184.89104116224917,55.869509209296666 186.7651331719244,53.29418045943021 187.88377723970916,49.841668525361456 187.9854721549782,47.91942022329022 187.54963680385845,45.437252553150756 187.01210653752787,43.75756386072317 186.02421307499753,42.096517451514956 185.15254237287445,41.42462760004855 184.0920096852351,41.18199987258413 183.07506053266115,41.16333618281351 182.2905569007853,41.48061855108244 179.77723970939405,44.24280944626662 178.33898305083858,47.65814160388254 178.17917675542412,51.763888963425416 179.21065375301987,55.08571879703959 179.9225181597867,56.186756392533425 180.85230024211342,56.9705402974796 182.45036319602514,57.28778484687791 183.4818401937373,57.06384759665525 185.77723970945226,54.88043959021161 187.28813559323316,52.08114596850646 187.76755447936011,50.45752859239292 188.0,47.900757481809705 187.31719128327677,44.67206367634935 186.75060532684438,43.17899949554703 185.71912832924863,41.7419093430799 183.7723970944644,41.12600879545789 182.8571428571595,41.237990926005295 181.76755447936011,41.89121813591919 179.77723970939405,44.24280944626662" stroke="#4DD2FF" stroke-linecap="round" stroke-linejoin="round" stroke-width="0.5"><title>2024-12-29 18.5km</title><desc>1735432872000</desc></polyline><polyline fill="none" points="12.0,96.81396618901636 14.791728212672751,95.0892413674519 15.376661742979195,95.02093492928543 16.17429837520467,95.68692106116214 18.500738552422263,95.87476264267752 19.949778434238397,96.2504449334665 21.265878877427895,95.85768614726112 21.491875923180487,94.44032865273039 23.3264401772758,93.5181835626936 25.26735598227242,93.02295460370078 25.679468242276926,96.0796804000056 27.088626292475965,97.73608623559994 27.766617429850157,97.75316246666625 29.428360413585324,97.05303502204333 30.651403249648865,96.93350066440325 33.296898079745006,97.63362879864144 35.18463810929097,96.64320244851115 37.497784342675004,96.36997996392165 39.757754800550174,97.13841663395579 40.2363367798971,98.45328587221593 42.32348596747033,98.62404706577217 42.80206794681726,97.78731492163206 42.38995568687096,97.30917967762798 42.44313146226341,96.60904967156966 42.762186115200166,96.2504449334665 44.23781388474163,95.85768614726112 44.942392909899354,95.19170095254958 46.178729689796455,93.77433567943808 46.37813884788193,92.98880080784875 47.16248153615743,91.98125950711983 47.880354505148716,89.24890201060771 47.77400295424741,86.20908199672704 47.189069423940964,84.07433141303045 46.19202363368822,82.29819030357612 45.66026587883243,81.83707249513827 44.29098966025049,81.39303146775637 43.28064992616419,81.46134557771438 42.16395864106016,82.09324927174748 39.983751846360974,85.04778233751858 39.026587887783535,87.93393303598714 39.0,91.29817590084713 39.45199409156339,93.14249281332741 40.32939438696485,94.90139857002214 40.99409158050548,95.66984453937039 42.09748892171774,96.16506269676756 43.26735598227242,96.19921559865179 44.34416543570114,95.70399758058193 46.045790251053404,93.85971959822928 46.963072378130164,92.35695385161671 47.90694239293225,89.07812762427056 47.98670605616644,87.62653563632193 47.74741506646387,86.07245908429468 47.122599704540335,83.9377060968909 46.258493353030644,82.34942550744017 45.633677991107106,81.81999402413203 44.38404726731824,81.37595293422783 43.466765140299685,81.42718852755206 42.27031019201968,82.00785707293835 39.983751846360974,85.04778233751858 39.026587887783535,87.9510106464586 38.98670605610823,91.31525303790113 39.94387001480209,94.18417794171546 40.515509601158556,95.15754776712129 41.57902511075372,95.97722156457894 42.90841949777678,96.2162920460105 43.91875923186308,95.96014508361986 45.939438700152095,93.99633374332916 47.48153618903598,91.11032723502285 48.0,87.60945798012835 47.122599704540335,83.8864715636737 46.28508124075597,82.38358229803998 45.58050221565645,81.78583707491634 44.317577547975816,81.39303146775637 42.70901033980772,81.7516801161255 41.56573116692016,82.7763846984235 40.54209748894209,84.27926909875532" stroke="#4DD2FF" stroke-linecap="round" stroke-linejoin="round" stroke-width="0.5"><title>2024-12-28 9.1km</title><desc>1735368240000</desc></polyline><polyline fill="none" points="58.66666666668607,96.14792490794207 59.330329100135714,96.81097945733927 63.56302061997121,97.36036503879586 64.99358186533209,96.90570126927923 65.27379489282612,95.33331056234601 69.43274614226539,93.79879108136811 69.78669944009744,97.34142074570991 71.49747371295234,99.04639644618146 72.20538030861644,99.08428454987006 73.37047658063238,98.49701774488494 75.1697391779162,98.15602294073324 76.36433155811392,98.28863213388831 78.2963266420993,98.97062020687736 79.74163594155107,98.09919038935914 81.18694524106104,97.62558486188937 83.17793254129356,97.51191928742628 84.91820292227203,97.79608304372232 86.08329919434618,96.58364683686523 86.95343438483542,96.7162575787952 88.04479038651334,97.34142074570991 89.90304519998608,97.13303334600641 91.96777277073124,95.35225513801561 93.35408985387767,93.1736114633095 94.29796531476313,90.76759008849331 94.59292639628984,88.51309009011311 94.23897309839958,85.59544580728107 93.35408985387767,83.0187722977862 92.20374163595261,81.5030589576927 90.62569984974107,80.91571545012994 88.95916973915882,81.14307453125366 86.2750238973531,83.83346116587927 84.99194319272647,86.8837640665588 84.59374573262176,89.13829135210835 84.80021848971955,92.54842894201283 85.4491328689619,94.65130406351818 86.30452000547666,96.14792490794207 87.30738768266747,97.038311693992 88.35449952201452,97.36036503879586 89.75556465931004,97.28458785050316 90.52246347127948,96.82992382507655 92.33647412259597,95.0112523684802 93.44257817830658,93.1736114633095 94.38645363925025,90.57813776021067 94.60767445043894,87.45213584948215 94.09149255772354,84.81865972196101 93.2213573672343,82.65879192492866 92.3069780144724,81.5598985159304 91.1123856343329,81.01044844726857 89.9915335245314,80.91571545012994 89.01816195540596,81.218860806257 86.65847330330871,83.568214168743 85.56711730163079,85.38704022436286 84.99194319272647,86.95954710962542 84.5495015704073,90.61602824721194 84.96244708454469,93.1925563429104 85.62610951793613,95.0112523684802 86.31926805956755,96.16686936897167 87.42537211527815,97.13303334600641 89.66707633482292,97.34142074570991 90.87641676911153,96.50786921141844 92.38071828486864,94.97336311853724 93.4278301243321,93.24939096564776 94.29796531476313,90.86231615263387 94.66666666668607,87.86894029837276 94.22422504442511,85.4817700747808 93.41308207018301,83.0945575167716 92.46920660929754,81.73041704675416 91.28936228319071,81.0672882135841 89.91779325413518,80.97255525639048 88.81168919848278,81.33254013882834 86.34876416769112,84.02292298663815 84.84446265193401,87.54686424665852 84.56424962449819,90.04766982265573 84.78547043557046,92.51053899890394 85.68510173429968,95.16280926155741 86.42250443808734,96.29948052144027 87.38112795300549,97.07620036278968 88.75269698211923,97.39825361693511 89.74081660516094,97.32247644999006 92.38071828486864,94.99230774481839 94.00300423323642,91.94218857280794 94.50443807180272,90.00977917568525 94.6371705585043,87.86894029837276 93.8260275843204,84.06081531880773 92.94114433974028,82.29881058931642 92.23323774407618,81.54095199916628 91.06814147206023,81.01044844726857 89.63758022669936,81.01044844726857 88.84118530660635,81.29464703863778 87.79407346720109,82.14723921265977 86.51099276251625,83.7008377326274 86.21603168098954,84.61025293641433 85.37539259868208,85.7470133012539 84.56424962449819,89.55509058032476 84.77072238159599,92.49159402339137 85.24266011203872,94.08296267528203 86.03905503201531,95.80692415378871 86.90919022262096,96.77309071394848 87.60234876413597,97.17092198808677 89.04765806364594,97.4171979020175 90.6109517957666,96.79203508698265 92.3217260685633,95.0491416076984 93.9292639628984,92.09374892107735 94.46019390958827,90.12345108459704 94.65191861259518,87.94472278680769 94.17998088221066,85.21652632561745 93.38358596200123,83.0187722977862 92.66093131230446,81.91988182760542 91.62856752704829,81.19991424151522 90.03577768668765,80.91571545012994 88.76744503621012,81.33254013882834 87.89730984566268,82.09039990237216 86.37826027587289,83.96608446841128 85.47862897720188,85.65228363749338 85.02143930085003,86.77008942203247 84.5495015704073,89.85821648118144 85.10992762533715,93.74195669061737 85.8620783831575,95.46592253589188 86.80595384410117,96.67836880870163 87.5728526560124,97.17092198808677 89.06240611773683,97.39825361693511 89.81455687567359,97.26564354677976 91.06814147206023,96.39420269322 92.54294687975198,94.72708273402532 93.73753925983328,92.62420879620186 94.5339341799845,89.85821648118144 94.6371705585043,87.98261401501077 94.25372115254868,85.4817700747808 92.83790796122048,82.12829277853598 92.18899358186172,81.48411243291048 90.77318039059173,80.95360865698603 89.50484773999779,81.04834162746556 88.51672811683966,81.52200547976827 86.31926805956755,84.0987076402962" stroke="#4DD2FF" stroke-linecap="round" stroke-linejoin="round" stroke-width="0.5"><title>2024-12-27 16.0km</title><desc>1735261057000</desc></polyline><polyline fill="none" points="105.33333333331393,96.14096736442298 105.92349726764951,96.7663893859135 110.2021857923246,97.37285645140219 111.64808743161848,96.91800640827569 111.8546448086854,95.47763780437526 112.62185792339733,94.90906700972118 114.18579234968638,94.20782639061508 116.08907103823731,93.80982333394059 116.45792349718977,97.39180850320554 118.25792349717813,99.07853043242358 121.65136612020433,98.14988838820136 123.4071038251277,98.39626343212149 124.73497267754283,98.96481950569432 127.52349726774264,97.67608896007005 129.20546448085224,97.52447279110493 131.5808743169182,97.84665694620344 132.28907103830716,96.80429365747841 132.9972677595797,96.42525046149967 134.63497267762432,97.29704821755877 136.50874316936824,97.14543162187329 137.88087431690656,96.19782403179852 139.07595628418494,94.92801940818026 140.07923497271258,93.10857699130429 140.96448087436147,90.83423940409557 141.30382513656514,88.01021677929384 140.77267759561073,85.07241227684426 139.90218579239445,82.79793896799674 139.04644808743615,81.6417336416489 137.32021857920336,80.95937829905597 135.54972677590558,81.24369344535808 133.36612021859037,83.51819300549687 131.71366120211314,86.816149131555 131.21202185784932,89.88658740690153 131.74316939886194,93.50658212033159 133.10054644808406,96.36839389010856 134.6497267759405,97.29704821755877 136.56775956286583,97.14543162187329 137.83661202189978,96.25468067525071 139.10546448093373,94.90906700972118 140.0349726775894,93.33600863759057 140.99398907105206,90.77738047228195 141.31857923499774,87.85858972836286 140.53661202185322,84.20053538234788 139.69562841532752,82.36199386327644 138.72185792354867,81.39532794457045 137.40874316939153,80.9404239346477 136.50874316936824,80.9404239346477 135.37267759564565,81.43323654269625 133.18907103821402,83.74564084858866 131.77267759561073,86.62661361058417 131.19726775959134,89.84868118829036 131.610382513667,93.05171901971335 132.28907103830716,95.00382897554664 133.11530054645846,96.38734608321101 134.1480874316767,97.08857535445713 135.54972677590558,99.04062680082279 135.09234972676495,98.64263802535424 135.09234972676495,97.82770495842851 135.56448087427998,97.35390439696494 137.14316939888522,96.82324578930275 138.97267759568058,95.00382897554664 140.68415300548077,91.87664889918233 141.33333333331393,88.02917014868581 140.9054644809221,85.48939488313044 140.41857923491625,83.8404106698581 139.28251366113545,81.8881388878508 137.88087431690656,81.01624137633189 136.73005464480957,80.9404239346477 135.44644808740122,81.357419335749 134.50218579231296,82.13454368317616 133.05628415301908,83.95413436731906 132.92349726782413,84.61752068830538 132.49562841531588,84.90182811123668 132.08251366118202,85.81160783096857 131.53661202185322,87.57428854769387 131.19726775959134,89.92449361483159 131.71366120211314,93.4497243167425 133.07103825133527,96.29258509087958 134.22185792354867,97.14543162187329 135.16612021852052,97.33495233982103 136.81857923499774,97.03171906307398 137.55628415301908,96.48210700895288 139.1644808743149,94.81430497726251 140.0349726775894,93.35496125748614 141.21530054643517,89.62124365274212 141.33333333331393,87.99126340728253 141.05300546443323,86.0011444989359 140.44808743166504,83.91622647884651 139.60710382519756,82.22931463824352 138.6333333333023,81.357419335749 137.71857923496282,80.99728701992717 136.59726775955642,80.9404239346477 135.49071038258262,81.3195107162901 132.9825136611471,84.01099618001899 131.65464480873197,86.87300973579113 131.21202185784932,89.9623998120951 131.37431693990948,91.89560172437632 131.9202185792965,94.13201637525344 132.87923497264273,96.06515843716625 133.97103825141676,97.03171906307398 134.76775956281926,97.33495233982103 135.68251366121694,97.37285645140219 136.9366120218183,96.95591063720349 139.25300546444487,94.70059045030212 140.96448087436147,90.98586310478277 141.25956284155836,87.40370755117328 140.566120218602,84.25739709094341 139.9907103825244,82.85480126889888 139.32677595625864,81.8881388878508 138.27923497266602,81.16787613173074 136.68579234968638,80.92146956757642 135.44644808740122,81.30055640262435 133.02677595627028,83.973088307539 131.65464480873197,86.96777735624346 131.19726775959134,89.88658740690153 131.34480874316068,91.76293189177522 132.34808743163012,95.15544798210612 133.13005464477465,96.34944169427035 134.25136612018105,97.14543162187329 135.68251366121694,97.31600028004323 136.73005464480957,97.03171906307398 139.04644808743615,94.94697180403455 140.69890710385516,91.80083757157263 141.27431693987455,89.03369490799378 141.27431693987455,87.44161445795908 140.78743169398513,84.88287430166383 140.18251366121694,83.27179074203013 139.4005464480142,81.9450015729235 138.3825136612286,81.20578479382675 136.77431693987455,80.9404239346477 135.5054644808406,81.30055640262435 133.79398907104041,82.873755363893 132.9382513660821,84.14367364962527" stroke="#4DD2FF" stroke-linecap="round" stroke-linejoin="round" stroke-width="0.5"><title>2024-12-26 16.2km</title><desc>1735171955000</desc></polyline><polyline fill="none" points="152.0,96.77057373226853 156.71960297762416,97.40168318065116 158.01488833740586,97.00006841625145 158.163771712163,95.52747079296387 158.52109181141714,95.24059926920745 160.51612903230125,94.32260632388352 162.43672456569038,93.78710757559747 162.6451612902456,93.84448254239396 162.88337468978716,97.114815612862 164.6401985111297,99.10375162865967 165.47394540946698,99.12287587211176 166.5905707196216,98.43440141121391 168.5409429280553,98.1092872590234 171.2952853597817,98.98900611119461 172.99255583120976,97.9945409019565 174.55583126546117,97.57380343068507 178.18858560791705,97.89891886380792 179.32009925559396,96.61757706102799 181.82133995037293,97.45905662153382 183.191066997475,97.19131369017123 184.79900744411862,95.94821459920786 186.8089330024668,93.15598134197353 187.65756823820993,90.76532509137178 187.97022332507186,87.87735625384084 187.4640198511188,84.89369485228963 186.19851116626523,82.17774097908114 185.26054590573767,81.27878654291271 183.6674937964999,80.87712412788824 181.79156327538658,81.41267375073221 179.75186104216846,83.7078625135473 178.50124069483718,86.04126468239701 177.80148883379297,89.63692073151469 178.00992555828998,92.58222767716506 179.58808933000546,96.25420927650703 180.28784119110787,96.88532112269604 181.33002481388394,97.34430971552501 183.32506203470984,97.13394013626385 184.8138957816409,95.90996521609486 186.0496277915663,94.39910597277049 187.38957816379843,91.68334206547297 187.97022332507186,87.80085293365119 187.508684863511,84.89369485228963 186.55583126551937,82.77066511833982 185.6774193548481,81.54656082665315 184.3821339950082,80.97275814396562 183.38461538462434,80.89625093652285 182.19354838714935,81.1640259741107 180.89826302725123,82.2351208475593 179.7369727047626,83.65048326691613 178.5459057071712,85.96476032854116 177.81637717119884,89.10140351959853 177.96526054583956,91.91284534001898 178.41191066993633,93.88273250675411 179.3498759305221,95.83346641757817 180.13895781635074,96.77057373226853 181.16625310172094,97.26781172437768 182.62531017372385,97.34430971552501 184.60545905708568,96.12033668995718 186.01985111657996,94.39910597277049 187.06203473947244,92.56310251326067 187.7915632754448,89.98118068196345 187.98511166253593,87.76260125740373 187.44913151365472,84.83631610640441 186.46650124067673,82.57939954963513 185.66253101738403,81.5274341096083 184.3225806451519,80.97275814396562 182.9230769230635,80.93450454557023 181.86600496276515,81.35529353498714 180.5409429280553,82.65590580942808 178.51612903218484,86.04126468239701 177.9503722084919,88.18336910386279 177.80148883379297,90.17243583314121 178.41191066993633,93.86360752592736 179.43920595530653,95.98646397155244 180.0049627791741,96.61757706102799 180.85359801485902,97.1721891748457 182.46153846156085,97.38255869495333 183.44416873448063,97.03831749250821 184.39702233253047,96.31158320179384 186.01985111657996,94.3799810645869 187.1364764267928,92.37185072642751 187.82133995037293,89.90467854611052 188.0,87.81997876771493 187.47890818858286,84.85544235771522 186.42183622828452,82.48376666434342 185.64764267986175,81.48918066742772 184.14392059558304,80.87712412788824 182.8635235732072,80.89625093652285 181.88089330022922,81.33616679099214 180.57071960298344,82.57939954963513 178.45657568238676,86.09864291950362 177.7866004962707,90.19156133347133 178.23325062030926,93.2707317842287 179.63275434239767,96.3307078381622 180.79404466506094,97.13394013626385 181.88089330022922,97.42080766364234 183.0868486352847,97.2104382027319 183.96526054589776,96.69407541815599 185.93052109185373,94.53298025479307 186.83870967739495,93.02210570350871 187.41935483872658,91.6068408877909 187.88089330022922,89.29265990896965 187.97022332507186,87.85823042780976 187.65756823820993,85.6204902032332 186.9131513647153,83.40183958495618 186.1538461538148,82.12036108634493 185.55831265507732,81.37442027624638 184.29280397016555,80.91537774243625 183.14640198508278,80.87712412788824 181.98511166259414,81.25965978816384 180.0496277915663,83.21057490468957 179.55831265507732,84.10951656138059" stroke="#4DD2FF" stroke-linecap="round" stroke-linejoin="round" stroke-width="0.5"><title>2024-12-22 13.5km</title><desc>1734819430000</desc></polyline><polyline fill="none" points="12.0,136.1371029267466 12.384552177449223,136.66907211956277 16.762530813459307,137.35302943049464 18.271158586605452,136.9160571037355 18.52259654889349,135.2441499268607 22.56039441243047,133.80021343083354 22.797041906334925,133.9712067166547 23.018898931739386,136.72606869446463 23.876746096881106,138.34096165178926 24.793755135615356,139.0439090229629 25.385373870143667,139.10090459539788 26.76088742807042,138.43595475358597 28.432210353261326,138.11297793460835 31.538208709913306,138.8729221613903 33.32785538205644,137.88499383245653 34.92522596550407,137.46702197879495 36.463434675417375,137.486020727476 38.105176663957536,137.88499383245653 39.34757600654848,136.47908336276305 41.98027937550796,137.35302943049464 43.29663106001681,137.03005002095597 44.65735414955998,136.02310925563506 46.949876746104565,132.71725092433917 47.674609695968684,130.64629843318835 48.0,127.89131239344715 47.33442892355379,124.60425549383217 46.22514379618224,122.1911627787631 45.352506162715144,121.31711855543836 44.02136400988093,120.91809648496564 42.36483155301539,121.14610924109002 41.388660640921444,121.77314233452489 40.0131470830529,123.35021269474237 38.91865242400672,125.25027299554495 38.11996713228291,127.45430944170221 37.85373870172771,129.7533091163641 38.35661462612916,133.64821921709517 39.924404272809625,136.44108557932486 40.82662284298567,137.08704644349928 42.12818405922735,137.3340306630853 43.51848808553768,136.9160571037355 44.42070665571373,136.2320975792245 46.668857847107574,133.32523094485805 47.34921939193737,131.7482771078212 47.8668857847224,129.31631219174596 47.940838126523886,127.83431208868569 47.58586688578362,125.53527973410382 46.18077239114791,122.1911627787631 45.27855382091366,121.33611957696849 44.25801150366897,121.03210291118012 42.92686935083475,120.97509971007821 41.66967953980202,121.56413162701938 40.072308956470806,123.31221121593262 38.97781429742463,125.11726964495028 38.09038619551575,127.4923097545252 37.85373870172771,129.52531089742843 37.957271980296355,131.7482771078212 38.51930977811571,134.10420134484593 39.17009038623655,135.39614234391775 39.76170912082307,136.32709216480725 40.797041906334925,137.08704644349928 42.009860312216915,137.35302943049464 43.28184059157502,137.0490488311625 45.58915365656139,134.9211654725077 47.26047658181051,131.9382725219184 47.792933442862704,129.86730808144785 47.92604765819851,127.7013112839195 47.58586688578362,125.57328058713756 46.89071487257024,123.54021992823982 46.16598192276433,122.1911627787631 45.17502054234501,121.24111444246955 43.755135579325724,120.91809648496564 42.26129827438854,121.18411132962501 40.0131470830529,123.35021269474237 38.327033689362,126.8083024869702 37.824157764960546,130.09530572283256 38.50451930984855,134.12320056678436 39.49548069020966,135.96611238399055 40.47165160230361,136.9160571037355 42.009860312216915,137.35302943049464 43.04519309778698,137.14404284195916 44.19884963019285,136.44108557932486 45.6483155299793,134.8831672505912 47.29005751846125,131.82427530550922 47.792933442862704,129.82930843708164 47.911257189756725,127.73931152722798 47.61544782249257,125.78228508745087 46.90550534095382,123.57822134286107 46.21035332791507,122.1911627787631 45.3081347575644,121.29811753118702 44.110106820065994,120.93709756270982 42.778964667231776,121.03210291118012 41.71405094489455,121.52612964544096 40.85620377975283,122.34316989211948 38.87428101891419,125.26927346347657 38.11996713228291,127.41630911815446 37.838948233402334,129.6013103464793 38.40098603122169,133.72421634536295 39.939194741193205,136.51708113549103 40.82662284298567,137.1060452456586 42.26129827438854,137.3340306630853 43.01561216101982,137.18204042760772 44.228430566960014,136.3840888840641 45.57436318817781,134.97816278527898 46.6540673787822,133.32523094485805 47.77814297453733,129.90530771507474 47.940838126523886,127.73931152722798 47.6598192275851,126.04829034724389 47.31963845517021,124.60425549383217 46.18077239114791,122.1911627787631 45.27855382091366,121.29811753118702 44.02136400988093,120.93709756270982 42.85291700903326,120.99410077980428 41.74363188166171,121.48812765307957 39.64338537387084,123.99623619759222 38.88907148723956,125.26927346347657 38.11996713228291,127.53031005662342 37.838948233402334,129.46831128248596 37.986852917063516,131.82427530550922 38.99260476580821,135.11115642158256 39.83566146262456,136.40308778519102 40.82662284298567,137.1060452456586 42.009860312216915,137.35302943049464 43.31142152828397,137.06804763870605 45.603944124886766,134.9211654725077 47.23089564504335,131.99527109399787 47.70419063267764,130.34230273310095 47.940838126523886,127.77731175979716 47.42317173379706,125.04126767150592 46.15119145438075,122.13416006715852 45.2489728841465,121.27911650428723 44.05094494658988,120.89909540458757 42.86770747741684,120.97509971007821 41.72884141333634,121.48812765307957 39.584223500452936,124.1292406526627" stroke="#4DD2FF" stroke-linecap="round" stroke-linejoin="round" stroke-width="0.5"><title>2024-12-20 16.0km</title><desc>1734644952000</desc></polyline><polyline fill="none" points="58.66666666668607,136.598474776707 63.10542955325218,137.4184560510912 64.70872852235334,137.0561393556127 65.06501718214713,135.39709790317283 66.93553264607908,134.38640752252832 69.22171821305528,133.73803613962082 69.6967697594664,137.34217893258028 70.82501718209824,138.75329867612163 71.38914089347236,139.07747275795555 72.04233676975127,139.09654179740755 73.20027491409564,138.44819294956687 75.0707903780276,138.1430865361326 78.02501718210988,138.94398940635438 80.54872852237895,137.704494863312 81.70666666672332,137.55194090529403 84.9281099656364,137.89518706939998 86.21965635736706,136.46498898341088 88.11986254295334,137.36124821622798 89.87161512026796,137.265901771083 92.0538831615122,135.2636109264422 93.92439862544416,132.17430415887793 94.63697594497353,127.94069530905108 93.86501718213549,124.20280457673653 93.00398625427624,122.35289193780045 92.24687285220716,121.51374798096367 90.999862542958,120.9606729860534 89.84192439861363,120.94160139431187 88.14955326460768,121.64724850353377 86.63532646046951,123.32552956676227 85.53676975949202,125.28985486166494 84.45305841922527,129.04678606128437 84.67573883163277,132.55570386681939 86.18996563571272,136.04546134828706 87.0806872852263,136.9417233557615 87.86749140900793,137.28497106547002 89.84192439861363,137.20869387176936 91.41553264600225,135.9501139774511 92.57347079034662,134.5580347222567 94.08769759448478,131.5831324900937 94.66666666668607,127.76905972798704 94.34006872854661,125.72848671775137 93.53841924399603,123.3636720765935 92.15780068724416,121.41839038426406 90.82171821309021,120.94160139431187 89.26295532652875,121.01788774543093 88.10501718212618,121.64724850353377 86.75408934708685,123.23017324517423 85.22501718212152,125.9954793262441 84.6608934707474,128.20768355869222 84.49759450176498,130.38171115214936 85.0617182130809,133.75710593049007 86.1602749141166,136.00732240801153 87.0806872852263,136.9035846676852 88.25347079039784,137.36124821622798 89.8122336770175,137.24683247401845 92.02419243979966,135.2636109264422 93.86501718213549,132.17430415887793 94.4736769759329,130.01937564210675 94.6518213058589,127.71184781934426 93.93924398621311,124.24094683959265 92.35079037799733,121.55189100083953 90.98501718213083,120.9606729860534 89.6340893470333,120.9034582025779 88.29800687282113,121.47560495029029 87.40728522336576,122.35289193780045 85.25470790371764,125.88105398700282 84.46790378005244,129.67610952834366 85.03202749148477,133.56640790140955 85.78914089343743,135.39709790317283 86.82831615116447,136.73196043857024 88.07532646053005,137.28497106547002 89.53017182130134,137.28497106547002 91.50460481102346,135.89290552266175 93.74625429551816,132.55570386681939 94.45883161510574,130.01937564210675 94.63697594497353,127.94069530905108 94.31037800683407,125.6522030186461 93.53841924399603,123.3064583078085 92.3656357388245,121.55189100083953 90.9553264604765,120.9606729860534 89.64893470791867,120.92252979979094 88.3573883161298,121.4565334309882 87.62996563571505,122.23846352241526" stroke="#4DD2FF" stroke-linecap="round" stroke-linejoin="round" stroke-width="0.5"><title>2024-12-15 10.9km</title><desc>1734216782000</desc></polyline><polyline fill="none" points="105.33333333331393,136.06376647828438 106.17020119627705,136.85586230868648 108.78357803152176,137.04445586401562 110.25176726479549,137.42164217862592 111.74932028271724,137.02559652044147 111.99891245237086,135.3659638918616 113.83414899394847,134.46070106854313 116.0804785208893,133.81946953566512 116.31538879824802,133.9137684829475 116.34475258283783,136.02604751239414 116.75584556820104,137.5913756738737 118.22403480147477,139.00581310824782 119.01685698749498,139.0246721732401 120.42631865141448,138.36460332096613 122.10005437739892,138.1194340621587 124.91897770523792,138.9303768218815 126.81294181616977,137.8931235790369 128.6628602501005,137.49707931412559 131.58455682429485,137.81768666645803 132.74442631856073,136.49753382240306 133.4785209352849,136.57297147809004 134.81457313755527,137.28962708925246 136.59108210972045,137.08217454330588 137.78031538875075,136.27122060058173 139.14573137572734,134.8190350005898 140.01196302333847,133.36683366532088 140.95160413265694,130.85844884018297 141.2892876562546,128.35001706446928 140.98096791736316,125.8226774148934 139.98259923869045,123.0123706424638 138.79336595971836,121.54117983634933 137.4719956497429,121.03191771713318 136.10657966282452,121.12622566299979 134.97607395326486,121.69207194444607 133.4638390429318,123.44618023252406 131.80478520930046,126.65255539154168 131.2321914084023,129.97201590787154 131.6432843937073,133.1216552638798 133.12615551927593,136.34665838365618 134.93202827620553,137.2707677801809 136.73790103313513,137.02559652044147 139.18977705267025,134.7247366903175 140.0706905926927,133.31025407399284 141.0690592713072,130.40580296899134 141.3039695486077,128.4065987499198 141.01033170195296,125.65292901375506 139.79173463833285,122.57855964807095 138.8520935290726,121.54117983634933 137.2664491571486,120.97533291774744 136.0918977704132,121.05077931158303 135.38716693851165,121.39028755832987 133.9189777051797,122.7860346466623 132.0543773789541,125.93584289611317 131.36432843928924,128.74608836107654 131.42305600864347,131.82031624022056 131.90755845565582,134.1400856855471 133.4932028275798,136.64840909128543 133.4932028275798,137.10103387889103 134.78520935284905,137.81768666645803 135.57803153881105,139.06239029511926 135.12289287656313,138.53433562202554 135.24034801521339,137.77996819422697 135.72485046216752,137.28962708925246 136.4736269711866,137.17647119486355 137.486677542096,136.51639324027929 139.14573137572734,134.7813156844204 140.0706905926927,133.31025407399284 141.0690592713072,130.38694269119878 141.3039695486077,127.50128891564964 140.43773790099658,124.03087789274286 139.54214246867923,122.20133155481017 138.58781946706586,121.35256446228595 137.2664491571486,120.9564713126747 135.75421424681554,121.25825667571917 134.57966286019655,122.12588580866577 133.41979336587247,123.50276398853748 131.76073953229934,126.80344174421043 131.24687330063898,130.06631756234856 131.96628602495184,134.21552466823778 133.14083741162904,136.32779894190026 134.2419793365989,137.11989321187139 135.38716693851165,137.36506429909787 136.63512778677978,137.10103387889103 139.17509516037535,134.76245602236304 140.65796628594398,131.80145616151276 141.21587819460547,129.80227276259393 141.33333333331393,127.82192018142086 140.80478520930046,125.18140454925015 139.82109842303907,122.72945058799814 138.41163675906137,121.23939511040226 137.36922240344575,120.9376097048953 135.901033170172,121.16394882276654 134.62370853725588,122.10702436554129 133.2729744426324,123.82340482145082" stroke="#4DD2FF" stroke-linecap="round" stroke-linejoin="round" stroke-width="0.5"><title>2024-12-10 11.3km</title><desc>1733785667000</desc></polyline><polyline fill="none" points="152.0,136.85414686354488 154.14765100675868,135.62996189756086 154.9664429530385,135.44029834375397 155.67785234900657,136.07825640302326 156.4966442953446,136.21619284394546 159.54362416110234,136.6644852046884 160.85906040272675,136.31964507277007 161.18120805372018,134.8023369629591 164.95302013424225,133.2850100637006 165.1275167785352,133.371222322814 165.3154362416244,136.38861317680858 166.92617449664976,138.18177025592013 167.5033557047136,138.25073731184239 168.73825503356056,137.61279056340572 170.22818791947793,137.33692067056836 173.04697986575775,138.0783195992335 174.939597315446,137.06105015659705 176.22818791941972,136.80242098571034 179.0335570470197,137.13001784330845 180.26845637580846,135.85410935535037 181.77181208052207,136.52654926840478 183.51677852350986,136.50930726546358 184.88590604026103,135.5265090864341 186.9395973153878,132.7849777645897 187.66442953015212,130.71585690294887 187.94630872481503,128.78464590564545 187.54362416104414,125.47392765868426 186.53691275167512,123.16326920600841 185.73154362419154,122.21485200231109 184.2818791946629,121.76650676840654 183.0335570469615,121.8527271331186 182.41610738256713,122.1631199436888 180.34899328858592,124.54277203212405 179.060402684554,127.54313704700326 178.80536912754178,129.50885359685344 179.127516778477,132.76773523514566 180.3087248322554,135.4058140297493 180.80536912748357,136.00928812431084 181.82550335570704,136.5437912689158 182.7785234899493,136.6644852046884 183.65100671141408,136.45758124202257 185.19463087251643,135.18166575190116 186.81879194633802,132.97464542862144 187.8120805369108,130.14684254013991 187.98657718120376,127.95697473106702 187.5302013423061,125.43944053946325 186.34899328864412,122.9046106967653 185.39597315434366,122.04241172192269 183.9060402684845,121.74926268815034 183.10067114100093,121.80099492153386 182.44295302015962,122.18036396567913 180.83221476513427,123.85302256073192 179.39597315440187,126.45680647565314 178.7785234899493,129.68128336860536 179.11409395973897,132.5435821312276 180.34899328858592,135.4575404971547 181.57046979857842,136.42309721425408 182.5637583893258,136.6644852046884 183.67785234900657,136.47482325223245 185.51677852350986,134.83682144685008 186.80536912748357,133.07810039435572 187.32885906036245,131.94009096704394 187.79865771811455,130.1640854384459 188.0,127.99146114165342 187.5302013423061,125.3877098423909 186.1208053691662,122.55973183497554 185.4093959731399,122.02516768050555 184.02684563753428,121.74926268815034 182.64429530204507,122.04241172192269 181.40939597319812,123.19775696597208 180.34899328858592,124.64623411792127 180.73825503350236,125.24976121019427" stroke="#4DD2FF" stroke-linecap="round" stroke-linejoin="round" stroke-width="0.5"><title>2024-12-08 8.9km</title><desc>1733614342000</desc></polyline><polyline fill="none" points="12.0,176.20759934093803 12.440584287396632,175.89724110413226 13.193841294909362,175.86072832161153 13.932885906018782,176.57272572783404 16.476904855808243,176.75528853591823 17.99763126729522,177.17518201969506 19.40465850767214,176.70051972047077 19.617844453197904,175.18523999080935 21.451243584626354,174.30892556412437 23.440979076200165,173.74296935094753 23.782076589006465,173.90727947367122 23.98105013812892,176.59098202023597 24.70588235289324,177.97845272373524 25.729174891428556,178.72695049454342 29.324911172443535,177.8141477570898 30.476115278317593,177.99670881827478 32.22424003155902,178.72695049454342 34.46979865763569,177.46728103295027 35.93367548356764,177.21169443232066 38.53454401891213,177.63158643887436 39.78523489931831,176.26236836452154 42.20134228182724,177.1386695967376 43.622581918607466,176.77354480257782 45.129095933632925,175.4955999308877 46.84879589418415,173.15875389611756 47.815238847222645,170.32892305207497 48.0,167.9189539221552 47.70153967628721,166.0201588318596 47.18989340699045,164.34043231453688 46.0244769048295,162.13119367035688 44.61744966445258,161.38260014046682 43.210422423959244,161.34608327245223 42.144492696388625,161.71125149048748 40.82273983408231,162.95281574246474 38.790367153589614,166.64092182308377 38.23608369514113,170.42020888149273 38.59139360440895,172.9944428254821 39.572048953792546,175.38606121328485 40.35373075399548,176.4084189808491 41.47651006706292,177.01087603569613 42.769838136504404,177.0656447201618 44.091590998810716,176.46318791965314 45.59810501377797,174.966161939039 46.74930911959382,173.23178097190976 47.772601658070926,170.47498034827004 47.97157520725159,167.99198394751875 47.70153967628721,165.87409651986673 46.97670746140648,163.7379164157319 45.95341492298758,162.09467701302492 45.25700750097167,161.60170113305503 43.722068693256006,161.27304950547114 42.130280299985316,161.7842850107554 40.35373075399548,163.57359341219126 38.87564153177664,166.42182934186712 38.23608369514113,169.2882600563753 38.52033162250882,172.5927926654549 39.25937623367645,174.80185315747804 40.02684563753428,176.07980486271845 41.064350572414696,176.84656984369212 41.94551914720796,177.08390094313654 42.99723647843348,177.08390094313654 44.10580339509761,176.51795683529053 46.53612317406805,173.57865902023332 47.78681405441603,170.27415152353933 47.97157520725159,168.19281630527985 47.772601658070926,166.31228296249174 47.45992893795483,164.86991367291193 46.43663639953593,162.7337170320534 45.56968022102956,161.76602663451922 44.64587445714278,161.36434170778375 43.309909198549576,161.3095663941058 42.20134228182724,161.71125149048748 41.0785629687598,162.7154587894911 39.89893407019554,164.35869032841583 38.97512830630876,166.14796321996255 38.4208448480349,168.06501393172948 38.25029609154444,170.27415152353933 38.4350572443218,172.17288435039518 39.71417291741818,175.6599078338768 40.31109356490197,176.37190634220315 41.33438610343728,176.97436356658 42.64192656922387,177.12041338147537 43.52309514407534,176.8830823487515 44.50375049345894,176.22585568472277 45.93920252658427,174.5462613057898 47.53099091985496,171.424348765795 47.95736281084828,167.88243889408477 47.57362810894847,165.56371356084128 47.005132254213095,163.92049728668644 46.3655744176358,162.67894229663943 45.541255428339355,161.76602663451922 44.21950256614946,161.3095663941058 42.89774970384315,161.38260014046682 42.116067903640214,161.76602663451922 40.581129095866345,163.35449575034727 38.93249111721525,166.31228296249174 38.27872088435106,169.47083311558526 38.80457954987651,173.68819926385186 40.382155546802096,176.44493160926504 41.448085274372716,177.01087603569613 42.57086458738195,177.08390094313654 43.52309514407534,176.84656984369212 44.66008685348788,175.9885230155778 46.20923805760685,174.1263593134936 47.33201737067429,171.9720581540605 47.78681405441603,170.31066587843816 48.0,167.86418137614965 47.63047769438708,165.54545571657945 46.12396367936162,162.29551850110875 44.63166206079768,161.40085857067606 43.3951835767366,161.27304950547114 42.30082905641757,161.63821792912495 40.652191077766474,163.24494678064366 40.14054480846971,163.42752834543353" stroke="#4DD2FF" stroke-linecap="round" stroke-linejoin="round" stroke-width="0.5"><title>2024-12-07 13.6km</title><desc>1733525549000</desc></polyline><polyline fill="none" points="58.66666666662786,178.91979245474795 58.942285041091964,180.0908526352432 60.10836277960334,181.77934553807427 61.210836277808994,182.89592146301584 62.037691401550546,183.03208881804312 64.30624263826758,182.07891532096255 66.48998822132125,181.6976446077606 71.00588928139769,182.73252051051531 73.46525323903188,181.42530792416073 75.73380447574891,180.74446453872952 80.61012956406921,181.2619057301199 82.22143698460422,179.35553660547885 85.97408716136124,180.58106176978617 87.18256772658788,180.47212651387963 88.66666666651145,179.68234407473938 91.35924617189448,176.90446299570613 93.20376914006192,173.8269599514315 94.0518256771611,171.23964076454286 94.62426383967977,166.96367954947345 93.77620730258059,162.6603875249857 92.0164899880765,158.68384273453557 90.68080094223842,157.485415951116 88.11542991746683,156.96791118195688 85.8044758538017,157.73054930615763 82.98468786792364,160.89001808685134 80.99175500578713,164.7031013664382 80.16489988216199,169.76893864944577 80.88574793864973,175.3793348603649 82.83627797395457,179.00149455771316 84.15076560643502,180.00915099220583 85.99528857460245,180.52659414950176 88.43345111887902,179.87298151028517 91.35924617189448,176.90446299570613 92.88574793864973,174.58953163823753 93.86101295624394,172.08392766973702 94.66666666662786,166.96367954947345 93.60659599525388,161.8977688296727 91.99528857471887,158.68384273453557 91.18963486445136,157.83949736418435 89.53592461720109,157.15857099478308 87.50058892811649,156.99514830956468 85.97408716136124,157.62160118670727 84.74440518242773,158.68384273453557 82.96348645468242,160.89001808685134 81.37338044750504,163.72260141355218 80.3345111894887,167.45392193604494 80.16489988216199,169.55105590399762 80.67373380425852,174.8346433279803 82.98468786792364,179.16489866025222 84.19316843326669,180.00915099220583 85.99528857460245,180.55382796152844 87.352179034031,180.41765886290523 89.09069493506104,179.35553660547885 91.27444051811472,177.04063456608856 93.01295641914476,174.26271556899883 94.34864546509925,170.12299758753215 94.62426383967977,166.88197236422275 94.17903415777255,165.65636044659186 94.30624263838399,164.37626860075397 93.24617196701001,160.97172780202527 91.91048292105552,158.54765824660717 90.6171967019327,157.485415951116 89.1755005888408,156.99514830956468 86.97055359231308,157.07685966946883 85.82567726727575,157.70331228201394 82.66666666651145,161.48922186373966" stroke="#4DD2FF" stroke-linecap="round" stroke-linejoin="round" stroke-width="0.5"><title>2024-12-05 7.7km</title><desc>1733352101000</desc></polyline><polyline fill="none" points="105.33333333331393,176.90046352250647 107.50900900899433,175.6159302353626 108.14414414414205,175.51177830151573 108.64414414414205,176.15404715930345 111.18468468467472,176.39706693620246 112.63063063065056,176.84838810885412 114.19819819816621,176.39706693620246 114.40090090088779,174.90422360152297 116.63063063059235,173.89741208201303 118.14414414414205,173.5675927283737 118.37387387390481,173.88005319063814 118.31981981976423,175.70272344638943 118.73873873875709,176.72687872478127 119.46846846846165,177.85517554380203 120.2117117117159,178.30649138190347 123.46846846851986,177.45593323378853 126.25225225224858,178.18498343408282 127.98198198195314,177.2649908026142 129.64414414408384,176.88310505374102 132.3873873873963,177.21291554284835 133.09009009011788,176.17140573069628 133.52252252254402,175.94574411242502 134.2387387387571,176.51857664511772 135.84684684686363,176.7615957038579 136.8738738739048,176.6053692210553 137.77927927923156,176.04989567984012 138.8873873873381,174.90422360152297 140.10360360360937,173.15097754751332 140.73873873869888,171.53658043130417 141.31981981982244,168.04732738397433 140.50900900905253,164.48853479134414 139.10360360360937,162.24904681402404 137.5765765765682,161.72822982862272 136.52252252254402,161.84975398860115 135.7117117117159,162.19696521446167 134.13063063065056,163.88092579383374 132.65765765763354,166.53702306914784 132.0630630630767,169.74856756810186 132.41441441437928,173.08154154727526 133.00900900899433,174.57440693981334 133.94144144147867,175.94574411242502 135.18468468467472,176.64008623437257 136.36036036035512,176.7095202315977 137.50900900899433,176.20612286610412 138.61711711715907,175.16460455367633 140.50900900905253,172.26566561628715 141.00900900899433,170.49502269161167 141.29279279278126,168.11676621815423 140.52252252254402,164.66213681230147 139.63063063059235,162.83930340554798 139.07657657650998,162.23168628329586 137.5765765765682,161.71086922458198 136.73873873869888,161.78031162612024 135.98198198201135,162.04072028383234 134.96846846846165,162.8740242935237 132.84684684680542,166.08566416746908 132.0630630630767,169.87008382625208 132.400900900946,173.02946452137985 133.02252252254402,174.62648331341916 133.95495495502837,175.98046131135197 134.73873873869888,176.48385959763982 136.09009009005968,176.77895418975095 136.99549549550284,176.53593516522233 138.09009009005968,175.7200820812941 140.44144144142047,172.45661578595173 141.2387387387571,169.08890579208673 140.99549549550284,165.98150418636214 139.5630630630767,162.73514068288205 139.02252252254402,162.21432575012295 137.60360360360937,161.71086922458198 136.67117117118323,161.81503281228652 135.59009009011788,162.31848891258414 134.10360360360937,163.89828609243705 132.8738738738466,166.05094418354565 132.13063063065056,168.7764331931612 132.0495495495852,170.5644601478998 132.36036036035512,173.04682353247335 133.79279279278126,175.84159245702904 135.3738738738466,176.69216173593304 136.61711711710086,176.64008623437257 137.41441441437928,176.25819855088048 138.36036036035512,175.47706097073387 139.61711711710086,173.84533540056145 140.44144144142047,172.4739748776119 140.81981981976423,171.31091033401754 141.29279279278126,167.9952482326844 140.48198198195314,164.52325521508465 139.59009009005968,162.75250114274968 138.549549549527,161.93655688668514 137.60360360360937,161.71086922458198 136.3738738738466,161.86711457313504 135.0630630630767,162.80458250777156 133.9144144144375,164.19341079499281 132.5765765765682,166.7974216841394 132.17117117112502,168.6028369628475 132.0630630630767,170.59917886131734 132.400900900946,173.0641825410712 133.049549549527,174.66120088366733 133.7522522523068,175.8242338392156 134.48198198201135,176.36234985453484 135.86036036035512,176.7615957038579 136.92792792787077,176.553293682824 137.84684684686363,175.94574411242502 139.27927927923156,174.4355365026713 140.45495495497016,172.43925669180317 141.03603603609372,170.39086643391056 141.29279279278126,168.012607952267 140.4009009008878,164.3670132312982 139.61711711710086,162.78722205517988 139.09009009005968,162.23168628329586 137.83333333337214,161.6935086181038 136.67117117118323,161.76295102941367 135.42792792792898,162.37057046087284 134.26576576574007,163.70732267331914 132.79279279278126,166.2071840342469 132.0495495495852,170.02631883943832 132.400900900946,173.04682353247335 133.0630630630767,174.6785596651098 133.81981981982244,175.87630968525627 134.84684684680542,176.5706521980028 135.83333333337214,176.74423721556377 137.10360360360937,176.44914254038304 139.33333333337214,174.40081886891858 140.44144144142047,172.4739748776119 140.79279279278126,171.3803473310254 141.33333333331393,167.7695716563685 140.67117117118323,164.99197997890587 140.0360360360355,163.53371930848516 139.29279279278126,162.4573729924159 138.50900900899433,161.93655688668514 137.13063063065056,161.71086922458198 135.79279279283946,162.12752304748574 134.75225225224858,163.0649890028144 133.76576576579828,164.57533583234908" stroke="#4DD2FF" stroke-linecap="round" stroke-linejoin="round" stroke-width="0.5"><title>2024-12-03 16.2km</title><desc>1733178751000</desc></polyline><polyline fill="none" points="152.0,184.58302042137075 154.48847926268354,183.36531031914637 156.43186306778807,183.091324601628 158.80184331804048,183.33486747879942 161.6695194207132,184.3699216482346 164.4897959183436,182.7564526978531 167.3100724160904,182.08670733541658 172.21593153395224,182.78689561966166 174.23041474656202,180.41233485838166 175.0125082291197,180.38189160241745 177.61948650423437,181.69094773760298 179.72876892692875,181.69094773760298 181.41145490447525,180.83853999098937 183.0704410795588,179.28593153702968 184.37393021723256,177.91597364802146 186.64911125728395,173.92782462811738 187.97630019742064,167.38222985599714 186.64911125728395,160.62331485393224 185.06122448970564,157.3351176801807 183.56813693221193,156.02591415210918 181.3877551020123,155.50831987391575 179.0651744568022,155.84323396005493 177.16919025685638,157.27422466852295 174.56221198150888,160.4710846067028 172.8321263990365,163.94190761812206 172.0974325214047,166.92555306224676 171.78933508892078,169.2393722183915 172.0500329163624,173.34938469571352 172.5951283739414,175.87624249485089 174.39631336403545,179.46859193350247 175.72350230417214,180.99075590640132 178.2830809742445,181.81271999863384 179.5628703093389,181.78227693977533 181.57735352194868,180.71676718158415 184.3502304147696,177.94641725088877 186.19881500990596,174.99336782321916 187.57340355496854,170.85294198268093 188.0,166.4993205183564 186.9572086900007,161.35401854896918 185.46412113239057,157.9744932676258 184.11323238979094,156.36082743678708 180.65306122449692,155.41697957862925 178.3304805792868,156.20859418981127 174.56221198150888,160.41019247785152 172.5951283739414,164.70304557000054 171.76563528634142,170.4267171768879 172.52402896631975,175.7544668923074 174.01711652392987,178.9510537431197 175.51020408154,180.89942636997148 177.2402896642452,181.5996184968244 179.49177090183366,181.7518338766822 182.54904542455915,179.89479892542295 186.4121132324217,174.44537483550084 187.62080316001084,170.09182566893287 188.0,166.43843008644762 186.74391046736855,160.74509897448297 185.06122448970564,157.36556417963584 183.40223831462208,155.9041273745097 180.60566161957104,155.41697957862925 178.85187623428646,155.84323396005493 177.5246872942662,156.8175265347527 174.58591178408824,160.41019247785152 172.80842659645714,163.94190761812206 171.67083607637323,170.21360445911705 172.5951283739414,175.7544668923074 174.20671494409908,179.1337144223071 175.6524028966669,180.89942636997148 177.40618828171864,181.5996184968244 179.51547070441302,181.66050466158777 181.22185648453888,181.02119907656743 182.88084265962243,179.59036544547416 186.0803159973584,175.05425584729528 187.64450296247378,170.33538318071805 187.9526003949577,166.56021093318122 187.3127057272941,162.66318982988014 186.24621461483184,159.5272546831111 183.8999341671588,156.17814752759296 180.55826201441232,155.44742634800787 177.9275839367183,156.45216733352572 174.70441079651937,160.2579620807228" stroke="#4DD2FF" stroke-linecap="round" stroke-linejoin="round" stroke-width="0.5"><title>2024-12-01 10.0km</title><desc>1733006314000</desc></polyline><polyline fill="none" points="27.600231188116595,227.79311604078976 30.499280759482644,227.6689855955192 32.46419213572517,226.551809229044 38.61661955923773,218.69007772995974 40.90364755433984,210.00055098175653 40.45268428779673,202.9246037825651 37.65026970207691,195.47605432753335 35.74978164979257,193.44836096445215 33.301695345086046,192.33105456383782 30.338222449994646,192.20690914604347 27.37474955478683,193.61388747752062 22.929540212033316,198.869305814791 20.578088893089443,203.71082854777342 19.482892388361506,207.8488189750933 19.06414078362286,211.448823273764 19.450680726440623,217.11770620560856 21.96319035498891,223.90367051685462 23.638196774059907,226.30354723794153 26.82715130248107,227.8758696419245 29.08196763554588,228.0 31.723323911894113,226.92420182278147 34.590161821222864,224.40019834198756 38.165656292578205,219.31074838535278 40.35604930203408,213.6419077355822 40.96807087818161,206.3591491302359 39.808451049611904,200.1934908934345 38.61661955923773,197.2968282875372 36.490649873623624,194.11046645743772 34.49352683569305,192.66210875473917 30.306010788073763,192.12414550504764 28.759851016686298,192.66210875473917 25.82858978351578,195.18638470335281 22.929540212033316,198.869305814791 21.093475483590737,202.30389853552333 19.70837402169127,206.6074279618624 19.128564107464626,211.986751165241 19.450680726440623,216.91081458967528 21.898767031147145,223.90367051685462 23.509350126376376,226.13803912734147 25.603108150069602,227.46210140336188 28.502157721319236,227.9586232197762 31.240148983313702,227.29659394492046 35.65314666402992,223.0761222783185 38.8098895305302,218.1107839360775 40.1305676685879,214.4281038424524 41.03249420190696,206.6074279618624 39.808451049611904,200.0693487956887 38.61661955923773,197.17268496670295 36.65170818311162,194.11046645743772 34.5579501594184,192.62072700128192 30.91803236422129,192.12414550504764 28.53436938324012,192.78625398030272 26.988209612085484,193.90355865110178 22.832905226387084,198.9106866887596 20.513665569364093,203.75220874027582 19.54731571220327,207.22812412367784 19.386257402715273,215.95911128103035 19.933855655021034,219.1038583124755 21.930978693184443,223.82091579778353 23.187233507283963,225.80702262671548 25.635319811990485,227.46210140336188 28.083406116697006,228.0 31.014667349867523,227.29659394492046 32.94736706407275,226.05528503714595 35.97526328312233,222.66234728557174 39.164217811543494,217.49011074760347 40.45268428779673,213.43501367379213 41.09691752574872,207.2695038211532 39.808451049611904,200.11072950073867 37.456999730551615,195.26914748223498 35.20218339737039,192.95178086619126 30.853609040379524,192.08276367589133 29.24302594526671,192.45519992915797 27.31032623106148,193.69665069913026 24.121371702523902,197.08992272350588 20.35260725999251,204.24877059672144 19.35404574079439,208.51089203896117 19.128564107464626,212.97984622544027 19.869432331295684,218.97972419889993 20.932417173986323,221.83479555347003 23.155021845479496,225.7242684433295 25.635319811990485,227.50347825340577 28.276676088105887,228.0 31.11130233563017,227.3379708182183 33.59160030214116,225.4346286181535 36.78055483067874,221.58652957971208 39.77623938769102,215.91773280643974 40.96807087818161,210.6626192004187 41.00028254010249,206.19362979277503 38.74546620680485,197.42097155592637 37.13488311157562,194.6484260725265 35.00891342596151,192.70349050246296 32.045440530753694,192.0 28.53436938324012,192.86901743503404 25.667531473911367,195.22776609574794 22.865116888307966,198.869305814791 20.12712562654633,204.8280917025404 18.903082474251278,212.15226724155946 19.70837402169127,218.85559003276285 22.092037002556026,224.40019834198756 23.67040843598079,226.17941616367898 26.215129726333544,227.75173923152033 29.210814283345826,227.8758696419245 31.691112249856815,226.88282489127596 36.748343168757856,221.46239651410724 38.39113792590797,219.0211022424919 40.1627793306252,214.5522398777539 41.064705863944255,207.02122554872767 40.51710761152208,203.04874467480113 38.77767786872573,197.58649583236547 36.97382480208762,194.4829001420585 34.42910351161845,192.57934524209122 31.046879011788405,192.04138184091426 27.82571282144636,193.15868934238097 22.800693564582616,198.95206755693653 23.799255083547905,200.77281999000115" stroke="#4DD2FF" stroke-linecap="round" stroke-linejoin="round" stroke-width="0.5"><title>2024-11-29 13.9km</title><desc>1732833187000</desc></polyline><polyline fill="none" points="58.66666666668607,216.8085588758404 60.84071017761016,215.59437120175426 61.56989247322781,215.50764305309713 62.204551137809176,216.1667754524824 66.18804701179033,216.73917704520136 67.53838459623512,216.27084866706718 67.72743185801664,214.88319858142495 69.4963740935782,213.99856349808397 71.35983996000141,213.42614917867468 71.67041760438588,213.63430014785263 71.62990747694857,215.81986410266836 71.95398849714547,216.72183158143162 72.89922480622772,217.86662695406994 73.91197799454676,218.31760403024964 75.39734933734871,217.62379246037744 76.78819704928901,217.39830285940116 78.21955488872482,217.6064471211139 79.44836209050845,218.14415150390414 80.83920980244875,217.43299359410594 82.70267566898838,216.89528610918205 83.93148287077202,216.82590432737925 85.74093523388728,217.17281284589262 86.59164791199146,216.09739326062117 87.23980995255988,215.92393761014682 89.0357589397463,216.72183158143162 90.44011002755724,216.4269583241039 92.50612653163262,214.55362939048064 93.47836959239794,213.0445381556492 94.3560890223016,210.65076933438831 94.65316329087364,208.01410059712362 94.11302825709572,205.18655763049173 93.12728182051796,202.94876291810942 91.88497124280548,201.90791432376864 90.46711677924031,201.68239596974308 89.38684671168448,201.95995696228783 88.46861715434352,202.65385670885735 86.99674918729579,204.56206086780003 86.01100275071803,206.47023548330617 85.44386096525704,209.19366989925038 85.75443860964151,212.94046221707686 87.02375593897887,215.66375367674482 87.90147536888253,216.37492179377296 89.08977244317066,216.70448611525353 89.9269817454624,216.63510422604304 90.87221805454465,216.18412099433772 92.50612653163262,214.51893784543063 93.47836959239794,213.0445381556492 94.36959239817224,210.6160766909088 94.61265316326171,207.68451303907932 93.65391347836703,203.9722554642285 93.01925481378566,202.80998361343518 91.96599149791291,201.90791432376864 90.96674168546451,201.68239596974308 89.84596149041317,201.80382898084645 88.98174543638015,202.27221233167074 87.72593148285523,203.4518365876429 85.9974993748474,206.52227619535552 85.3898474618909,210.11303226261225 85.80845211306587,213.02719217195408 87.07776944240322,215.68109928941703 87.8204551138333,216.3402307612414 88.6036509127589,216.652449702 90.38609652413288,216.47899483256333 92.61415353836492,214.41486315170187 93.99149787449278,211.89969799773098 94.66666666668607,208.1008340185872 94.22105526382802,205.48145777956233 92.97874468617374,202.75794133384625 91.9254813703592,201.90791432376864 90.87221805454465,201.68239596974308 89.71092773193959,201.85587166332698 88.6441610402544,202.48038213846303 87.72593148285523,203.33040520024952 86.45661415357608,205.56819298328628 85.72743185795844,207.52839230925747 85.41685421363218,209.43652100131294 85.79494873725343,212.99250019729516 86.86171542893862,215.4209148434311 87.84746186551638,216.3402307612414 89.02225556387566,216.72183158143162 89.9269817454624,216.66979517554137 90.9262315579108,216.1667754524824 92.6411602901062,214.43220894011756 93.47836959239794,213.02719217195408 94.47761940490454,210.25180334442848 94.639659915003,208.06614065734175 94.4641160290339,206.6957450767659 93.45136284071486,203.39979457913432 92.45211302826647,202.23751732971868 91.52038009511307,201.73443870344636 90.44011002755724,201.68239596974308 89.29232308088103,202.02934711272246 87.65841460367665,203.59061516961083 87.23980995255988,204.33654737029428" stroke="#4DD2FF" stroke-linecap="round" stroke-linejoin="round" stroke-width="0.5"><title>2024-11-27 11.3km</title><desc>1732665796000</desc></polyline><polyline fill="none" points="105.33333333331393,217.27260599015426 106.02846886980115,217.11806205285393 107.85988364892546,216.01907729873346 108.5416511943913,215.9675621455608 109.21005074883578,216.60291418164707 113.22044807526981,217.11806205285393 114.49040722858626,216.75745877137524 114.63745513057802,215.46958121011266 114.9983908899012,215.12614489823318 116.8966456244234,214.23320596374106 118.35375665302854,213.94128220254788 118.63448446587427,214.30189380607771 118.78153236786602,217.10089049221278 119.11573214503005,217.51300728135539 128.17923010268714,217.70189367797866 130.0507488550502,217.27260599015426 132.48372323304648,217.5816932776288 133.39274662703974,216.48271269879478 134.03441019926686,216.25948105941643 135.5583611833281,217.0493757956865 137.18925609608414,216.91200316535833 138.5126872137771,215.83018829737557 140.3441019928432,213.27157211150916 141.13281346700387,210.7815920996727 141.2932293600752,209.2875797031811 140.8119816808612,205.76713332827057 140.07674217107706,203.96393853066547 139.43507859884994,203.0365708291938 138.71320708008716,202.53853711738338 137.0956801584107,202.29810632202134 135.9059289515717,202.74462027921254 135.15732145064976,203.3800411701377 133.9007302884129,204.99433882100857 132.91149894788396,206.8662104190007 132.25646738451906,209.78558586785948 132.65750711719738,213.7180459139272 133.91409827943426,216.1907943189508 135.17068944178754,216.9978610774706 136.54759252385702,217.11806205285393 137.46998390892986,216.77463038040878 138.60626315139234,215.74432956375676 140.66493377892766,212.48165292073827 141.31996534217615,209.047162206567 140.7718777076807,205.6297479958448 139.98316623346182,203.86089802304195 139.2880306968582,202.93352953840804 138.13838346331613,202.38397451765923 136.88179230102105,202.31527996600198 135.86582497833297,202.77896743899328 134.67607377155218,203.87807144701947 132.93823493010132,206.7459993444063 132.25646738451906,210.28359000001365 132.36341131321387,212.53316954557522 132.79118702805135,214.00997020921932 133.99430622602813,216.29382441514463 135.3712093080976,217.06654736362543 136.6144324792549,217.0837189291051 137.25609605148202,216.91200316535833 138.52605520485668,215.79584481116035 140.54462185909506,212.72206365054444 141.07934150268557,210.93614406215056 141.33333333331393,208.56632579220604 140.6381977967103,205.30345721127378 139.98316623346182,203.84372459660517 139.08751083054813,202.77896743899328 138.04480752564268,202.33245360755973 136.9085282831802,202.29810632202134 135.9059289515717,202.7102731097475 134.74291372689186,203.77503086689103 133.80715435073944,205.06303186431614 132.8312910013483,207.02076734089496 132.33667533105472,208.8754351332318 132.21636341133853,210.71290227570717 132.77781903697178,214.06148618878797 133.87399430625373,216.1564509342279 134.40871394978603,216.62008581240661 135.58509716548724,217.10089049221278 137.05557618511375,216.9806894998328 139.18108676816337,215.00594196071324 140.73177373438375,212.20689722098905 141.33333333331393,208.78957150594943 140.6381977967103,205.2691107621722 139.24792672356125,202.86483529617544 138.205223418714,202.38397451765923 137.12241614062805,202.29810632202134" stroke="#4DD2FF" stroke-linecap="round" stroke-linejoin="round" stroke-width="0.5"><title>2024-11-24 10.4km</title><desc>1732400098000</desc></polyline><polyline fill="none" points="152.0,216.91959499741643 154.1573033707682,215.62062939178577 154.83146067417692,215.5686704824111 155.61348314606585,216.17485639359802 159.57752808986697,216.76371984856814 160.91235955059528,216.38269087590015 161.10112359549385,214.9278421299532 162.28764044941636,214.39092931991036 165.05168539326405,214.47752831859543 165.37528089887928,216.7464003754285 166.1573033707682,217.80288377891702 166.89887640450615,218.27050468532252 167.5325842696475,218.30514320024668 169.25842696626205,217.54309361887135 170.53932584269205,217.42185802318272 173.00674157304456,218.14926980605378 174.48988764040405,217.3006223080738 176.06741573032923,216.8676366364234 179.11460674158297,217.16206705886725 180.17977528087795,215.91506279724854 180.8674157303176,216.4866079854619 182.35056179773528,216.69444194130483 183.26741573028266,216.64248348522233 184.19775280897738,216.24413459339848 185.88314606738277,214.52948768864735 186.7730337078683,213.12657699909323 187.77078651683405,210.28606688285072 187.97303370782174,208.0343964289641 187.6494382022065,205.78268477780512 186.2606741572963,202.69950507439353 185.2359550562105,201.93735885831848 183.76629213482374,201.69485679974605 182.8764044943964,201.954680415678 182.04044943820918,202.56093338618666 179.85617977532092,205.54019029653864 178.91235955053708,208.4500925365137 178.77752808987861,209.87037697662163 179.00674157298636,212.4337756984969 179.68089887639508,214.33896989135974 180.50337078649318,215.7765059882804 181.1235955056618,216.36537134914397 182.4584269663319,216.7117614217641 183.65842696622713,216.53856650731905 184.64269662922015,215.88042360964027 185.8966292134137,214.51216790109902 186.8269662921084,213.07461703683657 187.47415730339708,211.51580796822236 187.9460674157017,208.93506955403427 187.6359550561756,205.7307217148773 187.0292134831543,204.0852133743465 185.9505617977702,202.3530755613465 185.16853932582308,201.92003729856515 183.7528089887346,201.71217839119345 182.8224719100399,201.92003729856515 182.0539325842983,202.49164748356998 180.73258426965913,204.03324959470046 179.77528089890257,205.6094744827642 179.30337078653974,206.7699788043392 178.79101123596774,209.43736516460922 179.04719101119554,212.45109577855328 179.694382022426,214.39092931991036 180.53033707867144,215.81114520513802 181.29887640447123,216.40001040022617 182.6202247191104,216.7290808998223 183.8471910112421,216.43464944162406 184.57528089889092,215.91506279724854 185.9505617977702,214.46020852374932 186.84044943813933,213.02265705259924 187.8516853932524,209.92233829170436 187.97303370782174,207.99975502327288 187.6359550561756,205.74804273830523 187.01573033706518,204.0505708569981 186.11235955054872,202.49164748356998 185.19550561794313,201.90271573641076 184.06292134831892,201.71217839119345 182.83595505618723,202.0412881657321 181.71685393259395,202.8380766065311 180.47640449437313,204.37967437798216 179.39775280904723,206.562128088568 178.85842696623877,208.81382547882095 178.80449438205687,210.68443505883624 179.08764044940472,212.78017683628423 179.70786516851513,214.46020852374932 180.5168539325241,215.81114520513802 181.78426966286497,216.60784450235224 183.1865168539225,216.64248348522233 184.3595505617559,216.0882585890722 185.99101123597939,214.40824912450626 186.96179775282508,212.7974968675844 187.47415730339708,211.55044838428148 187.8921348314616,209.52396764888545 188.0,208.05171712811716 187.6494382022065,205.71340068905556 186.67865168536082,203.30575437557854 186.11235955054872,202.5262904397605 184.88539325847523,201.8161078887424 183.34831460670102,201.78146473268134" stroke="#4DD2FF" stroke-linecap="round" stroke-linejoin="round" stroke-width="0.5"><title>2024-11-21 10.8km</title><desc>1732142576000</desc></polyline><polyline fill="none" points="12.0,256.6165907342438 13.956964892393444,255.35969763807225 14.59569648921024,255.28986987044482 15.383918459701817,255.95323207586625 17.707814269524533,256.09288682502665 19.175537938834168,256.4769365746033 20.54813137027668,256.1976277837457 20.847112117742654,254.6090470764393 24.638731596816797,253.2124758056816 24.86976217443589,253.50924851619493 25.10079275193857,256.21508460158657 26.74518686294323,258.4146239974216 27.34314835787518,258.65901485642826 27.424688561761286,258.0305802462972 29.680634201562498,257.2101191587135 30.958097395312507,257.24503250701673 32.94224235555157,257.85601451186085 34.613816534518264,256.93081201856694 35.71460928651504,256.63404749311303 37.07361268403474,256.564220442815 39.030577576428186,256.9133553014108 40.09060022648191,255.72629277320084 42.1562853907235,256.4245662242465 43.70554926386103,256.23254141700454 45.8391845979495,254.31227699689043 46.83125707809813,252.7062148373152 47.67383918457199,250.45420135550376 48.0,247.67840755600628 47.66024915064918,245.39138611920498 46.219705549185164,242.266303919474 45.173272933170665,241.5155741201961 43.85503963759402,241.35844405226817 42.11551528878044,242.0742571940209 40.37599093996687,244.0645451941673 39.00339750852436,247.24195633899217 38.690826727077365,249.9828445224921 38.85390713479137,252.02537786373432 40.131370328424964,255.13275724961568 41.558323895791546,256.2674550404263 43.460928652319126,256.3896526450262 44.61608154018177,255.63900831549836 46.192525481339544,253.77110620064195 47.17100792750716,252.00792045627895 47.82332955830498,249.82572518011148 48.0,247.7133235869842 47.701019252534024,245.63580263627227 46.27406568516744,242.33613901864737 44.697621744009666,241.39336186234868 43.406568516395055,241.42827966260666 42.16987542464631,242.05679838607466 40.97395243489882,243.31382627860876 39.73725934315007,245.19934423218365 39.12570781429531,246.82296172589122 38.7180067950394,248.93537848108826 38.92185730463825,252.19995180291153 39.75084937713109,254.41701945898967 40.64779161947081,255.7437496573839 41.95243488106644,256.40710943585145 43.43374858435709,256.3896526450262 44.67044167610584,255.56918070507527 45.93431483581662,254.17262024324737 47.143827859603334,252.0777500712793 47.701019252534024,250.33199790410436 48.0,247.7307815988388 47.80973952432396,246.3166746801362 47.2797281992971,244.22167183404963 46.27406568516744,242.35359778732527 44.80634201585781,241.41082076368184 44.03171007928904,241.34098514356447 42.862967157387175,241.5504918860679 42.21064552658936,241.9869631296242 40.97395243489882,243.27890900915372 39.601359003339894,245.60088602051837 38.976217440504115,247.43399506364221 38.7180067950394,249.21470362362743 38.894677236734424,251.99046304640797 40.117780294443946,255.11530027948174 40.91959229891654,255.95323207586625 41.95243488106644,256.40710943585145 43.22989807470003,256.4245662242465 44.018120045249816,256.1278004878186 46.20611551532056,253.80602051679307 47.56511891284026,250.9604715144742 48.0,247.66094953676657 47.18459796148818,244.01216960332385 46.24688561720541,242.33613901864737 45.513023782521486,241.74253942244104 44.71121177804889,241.41082076368184 43.17553793883417,241.44573855905765 42.319365798379295,241.8647513362448 41.422423556039575,242.7726074976381 40.43035107589094,243.9947110681387 39.315968289913144,246.24684182200144 38.690826727077365,249.7035211095863 39.166477916180156,252.96807421684935 40.45753114379477,255.58663761139178 41.85730464325752,256.44202301014593 43.21630804077722,256.4769365746033 43.96375990944216,256.18017096341646 46.11098527739523,253.96313481790276 47.18459796148818,252.0777500712793 47.71460928651504,250.4367437269393 47.98640996601898,247.59111743539688 47.64665911660995,245.47867778775253 46.872027180099394,243.40111940920178 46.192525481339544,242.266303919474 45.241223103075754,241.62032738823473 44.23556058888789,241.35844405226817 43.05322763300501,241.5155741201961 42.1562853907235,242.05679838607466 40.946772366936784,243.29636764512543 39.26160815398907,246.2992164692987 38.85390713479137,247.8704456049527 38.67723669303814,250.34945554736623 39.49263873154996,253.87584911959857 40.09060022648191,255.08038633181422 40.946772366936784,255.9706889281224 41.73499433742836,256.37219585175626 43.24348810873926,256.40710943585145 43.99093997734599,256.1278004878186 45.05096262739971,255.22004206352722 46.056625141587574,254.0155062074191 47.30690826725913,251.79843137548596 47.98640996601898,248.37672630904126 47.52434881089721,245.00730204790307 46.20611551532056,242.28376269793807 44.65685164212482,241.39336186234868 43.460928652319126,241.41082076368184 42.56398640997941,241.75999827463966 41.02831257076468,243.20907444076875 40.30804077006178,244.3264228167318" stroke="#4DD2FF" stroke-linecap="round" stroke-linejoin="round" stroke-width="0.5"><title>2024-11-17 16.3km</title><desc>1731797391000</desc></polyline></svg>