<?xml version="1.0" encoding="utf-8" ?>
<svg baseProfile="full" height="300mm" version="1.1" viewBox="0,0,200,300" width="200mm" xmlns="http://www.w3.org/2000/svg" xmlns:ev="http://www.w3.org/2001/xml-events" xmlns:xlink="http://www.w3.org/1999/xlink"><defs /><rect fill="#222222" height="300" width="200" x="0" y="0" /><text fill="#FFFFFF" style="font-size:12px; font-family:Arial; font-weight:bold;" x="10" y="20">Over 5km Runs</text><text fill="#FFFFFF" style="font-size:4px; font-family:Arial" x="10" y="280">ATHLETE</text><text fill="#FFFFFF" style="font-size:9px; font-family:Arial" x="10" y="290">sagasw</text><text fill="#FFFFFF" style="font-size:4px; font-family:Arial" x="65" y="280">SPECIAL TRACKS</text><rect fill="yellow" height="2.6" width="2.6" x="65" y="283" /><text fill="#FFFFFF" style="font-size:3px; font-family:Arial" x="70" y="285.5">Over 20.0 km</text><rect fill="red" height="2.6" width="2.6" x="65" y="287" /><text fill="#FFFFFF" style="font-size:3px; font-family:Arial" x="70" y="289.5">Over 40.0 km</text><text fill="#FFFFFF" style="font-size:4px; font-family:Arial" x="120" y="280">STATISTICS</text><text fill="#FFFFFF" style="font-size:3px; font-family:Arial" x="120" y="285">Number: 4</text><text fill="#FFFFFF" style="font-size:3px; font-family:Arial" x="120" y="290">Weekly: 2.0</text><text fill="#FFFFFF" style="font-size:3px; font-family:Arial" x="141" y="285">Total: 46.7 km</text><text fill="#FFFFFF" style="font-size:3px; font-family:Arial" x="141" y="290">Avg: 11.7 km</text><text fill="#FFFFFF" style="font-size:3px; font-family:Arial" x="167" y="285">Min: 9.2 km</text><text fill="#FFFFFF" style="font-size:3px; font-family:Arial" x="167" y="290">Max: 16.3 km</text><polyline fill="none" points="20.414922412950546,115.5 30.25620465306565,113.24261342937825 43.04987156530842,114.86793256073724 47.82992293918505,109.08900139090838 51.20407684985548,107.91514963796362 59.21769238868728,112.0687692744541 67.79366691224277,111.34640257334104 74.7528593535535,105.6577363848337 84.3832569741644,92.20338868023828 88.53065448952839,79.10996066167718 89.37419296754524,71.25377560016932 86.84357753396034,52.741694786644075 82.97735951142386,43.25969044375233 79.60320560028777,38.38317650061799 75.80728245060891,35.76429260376608 67.30160279991105,34.5 61.04535908997059,36.847969995753374 57.10884619411081,40.1892970976769 50.50112811848521,48.677995798760094 45.299307506065816,58.52113345923135 41.85485872160643,73.87251464184374 43.963704916182905,94.55114752420923 50.571422991808504,107.55396405101055 57.1791410674341,111.79788185702637 64.41951300157234,112.42995232000249 69.2698592483066,110.62403505918337 75.24492346588522,105.20625278132502 86.07033392973244,88.04964045103407 89.51478271372616,69.98955292714527 86.63269291492179,52.019261292298324 82.4852953995578,42.717857391631696 78.8299619955942,37.84133933024714 72.78460290562361,34.95153335906798 66.17688482999802,34.59030669735512 60.83447447093204,37.02858271636069 54.57823076099157,42.80816293210955 45.43989725224674,57.889009890088346 41.85485872160643,76.49124299566029 42.41721770679578,88.32053789432393 44.666653647553176,96.08621597016463 50.99319223081693,108.09574235515902 58.23356416448951,112.15906505502062 64.77098736725748,112.24936082266504 68.1451412779279,111.34640257334104 74.8231542268768,105.4771429814864 85.4376800712198,89.31382754113292 88.24947499716654,79.92266397096682 89.58507758704945,67.46110010816483 85.92974418308586,50.30347848252859 82.4852953995578,42.627551838289946 77.7755388985388,37.02858271636069 72.2925387932919,34.68061338190455 66.31747457617894,34.5 61.04535908997059,36.667357224214356 54.92970512667671,42.26632949872874 50.009064006153494,49.03921452892246 44.87753826705739,59.33386284741573 42.27662796061486,69.0865352069959 41.64397410256788,78.74875886022346 44.596358774695545,96.35711002035532 50.36053837230429,107.37337118131109 53.17233329825103,109.8113706333097 59.358282134868205,112.33965657779481 67.09071818040684,111.70758602546994 78.26760301087052,101.32348067703424 86.42180829541758,86.60485215543304 89.58507758704945,68.6350258704042 85.92974418308586,50.12286949896952 78.61907737608999,37.48011429561302 73.13607727084309,34.95153335906798 67.44219254655764,34.5" stroke="#4DD2FF" stroke-linecap="round" stroke-linejoin="round" stroke-width="0.5"><title>2024-11-24 9.2km</title><desc>1732400880000</desc></polyline><polyline fill="none" points="104.5,91.36336347783799 106.06405495712534,91.01563961891225 110.1847382101696,88.54292392212665 111.7187151875114,88.42701482749544 113.22261418483686,89.85655690869316 122.24600816937163,91.01563961891225 125.1034162644064,90.20428223558702 125.43427404377144,87.30655772273894 126.24637950235046,86.53382602101192 130.51745265489444,84.52471341841738 133.79595246934332,83.86788495571818 134.42759004817344,84.67926106366212 134.7584478276549,90.9770036074624 135.51039732631762,91.90426638303325 155.90326773107518,92.32926077544107 160.11418492381927,91.36336347783799 165.58837727434002,92.05880987466662 167.63367991091218,89.58610357227735 169.07742294832133,89.08383238367969 172.50631266238634,90.86109554028371 176.17582621623296,90.5520071220526 179.15354623098392,88.11792366908048 183.27422948391177,82.36103725089924 185.04883030068595,76.7585822242545 185.40976606018376,73.39705433216295 184.32695878203958,65.47604998858878 182.67266988486517,61.41886169399368 181.22892684745602,59.33228436569334 179.60471593029797,58.21170851410716 175.9652803564677,57.670739224529825 173.288340140949,58.67539562823367 171.60397326399107,60.105092632788 168.77664314885624,63.73726234724745 166.550872632768,67.94897344274796 165.07705161522608,74.51756820266019 165.97939101373777,83.36560330633074 168.80672112875618,88.92928721764474 171.63405124400742,90.74518742429791 174.7320831787074,91.01563961891225 176.8074637950631,90.2429183559143 179.36409209074918,87.9247415184509 183.99610100255813,80.5837190716411 185.46992201998364,72.85611496475758 184.23672484222334,65.1669329906581 182.46212402521633,61.187020551849855 180.89806906785816,59.100441461399896 178.31136279250495,57.8639426647278 175.48403267737012,57.70937992350082 173.19810620124917,58.7526767377276 170.5211659859633,61.2256607557938 166.6110285926843,67.67849852491054 165.07705161522608,75.63807750004344 165.31767545477487,80.69963147753151 166.28017081320286,84.0224329707271 168.9871890086215,89.16110493405722 172.08522094320506,90.89973156814813 174.88247307843994,90.93836759048281 176.3262161158491,90.5520071220526 179.18362421100028,88.04065082510351 183.725399182993,81.12464321369771 184.92851838108618,77.10632413983694 185.5,71.7742330324545 183.93594504264183,64.43277872537146 182.46212402521633,61.14838034234708 180.44689936877694,58.7526767377276 178.1008169327397,57.74802061700029 175.54418863717,57.670739224529825 173.288340140949,58.59811449694098 170.67155588546302,60.9938194504939 168.56609728909098,63.89182169470587 166.3704047530191,68.29672651700093 165.25751949497499,72.46972904977156 164.98681767552625,76.60403012033203 166.25009283330292,84.13834392477293 168.71648718905635,88.85201460201642 169.91960638703313,89.89519307791488 172.56646862241905,90.9770036074624 175.87504641653504,90.70655137463473 180.6574452284258,86.26336941160844 184.1464909024071,79.96551874722354 185.5,72.27653588837711 183.93594504264183,64.35549921487109 180.80783512804192,58.945879416394746 178.46175269212108,57.8639426647278 176.025436316384,57.670739224529825" stroke="#4DD2FF" stroke-linecap="round" stroke-linejoin="round" stroke-width="0.5"><title>2024-11-24 10.4km</title><desc>1732400098000</desc></polyline><polyline fill="none" points="14.5,240.56908874420333 19.353932584286667,237.64641613152344 20.870786516927183,237.52950858543045 22.630337078589946,238.89342688562465 31.549438202171586,240.21836965929833 34.55280898883939,239.36105447079171 34.97752808989026,236.08764479242382 37.64719101123046,234.87959096979466 43.86629213485867,235.074438716867 44.59438202250749,240.1794008447323 46.35393258428667,242.55648850256694 48.02247191022616,243.60863554198295 49.44831460667774,243.68657220056048 53.33146067406051,241.97196064246236 56.21348314604256,241.69918055218295 61.76516853936482,243.3358570636483 65.10224719101097,241.42640019318787 68.65168539318256,240.45218243196723 75.5078651686199,241.1146508824604 77.90449438197538,238.30889129382558 79.45168539322913,239.59486796730198 82.78876404487528,240.06249436794315 84.851685393136,239.9455878417648 86.94494382024277,239.04930283516296 90.73707865166944,235.1913472994638 92.73932584270369,232.0347982479725 94.98426966287661,225.64365048642503 95.43932584254071,220.57739196516923 94.7112359550083,215.51104075007606 91.58651685388759,208.57388641740545 89.28089887648821,206.85905743122566 85.97415730345529,206.31342779943952 83.97191011230461,206.8980309352919 82.09101123607252,208.26210011894 77.17640449444298,214.9654281672265 75.05280898872297,221.5127082071558 74.74943820224144,224.70834819742595 75.2651685392484,230.47599532164168 76.78202247188892,234.76268225559033 78.6325842696242,237.99713847364183 80.02808988769539,239.3220855355903 83.03146067424677,240.10146319898195 85.73146067396738,239.7117746414733 87.9460674157599,238.23095312170335 90.76741573028266,235.15237777750008 92.86067415727302,231.91788833291503 94.31685393257067,228.41056792851305 95.37865168531425,222.60390649660258 94.68089887639508,215.39412385848118 93.31573033705354,211.69173009230872 90.88876404496841,207.7944200130587 89.12921348307282,206.82008392177522 85.94382022472564,206.35240138019435 83.85056179761887,206.82008392177522 82.12134831468575,208.10620683804154 79.14831460663117,211.5748115880997 76.99438202253077,215.12131758622127 75.93258426967077,217.73245230977773 74.77977528097108,223.73407162039075 75.35617977520451,230.51496550175943 76.81235955050215,234.87959096979466 78.69325842696708,238.07507671156782 80.42247191013303,239.4000234005216 83.39550561795477,240.14043202460743 86.15617977536749,239.47796124365414 87.79438202257734,238.30889129382558 90.88876404496841,235.0354691784596 92.89101123588625,231.80097836838104 95.16629213478882,224.82526115633664 95.43932584254071,220.49944880238036 94.68089887639508,215.4330961611995 93.2853932583239,211.61378442827845 91.2528089886764,208.10620683804154 89.18988764041569,206.78111040694057 86.64157303364482,206.35240138019435 83.88089887634851,207.09289837290999 81.36292134830728,208.88567236470408 78.57191011239775,212.3542673504562 76.14494382031262,217.26478819930344 74.93146067403723,222.33110732736532 74.81011235958431,226.53997888238518 75.44719101127703,231.25539788167225 76.84269662911538,235.0354691784596 78.66292134823743,238.07507671156782 81.51460674148984,239.867650130298 84.6696629213402,239.9455878417648 87.30898876395077,238.69858182541793 90.97977528092451,234.91856053017545 93.16404494387098,231.29436795209767 94.31685393257067,228.48850886465516 95.25730337074492,223.92892721001408 95.5,220.61636353828362 94.7112359550083,215.35515155040775 92.52696629206184,209.93794734505354 91.2528089886764,208.18415348947747 88.49213483149651,206.58624274967588 85.03370786516462,206.50829564855667" stroke="#4DD2FF" stroke-linecap="round" stroke-linejoin="round" stroke-width="0.5"><title>2024-11-21 10.8km</title><desc>1732142576000</desc></polyline><polyline fill="none" points="104.5,239.88732915205765 108.90317100798711,237.05931968567893 110.34031710086856,236.9022072085063 112.11381653440185,238.3947721706936 117.34258210647386,238.7089953563409 120.64496036246419,239.57310729287565 123.73329558316618,238.9446625134442 124.40600226505194,235.37035592200118 132.93714609288145,232.2280705627927 133.45696489256807,232.8958091614477 133.97678369190544,238.98394035358797 137.67667044163682,243.93290399422403 139.0220838052919,244.48278342696722 139.20554926397745,243.0688055541832 144.28142695361748,241.222768107109 147.1557191394968,241.30132314079674 151.62004530010745,242.67603265171056 155.3810872026952,240.59432704179198 157.85787089483347,239.92660685951705 160.91562853916548,239.76949599635554 165.31879954703618,240.55504942819243 167.70385050959885,237.8841587397037 172.35164212912787,239.4552740045765 175.83748584380373,239.02321818826022 180.6381653455319,234.7026232430071 182.870328425779,231.08898338396102 184.7661381653743,226.02195304990164 185.5,219.77641700103413 184.7355605890043,214.6306187682203 181.49433748575393,207.59918381882017 179.13986409967765,205.91004177046125 176.173839184572,205.55649911760702 172.2599093997851,207.16707868655794 168.3459796149982,211.64522668687277 165.2576443941798,218.7944017627451 164.55436013592407,224.96140017561265 164.92129105329514,229.5571001934295 167.79558323905803,236.5487038116553 171.0062287657056,239.10177384095732 175.28708946786355,239.37671845132718 177.88618346548174,237.68776870987494 181.43318233301397,233.4849889514735 183.63476783700753,229.51782102664583 185.10249150625896,224.6078816552763 185.5,219.8549780707399 184.82729331823066,215.18055593161262 181.6166477915831,207.7563127919857 178.06964892405085,205.63506419031182 175.16477916191798,205.7136292408686 172.38221970561426,207.12779636867344 169.6913929785369,209.95610912688426 166.90883352211677,214.19852452242048 165.5328425822081,217.8516638832807 164.61551528889686,222.60460158245405 165.07417893549427,229.94989155657822 166.93941109860316,234.93829378273222 168.95753114391118,237.92343672912102 171.89297848241404,239.41599623067304 175.22593431489076,239.37671845132718 178.0084937713109,237.53065658643027 180.8522083805874,234.38839554731385 183.57361268415116,229.67493766039843 184.82729331823066,225.74699528425117 185.5,219.89425859740004 185.07191392988898,216.7125180303119 183.87938844843302,211.99876162662986 181.6166477915831,207.79559502148186 178.31426953570917,205.67434671829687 176.57134767842945,205.51721657303278 173.94167610420845,205.98860674366006 172.47395243495703,206.97066704166355 169.6913929785369,209.87754527060315 166.60305775760207,215.1019935461809 165.19648924120702,219.22648889321135 164.61551528889686,223.23308315317263 165.0130237826379,229.47854185441975 167.76500566257164,236.50942562884302 169.56908267270774,238.3947721706936 171.89297848241404,239.41599623067304 174.76727066817693,239.4552740045765 176.54077010182664,238.78755109760095 181.46375990950037,233.56354616279714 184.5215175539488,227.16106090758694 185.5,219.7371364577266 183.6653454133775,211.52738160747685 181.55549263884313,207.7563127919857 179.90430351078976,206.42071370049962 178.10022650065366,205.67434671829687 174.6449603624642,205.75291175788152 172.71857304638252,206.69569050657446 170.7004530010745,208.7383668697148 168.46828992082737,211.48809990333393 165.96092865243554,216.55539409950143 164.55436013592407,224.33292249657097 165.62457531143446,231.6781669879274 168.52944507356733,237.56993462564424 171.67893544735853,239.4945517728338 174.73669309180696,239.57310729287565 176.4184597962303,238.9053846676834 181.24971687421203,233.91705334029393 183.6653454133775,229.67493766039843 184.85787089471705,225.9826733856171 185.46942242363002,219.5800142296648 184.7049830125179,214.82702502247412 182.9620611552382,210.15251867071493 181.43318233301397,207.59918381882017 179.2927519819932,206.14573662352632 177.03001132502686,205.55649911760702 174.3697621744359,205.91004177046125 172.35164212912787,207.12779636867344 169.63023782568052,209.91682720155222 165.83861834660638,216.67323705591843 164.92129105329514,220.20850261114538 164.52378255943768,225.78627498159767 166.35843714606017,233.7206605191168 167.70385050959885,236.4308692466002 169.63023782568052,238.43405008828267 171.40373725933023,239.33744066645158 174.79784824466333,239.41599623067304 176.47961494908668,238.78755109760095 178.86466591164935,236.74509464294533 181.1274065686157,234.0348889667075 183.9405436014058,229.04647059485433 185.46942242363002,221.3476341953501 184.42978482460603,213.76642960778554 181.46375990950037,207.63846607037704 177.9779161948245,205.63506419031182 175.28708946786355,205.67434671829687 173.2689694224391,206.45999611794832 169.81370328424964,209.7204174917424 168.19309173268266,212.23445133765927" stroke="#4DD2FF" stroke-linecap="round" stroke-linejoin="round" stroke-width="0.5"><title>2024-11-17 16.3km</title><desc>1731797391000</desc></polyline></svg>