<?xml version="1.0" encoding="utf-8" ?>
<svg baseProfile="full" height="300mm" version="1.1" viewBox="0,0,200,300" width="200mm" xmlns="http://www.w3.org/2000/svg" xmlns:ev="http://www.w3.org/2001/xml-events" xmlns:xlink="http://www.w3.org/1999/xlink"><defs /><rect fill="#222222" height="300" width="200" x="0" y="0" /><text fill="#FFFFFF" style="font-size:12px; font-family:Arial; font-weight:bold;" x="10" y="20">Over 5km Runs</text><text fill="#FFFFFF" style="font-size:4px; font-family:Arial" x="10" y="280">ATHLETE</text><text fill="#FFFFFF" style="font-size:9px; font-family:Arial" x="10" y="290">sagasw</text><text fill="#FFFFFF" style="font-size:4px; font-family:Arial" x="65" y="280">SPECIAL TRACKS</text><rect fill="yellow" height="2.6" width="2.6" x="65" y="283" /><text fill="#FFFFFF" style="font-size:3px; font-family:Arial" x="70" y="285.5">Over 20.0 km</text><rect fill="red" height="2.6" width="2.6" x="65" y="287" /><text fill="#FFFFFF" style="font-size:3px; font-family:Arial" x="70" y="289.5">Over 40.0 km</text><text fill="#FFFFFF" style="font-size:4px; font-family:Arial" x="120" y="280">STATISTICS</text><text fill="#FFFFFF" style="font-size:3px; font-family:Arial" x="120" y="285">Number: 17</text><text fill="#FFFFFF" style="font-size:3px; font-family:Arial" x="120" y="290">Weekly: 2.4</text><text fill="#FFFFFF" style="font-size:3px; font-family:Arial" x="141" y="285">Total: 212.3 km</text><text fill="#FFFFFF" style="font-size:3px; font-family:Arial" x="141" y="290">Avg: 12.5 km</text><text fill="#FFFFFF" style="font-size:3px; font-family:Arial" x="167" y="285">Min: 7.7 km</text><text fill="#FFFFFF" style="font-size:3px; font-family:Arial" x="167" y="290">Max: 16.3 km</text><polyline fill="none" points="12.25,60.16571196264704 15.390694239293225,58.22539653838612 16.04874446085887,58.148551795457024 16.946085672127083,58.89778619381832 19.563330871460494,59.109107973010396 21.193500738532748,59.531750550158904 22.67411373707,59.08989691566967 22.928360413585324,57.49536973431532 24.99224519939162,56.45795650803484 27.175775480107404,55.90082392915792 27.63940177252516,59.33964045000903 29.224704579042736,61.20309701505175 29.987444608588703,61.22230777499499 31.856905465305317,60.43466439979966 33.23282865586225,60.300188247449114 36.20901033974951,61.087832398479804 38.33271787298145,59.97360275457322 40.935007385502104,59.66622745941277 43.47747415059712,60.53071871319844 44.01587887736969,62.00994660623837 46.36392171343323,62.202052948996425 46.90232644014759,61.26072928683425 46.43870014772983,60.72282713733148 46.49852289503906,59.93518088052224 46.85745937959291,59.531750550158904 48.51754062034888,59.08989691566967 49.31019202363677,58.340663571623736 50.70107090106467,56.7461276393733 50.92540620389627,55.862400908838026 51.807791728235316,54.728916945517994 52.61539881833596,51.65501476194186 52.49575332348468,48.23521724632883 51.83770310197724,45.83362283966562 50.71602658787742,43.83546409153496 50.11779911373742,43.31670655703056 48.577363367774524,42.81716040123138 47.44073116692016,42.8940137749305 46.18445347121451,43.60490543072228 43.73172082717065,46.92875512971659 42.654911373741925,50.17567466548644 42.625,53.960447888457566 43.133493353030644,56.03530441499606 44.12056868535001,58.01407339128491 44.86835302808322,58.878575106791686 46.109675036976114,59.43569553387351 47.425775480107404,59.474117548481445 48.637186115200166,58.91699727815285 50.55151403247146,56.8421845480043 51.58345642540371,55.151573083072435 52.64531019201968,51.46289357730711 52.735044313187245,49.829852590861265 52.46584194980096,48.081516469843336 51.76292466762243,45.67991935899772 50.79080502217403,43.89310369586747 50.087887739995494,43.297493277161266 48.682053175754845,42.797947051003575 47.6501107828808,42.8555870935088 46.30409896600759,43.5088392070611 43.73172082717065,46.92875512971659 42.654911373741925,50.19488697727502 42.61004431312904,53.97965966764605 43.686853766674176,57.20720018443535 44.32994830136886,58.30224123802327 45.52640324959066,59.224374260156765 47.021971934998874,59.493328551761806 48.158604135911446,59.20516321907053 50.43186853767838,56.995875461245305 52.16672821267275,53.7491181393998 52.75,49.81064022764622 51.76292466762243,45.62228050913836 50.820716395857744,43.931530085304985 50.02806499262806,43.25906670928816 48.60727474151645,42.81716040123138 46.797636632283684,43.22064013064664 45.51144756283611,44.37343278573826 44.359859675052576,46.064177736101556" stroke="#4DD2FF" stroke-linecap="round" stroke-linejoin="round" stroke-width="0.5"><title>2024-12-28 9.1km</title><desc>1735368240000</desc></polyline><polyline fill="none" points="57.25,59.416415521423914 57.99662023759447,60.16235188949213 62.75839819741668,60.78041066863807 64.36777959845494,60.26891392792459 64.68301925435662,58.49997438261926 69.36183941003401,56.77363996653003 69.76003687008051,60.7590983389091 71.68465792707866,62.67719600193959 72.48105284717167,62.719820118596544 73.79178615321871,62.059144962971914 75.81595657515572,61.67552580831398 77.15987300279085,61.82471115060616 79.33336747228168,62.591947732740664 80.95934043417219,61.611589188018115 82.58531339612091,61.07878296962008 84.82517410896253,60.95090919834911 86.78297828754876,61.27059342418215 88.0937115935958,59.906602691466105 89.07261368294712,60.05578977613186 90.30038918479113,60.7590983389091 92.39092584996251,60.5246625142463 94.71374436706537,58.52128703026392 96.2733510856051,56.07031289621955 97.33521097910125,53.363538849545876 97.66704219579697,50.82722635137907 97.26884473569226,47.54487653316755 96.2733510856051,44.6461188349931 94.9792093404103,42.94094132739701 93.20391233096598,42.280179881388904 91.32906595652457,42.53595884765673 88.3094018844422,45.56264381160145 86.86593609175179,48.99423457487137 86.41796394920675,51.53057777110371 86.6502458009054,55.36698255974625 87.38027447758941,57.732717071441584 88.34258500608848,59.416415521423914 89.47081114299363,60.41810065571917 90.64881196222268,60.78041066863807 92.22501024167286,60.69516133180878 93.08777140517486,60.1836643032002 95.12853338790592,58.137658914522035 96.37290045054397,56.07031289621955 97.43476034409832,53.15040498021699 97.68363375670742,49.6336528306565 97.1029291274026,46.670992187195225 96.12402703810949,44.241140915532014 95.09535026625963,43.0048858304217 93.7514338385663,42.38675450316805 92.490475215076,42.280179881388904 91.39543219981715,42.62121840703185 88.7407824661932,45.26424093982496 87.51300696429098,47.31042025239731 86.86593609175179,49.0794904983195 86.36818926665,53.19303177809343 86.8327529700473,56.09162588576146 87.57937320764177,58.137658914522035 88.35917656699894,59.4377280400804 89.60354362963699,60.5246625142463 92.12546087661758,60.7590983389091 93.48596886522137,59.821352862840286 95.17830807040446,58.095033508347115 96.35630888980813,56.15556483634282 97.33521097910125,53.470105671702186 97.75,50.1025578356639 97.25225317495642,47.41699133411748 96.33971732895589,44.73137720634986 95.27785743545974,43.19671917759115 93.95053256856045,42.45069924026029 92.40751741081476,42.34412466343201 91.16315034823492,42.74910765617096 88.39235968858702,45.77578835996974 86.70002048340393,49.740222277483554 86.38478082750225,52.55362855047861 86.63365423999494,55.324356373763294 87.64573945105076,58.308160419241176 88.47531749284826,59.58691558660939 89.55376894713845,60.4607254081202 91.09678410488414,60.82303531904472 92.2084186807624,60.73778600622609 95.17830807040446,58.11634621290432 97.00337976234732,54.684962144398014 97.56749283074168,52.511001572638634 97.7168168782955,50.1025578356639 96.80428103229497,45.81841723364778 95.8087873821496,43.836161912971875 95.0123924620566,42.98357099905843 93.70165915600955,42.38675450316805 92.0922777550295,42.38675450316805 91.19633346988121,42.706477918458404 90.01833265053574,43.66564411424042 88.57486685778713,45.4134424491931 88.24303564109141,46.43653455346066 87.29731667350279,47.71538996389427 86.38478082750225,51.99947690285626 86.6170626792591,55.30304327630438 87.14799262600718,57.0933330096741 88.04393691103905,59.03278967300139 89.02283900039038,60.11972705318476 89.80264235963114,60.56728723658307 91.42861532157985,60.844347639751504 93.18732077017194,60.14103947284457 95.11194182711188,58.18028430864797 96.9204219582025,54.8554675362102 97.51771814824315,52.638882470157114 97.73340843914775,50.18781313514046 97.20247849239968,47.11859211631236 96.30653420725139,44.6461188349931 95.49354772630613,43.409867056048824 94.33213846787112,42.59990352169552 92.54024989751633,42.280179881388904 91.11337566567818,42.74910765617096 90.13447357632685,43.6016998901614 88.42554281029152,45.71184502696269 87.41345759935211,47.60881909217278 86.89911921345629,48.86635059976834 86.36818926665,52.340493541327305 86.99866857845336,56.70970127693727 87.8448381810449,58.64916285286017 88.90669807454105,60.01316490977479 89.76945923798485,60.56728723658307 91.4452068823739,60.82303531904472 92.29137648508186,60.67384899011813 93.70165915600955,59.69347802986158 95.36081523966277,57.81796807577484 96.70473166729789,55.45223489571072 97.60067595244618,52.340493541327305 97.7168168782955,50.23044076687074 97.2854362965445,47.41699133411748 95.69264645630028,43.64432937584934 94.96261777955806,42.91962648702611 93.36982793937204,42.322809739096556 91.94295370747568,42.429384330884204 90.83131913142279,42.96225616472657 88.35917656699894,45.86104609532049" stroke="#4DD2FF" stroke-linecap="round" stroke-linejoin="round" stroke-width="0.5"><title>2024-12-27 16.0km</title><desc>1735261057000</desc></polyline><polyline fill="none" points="102.25,59.4085882849613 102.91393442614935,60.112188059138134 107.72745901637245,60.794463507816545 109.35409836057806,60.28275720930833 109.58647540980019,58.66234252990398 110.44959016388748,58.02270038591814 112.20901639340445,57.233804689429235 114.3502049180679,56.78605125065951 114.76516393438214,60.81578456610441 116.79016393440543,62.713346736476524 120.60778688522987,61.66862443671562 122.58299180329777,61.9457963611203 124.07684426225023,62.58542194389156 127.21393442625413,61.13560008005879 129.10614754102426,60.96503188998031 131.7784836065839,61.3274890644534 132.57520491810283,60.154830364655936 133.37192622956354,59.728406769179855 135.21434426232008,60.70917924474634 137.32233606558293,60.53861057460017 138.86598360654898,59.4725520357606 140.2104508197517,58.044021834182786 141.3391393442871,55.9971491151955 142.33504098368576,53.43851932960388 142.7168032786576,50.26149387669284 142.11926229513483,46.95646381142433 141.13995901646558,44.39768133897451 140.17725409840932,43.09695034685137 138.2352459016838,42.329300586425234 136.2434426229447,42.649155126011465 133.786885245936,45.20796713118034 131.92786885245005,48.91816777297936 131.36352459015325,52.37241083275876 131.96106557379244,56.444904885371216 133.4881147541455,59.66444312635576 135.23094262299128,60.70917924474634 137.3887295082095,60.53861057460017 138.8161885246518,59.53651575963886 140.2436475410941,58.02270038591814 141.28934426233172,56.25300971728575 142.36823770496994,53.37455303130264 142.733401639387,50.090913444393664 141.85368852462852,45.9756023051159 140.90758196730167,43.907243096182356 139.81209016399225,42.81974393763812 138.33483606559457,42.3079769264732 137.32233606558293,42.3079769264732 136.0442622951232,42.862391110524186 133.58770491799805,45.46384595465497 131.99426229513483,48.70494031190174 131.34692622959847,52.32976633681392 131.8116803279263,55.933183897155686 132.57520491810283,58.12930759746814 133.5047131147585,59.6857643435942 134.66659836069448,60.47464727376064 136.2434426229447,62.67070515091473 135.7288934426615,62.222967778507154 135.7288934426615,61.30616807822662 136.2600409836159,60.77314244657464 138.03606557374587,60.1761515129474 140.09426229516976,58.12930759746814 142.01967213116586,54.61123001156375 142.75,50.28281641725334 142.26864754105918,47.425569243510836 141.72090163931716,45.57046200356854 140.44282786885742,43.37415624881396 138.86598360654898,42.39327154835337 137.57131147541804,42.3079769264732 136.12725409836276,42.77709675270307 135.06495901639573,43.651361643569544 133.43831967219012,45.69840116321575 133.28893442632398,46.444710774332634 132.80758196726674,46.7645566251158 132.3428278688807,47.78805880981963 131.72868852462852,49.77107461614651 131.34692622959847,52.41505531666917 131.92786885245005,56.38093985633168 133.4549180328031,59.57915822722134 134.74959016399225,60.53861057460017 135.81188524590107,60.75182138227683 137.670901639387,60.410683945941855 138.50081967219012,59.7923703850538 140.31004098360427,57.916093099396676 141.28934426233172,56.27433141465008 142.61721311480505,52.073899109323975 142.75,50.240171333178296 142.4346311475383,48.001287561288336 141.75409836065955,45.65575478869141 140.8079918033327,43.75797896801669 139.71249999996508,42.77709675270307 138.68340163934045,42.37194789740897 137.4219262294937,42.3079769264732 136.17704918043455,42.73444955580635 133.35532786883414,45.762370702504995 131.86147540988168,48.982135952755925 131.36352459015325,52.4576997885888 131.54610655742,54.63255193991063 132.16024590173038,57.148518422138295 133.23913934425218,59.32330324179202 134.46741803287296,60.410683945941855 135.36372950818622,60.75182138227683 136.39282786886906,60.794463507816545 137.80368852458196,60.32539946684847 140.40963114757324,57.78816425657715 142.33504098368576,53.6090959928697 142.66700819676043,49.57917099505721 141.88688524597092,46.03957172730588 141.23954918037634,44.46165142749669 140.4926229508128,43.37415624881396 139.31413934426382,42.56386064819526 137.52151639346266,42.286653263508924 136.12725409836276,42.71312595294148 133.40512295084773,45.719724345981376 131.86147540988168,49.088749525748426 131.34692622959847,52.37241083275876 131.5129098360776,54.48329837823985 132.641598360613,58.29987897985848 133.52131147542968,59.64312190603232 134.78278688527644,60.53861057460017 136.39282786886906,60.730500315039535 137.57131147541804,60.410683945941855 140.17725409840932,58.065343279522494 142.03627049189527,54.52594226801011 142.68360655743163,51.412906771482085 142.68360655743163,49.62181626519305 142.13586065574782,46.743233589368174 141.45532786886906,44.93076458477299 140.57561475405237,43.438126769528026 139.430327868904,42.60650789304054 137.62110655743163,42.3079769264732 136.19364754098933,42.71312595294148 134.26823770493502,44.48297478436143 133.30553278687876,45.9116328558157" stroke="#4DD2FF" stroke-linecap="round" stroke-linejoin="round" stroke-width="0.5"><title>2024-12-26 16.2km</title><desc>1735171955000</desc></polyline><polyline fill="none" points="147.25,60.11689544879482 152.55955334979808,60.82689357822528 154.0167493795161,60.37507696826651 154.18424317613244,58.71840464207344 154.5862282877788,58.395674177852925 156.83064516127342,57.36293211435259 158.99131513637258,56.76049602252897 159.22580645151902,56.82504286018957 159.49379652598873,60.50416756446066 161.47022332495544,62.74172058222757 162.40818858559942,62.763235356120276 163.66439205949428,61.9887015876011 165.8585607940331,61.622948166390415 168.95719602971803,62.6126318750903 170.86662531003822,61.49385851468833 172.62531017360743,61.02052885950252 176.71215880889213,61.38628372177482 177.98511166247772,59.94477419364557 180.79900744411862,60.891438699225546 182.33995037217392,60.59022790142626 184.14888337464072,59.191741424103384 186.41004962776788,56.0504790097184 187.36476426798617,53.360990727785975 187.71650124067673,50.11202578556549 187.14702233247226,46.75540670880582 185.72332506201928,43.69995860145718 184.6681141438894,42.68863486078044 182.87593052105512,42.23676464386517 180.76550868479535,42.83925796956464 178.47084367240313,45.421345327733434 177.0638957816409,48.04642276770028 176.27667493798072,52.09153582293948 176.51116625301074,55.40500613680342 178.2866004962125,59.53598543605767 179.07382133998908,60.245986263034865 180.24627791560488,60.76234842995473 182.4906947890413,60.52568265328591 184.16563275433145,59.14871086808853 185.55583126551937,57.44899421936134 187.0632754342514,54.39375982363708 187.71650124067673,50.0259595503594 187.19727047142806,46.75540670880582 186.12531017366564,44.36699825813412 185.13709677412407,42.98988092997752 183.67990074434783,42.34435291195405 182.55769230768783,42.25828230357729 181.2177419355139,42.55952922087454 179.76054590562126,43.76451095350785 178.4540942928288,45.35679367528064 177.11414392053848,47.960355369592435 176.29342431761324,51.48907895955199 176.46091811405495,54.65195100751589 176.9633995036129,56.868074070094735 178.0186104218592,59.06264971976634 178.90632754337275,60.11689544879482 180.06203473941423,60.67628818991943 181.70347394543933,60.76234842995473 183.931141439185,59.38537877619092 185.5223325060797,57.44899421936134 186.6947890818701,55.38349032741098 187.51550868485356,52.47882826719433 187.73325062036747,49.982926414566464 187.13027295283973,46.690855619701324 186.02481389575405,44.15182449333952 185.12034739449155,42.96836337330751 183.6129032257595,42.34435291195405 182.03846153843915,42.301317613746505 180.8492555830744,42.77470522685326 179.3585607940331,44.23789403559931 177.08064516121522,48.04642276770028 176.44416873448063,50.45629024184018 176.27667493798072,52.69399031226931 176.9633995036129,56.84655846665555 178.11910669971257,59.23477196798194 178.75558312656358,59.94477419364557 179.71029776666546,60.568712821695954 181.51923076919047,60.80537853180431 182.62468982621795,60.41810717906628 183.69665012403857,59.60053110199806 185.5223325060797,57.42747869764571 186.77853598009096,55.16833206723095 187.54900744411862,52.3927633643616 187.75,50.04747611367202 187.1637717121048,46.71237265241507 185.97456575679826,44.04423749737907 185.1035980148008,42.92532825084345 183.41191066999454,42.23676464386517 181.97146401985083,42.25828230357729 180.86600496270694,42.75318763985706 179.39205955329817,44.15182449333952 177.0136476426851,48.110973284434294 176.25992555828998,52.71550650014251 176.76240694784792,56.17957325725001 178.33684863516828,59.62204631793429 179.64330024813535,60.52568265328591 180.86600496270694,60.84840862159035 182.2227047146298,60.61174297805701 183.21091811411316,60.030834845412755 185.42183622828452,57.59960278663493 186.44354838703293,55.899868916429114 187.09677419351647,54.307695998766576 187.61600496270694,51.70424239757995 187.71650124067673,50.090509231275064 187.36476426798617,47.57305147862644 186.52729528525379,45.07706953307206 185.67307692300528,43.635406222121674 185.00310173694743,42.79622281076445 183.57940446643624,42.279799960233504 182.28970223315991,42.23676464386517 180.98325062036747,42.66711726167705 178.80583126551937,44.86189676776121 178.25310173694743,45.87320613155316" stroke="#4DD2FF" stroke-linecap="round" stroke-linejoin="round" stroke-width="0.5"><title>2024-12-22 13.5km</title><desc>1734819430000</desc></polyline><polyline fill="none" points="12.25,108.15424079260265 12.682621199637651,108.75270613451721 17.60784716514172,109.52215810930647 19.305053409945685,109.03056424169336 19.587921117490623,107.14966866771283 24.130443713977,105.52524010968045 24.39667214459041,105.71760755624564 24.646261298214085,108.81682728127635 25.61133935902035,110.63358185827383 26.642974527552724,111.42439765082963 27.30854560394073,111.48851766982989 28.855998356593773,110.74044909779332 30.736236647469923,110.3771001764253 34.23048479866702,111.23203743157501 36.24383730482077,110.12061806152633 38.040879211213905,109.65039972616069 39.77136400988093,109.67177331840503 41.61832374695223,110.12061806152633 43.01602300739614,108.53896878310479 45.97781429742463,109.52215810930647 47.458709942526184,109.15880627356819 48.9895234182477,108.02599791258399 51.5686113393167,104.30690728987975 52.383935907972045,101.97708573733689 52.75,98.87772644263168 52.00123253901256,95.17978743057756 50.75328677071957,92.46505812610849 49.771569433039986,91.48175837486633 48.27403451112332,91.03285854558635 46.41043549712049,91.28937289623718 45.312243221036624,91.99478512634232 43.76479046838358,93.7689892815979 42.533483977022115,95.90655712000444 41.63496302382555,98.38609812190407 41.3354560394655,100.9724727559078 41.90119145438075,105.3542466192448 43.66495480691083,108.49622127674229 44.67995069839526,109.22292724893487 46.144207066623494,109.50078449596185 47.708299096208066,109.03056424169336 48.72329498763429,108.26110977663484 51.252465078025125,104.99088481295621 52.01787181594409,103.21681174630066 52.60024650784908,100.48085121571785 52.683442892332096,98.81360109978414 52.28410024649929,96.2271897008759 50.7033689400414,92.46505812610849 49.68837304849876,91.50313452408591 48.54026294167852,91.161115775074 47.042728019703645,91.09698717383435 45.628389482269995,91.7596480804059 43.831347576051485,93.72623761792784 42.60004108463181,95.75692835057271 41.60168446996249,98.42884847384994 41.3354560394655,100.71597475961607 41.45193097781157,103.21681174630066 42.08422350039473,105.86722651295713 42.816351684508845,107.32066013691656 43.48192276095506,108.36797868540452 44.64667214459041,109.22292724893487 46.01109285122948,109.52215810930647 47.44207066553645,109.18017993505055 50.03779786359519,106.78631115658209 51.918036154529545,103.43055658716185 52.517050123249646,101.10072159163246 52.666803615458775,98.66397519441671 52.28410024649929,96.26994066053885 51.5020542316488,93.98274741927162 50.68672966316808,92.46505812610849 49.57189811015269,91.39625374777825 47.97452752670506,91.03285854558635 46.29396055871621,91.33212524582632 43.76479046838358,93.7689892815979 41.8679129005759,97.65934029784694 41.30217748560244,101.35721893818118 42.067584223579615,105.88860063762695 43.18241577647859,107.96187643198937 44.280608052620664,109.03056424169336 46.01109285122948,109.52215810930647 47.175842235039454,109.28704819720588 48.47370583395241,108.49622127674229 50.10435497126309,106.74356315692421 51.951314708276186,103.30230971869605 52.517050123249646,101.05797199172957 52.65016433846904,98.70672546813148 52.31737880030414,96.50507072337496 51.51869350858033,94.02549901072052 50.73664749390446,92.46505812610849 49.72165160230361,91.46038222259085 48.37387017253786,91.05423475804855 46.876335250621196,91.161115775074 45.67830731300637,91.71689585111744 44.713229252258316,92.63606612864533 42.48356614628574,95.9279326464166 41.63496302382555,98.34334775792377 41.31881676259218,100.80147413979284 41.95110928511713,105.4397433885315 43.681594083842356,108.58171627743286 44.67995069839526,109.24430090136593 46.29396055871621,109.50078449596185 47.14256368111819,109.3297954810696 48.506984387815464,108.43209999457758 50.02115858672187,106.85043313344067 51.235825801151805,104.99088481295621 52.500410846376326,101.14347117947182 52.683442892332096,98.70672546813148 52.36729663104052,96.80432664066029 51.984593262081034,95.17978743057756 50.7033689400414,92.46505812610849 49.68837304849876,91.46038222259085 48.27403451112332,91.05423475804855 46.95953163522063,91.11836337728892 45.71158586686943,91.6741436097218 43.34880854561925,94.49576572229853 42.50020542310085,95.9279326464166 41.63496302382555,98.47159881370317 41.31881676259218,100.65185019280761 41.48520953167463,103.30230971869605 42.61668036156334,107.0000509742822 43.565119145438075,108.45347375834535 44.67995069839526,109.24430090136593 46.01109285122948,109.52215810930647 47.4753492193413,109.20155359354976 50.054437140526716,106.78631115658209 51.88475760066649,103.49467998075124 52.417214461776894,101.63509057475312 52.683442892332096,98.74947572976816 52.101068200485315,95.67142613045871 50.670090386178344,92.40093007555697 49.655094494635705,91.43900606733223 48.30731306492817,91.01148233017011 46.97617091209395,91.09698717383435 45.69494658999611,91.6741436097218 43.28225143800955,94.64539573424554" stroke="#4DD2FF" stroke-linecap="round" stroke-linejoin="round" stroke-width="0.5"><title>2024-12-20 16.0km</title><desc>1734644952000</desc></polyline><polyline fill="none" points="57.25,108.6732841237972 62.24360824737232,109.59576305748487 64.04731958766934,109.18815677506791 64.44814432988642,107.32173514108581 66.5524742268608,106.18470846285345 69.1244329896872,105.45529065707524 69.65886597940698,109.50995129915827 70.92814432986779,111.09746101063502 71.56278350518551,111.46215685270727 72.29762886598473,111.48360952208168 73.60030927835032,110.75421706827183 75.7046391752665,110.41097235315829 79.02814432984451,111.31198808214685 81.86731958767632,109.91755672122235 83.17000000004191,109.74593351845397 86.79412371129729,110.13208545307862 88.24711340205977,108.52311260632996 90.38484536082251,109.5314042432583 92.35556701023597,109.42413949247566 94.81061855668668,107.17156229224929 96.91494845360285,103.69609217873949 97.71659793809522,98.9332822226861 96.8481443299097,94.72815514882677 95.87948453600984,92.64700343002914 95.0277319587185,91.70296647859504 93.6248453608132,91.08075710931735 92.32216494844761,91.05930156860268 90.41824742266908,91.85315456647368 88.7147422680282,93.74122076260392 87.47886597941397,95.95108671937487 86.2596907215775,100.17763431894127 86.51020618557232,104.12516685017908 88.21371134015499,108.05114401683386 89.21577319584321,109.05943877523532 90.10092783509754,109.44559244866832 92.32216494844761,109.35978060575144 94.09247422678163,107.94387822462886 95.39515463908901,106.37778906253516 97.0986597937881,103.03102405136451 97.75,98.74019219398906 97.38257731962949,96.44454755747574 96.48072164948098,93.78413108616951 94.92752577317879,91.5956891823007 93.42443298973376,91.05930156860268 91.67082474229392,91.14512371360615 90.36814432987012,91.85315456647368 88.8483505154727,93.63394490082283 87.12814432987943,96.74491424202279 86.49350515456172,99.23364400352875 86.30979381443467,101.67942504618259 86.94443298969418,105.47674417179951 88.18030927836662,108.00823770902934 89.21577319584321,109.0165327511495 90.53515463916119,109.5314042432583 92.28876288665924,109.4026865332853 94.7772164947819,107.17156229224929 96.8481443299097,103.69609217873949 97.53288659790996,101.27179759736464 97.73329896910582,98.67582879676775 96.93164948449703,94.7710651945381 95.14463917521061,91.7458773759572 93.60814432991901,91.08075710931735 92.08835051540518,91.01639047790377 90.58525773190195,91.66005556908203 89.58319587627193,92.64700343002914 87.161546391726,96.61618573537271 86.2763917525881,100.88562321939389 86.91103092790581,105.26220888909302 87.76278350513894,107.32173514108581 88.93185567006003,108.82345549340243 90.33474226808175,109.44559244866832 91.97144329897128,109.44559244866832 94.19268041237956,107.87951871300174 96.714536082407,104.12516685017908 97.51618556701578,101.27179759736464 97.71659793809522,98.9332822226861 97.3491752576665,96.35872839597869 96.48072164948098,93.71976559628092 95.16134020622121,91.7458773759572 93.57474226801423,91.08075710931735 92.10505154635757,91.0378460247739 90.6520618556533,91.63860010985809 89.83371134015033,92.51827146271535" stroke="#4DD2FF" stroke-linecap="round" stroke-linejoin="round" stroke-width="0.5"><title>2024-12-15 10.9km</title><desc>1734216782000</desc></polyline><polyline fill="none" points="102.25,108.07173728806083 103.19147634587716,108.96284509725228 106.1315252854838,109.17501284701575 107.78323817293858,109.59934745094506 109.46798531810055,109.1537960854912 109.74877650896087,107.2867093783425 111.81341761822114,106.26828870210738 114.34053833602229,105.54690322761599 114.60481239802903,105.65298954330501 114.63784665573621,108.0293034514325 115.1003262642771,109.79029763309518 116.75203915167367,111.3815397467697 117.64396411093185,111.40275619488966 119.22960848291405,110.66017873608507 121.11256117455196,110.38436331991397 124.28384991845815,111.29667392460397 126.41455954319099,110.1297640263947 128.49571778142126,109.68421422838583 131.7826264273608,110.04489749975619 133.08747960842447,108.55972555019252 133.91333605221007,108.64459291283856 135.41639477974968,109.4508304753981 137.41496737347916,109.21744636120275 138.75285481236642,108.30512317565444 140.28894779772963,106.67141437565442 141.26345840131398,105.0376878734678 142.3205546492827,102.21575494519493 142.7004486133228,99.39376919751521 142.3535889070481,96.55051209173689 141.2304241435486,93.38891697276267 139.89253670471953,91.73382731588208 138.40599510603352,91.160907431753 136.8699021206703,91.26700387086021 135.59808319743024,91.90358093750547 133.89681892335648,93.87695276158047 132.03038336051395,97.48412481548439 131.38621533446712,101.21851789634093 131.8486949429498,104.7618621718575 133.51692495919997,108.38999068159319 135.54853181075305,109.42961375269806 137.58013866230613,109.1537960854912 140.3384991842904,106.56532877658901 141.32952691678656,104.97403583323467 142.45269168022787,101.70652834010252 142.7169657422346,99.45742359365977 142.3866231647553,96.35954514046898 141.01570146816084,92.90087960407254 139.9586052201921,91.73382731588208 138.17475530179217,91.09724953246769 136.8533849917585,91.18212672552909 136.06056280591292,91.56407350310474 134.40884991839994,93.13428897748236 132.31117455137428,96.67782325812732 131.53486949420767,99.83934940618929 131.60093800979666,103.29785577022994 132.14600326266373,105.90759639622411 133.92985318106366,108.72946022768156 133.92985318106366,109.23866311374877 135.3833605219843,110.04489749975619 136.27528548118426,111.44518908200553 135.763254486199,110.85112757477327 135.89539151714416,110.0024642185017 136.44045676995302,109.4508304753981 137.2828303425922,109.32353009421786 138.4225122348871,108.58094239531783 140.28894779772963,106.62898014496022 141.32952691678656,104.97403583323467 142.45269168022787,101.68531052758044 142.7169657422346,98.43895003010402 141.74245513865026,94.53473762932117 140.73491027730051,92.47649799915962 139.6612969004782,91.52163502004987 138.17475530179217,91.07603022674448 136.4734910277184,91.41553876016405 135.15212071774295,92.39162153474172 133.84726753667928,93.94060948709375 131.98083197389496,97.65387196221855 131.4027324632625,101.3246072576294 132.2120717781363,105.99246525175113 133.53344208811177,108.36877380963415 134.77222675370285,109.25987986334076 136.06056280591292,109.53569733646873 137.46451876015635,109.23866311374877 140.32198205549503,106.60776302513841 141.99021207168698,103.27663818169094 142.61786296899663,101.02755685790908 142.75,98.79966020409483 142.15538336051395,95.8290801178955 141.04873572592624,93.07063191149791 139.46309135400224,91.39431949918799 138.29037520388374,91.05481091799447 136.63866231648717,91.30944242559781 135.20167210447835,92.37040241123759 133.68209624796873,94.30133042413217" stroke="#4DD2FF" stroke-linecap="round" stroke-linejoin="round" stroke-width="0.5"><title>2024-12-10 11.3km</title><desc>1733785667000</desc></polyline><polyline fill="none" points="147.25,108.960915221498 149.66610738256713,107.58370713476324 150.5872483222047,107.37033563673322 151.38758389261784,108.08803845341026 152.3087248322554,108.24321694945684 155.73657718126196,108.7475458552799 157.2164429530385,108.35960070688452 157.57885906042065,106.65262908334262 161.82214765105164,104.9456363216741 162.01845637580846,105.04262511317211 162.22986577183474,108.43718982391874 164.04194630868733,110.45449153792288 164.6912751677446,110.53207947582996 166.08053691277746,109.81438938384235 167.75671140936902,109.50403575440578 170.92785234894836,110.33810954914952 173.0570469798986,109.19368142617168 174.50671140936902,108.90272360893141 177.66275167785352,109.27127007373201 179.05201342276996,107.83587302477099 180.74328859057277,108.59236792696174 182.70637583895586,108.57297067366017 184.2466442952864,107.46732272225199 186.55704697984038,104.38309998516343 187.37248322140658,102.05533901583112 187.689597315446,99.88272664386022 187.23657718120376,96.15816861603525 186.10402684565634,93.55867785676674 185.19798657717183,92.49170850260998 183.56711409398122,91.98732011446555 182.1627516777953,92.08431802476116 181.4681208053371,92.43350993665808 179.14261744963005,95.11061853614228 177.6929530201014,98.48602917788958 177.4060402684845,100.69746029647649 177.76845637575025,104.36370213954069 179.09731543628732,107.33154078347434 179.6560402684263,108.01044913985243 180.80369127518497,108.61176517754211 181.8758389261784,108.7475458552799 182.85738255031174,108.51477889728267 184.5939597315155,107.07937397090427 186.42114093957935,104.59647610721004 187.53859060403192,101.41519785767014 187.73489932884695,98.95159657245676 187.2214765100507,96.11937060690252 185.89261744968826,93.26768703387643 184.82046979863662,92.29771318717394 183.14429530204507,91.96792052417004 182.23825503361877,92.02611928673286 181.4983221476432,92.45290946139721 179.6862416107324,94.33465038082795 178.07046979869483,97.26390728511615 177.3758389261784,100.89144378968922 177.7533557047136,104.1115298976365 179.14261744963005,107.38973305930267 180.51677852339344,108.47598436604312 181.63422818796244,108.7475458552799 182.88758389261784,108.53417615877697 184.95637583889766,106.6914241277118 186.4060402684263,104.71286294366291 186.99496644292958,103.4326023379399 187.52348993287887,101.43459611825529 187.75,98.99039378437737 187.2214765100507,96.06117357269977 185.63590604026103,92.87969831435475 184.83557046973146,92.27831364057784 183.28020134218968,91.96792052417004 181.72483221482253,92.29771318717394 180.33557046978967,93.59747658672859 179.14261744963005,95.22701338266779 179.58053691271925,95.9059813614731" stroke="#4DD2FF" stroke-linecap="round" stroke-linejoin="round" stroke-width="0.5"><title>2024-12-08 8.9km</title><desc>1733614342000</desc></polyline><polyline fill="none" points="12.25,156.98354925855529 12.745657323335763,156.63439624213788 13.593071456765756,156.5933193617966 14.424496644292958,157.39431644380966 17.286517962871585,157.5996996028989 18.99733517569257,158.0720797721442 20.58024082117481,157.53808468551142 20.820075009891298,155.83339498966234 22.882649032748304,154.84754125964537 25.121101460710634,154.2108405198087 25.504836162668653,154.39568940787285 25.72868140542414,157.41485477275273 26.54411764704855,158.9757593141985 27.695321752864402,159.81781930635043 31.74052506906446,158.79091622671694 33.035629688121844,158.9962974205555 35.0022700355039,159.81781930635043 37.528523489891086,158.40069116205268 39.1753849190427,158.11315623634437 42.101362021348905,158.5855347437173 43.508389261725824,157.0451644100831 46.22651006706292,158.03100329633162 47.82540465844795,157.62023790289823 49.520232925366145,156.18254992224684 51.454895381000824,153.55359813311952 52.5421437031473,150.37003843356797 52.75,147.6588231624046 52.41423213586677,145.52267868582567 51.83863008284243,143.63298635384126 50.52753651794046,141.14759287914785 48.94463087251643,140.3054251580179 47.36172522697598,140.26434368149785 46.162554283451755,140.6751579267875 44.67558231338626,142.07191771025828 42.38916304783197,146.22103705097106 41.76559415709926,150.47273499166477 42.16531780496007,153.36874817866192 43.268555073067546,156.05931886493636 44.14794709830312,157.20947135344613 45.41107382543851,157.8872355401545 46.866067903640214,157.94885031017475 48.35303987370571,157.27108640960068 50.04786814050749,155.5869321814098 51.34297275956487,153.63575359339302 52.49417686538072,150.53435289178742 52.71802210819442,147.74098194095131 52.41423213586677,145.3583585848537 51.59879589412594,142.9551559676911 50.44759178842651,141.1065116396494 49.66413343860768,140.55191377468873 47.93732727994211,140.18218069363502 46.146565337490756,140.7573206370871 44.14794709830312,142.77029258871335 42.485096723248716,145.97455800959142 41.76559415709926,149.1992925634113 42.085373075387906,152.9168917486386 42.91679826291511,155.40208480216097 43.78020134224789,156.83978047056007 44.94739439402474,157.7023910741409 45.93870904063806,157.96938856103225 47.12189103825949,157.96938856103225 48.369028819550294,157.33270143969276 51.10313857084839,154.0259913977643 52.510165811283514,150.30842046397447 52.71802210819442,147.96691834343073 52.49417686538072,145.85131833278865 52.142420055228285,144.22865288201137 50.99121594947064,141.82543166104006 50.01589024870191,140.7367799638305 48.97660876432201,140.28488442125672 47.47364784841193,140.22326219335082 46.22651006706292,140.6751579267875 44.963383339869324,141.80489113817748 43.63630082900636,143.65352661945508 42.59701934462646,145.6664586224506 41.97345045401016,147.82314067319385 41.78158310306026,150.30842046397447 41.989439399854746,152.44449489418184 43.42844453215366,156.36739631310047 44.09998026053654,157.1683946349658 45.2511843664106,157.84615901239158 46.72216739045689,158.01046505414706 47.713482037128415,157.74346764232905 48.816719305177685,157.00408764529857 50.43160284246551,155.1145439690008 52.222364784858655,151.60239236149937 52.70203316223342,147.61774375585082 52.270331622625235,145.0091777559428 51.63077378604794,143.16055944751133 50.91127121989848,141.76381008370663 49.983912356896326,140.7367799638305 48.496940386947244,140.22326219335082 47.00996841688175,140.3054251580179 46.13057639164617,140.7367799638305 44.40377023286419,142.52380771913158 42.54905250691809,145.85131833278865 41.813560994924046,149.40468725502433 42.40515199361835,154.14922417182242 44.17992499016691,157.2505480604159 45.37909593369113,157.8872355401545 46.64222266082652,157.96938856103225 47.713482037128415,157.7023910741409 48.99259771016659,156.73708839251776 50.735392814851366,154.64215422766574 51.99851954204496,152.21856542331807 52.510165811283514,150.349499113232 52.75,147.59720404815744 52.3342874062364,144.98863768114825 50.63945913926,141.33245831372915 48.96061981841922,140.32596589199966 47.56958152388688,140.18218069363502 46.33843268849887,140.59299517024192 44.48371496255277,142.40056512822048 43.90811290952843,142.60596938860544" stroke="#4DD2FF" stroke-linecap="round" stroke-linejoin="round" stroke-width="0.5"><title>2024-12-07 13.6km</title><desc>1733525549000</desc></polyline><polyline fill="none" points="57.25,160.03476651158417 57.56007067125756,161.35220921463042 58.87190812721383,163.25176373032446 60.112190812593326,164.50791164588009 61.042402826831676,164.6610999202967 63.594522968051024,163.58877973606286 66.05123674904462,163.1598501837143 71.1316254416015,164.32408557432063 73.89840989396907,162.85347141466627 76.45053003530484,162.08752260604524 81.93639575969428,162.66964394637034 83.74911660782527,160.52497868116188 87.97084805660415,161.90369449098944 89.33038869255688,161.78114232810913 90.99999999988358,160.8926370840636 94.02915194339585,157.76752087015484 96.10424028267153,154.30532994534587 97.0583038869081,151.39459586009616 97.70229681977071,146.584139493134 96.74823321553413,141.74293596559437 94.76855123671703,137.2693230763398 93.26590106007643,135.92109294499096 90.37985865713563,135.33890007968876 87.78003533557057,136.19686796941096 84.60777385148685,139.7512703476823 82.36572438152507,144.0409890372248 81.43551236751955,149.74005598061194 82.24646643106826,156.05175171789597 84.44081272080075,160.12668137741275 85.9196113073267,161.26029486622429 87.99469964648597,161.84241841817857 90.73763250885531,161.1071041990508 94.02915194339585,157.76752087015484 95.74646643095184,155.1632230929972 96.8436395758763,152.34441862844687 97.75,146.584139493134 96.55742049473338,140.8849899333727 94.74469964660238,137.2693230763398 93.8383392225951,136.31943453470012 91.97791519435123,135.5533923691255 89.68816254416015,135.369541848253 87.97084805660415,136.0743013350293 86.58745583030395,137.2693230763398 84.58392226148862,139.7512703476823 82.79505300347228,142.93792659023893 81.6263250883203,147.13566217804328 81.43551236751955,149.4949378919846 82.0079505299218,155.4389737439633 84.60777385148685,160.31051099277101 85.967314487556,161.26029486622429 87.99469964648597,161.87305645670858 89.52120141335763,161.719866220752 91.47703180206008,160.52497868116188 93.93374558305368,157.9207138868369 95.88957597163972,154.79555501510913 97.39222614839673,150.13837228596094 97.70229681977071,146.4922189097415 97.20141342759598,145.1134055024013 97.34452296816744,143.6733021758264 96.15194346290082,139.84319377726933 94.6492932861438,137.1161155274167 93.1943462897325,135.92109294499096 91.57243816251867,135.369541848253 89.09187279141042,135.4614671281306 87.80388692568522,136.1662263172475 84.24999999988358,140.42537459669984" stroke="#4DD2FF" stroke-linecap="round" stroke-linejoin="round" stroke-width="0.5"><title>2024-12-05 7.7km</title><desc>1733352101000</desc></polyline><polyline fill="none" points="102.25,157.76302146281523 104.69763513508951,156.31792151478294 105.4121621621307,156.2007505891961 105.9746621621307,156.9233030542091 108.83277027023723,157.19670030321868 110.45945945940912,157.70443662245816 112.2229729729006,157.19670030321868 112.45101351349149,155.51725155170425 114.95945945940912,154.38458859226375 116.6621621621307,154.01354181941133 116.92060810810653,154.36505983945972 116.85979729722021,156.4155638771772 117.33108108106535,157.56773856536893 118.15202702698298,158.83707248677092 118.98817567562219,159.3448028046405 122.65202702704119,158.38792488801118 125.78378378378693,159.20810636333772 127.72972972970456,158.1731146529346 129.5996621620725,157.74349318545137 132.6858108107699,158.11452998570167 133.47635135130258,156.94283144702786 133.9628378378111,156.68896212647087 134.76858108100714,157.33339872575016 136.57770270266337,157.6067951668374 137.73310810810653,157.43104037367448 138.75168918911368,156.8061326398165 139.9983108107117,155.51725155170425 141.36655405402416,153.54484974093793 142.08108108100714,151.72865298521356 142.73479729727842,147.8032433069602 141.82263513514772,143.7996016402467 140.24155405402416,141.2801776657725 138.5236486486392,140.694258557196 137.3378378378111,140.83097323717084 136.4256756756804,141.22158586626756 134.64695945940912,143.11604151806387 132.98986486479407,146.10415095278586 132.32094594591763,149.71713851411187 132.71621621609665,153.46673424067558 133.3851351350895,155.14620780728 134.43412162159802,156.68896212647087 135.83277027023723,157.47009701366187 137.15540540538495,157.5482102605456 138.4476351350895,156.98188822435623 139.69425675680395,155.81018012287677 141.82263513514772,152.5488738183194 142.3851351350313,150.55690052805585 142.70439189183526,147.88136199541623 141.8378378378111,143.99490391383006 140.83445945940912,141.9442163312342 140.2111486485228,141.26064706870238 138.5236486486392,140.67472787764564 137.58108108100714,140.75285057937435 136.72972972970456,141.04581031930866 135.58952702698298,141.98327733020415 133.20270270266337,145.59637218840362 132.32094594591763,149.8538443045254 132.7010135134915,153.40814758655324 133.4003378378693,155.20479372759291 134.4493243243778,156.7280189752637 135.33108108100714,157.29434204733116 136.85135135130258,157.626323463468 137.86993243236793,157.35292706087057 139.10135135130258,156.43509234144585 141.74662162159802,152.76369275918114 142.64358108106535,148.9750190160994 142.36993243242614,145.47919220964832 140.75844594591763,141.82703326822957 140.1503378378111,141.24111646888196 138.55405405402416,140.67472787764564 137.50506756751565,140.7919119138096 136.28885135130258,141.3583000266517 134.61655405402416,143.1355718539853 133.23310810799012,145.55731220648158 132.39695945946733,148.62348734229454 132.30574324319605,150.63501766638365 132.65540540538495,153.42767647403525 134.26689189183526,156.57179151415767 136.04560810804833,157.52868195291376 137.44425675668754,157.47009701366187 138.34121621615486,157.040473369736 139.40540540538495,156.1616935920756 140.81925675674574,154.32600232562982 141.74662162159802,152.78322173730703 142.1722972972202,151.47477412575972 142.70439189183526,147.74465426176903 141.79222972970456,143.83866211696295 140.78885135130258,141.8465637855843 139.61824324319605,140.92862649750896 138.55405405402416,140.67472787764564 137.17060810804833,140.85050389477692 135.69594594591763,141.9051553212339 134.40371621615486,143.46758714436146 132.898648648581,146.39709939465683 132.44256756751565,148.42819158319617 132.32094594591763,150.6740762189729 132.7010135134915,153.4472053586942 133.43074324319605,155.24385099411302 134.22128378378693,156.5522630691121 135.04222972970456,157.15764358633896 136.59290540538495,157.6067951668374 137.79391891881824,157.3724553931679 138.82770270266337,156.68896212647087 140.43918918911368,154.98997856549977 141.7618243243196,152.74416377826128 142.41554054053267,150.4397247381421 142.70439189183526,147.76418394628854 141.70101351343328,143.66288988520682 140.81925675674574,141.8856248120719 140.22635135130258,141.26064706870238 138.8125,140.6551971953595 137.50506756751565,140.73331990808947 136.10641891887644,141.41689176847285 134.7989864863921,142.9207380074804 133.14189189183526,145.73308203852503 132.30574324319605,150.02960869435628 132.7010135134915,153.42767647403525 133.44594594597584,155.26337962324033 134.29729729727842,156.61084839591058 135.45270270260517,157.39198372274404 136.5625,157.58726686750015 137.99155405402416,157.25528535792546 140.5,154.95092122752976 141.74662162159802,152.78322173730703 142.14189189183526,151.55289074739267 142.75,147.49076811340638 142.00506756751565,144.36597747626365 141.29054054047447,142.72543422204035 140.45439189189347,141.51454461645335 139.5726351350895,140.92862649750896 138.02195945940912,140.67472787764564 136.51689189189347,141.14346342842327 135.34628378372872,142.19811262816074 134.2364864864503,143.8972528113809" stroke="#4DD2FF" stroke-linecap="round" stroke-linejoin="round" stroke-width="0.5"><title>2024-12-03 16.2km</title><desc>1733178751000</desc></polyline><polyline fill="none" points="147.25,166.40589797403663 150.04953917046078,165.03597410903603 152.23584595124703,164.72774017683696 154.90207373269368,165.00172591365117 158.12820934830233,166.16616185425664 161.30102040816564,164.35100928507745 164.47383146802895,163.59754575234547 169.99292297568172,164.38525757211028 172.25921658985317,161.7138767156721 173.13907175767235,161.67962805271964 176.07192231726367,163.15231620479608 178.4448650428094,163.15231620479608 180.3378867674619,162.1933574898576 182.20424621447455,160.4466729791602 183.67067149432842,158.90547035401687 186.2302501645172,154.41880270664115 187.72333772212733,147.0550085879804 186.2302501645172,139.4512292106665 184.44387755088974,135.75200739019783 182.76415404875297,134.27915342111373 180.31122448970564,133.6968598581443 177.69832126400433,134.0736382050527 175.56533903896343,135.6835027520865 172.6324884792557,139.27997018254246 170.68614219885785,143.18464607038186 169.8596115866676,146.5412471950258 169.51300197502133,149.14429374567408 169.80628703080583,153.76805778266862 170.4195194207132,156.61077280669997 172.44585253449623,160.65216592518846 173.93894009210635,162.3646003946924 176.81846609606873,163.2893099984649 178.25822909804992,163.25506155723997 180.52452271222137,162.0563630792749 183.64400921657216,158.93971940723713 185.72366688610055,155.61753880111792 187.2700789992232,150.95955973051605 187.75,146.06173558313458 186.57685977616347,140.27327086759033 184.8971362739103,136.4713049260754 183.3773864384275,134.65593086638546 179.48469387751538,133.59410202596337 176.87179065158125,134.4846684635413 172.6324884792557,139.21146653758478 170.4195194207132,144.04092626624333 169.48633969714865,150.48005682398798 170.33953258709516,156.4737752538349 172.01925608946476,160.06993546099693 173.69897959183436,162.26185466621246 175.6453258722322,163.04957080892927 178.17824226454832,163.22081311127113 181.6176761026727,161.13164879109536 185.96362738648895,155.00104668994027 187.32340355496854,150.10330387754948 187.75,145.99323384724266 186.33689927577507,139.58823634628789 184.44387755088974,135.78625970208668 182.57751810387708,134.14214329632523 179.43136932200287,133.59410202596337 177.45836076361593,134.0736382050527 175.96527320612222,135.1697173516004 172.65915075712837,139.21146653758478 170.65947992098518,143.18464607038186 169.37969058589078,150.24030501650122 170.4195194207132,156.4737752538349 172.2325543120969,160.27542872510094 173.85895325872116,162.26185466621246 175.83196181699168,163.04957080892927 178.204904542421,163.11806774428987 180.12458854506258,162.39884896112198 181.99094799207523,160.78916112615843 185.59035549708642,155.68603782821447 187.3500658327248,150.37730607829872 187.69667544437107,146.13023729983252 186.97679394320585,141.74608855860424 185.77699144161306,138.21816151849634 183.1374259380391,134.4504159685457 179.3780447661411,133.62835464150703 176.41853192879353,134.75868825020734 172.7924621461425,139.0402073408186" stroke="#4DD2FF" stroke-linecap="round" stroke-linejoin="round" stroke-width="0.5"><title>2024-12-01 10.0km</title><desc>1733006314000</desc></polyline><polyline fill="none" points="29.800260086543858,218.76725554594304 33.06169085437432,218.62760879498092 35.27221615263261,217.3707853827218 42.193697004113346,208.52633744623745 44.7666034984868,198.75061985451612 44.25926982378587,190.79017925538938 41.106553414836526,182.41056111850776 38.968504355987534,180.12940608503413 36.214407263323665,178.8724363843503 32.880500256316736,178.73277278931346 29.546593249076977,180.3156234122289 24.54573273845017,186.22796904167626 21.900350004667416,191.67468211628147 20.66825393703766,196.3299213470018 20.19715838157572,200.37992618302815 20.632015817333013,206.75741948134964 23.45858914940618,214.39162933151238 25.34297137078829,217.0914906426915 28.9305452152621,218.8603533472051 31.467213589930907,219.0 34.43873940082267,217.78972705063643 37.66393204894848,214.95022313474328 41.686363329179585,209.22459193356917 44.150555464904755,202.84714620254817 44.8390797378961,194.65404277155176 43.53450743085705,187.717677255132 42.193697004113346,184.4589318234939 39.801981107797474,180.87427476464654 37.555217690067366,179.24487234911066 32.84426213661209,178.63966369320406 31.10483239381574,179.24487234911066 27.80716350651346,182.0846827912901 24.54573273845017,186.22796904167626 22.480159919010475,190.09188585251104 20.921920774504542,194.93335645712796 20.269634620985016,200.98509506089613 20.632015817333013,206.52466641340288 23.386112909996882,214.39162933151238 25.198018892202526,216.9052940183028 27.55349666881375,218.39486407881486 30.81492743664421,218.9534511222737 33.89516760618426,218.20866818804643 38.85978999710642,213.46063756314106 42.41112572187558,207.87463192813448 43.896888627205044,203.73161682279897 44.91155597707257,194.93335645712796 43.53450743085705,187.57801739516435 42.193697004113346,184.31927058755537 39.98317170585506,180.87427476464654 37.62769392924383,179.198317876464 33.53278640983626,178.63966369320406 30.85116555611603,179.38453572787694 29.111735813552514,180.64150348250405 24.437018379801884,186.27452252488 21.82787376549095,191.72123483286123 20.74073017621413,195.6316396391776 20.559539577923715,205.45400019118097 21.175587611971423,208.99184060154948 23.42235102970153,214.2985302725283 24.8356376956217,216.53290045508766 27.5897347885184,218.39486407881486 30.3438318814151,219.0 33.64150076848455,218.20866818804643 35.81578794703819,216.81219566683285 39.222171193454415,212.99514069629367 42.809745037928224,207.1763745910721 44.25926982378587,202.61439038306708 44.984032216481864,195.67819179879734 43.53450743085705,187.6245706883492 40.88912469684146,182.17779091754346 38.352456321939826,179.570753474487 33.460310170426965,178.59310913539957 31.64840418845415,179.01209992033546 29.47411700990051,180.4087320365361 25.8865431654267,184.22616306398413 21.646683167433366,192.2798669213371 20.523301458451897,197.0747535438568 20.269634620985016,202.1023270036385 21.103111372794956,208.8521897237806 22.29896932072006,212.06414499765378 24.79939957614988,216.4398019987857 27.5897347885184,218.4414130351215 30.56126059917733,219.0 33.750215127598494,218.25521717051743 36.54055033996701,216.11395719545544 40.12812418444082,211.7848457772052 43.4982693111524,205.40744940727018 44.8390797378961,199.4954466004856 44.87531785760075,194.46783351688646 42.33864948269911,184.598593000439 40.52674350049347,181.4794793316396 38.135027604177594,179.2914268152963 34.801120597170666,178.5 30.85116555611603,179.47764461443876 27.625972908223048,182.13123685773462 24.473256499273703,186.22796904167626 21.393016329733655,192.9316031653725 20.015967783518136,201.17130064679077 20.921920774504542,208.71253878687276 23.603541627991945,214.95022313474328 25.37920949049294,216.95184318415704 28.242020942270756,218.72070663547493 31.612166068749502,218.8603533472051 34.40250128111802,217.74317800271092 40.091886064969,211.6451960784034 41.940030166646466,208.89874002282158 43.93312674690969,203.87126986248768 44.947794096777216,195.39887874235865 44.33174606296234,190.92983775917673 42.37488760240376,184.7848078114621 40.345552902435884,181.293262659834 37.48274145065807,179.15176339738537 33.6777388881892,178.54655457104673 30.05392692401074,179.80352551021497 24.400780260097235,186.3210760015936 25.524161968845874,188.36942248878768" stroke="#4DD2FF" stroke-linecap="round" stroke-linejoin="round" stroke-width="0.5"><title>2024-11-29 13.9km</title><desc>1732833187000</desc></polyline><polyline fill="none" points="57.25,206.40962873533135 59.69579894980416,205.04366760197445 60.51612903230125,204.94609843473881 61.23012002999894,205.6876223840518 65.71155288821319,206.33157417585608 67.23068267072085,205.8047047504515 67.44336084026145,204.24359840410762 69.43342085526092,203.24838393535174 71.52981995494338,202.60441782601993 71.87921980489045,202.83858766633784 71.83364591147983,205.29734711551282 72.19823705928866,206.31206052911875 73.26162790699163,207.59995532334142 74.40097524377052,208.10730453403085 76.0720180044882,207.32676651793008 77.63672168034827,207.07309071683267 79.24699924979359,207.3072530112695 80.62940735177835,207.91217044189398 82.19411102775484,207.1121177933819 84.29051012755372,206.50719687284436 85.67291822953848,206.42914236830256 87.70855213806499,206.81941445164557 88.66560390091036,205.60956741819973 89.394786196528,205.4144298114261 91.41522880713455,206.31206052911875 92.99512378097279,205.980328114616 95.31939234805759,203.87283306429163 96.41316579136765,202.17510542512173 97.40060014999472,199.48211550118867 97.73480870219646,196.51586317176407 97.12715678918175,193.33487733431684 96.01819204800995,190.81735828287492 94.62059264810523,189.64640361424244 93.02550637657987,189.39269546596915 91.81020255060866,189.70495158257836 90.77719429857098,190.48558879746997 89.12134283565683,192.63231847628776 88.01237809454324,194.7790149187349 87.37434358586324,197.84287863667123 87.72374343581032,202.05801999421965 89.15172543126391,205.12172288633883 90.13915978994919,205.92178701800003 91.47599399852334,206.29254687967477 92.41785446356516,206.21449225430842 93.48124531132635,205.70713611863903 95.31939234805759,203.8338050761231 96.41316579136765,202.17510542512173 97.41579144785646,199.44308627728606 97.68923480861122,196.1450771689706 96.6106526631047,191.96878739725798 95.89666166540701,190.66123156511458 94.71174043510109,189.64640361424244 93.58758439606754,189.39269546596915 92.32670667662751,189.5293076034577 91.35446361586219,190.05623887313413 89.94167291821213,191.383316161111 87.99718679668149,194.83756071978132 87.31357839459088,198.87716129544424 87.7845086271409,202.15559119345562 89.2124906226527,205.1412367005978 90.04801200301154,205.8827596064075 90.929107276781,206.23400591475365 92.93435858958401,206.0388691866392 95.44092273066053,203.71672104566824 96.99043510877527,200.88716024745372 97.75,196.61343827091332 97.2486871717847,193.66664000201854 95.85108777187997,190.60268400057976 94.66616654157406,189.64640361424244 93.48124531132635,189.39269546596915 92.17479369835928,189.58785562125558 90.97468117024982,190.29042990577 89.94167291821213,191.2467058502807 88.51369092270033,193.76421710620343 87.69336084020324,195.96944134791556 87.34396099025616,198.1160861264798 87.76931732933735,202.11656272195978 88.96942985750502,204.8485291988618 90.07839459861862,205.8827596064075 91.4000375092728,206.31206052911875 92.41785446356516,206.25351957249222 93.54201050259871,205.6876223840518 95.47130532632582,203.73623505764408 96.41316579136765,202.15559119345562 97.5373218304594,199.03327876249386 97.71961740433471,196.57440823951038 97.52213053259766,195.0327132113598 96.38278319576057,191.32476890154066 95.25862715678522,190.01720699593716 94.210427606944,189.4512435413926 92.99512378097279,189.39269546596915 91.70386346592568,189.7830155018164 89.86571642907802,191.53944206582673 89.394786196528,192.37861579158925" stroke="#4DD2FF" stroke-linecap="round" stroke-linejoin="round" stroke-width="0.5"><title>2024-11-27 11.3km</title><desc>1732665796000</desc></polyline><polyline fill="none" points="102.25,206.931681738919 103.03202747856267,206.75781980945612 105.0923691050848,205.52146196106332 105.8593575937557,205.46350741374772 106.61130709241843,206.17827845434658 111.12300408468582,206.75781980945612 112.5517081322032,206.3521411177935 112.71713702188572,204.90327886136947 113.12318975117523,204.51691301050596 115.25872632744722,203.5123567092087 116.89797623467166,203.1839424778591 117.21379502408672,203.58963053183106 117.37922391382745,206.7385018037312 117.75519866315881,207.20213319151662 127.95163386553759,207.41463038772054 130.05709246190963,206.931681738919 132.79418863717,207.2794049373333 133.8168399554561,206.04305178613868 134.53871147416066,205.79191619183985 136.25315633119317,206.68054777014186 138.08791310811648,206.5260035610263 139.57677311549196,205.30896183454024 141.63711474195588,202.43051862544962 142.52441515034297,199.62929111212725 142.70488303009188,197.94852716608148 142.1634793910198,193.9880249942944 141.3363349424326,191.95943084699684 140.614463423728,190.91614218284667 139.80235796514899,190.35585425705358 137.98264017823385,190.0853696122649 136.6441700704745,190.58769781411684 135.80198663199553,191.302546316394 134.38832157442812,193.11863117362373 133.275436316384,195.22448672137398 132.53852580761304,198.5087841013301 132.98969550686888,202.93280165316537 134.4033605643781,205.71464360882237 135.8170256220037,206.62259371214896 137.3660415893537,206.75781980945612 138.40373189753154,206.37145917795715 139.6820460453746,205.21237075922545 141.99805050127907,201.54185953582055 142.73496100999182,197.6780574823788 142.11836242111167,193.83346649532905 141.23106201260816,191.84351027592493 140.44903453392908,190.80022073069995 139.15568139625248,190.1819713323639 137.74201633868506,190.1046899617504 136.5990531006246,190.6263383688638 135.26058299298165,191.8628303778969 133.30551429634215,195.08924926245527 132.53852580761304,199.06903875002172 132.65883772738744,201.59981573876576 133.14008540660143,203.26121648536355 134.49359450431075,205.8305524670286 136.04261047160253,206.69986578407406 137.44123653921997,206.7191837952414 138.16310805792455,206.5260035610263 139.59181210550014,205.27032541255176 141.8626995914965,201.81232160684885 142.4642591905431,199.80316206991847 142.75,197.13711651622725 141.96797252132092,193.46638936268573 141.23106201260816,191.82419017117354 140.22344968438847,190.6263383688638 139.05040846636984,190.12401030850015 137.772094318585,190.0853696122649 136.6441700704745,190.5490572484705 135.3357779427315,191.74690972524695 134.2830486445455,193.19591084735293 133.18520237650955,195.39836325850047 132.6287597474875,197.48486452488578 132.49340883776313,199.552015060166 133.12504641665146,203.31917196238646 134.35824359452818,205.6760073010082 134.95980319351656,206.19759653895744 136.28323431120953,206.7385018037312 137.93752320826752,206.60327568731736 140.3287226142129,204.38168470580422 142.07324545120355,201.23275937361177 142.75,197.38826794418856 141.96797252132092,193.42774960743554 140.40391756402096,190.72293970819737 139.23087634606054,190.1819713323639 138.012718158192,190.0853696122649" stroke="#4DD2FF" stroke-linecap="round" stroke-linejoin="round" stroke-width="0.5"><title>2024-11-24 10.4km</title><desc>1732400098000</desc></polyline><polyline fill="none" points="147.25,206.53454437210166 149.67696629214333,205.07320806576172 150.4353932584636,205.01475429271522 151.31516853929497,205.69671344281232 155.7747191010858,206.35918482964917 157.2764044944197,205.93052723539586 157.48876404494513,204.2938223962119 158.82359550561523,203.68979548489733 161.93314606742933,203.7872193584335 162.29719101125374,206.33970042236615 163.17696629214333,207.52824425128347 164.01123595511308,208.05431777099147 164.72415730333887,208.09328610028024 166.66573033703025,207.23598032123118 168.10674157302128,207.09959027609148 170.8825842696824,207.91792853182415 172.5511235955055,206.96320009659394 174.32584269659128,206.47609121598362 177.75393258430995,206.8073254412302 178.9522471909877,205.4044456469128 179.72584269661456,206.047433983651 181.39438202243764,206.28124718397157 182.425842696568,206.2227939208824 183.47247191012139,205.77465141758148 185.36853932583472,203.8456736497319 186.36966292135185,202.26739912398625 187.4921348314383,199.07182524321252 187.71966292127036,196.5386959825846 187.35561797750415,194.00552037503803 185.7932584269438,190.53694320870272 184.6404494382441,189.67952871561283 182.98707865172764,189.40671389971976 181.9859550561523,189.69901546764595 181.04550561803626,190.38105005947 178.5882022472215,193.73271408361325 177.5264044943615,197.0063541035779 177.37471910112072,198.60417409871297 177.6325842696242,201.48799766082084 178.39101123594446,203.63134112779517 179.3162921348121,205.2485692368209 180.0140449438477,205.91104276779515 181.5157303371234,206.30073159949097 182.8657303369837,206.10588732073666 183.97303370787995,205.36547656085168 185.38370786514133,203.82618888875004 186.4303370786365,202.2089441664575 187.15842696628533,200.45528396425652 187.68932584265713,197.5519532483013 187.34044943819754,193.9470619292406 186.65786516852677,192.09586504615436 185.4443820224842,190.14721000652935 184.5646067415364,189.6600419608876 182.97191011236282,189.42620069009718 181.92528089880943,189.6600419608876 181.06067415734287,190.30310341902077 179.5741573033156,192.03740579404985 178.4971910112654,193.81065879311063 177.96629213483538,195.11622615488886 177.38988764048554,198.11703581019538 177.67808988760225,201.50748275087972 178.40617977525108,203.68979548489733 179.34662921348354,205.2875383557839 180.2112359550665,205.9500117002608 181.69775280897738,206.32021601230372 183.07808988768375,205.98898062182707 183.89719101128867,205.4044456469128 185.4443820224842,203.7677345892298 186.44550561794313,202.15048918419052 187.5831460673944,198.66263057816832 187.71966292127036,196.49972440119018 187.34044943819754,193.96654808059975 186.64269662916195,192.05689221413922 185.6264044943382,190.30310341902077 184.59494382020785,189.64055520347029 183.3207865168224,189.42620069009718 181.94044943817426,189.796449186455 180.68146067415364,190.69283618235204 179.28595505619887,192.4271336752281 178.0724719101563,194.88239409965172 177.4657303370186,197.41555366368266 177.40505617979215,199.5199894411926 177.7235955056385,201.87769894083613 178.4213483145577,203.7677345892298 179.33146067411872,205.2875383557839 180.75730337074492,206.183825065149 182.3348314606701,206.2227939208824 183.65449438197538,205.59929091270897 185.48988764046226,203.70928026508773 186.5820224719355,201.89718397604884 187.15842696628533,200.49425443232758 187.62865168537246,198.21446360500704 187.75,196.5581817691418 187.35561797750415,193.92757577520388 186.26348314603092,191.21897367252677 185.6264044943382,190.34207674473873 184.24606741574826,189.54312137483794 182.5168539325823,189.50414782427833" stroke="#4DD2FF" stroke-linecap="round" stroke-linejoin="round" stroke-width="0.5"><title>2024-11-21 10.8km</title><desc>1732142576000</desc></polyline><polyline fill="none" points="12.25,254.94366457602882 14.451585503993556,253.52965984283946 15.17015855043428,253.45110360425315 16.056908267200924,254.1973860853468 18.671291053236928,254.35449767817045 20.322480181232095,254.78655364643782 21.86664779158309,254.4723312567221 22.20300113252597,252.6851779610006 26.468573046440724,251.11403528139635 26.728482446284033,251.44790458072384 26.98839184595272,254.49197017679398 28.838335220818408,256.966451997112 29.511041902645957,257.2413917134836 29.602774631988723,256.5344027770916 32.14071347680874,255.6113840535545 33.5778595697484,255.65066157039837 35.810022650053725,256.3380163258553 37.6905436013476,255.297163520896 38.928935447416734,254.96330342975853 40.45781426958274,254.88474799817777 42.65939977351809,255.27752471409622 43.851925254799426,253.94207936985185 46.175821064563934,254.72763700228825 47.91874292190187,254.5116090941301 50.319082672765944,252.35131162150356 51.435164212889504,250.5444916919805 52.38306908268714,248.01097652495082 52.75,244.88820850051707 52.367780294502154,242.31530938411015 50.747168742876966,238.79959190941008 49.569932049838826,237.95502088523062 48.086919592285994,237.7782495588035 46.12995469989255,238.58353934327897 44.17298980749911,240.8226133434364 42.6288221970899,244.39720088137256 42.277180067962036,247.48070008780633 42.46064552664757,249.77855009671475 43.897791619529016,253.27435190582764 45.5031143828528,254.55088692047866 47.643544733931776,254.6883592256636 48.94309173274087,253.84388435493747 50.71659116650699,251.74249447573675 51.817383918503765,249.75891051332292 52.55124575312948,247.30394082763814 52.75,244.92748903536994 52.41364665911533,242.5902779658063 50.808323895791546,238.87815639599285 49.034824462025426,237.8175320951559 47.58238958095899,237.8568146204343 46.19110985280713,238.56389818433672 44.84569648926845,239.97805456344213 43.45441676105838,242.09926226121024 42.76642129110405,243.92583194164035 42.30775764444843,246.30230079122703 42.53708946774714,249.9749457782891 43.46970554930158,252.4691468913661 44.47876557195559,253.9617183645605 45.94648924120702,254.70799811533652 47.61296715744538,254.6883592256636 49.00424688565545,253.76532829321513 50.4261041902937,252.19419777365692 51.78680634207558,249.8374688301992 52.41364665911533,247.87349764212559 52.75,244.94712929870002 52.53595696494449,243.35625901515596 51.93969422421651,240.99938081331493 50.808323895791546,238.89779751074093 49.157134767854586,237.83717335914844 48.285673839214724,237.7586082865164 46.97083805210423,237.99430337183003 46.236976217478514,238.48533352083177 44.84569648926845,239.93877263530158 43.30152887880104,242.55099677309045 42.59824462060351,244.61324444660568 42.30775764444843,246.61654157658631 42.50651189131895,249.73927092720987 43.88250283128582,253.2547128144215 44.78454133635387,254.1973860853468 45.94648924120702,254.70799811533652 47.38363533408847,254.72763700228825 48.27038505091332,254.39377554880048 50.731879954750184,251.78177308139857 52.2607587769744,248.58053045379347 52.75,244.8685682288633 51.832672706688754,240.76369080373843 50.77774631942157,238.87815639599285 49.95215175539488,238.2103568502498 49.05011325032683,237.83717335914844 47.322480181232095,237.87645587894076 46.35928652319126,238.34784525328723 45.35022650053725,239.3691834348574 44.23414496041369,240.74404995166697 42.98046432621777,243.2776970497507 42.277180067962036,247.1664612482855 42.81228765571723,250.8390834939637 44.264722536783665,253.78496731282212 45.83946772367926,254.7472758864169 47.36834654590348,254.78655364643782 48.209229898115154,254.4526923338417 50.62485843710601,251.95852667014697 51.832672706688754,249.8374688301992 52.428935447358526,247.99133669280855 52.73471121181501,244.7900071148324 52.35249150625896,242.41351251123706 51.481030577619094,240.07625933535746 50.71659116650699,238.79959190941008 49.6463759909966,238.07286831176316 48.51500566251343,237.7782495588035 47.184881087217946,237.95502088523062 46.175821064563934,238.56389818433672 44.81511891284026,239.9584136007761 42.91930917330319,243.33661852795922 42.46064552664757,245.1042513055727 42.26189127971884,247.89313749079884 43.179218573030084,251.8603302595584 43.851925254799426,253.2154346233001 44.81511891284026,254.21702504414134 45.701868629665114,254.6687203332258 47.398924122331664,254.70799811533652 48.23980747454334,254.39377554880048 49.43233295582468,253.37254732147267 50.56370328430785,252.01744448335376 51.9702718007029,249.52323529742716 52.73471121181501,245.67381709767506 52.214892412303016,241.88321480389277 50.731879954750184,238.81923303518852 48.98895809741225,237.8175320951559 47.643544733931776,237.83717335914844 46.63448471121956,238.22999805897416 44.90685164212482,239.8602087458712 44.09654586634133,241.11722566882963" stroke="#4DD2FF" stroke-linecap="round" stroke-linejoin="round" stroke-width="0.5"><title>2024-11-17 16.3km</title><desc>1731797391000</desc></polyline></svg>