<?xml version="1.0" encoding="utf-8" ?>
<svg baseProfile="full" height="300mm" version="1.1" viewBox="0,0,200,300" width="200mm" xmlns="http://www.w3.org/2000/svg" xmlns:ev="http://www.w3.org/2001/xml-events" xmlns:xlink="http://www.w3.org/1999/xlink"><defs /><rect fill="#222222" height="300" width="200" x="0" y="0" /><text fill="#FFFFFF" style="font-size:12px; font-family:Arial; font-weight:bold;" x="10" y="20">Over 5km Runs</text><text fill="#FFFFFF" style="font-size:4px; font-family:Arial" x="10" y="280">ATHLETE</text><text fill="#FFFFFF" style="font-size:9px; font-family:Arial" x="10" y="290">sagasw</text><text fill="#FFFFFF" style="font-size:4px; font-family:Arial" x="65" y="280">SPECIAL TRACKS</text><rect fill="yellow" height="2.6" width="2.6" x="65" y="283" /><text fill="#FFFFFF" style="font-size:3px; font-family:Arial" x="70" y="285.5">Over 20.0 km</text><rect fill="red" height="2.6" width="2.6" x="65" y="287" /><text fill="#FFFFFF" style="font-size:3px; font-family:Arial" x="70" y="289.5">Over 40.0 km</text><text fill="#FFFFFF" style="font-size:4px; font-family:Arial" x="120" y="280">STATISTICS</text><text fill="#FFFFFF" style="font-size:3px; font-family:Arial" x="120" y="285">Number: 12</text><text fill="#FFFFFF" style="font-size:3px; font-family:Arial" x="120" y="290">Weekly: 2.4</text><text fill="#FFFFFF" style="font-size:3px; font-family:Arial" x="141" y="285">Total: 141.5 km</text><text fill="#FFFFFF" style="font-size:3px; font-family:Arial" x="141" y="290">Avg: 11.8 km</text><text fill="#FFFFFF" style="font-size:3px; font-family:Arial" x="167" y="285">Min: 7.7 km</text><text fill="#FFFFFF" style="font-size:3px; font-family:Arial" x="167" y="290">Max: 16.3 km</text><polyline fill="none" points="13.0,69.89771216508234 19.658144329907373,71.1276840766659 22.063092783559114,70.58420903343358 22.597525773220696,68.09564685478108 25.403298969147727,66.5796112838143 28.832577319582924,65.60705420945305 29.545154639170505,71.01326839889225 31.23752577311825,73.12994801418972 32.08371134020854,73.61620913694787 33.0635051545687,73.6448126961186 34.800412371056154,72.67228942437214 37.606185566983186,72.21462980422075 42.037525773164816,73.41598410953884 45.82309278356843,71.55674229498254 47.56000000005588,71.32791135794832 52.392164948396385,71.84278060411452 54.32948453607969,69.69748347513087 57.17979381443001,71.04187232434924 59.80742268031463,70.89885265663906 63.0808247422101,67.89541638968512 65.88659793813713,63.26145623832417 66.95546391746029,56.91104296359117 65.79752577317413,51.304206865112064 64.50597938138526,48.52933790671523 63.370309278252535,47.27062197147461 61.49979381437879,46.441009479094646 59.76288659789134,46.41240209148964 57.224329896853305,47.47087275530794 54.95298969070427,49.988294350143406 53.30515463917982,52.93478229250468 51.679587628808804,58.5701790919411 52.01360824739095,63.83355580024363 54.28494845353998,69.0681920224597 55.621030927752145,70.4125850336568 56.80123711342458,70.92745659823413 59.76288659789134,70.81304080768314 62.12329896900337,68.92517096617667 63.860206185490824,66.83705208338506 66.13154639175627,62.37469873516238 67.0,56.653589591995114 66.51010309276171,53.59273007664888 65.30762886593584,50.04550811491208 63.23670103086624,47.12758557641064 61.23257731960621,46.41240209148964 58.89443298976403,46.52683161816094 57.15752577316016,47.47087275530794 55.13113402063027,49.84525986776862 52.83752577321138,53.99321898937342 51.991340206121095,57.31152533805289 51.746391752618365,60.57256672825315 52.59257731959224,65.63565889575693 54.24041237111669,69.01098361203913 55.621030927752145,70.35537700154237 57.38020618550945,71.04187232434924 59.718350515468046,70.87024871105677 63.03628865967039,67.89541638968512 65.79752577317413,63.26145623832417 66.71051546384115,60.029063463167404 66.97773195873015,56.56777172903821 65.90886597929057,51.36142025940353 63.52618556690868,47.327836501281126 61.47752577322535,46.441009479094646 59.45113402057905,46.355187303881394 57.4470103092026,47.21340742545726 56.110927834990434,48.52933790671523 52.882061855634674,53.8215809805115 51.70185567007866,59.51416429254459 52.548041237168945,65.34961185212887 53.683711340185255,68.09564685478108 55.24247422674671,70.09794065786991 57.11298969073687,70.92745659823413 59.2952577319229,70.92745659823413 62.25690721650608,68.83935828400718 65.61938144324813,63.83355580024363 66.68824742268771,60.029063463167404 66.95546391746029,56.91104296359117 66.465567010222,53.478304527976434 65.30762886593584,49.95968746171275 63.54845360829495,47.327836501281126 61.432989690685645,46.441009479094646 59.4734020618489,46.38379469970823 57.536082474165596,47.184800146496855 56.44494845357258,48.357695283630164" stroke="#4DD2FF" stroke-linecap="round" stroke-linejoin="round" stroke-width="0.5"><title>2024-12-15 10.9km</title><desc>1734216782000</desc></polyline><polyline fill="none" points="73.0,69.09564971741929 74.25530179450288,70.2837934630079 78.17536704731174,70.56668379601615 80.37765089725144,71.1324632679316 82.62398042413406,70.53839478065493 82.9983686786145,68.04894583778514 85.75122349092271,66.69105160280014 89.12071778136306,65.72920430348313 89.47308319737203,65.87065272440668 89.51712887431495,69.03907126856211 90.13376835233066,71.38706351078872 92.33605220215395,73.5087196623499 93.52528548124246,73.53700825985288 95.63947797717992,72.54690498144191 98.15008156606928,72.17915109322348 102.37846655782778,73.39556523281499 105.21941272425465,71.83968536852626 107.99429037515074,71.2456189711811 112.37683523644228,71.72652999967977 114.1166394778993,69.74630073359003 115.21778140286915,69.85945721712778 117.2218597063329,70.93444063386414 119.88662316463888,70.623261814937 121.67047308315523,69.40683090085804 123.7185970635619,67.22855250086286 125.0179445350077,65.05025049796677 126.42740619904362,61.28767326025991 126.9339314843528,57.5250255966821 126.47145187598653,53.734016122325556 124.97389885806479,49.518555963688414 123.19004893954843,47.31176975450944 121.20799347467255,46.54787657567067 119.15986949426588,46.68933849448513 117.46411092986818,47.538107916669105 115.19575856439769,50.16927034876426 112.7071778139798,54.97883308729797 111.84828711254522,59.95802386179275 112.46492659056094,64.68248289580515 114.6892332789721,69.51998757546244 117.39804241422098,70.90615167024953 120.1068515497027,70.53839478065493 123.78466557897627,67.08710503544717 125.10603588900995,64.9653811109747 126.60358890693169,60.60870445347973 126.95595432294067,57.60989812486514 126.51549755292945,53.47939352062531 124.68760195747018,48.86783947209187 123.27814029355068,47.31176975450944 120.8996737357229,46.46299937661388 119.137846655678,46.576168967367266 118.08075040776748,47.08543133747298 115.87846655782778,49.179051969986176 113.08156606846023,53.90376434416976 112.04649265890475,58.119132541600266 112.13458401302341,62.73047436031629 112.86133768351283,66.21012852829881 115.23980424134061,69.97261363689904 115.23980424134061,70.65155081833655 117.17781402927358,71.72652999967977 118.36704730824567,73.59358544267889 117.68433931481559,72.80150343303103 117.86052202282008,71.6699522913259 118.58727569319308,70.93444063386414 119.7104404567508,70.76470679228078 121.230016313144,69.77458986041893 123.7185970635619,67.17197352662333 125.10603588900995,64.9653811109747 126.60358890693169,60.58041403678362 126.95595432294067,56.25193337346718 125.65660685149487,51.046316839099745 124.31321370298974,48.301997332207975 122.88172920059878,47.02884669339983 120.8996737357229,46.43470696899749 118.63132137025241,46.88738501355692 116.86949429032393,48.18882871299866 115.1296900488669,50.25414598279167 112.64110929844901,55.205162616301095 111.87030995101668,60.09947634350101 112.94942903751507,66.32328700233484 114.71125611744355,69.49169841285038 116.36296900489833,70.67983981777797 118.08075040776748,71.04759644862497 119.95269168016966,70.65155081833655 123.76264274062123,67.14368403352273 125.98694942891598,62.70218424224004 126.82381729199551,59.70340914388362 127.0,56.7328802721313 126.2071778139798,52.77210682386067 124.73164763452951,49.09417588199722 122.61745513859205,46.85909266558883 121.05383360513952,46.40641455732111 118.85154975519981,46.74592323413526 116.93556280585472,48.16053654831194 114.9094616639195,50.73510723217623" stroke="#4DD2FF" stroke-linecap="round" stroke-linejoin="round" stroke-width="0.5"><title>2024-12-10 11.3km</title><desc>1733785667000</desc></polyline><polyline fill="none" points="133.0,70.28122029533552 136.22147651016712,68.44494284635584 137.44966442964505,68.16044751564914 138.51677852356806,69.11738460454217 139.744966443046,69.32428926593275 144.31543624168262,69.99672780703986 146.28859060409013,69.47946760916966 146.77181208063848,67.20350544445682 152.42953020136338,64.92751509555092 152.6912751677446,65.05683348423918 152.97315436252393,69.58291976522014 155.38926174491644,72.27265538388747 156.25503355707042,72.37610596776358 158.10738255036995,71.41918584512314 160.3422818792751,71.00538100585982 164.57046979863662,72.11747939886118 167.40939597319812,70.59157523491012 169.3422818791587,70.20363147858006 173.55033557047136,70.69502676498087 175.4026845637709,68.78116403303284 177.6577181207249,69.7898239026108 180.2751677853521,69.763960898199 182.32885906042065,68.28976362966932 185.4093959730817,64.17746664689912 186.4966442952864,61.0737853544415 186.91946308722254,58.17696885847545 186.31543624168262,53.210891488037305 184.80536912754178,49.744903809027164 183.5973154362291,48.322278003470274 181.42281879205257,47.64976015262073 179.55033557047136,47.7790906996961 178.6241610738216,48.24467991554411 175.52348993287887,51.81415804820426 173.59060402680188,56.314705570519436 173.20805369131267,59.26328039528744 173.6912751677446,64.15160285272577 175.4630872483831,68.1087210446276 176.20805369131267,69.0139321864699 177.73825503361877,69.81568690338463 179.16778523486573,69.99672780703986 180.47651006712113,69.68637186304841 182.79194630880374,67.77249862786266 185.22818791947793,64.46196814293216 186.7181208053371,60.22026381021715 186.97986577183474,56.93546209661872 186.29530201351736,53.15916080919851 184.5234899329953,49.35691604515887 183.0939597315155,48.063617582884035 180.85906040272675,47.62389403223642 179.6510067115305,47.701492382300785 178.66442953026854,48.270545948529616 176.2483221476432,50.77953384110879 174.0939597316319,54.685209713483346 173.16778523486573,59.52192505291896 173.67114093969576,63.81537319684867 175.52348993287887,68.1863107457466 177.35570469789673,69.63464582139568 178.84563758398872,69.99672780703986 180.51677852356806,69.7122348783596 183.27516778523568,67.2552321702824 185.20805369119626,64.61715059154085 185.99328859057277,62.91013645057683 186.69798657717183,60.246128157683415 187.0,56.987191712498316 186.29530201351736,53.08156476360455 184.18120805372018,48.83959775247786 183.11409395968076,48.037751520765596 181.04026845633052,47.62389403223642 178.9664429530967,48.063617582884035 177.11409395979717,49.79663544896175 175.52348993287887,51.96935117690009 176.10738255025353,52.87464181530231" stroke="#4DD2FF" stroke-linecap="round" stroke-linejoin="round" stroke-width="0.5"><title>2024-12-08 8.9km</title><desc>1733614342000</desc></polyline><polyline fill="none" points="13.0,129.3113990114216 13.660876431153156,128.8458616561984 14.790761942393146,128.79109248241002 15.899328859057277,129.85908859175106 19.71535728382878,130.13293280387006 21.996446901001036,130.7627730295353 24.106987761566415,130.05077958070615 24.426766679855064,127.7778599862213 27.17686537699774,126.46338834619382 30.161468614358455,125.6144540264213 30.673114883480594,125.86091921050684 30.971575207193382,129.88647303036123 32.05882352939807,131.96767908560287 33.59376233711373,133.09042574181512 38.987366758752614,131.721221635642 40.7141729175346,131.99506322741217 43.33636004733853,133.09042574181512 46.70469798648264,131.20092154941813 48.90051322535146,130.8175416484737 52.8018160284264,131.44737965830427 54.67785234900657,129.3935525467823 58.30201342271175,130.70800439511368 60.43387287796941,130.160317203874 62.69364390044939,128.24339989633881 65.27319384133443,124.73813084418362 66.72285827086307,120.49338457810518 67.0,116.87843088322552 66.55230951448902,114.03023824779666 65.78484011045657,111.5106484718126 64.03671535721514,108.19679050553532 61.926174496649764,107.07390021071478 59.81563363596797,107.01912490867835 58.216739044641145,107.56687723573123 56.23410975118168,109.4292236136971 53.18555073044263,114.96138273463293 52.35412554279901,120.63031332223909 52.887090406613424,124.49166423823044 54.35807343071792,128.07909181993455 55.53059613110963,129.6126284712809 57.21476510062348,130.5163140535442 59.154757204814814,130.5984670802427 61.13738649827428,129.69478187947243 63.39715752075426,127.44924290855124 65.12396367941983,124.84767145787191 66.65890248713549,120.71247052239778 66.95736281084828,116.98797592127812 66.55230951448902,113.81114477981464 65.46506119216792,110.60687462361238 63.930122384568676,108.14201551955193 62.88551125151571,107.40255169958982 60.58310303988401,106.90957425819943 58.195420450065285,107.67642751612584 55.53059613110963,110.36039011829416 53.313462297664955,114.63274401279341 52.35412554279901,118.93239008456294 52.78049743385054,123.88918899818964 53.88906435051467,127.20277973622433 55.04026845633052,129.11970729408495 56.596525858622044,130.2698547655309 57.91827872081194,130.62585141471936 59.49585471767932,130.62585141471936 61.158705092733726,129.77693525292852 64.80418476113118,125.36798853035725 66.68022108171135,120.411227285309 66.95736281084828,117.2892244579125 66.65890248713549,114.4684244437376 66.18989340704866,112.3048705093679 64.654954599333,109.10057554807281 63.354520331602544,107.64903995177883 61.96881168568507,107.04651256169018 59.96486379788257,106.96434959115868 58.30201342271175,107.56687723573123 56.617844453197904,109.07318818423664 54.84840110538062,111.53803549263102 53.46269245957956,114.22194482994382 52.631267272052355,117.0975208976015 52.37544413737487,120.411227285309 52.6525858665118,123.2593265255855 54.57125937612727,128.48986175081518 55.466640347382054,129.55785951329744 57.00157915521413,130.46154534987 58.96288985386491,130.68062007220578 60.28464271617122,130.32462352311995 61.7556257401593,129.33878352708416 63.90880378999282,126.819391958692 66.29648637981154,122.13652314868523 66.93604421627242,116.82365834113443 66.3604421634227,113.34557034126192 65.50769838143606,110.88074593002966 64.5483616264537,109.01841344496643 63.31188314256724,107.64903995177883 61.32925384922419,106.96434959115868 59.34662455576472,107.07390021071478 58.174101855489425,107.64903995177883 55.871693643857725,110.03174362552818 53.39873667585198,114.4684244437376 52.41808132652659,119.20624967338517 53.20686932490207,125.53229889577779 55.57323332026135,129.6673974139121 57.17212791158818,130.5163140535442 58.856296881102026,130.62585141471936 60.28464271617122,130.2698547655309 61.99013028026093,128.98278452338127 64.31385708646849,126.18953897024039 65.99802605609875,122.95808723110531 66.68022108171135,120.46599881765724 67.0,116.79627206420992 66.44571654160973,113.31818357486918 64.18594551901333,108.44327775166312 61.947493091225624,107.1012878560141 60.092775365221314,106.90957425819943 58.45124358474277,107.45732689368015 55.97828661673702,109.86742017096549 55.21081721270457,110.14129251816485" stroke="#4DD2FF" stroke-linecap="round" stroke-linejoin="round" stroke-width="0.5"><title>2024-12-07 13.6km</title><desc>1733525549000</desc></polyline><polyline fill="none" points="73.0,133.37968868212192 73.41342756163795,135.13627895285026 75.16254416957963,137.66901830711868 76.8162544168299,139.34388219451648 78.05653710244223,139.54813322707196 81.45936395740137,138.11837298143655 84.73498233198188,137.54646691164817 91.50883392221294,139.09878076578025 95.19787985866424,137.137961886212 98.60070671362337,136.11669680807972 105.91519434622023,136.89285859517986 108.33215547702275,134.03330490822555 113.96113074198365,135.87159265467199 115.77385158999823,135.70818977081217 117.99999999988358,134.5235161120945 122.03886925789993,130.3566944935592 124.80565371015109,125.74043992714724 126.07773851579987,121.85946114681428 126.93639575957786,115.44551932418835 125.66431095392909,108.99058128747856 123.02473498217296,103.02576410179609 121.02120141335763,101.22812392667402 117.17314487614203,100.45186677292804 113.70671378064435,101.59582395921461 109.47703180194367,106.33502713026246 106.4876325087389,112.05465204964275 105.24734982324298,119.65340797416866 106.32862190809101,128.06900229054736 109.25441696099006,133.50224183656974 111.22614840965252,135.01372648830875 113.9929328620201,135.7898912242381 117.65017667831853,134.80947226542048 122.03886925789993,130.3566944935592 124.3286219079746,126.88429745734902 125.79151943454053,123.12589150460553 127.0,115.44551932418835 125.40989399293903,107.84665324451635 122.99293286213651,103.02576410179609 121.78445229679346,101.75924604627653 119.30388692580163,100.73785649216734 116.25088339217473,100.49272246434703 113.96113074198365,101.43240178006818 112.1166077736998,103.02576410179609 109.44522968202364,106.33502713026246 107.06007067137398,110.58390212032828 105.50176678434946,116.1808829040674 105.24734982324298,119.32658385598916 106.0106007065624,127.25196499197045 109.47703180194367,133.74734799037105 111.28975265007466,135.01372648830875 113.9929328620201,135.8307419422781 116.02826855122112,135.62648829436512 118.63604240270797,134.03330490822555 121.91166077728849,130.56095184912556 124.51943462889176,126.39407335349824 126.5229681978235,120.18449638129096 126.93639575957786,115.3229585463414 126.26855123671703,113.48454066988779 126.45936395751778,111.56440290110186 124.86925795045681,106.45759170301608 122.86572438152507,102.82148736988893 120.92579505301546,101.22812392667402 118.76325088343583,100.49272246434703 115.45583038858604,100.61528950420325 113.73851590091363,101.55496842300636 108.99999999976717,107.23383279560949" stroke="#4DD2FF" stroke-linecap="round" stroke-linejoin="round" stroke-width="0.5"><title>2024-12-05 7.7km</title><desc>1733352101000</desc></polyline><polyline fill="none" points="133.0,130.3506952837488 136.2635135134915,128.42389535302937 137.21621621621307,128.26766745225177 137.96621621621307,129.23107073894062 141.77702702698298,129.59560040428187 143.94594594591763,130.272582163263 146.297297297162,129.59560040428187 146.60135135124438,127.35633540226263 149.9459459458012,125.84611812300864 152.21621621621307,125.35138909255329 152.5608108107699,125.82007978593174 152.47972972958814,128.5540851695696 153.10810810804833,130.09031808715372 154.20270270260517,131.78276331568486 155.31756756745744,132.4597370728443 160.20270270272158,131.18389985067188 164.37837837834377,132.2774751511024 166.9729729729006,130.8974862039031 169.46621621609665,130.32465758058242 173.58108108094893,130.81937331425434 174.6351351350313,129.2571085960226 175.28378378378693,128.91861616862298 176.35810810804833,129.77786496766203 178.77027027017903,130.14239355576865 180.3108108107699,129.90805383156112 181.66891891881824,129.07484351973108 183.33108108094893,127.35633540226263 185.15540540532675,124.72646632124088 186.1081081079319,122.30487064694171 186.97972972970456,117.07099107594695 185.7635135134915,111.73280218699074 183.65540540532675,108.3735702210106 181.36486486485228,107.59234474290861 179.78378378378693,107.7746309828799 178.56756756757386,108.29544782167068 176.19594594591763,110.82138869073242 173.9864864863921,114.80553460369993 173.09459459455684,119.6228513521346 173.62162162153982,124.62231232089107 174.5135135134915,126.86161040970183 175.9121621621307,128.91861616862298 177.77702702698298,129.9601293515443 179.54054054047447,130.06428034738929 181.26351351337507,129.30918429914163 182.9256756757386,127.74690683049266 185.7635135134915,123.39849842441618 186.51351351337507,120.74253403740295 186.93918918911368,117.17514932721679 185.78378378367051,111.99320521843038 184.44594594591763,109.25895510830742 183.61486486473586,108.34752942492196 181.36486486485228,107.5663038368657 180.10810810804833,107.67046743915125 178.9729729729006,108.06108042573032 177.45270270260517,109.31103644026734 174.27027027017903,114.12849625118542 173.09459459455684,119.80512573936721 173.6013513513608,124.54419678205159 174.53378378378693,126.93972497009963 175.93243243242614,128.9706919670134 177.10810810804833,129.72578939644154 179.1351351350313,130.1684312846046 180.49324324319605,129.80390274782258 182.1351351350313,128.58012312192295 185.6621621621307,123.68492367889849 186.85810810804833,118.63335868812283 186.49324324319605,113.97225627952139 184.34459459455684,109.10271102430124 183.53378378378693,108.32148862516624 181.40540540532675,107.5663038368657 180.00675675668754,107.72254921840795 178.3851351350313,108.47773336885439 176.15540540532675,110.84742913863738 174.3108108106535,114.07641627530393 173.19594594591763,118.16464978971635 173.0743243242614,120.84669022183516 173.54054054047447,124.57023529869912 175.68918918911368,128.762388685529 178.0608108107699,130.038242603885 179.92567567550577,129.9601293515443 181.12162162153982,129.3872978263098 182.54054054047447,128.21559145608626 184.4256756756222,125.76800310082035 185.6621621621307,123.71096231639967 186.22972972958814,121.96636550100811 186.93918918911368,116.99287234900112 185.7229729729006,111.78488282259787 184.3851351350313,109.12875171410269 182.8243243242614,107.90483533000224 181.40540540532675,107.5663038368657 179.5608108107699,107.80067185968801 177.59459459455684,109.2068737616355 175.87162162153982,111.2901161924674 173.86486486473586,115.19613252619456 173.25675675668754,117.9042554442567 173.09459459455684,120.89876829195418 173.6013513513608,124.59627381159225 174.5743243242614,126.99180132547917 175.62837837834377,128.73635075880156 176.7229729729006,129.54352478178043 178.79054054047447,130.14239355576865 180.39189189183526,129.82994052421418 181.77027027017903,128.91861616862298 183.91891891881824,126.65330475399969 185.68243243242614,123.65888503768656 186.55405405408237,120.58629965085129 186.93918918911368,117.01891192837502 185.60135135124438,111.55051984693273 184.4256756756222,109.180833082748 183.6351351350313,108.34752942492196 181.75,107.54026292714116 180.00675675668754,107.64442654409504 178.14189189183526,108.55585569128743 176.3986486485228,110.56098400996416 174.18918918911368,114.31077605135215 173.0743243242614,120.03947825913201 173.6013513513608,124.57023529869912 174.59459459455684,127.01783949763922 175.72972972970456,128.81446452786622 177.27027027017903,129.85597829698236 178.75,130.11635582332383 180.65540540544316,129.67371381055273 184.0,126.60122830336331 185.6621621621307,123.71096231639967 186.18918918911368,122.07052099652356 187.0,116.65435748452728 186.00675675668754,112.48796996833698 185.05405405396596,110.30057896272046 183.93918918911368,108.68605948859476 182.76351351337507,107.90483533000224 180.69594594591763,107.5663038368657 178.68918918911368,108.19128457120678 177.12837837822735,109.59748350419977 175.6486486486392,111.86300374849816" stroke="#4DD2FF" stroke-linecap="round" stroke-linejoin="round" stroke-width="0.5"><title>2024-12-03 16.2km</title><desc>1733178751000</desc></polyline><polyline fill="none" points="13.0,201.87453063204885 16.73271889402531,200.0479654787341 19.647794601740316,199.63698690244928 23.202764977002516,200.00230121822096 27.50427913106978,201.5548824723519 31.7346938776318,199.13467904680874 35.96510862419382,198.1300610031467 43.32389730098657,199.18034342949977 46.345622119959444,195.61850228757248 47.51876234379597,195.57283740362618 51.42922975658439,197.53642160640447 54.59315339056775,197.53642160640447 57.11718235677108,196.2578099865059 59.60566161945462,193.92889730556635 61.56089532584883,191.8739604720613 64.97366688610055,185.8917369421979 66.96445029624738,176.07334478400298 64.97366688610055,165.93497228092747 62.59183673467487,161.00267652029288 60.352205398259684,159.03887122817105 57.08163265301846,158.26247981088818 53.5977616852615,158.76485094008967 50.75378538528457,160.9113370027917 46.84331797226332,165.706626910076 44.248189598554745,170.91286142720492 43.14614878222346,175.38832959337742 42.68400263343938,178.85905832759454 43.07504937448539,185.02407704357756 43.892692561028525,188.81436374227633 46.5944700462278,194.20288790026098 48.58525345637463,196.48613385960925 52.42462146142498,197.71907999797259 54.344305464066565,197.673415409663 57.366030283039436,196.07515077237622 61.52534562232904,191.91962587635498 64.29822251480073,187.4900517348433 66.3601053324528,181.2794129740214 67.0,174.74898077754187 65.43581303511746,167.03102782348287 63.196181698469445,161.96173990145326 61.16984858480282,159.54124115520972 55.97959183668718,158.12546936798026 52.49572086893022,159.31289128473145 46.84331797226332,165.6152887167991 43.892692561028525,172.0545683550008 42.648452929686755,180.6400757653464 43.78604344953783,188.63170033847564 46.025674785953015,193.42658061467228 48.2653061223682,196.34913955497905 50.86043449654244,197.39942774525844 54.2376563528087,197.62775081503787 58.82356813689694,194.84219838812714 64.61816984857433,186.6680622532731 66.43120473995805,180.1377385033993 67.0,174.657645129686 65.11586570111103,166.11764846174628 62.59183673467487,161.0483462694683 60.10335747199133,158.85619106178638 55.908492429414764,158.12546936798026 53.277814351487905,158.76485094008967 51.2870309415739,160.22628980214358 46.878867676248774,165.6152887167991 44.21263989480212,170.91286142720492 42.50625411467627,180.3204066886683 43.892692561028525,188.63170033847564 46.31007241620682,193.70057163346792 48.478604345116764,196.34913955497905 51.10928242257796,197.39942774525844 54.27320605679415,197.4907569923962 56.832784726750106,196.53179861485842 59.321263989433646,194.38554816824035 64.12047399627045,187.58138377097202 66.46675444371067,180.50307477108436 66.92890059249476,174.8403163997864 65.96905859117396,168.99478474483476 64.36932192230597,164.2908820246812 60.84990125079639,159.26722129140398 55.83739302167669,158.17113952201908 51.89137590513565,159.67825100029586 47.056616195011884,165.38694312109146" stroke="#4DD2FF" stroke-linecap="round" stroke-linejoin="round" stroke-width="0.5"><title>2024-12-01 10.0km</title><desc>1733006314000</desc></polyline><polyline fill="none" points="96.40034678229131,206.6896740612283 100.74892113916576,206.5034783933079 103.69628820358776,204.82771384360967 112.92492933897302,193.03511659495416 116.35547133162618,180.00082647267845 115.67902643186972,169.3869056738331 111.47540455311537,158.21408149131457 108.62467247480527,155.17254144669278 104.95254301768728,153.4965818458004 100.50733367516659,153.3103637190652 96.06212433218025,155.42083121629548 89.39431031816639,163.3039587222156 85.867133339867,170.56624282168923 84.22433858271688,176.77322846266907 83.59621117566712,182.1732349106751 84.17602108977735,190.6765593084565 87.94478553254157,200.85550577531103 90.45729516120628,204.4553208569123 95.24072695383802,206.81380446293042 98.62295145355165,207.0 102.58498586784117,205.3863027341722 106.88524273200892,201.60029751298134 112.24848443898372,193.96612257807283 115.53407395328395,185.46286160338786 116.45210631727241,174.53872369538294 114.71267657447606,165.2902363401663 112.92492933897302,160.94524243130581 109.73597481055185,156.1656996861857 106.74029025365598,153.99316313213785 100.45901618199423,153.186218257586 98.13977652508765,153.99316313213785 93.74288467527367,157.77957705504377 89.39431031816639,163.3039587222156 86.64021322550252,168.45584780329955 84.56256103259511,174.91114194283728 83.69284616131335,182.9801267478615 84.17602108977735,190.36622188449837 87.84815054689534,200.85550577531103 90.26402518968098,204.2070586910413 93.40466222516261,206.19315210508648 97.75323658203706,206.93793482964975 101.86022347491235,205.94489091739524 108.4797199962195,199.6141834174923 113.21483429591171,192.1661759041599 115.19585150294006,186.64215576369315 116.54874130291864,174.91114194283728 114.71267657447606,165.10402319353307 112.92492933897302,160.75902745005442 109.97756227478385,156.1656996861857 106.83692523906939,153.93109050192288 101.37704854644835,153.186218257586 97.8015540749766,154.17938097048318 95.48231441807002,155.85533797668177 89.24935783958063,163.36603003315395 85.77049835422076,170.62831311044283 84.32097356836312,175.84218618553132 84.07938610413112,188.93866692154552 84.90078348270617,193.65578746871324 87.89646803983487,200.7313736967044 89.78085026098415,203.71053394008777 93.45297971810214,206.19315210508648 97.12510917522013,207.0 101.52200102480128,205.94489091739524 104.42105059628375,204.08292755574803 108.9628949246835,198.99352092837216 113.74632671731524,191.23516612139065 115.67902643186972,185.1525205107173 116.6453762887977,175.9042557317298 114.71267657447606,165.16609425109345 111.18549959594384,157.90372122335248 107.80327509599738,154.42767129928689 101.28041356056929,153.1241455138661 98.86453891801648,153.6827998937515 95.96548934676684,155.5449760486954 91.18205755390227,160.63488408530247 85.52891088998877,171.37315589509672 84.03106861142442,177.7663380584563 83.69284616131335,184.46976933817496 84.80414849705994,193.46958629836445 86.39862576103769,197.75219333020505 89.73253276827745,203.5864026650088 93.45297971810214,206.2552173801232 97.41501413215883,207.0 101.66695350361988,206.00695622735657 105.38740045321174,203.15194292724482 110.17083224607632,197.37979436959722 114.66435908176936,188.87659920967417 116.45210631727241,180.99392880062805 116.50042381021194,174.29044468916254 113.11819931026548,161.13145733391866 110.70232466747984,156.9726391088043 107.51337013905868,154.0552357537381 103.06816079630516,153.0 97.8015540749766,154.3035261525656 93.50129721080884,157.84164914363646 89.29767533252016,163.3039587222156 85.1906884398777,172.2421375538397 83.35462371143512,183.2284008623683 84.56256103259511,193.28338504917338 88.13805550406687,201.60029751298134 90.50561265391298,204.26912424553302 94.32269458961673,206.6276088472805 98.81622142507695,206.81380446293042 102.53666837490164,205.3242373369285 110.12251475336961,197.19359477120452 112.58670688886195,193.5316533637233 115.24416899611242,186.82835981665994 116.59705879585817,175.53183832313516 115.77566141728312,169.57311701221624 113.16651680320501,161.3797437485773 110.46073720324785,156.7243502131023 106.64365526754409,153.86901786315138 101.57031851774082,153.06207276135683 96.73856923216954,154.73803401360055 89.20104034687392,163.42810133541934 90.69888262543827,166.15922998503083" stroke="#4DD2FF" stroke-linecap="round" stroke-linejoin="round" stroke-width="0.5"><title>2024-11-29 13.9km</title><desc>1732833187000</desc></polyline><polyline fill="none" points="133.0,190.21283831376059 136.26106526644435,188.39155680262775 137.3548387098126,188.26146457964205 138.30682670674287,189.25016317873087 144.2820705176564,190.1087655677984 146.30757689429447,189.40627300059714 146.59114778705407,187.3247978721338 149.2445611403091,185.99784524712595 152.0397599400021,185.13922376801202 152.50562640663702,185.45145022177894 152.44486121530645,188.72979615400254 152.9309827457182,190.08274737214379 154.3488372093998,191.7999404311122 155.86796699173283,192.47640604537446 158.09602400602307,191.43568869057344 160.1822955738753,191.09745428909082 162.32933233305812,191.4096706816781 164.1725431358209,192.21622725584893 166.25881470367312,191.14949039115163 169.05401350348257,190.34292916377308 170.89722430612892,190.23885649106523 173.6114028507145,190.7592192688462 174.88747186795808,189.14608989092812 175.8597149287816,188.88590641522023 178.55363840959035,190.08274737214379 180.66016504133586,189.6404374861595 183.75918979744893,186.83044408571732 185.2175543885678,184.5668072334811 186.5341335333651,180.9761540015752 186.97974493633956,177.02115089568542 186.16954238561448,172.77983644574124 184.69092273071874,169.42314437715686 182.8274568641791,167.8618714856566 180.70067516877316,167.523593954611 179.08027006755583,167.9399354434281 177.70292573142797,168.98078506327874 175.49512378091458,171.84309130170732 174.01650412613526,174.70535322497017 173.16579144785646,178.79050484887557 173.63165791437495,184.41069332561165 175.5356339084683,188.4956305151136 176.852213053382,189.56238269065216 178.63465866469778,190.0567291728803 179.8904726181645,189.9526563390682 181.30832708184607,189.2761814914993 183.75918979744893,186.77840676814958 185.2175543885678,184.5668072334811 186.55438859725837,180.92411503636686 186.91897974489257,176.52676955860807 185.48087021755055,170.95838319633913 184.5288822206203,169.21497542015277 182.94898724684026,167.8618714856566 181.45011252816767,167.523593954611 179.76894223550335,167.70574347127695 178.47261815459933,168.40831849750248 176.58889722428285,170.17775488147163 173.996249062242,174.7834142930369 173.08477119286545,180.1695483939111 173.7126781695988,184.54078825793113 175.61665416357573,188.52164893412555 176.73068267072085,189.5103461418621 177.90547636908013,189.97867455300002 180.57914478622843,189.71849224883772 183.92123030754738,186.6222947275528 185.98724681173917,182.84954699658556 187.0,177.15125102786988 186.33158289571293,173.2221866693435 184.4681170291733,169.136912000773 182.8882220555097,167.8618714856566 181.30832708184607,167.523593954611 179.56639159785118,167.7838074949832 177.9662415602943,168.72057320769818 176.58889722428285,169.99560780037427 174.68492123030592,173.35228947493306 173.59114778693765,176.29258846388257 173.12528132041916,179.15478150197305 173.69242310582194,184.48875029594637 175.29257314337883,188.13137226513936 176.77119279815815,189.5103461418621 178.5333833458135,190.08274737214379 179.8904726181645,190.0046927633084 181.3893473368371,189.25016317873087 183.9617404351011,186.6483134101727 185.2175543885678,184.54078825793113 186.71642910735682,180.37770501663908 186.95948987244628,177.09921098600898 186.69617404346354,175.04361761514156 185.1770442611305,170.09969186870148 183.6781695424579,168.35627599457803 182.2805701425532,167.60165805518045 180.66016504133586,167.523593954611 178.93848462123424,168.0440206690837 176.48762190551497,170.38592275441624 175.8597149287816,171.50482105545234" stroke="#4DD2FF" stroke-linecap="round" stroke-linejoin="round" stroke-width="0.5"><title>2024-11-27 11.3km</title><desc>1732665796000</desc></polyline><polyline fill="none" points="13.0,250.90890898523503 14.042703304789029,250.67709307928453 16.7898254734464,249.02861594810383 17.81247679167427,248.95134321834485 18.81507612322457,249.9043712724815 24.830672112875618,250.67709307928453 26.735610842937604,250.13618815706286 26.95618269580882,248.204371815169 27.497586334939115,247.68921734736068 30.3449684366351,246.34980894561158 32.53063497960102,245.91192330382182 32.951726698782295,246.45284070911293 33.17229855176993,250.6513357383228 33.67359821754508,251.26951092203672 47.26884515408892,251.55284051697527 50.07612328254618,250.90890898523503 53.72558484959882,251.37253991643956 55.089119940646924,249.72406904819945 56.051615298958495,249.38922158912465 58.33754177496303,250.57406369353703 60.78388414415531,250.36800474803022 62.76903082069475,248.74528244606336 65.5161529892357,244.907358167271 66.69922020053491,241.1723881495127 66.9398440400837,238.9313695547753 66.21797252132092,233.65069999241678 65.11511325661559,230.94590779600549 64.15261789830402,229.5548562437907 63.06981062015984,228.807805676086 60.643520237645134,228.4471594830393 58.858893427299336,229.11693041882245 57.73598217603285,230.07006175520655 55.851095432648435,232.49150823151285 54.36724842188414,235.29931562850834 53.38470107677858,239.67837880179286 53.98626067582518,245.5770688709017 55.87114741920959,249.28619147842983 57.75603416271042,250.49679161621316 59.82138878584374,250.67709307928453 61.204975863336585,250.16194557062408 62.909394727204926,248.61649434563878 65.9974006684497,243.72247938110377 66.97994801332243,238.57074330984324 66.15781656152103,233.4446219937672 64.97474935022183,230.79134703456657 63.93204604531638,229.40029430761933 62.2075751950033,228.57596177649975 60.32268845161889,228.47291994901025 58.79873746749945,229.16845115848992 57.014110657270066,230.8171071705292 54.40735239512287,235.11899901661673 53.38470107677858,240.4253850000241 53.545116969849914,243.7997543183592 54.18678054213524,246.01495531383262 55.991459339042194,249.44073662270966 58.05681396217551,250.5998210454418 59.92164871888235,250.6255783936649 60.88414407719392,250.36800474803022 62.789082807372324,248.69376721674053 65.8169327887008,244.08309547581302 66.61901225405745,241.40421609322948 67.0,237.8494886883127 65.95729669509456,232.9551858169143 64.97474935022183,230.7655868949223 63.63126624585129,229.16845115848992 62.06721128849313,228.49868041134323 60.3627924247412,228.4471594830393 58.858893427299336,229.06540966463217 57.11437059030868,230.66254630034382 55.71073152613826,232.59454779648513 54.24693650205154,235.5311510113388 53.505012996611185,238.3131526998477 53.3245451169787,241.0693534135644 54.16672855545767,246.09222928318195 55.810991459409706,249.23467640134913 56.613070924649946,249.93012871862447 58.37764574831817,250.6513357383228 60.58336427772883,250.47103424975649 63.77163015224505,247.50891294107714 66.09766060160473,243.3103458314872 67.0,238.18435725892778 65.95729669509456,232.90366614326194 63.87189008540008,229.29725294426316 62.30783512815833,228.57596177649975 60.68362421088386,228.4471594830393" stroke="#4DD2FF" stroke-linecap="round" stroke-linejoin="round" stroke-width="0.5"><title>2024-11-24 10.4km</title><desc>1732400098000</desc></polyline><polyline fill="none" points="73.0,250.37939249613555 76.2359550561523,248.4309440876823 77.2471910113236,248.3530057236203 78.42022471909877,249.26228459041158 84.36629213485867,250.14557977285585 86.36853932589293,249.57403631386114 86.65168539329898,247.3917631949298 88.43146067415364,246.5863939798728 92.57752808998339,246.71629247791134 93.06292134837713,250.11960056315002 94.23595505626872,251.7043256683828 95.34831460681744,252.40575702798378 96.29887640452944,252.45771480037365 98.88764044945128,251.31464042831794 100.80898876406718,251.13278703477408 104.51011235965416,252.2239047090843 106.73483146063518,250.95093346212525 109.10112359549385,250.30145495463512 113.67191011237446,250.74310058829724 115.26966292131692,248.87259419588372 116.30112359544728,249.72991197819647 118.52584269666113,250.0416629119718 119.901123595424,249.96372522784804 121.29662921349518,249.36620189010864 123.82471910107415,246.79423153297103 125.15955056180246,244.68986549864348 126.65617977525108,240.42910032428335 126.95955056173261,237.05159464344615 126.47415730333887,233.67402716672223 124.39101123600267,229.04925761160848 122.85393258440308,227.90603828748863 120.64943820226472,227.54228519962635 119.31460674165282,227.93202062351338 118.06067415734287,228.84140007928363 114.7842696630396,233.3102854448225 113.36853932589293,237.67513880477054 113.16629213478882,239.80556546493608 113.51011235953774,243.65066354775627 114.52134831459261,246.50845483705052 115.75505617971066,248.66475898242788 116.68539325846359,249.54805702371232 118.68764044949785,250.06764213264978 120.48764044931158,249.8078497609822 121.96404494380113,248.82063541446405 123.84494382014964,246.76825185165217 125.24044943822082,244.61192555526213 126.21123595512472,242.27371195233718 126.91910112358164,238.40260433105868 126.45393258426338,233.59608257231594 125.54382022470236,231.1278200615343 123.92584269668441,228.52961334203428 122.7528089886764,227.880055947855 120.62921348318923,227.56826758680108 119.23370786511805,227.880055947855 118.08089887641836,228.73747122536588 116.09887640445959,231.0498743920616 114.66292134835385,233.4142117241572 113.95505617978051,235.15496820650878 113.18651685398072,239.15604774691747 113.57078651688062,243.67664366784447 114.5415730336681,246.5863939798728 115.79550561797805,248.71671780772158 116.94831460679416,249.60001560034289 118.93033707863651,250.09362134973344 120.77078651695047,249.6519741624361 121.8629213484237,248.87259419588372 123.92584269668441,246.6903127856349 125.26067415729631,244.53398557890614 126.77752808993682,239.8835074375529 126.95955056173261,236.99963253492024 126.45393258426338,233.62206410746148 125.52359550562687,231.07585628550441 124.16853932582308,228.73747122536588 122.7932584269438,227.85407360462705 121.09438202250749,227.56826758680108 119.25393258430995,228.0619322486018 117.57528089883272,229.25711490980757 115.71460674155969,231.5695115669805 114.09662921354175,234.84319213285926 113.28764044935815,238.2207382182387 113.2067415730562,241.02665258826164 113.63146067422349,244.17026525443362 114.56179775274359,246.6903127856349 115.77528089878615,248.71671780772158 117.67640449432656,249.911766753532 119.77977528097108,249.96372522784804 121.53932584263384,249.13238788361195 123.98651685391087,246.61237368677394 125.44269662932493,244.1962453013839 126.21123595512472,242.32567257643677 126.83820224716328,239.28595147334272 127.0,237.07757569217938 126.47415730333887,233.57010103359062 125.01797752815764,229.95863156336418 124.16853932582308,228.7894356596371 122.32808988774195,227.72416183311725 120.02247191010974,227.67219709903293" stroke="#4DD2FF" stroke-linecap="round" stroke-linejoin="round" stroke-width="0.5"><title>2024-11-21 10.8km</title><desc>1732142576000</desc></polyline><polyline fill="none" points="133.0,249.92488610136206 135.93544733861927,248.0395464571193 136.89354473387357,247.93480480567086 138.07587768964004,248.92984811379574 141.5617214043159,249.13933023753634 143.76330690830946,249.7154048618977 145.82219705544412,249.29644167562947 146.2706681767013,246.9135706146626 151.9580973952543,244.81871370851877 152.30464326171204,245.26387277428876 152.65118912793696,249.32262690237258 155.11778029438574,252.62193599613965 156.01472253690008,252.98852228464966 156.13703284261283,252.04587036944577 159.52095130237285,250.81517873806297 161.43714609299786,250.867548760536 164.41336353332736,251.78402176778764 166.9207248018356,250.39621802784677 168.57191392988898,249.95107123967318 170.61041902611032,249.84633066422248 173.54586636461318,250.3700329521089 175.13590033969376,248.58943915979762 178.23442808608525,249.63684933636978 180.55832389579155,249.3488121255068 183.75877689698245,246.46841549534292 185.2468856171472,244.05932225596916 186.5107587769162,240.6813020332629 187.0,236.51761133401305 186.49037372600287,233.08707917880383 184.32955832383595,228.39945587920374 182.7599093997851,227.2733611802978 180.78255945642013,227.03766607839498 178.17327293322887,228.11138579102408 175.56398641003761,231.09681779124367 173.50509626278654,235.8629345084919 173.03624009061605,239.97426678374177 173.28086070227437,243.03806679560512 175.19705549266655,247.69913587442716 177.33748584380373,249.4011825606285 180.1913929785369,249.58447896753205 181.92412231035996,248.45851247324026 184.28878822200932,245.65665930096293 185.75651189126074,243.0118806844257 186.73499433754478,239.7385877701745 187.0,236.56998538048356 186.55152887885924,233.4537039544084 184.41109852772206,228.50420852797106 182.0464326160727,227.09004279352666 180.1098527746508,227.1424194939027 178.25481313699856,228.08519757911563 176.46092865231913,229.97073941791314 174.60588901478332,232.79901634827547 173.68856172147207,235.23444258882955 173.0770101925591,238.40306772163603 173.38278595695738,243.29992770437093 174.62627406569663,246.62552918848814 175.97168742923532,248.61562448607583 177.92865232157055,249.61066415377718 180.15062287659384,249.58447896753205 182.00566251412965,248.35377105760563 183.90147225372493,246.25893036487105 185.7157417894341,243.11662510692258 186.55152887885924,240.4979968561529 187.0,236.59617239826184 186.71460928651504,234.47501202020794 185.91959229903296,231.33250775106717 184.41109852772206,228.5303966809879 182.20951302384492,227.1162311455264 181.04756511899177,227.01147771535034 179.29445073613897,227.32573782910185 178.31596828997135,227.98044469444721 176.46092865231913,229.91836351373058 174.40203850506805,233.40132903077756 173.46432616084348,236.15099259545968 173.0770101925591,238.82205543543387 173.34201585513074,242.9856945696083 175.17667044163682,247.67295041921898 176.37938844843302,248.92984811379574 177.92865232157055,249.61066415377718 179.84484711207915,249.63684933636978 181.02718006796204,249.19170073172427 184.30917327292264,245.70903077519324 186.3476783692604,241.44070727171493 187.0,236.4914243051462 185.77689694229048,231.01825440497487 184.37032842589542,228.50420852797106 183.26953567378223,227.61380913366156 182.06681766710244,227.1162311455264 179.76330690830946,227.16860783858283 178.47904869762715,227.79712700436357 177.13363533408847,229.15891124645714 175.6455266138073,230.99206660220807 173.97395243495703,234.37026273299125 173.03624009061605,239.5552816643758 173.74971687432844,244.45211132527038 175.68629671575036,248.37995641707676 177.7859569649445,249.66303451520798 179.82446206116583,249.7154048618977 180.94563986419234,249.2702564451174 184.16647791618016,245.94470222685777 185.77689694229048,243.11662510692258 186.57191392977256,240.6551155904017 186.97961494908668,236.38667615309532 186.46998867497314,233.21801668162516 185.3080407702364,230.10167911380995 184.28878822200932,228.39945587920374 182.86183465470094,227.43049108234118 181.35334088339005,227.03766607839498 179.57984144962393,227.2733611802978 178.23442808608525,228.08519757911563 176.4201585504925,229.94455146769178 173.89241223107092,234.44882470394077 173.28086070227437,236.8056684074254 173.0158550395863,240.5241833210457 174.23895809741225,245.8137736794015 175.13590033969376,247.6205794977286 176.4201585504925,248.9560333921836 177.60249150625896,249.5582937776344 179.86523216310889,249.61066415377718 180.98640996601898,249.19170073172427 182.57644394109957,247.8300630952872 184.08493771241046,246.02325931112864 185.960362400976,242.69764706323622 186.97961494908668,237.5650894635619 186.28652321640402,232.51095307186188 184.30917327292264,228.42564404690347 181.98527746321633,227.09004279352666 180.1913929785369,227.1162311455264 178.8459796149982,227.63999741195585 176.54246885620523,229.81361166115676 175.46206115512177,231.48963422510133" stroke="#4DD2FF" stroke-linecap="round" stroke-linejoin="round" stroke-width="0.5"><title>2024-11-17 16.3km</title><desc>1731797391000</desc></polyline></svg>