<?xml version="1.0" encoding="utf-8" ?>
<svg baseProfile="full" height="300mm" version="1.1" viewBox="0,0,200,300" width="200mm" xmlns="http://www.w3.org/2000/svg" xmlns:ev="http://www.w3.org/2001/xml-events" xmlns:xlink="http://www.w3.org/1999/xlink"><defs /><rect fill="#222222" height="300" width="200" x="0" y="0" /><text fill="#FFFFFF" style="font-size:12px; font-family:Arial; font-weight:bold;" x="10" y="20">Over 5km Runs</text><text fill="#FFFFFF" style="font-size:4px; font-family:Arial" x="10" y="280">ATHLETE</text><text fill="#FFFFFF" style="font-size:9px; font-family:Arial" x="10" y="290">sagasw</text><text fill="#FFFFFF" style="font-size:4px; font-family:Arial" x="65" y="280">SPECIAL TRACKS</text><rect fill="yellow" height="2.6" width="2.6" x="65" y="283" /><text fill="#FFFFFF" style="font-size:3px; font-family:Arial" x="70" y="285.5">Over 20.0 km</text><rect fill="red" height="2.6" width="2.6" x="65" y="287" /><text fill="#FFFFFF" style="font-size:3px; font-family:Arial" x="70" y="289.5">Over 40.0 km</text><text fill="#FFFFFF" style="font-size:4px; font-family:Arial" x="120" y="280">STATISTICS</text><text fill="#FFFFFF" style="font-size:3px; font-family:Arial" x="120" y="285">Number: 3</text><text fill="#FFFFFF" style="font-size:3px; font-family:Arial" x="120" y="290">Weekly: 1.5</text><text fill="#FFFFFF" style="font-size:3px; font-family:Arial" x="141" y="285">Total: 36.3 km</text><text fill="#FFFFFF" style="font-size:3px; font-family:Arial" x="141" y="290">Avg: 12.1 km</text><text fill="#FFFFFF" style="font-size:3px; font-family:Arial" x="167" y="285">Min: 9.2 km</text><text fill="#FFFFFF" style="font-size:3px; font-family:Arial" x="167" y="290">Max: 16.3 km</text><polyline fill="none" points="20.414922412950546,115.5 30.25620465306565,113.24261342937825 43.04987156530842,114.86793256073724 47.82992293918505,109.08900139090838 51.20407684985548,107.91514963796362 59.21769238868728,112.0687692744541 67.79366691224277,111.34640257334104 74.7528593535535,105.6577363848337 84.3832569741644,92.20338868023828 88.53065448952839,79.10996066167718 89.37419296754524,71.25377560016932 86.84357753396034,52.741694786644075 82.97735951142386,43.25969044375233 79.60320560028777,38.38317650061799 75.80728245060891,35.76429260376608 67.30160279991105,34.5 61.04535908997059,36.847969995753374 57.10884619411081,40.1892970976769 50.50112811848521,48.677995798760094 45.299307506065816,58.52113345923135 41.85485872160643,73.87251464184374 43.963704916182905,94.55114752420923 50.571422991808504,107.55396405101055 57.1791410674341,111.79788185702637 64.41951300157234,112.42995232000249 69.2698592483066,110.62403505918337 75.24492346588522,105.20625278132502 86.07033392973244,88.04964045103407 89.51478271372616,69.98955292714527 86.63269291492179,52.019261292298324 82.4852953995578,42.717857391631696 78.8299619955942,37.84133933024714 72.78460290562361,34.95153335906798 66.17688482999802,34.59030669735512 60.83447447093204,37.02858271636069 54.57823076099157,42.80816293210955 45.43989725224674,57.889009890088346 41.85485872160643,76.49124299566029 42.41721770679578,88.32053789432393 44.666653647553176,96.08621597016463 50.99319223081693,108.09574235515902 58.23356416448951,112.15906505502062 64.77098736725748,112.24936082266504 68.1451412779279,111.34640257334104 74.8231542268768,105.4771429814864 85.4376800712198,89.31382754113292 88.24947499716654,79.92266397096682 89.58507758704945,67.46110010816483 85.92974418308586,50.30347848252859 82.4852953995578,42.627551838289946 77.7755388985388,37.02858271636069 72.2925387932919,34.68061338190455 66.31747457617894,34.5 61.04535908997059,36.667357224214356 54.92970512667671,42.26632949872874 50.009064006153494,49.03921452892246 44.87753826705739,59.33386284741573 42.27662796061486,69.0865352069959 41.64397410256788,78.74875886022346 44.596358774695545,96.35711002035532 50.36053837230429,107.37337118131109 53.17233329825103,109.8113706333097 59.358282134868205,112.33965657779481 67.09071818040684,111.70758602546994 78.26760301087052,101.32348067703424 86.42180829541758,86.60485215543304 89.58507758704945,68.6350258704042 85.92974418308586,50.12286949896952 78.61907737608999,37.48011429561302 73.13607727084309,34.95153335906798 67.44219254655764,34.5" stroke="#4DD2FF" stroke-linecap="round" stroke-linejoin="round" stroke-width="0.5"><title>2024-11-24 9.2km</title><desc>1732400880000</desc></polyline><polyline fill="none" points="104.5,90.56908874420333 109.35393258428667,87.64641613152344 110.87078651692718,87.52950858543045 112.63033707858995,88.89342688562465 121.54943820217159,90.21836965929833 124.55280898883939,89.36105447079171 124.97752808989026,86.08764479242382 127.64719101123046,84.87959096979466 133.86629213485867,85.07443871686701 134.5943820225075,90.1794008447323 136.35393258428667,92.55648850256694 138.02247191022616,93.60863554198295 139.44831460667774,93.68657220056048 143.3314606740605,91.97196064246236 146.21348314604256,91.69918055218295 151.76516853936482,93.33585706364829 155.10224719101097,91.42640019318787 158.65168539318256,90.45218243196723 165.5078651686199,91.11465088246041 167.90449438197538,88.30889129382558 169.45168539322913,89.59486796730198 172.78876404487528,90.06249436794315 174.851685393136,89.94558784176479 176.94494382024277,89.04930283516296 180.73707865166944,85.19134729946381 182.7393258427037,82.0347982479725 184.9842696628766,75.64365048642503 185.4393258425407,70.57739196516923 184.7112359550083,65.51104075007606 181.5865168538876,58.57388641740545 179.2808988764882,56.859057431225665 175.97415730345529,56.31342779943952 173.9719101123046,56.8980309352919 172.09101123607252,58.26210011894 167.17640449444298,64.96542816722649 165.05280898872297,71.51270820715581 164.74943820224144,74.70834819742595 165.2651685392484,80.47599532164168 166.78202247188892,84.76268225559033 168.6325842696242,87.99713847364183 170.0280898876954,89.3220855355903 173.03146067424677,90.10146319898195 175.73146067396738,89.71177464147331 177.9460674157599,88.23095312170335 180.76741573028266,85.15237777750008 182.86067415727302,81.91788833291503 184.31685393257067,78.41056792851305 185.37865168531425,72.60390649660258 184.68089887639508,65.39412385848118 183.31573033705354,61.69173009230872 180.8887640449684,57.7944200130587 179.12921348307282,56.82008392177522 175.94382022472564,56.35240138019435 173.85056179761887,56.82008392177522 172.12134831468575,58.106206838041544 169.14831460663117,61.57481158809969 166.99438202253077,65.12131758622127 165.93258426967077,67.73245230977773 164.77977528097108,73.73407162039075 165.3561797752045,80.51496550175943 166.81235955050215,84.87959096979466 168.69325842696708,88.07507671156782 170.42247191013303,89.4000234005216 173.39550561795477,90.14043202460743 176.1561797753675,89.47796124365414 177.79438202257734,88.30889129382558 180.8887640449684,85.0354691784596 182.89101123588625,81.80097836838104 185.16629213478882,74.82526115633664 185.4393258425407,70.49944880238036 184.68089887639508,65.4330961611995 183.2853932583239,61.61378442827845 181.2528089886764,58.106206838041544 179.1898876404157,56.78111040694057 176.64157303364482,56.35240138019435 173.8808988763485,57.092898372909985 171.36292134830728,58.88567236470408 168.57191011239775,62.35426735045621 166.14494382031262,67.26478819930344 164.93146067403723,72.33110732736532 164.8101123595843,76.53997888238518 165.44719101127703,81.25539788167225 166.84269662911538,85.0354691784596 168.66292134823743,88.07507671156782 171.51460674148984,89.86765013029799 174.6696629213402,89.94558784176479 177.30898876395077,88.69858182541793 180.9797752809245,84.91856053017545 183.16404494387098,81.29436795209767 184.31685393257067,78.48850886465516 185.25730337074492,73.92892721001408 185.5,70.61636353828362 184.7112359550083,65.35515155040775 182.52696629206184,59.937947345053544 181.2528089886764,58.18415348947747 178.49213483149651,56.586242749675876 175.03370786516462,56.50829564855667" stroke="#4DD2FF" stroke-linecap="round" stroke-linejoin="round" stroke-width="0.5"><title>2024-11-21 10.8km</title><desc>1732142576000</desc></polyline><polyline fill="none" points="14.5,239.88732915205765 18.903171007987112,237.05931968567893 20.34031710086856,236.9022072085063 22.11381653440185,238.3947721706936 27.342582106473856,238.7089953563409 30.64496036246419,239.57310729287565 33.73329558316618,238.9446625134442 34.40600226505194,235.37035592200118 42.93714609288145,232.2280705627927 43.45696489256807,232.8958091614477 43.97678369190544,238.98394035358797 47.676670441636816,243.93290399422403 49.02208380529191,244.48278342696722 49.205549263977446,243.0688055541832 54.28142695361748,241.222768107109 57.155719139496796,241.30132314079674 61.62004530010745,242.67603265171056 65.3810872026952,240.59432704179198 67.85787089483347,239.92660685951705 70.91562853916548,239.76949599635554 75.31879954703618,240.55504942819243 77.70385050959885,237.8841587397037 82.35164212912787,239.4552740045765 85.83748584380373,239.02321818826022 90.63816534553189,234.7026232430071 92.87032842577901,231.08898338396102 94.76613816537429,226.02195304990164 95.5,219.77641700103413 94.73556058900431,214.6306187682203 91.49433748575393,207.59918381882017 89.13986409967765,205.91004177046125 86.17383918457199,205.55649911760702 82.2599093997851,207.16707868655794 78.34597961499821,211.64522668687277 75.2576443941798,218.7944017627451 74.55436013592407,224.96140017561265 74.92129105329514,229.5571001934295 77.79558323905803,236.5487038116553 81.0062287657056,239.10177384095732 85.28708946786355,239.37671845132718 87.88618346548174,237.68776870987494 91.43318233301397,233.4849889514735 93.63476783700753,229.51782102664583 95.10249150625896,224.6078816552763 95.5,219.8549780707399 94.82729331823066,215.18055593161262 91.61664779158309,207.7563127919857 88.06964892405085,205.63506419031182 85.16477916191798,205.7136292408686 82.38221970561426,207.12779636867344 79.6913929785369,209.95610912688426 76.90883352211677,214.19852452242048 75.5328425822081,217.8516638832807 74.61551528889686,222.60460158245405 75.07417893549427,229.94989155657822 76.93941109860316,234.93829378273222 78.95753114391118,237.92343672912102 81.89297848241404,239.41599623067304 85.22593431489076,239.37671845132718 88.0084937713109,237.53065658643027 90.8522083805874,234.38839554731385 93.57361268415116,229.67493766039843 94.82729331823066,225.74699528425117 95.5,219.89425859740004 95.07191392988898,216.7125180303119 93.87938844843302,211.99876162662986 91.61664779158309,207.79559502148186 88.31426953570917,205.67434671829687 86.57134767842945,205.51721657303278 83.94167610420845,205.98860674366006 82.47395243495703,206.97066704166355 79.6913929785369,209.87754527060315 76.60305775760207,215.1019935461809 75.19648924120702,219.22648889321135 74.61551528889686,223.23308315317263 75.0130237826379,229.47854185441975 77.76500566257164,236.50942562884302 79.56908267270774,238.3947721706936 81.89297848241404,239.41599623067304 84.76727066817693,239.4552740045765 86.54077010182664,238.78755109760095 91.46375990950037,233.56354616279714 94.5215175539488,227.16106090758694 95.5,219.7371364577266 93.66534541337751,211.52738160747685 91.55549263884313,207.7563127919857 89.90430351078976,206.42071370049962 88.10022650065366,205.67434671829687 84.64496036246419,205.75291175788152 82.71857304638252,206.69569050657446 80.7004530010745,208.7383668697148 78.46828992082737,211.48809990333393 75.96092865243554,216.55539409950143 74.55436013592407,224.33292249657097 75.62457531143446,231.6781669879274 78.52944507356733,237.56993462564424 81.67893544735853,239.4945517728338 84.73669309180696,239.57310729287565 86.41845979623031,238.9053846676834 91.24971687421203,233.91705334029393 93.66534541337751,229.67493766039843 94.85787089471705,225.9826733856171 95.46942242363002,219.5800142296648 94.70498301251791,214.82702502247412 92.96206115523819,210.15251867071493 91.43318233301397,207.59918381882017 89.2927519819932,206.14573662352632 87.03001132502686,205.55649911760702 84.36976217443589,205.91004177046125 82.35164212912787,207.12779636867344 79.63023782568052,209.91682720155222 75.83861834660638,216.67323705591843 74.92129105329514,220.20850261114538 74.52378255943768,225.78627498159767 76.35843714606017,233.7206605191168 77.70385050959885,236.4308692466002 79.63023782568052,238.43405008828267 81.40373725933023,239.33744066645158 84.79784824466333,239.41599623067304 86.47961494908668,238.78755109760095 88.86466591164935,236.74509464294533 91.1274065686157,234.0348889667075 93.9405436014058,229.04647059485433 95.46942242363002,221.3476341953501 94.42978482460603,213.76642960778554 91.46375990950037,207.63846607037704 87.9779161948245,205.63506419031182 85.28708946786355,205.67434671829687 83.26896942243911,206.45999611794832 79.81370328424964,209.7204174917424 78.19309173268266,212.23445133765927" stroke="#4DD2FF" stroke-linecap="round" stroke-linejoin="round" stroke-width="0.5"><title>2024-11-17 16.3km</title><desc>1731797391000</desc></polyline></svg>