<?xml version="1.0" encoding="utf-8" ?>
<svg baseProfile="full" height="300mm" version="1.1" viewBox="0,0,200,300" width="200mm" xmlns="http://www.w3.org/2000/svg" xmlns:ev="http://www.w3.org/2001/xml-events" xmlns:xlink="http://www.w3.org/1999/xlink"><defs /><rect fill="#222222" height="300" width="200" x="0" y="0" /><text fill="#FFFFFF" style="font-size:12px; font-family:Arial; font-weight:bold;" x="10" y="20">Over 5km Runs</text><text fill="#FFFFFF" style="font-size:4px; font-family:Arial" x="10" y="280">ATHLETE</text><text fill="#FFFFFF" style="font-size:9px; font-family:Arial" x="10" y="290">sagasw</text><text fill="#FFFFFF" style="font-size:4px; font-family:Arial" x="65" y="280">SPECIAL TRACKS</text><rect fill="yellow" height="2.6" width="2.6" x="65" y="283" /><text fill="#FFFFFF" style="font-size:3px; font-family:Arial" x="70" y="285.5">Over 20.0 km</text><rect fill="red" height="2.6" width="2.6" x="65" y="287" /><text fill="#FFFFFF" style="font-size:3px; font-family:Arial" x="70" y="289.5">Over 40.0 km</text><text fill="#FFFFFF" style="font-size:4px; font-family:Arial" x="120" y="280">STATISTICS</text><text fill="#FFFFFF" style="font-size:3px; font-family:Arial" x="120" y="285">Number: 8</text><text fill="#FFFFFF" style="font-size:3px; font-family:Arial" x="120" y="290">Weekly: 2.0</text><text fill="#FFFFFF" style="font-size:3px; font-family:Arial" x="141" y="285">Total: 96.7 km</text><text fill="#FFFFFF" style="font-size:3px; font-family:Arial" x="141" y="290">Avg: 12.1 km</text><text fill="#FFFFFF" style="font-size:3px; font-family:Arial" x="167" y="285">Min: 7.7 km</text><text fill="#FFFFFF" style="font-size:3px; font-family:Arial" x="167" y="290">Max: 16.3 km</text><polyline fill="none" points="13.0,73.37968868212192 13.413427561637945,75.13627895285026 15.162544169579633,77.66901830711868 16.816254416829906,79.34388219451648 18.056537102442235,79.54813322707196 21.459363957401365,78.11837298143655 24.734982331981882,77.54646691164817 31.508833922212943,79.09878076578025 35.19787985866424,77.137961886212 38.60070671362337,76.11669680807972 45.91519434622023,76.89285859517986 48.33215547702275,74.03330490822555 53.96113074198365,75.87159265467199 55.77385158999823,75.70818977081217 57.999999999883585,74.52351611209451 62.03886925789993,70.35669449355919 64.80565371015109,65.74043992714724 66.07773851579987,61.85946114681428 66.93639575957786,55.44551932418835 65.66431095392909,48.99058128747856 63.02473498217296,43.025764101796085 61.02120141335763,41.228123926674016 57.17314487614203,40.45186677292804 53.70671378064435,41.59582395921461 49.47703180194367,46.33502713026246 46.4876325087389,52.054652049642755 45.247349823242985,59.65340797416866 46.32862190809101,68.06900229054736 49.254416960990056,73.50224183656974 51.226148409652524,75.01372648830875 53.9929328620201,75.78989122423809 57.65017667831853,74.80947226542048 62.03886925789993,70.35669449355919 64.3286219079746,66.88429745734902 65.79151943454053,63.125891504605534 67.0,55.44551932418835 65.40989399293903,47.84665324451635 62.99293286213651,43.025764101796085 61.78445229679346,41.75924604627653 59.303886925801635,40.73785649216734 56.25088339217473,40.492722464347025 53.96113074198365,41.432401780068176 52.1166077736998,43.025764101796085 49.44522968202364,46.33502713026246 47.06007067137398,50.583902120328275 45.501766784349456,56.1808829040674 45.247349823242985,59.326583855989156 46.0106007065624,67.25196499197045 49.47703180194367,73.74734799037105 51.28975265007466,75.01372648830875 53.9929328620201,75.83074194227811 56.02826855122112,75.62648829436512 58.63604240270797,74.03330490822555 61.91166077728849,70.56095184912556 64.51943462889176,66.39407335349824 66.5229681978235,60.184496381290955 66.93639575957786,55.3229585463414 66.26855123671703,53.48454066988779 66.45936395751778,51.56440290110186 64.86925795045681,46.45759170301608 62.86572438152507,42.82148736988893 60.92579505301546,41.228123926674016 58.76325088343583,40.492722464347025 55.45583038858604,40.61528950420325 53.738515900913626,41.55496842300636 48.99999999976717,47.23383279560949" stroke="#4DD2FF" stroke-linecap="round" stroke-linejoin="round" stroke-width="0.5"><title>2024-12-05 7.7km</title><desc>1733352101000</desc></polyline><polyline fill="none" points="133.0,70.35069528374879 136.2635135134915,68.42389535302937 137.21621621621307,68.26766745225177 137.96621621621307,69.23107073894062 141.77702702698298,69.59560040428187 143.94594594591763,70.272582163263 146.297297297162,69.59560040428187 146.60135135124438,67.35633540226263 149.9459459458012,65.84611812300864 152.21621621621307,65.35138909255329 152.5608108107699,65.82007978593174 152.47972972958814,68.55408516956959 153.10810810804833,70.09031808715372 154.20270270260517,71.78276331568486 155.31756756745744,72.45973707284429 160.20270270272158,71.18389985067188 164.37837837834377,72.27747515110241 166.9729729729006,70.8974862039031 169.46621621609665,70.32465758058242 173.58108108094893,70.81937331425434 174.6351351350313,69.25710859602259 175.28378378378693,68.91861616862298 176.35810810804833,69.77786496766203 178.77027027017903,70.14239355576865 180.3108108107699,69.90805383156112 181.66891891881824,69.07484351973108 183.33108108094893,67.35633540226263 185.15540540532675,64.72646632124088 186.1081081079319,62.30487064694171 186.97972972970456,57.07099107594695 185.7635135134915,51.73280218699074 183.65540540532675,48.373570221010596 181.36486486485228,47.59234474290861 179.78378378378693,47.7746309828799 178.56756756757386,48.29544782167068 176.19594594591763,50.82138869073242 173.9864864863921,54.805534603699925 173.09459459455684,59.6228513521346 173.62162162153982,64.62231232089107 174.5135135134915,66.86161040970183 175.9121621621307,68.91861616862298 177.77702702698298,69.96012935154431 179.54054054047447,70.06428034738929 181.26351351337507,69.30918429914163 182.9256756757386,67.74690683049266 185.7635135134915,63.398498424416175 186.51351351337507,60.74253403740295 186.93918918911368,57.175149327216786 185.78378378367051,51.993205218430376 184.44594594591763,49.25895510830742 183.61486486473586,48.34752942492196 181.36486486485228,47.5663038368657 180.10810810804833,47.67046743915125 178.9729729729006,48.061080425730324 177.45270270260517,49.311036440267344 174.27027027017903,54.128496251185425 173.09459459455684,59.80512573936721 173.6013513513608,64.54419678205159 174.53378378378693,66.93972497009963 175.93243243242614,68.97069196701341 177.10810810804833,69.72578939644154 179.1351351350313,70.1684312846046 180.49324324319605,69.80390274782258 182.1351351350313,68.58012312192295 185.6621621621307,63.684923678898485 186.85810810804833,58.633358688122826 186.49324324319605,53.97225627952139 184.34459459455684,49.10271102430124 183.53378378378693,48.32148862516624 181.40540540532675,47.5663038368657 180.00675675668754,47.72254921840795 178.3851351350313,48.47773336885439 176.15540540532675,50.84742913863738 174.3108108106535,54.07641627530393 173.19594594591763,58.16464978971635 173.0743243242614,60.84669022183516 173.54054054047447,64.57023529869912 175.68918918911368,68.762388685529 178.0608108107699,70.03824260388501 179.92567567550577,69.96012935154431 181.12162162153982,69.3872978263098 182.54054054047447,68.21559145608626 184.4256756756222,65.76800310082035 185.6621621621307,63.71096231639967 186.22972972958814,61.96636550100811 186.93918918911368,56.99287234900112 185.7229729729006,51.784882822597865 184.3851351350313,49.12875171410269 182.8243243242614,47.90483533000224 181.40540540532675,47.5663038368657 179.5608108107699,47.80067185968801 177.59459459455684,49.20687376163551 175.87162162153982,51.290116192467394 173.86486486473586,55.19613252619456 173.25675675668754,57.904255444256705 173.09459459455684,60.898768291954184 173.6013513513608,64.59627381159225 174.5743243242614,66.99180132547917 175.62837837834377,68.73635075880156 176.7229729729006,69.54352478178043 178.79054054047447,70.14239355576865 180.39189189183526,69.82994052421418 181.77027027017903,68.91861616862298 183.91891891881824,66.65330475399969 185.68243243242614,63.65888503768656 186.55405405408237,60.58629965085129 186.93918918911368,57.01891192837502 185.60135135124438,51.55051984693273 184.4256756756222,49.180833082747995 183.6351351350313,48.34752942492196 181.75,47.54026292714116 180.00675675668754,47.64442654409504 178.14189189183526,48.555855691287434 176.3986486485228,50.56098400996416 174.18918918911368,54.31077605135215 173.0743243242614,60.03947825913201 173.6013513513608,64.57023529869912 174.59459459455684,67.01783949763922 175.72972972970456,68.81446452786622 177.27027027017903,69.85597829698236 178.75,70.11635582332383 180.65540540544316,69.67371381055273 184.0,66.60122830336331 185.6621621621307,63.71096231639967 186.18918918911368,62.070520996523555 187.0,56.65435748452728 186.00675675668754,52.487969968336984 185.05405405396596,50.300578962720465 183.93918918911368,48.686059488594765 182.76351351337507,47.90483533000224 180.69594594591763,47.5663038368657 178.68918918911368,48.19128457120678 177.12837837822735,49.59748350419977 175.6486486486392,51.86300374849816" stroke="#4DD2FF" stroke-linecap="round" stroke-linejoin="round" stroke-width="0.5"><title>2024-12-03 16.2km</title><desc>1733178751000</desc></polyline><polyline fill="none" points="13.0,141.87453063204885 16.73271889402531,140.0479654787341 19.647794601740316,139.63698690244928 23.202764977002516,140.00230121822096 27.50427913106978,141.5548824723519 31.7346938776318,139.13467904680874 35.96510862419382,138.1300610031467 43.32389730098657,139.18034342949977 46.345622119959444,135.61850228757248 47.51876234379597,135.57283740362618 51.42922975658439,137.53642160640447 54.59315339056775,137.53642160640447 57.11718235677108,136.2578099865059 59.60566161945462,133.92889730556635 61.56089532584883,131.8739604720613 64.97366688610055,125.8917369421979 66.96445029624738,116.07334478400298 64.97366688610055,105.93497228092747 62.59183673467487,101.00267652029288 60.352205398259684,99.03887122817105 57.08163265301846,98.26247981088818 53.5977616852615,98.76485094008967 50.75378538528457,100.9113370027917 46.84331797226332,105.70662691007601 44.248189598554745,110.91286142720492 43.14614878222346,115.38832959337742 42.68400263343938,118.85905832759454 43.07504937448539,125.02407704357756 43.892692561028525,128.81436374227633 46.5944700462278,134.20288790026098 48.58525345637463,136.48613385960925 52.42462146142498,137.71907999797259 54.344305464066565,137.673415409663 57.366030283039436,136.07515077237622 61.52534562232904,131.91962587635498 64.29822251480073,127.49005173484329 66.3601053324528,121.2794129740214 67.0,114.74898077754187 65.43581303511746,107.03102782348287 63.196181698469445,101.96173990145326 61.16984858480282,99.54124115520972 55.97959183668718,98.12546936798026 52.49572086893022,99.31289128473145 46.84331797226332,105.61528871679911 43.892692561028525,112.05456835500081 42.648452929686755,120.64007576534641 43.78604344953783,128.63170033847564 46.025674785953015,133.42658061467228 48.2653061223682,136.34913955497905 50.86043449654244,137.39942774525844 54.2376563528087,137.62775081503787 58.82356813689694,134.84219838812714 64.61816984857433,126.66806225327309 66.43120473995805,120.1377385033993 67.0,114.65764512968599 65.11586570111103,106.11764846174628 62.59183673467487,101.04834626946831 60.10335747199133,98.85619106178638 55.908492429414764,98.12546936798026 53.277814351487905,98.76485094008967 51.2870309415739,100.22628980214358 46.878867676248774,105.61528871679911 44.21263989480212,110.91286142720492 42.50625411467627,120.3204066886683 43.892692561028525,128.63170033847564 46.31007241620682,133.70057163346792 48.478604345116764,136.34913955497905 51.10928242257796,137.39942774525844 54.27320605679415,137.4907569923962 56.832784726750106,136.53179861485842 59.321263989433646,134.38554816824035 64.12047399627045,127.58138377097202 66.46675444371067,120.50307477108436 66.92890059249476,114.84031639978639 65.96905859117396,108.99478474483476 64.36932192230597,104.2908820246812 60.84990125079639,99.26722129140398 55.83739302167669,98.17113952201908 51.89137590513565,99.67825100029586 47.056616195011884,105.38694312109146" stroke="#4DD2FF" stroke-linecap="round" stroke-linejoin="round" stroke-width="0.5"><title>2024-12-01 10.0km</title><desc>1733006314000</desc></polyline><polyline fill="none" points="156.4003467822913,146.6896740612283 160.74892113916576,146.5034783933079 163.69628820358776,144.82771384360967 172.92492933897302,133.03511659495416 176.35547133162618,120.00082647267845 175.67902643186972,109.3869056738331 171.47540455311537,98.21408149131457 168.62467247480527,95.17254144669278 164.95254301768728,93.49658184580039 160.5073336751666,93.31036371906521 156.06212433218025,95.42083121629548 149.3943103181664,103.30395872221561 145.867133339867,110.56624282168923 144.22433858271688,116.77322846266907 143.59621117566712,122.17323491067509 144.17602108977735,130.6765593084565 147.94478553254157,140.85550577531103 150.45729516120628,144.4553208569123 155.24072695383802,146.81380446293042 158.62295145355165,147.0 162.58498586784117,145.3863027341722 166.88524273200892,141.60029751298134 172.24848443898372,133.96612257807283 175.53407395328395,125.46286160338786 176.4521063172724,114.53872369538294 174.71267657447606,105.2902363401663 172.92492933897302,100.94524243130581 169.73597481055185,96.16569968618569 166.74029025365598,93.99316313213785 160.45901618199423,93.186218257586 158.13977652508765,93.99316313213785 153.74288467527367,97.77957705504377 149.3943103181664,103.30395872221561 146.64021322550252,108.45584780329955 144.5625610325951,114.91114194283728 143.69284616131335,122.9801267478615 144.17602108977735,130.36622188449837 147.84815054689534,140.85550577531103 150.26402518968098,144.2070586910413 153.4046622251626,146.19315210508648 157.75323658203706,146.93793482964975 161.86022347491235,145.94489091739524 168.4797199962195,139.6141834174923 173.21483429591171,132.1661759041599 175.19585150294006,126.64215576369315 176.54874130291864,114.91114194283728 174.71267657447606,105.10402319353307 172.92492933897302,100.75902745005442 169.97756227478385,96.16569968618569 166.8369252390694,93.93109050192288 161.37704854644835,93.186218257586 157.8015540749766,94.17938097048318 155.48231441807002,95.85533797668177 149.24935783958063,103.36603003315395 145.77049835422076,110.62831311044283 144.32097356836312,115.84218618553132 144.07938610413112,128.93866692154552 144.90078348270617,133.65578746871324 147.89646803983487,140.7313736967044 149.78085026098415,143.71053394008777 153.45297971810214,146.19315210508648 157.12510917522013,147.0 161.52200102480128,145.94489091739524 164.42105059628375,144.08292755574803 168.9628949246835,138.99352092837216 173.74632671731524,131.23516612139065 175.67902643186972,125.1525205107173 176.6453762887977,115.90425573172979 174.71267657447606,105.16609425109345 171.18549959594384,97.90372122335248 167.80327509599738,94.42767129928689 161.2804135605693,93.1241455138661 158.86453891801648,93.68279989375151 155.96548934676684,95.54497604869539 151.18205755390227,100.63488408530247 145.52891088998877,111.37315589509672 144.03106861142442,117.76633805845631 143.69284616131335,124.46976933817496 144.80414849705994,133.46958629836445 146.3986257610377,137.75219333020505 149.73253276827745,143.5864026650088 153.45297971810214,146.2552173801232 157.41501413215883,147.0 161.66695350361988,146.00695622735657 165.38740045321174,143.15194292724482 170.17083224607632,137.37979436959722 174.66435908176936,128.87659920967417 176.4521063172724,120.99392880062805 176.50042381021194,114.29044468916254 173.11819931026548,101.13145733391866 170.70232466747984,96.97263910880429 167.51337013905868,94.05523575373809 163.06816079630516,93.0 157.8015540749766,94.30352615256561 153.50129721080884,97.84164914363646 149.29767533252016,103.30395872221561 145.1906884398777,112.24213755383971 143.35462371143512,123.22840086236829 144.5625610325951,133.28338504917338 148.13805550406687,141.60029751298134 150.50561265391298,144.26912424553302 154.32269458961673,146.6276088472805 158.81622142507695,146.81380446293042 162.53666837490164,145.3242373369285 170.12251475336961,137.19359477120452 172.58670688886195,133.5316533637233 175.24416899611242,126.82835981665994 176.59705879585817,115.53183832313516 175.77566141728312,109.57311701221624 173.166516803205,101.37974374857731 170.46073720324785,96.7243502131023 166.6436552675441,93.86901786315138 161.57031851774082,93.06207276135683 156.73856923216954,94.73803401360055 149.20104034687392,103.42810133541934 150.69888262543827,106.15922998503083" stroke="#4DD2FF" stroke-linecap="round" stroke-linejoin="round" stroke-width="0.5"><title>2024-11-29 13.9km</title><desc>1732833187000</desc></polyline><polyline fill="none" points="13.0,190.21283831376059 16.261065266444348,188.39155680262775 17.35483870981261,188.26146457964205 18.306826706742868,189.25016317873087 24.282070517656393,190.1087655677984 26.30757689429447,189.40627300059714 26.59114778705407,187.3247978721338 29.244561140309088,185.99784524712595 32.039759940002114,185.13922376801202 32.50562640663702,185.45145022177894 32.444861215306446,188.72979615400254 32.93098274571821,190.08274737214379 34.34883720939979,191.7999404311122 35.86796699173283,192.47640604537446 38.09602400602307,191.43568869057344 40.18229557387531,191.09745428909082 42.32933233305812,191.4096706816781 44.17254313582089,192.21622725584893 46.258814703673124,191.14949039115163 49.054013503482565,190.34292916377308 50.89722430612892,190.23885649106523 53.61140285071451,190.7592192688462 54.887471867958084,189.14608989092812 55.859714928781614,188.88590641522023 58.55363840959035,190.08274737214379 60.66016504133586,189.6404374861595 63.759189797448926,186.83044408571732 65.2175543885678,184.5668072334811 66.5341335333651,180.9761540015752 66.97974493633956,177.02115089568542 66.16954238561448,172.77983644574124 64.69092273071874,169.42314437715686 62.82745686417911,167.8618714856566 60.70067516877316,167.523593954611 59.08027006755583,167.9399354434281 57.70292573142797,168.98078506327874 55.49512378091458,171.84309130170732 54.01650412613526,174.70535322497017 53.16579144785646,178.79050484887557 53.631657914374955,184.41069332561165 55.5356339084683,188.4956305151136 56.852213053382,189.56238269065216 58.63465866469778,190.0567291728803 59.890472618164495,189.9526563390682 61.30832708184607,189.2761814914993 63.759189797448926,186.77840676814958 65.2175543885678,184.5668072334811 66.55438859725837,180.92411503636686 66.91897974489257,176.52676955860807 65.48087021755055,170.95838319633913 64.52888222062029,169.21497542015277 62.94898724684026,167.8618714856566 61.450112528167665,167.523593954611 59.768942235503346,167.70574347127695 58.47261815459933,168.40831849750248 56.588897224282846,170.17775488147163 53.996249062241986,174.7834142930369 53.084771192865446,180.1695483939111 53.7126781695988,184.54078825793113 55.61665416357573,188.52164893412555 56.73068267072085,189.5103461418621 57.905476369080134,189.97867455300002 60.579144786228426,189.71849224883772 63.921230307547376,186.6222947275528 65.98724681173917,182.84954699658556 67.0,177.15125102786988 66.33158289571293,173.2221866693435 64.4681170291733,169.136912000773 62.88822205550969,167.8618714856566 61.30832708184607,167.523593954611 59.56639159785118,167.7838074949832 57.96624156029429,168.72057320769818 56.588897224282846,169.99560780037427 54.68492123030592,173.35228947493306 53.591147786937654,176.29258846388257 53.12528132041916,179.15478150197305 53.692423105821945,184.48875029594637 55.29257314337883,188.13137226513936 56.771192798158154,189.5103461418621 58.53338334581349,190.08274737214379 59.890472618164495,190.0046927633084 61.38934733683709,189.25016317873087 63.96174043510109,186.6483134101727 65.2175543885678,184.54078825793113 66.71642910735682,180.37770501663908 66.95948987244628,177.09921098600898 66.69617404346354,175.04361761514156 65.1770442611305,170.09969186870148 63.67816954245791,168.35627599457803 62.28057014255319,167.60165805518045 60.66016504133586,167.523593954611 58.93848462123424,168.0440206690837 56.48762190551497,170.38592275441624 55.859714928781614,171.50482105545234" stroke="#4DD2FF" stroke-linecap="round" stroke-linejoin="round" stroke-width="0.5"><title>2024-11-27 11.3km</title><desc>1732665796000</desc></polyline><polyline fill="none" points="133.0,190.90890898523503 134.04270330478903,190.67709307928453 136.7898254734464,189.02861594810383 137.81247679167427,188.95134321834485 138.81507612322457,189.9043712724815 144.83067211287562,190.67709307928453 146.7356108429376,190.13618815706286 146.95618269580882,188.204371815169 147.49758633493911,187.68921734736068 150.3449684366351,186.34980894561158 152.53063497960102,185.91192330382182 152.9517266987823,186.45284070911293 153.17229855176993,190.6513357383228 153.67359821754508,191.26951092203672 167.26884515408892,191.55284051697527 170.07612328254618,190.90890898523503 173.72558484959882,191.37253991643956 175.08911994064692,189.72406904819945 176.0516152989585,189.38922158912465 178.33754177496303,190.57406369353703 180.7838841441553,190.36800474803022 182.76903082069475,188.74528244606336 185.5161529892357,184.907358167271 186.6992202005349,181.1723881495127 186.9398440400837,178.9313695547753 186.21797252132092,173.65069999241678 185.1151132566156,170.94590779600549 184.15261789830402,169.5548562437907 183.06981062015984,168.807805676086 180.64352023764513,168.4471594830393 178.85889342729934,169.11693041882245 177.73598217603285,170.07006175520655 175.85109543264844,172.49150823151285 174.36724842188414,175.29931562850834 173.38470107677858,179.67837880179286 173.98626067582518,185.5770688709017 175.8711474192096,189.28619147842983 177.75603416271042,190.49679161621316 179.82138878584374,190.67709307928453 181.20497586333659,190.16194557062408 182.90939472720493,188.61649434563878 185.9974006684497,183.72247938110377 186.97994801332243,178.57074330984324 186.15781656152103,173.4446219937672 184.97474935022183,170.79134703456657 183.93204604531638,169.40029430761933 182.2075751950033,168.57596177649975 180.3226884516189,168.47291994901025 178.79873746749945,169.16845115848992 177.01411065727007,170.8171071705292 174.40735239512287,175.11899901661673 173.38470107677858,180.4253850000241 173.54511696984991,183.7997543183592 174.18678054213524,186.01495531383262 175.9914593390422,189.44073662270966 178.0568139621755,190.5998210454418 179.92164871888235,190.6255783936649 180.88414407719392,190.36800474803022 182.78908280737232,188.69376721674053 185.8169327887008,184.08309547581302 186.61901225405745,181.40421609322948 187.0,177.8494886883127 185.95729669509456,172.9551858169143 184.97474935022183,170.7655868949223 183.6312662458513,169.16845115848992 182.06721128849313,168.49868041134323 180.3627924247412,168.4471594830393 178.85889342729934,169.06540966463217 177.11437059030868,170.66254630034382 175.71073152613826,172.59454779648513 174.24693650205154,175.5311510113388 173.50501299661119,178.3131526998477 173.3245451169787,181.0693534135644 174.16672855545767,186.09222928318195 175.8109914594097,189.23467640134913 176.61307092464995,189.93012871862447 178.37764574831817,190.6513357383228 180.58336427772883,190.47103424975649 183.77163015224505,187.50891294107714 186.09766060160473,183.3103458314872 187.0,178.18435725892778 185.95729669509456,172.90366614326194 183.87189008540008,169.29725294426316 182.30783512815833,168.57596177649975 180.68362421088386,168.4471594830393" stroke="#4DD2FF" stroke-linecap="round" stroke-linejoin="round" stroke-width="0.5"><title>2024-11-24 10.4km</title><desc>1732400098000</desc></polyline><polyline fill="none" points="13.0,250.37939249613555 16.235955056152306,248.4309440876823 17.247191011323594,248.3530057236203 18.42022471909877,249.26228459041158 24.366292134858668,250.14557977285585 26.368539325892925,249.57403631386114 26.651685393298976,247.3917631949298 28.43146067415364,246.5863939798728 32.57752808998339,246.71629247791134 33.06292134837713,250.11960056315002 34.23595505626872,251.7043256683828 35.34831460681744,252.40575702798378 36.29887640452944,252.45771480037365 38.88764044945128,251.31464042831794 40.80898876406718,251.13278703477408 44.51011235965416,252.2239047090843 46.73483146063518,250.95093346212525 49.101123595493846,250.30145495463512 53.67191011237446,250.74310058829724 55.26966292131692,248.87259419588372 56.30112359544728,249.72991197819647 58.52584269666113,250.0416629119718 59.901123595424,249.96372522784804 61.29662921349518,249.36620189010864 63.82471910107415,246.79423153297103 65.15955056180246,244.68986549864348 66.65617977525108,240.42910032428335 66.95955056173261,237.05159464344615 66.47415730333887,233.67402716672223 64.39101123600267,229.04925761160848 62.85393258440308,227.90603828748863 60.64943820226472,227.54228519962635 59.314606741652824,227.93202062351338 58.06067415734287,228.84140007928363 54.784269663039595,233.3102854448225 53.368539325892925,237.67513880477054 53.16629213478882,239.80556546493608 53.51011235953774,243.65066354775627 54.521348314592615,246.50845483705052 55.755056179710664,248.66475898242788 56.68539325846359,249.54805702371232 58.68764044949785,250.06764213264978 60.487640449311584,249.8078497609822 61.96404494380113,248.82063541446405 63.84494382014964,246.76825185165217 65.24044943822082,244.61192555526213 66.21123595512472,242.27371195233718 66.91910112358164,238.40260433105868 66.45393258426338,233.59608257231594 65.54382022470236,231.1278200615343 63.92584269668441,228.52961334203428 62.752808988676406,227.880055947855 60.62921348318923,227.56826758680108 59.23370786511805,227.880055947855 58.08089887641836,228.73747122536588 56.09887640445959,231.0498743920616 54.66292134835385,233.4142117241572 53.95505617978051,235.15496820650878 53.18651685398072,239.15604774691747 53.57078651688062,243.67664366784447 54.5415730336681,246.5863939798728 55.79550561797805,248.71671780772158 56.948314606794156,249.60001560034289 58.93033707863651,250.09362134973344 60.770786516950466,249.6519741624361 61.8629213484237,248.87259419588372 63.92584269668441,246.6903127856349 65.26067415729631,244.53398557890614 66.77752808993682,239.8835074375529 66.95955056173261,236.99963253492024 66.45393258426338,233.62206410746148 65.52359550562687,231.07585628550441 64.16853932582308,228.73747122536588 62.793258426943794,227.85407360462705 61.09438202250749,227.56826758680108 59.25393258430995,228.0619322486018 57.575280898832716,229.25711490980757 55.71460674155969,231.5695115669805 54.096629213541746,234.84319213285926 53.28764044935815,238.2207382182387 53.206741573056206,241.02665258826164 53.63146067422349,244.17026525443362 54.56179775274359,246.6903127856349 55.77528089878615,248.71671780772158 57.67640449432656,249.911766753532 59.77977528097108,249.96372522784804 61.53932584263384,249.13238788361195 63.98651685391087,246.61237368677394 65.44269662932493,244.1962453013839 66.21123595512472,242.32567257643677 66.83820224716328,239.28595147334272 67.0,237.07757569217938 66.47415730333887,233.57010103359062 65.01797752815764,229.95863156336418 64.16853932582308,228.7894356596371 62.32808988774195,227.72416183311725 60.02247191010974,227.67219709903293" stroke="#4DD2FF" stroke-linecap="round" stroke-linejoin="round" stroke-width="0.5"><title>2024-11-21 10.8km</title><desc>1732142576000</desc></polyline><polyline fill="none" points="133.0,249.92488610136206 135.93544733861927,248.0395464571193 136.89354473387357,247.93480480567086 138.07587768964004,248.92984811379574 141.5617214043159,249.13933023753634 143.76330690830946,249.7154048618977 145.82219705544412,249.29644167562947 146.2706681767013,246.9135706146626 151.9580973952543,244.81871370851877 152.30464326171204,245.26387277428876 152.65118912793696,249.32262690237258 155.11778029438574,252.62193599613965 156.01472253690008,252.98852228464966 156.13703284261283,252.04587036944577 159.52095130237285,250.81517873806297 161.43714609299786,250.867548760536 164.41336353332736,251.78402176778764 166.9207248018356,250.39621802784677 168.57191392988898,249.95107123967318 170.61041902611032,249.84633066422248 173.54586636461318,250.3700329521089 175.13590033969376,248.58943915979762 178.23442808608525,249.63684933636978 180.55832389579155,249.3488121255068 183.75877689698245,246.46841549534292 185.2468856171472,244.05932225596916 186.5107587769162,240.6813020332629 187.0,236.51761133401305 186.49037372600287,233.08707917880383 184.32955832383595,228.39945587920374 182.7599093997851,227.2733611802978 180.78255945642013,227.03766607839498 178.17327293322887,228.11138579102408 175.56398641003761,231.09681779124367 173.50509626278654,235.8629345084919 173.03624009061605,239.97426678374177 173.28086070227437,243.03806679560512 175.19705549266655,247.69913587442716 177.33748584380373,249.4011825606285 180.1913929785369,249.58447896753205 181.92412231035996,248.45851247324026 184.28878822200932,245.65665930096293 185.75651189126074,243.0118806844257 186.73499433754478,239.7385877701745 187.0,236.56998538048356 186.55152887885924,233.4537039544084 184.41109852772206,228.50420852797106 182.0464326160727,227.09004279352666 180.1098527746508,227.1424194939027 178.25481313699856,228.08519757911563 176.46092865231913,229.97073941791314 174.60588901478332,232.79901634827547 173.68856172147207,235.23444258882955 173.0770101925591,238.40306772163603 173.38278595695738,243.29992770437093 174.62627406569663,246.62552918848814 175.97168742923532,248.61562448607583 177.92865232157055,249.61066415377718 180.15062287659384,249.58447896753205 182.00566251412965,248.35377105760563 183.90147225372493,246.25893036487105 185.7157417894341,243.11662510692258 186.55152887885924,240.4979968561529 187.0,236.59617239826184 186.71460928651504,234.47501202020794 185.91959229903296,231.33250775106717 184.41109852772206,228.5303966809879 182.20951302384492,227.1162311455264 181.04756511899177,227.01147771535034 179.29445073613897,227.32573782910185 178.31596828997135,227.98044469444721 176.46092865231913,229.91836351373058 174.40203850506805,233.40132903077756 173.46432616084348,236.15099259545968 173.0770101925591,238.82205543543387 173.34201585513074,242.9856945696083 175.17667044163682,247.67295041921898 176.37938844843302,248.92984811379574 177.92865232157055,249.61066415377718 179.84484711207915,249.63684933636978 181.02718006796204,249.19170073172427 184.30917327292264,245.70903077519324 186.3476783692604,241.44070727171493 187.0,236.4914243051462 185.77689694229048,231.01825440497487 184.37032842589542,228.50420852797106 183.26953567378223,227.61380913366156 182.06681766710244,227.1162311455264 179.76330690830946,227.16860783858283 178.47904869762715,227.79712700436357 177.13363533408847,229.15891124645714 175.6455266138073,230.99206660220807 173.97395243495703,234.37026273299125 173.03624009061605,239.5552816643758 173.74971687432844,244.45211132527038 175.68629671575036,248.37995641707676 177.7859569649445,249.66303451520798 179.82446206116583,249.7154048618977 180.94563986419234,249.2702564451174 184.16647791618016,245.94470222685777 185.77689694229048,243.11662510692258 186.57191392977256,240.6551155904017 186.97961494908668,236.38667615309532 186.46998867497314,233.21801668162516 185.3080407702364,230.10167911380995 184.28878822200932,228.39945587920374 182.86183465470094,227.43049108234118 181.35334088339005,227.03766607839498 179.57984144962393,227.2733611802978 178.23442808608525,228.08519757911563 176.4201585504925,229.94455146769178 173.89241223107092,234.44882470394077 173.28086070227437,236.8056684074254 173.0158550395863,240.5241833210457 174.23895809741225,245.8137736794015 175.13590033969376,247.6205794977286 176.4201585504925,248.9560333921836 177.60249150625896,249.5582937776344 179.86523216310889,249.61066415377718 180.98640996601898,249.19170073172427 182.57644394109957,247.8300630952872 184.08493771241046,246.02325931112864 185.960362400976,242.69764706323622 186.97961494908668,237.5650894635619 186.28652321640402,232.51095307186188 184.30917327292264,228.42564404690347 181.98527746321633,227.09004279352666 180.1913929785369,227.1162311455264 178.8459796149982,227.63999741195585 176.54246885620523,229.81361166115676 175.46206115512177,231.48963422510133" stroke="#4DD2FF" stroke-linecap="round" stroke-linejoin="round" stroke-width="0.5"><title>2024-11-17 16.3km</title><desc>1731797391000</desc></polyline></svg>