<?xml version="1.0" encoding="utf-8" ?>
<svg baseProfile="full" height="300mm" version="1.1" viewBox="0,0,200,300" width="200mm" xmlns="http://www.w3.org/2000/svg" xmlns:ev="http://www.w3.org/2001/xml-events" xmlns:xlink="http://www.w3.org/1999/xlink"><defs /><rect fill="#222222" height="300" width="200" x="0" y="0" /><text fill="#FFFFFF" style="font-size:12px; font-family:Arial; font-weight:bold;" x="10" y="20">Over 5km Runs</text><text fill="#FFFFFF" style="font-size:4px; font-family:Arial" x="10" y="280">ATHLETE</text><text fill="#FFFFFF" style="font-size:9px; font-family:Arial" x="10" y="290">sagasw</text><text fill="#FFFFFF" style="font-size:4px; font-family:Arial" x="65" y="280">SPECIAL TRACKS</text><rect fill="yellow" height="2.6" width="2.6" x="65" y="283" /><text fill="#FFFFFF" style="font-size:3px; font-family:Arial" x="70" y="285.5">Over 20.0 km</text><rect fill="red" height="2.6" width="2.6" x="65" y="287" /><text fill="#FFFFFF" style="font-size:3px; font-family:Arial" x="70" y="289.5">Over 40.0 km</text><text fill="#FFFFFF" style="font-size:4px; font-family:Arial" x="120" y="280">STATISTICS</text><text fill="#FFFFFF" style="font-size:3px; font-family:Arial" x="120" y="285">Number: 22</text><text fill="#FFFFFF" style="font-size:3px; font-family:Arial" x="120" y="290">Weekly: 2.2</text><text fill="#FFFFFF" style="font-size:3px; font-family:Arial" x="141" y="285">Total: 277.4 km</text><text fill="#FFFFFF" style="font-size:3px; font-family:Arial" x="141" y="290">Avg: 12.6 km</text><text fill="#FFFFFF" style="font-size:3px; font-family:Arial" x="167" y="285">Min: 7.7 km</text><text fill="#FFFFFF" style="font-size:3px; font-family:Arial" x="167" y="290">Max: 19.1 km</text><polyline fill="none" points="12.282722513074987,43.803224561903335 12.0,44.3631652768745 12.082460732955951,44.998770122278074 12.907068062806502,46.920695249020355 14.332460732955951,52.17176433874556 15.793193717254326,56.34822410182096 18.714659685851075,54.774504685468855 19.25654450262664,54.80476873759471 19.75130890047876,55.394916051511245 22.378272251284216,55.546235353918746 23.191099476418458,55.909400810924126 24.33376963349292,55.576499188864545 24.404450261732563,54.44159955003124 24.7578534031054,54.07842913591594 26.07722513086628,53.47314238676336 27.83246073295595,53.034307363137486 28.221204188477714,55.84887331996288 29.128272251284216,57.01402153743402 29.564136125613004,57.21073362726747 30.070680628239643,57.240996993779845 31.060209424060304,56.71138685043843 32.39136125653749,56.45414669688762 33.35732984292554,56.51467384718126 34.93586387432879,57.1048117774626 36.66753926698584,56.181774098855385 37.86910994758364,55.954796406840615 40.16623036644887,56.33309229402221 41.308900523523334,55.07714482337906 42.81675392668694,55.8337414418711 43.84162303659832,55.89426894139615 44.60732984292554,55.60676301524654 46.0562827225076,54.13895762345055 47.246073298330884,52.20202912334935 47.74083769635763,50.68877945620625 48.0,48.28266863476165 47.52879581146408,45.78570424886129 46.72774869110435,43.954560177822714 45.7617801046581,43.016275925205264 44.17146596853854,42.75900300621288 43.052356020896696,43.19787996800733 42.16884816752281,44.090762050036574 40.42539267014945,47.10229269721458 40.09554973815102,48.222136850592506 39.95418848161353,50.47692280334013 40.142670157016255,52.0053078709243 40.76701570674777,53.92710776801687 41.37958115176298,54.98635287146317 42.16884816752281,55.621894925279776 43.5,55.89426894139615 44.37172774865758,55.66729064257379 45.36125654447824,54.88042883062735 46.45680628268747,53.51853901112918 47.363874345552176,51.85398358565726 47.91753926698584,49.73542123136576 48.0,48.20700389927515 47.35209424077766,45.22577094218286 46.48036649212008,43.60648794271401 45.44371727743419,42.95574117611977 44.7015706805978,47.72274833114352 44.44240837695543,47.99514235655079 43.67670157062821,47.9497434002551 43.11125654447824,48.20700389927515 42.698952879582066,48.88798460196995 42.734293193672784,49.96241205158003 43.31151832459727,50.46179016935639 43.064136125613004,52.09610233981948" stroke="#4DD2FF" stroke-linecap="round" stroke-linejoin="round" stroke-width="0.5"><title>2025-01-29 7.9km</title><desc>1738124973000</desc></polyline><polyline fill="none" points="58.66666666668607,58.217748547845986 59.24973006325308,58.32474305476353 61.09887397813145,57.85396666114684 61.448712016048376,56.03504417433578 66.01326546346536,54.280298333396786 66.37976245564641,54.87948211666662 66.54635199753102,57.72557284636423 68.54542650008807,60.25063130729541 72.56023445934989,59.223493941070046 73.99290451954585,59.33048774044437 76.12525065557566,60.05804357957095 78.54079901281511,58.92391090250749 80.58985037793173,58.431737486462225 83.6717569026514,58.8597144602827 84.67129415395902,57.74697182305681 85.42094709235243,57.36178978237149 86.32053061859915,57.982360367605 87.96976708312286,58.346141947142314 90.18540799006587,57.639976909573306 92.11784667591564,55.47866353896097 93.53385778190568,53.10332331417885 94.41678235383006,50.25714607196278 94.63334875833243,47.64632010075729 93.98364954488352,44.15801544254646 92.75088693498401,41.2688681739528 91.61807805026183,40.2202011415211 90.05213635659311,39.74936869269004 88.85269165510545,39.87777768695378 87.68656486197142,40.477018226345535 85.55421872594161,42.93815995861951 84.5713404287817,44.47902841705945 83.68841585685732,46.768901308605564 83.30525991058676,49.829144886360154 83.838346444536,53.93790654008626 85.28767545882147,56.9766067659948 86.25389480177546,57.896764575416455 87.20345519046532,58.2391474552569 88.26962825848022,58.36754083647975 89.55236773105571,58.003759308106964 91.00169674528297,56.91240950176143 92.33441308035981,55.200472457901924 94.2002159494441,51.4127432556852 94.66666666668607,47.475116831526975 94.36680549121229,45.377861140077584 93.51719882769976,42.76695138824289 92.60095634736354,41.01205242660944 91.76800863794051,40.305806884673075 90.08545426500496,39.770770199247636 88.91932747187093,39.85637619539921 87.78651858709054,40.519821031659376 86.22057689342182,41.99651043584163 84.2381613450707,45.24945679069788 83.60512108594412,47.239712021677406 83.33857781888219,49.85054497430974 83.87166435294785,54.066303552957834 84.63797624554718,56.056443388864864 85.58753663423704,57.29759268069756 86.18725898506818,57.85396666114684 88.03640289988834,58.38893972277583 89.50239086843794,58.02515824565489 91.00169674528297,56.869611310525215 93.43390405678656,53.40291781970882 94.15023908688454,51.605341932488955 94.60003084992059,48.82333735827706 94.35014653712278,45.2922582525498 92.78420484339586,41.29026946662634 91.61807805026183,40.24160258179472 90.1187721734168,39.770770199247636 88.8193737466936,39.87777768695378 87.68656486197142,40.541222429819754 86.18725898506818,42.01791162614245 85.27101650473196,43.43038352466829" stroke="#4DD2FF" stroke-linecap="round" stroke-linejoin="round" stroke-width="0.5"><title>2025-01-01 8.4km</title><desc>1735690205000</desc></polyline><polyline fill="none" points="105.33333333331393,55.99286864566966 106.0814995924593,56.671255264329375 110.42379788093967,57.349638446525205 110.87856560718501,57.010447284978 111.81744091276778,56.89738337357994 112.0814995925175,55.29563437307661 114.81010594940744,54.05191017081961 116.14506927452749,53.769243968403316 116.3357783210813,53.901154937106185 116.59983700077282,57.21773087470501 118.19885900564259,59.026737675245386 122.23308883450227,58.103393507393776 125.04971475136699,58.894831755256746 126.38467807660345,58.06570585510053 128.49714751419378,57.48154588844045 131.51915240415838,57.801891992116 132.73675631615333,56.463970828815945 133.32355338218622,56.501658931869315 134.59983700071461,57.236574821479735 136.71230643842136,57.16119901840284 139.2208638956654,54.67377371585462 140.07171964133158,53.29813230513537 140.98125509370584,50.79179039254086 141.2599837000016,47.5504365505185 140.90790546033531,45.38320852648758 140.11572942126077,43.17825358133996 139.45558272197377,42.14172375270573 138.56071719632018,41.36903266006266 137.25509372440865,40.99210855770798 135.74409127951367,41.19941694533918 134.6145069274353,42.104031607785146 133.00081499584485,44.10170066979481 131.65118174406234,47.15468448570755 131.2404237978626,50.77294553886168 132.14995925017865,54.65492940842523 133.14751426235307,56.33206238459388 134.1010594945983,56.99160330637824 135.55338223307626,57.368482374746236 136.74164629168808,57.12351110095915 139.27954360214062,54.617240785606555 140.9519152403809,50.999083608418005 141.28932355326833,47.663508354176884 140.29176854109392,43.555171529529616 138.83944580273237,41.51980200393882 137.3577832109877,40.99210855770798 136.0374898124719,41.12403211419587 134.54115729418118,42.17941588713438 132.97147514251992,44.13939225241484 131.53382233082084,47.49390061282611 131.2404237978626,50.60334173605952 131.37245313765015,51.828253262952785 132.516707416391,55.408699636827805 133.19152404234046,56.36975052478374 134.13039934792323,57.04813523424673 135.40668296650983,57.349638446525205 136.68296658509644,57.16119901840284 139.26487367553636,54.617240785606555 140.4531377342646,52.450127134507056 140.9959250202519,50.8294800920994 141.27465362672228,47.531591240578564 140.11572942126077,43.15940765608684 139.23553382226964,41.82134018231591 138.31132844334934,41.21826314649661 136.8883455582545,40.99210855770798 135.729421352793,41.23710934491828 134.70252648735186,42.028647286002524 133.27954360225704,43.70593841174559 131.95925020374125,46.13703094818629 131.32844335772097,48.831911401081015 131.2844335777918,50.67872123049165 131.48981255089166,52.41243789116561 132.12061939685373,54.44764185175882 132.8687856560573,55.91749214255833 133.9103504482191,56.916227365421946 135.9641401792178,57.349638446525205 136.87367563159205,57.04813523424673 138.61939690291183,55.408699636827805 140.51181744085625,52.35590400626825 141.02526487363502,50.77294553886168 141.33333333331393,48.153485066693975 140.8785656070686,45.251289166364586 139.52893235522788,42.198261950296 138.78076609608252,41.48210968388594 137.48981255083345,40.99210855770798 136.5509372453089,40.973262324754614 135.17196414008504,41.5763404640893 133.00081499584485,44.21477538582985" stroke="#4DD2FF" stroke-linecap="round" stroke-linejoin="round" stroke-width="0.5"><title>2024-12-31 11.1km</title><desc>1735607974000</desc></polyline><polyline fill="none" points="152.0,55.526695733409724 152.70358306186972,56.26101615389052 157.08631921821507,56.825875273571 158.47882736154133,56.46813144130283 158.62540716608055,55.03714654754731 158.9918566775159,54.698226831184 161.1612377849524,53.64380444579001 162.920195439714,53.34253938093025 163.03745928336866,55.77146965470456 163.3306188925053,56.75056086204131 164.9283387621399,58.53926668355416 165.5732899022405,58.63340843281185 166.71661237784429,57.99324323136534 168.6954397393274,57.635502520162845 171.53908794786548,58.46395323636534 173.89902280131355,57.25893231717055 175.96579804550856,57.014161116909236 177.4755700325477,57.31541791516065 178.85342019540258,57.9367579195241 179.42508143314626,59.29239882349793 182.00488599349046,59.46185297080956 182.26872964162612,58.689893450646196 181.7263843647088,57.9367579195241 181.91693811072037,57.24010377917148 183.7345276872511,56.37398816860514 184.67263843643013,55.62083960225573 185.81596091203392,54.340477310324786 187.32573289895663,51.44078800287389 187.95602605858585,47.43007519481762 187.0325732898782,43.41924215373001 186.16775244293967,41.705657105718274 185.00977198698092,40.83944092754973 183.3387622149894,40.55697791776038 182.18078175897244,40.9335951317189 180.21661237778608,42.91081811078766 179.2345276872511,44.454914783054846 178.2817589576589,46.99698633792286 178.01791530940682,48.48454654956004 178.22312703577336,50.80058838837431 178.04723127029138,51.45961735690071 178.38436482084217,52.96595709591929 179.3957654722617,55.26309254822263 180.50977198698092,56.48696008787374 181.5651465798146,56.84470386985049 182.86970684037078,56.84470386985049 184.24755700322567,56.03507183835609 185.81596091203392,54.340477310324786 187.31107491854345,51.47844670833729 187.85342019540258,49.3695428793726 188.0,47.44890511329868 186.92996742669493,43.08029300645285 186.05048859934323,41.611503444990376 184.99511400645133,40.82061007877928 183.51465798041318,40.57580880360911 182.23941368074156,40.95242596451135 181.11074918560917,41.89396422842401 179.65960912051378,43.72052956371044 178.23778501624474,47.18528601316211 177.9446254071663,49.74613528676855 178.1938110748888,50.91356501352857 178.06188925076276,51.45961735690071 178.44299674261129,53.07893189266906 179.57166123774368,55.54552451246127 181.02280130283907,56.712903640422155 182.31270358298207,58.652236774752964 181.78501628659433,57.97441479675763 182.00488599349046,57.24010377917148 182.7817589576007,57.145961049594916 182.88436482084217,56.825875273571 184.35016286640894,55.94092826095584 186.72475570027018,52.909469661768526 187.60423452762188,50.59346432783059 187.94136807817267,48.54103585192934 187.61889250809327,45.17046573481639 186.37296416930621,41.96928700323042 185.46416938106995,41.06541090607061 184.15960912045557,40.55697791776038 182.98697068396723,40.66996319324244 182.0635179153178,41.08424172035302 179.67426710092695,43.68286867457209 178.22312703577336,47.10996617485944 178.06188925076276,51.38429992481542 179.11726384365465,54.73588461983309 179.63029315962922,55.62083960225573 180.81758957647253,56.61876053987362 182.89902280125534,56.84470386985049 184.24755700322567,56.03507183835609 185.77198697067797,54.41579307845677 187.1205211726483,52.0056674718071 187.79478827357525,49.840283222991275 188.0,47.50539485293848 187.2817589576007,43.89000343368389 186.3143322474789,41.87513352803944 185.68403908790788,41.19722655059013 184.6286644950742,40.68879406322958 183.45602605858585,40.57580880360911 182.1954397393274,40.990087622296414 181.46254071657313,41.59267270487908 179.99674267100636,43.26859819430683 178.89739413675852,45.22695643638144 178.0325732898782,48.635184636179474 178.06188925076276,51.421958646184066 178.69218241039198,53.775607698378735 179.806188925053,55.84678461725707 181.71172638435382,57.61667403516185 182.32736156345345,58.57692339118512 182.25407166115474,59.36771180435608 182.31270358298207,58.63340843281185 181.79967426712392,58.03090009272273 181.90228013024898,57.25893231717055 182.8550488598994,57.0894753800676 185.31758957653074,54.924173404157045 187.14983713353286,52.024496746395016 187.7654723126907,49.85911280226719 187.95602605858585,47.015816317347344 186.98859934852226,43.15561511339911 186.1530944625265,41.705657105718274 185.05374592833687,40.82061007877928 183.44136807817267,40.55697791776038 182.31270358298207,40.87710261717439 180.21661237778608,42.967309766521794 178.50162866449682,46.224954898585565 178.01791530940682,48.277418903657235 178.00325732893543,50.14155617369397 178.32573289901484,52.57054455597245 179.01465798041318,54.491108804097166 179.61563517909963,55.60201083376887 180.67100977199152,56.54344601181219 182.09283387620235,56.90118964269641 182.97231270355405,56.825875273571 184.130293159571,56.11038665258093 185.94788273610175,54.227503578717005 187.14983713353286,52.0056674718071 187.86807817587396,49.16241660347441 188.0,47.37358542345464 187.64820846903604,45.13280525372829 187.00325732893543,43.15561511339911 186.43159609119175,41.988117690358195 185.31758957653074,40.95242596451135 184.02768729632953,40.57580880360911 182.59120521170553,40.782948373336694 181.59446254069917,41.442026688717306 180.289902280143,42.87315699370811 178.85342019540258,45.151635495596565 178.45765472308267,46.356765459728194 177.97394136805087,50.02857889670122 178.25244299671613,52.32576477895782 179.01465798041318,54.50993772894435 179.61563517909963,55.60201083376887 180.71498371328926,56.52461737318663 182.1221498370869,56.86353246343788 183.20684039086336,56.712903640422155 184.130293159571,56.11038665258093 185.9185667752172,54.26516149987583 187.17915309441742,51.89269176883681 187.80944625404663,49.63315767583845 187.9853420194704,47.44890511329868 187.07654723117594,43.400411668088054 186.09446254069917,41.611503444990376 185.06840390880825,40.82061007877928 183.91042345273308,40.53814702920499 182.42996742669493,40.82061007877928 180.70032573287608,42.345900241372874 179.70358306186972,43.645207774825394" stroke="#4DD2FF" stroke-linecap="round" stroke-linejoin="round" stroke-width="0.5"><title>2024-12-30 19.1km</title><desc>1735521239000</desc></polyline><polyline fill="none" points="12.0,96.0747868851031 12.435835351061542,95.86950920929667 13.089588377682958,96.65329498924257 17.273607748094946,97.2318005697598 18.72639225178864,96.82124848221429 19.016949152515735,95.27233598203748 23.099273607716896,93.7420673128363 23.549636803858448,96.87723293264571 24.98789346247213,98.91131860238966 25.84503631957341,98.87399621051736 28.460048426059075,97.97825565458334 30.014527845021803,98.14620746967557 31.72881355928257,98.78069018491078 33.63196125905961,97.75431957030378 35.15738498792052,97.38109192285629 36.15980629529804,97.30644626732101 38.309927360736765,97.69833549010218 39.53026634379057,96.41069512376271 41.418886198545806,97.13849338878936 43.29297820816282,96.98920176255342 44.04842615011148,96.57864892398356 45.675544794183224,94.8991013494524 46.95399515738245,92.80896799456968 47.75302663433831,90.23357980801666 48.0,87.8447692416812 47.30266343825497,84.5600844459259 46.300242130761035,82.46978812009911 45.254237288143486,81.44329125309014 43.757869249384385,81.0886813976249 42.85714285715949,81.18199987258413 41.767554479360115,81.79790016011975 39.21065375301987,85.11997965231421 38.32445520575857,87.54616489514592 38.077481840213295,89.48708112869645 38.4116222760058,92.95826432673493 39.050847457605414,94.84311606393021 40.198547215492,96.4293566676788 41.3753026634804,97.15715483023087 42.95883777231211,97.17581626903848 43.90314769971883,96.69061800603231 45.70460048422683,94.91776310601563 47.346246973320376,91.85719992604572 47.9854721549782,87.9007574818097 47.14285714284051,84.05617673890083 45.69007263920503,81.72324573212245 44.48426150117302,81.18199987258413 43.27845036319923,81.0886813976249 41.898305084730964,81.70458211858931 40.98305084742606,82.63775957812322 39.76271186437225,84.16815639483684 38.7021791767329,86.27708892060036 38.062953995133284,89.63638120074756 38.571428571420256,93.51812407524267 39.41404358349973,95.42162954094238 40.343825665826444,96.5973104442528 41.25907990313135,97.13849338878936 42.55205811135238,97.26912342378637 44.23728813556954,96.39203357730003 45.661016949103214,94.91776310601563 46.7941888620262,93.14488450551289 47.86924939468736,89.56173118570587 47.9854721549782,87.956745698335 47.63680387410568,85.77318773845036 46.50363196129911,82.74974043195834 45.69007263920503,81.68591850242228 44.35351089586038,81.16333618281351 43.249394673039205,81.10734509784379 42.159806295414455,81.53660947842582 39.71912832930684,84.24280944626662 38.35351089586038,87.54616489514592 38.077481840213295,89.86033099361521 38.16464891040232,91.89452429271478 38.60048426152207,93.70474346620904 39.41404358349973,95.4589529044024 39.922518159786705,96.2427411107492 40.98305084742606,97.04518614208791 42.26150121062528,97.30644626732101 43.46731234865729,96.95187882974278 45.74818401935045,94.88043959021161 47.30266343825497,91.91318647208391 47.767554479360115,90.21491739225166 47.97094430989819,87.86343199106341 47.05569007265149,83.73890053346986 45.486682808666956,81.57393675018102 44.04842615011148,81.16333618281351 42.91525423730491,81.21932724412181 42.276029055705294,81.46195490335231 40.59079903148813,83.08568242599722 38.760290556936525,86.20243701444997 38.309927360736765,87.5648276864813 38.04842615011148,89.99096819819533 38.45520581112942,93.2568564866815 39.07990314770723,94.82445429687505 40.416464891051874,96.76526400823786 41.50605326873483,97.17581626903848 42.81355932203587,97.26912342378637 44.94915254233638,95.8508475865965 47.0847457627533,92.58502318125102 47.94188861985458,88.7592408702476 47.665859564207494,85.81051381757425 47.24455205810955,84.37345218514383 46.736077481822576,83.17899949554703 45.74818401935045,81.81656376052706 44.22276029054774,81.18199987258413 43.205811138032004,81.16333618281351 42.17433414037805,81.57393675018102 40.910411622258835,82.73107696292573 39.733656174270436,84.22414618732 38.673123486631084,86.35174078471027 38.062953995133284,89.50574364689237 38.193704600445926,91.950510823066 38.760290556936525,94.22727636365744 40.32929782074643,96.65329498924257 41.47699757863302,97.1944777052413 42.97336561739212,97.21313913883932 44.89104116224917,95.86950920929667 46.76513317192439,93.29418045943021 47.88377723970916,89.84166852536146 47.9854721549782,87.91942022329022 47.54963680385845,85.43725255315076 47.01210653752787,83.75756386072317 46.02421307499753,82.09651745151496 45.15254237287445,81.42462760004855 44.0920096852351,81.18199987258413 43.075060532661155,81.16333618281351 42.290556900785305,81.48061855108244 39.77723970939405,84.24280944626662 38.33898305083858,87.65814160388254 38.17917675542412,91.76388896342542 39.21065375301987,95.08571879703959 39.922518159786705,96.18675639253343 40.852300242113415,96.9705402974796 42.45036319602514,97.28778484687791 43.4818401937373,97.06384759665525 45.77723970945226,94.88043959021161 47.288135593233164,92.08114596850646 47.767554479360115,90.45752859239292 48.0,87.9007574818097 47.31719128327677,84.67206367634935 46.75060532684438,83.17899949554703 45.71912832924863,81.7419093430799 43.772397094464395,81.12600879545789 42.85714285715949,81.2379909260053 41.767554479360115,81.89121813591919 39.77723970939405,84.24280944626662" stroke="#4DD2FF" stroke-linecap="round" stroke-linejoin="round" stroke-width="0.5"><title>2024-12-29 18.5km</title><desc>1735432872000</desc></polyline><polyline fill="none" points="58.66666666668607,96.81396618901636 61.45839487935882,95.0892413674519 62.043328409665264,95.02093492928543 62.84096504189074,95.68692106116214 65.16740521910833,95.87476264267752 66.61644510092447,96.2504449334665 67.93254554411396,95.85768614726112 68.15854258986656,94.44032865273039 69.99310684396187,93.5181835626936 71.93402264895849,93.02295460370078 72.346134908963,96.0796804000056 73.75529295916203,97.73608623559994 74.43328409653623,97.75316246666625 76.0950270802714,97.05303502204333 77.31806991633493,96.93350066440325 79.96356474643108,97.63362879864144 81.85130477597704,96.64320244851115 84.16445100936107,96.36997996392165 86.42442146723624,97.13841663395579 86.90300344658317,98.45328587221593 88.9901526341564,98.62404706577217 89.46873461350333,97.78731492163206 89.05662235355703,97.30917967762798 89.10979812894948,96.60904967156966 89.42885278188623,96.2504449334665 90.9044805514277,95.85768614726112 91.60905957658542,95.19170095254958 92.84539635648252,93.77433567943808 93.044805514568,92.98880080784875 93.8291482028435,91.98125950711983 94.54702117183479,89.24890201060771 94.44066962093348,86.20908199672704 93.85573609062703,84.07433141303045 92.85869030037429,82.29819030357612 92.3269325455185,81.83707249513827 90.95765632693656,81.39303146775637 89.94731659285026,81.46134557771438 88.83062530774623,82.09324927174748 86.65041851304704,85.04778233751858 85.6932545544696,87.93393303598714 85.66666666668607,91.29817590084713 86.11866075824946,93.14249281332741 86.99606105365092,94.90139857002214 87.66075824719155,95.66984453937039 88.76415558840381,96.16506269676756 89.93402264895849,96.19921559865179 91.01083210238721,95.70399758058193 92.71245691773947,93.85971959822928 93.62973904481623,92.35695385161671 94.57360905961832,89.07812762427056 94.65337272285251,87.62653563632193 94.41408173314994,86.07245908429468 93.7892663712264,83.9377060968909 92.92516001971671,82.34942550744017 92.30034465779318,81.81999402413203 91.0507139340043,81.37595293422783 90.13343180698575,81.42718852755206 88.93697685870575,82.00785707293835 86.65041851304704,85.04778233751858 85.6932545544696,87.9510106464586 85.6533727227943,91.31525303790113 86.61053668148816,94.18417794171546 87.18217626784462,95.15754776712129 88.24569177743979,95.97722156457894 89.57508616446285,96.2162920460105 90.58542589854915,95.96014508361986 92.60610536683816,93.99633374332916 94.14820285572205,91.11032723502285 94.66666666668607,87.60945798012835 93.7892663712264,83.8864715636737 92.95174790744204,82.38358229803998 92.24716888234252,81.78583707491634 90.98424421466189,81.39303146775637 89.37567700649379,81.7516801161255 88.23239783360623,82.7763846984235 87.20876415562816,84.27926909875532" stroke="#4DD2FF" stroke-linecap="round" stroke-linejoin="round" stroke-width="0.5"><title>2024-12-28 9.1km</title><desc>1735368240000</desc></polyline><polyline fill="none" points="105.33333333331393,96.14792490794207 105.99699576676358,96.81097945733927 110.22968728659907,97.36036503879586 111.66024853195995,96.90570126927923 111.94046155945398,95.33331056234601 116.09941280889325,93.79879108136811 116.4533661067253,97.34142074570991 118.1641403795802,99.04639644618146 118.8720469752443,99.08428454987006 120.03714324726025,98.49701774488494 121.83640584454406,98.15602294073324 123.03099822474178,98.28863213388831 124.96299330872716,98.97062020687736 126.40830260817893,98.09919038935914 127.8536119076889,97.62558486188937 129.84459920792142,97.51191928742628 131.5848695888999,97.79608304372232 132.74996586097404,96.58364683686523 133.62010105146328,96.7162575787952 134.7114570531412,97.34142074570991 136.56971186661394,97.13303334600641 138.6344394373591,95.35225513801561 140.02075652050553,93.1736114633095 140.964631981391,90.76759008849331 141.2595930629177,88.51309009011311 140.90563976502744,85.59544580728107 140.02075652050553,83.0187722977862 138.87040830258047,81.5030589576927 137.29236651636893,80.91571545012994 135.62583640578669,81.14307453125366 132.94169056398096,83.83346116587927 131.65860985935433,86.8837640665588 131.26041239924962,89.13829135210835 131.46688515634742,92.54842894201283 132.11579953558976,94.65130406351818 132.97118667210452,96.14792490794207 133.97405434929533,97.038311693992 135.02116618864238,97.36036503879586 136.4222313259379,97.28458785050316 137.18913013790734,96.82992382507655 139.00314078922383,95.0112523684802 140.10924484493444,93.1736114633095 141.0531203058781,90.57813776021067 141.2743411170668,87.45213584948215 140.7581592243514,84.81865972196101 139.88802403386217,82.65879192492866 138.97364468110027,81.5598985159304 137.77905230096076,81.01044844726857 136.65820019115927,80.91571545012994 135.68482862203382,81.218860806257 133.32513996993657,83.568214168743 132.23378396825865,85.38704022436286 131.65860985935433,86.95954710962542 131.21616823703516,90.61602824721194 131.62911375117255,93.1925563429104 132.292776184564,95.0112523684802 132.9859347261954,96.16686936897167 134.092038781906,97.13303334600641 136.33374300145078,97.34142074570991 137.5430834357394,96.50786921141844 139.0473849514965,94.97336311853724 140.09449679095997,93.24939096564776 140.964631981391,90.86231615263387 141.33333333331393,87.86894029837276 140.89089171105297,85.4817700747808 140.07974873681087,83.0945575167716 139.1358732759254,81.73041704675416 137.95602894981857,81.0672882135841 136.58445992076304,80.97255525639048 135.47835586511064,81.33254013882834 133.01543083431898,84.02292298663815 131.51112931856187,87.54686424665852 131.23091629112605,90.04766982265573 131.45213710219832,92.51053899890394 132.35176840092754,95.16280926155741 133.0891711047152,96.29948052144027 134.04779461963335,97.07620036278968 135.4193636487471,97.39825361693511 136.4074832717888,97.32247644999006 139.0473849514965,94.99230774481839 140.6696708998643,91.94218857280794 141.17110473843059,90.00977917568525 141.30383722513216,87.86894029837276 140.49269425094826,84.06081531880773 139.60781100636814,82.29881058931642 138.89990441070404,81.54095199916628 137.7348081386881,81.01044844726857 136.30424689332722,81.01044844726857 135.5078519732342,81.29464703863778 134.46074013382895,82.14723921265977 133.17765942914411,83.7008377326274 132.8826983476174,84.61025293641433 132.04205926530994,85.7470133012539 131.23091629112605,89.55509058032476 131.43738904822385,92.49159402339137 131.90932677866658,94.08296267528203 132.70572169864317,95.80692415378871 133.57585688924883,96.77309071394848 134.26901543076383,97.17092198808677 135.7143247302738,97.4171979020175 137.27761846239446,96.79203508698265 138.98839273519116,95.0491416076984 140.59593062952626,92.09374892107735 141.12686057621613,90.12345108459704 141.31858527922304,87.94472278680769 140.84664754883852,85.21652632561745 140.0502526286291,83.0187722977862 139.32759797893232,81.91988182760542 138.29523419367615,81.19991424151522 136.7024443533155,80.91571545012994 135.43411170283798,81.33254013882834 134.56397651229054,82.09039990237216 133.04492694250075,83.96608446841128 132.14529564382974,85.65228363749338 131.6881059674779,86.77008942203247 131.21616823703516,89.85821648118144 131.776594291965,93.74195669061737 132.52874504978536,95.46592253589188 133.47262051072903,96.67836880870163 134.23951932264026,97.17092198808677 135.7290727843647,97.39825361693511 136.48122354230145,97.26564354677976 137.7348081386881,96.39420269322 139.20961354637984,94.72708273402532 140.40420592646115,92.62420879620186 141.20060084661236,89.85821648118144 141.30383722513216,87.98261401501077 140.92038781917654,85.4817700747808 139.50457462784834,82.12829277853598 138.85566024848958,81.48411243291048 137.4398470572196,80.95360865698603 136.17151440662565,81.04834162746556 135.18339478346752,81.52200547976827 132.9859347261954,84.0987076402962" stroke="#4DD2FF" stroke-linecap="round" stroke-linejoin="round" stroke-width="0.5"><title>2024-12-27 16.0km</title><desc>1735261057000</desc></polyline><polyline fill="none" points="152.0,96.14096736442298 152.59016393433558,96.7663893859135 156.86885245901067,97.37285645140219 158.31475409830455,96.91800640827569 158.52131147537148,95.47763780437526 159.2885245900834,94.90906700972118 160.85245901637245,94.20782639061508 162.75573770492338,93.80982333394059 163.12459016387584,97.39180850320554 164.9245901638642,99.07853043242358 168.3180327868904,98.14988838820136 170.07377049181378,98.39626343212149 171.4016393442289,98.96481950569432 174.1901639344287,97.67608896007005 175.8721311475383,97.52447279110493 178.24754098360427,97.84665694620344 178.95573770499323,96.80429365747841 179.66393442626577,96.42525046149967 181.3016393443104,97.29704821755877 183.1754098360543,97.14543162187329 184.54754098359263,96.19782403179852 185.742622950871,94.92801940818026 186.74590163939865,93.10857699130429 187.63114754104754,90.83423940409557 187.9704918032512,88.01021677929384 187.4393442622968,85.07241227684426 186.56885245908052,82.79793896799674 185.71311475412222,81.6417336416489 183.98688524588943,80.95937829905597 182.21639344259165,81.24369344535808 180.03278688527644,83.51819300549687 178.3803278687992,86.816149131555 177.8786885245354,89.88658740690153 178.409836065548,93.50658212033159 179.76721311477013,96.36839389010856 181.31639344262658,97.29704821755877 183.2344262295519,97.14543162187329 184.50327868858585,96.25468067525071 185.7721311476198,94.90906700972118 186.70163934427546,93.33600863759057 187.66065573773813,90.77738047228195 187.9852459016838,87.85858972836286 187.20327868853929,84.20053538234788 186.3622950820136,82.36199386327644 185.38852459023474,81.39532794457045 184.0754098360776,80.9404239346477 183.1754098360543,80.9404239346477 182.03934426233172,81.43323654269625 179.8557377049001,83.74564084858866 178.4393442622968,86.62661361058417 177.8639344262774,89.84868118829036 178.27704918035306,93.05171901971335 178.95573770499323,95.00382897554664 179.78196721314453,96.38734608321101 180.81475409836276,97.08857535445713 182.21639344259165,99.04062680082279 181.75901639345102,98.64263802535424 181.75901639345102,97.82770495842851 182.23114754096605,97.35390439696494 183.8098360655713,96.82324578930275 185.63934426236665,95.00382897554664 187.35081967216684,91.87664889918233 188.0,88.02917014868581 187.57213114760816,85.48939488313044 187.08524590160232,83.8404106698581 185.94918032782152,81.8881388878508 184.54754098359263,81.01624137633189 183.39672131149564,80.9404239346477 182.1131147540873,81.357419335749 181.16885245899903,82.13454368317616 179.72295081970515,83.95413436731906 179.5901639345102,84.61752068830538 179.16229508200195,84.90182811123668 178.7491803278681,85.81160783096857 178.20327868853929,87.57428854769387 177.8639344262774,89.92449361483159 178.3803278687992,93.4497243167425 179.73770491802134,96.29258509087958 180.88852459023474,97.14543162187329 181.8327868852066,97.33495233982103 183.4852459016838,97.03171906307398 184.22295081970515,96.48210700895288 185.83114754100097,94.81430497726251 186.70163934427546,93.35496125748614 187.88196721312124,89.62124365274212 188.0,87.99126340728253 187.7196721311193,86.0011444989359 187.1147540983511,83.91622647884651 186.27377049188362,82.22931463824352 185.29999999998836,81.357419335749 184.3852459016489,80.99728701992717 183.26393442624249,80.9404239346477 182.1573770492687,81.3195107162901 179.64918032783316,84.01099618001899 178.32131147541804,86.87300973579113 177.8786885245354,89.9623998120951 178.04098360659555,91.89560172437632 178.58688524598256,94.13201637525344 179.5459016393288,96.06515843716625 180.63770491810283,97.03171906307398 181.43442622950533,97.33495233982103 182.349180327903,97.37285645140219 183.60327868850436,96.95591063720349 185.91967213113094,94.70059045030212 187.63114754104754,90.98586310478277 187.92622950824443,87.40370755117328 187.23278688528808,84.25739709094341 186.65737704921048,82.85480126889888 185.9934426229447,81.8881388878508 184.9459016393521,81.16787613173074 183.35245901637245,80.92146956757642 182.1131147540873,81.30055640262435 179.69344262295635,83.973088307539 178.32131147541804,86.96777735624346 177.8639344262774,89.88658740690153 178.01147540984675,91.76293189177522 179.0147540983162,95.15544798210612 179.79672131146071,96.34944169427035 180.91803278686712,97.14543162187329 182.349180327903,97.31600028004323 183.39672131149564,97.03171906307398 185.71311475412222,94.94697180403455 187.36557377054123,91.80083757157263 187.94098360656062,89.03369490799378 187.94098360656062,87.44161445795908 187.4540983606712,84.88287430166383 186.849180327903,83.27179074203013 186.06721311470028,81.9450015729235 185.04918032791466,81.20578479382675 183.44098360656062,80.9404239346477 182.17213114752667,81.30055640262435 180.46065573772648,82.873755363893 179.60491803276818,84.14367364962527" stroke="#4DD2FF" stroke-linecap="round" stroke-linejoin="round" stroke-width="0.5"><title>2024-12-26 16.2km</title><desc>1735171955000</desc></polyline><polyline fill="none" points="12.0,136.77057373226853 16.719602977624163,137.40168318065116 18.014888337405864,137.00006841625145 18.163771712162998,135.52747079296387 18.521091811417136,135.24059926920745 20.51612903230125,134.32260632388352 22.436724565690383,133.78710757559747 22.645161290245596,133.84448254239396 22.88337468978716,137.114815612862 24.64019851112971,139.10375162865967 25.473945409466978,139.12287587211176 26.59057071962161,138.4344014112139 28.5409429280553,138.1092872590234 31.2952853597817,138.9890061111946 32.992555831209756,137.9945409019565 34.555831265461165,137.57380343068507 38.18858560791705,137.89891886380792 39.32009925559396,136.617577061028 41.82133995037293,137.45905662153382 43.19106699747499,137.19131369017123 44.799007444118615,135.94821459920786 46.8089330024668,133.15598134197353 47.65756823820993,130.76532509137178 47.970223325071856,127.87735625384084 47.46401985111879,124.89369485228963 46.198511166265234,122.17774097908114 45.26054590573767,121.27878654291271 43.66749379649991,120.87712412788824 41.79156327538658,121.41267375073221 39.75186104216846,123.7078625135473 38.50124069483718,126.04126468239701 37.80148883379297,129.6369207315147 38.00992555828998,132.58222767716506 39.58808933000546,136.25420927650703 40.28784119110787,136.88532112269604 41.33002481388394,137.34430971552501 43.325062034709845,137.13394013626385 44.813895781640895,135.90996521609486 46.04962779156631,134.39910597277049 47.38957816379843,131.68334206547297 47.970223325071856,127.80085293365119 47.50868486351101,124.89369485228963 46.55583126551937,122.77066511833982 45.6774193548481,121.54656082665315 44.38213399500819,120.97275814396562 43.38461538462434,120.89625093652285 42.19354838714935,121.1640259741107 40.89826302725123,122.2351208475593 39.73697270476259,123.65048326691613 38.54590570717119,125.96476032854116 37.81637717119884,129.10140351959853 37.965260545839556,131.91284534001898 38.41191066993633,133.8827325067541 39.3498759305221,135.83346641757817 40.13895781635074,136.77057373226853 41.16625310172094,137.26781172437768 42.62531017372385,137.34430971552501 44.60545905708568,136.12033668995718 46.01985111657996,134.39910597277049 47.06203473947244,132.56310251326067 47.79156327544479,129.98118068196345 47.98511166253593,127.76260125740373 47.44913151365472,124.83631610640441 46.466501240676735,122.57939954963513 45.662531017384026,121.5274341096083 44.3225806451519,120.97275814396562 42.92307692306349,120.93450454557023 41.866004962765146,121.35529353498714 40.5409429280553,122.65590580942808 38.516129032184836,126.04126468239701 37.9503722084919,128.1833691038628 37.80148883379297,130.1724358331412 38.41191066993633,133.86360752592736 39.439205955306534,135.98646397155244 40.00496277917409,136.617577061028 40.85359801485902,137.1721891748457 42.46153846156085,137.38255869495333 43.44416873448063,137.0383174925082 44.39702233253047,136.31158320179384 46.01985111657996,134.3799810645869 47.1364764267928,132.3718507264275 47.82133995037293,129.90467854611052 48.0,127.81997876771493 47.478908188582864,124.85544235771522 46.42183622828452,122.48376666434342 45.64764267986175,121.48918066742772 44.14392059558304,120.87712412788824 42.8635235732072,120.89625093652285 41.88089330022922,121.33616679099214 40.570719602983445,122.57939954963513 38.456575682386756,126.09864291950362 37.786600496270694,130.19156133347133 38.23325062030926,133.2707317842287 39.632754342397675,136.3307078381622 40.79404466506094,137.13394013626385 41.88089330022922,137.42080766364234 43.086848635284696,137.2104382027319 43.96526054589776,136.694075418156 45.930521091853734,134.53298025479307 46.838709677394945,133.02210570350871 47.419354838726576,131.6068408877909 47.88089330022922,129.29265990896965 47.970223325071856,127.85823042780976 47.65756823820993,125.6204902032332 46.913151364715304,123.40183958495618 46.15384615381481,122.12036108634493 45.558312655077316,121.37442027624638 44.29280397016555,120.91537774243625 43.146401985082775,120.87712412788824 41.985111662594136,121.25965978816384 40.04962779156631,123.21057490468957 39.558312655077316,124.10951656138059" stroke="#4DD2FF" stroke-linecap="round" stroke-linejoin="round" stroke-width="0.5"><title>2024-12-22 13.5km</title><desc>1734819430000</desc></polyline><polyline fill="none" points="58.66666666668607,136.1371029267466 59.05121884413529,136.66907211956277 63.429197480145376,137.35302943049464 64.93782525329152,136.9160571037355 65.18926321557956,135.2441499268607 69.22706107911654,133.80021343083354 69.463708573021,133.9712067166547 69.68556559842546,136.72606869446463 70.54341276356718,138.34096165178926 71.46042180230143,139.0439090229629 72.05204053682974,139.10090459539788 73.42755409475649,138.43595475358597 75.0988770199474,138.11297793460835 78.20487537659938,138.8729221613903 79.99452204874251,137.88499383245653 81.59189263219014,137.46702197879495 83.13010134210344,137.486020727476 84.7718433306436,137.88499383245653 86.01424267323455,136.47908336276305 88.64694604219403,137.35302943049464 89.96329772670288,137.03005002095597 91.32402081624605,136.02310925563506 93.61654341279063,132.71725092433917 94.34127636265475,130.64629843318835 94.66666666668607,127.89131239344715 94.00109559023986,124.60425549383217 92.8918104628683,122.1911627787631 92.01917282940121,121.31711855543836 90.688030676567,120.91809648496564 89.03149821970146,121.14610924109002 88.05532730760751,121.77314233452489 86.67981374973897,123.35021269474237 85.58531909069279,125.25027299554495 84.78663379896898,127.45430944170221 84.52040536841378,129.7533091163641 85.02328129281523,133.64821921709517 86.5910709394957,136.44108557932486 87.49328950967174,137.08704644349928 88.79485072591342,137.3340306630853 90.18515475222375,136.9160571037355 91.0873733223998,136.2320975792245 93.33552451379364,133.32523094485805 94.01588605862344,131.7482771078212 94.53355245140847,129.31631219174596 94.60750479320996,127.83431208868569 94.25253355246969,125.53527973410382 92.84743905783398,122.1911627787631 91.94522048759973,121.33611957696849 90.92467817035504,121.03210291118012 89.59353601752082,120.97509971007821 88.33634620648809,121.56413162701938 86.73897562315688,123.31221121593262 85.6444809641107,125.11726964495028 84.75705286220182,127.4923097545252 84.52040536841378,129.52531089742843 84.62393864698242,131.7482771078212 85.18597644480178,134.10420134484593 85.83675705292262,135.39614234391775 86.42837578750914,136.32709216480725 87.463708573021,137.08704644349928 88.67652697890298,137.35302943049464 89.94850725826109,137.0490488311625 92.25582032324746,134.9211654725077 93.92714324849658,131.9382725219184 94.45960010954877,129.86730808144785 94.59271432488458,127.7013112839195 94.25253355246969,125.57328058713756 93.55738153925631,123.54021992823982 92.8326485894504,122.1911627787631 91.84168720903108,121.24111444246955 90.4218022460118,120.91809648496564 88.9279649410746,121.18411132962501 86.67981374973897,123.35021269474237 84.99370035604807,126.8083024869702 84.49082443164662,130.09530572283256 85.17118597653462,134.12320056678436 86.16214735689573,135.96611238399055 87.13831826898968,136.9160571037355 88.67652697890298,137.35302943049464 89.71185976447305,137.14404284195916 90.86551629687892,136.44108557932486 92.31498219666537,134.8831672505912 93.95672418514732,131.82427530550922 94.45960010954877,129.82930843708164 94.5779238564428,127.73931152722798 94.28211448917864,125.78228508745087 93.57217200763989,123.57822134286107 92.87701999460114,122.1911627787631 91.97480142425047,121.29811753118702 90.77677348675206,120.93709756270982 89.44563133391785,121.03210291118012 88.38071761158062,121.52612964544096 87.5228704464389,122.34316989211948 85.54094768560026,125.26927346347657 84.78663379896898,127.41630911815446 84.5056149000884,129.6013103464793 85.06765269790776,133.72421634536295 86.60586140787927,136.51708113549103 87.49328950967174,137.1060452456586 88.9279649410746,137.3340306630853 89.68227882770589,137.18204042760772 90.89509723364608,136.3840888840641 92.24102985486388,134.97816278527898 93.32073404546827,133.32523094485805 94.4448096412234,129.90530771507474 94.60750479320996,127.73931152722798 94.32648589427117,126.04829034724389 93.98630512185628,124.60425549383217 92.84743905783398,122.1911627787631 91.94522048759973,121.29811753118702 90.688030676567,120.93709756270982 89.51958367571933,120.99410077980428 88.41029854834778,121.48812765307957 86.31005204055691,123.99623619759222 85.55573815392563,125.26927346347657 84.78663379896898,127.53031005662342 84.5056149000884,129.46831128248596 84.65351958374958,131.82427530550922 85.65927143249428,135.11115642158256 86.50232812931063,136.40308778519102 87.49328950967174,137.1060452456586 88.67652697890298,137.35302943049464 89.97808819497004,137.06804763870605 92.27061079157284,134.9211654725077 93.89756231172942,131.99527109399787 94.3708572993637,130.34230273310095 94.60750479320996,127.77731175979716 94.08983840048313,125.04126767150592 92.81785812106682,122.13416006715852 91.91563955083257,121.27911650428723 90.71761161327595,120.89909540458757 89.53437414410291,120.97509971007821 88.39550808002241,121.48812765307957 86.250890167139,124.1292406526627" stroke="#4DD2FF" stroke-linecap="round" stroke-linejoin="round" stroke-width="0.5"><title>2024-12-20 16.0km</title><desc>1734644952000</desc></polyline><polyline fill="none" points="105.33333333331393,136.598474776707 109.77209621988004,137.4184560510912 111.3753951889812,137.0561393556127 111.73168384877499,135.39709790317283 113.60219931270694,134.38640752252832 115.88838487968314,133.73803613962082 116.36343642609427,137.34217893258028 117.4916838487261,138.75329867612163 118.05580756010022,139.07747275795555 118.70900343637913,139.09654179740755 119.8669415807235,138.44819294956687 121.73745704465546,138.1430865361326 124.69168384873774,138.94398940635438 127.21539518900681,137.704494863312 128.37333333335118,137.55194090529403 131.59477663226426,137.89518706939998 132.88632302399492,136.46498898341088 134.7865292095812,137.36124821622798 136.53828178689582,137.265901771083 138.72054982814007,135.2636109264422 140.59106529207202,132.17430415887793 141.3036426116014,127.94069530905108 140.53168384876335,124.20280457673653 139.6706529209041,122.35289193780045 138.91353951883502,121.51374798096367 137.66652920958586,120.9606729860534 136.5085910652415,120.94160139431187 134.81621993123554,121.64724850353377 133.30199312709738,123.32552956676227 132.20343642611988,125.28985486166494 131.11972508585313,129.04678606128437 131.34240549826063,132.55570386681939 132.85663230234059,136.04546134828706 133.74735395185417,136.9417233557615 134.5341580756358,137.28497106547002 136.5085910652415,137.20869387176936 138.0821993126301,135.9501139774511 139.24013745697448,134.5580347222567 140.75436426111264,131.5831324900937 141.33333333331393,127.76905972798704 141.00673539517447,125.72848671775137 140.2050859106239,123.3636720765935 138.82446735387202,121.41839038426406 137.48838487971807,120.94160139431187 135.92962199315662,121.01788774543093 134.77168384875404,121.64724850353377 133.4207560137147,123.23017324517423 131.89168384874938,125.9954793262441 131.32756013737526,128.20768355869222 131.16426116839284,130.38171115214936 131.72838487970876,133.75710593049007 132.82694158074446,136.00732240801153 133.74735395185417,136.9035846676852 134.9201374570257,137.36124821622798 136.47890034364536,137.24683247401845 138.69085910642752,135.2636109264422 140.53168384876335,132.17430415887793 141.14034364256077,130.01937564210675 141.31848797248676,127.71184781934426 140.60591065284098,124.24094683959265 139.0174570446252,121.55189100083953 137.6516838487587,120.9606729860534 136.30075601366116,120.9034582025779 134.964673539449,121.47560495029029 134.07395188999362,122.35289193780045 131.9213745703455,125.88105398700282 131.1345704466803,129.67610952834366 131.69869415811263,133.56640790140955 132.4558075600653,135.39709790317283 133.49498281779233,136.73196043857024 134.7419931271579,137.28497106547002 136.1968384879292,137.28497106547002 138.17127147765132,135.89290552266175 140.41292096214602,132.55570386681939 141.1254982817336,130.01937564210675 141.3036426116014,127.94069530905108 140.97704467346193,125.6522030186461 140.2050859106239,123.3064583078085 139.03230240545236,121.55189100083953 137.62199312710436,120.9606729860534 136.31560137454653,120.92252979979094 135.02405498275766,121.4565334309882 134.2966323023429,122.23846352241526" stroke="#4DD2FF" stroke-linecap="round" stroke-linejoin="round" stroke-width="0.5"><title>2024-12-15 10.9km</title><desc>1734216782000</desc></polyline><polyline fill="none" points="152.0,136.06376647828438 152.83686786296312,136.85586230868648 155.45024469820783,137.04445586401562 156.91843393148156,137.42164217862592 158.4159869494033,137.02559652044147 158.66557911905693,135.3659638918616 160.50081566063454,134.46070106854313 162.74714518757537,133.81946953566512 162.9820554649341,133.9137684829475 163.0114192495239,136.02604751239414 163.4225122348871,137.5913756738737 164.89070146816084,139.00581310824782 165.68352365418104,139.0246721732401 167.09298531810055,138.36460332096613 168.766721044085,138.1194340621587 171.585644371924,138.9303768218815 173.47960848285584,137.8931235790369 175.32952691678656,137.49707931412559 178.25122349098092,137.81768666645803 179.4110929852468,136.49753382240306 180.14518760197097,136.57297147809004 181.48123980424134,137.28962708925246 183.25774877640652,137.08217454330588 184.44698205543682,136.27122060058173 185.8123980424134,134.8190350005898 186.67862969002454,133.36683366532088 187.618270799343,130.85844884018297 187.95595432294067,128.35001706446928 187.64763458404923,125.8226774148934 186.64926590537652,123.0123706424638 185.46003262640443,121.54117983634933 184.13866231642896,121.03191771713318 182.77324632951058,121.12622566299979 181.64274061995093,121.69207194444607 180.13050570961786,123.44618023252406 178.47145187598653,126.65255539154168 177.89885807508836,129.97201590787154 178.30995106039336,133.1216552638798 179.792822185962,136.34665838365618 181.5986949428916,137.2707677801809 183.4045676998212,137.02559652044147 185.85644371935632,134.7247366903175 186.73735725937877,133.31025407399284 187.73572593799327,130.40580296899134 187.97063621529378,128.4065987499198 187.67699836863903,125.65292901375506 186.45840130501892,122.57855964807095 185.51876019575866,121.54117983634933 183.93311582383467,120.97533291774744 182.75856443709927,121.05077931158303 182.05383360519772,121.39028755832987 180.58564437186578,122.7860346466623 178.72104404564016,125.93584289611317 178.0309951059753,128.74608836107654 178.08972267532954,131.82031624022056 178.5742251223419,134.1400856855471 180.15986949426588,136.64840909128543 180.15986949426588,137.10103387889103 181.45187601953512,137.81768666645803 182.24469820549712,139.06239029511926 181.7895595432492,138.53433562202554 181.90701468189945,137.77996819422697 182.3915171288536,137.28962708925246 183.14029363787267,137.17647119486355 184.15334420878207,136.51639324027929 185.8123980424134,134.7813156844204 186.73735725937877,133.31025407399284 187.73572593799327,130.38694269119878 187.97063621529378,127.50128891564964 187.10440456768265,124.03087789274286 186.2088091353653,122.20133155481017 185.25448613375193,121.35256446228595 183.93311582383467,120.9564713126747 182.4208809135016,121.25825667571917 181.24632952688262,122.12588580866577 180.08646003255853,123.50276398853748 178.4274061989854,126.80344174421043 177.91353996732505,130.06631756234856 178.6329526916379,134.21552466823778 179.8075040783151,136.32779894190026 180.90864600328496,137.11989321187139 182.05383360519772,137.36506429909787 183.30179445346585,137.10103387889103 185.84176182706142,134.76245602236304 187.32463295263005,131.80145616151276 187.88254486129154,129.80227276259393 188.0,127.82192018142086 187.47145187598653,125.18140454925015 186.48776508972514,122.72945058799814 185.07830342574744,121.23939511040226 184.03588907013182,120.9376097048953 182.56769983685808,121.16394882276654 181.29037520394195,122.10702436554129 179.93964110931847,123.82340482145082" stroke="#4DD2FF" stroke-linecap="round" stroke-linejoin="round" stroke-width="0.5"><title>2024-12-10 11.3km</title><desc>1733785667000</desc></polyline><polyline fill="none" points="12.0,176.85414686354488 14.147651006758679,175.62996189756086 14.966442953038495,175.44029834375397 15.67785234900657,176.07825640302326 16.496644295344595,176.21619284394546 19.543624161102343,176.6644852046884 20.859060402726755,176.31964507277007 21.181208053720184,174.8023369629591 24.95302013424225,173.2850100637006 25.12751677853521,173.371222322814 25.31543624162441,176.38861317680858 26.926174496649764,178.18177025592013 27.503355704713613,178.25073731184239 28.738255033560563,177.61279056340572 30.228187919477932,177.33692067056836 33.04697986575775,178.0783195992335 34.93959731544601,177.06105015659705 36.228187919419724,176.80242098571034 39.03355704701971,177.13001784330845 40.268456375808455,175.85410935535037 41.77181208052207,176.52654926840478 43.516778523509856,176.50930726546358 44.885906040261034,175.5265090864341 46.9395973153878,172.7849777645897 47.66442953015212,170.71585690294887 47.946308724815026,168.78464590564545 47.543624161044136,165.47392765868426 46.53691275167512,163.1632692060084 45.731543624191545,162.2148520023111 44.281879194662906,161.76650676840654 43.033557046961505,161.8527271331186 42.416107382567134,162.1631199436888 40.348993288585916,164.54277203212405 39.06040268455399,167.54313704700326 38.80536912754178,169.50885359685344 39.127516778477,172.76773523514566 40.30872483225539,175.4058140297493 40.80536912748357,176.00928812431084 41.82550335570704,176.5437912689158 42.77852348994929,176.6644852046884 43.651006711414084,176.45758124202257 45.19463087251643,175.18166575190116 46.818791946338024,172.97464542862144 47.8120805369108,170.14684254013991 47.98657718120376,167.95697473106702 47.5302013423061,165.43944053946325 46.348993288644124,162.9046106967653 45.395973154343665,162.0424117219227 43.9060402684845,161.74926268815034 43.10067114100093,161.80099492153386 42.44295302015962,162.18036396567913 40.83221476513427,163.85302256073192 39.39597315440187,166.45680647565314 38.77852348994929,169.68128336860536 39.114093959738966,172.5435821312276 40.348993288585916,175.4575404971547 41.570469798578415,176.42309721425408 42.56375838932581,176.6644852046884 43.67785234900657,176.47482325223245 45.516778523509856,174.83682144685008 46.80536912748357,173.07810039435572 47.32885906036245,171.94009096704394 47.798657718114555,170.1640854384459 48.0,167.99146114165342 47.5302013423061,165.3877098423909 46.12080536916619,162.55973183497554 45.40939597313991,162.02516768050555 44.02684563753428,161.74926268815034 42.644295302045066,162.0424117219227 41.409395973198116,163.19775696597208 40.348993288585916,164.64623411792127 40.738255033502355,165.24976121019427" stroke="#4DD2FF" stroke-linecap="round" stroke-linejoin="round" stroke-width="0.5"><title>2024-12-08 8.9km</title><desc>1733614342000</desc></polyline><polyline fill="none" points="58.66666666668607,176.20759934093803 59.1072509540827,175.89724110413226 59.86050796159543,175.86072832161153 60.59955257270485,176.57272572783404 63.14357152249431,176.75528853591823 64.66429793398129,177.17518201969506 66.07132517435821,176.70051972047077 66.28451111988397,175.18523999080935 68.11791025131242,174.30892556412437 70.10764574288623,173.74296935094753 70.44874325569253,173.90727947367122 70.64771680481499,176.59098202023597 71.37254901957931,177.97845272373524 72.39584155811463,178.72695049454342 75.9915778391296,177.8141477570898 77.14278194500366,177.99670881827478 78.89090669824509,178.72695049454342 81.13646532432176,177.46728103295027 82.60034215025371,177.21169443232066 85.2012106855982,177.63158643887436 86.45190156600438,176.26236836452154 88.8680089485133,177.1386695967376 90.28924858529354,176.77354480257782 91.795762600319,175.4955999308877 93.51546256087022,173.15875389611756 94.48190551390871,170.32892305207497 94.66666666668607,167.9189539221552 94.36820634297328,166.0201588318596 93.85656007367652,164.34043231453688 92.69114357151557,162.13119367035688 91.28411633113865,161.38260014046682 89.87708909064531,161.34608327245223 88.8111593630747,161.71125149048748 87.48940650076838,162.95281574246474 85.45703382027568,166.64092182308377 84.9027503618272,170.42020888149273 85.25806027109502,172.9944428254821 86.23871562047862,175.38606121328485 87.02039742068155,176.4084189808491 88.14317673374899,177.01087603569613 89.43650480319047,177.0656447201618 90.75825766549679,176.46318791965314 92.26477168046404,174.966161939039 93.41597578627989,173.23178097190976 94.439268324757,170.47498034827004 94.63824187393766,167.99198394751875 94.36820634297328,165.87409651986673 93.64337412809255,163.7379164157319 92.62008158967365,162.09467701302492 91.92367416765774,161.60170113305503 90.38873535994207,161.27304950547114 88.79694696667138,161.7842850107554 87.02039742068155,163.57359341219126 85.5423081984627,166.42182934186712 84.9027503618272,169.2882600563753 85.18699828919489,172.5927926654549 85.92604290036252,174.80185315747804 86.69351230422035,176.07980486271845 87.73101723910077,176.84656984369212 88.61218581389403,177.08390094313654 89.66390314511955,177.08390094313654 90.77247006178368,176.51795683529053 93.20278984075412,173.57865902023332 94.4534807211021,170.27415152353933 94.63824187393766,168.19281630527985 94.439268324757,166.31228296249174 94.1265956046409,164.86991367291193 93.103303066222,162.7337170320534 92.23634688771563,161.76602663451922 91.31254112382885,161.36434170778375 89.97657586523565,161.3095663941058 88.8680089485133,161.71125149048748 87.74522963544587,162.7154587894911 86.5656007368816,164.35869032841583 85.64179497299483,166.14796321996255 85.08751151472097,168.06501393172948 84.91696275823051,170.27415152353933 85.10172391100787,172.17288435039518 86.38083958410425,175.6599078338768 86.97776023158804,176.37190634220315 88.00105277012335,176.97436356658 89.30859323590994,177.12041338147537 90.18976181076141,176.8830823487515 91.170417160145,176.22585568472277 92.60586919327034,174.5462613057898 94.19765758654103,171.424348765795 94.62402947753435,167.88243889408477 94.24029477563454,165.56371356084128 93.67179892089916,163.92049728668644 93.03224108432187,162.67894229663943 92.20792209502542,161.76602663451922 90.88616923283553,161.3095663941058 89.56441637052922,161.38260014046682 88.78273457032628,161.76602663451922 87.24779576255241,163.35449575034727 85.59915778390132,166.31228296249174 84.94538755103713,169.47083311558526 85.47124621656258,173.68819926385186 87.04882221348817,176.44493160926504 88.11475194105878,177.01087603569613 89.23753125406802,177.08390094313654 90.18976181076141,176.84656984369212 91.32675352017395,175.9885230155778 92.87590472429292,174.1263593134936 93.99868403736036,171.9720581540605 94.4534807211021,170.31066587843816 94.66666666668607,167.86418137614965 94.29714436107315,165.54545571657945 92.79063034604769,162.29551850110875 91.29832872748375,161.40085857067606 90.06185024342267,161.27304950547114 88.96749572310364,161.63821792912495 87.31885774445254,163.24494678064366 86.80721147515578,163.42752834543353" stroke="#4DD2FF" stroke-linecap="round" stroke-linejoin="round" stroke-width="0.5"><title>2024-12-07 13.6km</title><desc>1733525549000</desc></polyline><polyline fill="none" points="105.33333333337214,178.91979245474795 105.60895170783624,180.0908526352432 106.77502944634762,181.77934553807427 107.87750294455327,182.89592146301584 108.70435806829482,183.03208881804312 110.97290930501185,182.07891532096255 113.15665488806553,181.6976446077606 117.67255594814196,182.73252051051531 120.13191990577616,181.42530792416073 122.40047114249319,180.74446453872952 127.27679623081349,181.2619057301199 128.8881036513485,179.35553660547885 132.64075382810552,180.58106176978617 133.84923439333215,180.47212651387963 135.33333333325572,179.68234407473938 138.02591283863876,176.90446299570613 139.8704358068062,173.8269599514315 140.71849234390538,171.23964076454286 141.29093050642405,166.96367954947345 140.44287396932486,162.6603875249857 138.68315665482078,158.68384273453557 137.3474676089827,157.485415951116 134.7820965842111,156.96791118195688 132.47114252054598,157.73054930615763 129.65135453466792,160.89001808685134 127.6584216725314,164.7031013664382 126.83156654890627,169.76893864944577 127.552414605394,175.3793348603649 129.50294464069884,179.00149455771316 130.8174322731793,180.00915099220583 132.66195524134673,180.52659414950176 135.1001177856233,179.87298151028517 138.02591283863876,176.90446299570613 139.552414605394,174.58953163823753 140.52767962298822,172.08392766973702 141.33333333337214,166.96367954947345 140.27326266199816,161.8977688296727 138.66195524146315,158.68384273453557 137.85630153119564,157.83949736418435 136.20259128394537,157.15857099478308 134.16725559486076,156.99514830956468 132.64075382810552,157.62160118670727 131.411071849172,158.68384273453557 129.6301531214267,160.89001808685134 128.04004711424932,163.72260141355218 127.00117785623297,167.45392193604494 126.83156654890627,169.55105590399762 127.3404004710028,174.8346433279803 129.65135453466792,179.16489866025222 130.85983510001097,180.00915099220583 132.66195524134673,180.55382796152844 134.01884570077527,180.41765886290523 135.75736160180531,179.35553660547885 137.941107184859,177.04063456608856 139.67962308588903,174.26271556899883 141.01531213184353,170.12299758753215 141.29093050642405,166.88197236422275 140.84570082451683,165.65636044659186 140.97290930512827,164.37626860075397 139.9128386337543,160.97172780202527 138.5771495877998,158.54765824660717 137.28386336867698,157.485415951116 135.84216725558508,156.99514830956468 133.63722025905736,157.07685966946883 132.49234393402003,157.70331228201394 129.33333333325572,161.48922186373966" stroke="#4DD2FF" stroke-linecap="round" stroke-linejoin="round" stroke-width="0.5"><title>2024-12-05 7.7km</title><desc>1733352101000</desc></polyline><polyline fill="none" points="152.0,176.90046352250647 154.1756756756804,175.6159302353626 154.81081081082812,175.51177830151573 155.31081081082812,176.15404715930345 157.8513513513608,176.39706693620246 159.29729729733663,176.84838810885412 160.86486486485228,176.39706693620246 161.06756756757386,174.90422360152297 163.29729729727842,173.89741208201303 164.81081081082812,173.5675927283737 165.04054054059088,173.88005319063814 164.9864864864503,175.70272344638943 165.40540540544316,176.72687872478127 166.13513513514772,177.85517554380203 166.87837837840198,178.30649138190347 170.13513513520593,177.45593323378853 172.91891891893465,178.18498343408282 174.6486486486392,177.2649908026142 176.3108108107699,176.88310505374102 179.05405405408237,177.21291554284835 179.75675675680395,176.17140573069628 180.1891891892301,175.94574411242502 180.90540540544316,176.51857664511772 182.5135135135497,176.7615957038579 183.54054054059088,176.6053692210553 184.44594594591763,176.04989567984012 185.55405405402416,174.90422360152297 186.77027027029544,173.15097754751332 187.40540540538495,171.53658043130417 187.9864864865085,168.04732738397433 187.1756756757386,164.48853479134414 185.77027027029544,162.24904681402404 184.24324324325426,161.72822982862272 183.1891891892301,161.84975398860115 182.37837837840198,162.19696521446167 180.79729729733663,163.88092579383374 179.3243243243196,166.53702306914784 178.72972972976277,169.74856756810186 179.08108108106535,173.08154154727526 179.6756756756804,174.57440693981334 180.60810810816474,175.94574411242502 181.8513513513608,176.64008623437257 183.02702702704119,176.7095202315977 184.1756756756804,176.20612286610412 185.28378378384514,175.16460455367633 187.1756756757386,172.26566561628715 187.6756756756804,170.49502269161167 187.95945945946733,168.11676621815423 187.1891891892301,164.66213681230147 186.29729729727842,162.83930340554798 185.74324324319605,162.23168628329586 184.24324324325426,161.71086922458198 183.40540540538495,161.78031162612024 182.64864864869742,162.04072028383234 181.63513513514772,162.8740242935237 179.5135135134915,166.08566416746908 178.72972972976277,169.87008382625208 179.06756756763207,173.02946452137985 179.6891891892301,174.62648331341916 180.62162162171444,175.98046131135197 181.40540540538495,176.48385959763982 182.75675675674574,176.77895418975095 183.6621621621889,176.53593516522233 184.75675675674574,175.7200820812941 187.10810810810653,172.45661578595173 187.90540540544316,169.08890579208673 187.6621621621889,165.98150418636214 186.22972972976277,162.73514068288205 185.6891891892301,162.21432575012295 184.27027027029544,161.71086922458198 183.3378378378693,161.81503281228652 182.25675675680395,162.31848891258414 180.77027027029544,163.89828609243705 179.54054054053267,166.05094418354565 178.79729729733663,168.7764331931612 178.71621621627128,170.5644601478998 179.02702702704119,173.04682353247335 180.45945945946733,175.84159245702904 182.04054054053267,176.69216173593304 183.28378378378693,176.64008623437257 184.08108108106535,176.25819855088048 185.02702702704119,175.47706097073387 186.28378378378693,173.84533540056145 187.10810810810653,172.4739748776119 187.4864864864503,171.31091033401754 187.95945945946733,167.9952482326844 187.1486486486392,164.52325521508465 186.25675675674574,162.75250114274968 185.21621621621307,161.93655688668514 184.27027027029544,161.71086922458198 183.04054054053267,161.86711457313504 181.72972972976277,162.80458250777156 180.58108108112356,164.19341079499281 179.24324324325426,166.7974216841394 178.8378378378111,168.6028369628475 178.72972972976277,170.59917886131734 179.06756756763207,173.0641825410712 179.71621621621307,174.66120088366733 180.41891891899286,175.8242338392156 181.14864864869742,176.36234985453484 182.52702702704119,176.7615957038579 183.59459459455684,176.553293682824 184.5135135135497,175.94574411242502 185.94594594591763,174.4355365026713 187.12162162165623,172.43925669180317 187.7027027027798,170.39086643391056 187.95945945946733,168.012607952267 187.06756756757386,164.3670132312982 186.28378378378693,162.78722205517988 185.75675675674574,162.23168628329586 184.5000000000582,161.6935086181038 183.3378378378693,161.76295102941367 182.09459459461505,162.37057046087284 180.93243243242614,163.70732267331914 179.45945945946733,166.2071840342469 178.71621621627128,170.02631883943832 179.06756756763207,173.04682353247335 179.72972972976277,174.6785596651098 180.4864864865085,175.87630968525627 181.5135135134915,176.5706521980028 182.5000000000582,176.74423721556377 183.77027027029544,176.44914254038304 186.0000000000582,174.40081886891858 187.10810810810653,172.4739748776119 187.45945945946733,171.3803473310254 188.0,167.7695716563685 187.3378378378693,164.99197997890587 186.70270270272158,163.53371930848516 185.95945945946733,162.4573729924159 185.1756756756804,161.93655688668514 183.79729729733663,161.71086922458198 182.45945945952553,162.12752304748574 181.41891891893465,163.0649890028144 180.43243243248435,164.57533583234908" stroke="#4DD2FF" stroke-linecap="round" stroke-linejoin="round" stroke-width="0.5"><title>2024-12-03 16.2km</title><desc>1733178751000</desc></polyline><polyline fill="none" points="12.0,224.58302042137075 14.48847926268354,223.36531031914637 16.431863067788072,223.091324601628 18.801843318040483,223.33486747879942 21.669519420713186,224.3699216482346 24.48979591834359,222.7564526978531 27.310072416090406,222.08670733541658 32.215931533952244,222.78689561966166 34.23041474656202,220.41233485838166 35.0125082291197,220.38189160241745 37.619486504234374,221.69094773760298 39.72876892692875,221.69094773760298 41.41145490447525,220.83853999098937 43.070441079558805,219.28593153702968 44.373930217232555,217.91597364802146 46.64911125728395,213.92782462811738 47.97630019742064,207.38222985599714 46.64911125728395,200.62331485393224 45.06122448970564,197.3351176801807 43.56813693221193,196.02591415210918 41.38775510201231,195.50831987391575 39.0651744568022,195.84323396005493 37.16919025685638,197.27422466852295 34.56221198150888,200.4710846067028 32.8321263990365,203.94190761812206 32.0974325214047,206.92555306224676 31.78933508892078,209.2393722183915 32.0500329163624,213.34938469571352 32.59512837394141,215.87624249485089 34.39631336403545,219.46859193350247 35.72350230417214,220.99075590640132 38.28308097424451,221.81271999863384 39.562870309338905,221.78227693977533 41.57735352194868,220.71676718158415 44.35023041476961,217.94641725088877 46.19881500990596,214.99336782321916 47.573403554968536,210.85294198268093 48.0,206.4993205183564 46.9572086900007,201.35401854896918 45.464121132390574,197.9744932676258 44.11323238979094,196.36082743678708 40.65306122449692,195.41697957862925 38.330480579286814,196.20859418981127 34.56221198150888,200.41019247785152 32.59512837394141,204.70304557000054 31.76563528634142,210.4267171768879 32.52402896631975,215.7544668923074 34.01711652392987,218.9510537431197 35.510204081539996,220.89942636997148 37.24028966424521,221.5996184968244 39.49177090183366,221.7518338766822 42.549045424559154,219.89479892542295 46.41211323242169,214.44537483550084 47.62080316001084,210.09182566893287 48.0,206.43843008644762 46.74391046736855,200.74509897448297 45.06122448970564,197.36556417963584 43.40223831462208,195.9041273745097 40.60566161957104,195.41697957862925 38.851876234286465,195.84323396005493 37.52468729426619,196.8175265347527 34.58591178408824,200.41019247785152 32.80842659645714,203.94190761812206 31.670836076373234,210.21360445911705 32.59512837394141,215.7544668923074 34.206714944099076,219.1337144223071 35.6524028966669,220.89942636997148 37.40618828171864,221.5996184968244 39.51547070441302,221.66050466158777 41.221856484538876,221.02119907656743 42.88084265962243,219.59036544547416 46.08031599735841,215.05425584729528 47.64450296247378,210.33538318071805 47.9526003949577,206.56021093318122 47.31270572729409,202.66318982988014 46.24621461483184,199.5272546831111 43.89993416715879,196.17814752759296 40.55826201441232,195.44742634800787 37.92758393671829,196.45216733352572 34.70441079651937,200.2579620807228" stroke="#4DD2FF" stroke-linecap="round" stroke-linejoin="round" stroke-width="0.5"><title>2024-12-01 10.0km</title><desc>1733006314000</desc></polyline><polyline fill="none" points="74.26689785474446,227.79311604078976 77.1659474261105,227.6689855955192 79.13085880235303,226.551809229044 85.2832862258656,218.69007772995974 87.5703142209677,210.00055098175653 87.11935095442459,202.9246037825651 84.31693636870477,195.47605432753335 82.41644831642043,193.44836096445215 79.96836201171391,192.33105456383782 77.00488911662251,192.20690914604347 74.04141622141469,193.61388747752062 69.59620687866118,198.869305814791 67.2447555597173,203.71082854777342 66.14955905498937,207.8488189750933 65.73080745025072,211.448823273764 66.11734739306848,217.11770620560856 68.62985702161677,223.90367051685462 70.30486344068777,226.30354723794153 73.49381796910893,227.8758696419245 75.74863430217374,228.0 78.38999057852197,226.92420182278147 81.25682848785073,224.40019834198756 84.83232295920607,219.31074838535278 87.02271596866194,213.6419077355822 87.63473754480947,206.3591491302359 86.47511771623977,200.1934908934345 85.2832862258656,197.2968282875372 83.15731654025149,194.11046645743772 81.16019350232091,192.66210875473917 76.97267745470162,192.12414550504764 75.42651768331416,192.66210875473917 72.49525645014364,195.18638470335281 69.59620687866118,198.869305814791 67.7601421502186,202.30389853552333 66.37504068831913,206.6074279618624 65.79523077409249,211.986751165241 66.11734739306848,216.91081458967528 68.565433697775,223.90367051685462 70.17601679300424,226.13803912734147 72.26977481669746,227.46210140336188 75.1688243879471,227.9586232197762 77.90681564994156,227.29659394492046 82.31981333065778,223.0761222783185 85.47655619715806,218.1107839360775 86.79723433521576,214.4281038424524 87.69916086853482,206.6074279618624 86.47511771623977,200.0693487956887 85.2832862258656,197.17268496670295 83.31837484973948,194.11046645743772 81.22461682604626,192.62072700128192 77.58469903084915,192.12414550504764 75.20103604986798,192.78625398030272 73.65487627871335,193.90355865110178 69.49957189301495,198.9106866887596 67.18033223599195,203.75220874027582 66.21398237883113,207.22812412367784 66.05292406934313,215.95911128103035 66.6005223216489,219.1038583124755 68.5976453598123,223.82091579778353 69.85390017391182,225.80702262671548 72.30198647861835,227.46210140336188 74.75007278332487,228.0 77.68133401649538,227.29659394492046 79.61403373070061,226.05528503714595 82.64192994975019,222.66234728557174 85.83088447817136,217.49011074760347 87.11935095442459,213.43501367379213 87.76358419237658,207.2695038211532 86.47511771623977,200.11072950073867 84.12366639717948,195.26914748223498 81.86885006399825,192.95178086619126 77.52027570700739,192.08276367589133 75.90969261189457,192.45519992915797 73.97699289768934,193.69665069913026 70.78803836915176,197.08992272350588 67.01927392662037,204.24877059672144 66.02071240742225,208.51089203896117 65.79523077409249,212.97984622544027 66.53609899792355,218.97972419889993 67.59908384061418,221.83479555347003 69.82168851210736,225.7242684433295 72.30198647861835,227.50347825340577 74.94334275473375,228.0 77.77796900225803,227.3379708182183 80.25826696876902,225.4346286181535 83.4472214973066,221.58652957971208 86.44290605431888,215.91773280643974 87.63473754480947,210.6626192004187 87.66694920673035,206.19362979277503 85.41213287343271,197.42097155592637 83.80154977820348,194.6484260725265 81.67558009258937,192.70349050246296 78.71210719738156,192.0 75.20103604986798,192.86901743503404 72.33419814053923,195.22776609574794 69.53178355493583,198.869305814791 66.79379229317419,204.8280917025404 65.56974914087914,212.15226724155946 66.37504068831913,218.85559003276285 68.75870366918389,224.40019834198756 70.33707510260865,226.17941616367898 72.8817963929614,227.75173923152033 75.87748094997369,227.8758696419245 78.35777891648468,226.88282489127596 83.41500983538572,221.46239651410724 85.05780459253583,219.0211022424919 86.82944599725306,214.5522398777539 87.73137253057212,207.02122554872767 87.18377427814994,203.04874467480113 85.4443445353536,197.58649583236547 83.64049146871548,194.4829001420585 81.09577017824631,192.57934524209122 77.71354567841627,192.04138184091426 74.49237948807422,193.15868934238097 69.46736023121048,198.95206755693653 70.46592175017577,200.77281999000115" stroke="#4DD2FF" stroke-linecap="round" stroke-linejoin="round" stroke-width="0.5"><title>2024-11-29 13.9km</title><desc>1732833187000</desc></polyline><polyline fill="none" points="105.33333333331393,216.8085588758404 107.50737684423802,215.59437120175426 108.23655913985567,215.50764305309713 108.87121780443704,216.1667754524824 112.8547136784182,216.73917704520136 114.20505126286298,216.27084866706718 114.3940985246445,214.88319858142495 116.16304076020606,213.99856349808397 118.02650662662927,213.42614917867468 118.33708427101374,213.63430014785263 118.29657414357644,215.81986410266836 118.62065516377334,216.72183158143162 119.56589147285558,217.86662695406994 120.57864466117462,218.31760403024964 122.06401600397658,217.62379246037744 123.45486371591687,217.39830285940116 124.88622155535268,217.6064471211139 126.11502875713632,218.14415150390414 127.50587646907661,217.43299359410594 129.36934233561624,216.89528610918205 130.59814953739988,216.82590432737925 132.40760190051515,217.17281284589262 133.25831457861932,216.09739326062117 133.90647661918774,215.92393761014682 135.70242560637416,216.72183158143162 137.1067766941851,216.4269583241039 139.17279319826048,214.55362939048064 140.1450362590258,213.0445381556492 141.02275568892946,210.65076933438831 141.3198299575015,208.01410059712362 140.77969492372358,205.18655763049173 139.79394848714583,202.94876291810942 138.55163790943334,201.90791432376864 137.13378344586818,201.68239596974308 136.05351337831235,201.95995696228783 135.13528382097138,202.65385670885735 133.66341585392365,204.56206086780003 132.6776694173459,206.47023548330617 132.1105276318849,209.19366989925038 132.42110527626937,212.94046221707686 133.69042260560673,215.66375367674482 134.5681420355104,216.37492179377296 135.75643910979852,216.70448611525353 136.59364841209026,216.63510422604304 137.5388847211725,216.18412099433772 139.17279319826048,214.51893784543063 140.1450362590258,213.0445381556492 141.0362590648001,210.6160766909088 141.27931982988957,207.68451303907932 140.3205801449949,203.9722554642285 139.68592148041353,202.80998361343518 138.63265816454077,201.90791432376864 137.63340835209237,201.68239596974308 136.51262815704104,201.80382898084645 135.648412103008,202.27221233167074 134.3925981494831,203.4518365876429 132.66416604147526,206.52227619535552 132.05651412851876,210.11303226261225 132.47511877969373,213.02719217195408 133.74443610903108,215.68109928941703 134.48712178046117,216.3402307612414 135.27031757938676,216.652449702 137.05276319076074,216.47899483256333 139.28082020499278,214.41486315170187 140.65816454112064,211.89969799773098 141.33333333331393,208.1008340185872 140.88772193045588,205.48145777956233 139.6454113528016,202.75794133384625 138.59214803698706,201.90791432376864 137.5388847211725,201.68239596974308 136.37759439856745,201.85587166332698 135.31082770688226,202.48038213846303 134.3925981494831,203.33040520024952 133.12328082020395,205.56819298328628 132.3940985245863,207.52839230925747 132.08352088026004,209.43652100131294 132.4616154038813,212.99250019729516 133.52838209556649,215.4209148434311 134.51412853214424,216.3402307612414 135.68892223050352,216.72183158143162 136.59364841209026,216.66979517554137 137.59289822453866,216.1667754524824 139.30782695673406,214.43220894011756 140.1450362590258,213.02719217195408 141.1442860715324,210.25180334442848 141.30632658163086,208.06614065734175 141.13078269566176,206.6957450767659 140.11802950734273,203.39979457913432 139.11877969489433,202.23751732971868 138.18704676174093,201.73443870344636 137.1067766941851,201.68239596974308 135.9589897475089,202.02934711272246 134.3250812703045,203.59061516961083 133.90647661918774,204.33654737029428" stroke="#4DD2FF" stroke-linecap="round" stroke-linejoin="round" stroke-width="0.5"><title>2024-11-27 11.3km</title><desc>1732665796000</desc></polyline><polyline fill="none" points="152.0,217.27260599015426 152.69513553648721,217.11806205285393 154.52655031561153,216.01907729873346 155.20831786107738,215.9675621455608 155.87671741552185,216.60291418164707 159.88711474195588,217.11806205285393 161.15707389527233,216.75745877137524 161.3041217972641,215.46958121011266 161.66505755658727,215.12614489823318 163.56331229110947,214.23320596374106 165.0204233197146,213.94128220254788 165.30115113256034,214.30189380607771 165.4481990345521,217.10089049221278 165.78239881171612,217.51300728135539 174.8458967693732,217.70189367797866 176.71741552173626,217.27260599015426 179.15038989973255,217.5816932776288 180.0594132937258,216.48271269879478 180.70107686595293,216.25948105941643 182.22502785001416,217.0493757956865 183.8559227627702,216.91200316535833 185.17935388046317,215.83018829737557 187.01076865952928,213.27157211150916 187.79948013368994,210.7815920996727 187.95989602676127,209.2875797031811 187.47864834754728,205.76713332827057 186.74340883776313,203.96393853066547 186.101745265536,203.0365708291938 185.37987374677323,202.53853711738338 183.76234682509676,202.29810632202134 182.57259561825776,202.74462027921254 181.82398811733583,203.3800411701377 180.56739695509896,204.99433882100857 179.57816561457003,206.8662104190007 178.92313405120512,209.78558586785948 179.32417378388345,213.7180459139272 180.58076494612033,216.1907943189508 181.8373561084736,216.9978610774706 183.2142591905431,217.11806205285393 184.13665057561593,216.77463038040878 185.2729298180784,215.74432956375676 187.33160044561373,212.48165292073827 187.98663200886222,209.047162206567 187.43854437436676,205.6297479958448 186.64983290014789,203.86089802304195 185.95469736354426,202.93352953840804 184.8050501300022,202.38397451765923 183.54845896770712,202.31527996600198 182.53249164501904,202.77896743899328 181.34274043823825,203.87807144701947 179.60490159678739,206.7459993444063 178.92313405120512,210.28359000001365 179.03007797989994,212.53316954557522 179.45785369473742,214.00997020921932 180.6609728927142,216.29382441514463 182.03787597478367,217.06654736362543 183.28109914594097,217.0837189291051 183.9227627181681,216.91200316535833 185.19272187154274,215.79584481116035 187.21128852578113,212.72206365054444 187.74600816937163,210.93614406215056 188.0,208.56632579220604 187.30486446339637,205.30345721127378 186.64983290014789,203.84372459660517 185.7541774972342,202.77896743899328 184.71147419232875,202.33245360755973 183.57519494986627,202.29810632202134 182.57259561825776,202.7102731097475 181.40958039357793,203.77503086689103 180.4738210174255,205.06303186431614 179.49795766803436,207.02076734089496 179.0033419977408,208.8754351332318 178.8830300780246,210.71290227570717 179.44448570365785,214.06148618878797 180.5406609729398,216.1564509342279 181.0753806164721,216.62008581240661 182.2517638321733,217.10089049221278 183.72224285179982,216.9806894998328 185.84775343484944,215.00594196071324 187.39844040106982,212.20689722098905 188.0,208.78957150594943 187.30486446339637,205.2691107621722 185.91459339024732,202.86483529617544 184.87189008540008,202.38397451765923 183.78908280731412,202.29810632202134" stroke="#4DD2FF" stroke-linecap="round" stroke-linejoin="round" stroke-width="0.5"><title>2024-11-24 10.4km</title><desc>1732400098000</desc></polyline><polyline fill="none" points="12.0,256.9195949974164 14.157303370768204,255.62062939178577 14.831460674176924,255.5686704824111 15.613483146065846,256.174856393598 19.577528089866973,256.76371984856814 20.912359550595284,256.38269087590015 21.101123595493846,254.9278421299532 22.287640449416358,254.39092931991036 25.05168539326405,254.47752831859543 25.375280898879282,256.7464003754285 26.157303370768204,257.802883778917 26.898876404506154,258.2705046853225 27.532584269647487,258.3051432002467 29.25842696626205,257.54309361887135 30.53932584269205,257.4218580231827 33.006741573044565,258.1492698060538 34.48988764040405,257.3006223080738 36.06741573032923,256.8676366364234 39.114606741582975,257.16206705886725 40.17977528087795,255.91506279724854 40.86741573031759,256.4866079854619 42.35056179773528,256.69444194130483 43.267415730282664,256.64248348522233 44.197752808977384,256.2441345933985 45.88314606738277,254.52948768864735 46.77303370786831,253.12657699909323 47.77078651683405,250.28606688285072 47.97303370782174,248.0343964289641 47.64943820220651,245.78268477780512 46.26067415729631,242.69950507439353 45.235955056210514,241.93735885831848 43.76629213482374,241.69485679974605 42.87640449439641,241.954680415678 42.04044943820918,242.56093338618666 39.856179775320925,245.54019029653864 38.912359550537076,248.4500925365137 38.777528089878615,249.87037697662163 39.00674157298636,252.4337756984969 39.68089887639508,254.33896989135974 40.50337078649318,255.7765059882804 41.1235955056618,256.36537134914397 42.4584269663319,256.7117614217641 43.658426966227125,256.53856650731905 44.642696629220154,255.88042360964027 45.89662921341369,254.51216790109902 46.82696629210841,253.07461703683657 47.47415730339708,251.51580796822236 47.94606741570169,248.93506955403427 47.63595505617559,245.7307217148773 47.02921348315431,244.0852133743465 45.950561797770206,242.3530755613465 45.168539325823076,241.92003729856515 43.752808988734614,241.71217839119345 42.822471910039894,241.92003729856515 42.05393258429831,242.49164748356998 40.73258426965913,244.03324959470046 39.775280898902565,245.6094744827642 39.303370786539745,246.7699788043392 38.791011235967744,249.43736516460922 39.04719101119554,252.45109577855328 39.694382022426,254.39092931991036 40.53033707867144,255.81114520513802 41.29887640447123,256.40001040022617 42.62022471911041,256.7290808998223 43.8471910112421,256.43464944162406 44.575280898890924,255.91506279724854 45.950561797770206,254.46020852374932 46.84044943813933,253.02265705259924 47.85168539325241,249.92233829170436 47.97303370782174,247.99975502327288 47.63595505617559,245.74804273830523 47.01573033706518,244.0505708569981 46.11235955054872,242.49164748356998 45.19550561794313,241.90271573641076 44.06292134831892,241.71217839119345 42.83595505618723,242.0412881657321 41.71685393259395,242.8380766065311 40.47640449437313,244.37967437798216 39.39775280904723,246.562128088568 38.85842696623877,248.81382547882095 38.80449438205687,250.68443505883624 39.08764044940472,252.78017683628423 39.70786516851513,254.46020852374932 40.5168539325241,255.81114520513802 41.78426966286497,256.60784450235224 43.18651685392251,256.64248348522233 44.359550561755896,256.0882585890722 45.991011235979386,254.40824912450626 46.96179775282508,252.7974968675844 47.47415730339708,251.55044838428148 47.89213483146159,249.52396764888545 48.0,248.05171712811716 47.64943820220651,245.71340068905556 46.67865168536082,243.30575437557854 46.11235955054872,242.5262904397605 44.88539325847523,241.8161078887424 43.348314606701024,241.78146473268134" stroke="#4DD2FF" stroke-linecap="round" stroke-linejoin="round" stroke-width="0.5"><title>2024-11-21 10.8km</title><desc>1732142576000</desc></polyline><polyline fill="none" points="58.66666666668607,256.6165907342438 60.62363155907951,255.35969763807225 61.26236315589631,255.28986987044482 62.05058512638789,255.95323207586625 64.3744809362106,256.09288682502665 65.84220460552024,256.4769365746033 67.21479803696275,256.1976277837457 67.51377878442872,254.6090470764393 71.30539826350287,253.2124758056816 71.53642884112196,253.50924851619493 71.76745941862464,256.21508460158657 73.4118535296293,258.4146239974216 74.00981502456125,258.65901485642826 74.09135522844736,258.0305802462972 76.34730086824857,257.2101191587135 77.62476406199858,257.24503250701673 79.60890902223764,257.85601451186085 81.28048320120433,256.93081201856694 82.38127595320111,256.63404749311303 83.74027935072081,256.564220442815 85.69724424311426,256.9133553014108 86.75726689316798,255.72629277320084 88.82295205740957,256.4245662242465 90.3722159305471,256.23254141700454 92.50585126463557,254.31227699689043 93.4979237447842,252.7062148373152 94.34050585125806,250.45420135550376 94.66666666668607,247.67840755600628 94.32691581733525,245.39138611920498 92.88637221587123,242.266303919474 91.83993959985673,241.5155741201961 90.52170630428009,241.35844405226817 88.78218195546651,242.0742571940209 87.04265760665294,244.0645451941673 85.67006417521043,247.24195633899217 85.35749339376343,249.9828445224921 85.52057380147744,252.02537786373432 86.79803699511103,255.13275724961568 88.22499056247761,256.2674550404263 90.1275953190052,256.3896526450262 91.28274820686784,255.63900831549836 92.85919214802561,253.77110620064195 93.83767459419323,252.00792045627895 94.48999622499105,249.82572518011148 94.66666666668607,247.7133235869842 94.3676859192201,245.63580263627227 92.94073235185351,242.33613901864737 91.36428841069574,241.39336186234868 90.07323518308112,241.42827966260666 88.83654209133238,242.05679838607466 87.64061910158489,243.31382627860876 86.40392600983614,245.19934423218365 85.79237448098138,246.82296172589122 85.38467346172547,248.93537848108826 85.58852397132432,252.19995180291153 86.41751604381716,254.41701945898967 87.31445828615688,255.7437496573839 88.6191015477525,256.40710943585145 90.10041525104316,256.3896526450262 91.33710834279191,255.56918070507527 92.60098150250269,254.17262024324737 93.8104945262894,252.0777500712793 94.3676859192201,250.33199790410436 94.66666666668607,247.7307815988388 94.47640619101003,246.3166746801362 93.94639486598317,244.22167183404963 92.94073235185351,242.35359778732527 91.47300868254388,241.41082076368184 90.69837674597511,241.34098514356447 89.52963382407324,241.5504918860679 88.87731219327543,241.9869631296242 87.64061910158489,243.27890900915372 86.26802567002596,245.60088602051837 85.64288410719018,247.43399506364221 85.38467346172547,249.21470362362743 85.5613439034205,251.99046304640797 86.78444696113002,255.11530027948174 87.58625896560261,255.95323207586625 88.6191015477525,256.40710943585145 89.8965647413861,256.4245662242465 90.68478671193589,256.1278004878186 92.87278218200663,253.80602051679307 94.23178557952633,250.9604715144742 94.66666666668607,247.66094953676657 93.85126462817425,244.01216960332385 92.91355228389148,242.33613901864737 92.17969044920756,241.74253942244104 91.37787844473496,241.41082076368184 89.84220460552024,241.44573855905765 88.98603246506536,241.8647513362448 88.08909022272564,242.7726074976381 87.09701774257701,243.9947110681387 85.98263495659921,246.24684182200144 85.35749339376343,249.7035211095863 85.83314458286623,252.96807421684935 87.12419781048084,255.58663761139178 88.52397130994359,256.44202301014593 89.88297470746329,256.4769365746033 90.63042657612823,256.18017096341646 92.7776519440813,253.96313481790276 93.85126462817425,252.0777500712793 94.38127595320111,250.4367437269393 94.65307663270505,247.59111743539688 94.31332578329602,245.47867778775253 93.53869384678546,243.40111940920178 92.85919214802561,242.266303919474 91.90788976976182,241.62032738823473 90.90222725557396,241.35844405226817 89.71989429969108,241.5155741201961 88.82295205740957,242.05679838607466 87.61343903362285,243.29636764512543 85.92827482067514,246.2992164692987 85.52057380147744,247.8704456049527 85.34390335972421,250.34945554736623 86.15930539823603,253.87584911959857 86.75726689316798,255.08038633181422 87.61343903362285,255.9706889281224 88.40166100411443,256.37219585175626 89.91015477542533,256.40710943585145 90.65760664403206,256.1278004878186 91.71762929408578,255.22004206352722 92.72329180827364,254.0155062074191 93.9735749339452,251.79843137548596 94.65307663270505,248.37672630904126 94.19101547758328,245.00730204790307 92.87278218200663,242.28376269793807 91.32351830881089,241.39336186234868 90.1275953190052,241.41082076368184 89.23065307666548,241.75999827463966 87.69497923745075,243.20907444076875 86.97470743674785,244.3264228167318" stroke="#4DD2FF" stroke-linecap="round" stroke-linejoin="round" stroke-width="0.5"><title>2024-11-17 16.3km</title><desc>1731797391000</desc></polyline></svg>