<?xml version="1.0" encoding="utf-8" ?>
<svg baseProfile="full" height="300mm" version="1.1" viewBox="0,0,200,300" width="200mm" xmlns="http://www.w3.org/2000/svg" xmlns:ev="http://www.w3.org/2001/xml-events" xmlns:xlink="http://www.w3.org/1999/xlink"><defs /><rect fill="#222222" height="300" width="200" x="0" y="0" /><text fill="#FFFFFF" style="font-size:12px; font-family:Arial; font-weight:bold;" x="10" y="20">Over 5km Runs</text><text fill="#FFFFFF" style="font-size:4px; font-family:Arial" x="10" y="280">ATHLETE</text><text fill="#FFFFFF" style="font-size:9px; font-family:Arial" x="10" y="290">sagasw</text><text fill="#FFFFFF" style="font-size:4px; font-family:Arial" x="65" y="280">SPECIAL TRACKS</text><rect fill="yellow" height="2.6" width="2.6" x="65" y="283" /><text fill="#FFFFFF" style="font-size:3px; font-family:Arial" x="70" y="285.5">Over 20.0 km</text><rect fill="red" height="2.6" width="2.6" x="65" y="287" /><text fill="#FFFFFF" style="font-size:3px; font-family:Arial" x="70" y="289.5">Over 40.0 km</text><text fill="#FFFFFF" style="font-size:4px; font-family:Arial" x="120" y="280">STATISTICS</text><text fill="#FFFFFF" style="font-size:3px; font-family:Arial" x="120" y="285">Number: 20</text><text fill="#FFFFFF" style="font-size:3px; font-family:Arial" x="120" y="290">Weekly: 2.5</text><text fill="#FFFFFF" style="font-size:3px; font-family:Arial" x="141" y="285">Total: 261.1 km</text><text fill="#FFFFFF" style="font-size:3px; font-family:Arial" x="141" y="290">Avg: 13.1 km</text><text fill="#FFFFFF" style="font-size:3px; font-family:Arial" x="167" y="285">Min: 7.7 km</text><text fill="#FFFFFF" style="font-size:3px; font-family:Arial" x="167" y="290">Max: 19.1 km</text><polyline fill="none" points="12.25,59.24197722636745 13.09168704150943,60.005162172354176 17.976772616093513,60.76834325233358 18.488386308134068,60.3867531955766 19.54462102690013,60.25955629526288 19.84168704156764,58.45758866969845 22.911369193112478,57.05839894217206 24.413202933908906,56.740399464441 24.627750611223746,56.888799304229906 24.924816625891253,60.61994723403768 26.723716381413396,62.65507988464378 31.26222493883688,61.61631769580708 34.43092909530969,62.50668572465656 35.93276283622254,61.573919086979004 38.30929095350439,60.91673912448459 41.70904645475093,61.27712849112868 43.07885085575981,59.77196718240157 43.7389975549886,59.81436629833479 45.174816625833046,60.64114667415561 47.55134474328952,60.55634889569774 50.373471882601734,57.7579954303219 51.33068459655624,56.21039884326456 52.353911980462726,53.39076419160119 52.66748166253092,49.74424111931876 52.271393642935436,47.30610959228943 51.380195598932914,44.825535278985626 50.63753056229325,43.65943922178121 49.63080684590386,42.7901617425523 48.16198044002522,42.366122127408744 46.46210268943105,42.599344063492026 45.191320293350145,43.61703555875283 43.37591687036911,45.864413253511884 41.85757946211379,49.2990200464119 41.395476772624534,53.369563731204835 42.41870415647281,57.73679558446747 43.54095354519086,59.6235701826663 44.61369193147402,60.365553719660966 46.247555012232624,60.78954267158406 47.5843520782073,60.51394998856995 50.43948655249551,57.69439588379464 52.32090464542853,53.62396905946662 52.7004889974487,49.8714468984399 51.578239608730655,45.249567970706266 49.94437652808847,42.95977725440753 48.277506112412084,42.366122127408744 46.79217603907455,42.514536128452164 45.10880195599748,43.70184287300799 43.34290953539312,45.90681628395396 41.725550122209825,49.680638189413 41.395476772624534,53.1787594530615 41.544009779870976,54.556784920801874 42.83129584346898,58.58478709142946 43.59046454762574,59.66596934036352 44.646699266450014,60.429152138516656 46.08251833735267,60.76834325233358 47.51833740825532,60.55634889569774 50.42298288503662,57.69439588379464 51.759779951069504,55.25639302631316 52.3704156478052,53.43316510359 52.68398533004802,49.723040145632694 51.380195598932914,44.80433361309406 50.389975550060626,43.29900770509266 49.35024449881166,42.6205460397905 47.74938875308726,42.366122127408744 46.44559902191395,42.641748013033066 45.29034229827812,43.53222819673829 43.68948655255372,45.41918071320106 42.20415647927439,48.15415981669503 41.4944987774943,51.18590032620705 41.44498777500121,53.26356138428673 41.67603911983315,55.213992627555854 42.38569682149682,57.50359708322503 43.22738386306446,59.157178660374484 44.3991442542756,60.28075578607968 46.70965770166367,60.76834325233358 47.73288508557016,60.429152138516656 49.696821515855845,58.58478709142946 51.82579462102149,55.150392007039045 52.40342298289761,53.369563731204835 52.75,50.42267070001981 52.23838630801765,47.157700312149245 50.72004889964592,43.72304469406663 49.878361858136486,42.917373394360766 48.426039119716734,42.366122127408744 47.36980440100888,42.344920115341665 45.81845965766115,43.02338302209682 43.37591687036911,45.991622309040395" stroke="#4DD2FF" stroke-linecap="round" stroke-linejoin="round" stroke-width="0.5"><title>2024-12-31 11.1km</title><desc>1735607974000</desc></polyline><polyline fill="none" points="57.25,58.71753270008776 58.04153094463982,59.54364317310683 62.97210912051378,60.179109682751005 64.53868078178493,59.776647871462046 64.70358306186972,58.16678986597981 65.11583876219811,57.78550518506381 67.55639250815148,56.599280001508305 69.53521986969281,56.26035680352652 69.66714169387706,58.992903361533536 69.99694625410484,60.094380969778285 71.7943811074365,62.10667501899297 72.5199511400424,62.21258448691515 73.8061889251112,61.49239863528055 76.03236970677972,61.08994033516501 79.23147394141415,62.02194739089464 81.88640065147774,60.66629885681323 84.21152280125534,60.39093125652289 85.91001628659433,60.729845154550276 87.460097719857,61.42885265946097 88.1032166123041,62.95394867642608 91.0054967427277,63.1445845921553 91.30232084682211,62.276130131969694 90.69218241039198,61.42885265946097 90.90655537461862,60.645116751562455 92.95134364825208,59.67073668965895 94.00671824102756,58.82344455253042 95.29295602603815,57.38303697411902 96.99144951131893,54.12088650322403 97.70052931591636,49.608834594168 96.66164495114936,45.09664742293535 95.68872149835806,43.16886424392578 94.38599348533899,42.19437104347162 92.50610749184852,41.87660015746951 91.20337947888765,42.30029452317103 88.993688925053,44.52467037462338 87.88884364819387,46.26177913091669 86.8169788273517,49.12160963015049 86.52015472308267,50.79511486823321 86.75101791525958,53.40066193691746 86.55313517909963,54.142069526496925 86.93241042346926,55.83670173290011 88.07023615634535,58.420979116737726 89.3234934853972,59.797830098847044 90.51078990229871,60.20029185357271 91.97842019540258,60.20029185357271 93.52850162866525,59.289455818143324 95.29295602603815,57.38303697411902 96.97495928342687,54.16325254687399 97.58509771991521,51.790735739283264 97.75,49.630018252457376 96.5462133550318,44.71532963225036 95.55679967429023,43.062941375610535 94.3695032572723,42.173186338623054 92.70399022800848,41.89778490405297 91.26934039086336,42.321479210062535 89.99959283386124,43.3807097569661 88.36706026061438,45.435595759161515 86.76750814332627,49.333446764809196 86.43770358309848,52.21440219759825 86.71803745930083,53.527760640208726 86.56962540716631,54.142069526496925 86.99837133550318,55.963798379234504 88.2681188925053,58.73871507651347 89.90065146575216,60.05201659546583 91.35179153090576,62.23376637158799 90.7581433224841,61.47121664634324 91.0054967427277,60.645116751562455 91.8794788273517,60.53920618077973 91.99491042346926,60.179109682751005 93.6439332247246,59.183544293555315 96.31535016279668,55.77315336948959 97.30476384359645,53.1676473687985 97.68403908796608,50.85866533340595 97.32125407166313,47.06677395165025 95.91958469053498,43.46544787862513 94.89719055371825,42.44858726931852 93.42956026055617,41.87660015746951 92.11034201952862,42.00370859238319 91.07145765476162,42.469771935400786 88.38355048856465,45.39322725888633 86.75101791525958,49.24871194669686 86.56962540716631,54.05733741540462 87.75692182412604,57.82787019730313 88.33407980459742,58.82344455253042 89.66978827357525,59.94610560734873 92.01140065141954,60.20029185357271 93.52850162866525,59.289455818143324 95.24348534207093,57.467767213252955 96.76058631925844,54.75637590578117 97.51913680776488,52.320318625846994 97.75,49.69356920954306 96.9419788273517,45.62625386287982 95.85362377850106,43.35952521904255 95.14454397390364,42.59687986939389 93.95724755700212,42.024893321126 92.63802931597456,41.89778490405297 91.21986970683793,42.36384857507073 90.39535830618115,43.041756792983506 88.74633550492581,44.92717296858609 87.50956840388244,47.13032599091821 86.53664495114936,50.96458271569281 86.56962540716631,54.099703476938885 87.27870521170553,56.74755866067426 88.53196254075738,59.07763269440329 90.67569218244171,61.068758289547986 91.36828175897244,62.14903881508508 91.28583061887184,63.03867577989877 91.35179153090576,62.21258448691515 90.77463355055079,61.534762604307616 90.89006514655193,60.66629885681323 91.9619299674523,60.47565980257059 94.73228827363346,58.03969507967122 96.7935667752754,54.777558839690755 97.48615635180613,52.341501902541495 97.70052931591636,49.142793357008486 96.61217426712392,44.8000670025649 95.67223127034958,43.16886424392578 94.43546416942263,42.173186338623054 92.62153908796608,41.87660015746951 91.35179153090576,42.23674044430663 88.993688925053,44.58822348731337 87.0643322475953,48.25307426089421 86.52015472308267,50.56209626661439 86.5036644951324,52.6592506954039 86.86644951143535,55.39186262545991 87.64149022795027,57.5524974045984 88.31758957653074,58.80226218797907 89.50488599354867,59.8613767632778 91.10443811077857,60.263838348022546 92.09385179152014,60.179109682751005 93.39657980459742,59.374184984131716 95.44136807811446,57.255941526047536 96.7935667752754,54.75637590578117 97.60158794786548,51.55771867890144 97.75,49.54528360138647 97.3542345277383,47.02440591042978 96.62866449507419,44.8000670025649 95.9855456026271,43.48663240163296 94.73228827363346,42.321479210062535 93.28114820842165,41.89778490405297 91.66510586324148,42.13081691999105 90.54377035831567,42.87228002479242 89.0761400651536,44.48230161789979 87.460097719857,47.045589932546136 87.01486156351166,48.40136114219786 86.47068403911544,52.532151258783415 86.78399837133475,55.116485376333 87.64149022795027,57.5736799450533 88.31758957653074,58.80226218797907 89.5543566775159,59.84019454482768 91.13741856679553,60.22147402135306 92.357695439714,60.05201659546583 93.39657980459742,59.374184984131716 95.40838762215571,57.29830668734212 96.82654723129235,54.629278239939595 97.53562703583157,52.08730238530552 97.73350977199152,49.630018252457376 96.71111563511658,45.0754631266027 95.60627035831567,43.062941375610535 94.45195439748932,42.173186338623054 93.14922638435382,41.8554154078447 91.4837133550318,42.173186338623054 89.53786644950742,43.88913777153357 88.41653094463982,45.35085874666402" stroke="#4DD2FF" stroke-linecap="round" stroke-linejoin="round" stroke-width="0.5"><title>2024-12-30 19.1km</title><desc>1735521239000</desc></polyline><polyline fill="none" points="102.25,59.33413524572097 102.74031476996606,59.1031978604442 103.47578692488605,59.984956862885156 108.18280871660681,60.63577564098523 109.81719128327677,60.17390454247652 110.14406779658748,58.4313779797958 114.73668280872516,56.709825726939016 115.24334140436258,60.23688704922097 116.86138014530297,62.52523342768836 117.82566585956374,62.48324573681748 120.76755447936011,61.47553761138988 122.51634382567136,61.66448340337956 124.4449152542511,62.37827645802463 126.58595641644206,61.22360951657174 128.3020581114106,60.80372841320059 129.4297820822685,60.719752050732495 131.84866828087252,61.160627426361316 133.22154963680077,59.71203201422759 135.34624697337858,60.53080506238621 137.45460048422683,60.3628519828635 138.30447941890452,59.90098003948515 140.13498789351434,58.011489018128486 141.5732445520698,55.66008899388544 142.47215496370336,52.76277728402056 142.75,50.0753653968859 141.96549636806594,46.380095001659356 140.83777239714982,44.028511635100585 139.66101694916142,42.87370265972277 137.9776029055356,42.47476657232619 136.96428571431898,42.579749856638955 135.7384987893165,43.272637680129264 132.86198547214735,47.00997710884258 131.86501210648566,49.7394355070428 131.58716707024723,51.922966269776225 131.9630750605138,55.828047367569525 132.68220338982064,57.948505571926944 133.97336561745033,59.7330262511241 135.29721549642272,60.55179918400245 137.07869249390205,60.57279330266465 138.14104116224917,60.026945256773615 140.16767554479884,58.032483494258486 142.0145278449636,54.58934991680144 142.73365617432864,50.13835216703592 141.78571428573923,45.81319883126707 140.15133171912748,43.188651448639575 138.79479418887058,42.579749856638955 137.4382566586719,42.47476657232619 135.88559322035871,43.16765488340752 134.8559322033543,44.21747952538135 133.48305084742606,45.939175944178714 132.2899515738245,48.31172503565904 131.57082324451767,52.09092885082646 132.14285714289872,56.45788958463527 133.09079903148813,58.59933323354926 134.13680387410568,59.92197424978076 135.16646489105187,60.53080506238621 136.6210653752787,60.67776385175239 138.51694915257394,59.69103777446435 140.11864406778477,58.032483494258486 141.3934624698013,56.03799506869109 142.602905569016,52.006947583911824 142.73365617432864,50.20133891062869 142.34140435839072,47.74483620574756 141.0665859564324,44.34345798594586 140.15133171912748,43.14665831522143 138.64769975782838,42.558753205652465 137.40556900721276,42.495763235070626 136.17978208238492,42.97868566321267 133.4340193705284,46.02316062703903 131.89769975788658,49.7394355070428 131.58716707024723,52.34287236780801 131.68523002421716,54.63133982929867 132.17554479424143,56.667836399472435 133.09079903148813,58.64132201745815 133.66283292975277,59.523083749591024 134.8559322033543,60.42583440983435 136.294188861968,60.719752050732495 137.6507263922249,60.32086368344608 140.2167070218129,57.99049453898624 141.96549636806594,54.65233478108712 142.4884987893165,52.7417820662813 142.7173123486573,50.09636098994815 141.6876513317111,45.456263100146316 139.9225181597867,43.020678843939095 138.30447941890452,42.558753205652465 137.0296610169462,42.6217431496334 136.31053268769756,42.894699266253156 134.41464891046053,44.72139272923232 132.35532687656814,48.227741641239845 131.84866828087252,49.76043114728236 131.55447941890452,52.48983922295156 132.01210653752787,56.16396354751487 132.71489104116336,57.92751108396624 134.21852300246246,60.11092200926214 135.4443099273485,60.57279330266465 136.9152542373049,60.67776385175239 139.31779661012115,59.08220353492652 141.72033898311201,55.40815107889648 142.68462469731458,51.10414597901399 142.37409200973343,47.78682804477285 141.90012106538052,46.17013370827772 141.32808716705767,44.8263744324795 140.2167070218129,43.293634230591124 138.5006053269026,42.579749856638955 137.3565375302569,42.558753205652465 136.19612590793986,43.020678843939095 134.77421307511395,44.322461583287804 133.45036319608334,46.002164460733184 132.2572639224818,48.395708382784505 131.57082324451767,51.9439616027521 131.71791767555987,54.694324675932876 132.35532687656814,57.25568590909825 134.12046004837612,59.984956862885156 135.4116222760058,60.593787418387365 137.09503631963162,60.614781531185145 139.25242130755214,59.1031978604442 141.3607748184004,56.20595301684807 142.61924939468736,52.321877091017086 142.73365617432864,50.15934775120695 142.24334140436258,47.36690912228369 141.63861985475523,45.47725934331538 140.52723970939405,43.60858213294705 139.54661016952014,42.852706050049164 138.35351089586038,42.579749856638955 137.2094430992729,42.558753205652465 136.32687651336892,42.91569586996047 133.4993946730974,46.02316062703903 131.88135593221523,49.865409304373316 131.7015738498303,54.484375083848136 132.86198547214735,58.221433646656806 133.66283292975277,59.46010094159283 134.70883777237032,60.341857834660914 136.5066585955792,60.69875795271946 137.66707021795446,60.44682854623534 140.24939467315562,57.99049453898624 141.9491525423946,54.84128921457159 142.4884987893165,53.01471966644749 142.75,50.13835216703592 141.9818401936791,46.506071635885746 141.34443099272903,44.8263744324795 140.184019370412,43.209648010946694 137.99394673126517,42.51675989487558 136.96428571431898,42.642739791757776 135.7384987893165,43.377620402898174 133.4993946730974,46.02316062703903" stroke="#4DD2FF" stroke-linecap="round" stroke-linejoin="round" stroke-width="0.5"><title>2024-12-29 18.5km</title><desc>1735432872000</desc></polyline><polyline fill="none" points="147.25,60.16571196264704 150.39069423929323,58.22539653838612 151.04874446085887,58.148551795457024 151.94608567212708,58.89778619381832 154.5633308714605,59.109107973010396 156.19350073853275,59.531750550158904 157.67411373707,59.08989691566967 157.92836041358532,57.49536973431532 159.99224519939162,56.45795650803484 162.1757754801074,55.90082392915792 162.63940177252516,59.33964045000903 164.22470457904274,61.20309701505175 164.9874446085887,61.22230777499499 166.85690546530532,60.43466439979966 168.23282865586225,60.300188247449114 171.2090103397495,61.087832398479804 173.33271787298145,59.97360275457322 175.9350073855021,59.66622745941277 178.47747415059712,60.53071871319844 179.0158788773697,62.00994660623837 181.36392171343323,62.202052948996425 181.9023264401476,61.26072928683425 181.43870014772983,60.72282713733148 181.49852289503906,59.93518088052224 181.8574593795929,59.531750550158904 183.51754062034888,59.08989691566967 184.31019202363677,58.340663571623736 185.70107090106467,56.7461276393733 185.92540620389627,55.862400908838026 186.80779172823532,54.728916945517994 187.61539881833596,51.65501476194186 187.49575332348468,48.23521724632883 186.83770310197724,45.83362283966562 185.71602658787742,43.83546409153496 185.11779911373742,43.31670655703056 183.57736336777452,42.81716040123138 182.44073116692016,42.8940137749305 181.1844534712145,43.60490543072228 178.73172082717065,46.92875512971659 177.65491137374192,50.17567466548644 177.625,53.960447888457566 178.13349335303064,56.03530441499606 179.12056868535,58.01407339128491 179.86835302808322,58.878575106791686 181.1096750369761,59.43569553387351 182.4257754801074,59.474117548481445 183.63718611520017,58.91699727815285 185.55151403247146,56.8421845480043 186.5834564254037,55.151573083072435 187.64531019201968,51.46289357730711 187.73504431318725,49.829852590861265 187.46584194980096,48.081516469843336 186.76292466762243,45.67991935899772 185.79080502217403,43.89310369586747 185.0878877399955,43.297493277161266 183.68205317575485,42.797947051003575 182.6501107828808,42.8555870935088 181.3040989660076,43.5088392070611 178.73172082717065,46.92875512971659 177.65491137374192,50.19488697727502 177.61004431312904,53.97965966764605 178.68685376667418,57.20720018443535 179.32994830136886,58.30224123802327 180.52640324959066,59.224374260156765 182.02197193499887,59.493328551761806 183.15860413591145,59.20516321907053 185.43186853767838,56.995875461245305 187.16672821267275,53.7491181393998 187.75,49.81064022764622 186.76292466762243,45.62228050913836 185.82071639585774,43.931530085304985 185.02806499262806,43.25906670928816 183.60727474151645,42.81716040123138 181.79763663228368,43.22064013064664 180.5114475628361,44.37343278573826 179.35985967505258,46.064177736101556" stroke="#4DD2FF" stroke-linecap="round" stroke-linejoin="round" stroke-width="0.5"><title>2024-12-28 9.1km</title><desc>1735368240000</desc></polyline><polyline fill="none" points="12.25,108.16641552142391 12.99662023759447,108.91235188949213 17.758398197416682,109.53041066863807 19.367779598454945,109.01891392792459 19.683019254356623,107.24997438261926 24.36183941003401,105.52363996653003 24.760036870080512,109.5090983389091 26.68465792707866,111.42719600193959 27.481052847171668,111.46982011859654 28.79178615321871,110.80914496297191 30.815956575155724,110.42552580831398 32.159873002790846,110.57471115060616 34.33336747228168,111.34194773274066 35.95934043417219,110.36158918801812 37.58531339612091,109.82878296962008 39.82517410896253,109.70090919834911 41.78297828754876,110.02059342418215 43.0937115935958,108.6566026914661 44.07261368294712,108.80578977613186 45.30038918479113,109.5090983389091 47.390925849962514,109.2746625142463 49.713744367065374,107.27128703026392 51.2733510856051,104.82031289621955 52.33521097910125,102.11353884954588 52.66704219579697,99.57722635137907 52.268844735692255,96.29487653316755 51.2733510856051,93.3961188349931 49.97920934041031,91.69094132739701 48.20391233096598,91.0301798813889 46.32906595652457,91.28595884765673 43.309401884442195,94.31264381160145 41.86593609175179,97.74423457487137 41.41796394920675,100.28057777110371 41.650245800905395,104.11698255974625 42.38027447758941,106.48271707144158 43.342585006088484,108.16641552142391 44.470811142993625,109.16810065571917 45.64881196222268,109.53041066863807 47.22501024167286,109.44516133180878 48.08777140517486,108.9336643032002 50.12853338790592,106.88765891452204 51.372900450543966,104.82031289621955 52.43476034409832,101.90040498021699 52.68363375670742,98.3836528306565 52.102929127402604,95.42099218719522 51.12402703810949,92.99114091553201 50.09535026625963,91.7548858304217 48.7514338385663,91.13675450316805 47.490475215076,91.0301798813889 46.39543219981715,91.37121840703185 43.740782466193195,94.01424093982496 42.51300696429098,96.06042025239731 41.86593609175179,97.8294904983195 41.368189266650006,101.94303177809343 41.832752970047295,104.84162588576146 42.579373207641765,106.88765891452204 43.35917656699894,108.1877280400804 44.60354362963699,109.2746625142463 47.12546087661758,109.5090983389091 48.485968865221366,108.57135286284029 50.178308070404455,106.84503350834711 51.35630888980813,104.90556483634282 52.33521097910125,102.22010567170219 52.75,98.8525578356639 52.25225317495642,96.16699133411748 51.339717328955885,93.48137720634986 50.27785743545974,91.94671917759115 48.95053256856045,91.20069924026029 47.40751741081476,91.09412466343201 46.16315034823492,91.49910765617096 43.39235968858702,94.52578835996974 41.70002048340393,98.49022227748355 41.384780827502254,101.3036285504786 41.63365423999494,104.0743563737633 42.64573945105076,107.05816041924118 43.47531749284826,108.3369155866094 44.55376894713845,109.2107254081202 46.09678410488414,109.57303531904472 47.208418680762406,109.48778600622609 50.178308070404455,106.86634621290432 52.00337976234732,103.43496214439801 52.567492830741685,101.26100157263863 52.716816878295504,98.8525578356639 51.804281032294966,94.56841723364778 50.8087873821496,92.58616191297187 50.012392462056596,91.73357099905843 48.701659156009555,91.13675450316805 47.0922777550295,91.13675450316805 46.19633346988121,91.4564779184584 45.01833265053574,92.41564411424042 43.57486685778713,94.1634424491931 43.24303564109141,95.18653455346066 42.29731667350279,96.46538996389427 41.384780827502254,100.74947690285626 41.61706267925911,104.05304327630438 42.14799262600718,105.8433330096741 43.043936911039054,107.78278967300139 44.02283900039038,108.86972705318476 44.802642359631136,109.31728723658307 46.428615321579855,109.5943476397515 48.18732077017194,108.89103947284457 50.11194182711188,106.93028430864797 51.920421958202496,103.6054675362102 52.51771814824315,101.38888247015711 52.73340843914775,98.93781313514046 52.20247849239968,95.86859211631236 51.30653420725139,93.3961188349931 50.49354772630613,92.15986705604882 49.33213846787112,91.34990352169552 47.54024989751633,91.0301798813889 46.11337566567818,91.49910765617096 45.134473576326855,92.3516998901614 43.42554281029152,94.46184502696269 42.413457599352114,96.35881909217278 41.89911921345629,97.61635059976834 41.368189266650006,101.0904935413273 41.99866857845336,105.45970127693727 42.844838181044906,107.39916285286017 43.906698074541055,108.76316490977479 44.76945923798485,109.31728723658307 46.445206882373895,109.57303531904472 47.291376485081855,109.42384899011813 48.701659156009555,108.44347802986158 50.36081523966277,106.56796807577484 51.70473166729789,104.20223489571072 52.60067595244618,101.0904935413273 52.716816878295504,98.98044076687074 52.2854362965445,96.16699133411748 50.69264645630028,92.39432937584934 49.96261777955806,91.66962648702611 48.369827939372044,91.07280973909656 46.94295370747568,91.1793843308842 45.83131913142279,91.71225616472657 43.35917656699894,94.61104609532049" stroke="#4DD2FF" stroke-linecap="round" stroke-linejoin="round" stroke-width="0.5"><title>2024-12-27 16.0km</title><desc>1735261057000</desc></polyline><polyline fill="none" points="57.25,108.1585882849613 57.91393442614935,108.86218805913813 62.72745901637245,109.54446350781654 64.35409836057806,109.03275720930833 64.58647540980019,107.41234252990398 65.44959016388748,106.77270038591814 67.20901639340445,105.98380468942923 69.3502049180679,105.53605125065951 69.76516393438214,109.56578456610441 71.79016393440543,111.46334673647652 75.60778688522987,110.41862443671562 77.58299180329777,110.6957963611203 79.07684426225023,111.33542194389156 82.21393442625413,109.8856000800588 84.10614754102426,109.71503188998031 86.7784836065839,110.0774890644534 87.57520491810283,108.90483036465594 88.37192622956354,108.47840676917986 90.21434426232008,109.45917924474634 92.32233606558293,109.28861057460017 93.86598360654898,108.2225520357606 95.21045081975171,106.79402183418279 96.3391393442871,104.7471491151955 97.33504098368576,102.18851932960388 97.71680327865761,99.01149387669284 97.11926229513483,95.70646381142433 96.13995901646558,93.14768133897451 95.17725409840932,91.84695034685137 93.23524590168381,91.07930058642523 91.24344262294471,91.39915512601146 88.78688524593599,93.95796713118034 86.92786885245005,97.66816777297936 86.36352459015325,101.12241083275876 86.96106557379244,105.19490488537122 88.4881147541455,108.41444312635576 90.23094262299128,109.45917924474634 92.38872950820951,109.28861057460017 93.8161885246518,108.28651575963886 95.2436475410941,106.77270038591814 96.28934426233172,105.00300971728575 97.36823770496994,102.12455303130264 97.73340163938701,98.84091344439366 96.85368852462852,94.7256023051159 95.90758196730167,92.65724309618236 94.81209016399225,91.56974393763812 93.33483606559457,91.0579769264732 92.32233606558293,91.0579769264732 91.04426229512319,91.61239111052419 88.58770491799805,94.21384595465497 86.99426229513483,97.45494031190174 86.34692622959847,101.07976633681392 86.8116803279263,104.68318389715569 87.57520491810283,106.87930759746814 88.50471311475849,108.4357643435942 89.66659836069448,109.22464727376064 91.24344262294471,111.42070515091473 90.7288934426615,110.97296777850715 90.7288934426615,110.05616807822662 91.26004098361591,109.52314244657464 93.03606557374587,108.9261515129474 95.09426229516976,106.87930759746814 97.01967213116586,103.36123001156375 97.75,99.03281641725334 97.26864754105918,96.17556924351084 96.72090163931716,94.32046200356854 95.44282786885742,92.12415624881396 93.86598360654898,91.14327154835337 92.57131147541804,91.0579769264732 91.12725409836276,91.52709675270307 90.06495901639573,92.40136164356954 88.43831967219012,94.44840116321575 88.28893442632398,95.19471077433263 87.80758196726674,95.5145566251158 87.3428278688807,96.53805880981963 86.72868852462852,98.5210746161465 86.34692622959847,101.16505531666917 86.92786885245005,105.13093985633168 88.4549180328031,108.32915822722134 89.74959016399225,109.28861057460017 90.81188524590107,109.50182138227683 92.67090163938701,109.16068394594186 93.50081967219012,108.5423703850538 95.31004098360427,106.66609309939668 96.28934426233172,105.02433141465008 97.61721311480505,100.82389910932397 97.75,98.9901713331783 97.43463114753831,96.75128756128834 96.75409836065955,94.40575478869141 95.8079918033327,92.50797896801669 94.71249999996508,91.52709675270307 93.68340163934045,91.12194789740897 92.42192622949369,91.0579769264732 91.17704918043455,91.48444955580635 88.35532786883414,94.512370702505 86.86147540988168,97.73213595275593 86.36352459015325,101.2076997885888 86.54610655741999,103.38255193991063 87.16024590173038,105.8985184221383 88.23913934425218,108.07330324179202 89.46741803287296,109.16068394594186 90.36372950818622,109.50182138227683 91.39282786886906,109.54446350781654 92.80368852458196,109.07539946684847 95.40963114757324,106.53816425657715 97.33504098368576,102.3590959928697 97.66700819676043,98.32917099505721 96.88688524597092,94.78957172730588 96.23954918037634,93.21165142749669 95.4926229508128,92.12415624881396 94.31413934426382,91.31386064819526 92.52151639346266,91.03665326350892 91.12725409836276,91.46312595294148 88.40512295084773,94.46972434598138 86.86147540988168,97.83874952574843 86.34692622959847,101.12241083275876 86.5129098360776,103.23329837823985 87.64159836061299,107.04987897985848 88.52131147542968,108.39312190603232 89.78278688527644,109.28861057460017 91.39282786886906,109.48050031503954 92.57131147541804,109.16068394594186 95.17725409840932,106.8153432795225 97.03627049189527,103.27594226801011 97.68360655743163,100.16290677148208 97.68360655743163,98.37181626519305 97.13586065574782,95.49323358936817 96.45532786886906,93.68076458477299 95.57561475405237,92.18812676952803 94.43032786890399,91.35650789304054 92.62110655743163,91.0579769264732 91.19364754098933,91.46312595294148 89.26823770493502,93.23297478436143 88.30553278687876,94.6616328558157" stroke="#4DD2FF" stroke-linecap="round" stroke-linejoin="round" stroke-width="0.5"><title>2024-12-26 16.2km</title><desc>1735171955000</desc></polyline><polyline fill="none" points="102.25,108.86689544879482 107.55955334979808,109.57689357822528 109.01674937951611,109.12507696826651 109.18424317613244,107.46840464207344 109.5862282877788,107.14567417785292 111.83064516127342,106.11293211435259 113.99131513637258,105.51049602252897 114.22580645151902,105.57504286018957 114.49379652598873,109.25416756446066 116.47022332495544,111.49172058222757 117.40818858559942,111.51323535612028 118.66439205949428,110.7387015876011 120.85856079403311,110.37294816639042 123.95719602971803,111.3626318750903 125.86662531003822,110.24385851468833 127.62531017360743,109.77052885950252 131.71215880889213,110.13628372177482 132.98511166247772,108.69477419364557 135.79900744411862,109.64143869922555 137.33995037217392,109.34022790142626 139.14888337464072,107.94174142410338 141.41004962776788,104.8004790097184 142.36476426798617,102.11099072778597 142.71650124067673,98.86202578556549 142.14702233247226,95.50540670880582 140.72332506201928,92.44995860145718 139.6681141438894,91.43863486078044 137.87593052105512,90.98676464386517 135.76550868479535,91.58925796956464 133.47084367240313,94.17134532773343 132.0638957816409,96.79642276770028 131.27667493798072,100.84153582293948 131.51116625301074,104.15500613680342 133.2866004962125,108.28598543605767 134.07382133998908,108.99598626303487 135.24627791560488,109.51234842995473 137.4906947890413,109.27568265328591 139.16563275433145,107.89871086808853 140.55583126551937,106.19899421936134 142.0632754342514,103.14375982363708 142.71650124067673,98.7759595503594 142.19727047142806,95.50540670880582 141.12531017366564,93.11699825813412 140.13709677412407,91.73988092997752 138.67990074434783,91.09435291195405 137.55769230768783,91.00828230357729 136.2177419355139,91.30952922087454 134.76054590562126,92.51451095350785 133.4540942928288,94.10679367528064 132.11414392053848,96.71035536959243 131.29342431761324,100.23907895955199 131.46091811405495,103.40195100751589 131.9633995036129,105.61807407009474 133.0186104218592,107.81264971976634 133.90632754337275,108.86689544879482 135.06203473941423,109.42628818991943 136.70347394543933,109.51234842995473 138.931141439185,108.13537877619092 140.5223325060797,106.19899421936134 141.6947890818701,104.13349032741098 142.51550868485356,101.22882826719433 142.73325062036747,98.73292641456646 142.13027295283973,95.44085561970132 141.02481389575405,92.90182449333952 140.12034739449155,91.71836337330751 138.6129032257595,91.09435291195405 137.03846153843915,91.0513176137465 135.8492555830744,91.52470522685326 134.3585607940331,92.98789403559931 132.08064516121522,96.79642276770028 131.44416873448063,99.20629024184018 131.27667493798072,101.4439903122693 131.9633995036129,105.59655846665555 133.11910669971257,107.98477196798194 133.75558312656358,108.69477419364557 134.71029776666546,109.31871282169595 136.51923076919047,109.55537853180431 137.62468982621795,109.16810717906628 138.69665012403857,108.35053110199806 140.5223325060797,106.17747869764571 141.77853598009096,103.91833206723095 142.54900744411862,101.1427633643616 142.75,98.79747611367202 142.1637717121048,95.46237265241507 140.97456575679826,92.79423749737907 140.1035980148008,91.67532825084345 138.41191066999454,90.98676464386517 136.97146401985083,91.00828230357729 135.86600496270694,91.50318763985706 134.39205955329817,92.90182449333952 132.0136476426851,96.8609732844343 131.25992555828998,101.46550650014251 131.76240694784792,104.92957325725001 133.33684863516828,108.37204631793429 134.64330024813535,109.27568265328591 135.86600496270694,109.59840862159035 137.2227047146298,109.36174297805701 138.21091811411316,108.78083484541276 140.42183622828452,106.34960278663493 141.44354838703293,104.64986891642911 142.09677419351647,103.05769599876658 142.61600496270694,100.45424239757995 142.71650124067673,98.84050923127506 142.36476426798617,96.32305147862644 141.52729528525379,93.82706953307206 140.67307692300528,92.38540622212167 140.00310173694743,91.54622281076445 138.57940446643624,91.0297999602335 137.28970223315991,90.98676464386517 135.98325062036747,91.41711726167705 133.80583126551937,93.61189676776121 133.25310173694743,94.62320613155316" stroke="#4DD2FF" stroke-linecap="round" stroke-linejoin="round" stroke-width="0.5"><title>2024-12-22 13.5km</title><desc>1734819430000</desc></polyline><polyline fill="none" points="147.25,108.15424079260265 147.68262119963765,108.75270613451721 152.60784716514172,109.52215810930647 154.30505340994569,109.03056424169336 154.58792111749062,107.14966866771283 159.130443713977,105.52524010968045 159.3966721445904,105.71760755624564 159.64626129821409,108.81682728127635 160.61133935902035,110.63358185827383 161.64297452755272,111.42439765082963 162.30854560394073,111.48851766982989 163.85599835659377,110.74044909779332 165.73623664746992,110.3771001764253 169.23048479866702,111.23203743157501 171.24383730482077,110.12061806152633 173.0408792112139,109.65039972616069 174.77136400988093,109.67177331840503 176.61832374695223,110.12061806152633 178.01602300739614,108.53896878310479 180.97781429742463,109.52215810930647 182.45870994252618,109.15880627356819 183.9895234182477,108.02599791258399 186.5686113393167,104.30690728987975 187.38393590797205,101.97708573733689 187.75,98.87772644263168 187.00123253901256,95.17978743057756 185.75328677071957,92.46505812610849 184.77156943303999,91.48175837486633 183.27403451112332,91.03285854558635 181.4104354971205,91.28937289623718 180.31224322103662,91.99478512634232 178.76479046838358,93.7689892815979 177.53348397702212,95.90655712000444 176.63496302382555,98.38609812190407 176.3354560394655,100.9724727559078 176.90119145438075,105.3542466192448 178.66495480691083,108.49622127674229 179.67995069839526,109.22292724893487 181.1442070666235,109.50078449596185 182.70829909620807,109.03056424169336 183.7232949876343,108.26110977663484 186.25246507802512,104.99088481295621 187.0178718159441,103.21681174630066 187.60024650784908,100.48085121571785 187.6834428923321,98.81360109978414 187.2841002464993,96.2271897008759 185.7033689400414,92.46505812610849 184.68837304849876,91.50313452408591 183.54026294167852,91.161115775074 182.04272801970365,91.09698717383435 180.62838948227,91.7596480804059 178.83134757605148,93.72623761792784 177.6000410846318,95.75692835057271 176.6016844699625,98.42884847384994 176.3354560394655,100.71597475961607 176.45193097781157,103.21681174630066 177.08422350039473,105.86722651295713 177.81635168450885,107.32066013691656 178.48192276095506,108.36797868540452 179.6466721445904,109.22292724893487 181.01109285122948,109.52215810930647 182.44207066553645,109.18017993505055 185.0377978635952,106.78631115658209 186.91803615452955,103.43055658716185 187.51705012324965,101.10072159163246 187.66680361545878,98.66397519441671 187.2841002464993,96.26994066053885 186.5020542316488,93.98274741927162 185.68672966316808,92.46505812610849 184.5718981101527,91.39625374777825 182.97452752670506,91.03285854558635 181.2939605587162,91.33212524582632 178.76479046838358,93.7689892815979 176.8679129005759,97.65934029784694 176.30217748560244,101.35721893818118 177.06758422357962,105.88860063762695 178.1824157764786,107.96187643198937 179.28060805262066,109.03056424169336 181.01109285122948,109.52215810930647 182.17584223503945,109.28704819720588 183.4737058339524,108.49622127674229 185.1043549712631,106.74356315692421 186.9513147082762,103.30230971869605 187.51705012324965,101.05797199172957 187.65016433846904,98.70672546813148 187.31737880030414,96.50507072337496 186.51869350858033,94.02549901072052 185.73664749390446,92.46505812610849 184.7216516023036,91.46038222259085 183.37387017253786,91.05423475804855 181.8763352506212,91.161115775074 180.67830731300637,91.71689585111744 179.71322925225832,92.63606612864533 177.48356614628574,95.9279326464166 176.63496302382555,98.34334775792377 176.31881676259218,100.80147413979284 176.95110928511713,105.4397433885315 178.68159408384236,108.58171627743286 179.67995069839526,109.24430090136593 181.2939605587162,109.50078449596185 182.1425636811182,109.3297954810696 183.50698438781546,108.43209999457758 185.02115858672187,106.85043313344067 186.2358258011518,104.99088481295621 187.50041084637633,101.14347117947182 187.6834428923321,98.70672546813148 187.36729663104052,96.80432664066029 186.98459326208103,95.17978743057756 185.7033689400414,92.46505812610849 184.68837304849876,91.46038222259085 183.27403451112332,91.05423475804855 181.95953163522063,91.11836337728892 180.71158586686943,91.6741436097218 178.34880854561925,94.49576572229853 177.50020542310085,95.9279326464166 176.63496302382555,98.47159881370317 176.31881676259218,100.65185019280761 176.48520953167463,103.30230971869605 177.61668036156334,107.0000509742822 178.56511914543808,108.45347375834535 179.67995069839526,109.24430090136593 181.01109285122948,109.52215810930647 182.4753492193413,109.20155359354976 185.05443714052672,106.78631115658209 186.8847576006665,103.49467998075124 187.4172144617769,101.63509057475312 187.6834428923321,98.74947572976816 187.10106820048532,95.67142613045871 185.67009038617834,92.40093007555697 184.6550944946357,91.43900606733223 183.30731306492817,91.01148233017011 181.97617091209395,91.09698717383435 180.6949465899961,91.6741436097218 178.28225143800955,94.64539573424554" stroke="#4DD2FF" stroke-linecap="round" stroke-linejoin="round" stroke-width="0.5"><title>2024-12-20 16.0km</title><desc>1734644952000</desc></polyline><polyline fill="none" points="12.25,157.4232841237972 17.243608247372322,158.34576305748487 19.047319587669335,157.9381567750679 19.448144329886418,156.0717351410858 21.552474226860795,154.93470846285345 24.124432989687193,154.20529065707524 24.658865979406983,158.25995129915827 25.92814432986779,159.84746101063502 26.562783505185507,160.21215685270727 27.297628865984734,160.23360952208168 28.600309278350323,159.50421706827183 30.704639175266493,159.1609723531583 34.02814432984451,160.06198808214685 36.86731958767632,158.66755672122235 38.17000000004191,158.49593351845397 41.79412371129729,158.88208545307862 43.24711340205977,157.27311260632996 45.38484536082251,158.2814042432583 47.35556701023597,158.17413949247566 49.81061855668668,155.9215622922493 51.91494845360285,152.4460921787395 52.71659793809522,147.6832822226861 51.8481443299097,143.47815514882677 50.87948453600984,141.39700343002914 50.027731958718505,140.45296647859504 48.6248453608132,139.83075710931735 47.32216494844761,139.80930156860268 45.41824742266908,140.60315456647368 43.7147422680282,142.49122076260392 42.47886597941397,144.70108671937487 41.2596907215775,148.92763431894127 41.510206185572315,152.87516685017908 43.21371134015499,156.80114401683386 44.21577319584321,157.80943877523532 45.100927835097536,158.19559244866832 47.32216494844761,158.10978060575144 49.09247422678163,156.69387822462886 50.395154639089014,155.12778906253516 52.0986597937881,151.7810240513645 52.75,147.49019219398906 52.38257731962949,145.19454755747574 51.480721649480984,142.5341310861695 49.927525773178786,140.3456891823007 48.42443298973376,139.80930156860268 46.67082474229392,139.89512371360615 45.36814432987012,140.60315456647368 43.8483505154727,142.38394490082283 42.12814432987943,145.4949142420228 41.49350515456172,147.98364400352875 41.30979381443467,150.4294250461826 41.94443298969418,154.2267441717995 43.18030927836662,156.75823770902934 44.21577319584321,157.7665327511495 45.53515463916119,158.2814042432583 47.28876288665924,158.1526865332853 49.7772164947819,155.9215622922493 51.8481443299097,152.4460921787395 52.532886597909965,150.02179759736464 52.73329896910582,147.42582879676775 51.93164948449703,143.5210651945381 50.144639175210614,140.4958773759572 48.608144329919014,139.83075710931735 47.08835051540518,139.76639047790377 45.58525773190195,140.41005556908203 44.58319587627193,141.39700343002914 42.161546391726006,145.3661857353727 41.2763917525881,149.6356232193939 41.91103092790581,154.01220888909302 42.76278350513894,156.0717351410858 43.93185567006003,157.57345549340243 45.334742268081754,158.19559244866832 46.97144329897128,158.19559244866832 49.19268041237956,156.62951871300174 51.714536082406994,152.87516685017908 52.51618556701578,150.02179759736464 52.71659793809522,147.6832822226861 52.3491752576665,145.1087283959787 51.480721649480984,142.46976559628092 50.16134020622121,140.4958773759572 48.574742268014234,139.83075710931735 47.10505154635757,139.7878460247739 45.6520618556533,140.3886001098581 44.83371134015033,141.26827146271535" stroke="#4DD2FF" stroke-linecap="round" stroke-linejoin="round" stroke-width="0.5"><title>2024-12-15 10.9km</title><desc>1734216782000</desc></polyline><polyline fill="none" points="57.25,156.82173728806083 58.19147634587716,157.71284509725228 61.131525285483804,157.92501284701575 62.78323817293858,158.34934745094506 64.46798531810055,157.9037960854912 64.74877650896087,156.0367093783425 66.81341761822114,155.01828870210738 69.34053833602229,154.29690322761599 69.60481239802903,154.402989543305 69.63784665573621,156.7793034514325 70.1003262642771,158.54029763309518 71.75203915167367,160.1315397467697 72.64396411093185,160.15275619488966 74.22960848291405,159.41017873608507 76.11256117455196,159.13436331991397 79.28384991845815,160.04667392460397 81.41455954319099,158.8797640263947 83.49571778142126,158.43421422838583 86.78262642736081,158.7948974997562 88.08747960842447,157.30972555019252 88.91333605221007,157.39459291283856 90.41639477974968,158.2008304753981 92.41496737347916,157.96744636120275 93.75285481236642,157.05512317565444 95.28894779772963,155.42141437565442 96.26345840131398,153.7876878734678 97.32055464928271,150.96575494519493 97.7004486133228,148.1437691975152 97.3535889070481,145.3005120917369 96.23042414354859,142.13891697276267 94.89253670471953,140.48382731588208 93.40599510603352,139.910907431753 91.8699021206703,140.0170038708602 90.59808319743024,140.65358093750547 88.89681892335648,142.62695276158047 87.03038336051395,146.2341248154844 86.38621533446712,149.96851789634093 86.8486949429498,153.5118621718575 88.51692495919997,157.1399906815932 90.54853181075305,158.17961375269806 92.58013866230613,157.9037960854912 95.33849918429041,155.315328776589 96.32952691678656,153.72403583323467 97.45269168022787,150.45652834010252 97.7169657422346,148.20742359365977 97.38662316475529,145.10954514046898 96.01570146816084,141.65087960407254 94.95860522019211,140.48382731588208 93.17475530179217,139.84724953246769 91.8533849917585,139.9321267255291 91.06056280591292,140.31407350310474 89.40884991839994,141.88428897748236 87.31117455137428,145.42782325812732 86.53486949420767,148.58934940618929 86.60093800979666,152.04785577022994 87.14600326266373,154.6575963962241 88.92985318106366,157.47946022768156 88.92985318106366,157.98866311374877 90.38336052198429,158.7948974997562 91.27528548118426,160.19518908200553 90.763254486199,159.60112757477327 90.89539151714416,158.7524642185017 91.44045676995302,158.2008304753981 92.2828303425922,158.07353009421786 93.42251223488711,157.33094239531783 95.28894779772963,155.37898014496022 96.32952691678656,153.72403583323467 97.45269168022787,150.43531052758044 97.7169657422346,147.18895003010402 96.74245513865026,143.28473762932117 95.73491027730051,141.22649799915962 94.66129690047819,140.27163502004987 93.17475530179217,139.82603022674448 91.47349102771841,140.16553876016405 90.15212071774295,141.14162153474172 88.84726753667928,142.69060948709375 86.98083197389496,146.40387196221855 86.40273246326251,150.0746072576294 87.2120717781363,154.74246525175113 88.53344208811177,157.11877380963415 89.77222675370285,158.00987986334076 91.06056280591292,158.28569733646873 92.46451876015635,157.98866311374877 95.32198205549503,155.3577630251384 96.99021207168698,152.02663818169094 97.61786296899663,149.77755685790908 97.75,147.54966020409483 97.15538336051395,144.5790801178955 96.04873572592624,141.8206319114979 94.46309135400224,140.144319499188 93.29037520388374,139.80481091799447 91.63866231648717,140.0594424255978 90.20167210447835,141.1204024112376 88.68209624796873,143.05133042413217" stroke="#4DD2FF" stroke-linecap="round" stroke-linejoin="round" stroke-width="0.5"><title>2024-12-10 11.3km</title><desc>1733785667000</desc></polyline><polyline fill="none" points="102.25,157.710915221498 104.66610738256713,156.33370713476324 105.58724832220469,156.12033563673322 106.38758389261784,156.83803845341026 107.3087248322554,156.99321694945684 110.73657718126196,157.4975458552799 112.2164429530385,157.10960070688452 112.57885906042065,155.40262908334262 116.82214765105164,153.6956363216741 117.01845637580846,153.7926251131721 117.22986577183474,157.18718982391874 119.04194630868733,159.20449153792288 119.6912751677446,159.28207947582996 121.08053691277746,158.56438938384235 122.75671140936902,158.25403575440578 125.92785234894836,159.08810954914952 128.0570469798986,157.94368142617168 129.50671140936902,157.6527236089314 132.66275167785352,158.021270073732 134.05201342276996,156.585873024771 135.74328859057277,157.34236792696174 137.70637583895586,157.32297067366017 139.2466442952864,156.217322722252 141.55704697984038,153.13309998516343 142.37248322140658,150.80533901583112 142.689597315446,148.63272664386022 142.23657718120376,144.90816861603525 141.10402684565634,142.30867785676674 140.19798657717183,141.24170850260998 138.56711409398122,140.73732011446555 137.1627516777953,140.83431802476116 136.4681208053371,141.18350993665808 134.14261744963005,143.86061853614228 132.6929530201014,147.23602917788958 132.4060402684845,149.4474602964765 132.76845637575025,153.1137021395407 134.09731543628732,156.08154078347434 134.6560402684263,156.76044913985243 135.80369127518497,157.3617651775421 136.8758389261784,157.4975458552799 137.85738255031174,157.26477889728267 139.5939597315155,155.82937397090427 141.42114093957935,153.34647610721004 142.53859060403192,150.16519785767014 142.73489932884695,147.70159657245676 142.2214765100507,144.86937060690252 140.89261744968826,142.01768703387643 139.82046979863662,141.04771318717394 138.14429530204507,140.71792052417004 137.23825503361877,140.77611928673286 136.4983221476432,141.2029094613972 134.6862416107324,143.08465038082795 133.07046979869483,146.01390728511615 132.3758389261784,149.64144378968922 132.7533557047136,152.8615298976365 134.14261744963005,156.13973305930267 135.51677852339344,157.22598436604312 136.63422818796244,157.4975458552799 137.88758389261784,157.28417615877697 139.95637583889766,155.4414241277118 141.4060402684263,153.4628629436629 141.99496644292958,152.1826023379399 142.52348993287887,150.18459611825529 142.75,147.74039378437737 142.2214765100507,144.81117357269977 140.63590604026103,141.62969831435475 139.83557046973146,141.02831364057784 138.28020134218968,140.71792052417004 136.72483221482253,141.04771318717394 135.33557046978967,142.3474765867286 134.14261744963005,143.9770133826678 134.58053691271925,144.6559813614731" stroke="#4DD2FF" stroke-linecap="round" stroke-linejoin="round" stroke-width="0.5"><title>2024-12-08 8.9km</title><desc>1733614342000</desc></polyline><polyline fill="none" points="147.25,156.98354925855529 147.74565732333576,156.63439624213788 148.59307145676576,156.5933193617966 149.42449664429296,157.39431644380966 152.28651796287159,157.5996996028989 153.99733517569257,158.0720797721442 155.5802408211748,157.53808468551142 155.8200750098913,155.83339498966234 157.8826490327483,154.84754125964537 160.12110146071063,154.2108405198087 160.50483616266865,154.39568940787285 160.72868140542414,157.41485477275273 161.54411764704855,158.9757593141985 162.6953217528644,159.81781930635043 166.74052506906446,158.79091622671694 168.03562968812184,158.9962974205555 170.0022700355039,159.81781930635043 172.52852348989109,158.40069116205268 174.1753849190427,158.11315623634437 177.1013620213489,158.5855347437173 178.50838926172582,157.0451644100831 181.22651006706292,158.03100329633162 182.82540465844795,157.62023790289823 184.52023292536614,156.18254992224684 186.45489538100082,153.55359813311952 187.5421437031473,150.37003843356797 187.75,147.6588231624046 187.41423213586677,145.52267868582567 186.83863008284243,143.63298635384126 185.52753651794046,141.14759287914785 183.94463087251643,140.3054251580179 182.36172522697598,140.26434368149785 181.16255428345175,140.6751579267875 179.67558231338626,142.07191771025828 177.38916304783197,146.22103705097106 176.76559415709926,150.47273499166477 177.16531780496007,153.36874817866192 178.26855507306755,156.05931886493636 179.14794709830312,157.20947135344613 180.4110738254385,157.8872355401545 181.86606790364021,157.94885031017475 183.3530398737057,157.27108640960068 185.0478681405075,155.5869321814098 186.34297275956487,153.63575359339302 187.49417686538072,150.53435289178742 187.71802210819442,147.74098194095131 187.41423213586677,145.3583585848537 186.59879589412594,142.9551559676911 185.4475917884265,141.1065116396494 184.66413343860768,140.55191377468873 182.9373272799421,140.18218069363502 181.14656533749076,140.7573206370871 179.14794709830312,142.77029258871335 177.48509672324872,145.97455800959142 176.76559415709926,149.1992925634113 177.0853730753879,152.9168917486386 177.9167982629151,155.40208480216097 178.7802013422479,156.83978047056007 179.94739439402474,157.7023910741409 180.93870904063806,157.96938856103225 182.1218910382595,157.96938856103225 183.3690288195503,157.33270143969276 186.1031385708484,154.0259913977643 187.5101658112835,150.30842046397447 187.71802210819442,147.96691834343073 187.49417686538072,145.85131833278865 187.14242005522829,144.22865288201137 185.99121594947064,141.82543166104006 185.0158902487019,140.7367799638305 183.976608764322,140.28488442125672 182.47364784841193,140.22326219335082 181.22651006706292,140.6751579267875 179.96338333986932,141.80489113817748 178.63630082900636,143.65352661945508 177.59701934462646,145.6664586224506 176.97345045401016,147.82314067319385 176.78158310306026,150.30842046397447 176.98943939985475,152.44449489418184 178.42844453215366,156.36739631310047 179.09998026053654,157.1683946349658 180.2511843664106,157.84615901239158 181.7221673904569,158.01046505414706 182.71348203712841,157.74346764232905 183.81671930517768,157.00408764529857 185.4316028424655,155.1145439690008 187.22236478485866,151.60239236149937 187.70203316223342,147.61774375585082 187.27033162262524,145.0091777559428 186.63077378604794,143.16055944751133 185.91127121989848,141.76381008370663 184.98391235689633,140.7367799638305 183.49694038694724,140.22326219335082 182.00996841688175,140.3054251580179 181.13057639164617,140.7367799638305 179.4037702328642,142.52380771913158 177.5490525069181,145.85131833278865 176.81356099492405,149.40468725502433 177.40515199361835,154.14922417182242 179.1799249901669,157.2505480604159 180.37909593369113,157.8872355401545 181.64222266082652,157.96938856103225 182.71348203712841,157.7023910741409 183.9925977101666,156.73708839251776 185.73539281485137,154.64215422766574 186.99851954204496,152.21856542331807 187.5101658112835,150.349499113232 187.75,147.59720404815744 187.3342874062364,144.98863768114825 185.63945913926,141.33245831372915 183.96061981841922,140.32596589199966 182.56958152388688,140.18218069363502 181.33843268849887,140.59299517024192 179.48371496255277,142.40056512822048 178.90811290952843,142.60596938860544" stroke="#4DD2FF" stroke-linecap="round" stroke-linejoin="round" stroke-width="0.5"><title>2024-12-07 13.6km</title><desc>1733525549000</desc></polyline><polyline fill="none" points="12.25,208.78476651158417 12.560070671257563,210.10220921463042 13.871908127213828,212.00176373032446 15.112190812593326,213.25791164588009 16.042402826831676,213.4110999202967 18.594522968051024,212.33877973606286 21.05123674904462,211.9098501837143 26.1316254416015,213.07408557432063 28.898409893969074,211.60347141466627 31.450530035304837,210.83752260604524 36.93639575969428,211.41964394637034 38.74911660782527,209.27497868116188 42.970848056604154,210.65369449098944 44.33038869255688,210.53114232810913 45.999999999883585,209.6426370840636 49.029151943395846,206.51752087015484 51.104240282671526,203.05532994534587 52.05830388690811,200.14459586009616 52.70229681977071,195.334139493134 51.74823321553413,190.49293596559437 49.76855123671703,186.0193230763398 48.26590106007643,184.67109294499096 45.37985865713563,184.08890007968876 42.780035335570574,184.94686796941096 39.607773851486854,188.5012703476823 37.36572438152507,192.7909890372248 36.43551236751955,198.49005598061194 37.24646643106826,204.80175171789597 39.44081272080075,208.87668137741275 40.919611307326704,210.01029486622429 42.99469964648597,210.59241841817857 45.73763250885531,209.8571041990508 49.029151943395846,206.51752087015484 50.74646643095184,203.9132230929972 51.843639575876296,201.09441862844687 52.75,195.334139493134 51.55742049473338,189.6349899333727 49.744699646602385,186.0193230763398 48.838339222595096,185.06943453470012 46.977915194351226,184.3033923691255 44.68816254416015,184.119541848253 42.970848056604154,184.8243013350293 41.58745583030395,186.0193230763398 39.583922261488624,188.5012703476823 37.795053003472276,191.68792659023893 36.6263250883203,195.88566217804328 36.43551236751955,198.2449378919846 37.0079505299218,204.1889737439633 39.607773851486854,209.06051099277101 40.967314487555996,210.01029486622429 42.99469964648597,210.62305645670858 44.52120141335763,210.469866220752 46.47703180206008,209.27497868116188 48.93374558305368,206.6707138868369 50.889575971639715,203.54555501510913 52.39222614839673,198.88837228596094 52.70229681977071,195.2422189097415 52.20141342759598,193.8634055024013 52.34452296816744,192.4233021758264 51.15194346290082,188.59319377726933 49.6492932861438,185.8661155274167 48.19434628973249,184.67109294499096 46.572438162518665,184.119541848253 44.091872791410424,184.2114671281306 42.80388692568522,184.9162263172475 39.249999999883585,189.17537459669984" stroke="#4DD2FF" stroke-linecap="round" stroke-linejoin="round" stroke-width="0.5"><title>2024-12-05 7.7km</title><desc>1733352101000</desc></polyline><polyline fill="none" points="57.25,206.51302146281523 59.69763513508951,205.06792151478294 60.4121621621307,204.9507505891961 60.9746621621307,205.6733030542091 63.83277027023723,205.94670030321868 65.45945945940912,206.45443662245816 67.2229729729006,205.94670030321868 67.45101351349149,204.26725155170425 69.95945945940912,203.13458859226375 71.6621621621307,202.76354181941133 71.92060810810653,203.11505983945972 71.85979729722021,205.1655638771772 72.33108108106535,206.31773856536893 73.15202702698298,207.58707248677092 73.98817567562219,208.0948028046405 77.65202702704119,207.13792488801118 80.78378378378693,207.95810636333772 82.72972972970456,206.9231146529346 84.59966216207249,206.49349318545137 87.68581081076991,206.86452998570167 88.47635135130258,205.69283144702786 88.9628378378111,205.43896212647087 89.76858108100714,206.08339872575016 91.57770270266337,206.3567951668374 92.73310810810653,206.18104037367448 93.75168918911368,205.5561326398165 94.9983108107117,204.26725155170425 96.36655405402416,202.29484974093793 97.08108108100714,200.47865298521356 97.73479729727842,196.5532433069602 96.82263513514772,192.5496016402467 95.24155405402416,190.0301776657725 93.52364864863921,189.444258557196 92.3378378378111,189.58097323717084 91.4256756756804,189.97158586626756 89.64695945940912,191.86604151806387 87.98986486479407,194.85415095278586 87.32094594591763,198.46713851411187 87.71621621609665,202.21673424067558 88.38513513508951,203.89620780728 89.43412162159802,205.43896212647087 90.83277027023723,206.22009701366187 92.15540540538495,206.2982102605456 93.44763513508951,205.73188822435623 94.69425675680395,204.56018012287677 96.82263513514772,201.2988738183194 97.3851351350313,199.30690052805585 97.70439189183526,196.63136199541623 96.8378378378111,192.74490391383006 95.83445945940912,190.6942163312342 95.2111486485228,190.01064706870238 93.52364864863921,189.42472787764564 92.58108108100714,189.50285057937435 91.72972972970456,189.79581031930866 90.58952702698298,190.73327733020415 88.20270270266337,194.34637218840362 87.32094594591763,198.6038443045254 87.70101351349149,202.15814758655324 88.4003378378693,203.95479372759291 89.44932432437781,205.4780189752637 90.33108108100714,206.04434204733116 91.85135135130258,206.376323463468 92.86993243236793,206.10292706087057 94.10135135130258,205.18509234144585 96.74662162159802,201.51369275918114 97.64358108106535,197.7250190160994 97.36993243242614,194.22919220964832 95.75844594591763,190.57703326822957 95.1503378378111,189.99111646888196 93.55405405402416,189.42472787764564 92.50506756751565,189.5419119138096 91.28885135130258,190.1083000266517 89.61655405402416,191.8855718539853 88.23310810799012,194.30731220648158 87.39695945946733,197.37348734229454 87.30574324319605,199.38501766638365 87.65540540538495,202.17767647403525 89.26689189183526,205.32179151415767 91.04560810804833,206.27868195291376 92.44425675668754,206.22009701366187 93.34121621615486,205.790473369736 94.40540540538495,204.9116935920756 95.81925675674574,203.07600232562982 96.74662162159802,201.53322173730703 97.17229729722021,200.22477412575972 97.70439189183526,196.49465426176903 96.79222972970456,192.58866211696295 95.78885135130258,190.5965637855843 94.61824324319605,189.67862649750896 93.55405405402416,189.42472787764564 92.17060810804833,189.60050389477692 90.69594594591763,190.6551553212339 89.40371621615486,192.21758714436146 87.898648648581,195.14709939465683 87.44256756751565,197.17819158319617 87.32094594591763,199.4240762189729 87.70101351349149,202.1972053586942 88.43074324319605,203.99385099411302 89.22128378378693,205.3022630691121 90.04222972970456,205.90764358633896 91.59290540538495,206.3567951668374 92.79391891881824,206.1224553931679 93.82770270266337,205.43896212647087 95.43918918911368,203.73997856549977 96.7618243243196,201.49416377826128 97.41554054053267,199.1897247381421 97.70439189183526,196.51418394628854 96.70101351343328,192.41288988520682 95.81925675674574,190.6356248120719 95.22635135130258,190.01064706870238 93.8125,189.4051971953595 92.50506756751565,189.48331990808947 91.10641891887644,190.16689176847285 89.7989864863921,191.6707380074804 88.14189189183526,194.48308203852503 87.30574324319605,198.77960869435628 87.70101351349149,202.17767647403525 88.44594594597584,204.01337962324033 89.29729729727842,205.36084839591058 90.45270270260517,206.14198372274404 91.5625,206.33726686750015 92.99155405402416,206.00528535792546 95.5,203.70092122752976 96.74662162159802,201.53322173730703 97.14189189183526,200.30289074739267 97.75,196.24076811340638 97.00506756751565,193.11597747626365 96.29054054047447,191.47543422204035 95.45439189189347,190.26454461645335 94.57263513508951,189.67862649750896 93.02195945940912,189.42472787764564 91.51689189189347,189.89346342842327 90.34628378372872,190.94811262816074 89.2364864864503,192.6472528113809" stroke="#4DD2FF" stroke-linecap="round" stroke-linejoin="round" stroke-width="0.5"><title>2024-12-03 16.2km</title><desc>1733178751000</desc></polyline><polyline fill="none" points="102.25,215.15589797403663 105.04953917046078,213.78597410903603 107.23584595124703,213.47774017683696 109.90207373269368,213.75172591365117 113.12820934830233,214.91616185425664 116.30102040816564,213.10100928507745 119.47383146802895,212.34754575234547 124.99292297568172,213.13525757211028 127.25921658985317,210.4638767156721 128.13907175767235,210.42962805271964 131.07192231726367,211.90231620479608 133.4448650428094,211.90231620479608 135.3378867674619,210.9433574898576 137.20424621447455,209.1966729791602 138.67067149432842,207.65547035401687 141.2302501645172,203.16880270664115 142.72333772212733,195.8050085879804 141.2302501645172,188.2012292106665 139.44387755088974,184.50200739019783 137.76415404875297,183.02915342111373 135.31122448970564,182.4468598581443 132.69832126400433,182.8236382050527 130.56533903896343,184.4335027520865 127.6324884792557,188.02997018254246 125.68614219885785,191.93464607038186 124.8596115866676,195.2912471950258 124.51300197502133,197.89429374567408 124.80628703080583,202.51805778266862 125.41951942071319,205.36077280669997 127.44585253449623,209.40216592518846 128.93894009210635,211.1146003946924 131.81846609606873,212.0393099984649 133.25822909804992,212.00506155723997 135.52452271222137,210.8063630792749 138.64400921657216,207.68971940723713 140.72366688610055,204.36753880111792 142.2700789992232,199.70955973051605 142.75,194.81173558313458 141.57685977616347,189.02327086759033 139.8971362739103,185.2213049260754 138.3773864384275,183.40593086638546 134.48469387751538,182.34410202596337 131.87179065158125,183.2346684635413 127.6324884792557,187.96146653758478 125.41951942071319,192.79092626624333 124.48633969714865,199.23005682398798 125.33953258709516,205.2237752538349 127.01925608946476,208.81993546099693 128.69897959183436,211.01185466621246 130.6453258722322,211.79957080892927 133.17824226454832,211.97081311127113 136.6176761026727,209.88164879109536 140.96362738648895,203.75104668994027 142.32340355496854,198.85330387754948 142.75,194.74323384724266 141.33689927577507,188.33823634628789 139.44387755088974,184.53625970208668 137.57751810387708,182.89214329632523 134.43136932200287,182.34410202596337 132.45836076361593,182.8236382050527 130.96527320612222,183.9197173516004 127.65915075712837,187.96146653758478 125.65947992098518,191.93464607038186 124.37969058589078,198.99030501650122 125.41951942071319,205.2237752538349 127.23255431209691,209.02542872510094 128.85895325872116,211.01185466621246 130.83196181699168,211.79957080892927 133.204904542421,211.86806774428987 135.12458854506258,211.14884896112198 136.99094799207523,209.53916112615843 140.59035549708642,204.43603782821447 142.3500658327248,199.12730607829872 142.69667544437107,194.88023729983252 141.97679394320585,190.49608855860424 140.77699144161306,186.96816151849634 138.1374259380391,183.2004159685457 134.3780447661411,182.37835464150703 131.41853192879353,183.50868825020734 127.7924621461425,187.7902073408186" stroke="#4DD2FF" stroke-linecap="round" stroke-linejoin="round" stroke-width="0.5"><title>2024-12-01 10.0km</title><desc>1733006314000</desc></polyline><polyline fill="none" points="164.80026008654386,218.76725554594304 168.06169085437432,218.62760879498092 170.2722161526326,217.3707853827218 177.19369700411335,208.52633744623745 179.7666034984868,198.75061985451612 179.25926982378587,190.79017925538938 176.10655341483653,182.41056111850776 173.96850435598753,180.12940608503413 171.21440726332366,178.8724363843503 167.88050025631674,178.73277278931346 164.54659324907698,180.3156234122289 159.54573273845017,186.22796904167626 156.90035000466742,191.67468211628147 155.66825393703766,196.3299213470018 155.19715838157572,200.37992618302815 155.632015817333,206.75741948134964 158.45858914940618,214.39162933151238 160.3429713707883,217.0914906426915 163.9305452152621,218.8603533472051 166.4672135899309,219.0 169.43873940082267,217.78972705063643 172.66393204894848,214.95022313474328 176.68636332917958,209.22459193356917 179.15055546490476,202.84714620254817 179.8390797378961,194.65404277155176 178.53450743085705,187.717677255132 177.19369700411335,184.4589318234939 174.80198110779747,180.87427476464654 172.55521769006737,179.24487234911066 167.8442621366121,178.63966369320406 166.10483239381574,179.24487234911066 162.80716350651346,182.0846827912901 159.54573273845017,186.22796904167626 157.48015991901048,190.09188585251104 155.92192077450454,194.93335645712796 155.26963462098502,200.98509506089613 155.632015817333,206.52466641340288 158.38611290999688,214.39162933151238 160.19801889220253,216.9052940183028 162.55349666881375,218.39486407881486 165.8149274366442,218.9534511222737 168.89516760618426,218.20866818804643 173.85978999710642,213.46063756314106 177.41112572187558,207.87463192813448 178.89688862720504,203.73161682279897 179.91155597707257,194.93335645712796 178.53450743085705,187.57801739516435 177.19369700411335,184.31927058755537 174.98317170585506,180.87427476464654 172.62769392924383,179.198317876464 168.53278640983626,178.63966369320406 165.85116555611603,179.38453572787694 164.1117358135525,180.64150348250405 159.43701837980188,186.27452252488 156.82787376549095,191.72123483286123 155.74073017621413,195.6316396391776 155.55953957792372,205.45400019118097 156.17558761197142,208.99184060154948 158.42235102970153,214.2985302725283 159.8356376956217,216.53290045508766 162.5897347885184,218.39486407881486 165.3438318814151,219.0 168.64150076848455,218.20866818804643 170.8157879470382,216.81219566683285 174.22217119345441,212.99514069629367 177.80974503792822,207.1763745910721 179.25926982378587,202.61439038306708 179.98403221648186,195.67819179879734 178.53450743085705,187.6245706883492 175.88912469684146,182.17779091754346 173.35245632193983,179.570753474487 168.46031017042696,178.59310913539957 166.64840418845415,179.01209992033546 164.4741170099005,180.4087320365361 160.8865431654267,184.22616306398413 156.64668316743337,192.2798669213371 155.5233014584519,197.0747535438568 155.26963462098502,202.1023270036385 156.10311137279496,208.8521897237806 157.29896932072006,212.06414499765378 159.79939957614988,216.4398019987857 162.5897347885184,218.4414130351215 165.56126059917733,219.0 168.7502151275985,218.25521717051743 171.540550339967,216.11395719545544 175.12812418444082,211.7848457772052 178.4982693111524,205.40744940727018 179.8390797378961,199.4954466004856 179.87531785760075,194.46783351688646 177.3386494826991,184.598593000439 175.52674350049347,181.4794793316396 173.1350276041776,179.2914268152963 169.80112059717067,178.5 165.85116555611603,179.47764461443876 162.62597290822305,182.13123685773462 159.4732564992737,186.22796904167626 156.39301632973365,192.9316031653725 155.01596778351814,201.17130064679077 155.92192077450454,208.71253878687276 158.60354162799194,214.95022313474328 160.37920949049294,216.95184318415704 163.24202094227076,218.72070663547493 166.6121660687495,218.8603533472051 169.40250128111802,217.74317800271092 175.091886064969,211.6451960784034 176.94003016664647,208.89874002282158 178.9331267469097,203.87126986248768 179.94779409677722,195.39887874235865 179.33174606296234,190.92983775917673 177.37488760240376,184.7848078114621 175.34555290243588,181.293262659834 172.48274145065807,179.15176339738537 168.6777388881892,178.54655457104673 165.05392692401074,179.80352551021497 159.40078026009724,186.3210760015936 160.52416196884587,188.36942248878768" stroke="#4DD2FF" stroke-linecap="round" stroke-linejoin="round" stroke-width="0.5"><title>2024-11-29 13.9km</title><desc>1732833187000</desc></polyline><polyline fill="none" points="12.25,255.15962873533135 14.695798949804157,253.79366760197445 15.51612903230125,253.69609843473881 16.230120029998943,254.4376223840518 20.71155288821319,255.08157417585608 22.230682670720853,254.5547047504515 22.443360840261448,252.99359840410762 24.43342085526092,251.99838393535174 26.529819954943378,251.35441782601993 26.879219804890454,251.58858766633784 26.833645911479834,254.04734711551282 27.198237059288658,255.06206052911875 28.261627906991635,256.3499553233414 29.400975243770517,256.85730453403085 31.0720180044882,256.0767665179301 32.63672168034827,255.82309071683267 34.24699924979359,256.0572530112695 35.629407351778354,256.662170441894 37.19411102775484,255.8621177933819 39.290510127553716,255.25719687284436 40.67291822953848,255.17914236830256 42.70855213806499,255.56941445164557 43.665603900910355,254.35956741819973 44.394786196528,254.1644298114261 46.415228807134554,255.06206052911875 47.99512378097279,254.730328114616 50.31939234805759,252.62283306429163 51.413165791367646,250.92510542512173 52.400600149994716,248.23211550118867 52.73480870219646,245.26586317176407 52.127156789181754,242.08487733431684 51.01819204800995,239.56735828287492 49.62059264810523,238.39640361424244 48.02550637657987,238.14269546596915 46.810202550608665,238.45495158257836 45.777194298570976,239.23558879746997 44.12134283565683,241.38231847628776 43.01237809454324,243.5290149187349 42.374343585863244,246.59287863667123 42.72374343581032,250.80801999421965 44.15172543126391,253.87172288633883 45.13915978994919,254.67178701800003 46.475993998523336,255.04254687967477 47.41785446356516,254.96449225430842 48.48124531132635,254.45713611863903 50.31939234805759,252.5838050761231 51.413165791367646,250.92510542512173 52.41579144785646,248.19308627728606 52.68923480861122,244.8950771689706 51.6106526631047,240.71878739725798 50.89666166540701,239.41123156511458 49.71174043510109,238.39640361424244 48.58758439606754,238.14269546596915 47.32670667662751,238.2793076034577 46.35446361586219,238.80623887313413 44.941672918212134,240.133316161111 42.99718679668149,243.58756071978132 42.31357839459088,247.62716129544424 42.784508627140895,250.90559119345562 44.212490622652695,253.8912367005978 45.048012003011536,254.6327596064075 45.929107276781,254.98400591475365 47.93435858958401,254.7888691866392 50.44092273066053,252.46672104566824 51.99043510877527,249.63716024745372 52.75,245.36343827091332 52.248687171784695,242.41664000201854 50.851087771879975,239.35268400057976 49.66616654157406,238.39640361424244 48.48124531132635,238.14269546596915 47.17479369835928,238.33785562125558 45.97468117024982,239.04042990577 44.941672918212134,239.9967058502807 43.513690922700334,242.51421710620343 42.69336084020324,244.71944134791556 42.343960990256164,246.8660861264798 42.769317329337355,250.86656272195978 43.96942985750502,253.5985291988618 45.078394598618615,254.6327596064075 46.400037509272806,255.06206052911875 47.41785446356516,255.00351957249222 48.542010502598714,254.4376223840518 50.47130532632582,252.48623505764408 51.413165791367646,250.90559119345562 52.537321830459405,247.78327876249386 52.71961740433471,245.32440823951038 52.52213053259766,243.7827132113598 51.38278319576057,240.07476890154066 50.258627156785224,238.76720699593716 49.210427606943995,238.2012435413926 47.99512378097279,238.14269546596915 46.70386346592568,238.5330155018164 44.86571642907802,240.28944206582673 44.394786196528,241.12861579158925" stroke="#4DD2FF" stroke-linecap="round" stroke-linejoin="round" stroke-width="0.5"><title>2024-11-27 11.3km</title><desc>1732665796000</desc></polyline><polyline fill="none" points="57.25,255.681681738919 58.03202747856267,255.50781980945612 60.0923691050848,254.27146196106332 60.8593575937557,254.21350741374772 61.61130709241843,254.92827845434658 66.12300408468582,255.50781980945612 67.5517081322032,255.1021411177935 67.71713702188572,253.65327886136947 68.12318975117523,253.26691301050596 70.25872632744722,252.2623567092087 71.89797623467166,251.9339424778591 72.21379502408672,252.33963053183106 72.37922391382745,255.4885018037312 72.75519866315881,255.95213319151662 82.95163386553759,256.16463038772054 85.05709246190963,255.681681738919 87.79418863717001,256.0294049373333 88.81683995545609,254.79305178613868 89.53871147416066,254.54191619183985 91.25315633119317,255.43054777014186 93.08791310811648,255.2760035610263 94.57677311549196,254.05896183454024 96.63711474195588,251.18051862544962 97.52441515034297,248.37929111212725 97.70488303009188,246.69852716608148 97.16347939101979,242.7380249942944 96.33633494243259,240.70943084699684 95.61446342372801,239.66614218284667 94.80235796514899,239.10585425705358 92.98264017823385,238.8353696122649 91.6441700704745,239.33769781411684 90.80198663199553,240.052546316394 89.38832157442812,241.86863117362373 88.275436316384,243.97448672137398 87.53852580761304,247.2587841013301 87.98969550686888,251.68280165316537 89.40336056437809,254.46464360882237 90.81702562200371,255.37259371214896 92.3660415893537,255.50781980945612 93.40373189753154,255.12145917795715 94.68204604537459,253.96237075922545 96.99805050127907,250.29185953582055 97.73496100999182,246.4280574823788 97.11836242111167,242.58346649532905 96.23106201260816,240.59351027592493 95.44903453392908,239.55022073069995 94.15568139625248,238.9319713323639 92.74201633868506,238.8546899617504 91.59905310062459,239.3763383688638 90.26058299298165,240.6128303778969 88.30551429634215,243.83924926245527 87.53852580761304,247.81903875002172 87.65883772738744,250.34981573876576 88.14008540660143,252.01121648536355 89.49359450431075,254.5805524670286 91.04261047160253,255.44986578407406 92.44123653921997,255.4691837952414 93.16310805792455,255.2760035610263 94.59181210550014,254.02032541255176 96.8626995914965,250.56232160684885 97.46425919054309,248.55316206991847 97.75,245.88711651622725 96.96797252132092,242.21638936268573 96.23106201260816,240.57419017117354 95.22344968438847,239.3763383688638 94.05040846636984,238.87401030850015 92.772094318585,238.8353696122649 91.6441700704745,239.2990572484705 90.33577794273151,240.49690972524695 89.28304864454549,241.94591084735293 88.18520237650955,244.14836325850047 87.62875974748749,246.23486452488578 87.49340883776313,248.302015060166 88.12504641665146,252.06917196238646 89.35824359452818,254.4260073010082 89.95980319351656,254.94759653895744 91.28323431120953,255.4885018037312 92.93752320826752,255.35327568731736 95.3287226142129,253.13168470580422 97.07324545120355,249.98275937361177 97.75,246.13826794418856 96.96797252132092,242.17774960743554 95.40391756402096,239.47293970819737 94.23087634606054,238.9319713323639 93.012718158192,238.8353696122649" stroke="#4DD2FF" stroke-linecap="round" stroke-linejoin="round" stroke-width="0.5"><title>2024-11-24 10.4km</title><desc>1732400098000</desc></polyline><polyline fill="none" points="102.25,255.28454437210166 104.67696629214333,253.82320806576172 105.43539325846359,253.76475429271522 106.31516853929497,254.44671344281232 110.7747191010858,255.10918482964917 112.2764044944197,254.68052723539586 112.48876404494513,253.0438223962119 113.82359550561523,252.43979548489733 116.93314606742933,252.5372193584335 117.29719101125374,255.08970042236615 118.17696629214333,256.27824425128347 119.01123595511308,256.8043177709915 119.72415730333887,256.84328610028024 121.66573033703025,255.98598032123118 123.10674157302128,255.84959027609148 125.88258426968241,256.66792853182415 127.55112359550549,255.71320009659394 129.32584269659128,255.22609121598362 132.75393258430995,255.5573254412302 133.9522471909877,254.1544456469128 134.72584269661456,254.797433983651 136.39438202243764,255.03124718397157 137.425842696568,254.9727939208824 138.47247191012139,254.52465141758148 140.36853932583472,252.5956736497319 141.36966292135185,251.01739912398625 142.4921348314383,247.82182524321252 142.71966292127036,245.2886959825846 142.35561797750415,242.75552037503803 140.7932584269438,239.28694320870272 139.6404494382441,238.42952871561283 137.98707865172764,238.15671389971976 136.9859550561523,238.44901546764595 136.04550561803626,239.13105005947 133.5882022472215,242.48271408361325 132.5264044943615,245.7563541035779 132.37471910112072,247.35417409871297 132.6325842696242,250.23799766082084 133.39101123594446,252.38134112779517 134.3162921348121,253.9985692368209 135.0140449438477,254.66104276779515 136.5157303371234,255.05073159949097 137.8657303369837,254.85588732073666 138.97303370787995,254.11547656085168 140.38370786514133,252.57618888875004 141.4303370786365,250.9589441664575 142.15842696628533,249.20528396425652 142.68932584265713,246.3019532483013 142.34044943819754,242.6970619292406 141.65786516852677,240.84586504615436 140.4443820224842,238.89721000652935 139.5646067415364,238.4100419608876 137.97191011236282,238.17620069009718 136.92528089880943,238.4100419608876 136.06067415734287,239.05310341902077 134.5741573033156,240.78740579404985 133.4971910112654,242.56065879311063 132.96629213483538,243.86622615488886 132.38988764048554,246.86703581019538 132.67808988760225,250.25748275087972 133.40617977525108,252.43979548489733 134.34662921348354,254.0375383557839 135.2112359550665,254.7000117002608 136.69775280897738,255.07021601230372 138.07808988768375,254.73898062182707 138.89719101128867,254.1544456469128 140.4443820224842,252.5177345892298 141.44550561794313,250.90048918419052 142.5831460673944,247.41263057816832 142.71966292127036,245.24972440119018 142.34044943819754,242.71654808059975 141.64269662916195,240.80689221413922 140.6264044943382,239.05310341902077 139.59494382020785,238.39055520347029 138.3207865168224,238.17620069009718 136.94044943817426,238.546449186455 135.68146067415364,239.44283618235204 134.28595505619887,241.1771336752281 133.0724719101563,243.63239409965172 132.4657303370186,246.16555366368266 132.40505617979215,248.2699894411926 132.7235955056385,250.62769894083613 133.4213483145577,252.5177345892298 134.33146067411872,254.0375383557839 135.75730337074492,254.933825065149 137.3348314606701,254.9727939208824 138.65449438197538,254.34929091270897 140.48988764046226,252.45928026508773 141.5820224719355,250.64718397604884 142.15842696628533,249.24425443232758 142.62865168537246,246.96446360500704 142.75,245.3081817691418 142.35561797750415,242.67757577520388 141.26348314603092,239.96897367252677 140.6264044943382,239.09207674473873 139.24606741574826,238.29312137483794 137.5168539325823,238.25414782427833" stroke="#4DD2FF" stroke-linecap="round" stroke-linejoin="round" stroke-width="0.5"><title>2024-11-21 10.8km</title><desc>1732142576000</desc></polyline><polyline fill="none" points="147.25,254.94366457602882 149.45158550399356,253.52965984283946 150.17015855043428,253.45110360425315 151.05690826720092,254.1973860853468 153.67129105323693,254.35449767817045 155.3224801812321,254.78655364643782 156.8666477915831,254.4723312567221 157.20300113252597,252.6851779610006 161.46857304644072,251.11403528139635 161.72848244628403,251.44790458072384 161.98839184595272,254.49197017679398 163.8383352208184,256.966451997112 164.51104190264596,257.2413917134836 164.60277463198872,256.5344027770916 167.14071347680874,255.6113840535545 168.5778595697484,255.65066157039837 170.81002265005372,256.3380163258553 172.6905436013476,255.297163520896 173.92893544741673,254.96330342975853 175.45781426958274,254.88474799817777 177.6593997735181,255.27752471409622 178.85192525479943,253.94207936985185 181.17582106456393,254.72763700228825 182.91874292190187,254.5116090941301 185.31908267276594,252.35131162150356 186.4351642128895,250.5444916919805 187.38306908268714,248.01097652495082 187.75,244.88820850051707 187.36778029450215,242.31530938411015 185.74716874287697,238.79959190941008 184.56993204983883,237.95502088523062 183.086919592286,237.7782495588035 181.12995469989255,238.58353934327897 179.1729898074991,240.8226133434364 177.6288221970899,244.39720088137256 177.27718006796204,247.48070008780633 177.46064552664757,249.77855009671475 178.89779161952902,253.27435190582764 180.5031143828528,254.55088692047866 182.64354473393178,254.6883592256636 183.94309173274087,253.84388435493747 185.716591166507,251.74249447573675 186.81738391850377,249.75891051332292 187.55124575312948,247.30394082763814 187.75,244.92748903536994 187.41364665911533,242.5902779658063 185.80832389579155,238.87815639599285 184.03482446202543,237.8175320951559 182.582389580959,237.8568146204343 181.19110985280713,238.56389818433672 179.84569648926845,239.97805456344213 178.45441676105838,242.09926226121024 177.76642129110405,243.92583194164035 177.30775764444843,246.30230079122703 177.53708946774714,249.9749457782891 178.46970554930158,252.4691468913661 179.4787655719556,253.9617183645605 180.94648924120702,254.70799811533652 182.61296715744538,254.6883592256636 184.00424688565545,253.76532829321513 185.4261041902937,252.19419777365692 186.78680634207558,249.8374688301992 187.41364665911533,247.87349764212559 187.75,244.94712929870002 187.5359569649445,243.35625901515596 186.9396942242165,240.99938081331493 185.80832389579155,238.89779751074093 184.1571347678546,237.83717335914844 183.28567383921472,237.7586082865164 181.97083805210423,237.99430337183003 181.2369762174785,238.48533352083177 179.84569648926845,239.93877263530158 178.30152887880104,242.55099677309045 177.5982446206035,244.61324444660568 177.30775764444843,246.61654157658631 177.50651189131895,249.73927092720987 178.88250283128582,253.2547128144215 179.78454133635387,254.1973860853468 180.94648924120702,254.70799811533652 182.38363533408847,254.72763700228825 183.27038505091332,254.39377554880048 185.73187995475018,251.78177308139857 187.2607587769744,248.58053045379347 187.75,244.8685682288633 186.83267270668875,240.76369080373843 185.77774631942157,238.87815639599285 184.95215175539488,238.2103568502498 184.05011325032683,237.83717335914844 182.3224801812321,237.87645587894076 181.35928652319126,238.34784525328723 180.35022650053725,239.3691834348574 179.2341449604137,240.74404995166697 177.98046432621777,243.2776970497507 177.27718006796204,247.1664612482855 177.81228765571723,250.8390834939637 179.26472253678367,253.78496731282212 180.83946772367926,254.7472758864169 182.36834654590348,254.78655364643782 183.20922989811515,254.4526923338417 185.624858437106,251.95852667014697 186.83267270668875,249.8374688301992 187.42893544735853,247.99133669280855 187.734711211815,244.7900071148324 187.35249150625896,242.41351251123706 186.4810305776191,240.07625933535746 185.716591166507,238.79959190941008 184.6463759909966,238.07286831176316 183.51500566251343,237.7782495588035 182.18488108721795,237.95502088523062 181.17582106456393,238.56389818433672 179.81511891284026,239.9584136007761 177.9193091733032,243.33661852795922 177.46064552664757,245.1042513055727 177.26189127971884,247.89313749079884 178.17921857303008,251.8603302595584 178.85192525479943,253.2154346233001 179.81511891284026,254.21702504414134 180.7018686296651,254.6687203332258 182.39892412233166,254.70799811533652 183.23980747454334,254.39377554880048 184.43233295582468,253.37254732147267 185.56370328430785,252.01744448335376 186.9702718007029,249.52323529742716 187.734711211815,245.67381709767506 187.21489241230302,241.88321480389277 185.73187995475018,238.81923303518852 183.98895809741225,237.8175320951559 182.64354473393178,237.83717335914844 181.63448471121956,238.22999805897416 179.90685164212482,239.8602087458712 179.09654586634133,241.11722566882963" stroke="#4DD2FF" stroke-linecap="round" stroke-linejoin="round" stroke-width="0.5"><title>2024-11-17 16.3km</title><desc>1731797391000</desc></polyline></svg>