<?xml version="1.0" encoding="utf-8" ?>
<svg baseProfile="full" height="300mm" version="1.1" viewBox="0,0,200,300" width="200mm" xmlns="http://www.w3.org/2000/svg" xmlns:ev="http://www.w3.org/2001/xml-events" xmlns:xlink="http://www.w3.org/1999/xlink"><defs /><rect fill="#222222" height="300" width="200" x="0" y="0" /><text fill="#FFFFFF" style="font-size:12px; font-family:Arial; font-weight:bold;" x="10" y="20">Over 5km Runs</text><text fill="#FFFFFF" style="font-size:4px; font-family:Arial" x="10" y="280">ATHLETE</text><text fill="#FFFFFF" style="font-size:9px; font-family:Arial" x="10" y="290">sagasw</text><text fill="#FFFFFF" style="font-size:4px; font-family:Arial" x="65" y="280">SPECIAL TRACKS</text><rect fill="yellow" height="2.6" width="2.6" x="65" y="283" /><text fill="#FFFFFF" style="font-size:3px; font-family:Arial" x="70" y="285.5">Over 20.0 km</text><rect fill="red" height="2.6" width="2.6" x="65" y="287" /><text fill="#FFFFFF" style="font-size:3px; font-family:Arial" x="70" y="289.5">Over 40.0 km</text><text fill="#FFFFFF" style="font-size:4px; font-family:Arial" x="120" y="280">STATISTICS</text><text fill="#FFFFFF" style="font-size:3px; font-family:Arial" x="120" y="285">Number: 7</text><text fill="#FFFFFF" style="font-size:3px; font-family:Arial" x="120" y="290">Weekly: 1.8</text><text fill="#FFFFFF" style="font-size:3px; font-family:Arial" x="141" y="285">Total: 88.9 km</text><text fill="#FFFFFF" style="font-size:3px; font-family:Arial" x="141" y="290">Avg: 12.7 km</text><text fill="#FFFFFF" style="font-size:3px; font-family:Arial" x="167" y="285">Min: 10.0 km</text><text fill="#FFFFFF" style="font-size:3px; font-family:Arial" x="167" y="290">Max: 16.3 km</text><polyline fill="none" points="13.0,70.35069528374879 16.26351351349149,68.42389535302937 17.21621621621307,68.26766745225177 17.96621621621307,69.23107073894062 21.777027026982978,69.59560040428187 23.94594594591763,70.272582163263 26.297297297162004,69.59560040428187 26.601351351244375,67.35633540226263 29.945945945801213,65.84611812300864 32.21621621621307,65.35138909255329 32.56081081076991,65.82007978593174 32.47972972958814,68.55408516956959 33.10810810804833,70.09031808715372 34.202702702605166,71.78276331568486 35.317567567457445,72.45973707284429 40.20270270272158,71.18389985067188 44.37837837834377,72.27747515110241 46.97297297290061,70.8974862039031 49.466216216096655,70.32465758058242 53.581081080948934,70.81937331425434 54.635135135031305,69.25710859602259 55.28378378378693,68.91861616862298 56.35810810804833,69.77786496766203 58.770270270179026,70.14239355576865 60.31081081076991,69.90805383156112 61.668918918818235,69.07484351973108 63.331081080948934,67.35633540226263 65.15540540532675,64.72646632124088 66.10810810793191,62.30487064694171 66.97972972970456,57.07099107594695 65.76351351349149,51.73280218699074 63.655405405326746,48.373570221010596 61.36486486485228,47.59234474290861 59.78378378378693,47.7746309828799 58.56756756757386,48.29544782167068 56.19594594591763,50.82138869073242 53.986486486392096,54.805534603699925 53.09459459455684,59.6228513521346 53.621621621539816,64.62231232089107 54.51351351349149,66.86161040970183 55.9121621621307,68.91861616862298 57.77702702698298,69.96012935154431 59.54054054047447,70.06428034738929 61.263513513375074,69.30918429914163 62.9256756757386,67.74690683049266 65.76351351349149,63.398498424416175 66.51351351337507,60.74253403740295 66.93918918911368,57.175149327216786 65.78378378367051,51.993205218430376 64.44594594591763,49.25895510830742 63.614864864735864,48.34752942492196 61.36486486485228,47.5663038368657 60.10810810804833,47.67046743915125 58.97297297290061,48.061080425730324 57.452702702605166,49.311036440267344 54.270270270179026,54.128496251185425 53.09459459455684,59.80512573936721 53.60135135136079,64.54419678205159 54.53378378378693,66.93972497009963 55.93243243242614,68.97069196701341 57.10810810804833,69.72578939644154 59.135135135031305,70.1684312846046 60.49324324319605,69.80390274782258 62.135135135031305,68.58012312192295 65.6621621621307,63.684923678898485 66.85810810804833,58.633358688122826 66.49324324319605,53.97225627952139 64.34459459455684,49.10271102430124 63.53378378378693,48.32148862516624 61.405405405326746,47.5663038368657 60.00675675668754,47.72254921840795 58.385135135031305,48.47773336885439 56.155405405326746,50.84742913863738 54.31081081065349,54.07641627530393 53.19594594591763,58.16464978971635 53.0743243242614,60.84669022183516 53.54054054047447,64.57023529869912 55.68918918911368,68.762388685529 58.06081081076991,70.03824260388501 59.92567567550577,69.96012935154431 61.121621621539816,69.3872978263098 62.54054054047447,68.21559145608626 64.42567567562219,65.76800310082035 65.6621621621307,63.71096231639967 66.22972972958814,61.96636550100811 66.93918918911368,56.99287234900112 65.7229729729006,51.784882822597865 64.3851351350313,49.12875171410269 62.8243243242614,47.90483533000224 61.405405405326746,47.5663038368657 59.56081081076991,47.80067185968801 57.59459459455684,49.20687376163551 55.871621621539816,51.290116192467394 53.864864864735864,55.19613252619456 53.25675675668754,57.904255444256705 53.09459459455684,60.898768291954184 53.60135135136079,64.59627381159225 54.5743243242614,66.99180132547917 55.62837837834377,68.73635075880156 56.72297297290061,69.54352478178043 58.79054054047447,70.14239355576865 60.39189189183526,69.82994052421418 61.770270270179026,68.91861616862298 63.918918918818235,66.65330475399969 65.68243243242614,63.65888503768656 66.55405405408237,60.58629965085129 66.93918918911368,57.01891192837502 65.60135135124438,51.55051984693273 64.42567567562219,49.180833082747995 63.635135135031305,48.34752942492196 61.75,47.54026292714116 60.00675675668754,47.64442654409504 58.14189189183526,48.555855691287434 56.398648648522794,50.56098400996416 54.18918918911368,54.31077605135215 53.0743243242614,60.03947825913201 53.60135135136079,64.57023529869912 54.59459459455684,67.01783949763922 55.72972972970456,68.81446452786622 57.270270270179026,69.85597829698236 58.75,70.11635582332383 60.65540540544316,69.67371381055273 64.0,66.60122830336331 65.6621621621307,63.71096231639967 66.18918918911368,62.070520996523555 67.0,56.65435748452728 66.00675675668754,52.487969968336984 65.05405405396596,50.300578962720465 63.93918918911368,48.686059488594765 62.763513513375074,47.90483533000224 60.69594594591763,47.5663038368657 58.68918918911368,48.19128457120678 57.12837837822735,49.59748350419977 55.64864864863921,51.86300374849816" stroke="#4DD2FF" stroke-linecap="round" stroke-linejoin="round" stroke-width="0.5"><title>2024-12-03 16.2km</title><desc>1733178751000</desc></polyline><polyline fill="none" points="133.0,81.87453063204885 136.7327188940253,80.04796547873411 139.64779460174032,79.63698690244928 143.20276497700252,80.00230121822096 147.50427913106978,81.55488247235189 151.7346938776318,79.13467904680874 155.96510862419382,78.1300610031467 163.32389730098657,79.18034342949977 166.34562211995944,75.61850228757248 167.51876234379597,75.57283740362618 171.4292297565844,77.53642160640447 174.59315339056775,77.53642160640447 177.11718235677108,76.25780998650589 179.60566161945462,73.92889730556635 181.56089532584883,71.8739604720613 184.97366688610055,65.8917369421979 186.96445029624738,56.073344784002984 184.97366688610055,45.93497228092747 182.59183673467487,41.00267652029288 180.35220539825968,39.03887122817105 177.08163265301846,38.26247981088818 173.5977616852615,38.76485094008967 170.75378538528457,40.9113370027917 166.84331797226332,45.70662691007601 164.24818959855475,50.912861427204916 163.14614878222346,55.38832959337742 162.68400263343938,58.85905832759454 163.0750493744854,65.02407704357756 163.89269256102853,68.81436374227633 166.5944700462278,74.20288790026098 168.58525345637463,76.48613385960925 172.42462146142498,77.71907999797259 174.34430546406657,77.673415409663 177.36603028303944,76.07515077237622 181.52534562232904,71.91962587635498 184.29822251480073,67.49005173484329 186.3601053324528,61.2794129740214 187.0,54.748980777541874 185.43581303511746,47.03102782348287 183.19618169846945,41.96173990145326 181.16984858480282,39.54124115520972 175.97959183668718,38.12546936798026 172.49572086893022,39.31289128473145 166.84331797226332,45.615288716799114 163.89269256102853,52.05456835500081 162.64845292968675,60.64007576534641 163.78604344953783,68.63170033847564 166.02567478595302,73.42658061467228 168.2653061223682,76.34913955497905 170.86043449654244,77.39942774525844 174.2376563528087,77.62775081503787 178.82356813689694,74.84219838812714 184.61816984857433,66.66806225327309 186.43120473995805,60.137738503399305 187.0,54.65764512968599 185.11586570111103,46.117648461746285 182.59183673467487,41.04834626946831 180.10335747199133,38.856191061786376 175.90849242941476,38.12546936798026 173.2778143514879,38.76485094008967 171.2870309415739,40.22628980214358 166.87886767624877,45.615288716799114 164.21263989480212,50.912861427204916 162.50625411467627,60.3204066886683 163.89269256102853,68.63170033847564 166.31007241620682,73.70057163346792 168.47860434511676,76.34913955497905 171.10928242257796,77.39942774525844 174.27320605679415,77.4907569923962 176.8327847267501,76.53179861485842 179.32126398943365,74.38554816824035 184.12047399627045,67.58138377097202 186.46675444371067,60.50307477108436 186.92890059249476,54.84031639978639 185.96905859117396,48.99478474483476 184.36932192230597,44.290882024681196 180.8499012507964,39.267221291403985 175.8373930216767,38.171139522019075 171.89137590513565,39.67825100029586 167.05661619501188,45.38694312109146" stroke="#4DD2FF" stroke-linecap="round" stroke-linejoin="round" stroke-width="0.5"><title>2024-12-01 10.0km</title><desc>1733006314000</desc></polyline><polyline fill="none" points="36.40034678229131,146.6896740612283 40.74892113916576,146.5034783933079 43.696288203587756,144.82771384360967 52.924929338973016,133.03511659495416 56.35547133162618,120.00082647267845 55.679026431869715,109.3869056738331 51.47540455311537,98.21408149131457 48.624672474805266,95.17254144669278 44.952543017687276,93.49658184580039 40.50733367516659,93.31036371906521 36.06212433218025,95.42083121629548 29.39431031816639,103.30395872221561 25.867133339866996,110.56624282168923 24.224338582716882,116.77322846266907 23.596211175667122,122.17323491067509 24.17602108977735,130.6765593084565 27.944785532541573,140.85550577531103 30.457295161206275,144.4553208569123 35.24072695383802,146.81380446293042 38.62295145355165,147.0 42.58498586784117,145.3863027341722 46.88524273200892,141.60029751298134 52.24848443898372,133.96612257807283 55.53407395328395,125.46286160338786 56.45210631727241,114.53872369538294 54.71267657447606,105.2902363401663 52.924929338973016,100.94524243130581 49.73597481055185,96.16569968618569 46.740290253655985,93.99316313213785 40.45901618199423,93.186218257586 38.139776525087655,93.99316313213785 33.74288467527367,97.77957705504377 29.39431031816639,103.30395872221561 26.64021322550252,108.45584780329955 24.562561032595113,114.91114194283728 23.692846161313355,122.9801267478615 24.17602108977735,130.36622188449837 27.84815054689534,140.85550577531103 30.26402518968098,144.2070586910413 33.40466222516261,146.19315210508648 37.75323658203706,146.93793482964975 41.860223474912345,145.94489091739524 48.4797199962195,139.6141834174923 53.214834295911714,132.1661759041599 55.19585150294006,126.64215576369315 56.54874130291864,114.91114194283728 54.71267657447606,105.10402319353307 52.924929338973016,100.75902745005442 49.97756227478385,96.16569968618569 46.83692523906939,93.93109050192288 41.37704854644835,93.186218257586 37.80155407497659,94.17938097048318 35.48231441807002,95.85533797668177 29.249357839580625,103.36603003315395 25.770498354220763,110.62831311044283 24.320973568363115,115.84218618553132 24.079386104131117,128.93866692154552 24.900783482706174,133.65578746871324 27.896468039834872,140.7313736967044 29.780850260984153,143.71053394008777 33.45297971810214,146.19315210508648 37.12510917522013,147.0 41.522001024801284,145.94489091739524 44.42105059628375,144.08292755574803 48.962894924683496,138.99352092837216 53.74632671731524,131.23516612139065 55.679026431869715,125.1525205107173 56.645376288797706,115.90425573172979 54.71267657447606,105.16609425109345 51.18549959594384,97.90372122335248 47.80327509599738,94.42767129928689 41.280413560569286,93.1241455138661 38.86453891801648,93.68279989375151 35.965489346766844,95.54497604869539 31.18205755390227,100.63488408530247 25.528910889988765,111.37315589509672 24.031068611424416,117.76633805845631 23.692846161313355,124.46976933817496 24.80414849705994,133.46958629836445 26.398625761037692,137.75219333020505 29.73253276827745,143.5864026650088 33.45297971810214,146.2552173801232 37.41501413215883,147.0 41.66695350361988,146.00695622735657 45.38740045321174,143.15194292724482 50.170832246076316,137.37979436959722 54.66435908176936,128.87659920967417 56.45210631727241,120.99392880062805 56.50042381021194,114.29044468916254 53.11819931026548,101.13145733391866 50.70232466747984,96.97263910880429 47.51337013905868,94.05523575373809 43.068160796305165,93.0 37.80155407497659,94.30352615256561 33.50129721080884,97.84164914363646 29.297675332520157,103.30395872221561 25.190688439877704,112.24213755383971 23.354623711435124,123.22840086236829 24.562561032595113,133.28338504917338 28.13805550406687,141.60029751298134 30.505612653912976,144.26912424553302 34.32269458961673,146.6276088472805 38.81622142507695,146.81380446293042 42.53666837490164,145.3242373369285 50.122514753369614,137.19359477120452 52.586706888861954,133.5316533637233 55.24416899611242,126.82835981665994 56.597058795858175,115.53183832313516 55.77566141728312,109.57311701221624 53.16651680320501,101.37974374857731 50.460737203247845,96.7243502131023 46.64365526754409,93.86901786315138 41.570318517740816,93.06207276135683 36.73856923216954,94.73803401360055 29.201040346873924,103.42810133541934 30.698882625438273,106.15922998503083" stroke="#4DD2FF" stroke-linecap="round" stroke-linejoin="round" stroke-width="0.5"><title>2024-11-29 13.9km</title><desc>1732833187000</desc></polyline><polyline fill="none" points="133.0,130.21283831376059 136.26106526644435,128.39155680262775 137.3548387098126,128.26146457964205 138.30682670674287,129.25016317873087 144.2820705176564,130.1087655677984 146.30757689429447,129.40627300059714 146.59114778705407,127.32479787213379 149.2445611403091,125.99784524712595 152.0397599400021,125.13922376801202 152.50562640663702,125.45145022177894 152.44486121530645,128.72979615400254 152.9309827457182,130.08274737214379 154.3488372093998,131.7999404311122 155.86796699173283,132.47640604537446 158.09602400602307,131.43568869057344 160.1822955738753,131.09745428909082 162.32933233305812,131.4096706816781 164.1725431358209,132.21622725584893 166.25881470367312,131.14949039115163 169.05401350348257,130.34292916377308 170.89722430612892,130.23885649106523 173.6114028507145,130.7592192688462 174.88747186795808,129.14608989092812 175.8597149287816,128.88590641522023 178.55363840959035,130.08274737214379 180.66016504133586,129.6404374861595 183.75918979744893,126.83044408571732 185.2175543885678,124.56680723348109 186.5341335333651,120.9761540015752 186.97974493633956,117.02115089568542 186.16954238561448,112.77983644574124 184.69092273071874,109.42314437715686 182.8274568641791,107.8618714856566 180.70067516877316,107.52359395461099 179.08027006755583,107.93993544342811 177.70292573142797,108.98078506327874 175.49512378091458,111.84309130170732 174.01650412613526,114.70535322497017 173.16579144785646,118.79050484887557 173.63165791437495,124.41069332561165 175.5356339084683,128.4956305151136 176.852213053382,129.56238269065216 178.63465866469778,130.0567291728803 179.8904726181645,129.9526563390682 181.30832708184607,129.2761814914993 183.75918979744893,126.77840676814958 185.2175543885678,124.56680723348109 186.55438859725837,120.92411503636686 186.91897974489257,116.52676955860807 185.48087021755055,110.95838319633913 184.5288822206203,109.21497542015277 182.94898724684026,107.8618714856566 181.45011252816767,107.52359395461099 179.76894223550335,107.70574347127695 178.47261815459933,108.40831849750248 176.58889722428285,110.17775488147163 173.996249062242,114.78341429303691 173.08477119286545,120.1695483939111 173.7126781695988,124.54078825793113 175.61665416357573,128.52164893412555 176.73068267072085,129.5103461418621 177.90547636908013,129.97867455300002 180.57914478622843,129.71849224883772 183.92123030754738,126.6222947275528 185.98724681173917,122.84954699658556 187.0,117.15125102786988 186.33158289571293,113.2221866693435 184.4681170291733,109.13691200077301 182.8882220555097,107.8618714856566 181.30832708184607,107.52359395461099 179.56639159785118,107.7838074949832 177.9662415602943,108.72057320769818 176.58889722428285,109.99560780037427 174.68492123030592,113.35228947493306 173.59114778693765,116.29258846388257 173.12528132041916,119.15478150197305 173.69242310582194,124.48875029594637 175.29257314337883,128.13137226513936 176.77119279815815,129.5103461418621 178.5333833458135,130.08274737214379 179.8904726181645,130.0046927633084 181.3893473368371,129.25016317873087 183.9617404351011,126.6483134101727 185.2175543885678,124.54078825793113 186.71642910735682,120.37770501663908 186.95948987244628,117.09921098600898 186.69617404346354,115.04361761514156 185.1770442611305,110.09969186870148 183.6781695424579,108.35627599457803 182.2805701425532,107.60165805518045 180.66016504133586,107.52359395461099 178.93848462123424,108.0440206690837 176.48762190551497,110.38592275441624 175.8597149287816,111.50482105545234" stroke="#4DD2FF" stroke-linecap="round" stroke-linejoin="round" stroke-width="0.5"><title>2024-11-27 11.3km</title><desc>1732665796000</desc></polyline><polyline fill="none" points="13.0,190.90890898523503 14.042703304789029,190.67709307928453 16.7898254734464,189.02861594810383 17.81247679167427,188.95134321834485 18.81507612322457,189.9043712724815 24.830672112875618,190.67709307928453 26.735610842937604,190.13618815706286 26.95618269580882,188.204371815169 27.497586334939115,187.68921734736068 30.3449684366351,186.34980894561158 32.53063497960102,185.91192330382182 32.951726698782295,186.45284070911293 33.17229855176993,190.6513357383228 33.67359821754508,191.26951092203672 47.26884515408892,191.55284051697527 50.07612328254618,190.90890898523503 53.72558484959882,191.37253991643956 55.089119940646924,189.72406904819945 56.051615298958495,189.38922158912465 58.33754177496303,190.57406369353703 60.78388414415531,190.36800474803022 62.76903082069475,188.74528244606336 65.5161529892357,184.907358167271 66.69922020053491,181.1723881495127 66.9398440400837,178.9313695547753 66.21797252132092,173.65069999241678 65.11511325661559,170.94590779600549 64.15261789830402,169.5548562437907 63.06981062015984,168.807805676086 60.643520237645134,168.4471594830393 58.858893427299336,169.11693041882245 57.73598217603285,170.07006175520655 55.851095432648435,172.49150823151285 54.36724842188414,175.29931562850834 53.38470107677858,179.67837880179286 53.98626067582518,185.5770688709017 55.87114741920959,189.28619147842983 57.75603416271042,190.49679161621316 59.82138878584374,190.67709307928453 61.204975863336585,190.16194557062408 62.909394727204926,188.61649434563878 65.9974006684497,183.72247938110377 66.97994801332243,178.57074330984324 66.15781656152103,173.4446219937672 64.97474935022183,170.79134703456657 63.93204604531638,169.40029430761933 62.2075751950033,168.57596177649975 60.32268845161889,168.47291994901025 58.79873746749945,169.16845115848992 57.014110657270066,170.8171071705292 54.40735239512287,175.11899901661673 53.38470107677858,180.4253850000241 53.545116969849914,183.7997543183592 54.18678054213524,186.01495531383262 55.991459339042194,189.44073662270966 58.05681396217551,190.5998210454418 59.92164871888235,190.6255783936649 60.88414407719392,190.36800474803022 62.789082807372324,188.69376721674053 65.8169327887008,184.08309547581302 66.61901225405745,181.40421609322948 67.0,177.8494886883127 65.95729669509456,172.9551858169143 64.97474935022183,170.7655868949223 63.63126624585129,169.16845115848992 62.06721128849313,168.49868041134323 60.3627924247412,168.4471594830393 58.858893427299336,169.06540966463217 57.11437059030868,170.66254630034382 55.71073152613826,172.59454779648513 54.24693650205154,175.5311510113388 53.505012996611185,178.3131526998477 53.3245451169787,181.0693534135644 54.16672855545767,186.09222928318195 55.810991459409706,189.23467640134913 56.613070924649946,189.93012871862447 58.37764574831817,190.6513357383228 60.58336427772883,190.47103424975649 63.77163015224505,187.50891294107714 66.09766060160473,183.3103458314872 67.0,178.18435725892778 65.95729669509456,172.90366614326194 63.87189008540008,169.29725294426316 62.30783512815833,168.57596177649975 60.68362421088386,168.4471594830393" stroke="#4DD2FF" stroke-linecap="round" stroke-linejoin="round" stroke-width="0.5"><title>2024-11-24 10.4km</title><desc>1732400098000</desc></polyline><polyline fill="none" points="133.0,190.37939249613555 136.2359550561523,188.4309440876823 137.2471910113236,188.3530057236203 138.42022471909877,189.26228459041158 144.36629213485867,190.14557977285585 146.36853932589293,189.57403631386114 146.65168539329898,187.3917631949298 148.43146067415364,186.5863939798728 152.5775280899834,186.71629247791134 153.06292134837713,190.11960056315002 154.23595505626872,191.7043256683828 155.34831460681744,192.40575702798378 156.29887640452944,192.45771480037365 158.88764044945128,191.31464042831794 160.80898876406718,191.13278703477408 164.51011235965416,192.2239047090843 166.73483146063518,190.95093346212525 169.10112359549385,190.30145495463512 173.67191011237446,190.74310058829724 175.26966292131692,188.87259419588372 176.30112359544728,189.72991197819647 178.52584269666113,190.0416629119718 179.901123595424,189.96372522784804 181.29662921349518,189.36620189010864 183.82471910107415,186.79423153297103 185.15955056180246,184.68986549864348 186.65617977525108,180.42910032428335 186.9595505617326,177.05159464344615 186.47415730333887,173.67402716672223 184.39101123600267,169.04925761160848 182.85393258440308,167.90603828748863 180.64943820226472,167.54228519962635 179.31460674165282,167.93202062351338 178.06067415734287,168.84140007928363 174.7842696630396,173.3102854448225 173.36853932589293,177.67513880477054 173.16629213478882,179.80556546493608 173.51011235953774,183.65066354775627 174.52134831459261,186.50845483705052 175.75505617971066,188.66475898242788 176.6853932584636,189.54805702371232 178.68764044949785,190.06764213264978 180.48764044931158,189.8078497609822 181.96404494380113,188.82063541446405 183.84494382014964,186.76825185165217 185.24044943822082,184.61192555526213 186.21123595512472,182.27371195233718 186.91910112358164,178.40260433105868 186.45393258426338,173.59608257231594 185.54382022470236,171.1278200615343 183.9258426966844,168.52961334203428 182.7528089886764,167.880055947855 180.62921348318923,167.56826758680108 179.23370786511805,167.880055947855 178.08089887641836,168.73747122536588 176.0988764044596,171.0498743920616 174.66292134835385,173.4142117241572 173.9550561797805,175.15496820650878 173.18651685398072,179.15604774691747 173.57078651688062,183.67664366784447 174.5415730336681,186.5863939798728 175.79550561797805,188.71671780772158 176.94831460679416,189.60001560034289 178.9303370786365,190.09362134973344 180.77078651695047,189.6519741624361 181.8629213484237,188.87259419588372 183.9258426966844,186.6903127856349 185.2606741572963,184.53398557890614 186.77752808993682,179.8835074375529 186.9595505617326,176.99963253492024 186.45393258426338,173.62206410746148 185.52359550562687,171.07585628550441 184.16853932582308,168.73747122536588 182.7932584269438,167.85407360462705 181.0943820225075,167.56826758680108 179.25393258430995,168.0619322486018 177.57528089883272,169.25711490980757 175.7146067415597,171.5695115669805 174.09662921354175,174.84319213285926 173.28764044935815,178.2207382182387 173.2067415730562,181.02665258826164 173.6314606742235,184.17026525443362 174.5617977527436,186.6903127856349 175.77528089878615,188.71671780772158 177.67640449432656,189.911766753532 179.77977528097108,189.96372522784804 181.53932584263384,189.13238788361195 183.98651685391087,186.61237368677394 185.44269662932493,184.1962453013839 186.21123595512472,182.32567257643677 186.83820224716328,179.28595147334272 187.0,177.07757569217938 186.47415730333887,173.57010103359062 185.01797752815764,169.95863156336418 184.16853932582308,168.7894356596371 182.32808988774195,167.72416183311725 180.02247191010974,167.67219709903293" stroke="#4DD2FF" stroke-linecap="round" stroke-linejoin="round" stroke-width="0.5"><title>2024-11-21 10.8km</title><desc>1732142576000</desc></polyline><polyline fill="none" points="13.0,249.92488610136206 15.93544733861927,248.0395464571193 16.89354473387357,247.93480480567086 18.075877689640038,248.92984811379574 21.561721404315904,249.13933023753634 23.76330690830946,249.7154048618977 25.82219705544412,249.29644167562947 26.270668176701292,246.9135706146626 31.9580973952543,244.81871370851877 32.304643261712044,245.26387277428876 32.65118912793696,249.32262690237258 35.11778029438574,252.62193599613965 36.01472253690008,252.98852228464966 36.137032842612825,252.04587036944577 39.52095130237285,250.81517873806297 41.437146092997864,250.867548760536 44.413363533327356,251.78402176778764 46.920724801835604,250.39621802784677 48.57191392988898,249.95107123967318 50.61041902611032,249.84633066422248 53.545866364613175,250.3700329521089 55.13590033969376,248.58943915979762 58.234428086085245,249.63684933636978 60.558323895791546,249.3488121255068 63.758776896982454,246.46841549534292 65.2468856171472,244.05932225596916 66.51075877691619,240.6813020332629 67.0,236.51761133401305 66.49037372600287,233.08707917880383 64.32955832383595,228.39945587920374 62.7599093997851,227.2733611802978 60.78255945642013,227.03766607839498 58.17327293322887,228.11138579102408 55.563986410037614,231.09681779124367 53.50509626278654,235.8629345084919 53.03624009061605,239.97426678374177 53.28086070227437,243.03806679560512 55.19705549266655,247.69913587442716 57.337485843803734,249.4011825606285 60.191392978536896,249.58447896753205 61.92412231035996,248.45851247324026 64.28878822200932,245.65665930096293 65.75651189126074,243.0118806844257 66.73499433754478,239.7385877701745 67.0,236.56998538048356 66.55152887885924,233.4537039544084 64.41109852772206,228.50420852797106 62.04643261607271,227.09004279352666 60.10985277465079,227.1424194939027 58.254813136998564,228.08519757911563 56.460928652319126,229.97073941791314 54.605889014783315,232.79901634827547 53.68856172147207,235.23444258882955 53.0770101925591,238.40306772163603 53.38278595695738,243.29992770437093 54.626274065696634,246.62552918848814 55.97168742923532,248.61562448607583 57.92865232157055,249.61066415377718 60.15062287659384,249.58447896753205 62.005662514129654,248.35377105760563 63.90147225372493,246.25893036487105 65.7157417894341,243.11662510692258 66.55152887885924,240.4979968561529 67.0,236.59617239826184 66.71460928651504,234.47501202020794 65.91959229903296,231.33250775106717 64.41109852772206,228.5303966809879 62.20951302384492,227.1162311455264 61.04756511899177,227.01147771535034 59.29445073613897,227.32573782910185 58.31596828997135,227.98044469444721 56.460928652319126,229.91836351373058 54.40203850506805,233.40132903077756 53.464326160843484,236.15099259545968 53.0770101925591,238.82205543543387 53.34201585513074,242.9856945696083 55.176670441636816,247.67295041921898 56.37938844843302,248.92984811379574 57.92865232157055,249.61066415377718 59.84484711207915,249.63684933636978 61.027180067962036,249.19170073172427 64.30917327292264,245.70903077519324 66.3476783692604,241.44070727171493 67.0,236.4914243051462 65.77689694229048,231.01825440497487 64.37032842589542,228.50420852797106 63.26953567378223,227.61380913366156 62.06681766710244,227.1162311455264 59.76330690830946,227.16860783858283 58.47904869762715,227.79712700436357 57.13363533408847,229.15891124645714 55.645526613807306,230.99206660220807 53.97395243495703,234.37026273299125 53.03624009061605,239.5552816643758 53.74971687432844,244.45211132527038 55.68629671575036,248.37995641707676 57.78595696494449,249.66303451520798 59.82446206116583,249.7154048618977 60.945639864192344,249.2702564451174 64.16647791618016,245.94470222685777 65.77689694229048,243.11662510692258 66.57191392977256,240.6551155904017 66.97961494908668,236.38667615309532 66.46998867497314,233.21801668162516 65.3080407702364,230.10167911380995 64.28878822200932,228.39945587920374 62.86183465470094,227.43049108234118 61.35334088339005,227.03766607839498 59.57984144962393,227.2733611802978 58.234428086085245,228.08519757911563 56.42015855049249,229.94455146769178 53.89241223107092,234.44882470394077 53.28086070227437,236.8056684074254 53.01585503958631,240.5241833210457 54.23895809741225,245.8137736794015 55.13590033969376,247.6205794977286 56.42015855049249,248.9560333921836 57.60249150625896,249.5582937776344 59.865232163108885,249.61066415377718 60.98640996601898,249.19170073172427 62.57644394109957,247.8300630952872 64.08493771241046,246.02325931112864 65.96036240097601,242.69764706323622 66.97961494908668,237.5650894635619 66.28652321640402,232.51095307186188 64.30917327292264,228.42564404690347 61.985277463216335,227.09004279352666 60.191392978536896,227.1162311455264 58.845979614998214,227.63999741195585 56.54246885620523,229.81361166115676 55.46206115512177,231.48963422510133" stroke="#4DD2FF" stroke-linecap="round" stroke-linejoin="round" stroke-width="0.5"><title>2024-11-17 16.3km</title><desc>1731797391000</desc></polyline></svg>