<?xml version="1.0" encoding="utf-8" ?>
<svg baseProfile="full" height="300mm" version="1.1" viewBox="0,0,200,300" width="200mm" xmlns="http://www.w3.org/2000/svg" xmlns:ev="http://www.w3.org/2001/xml-events" xmlns:xlink="http://www.w3.org/1999/xlink"><defs /><rect fill="#222222" height="300" width="200" x="0" y="0" /><text fill="#FFFFFF" style="font-size:12px; font-family:Arial; font-weight:bold;" x="10" y="20">Over 5km Runs</text><text fill="#FFFFFF" style="font-size:4px; font-family:Arial" x="10" y="280">ATHLETE</text><text fill="#FFFFFF" style="font-size:9px; font-family:Arial" x="10" y="290">sagasw</text><text fill="#FFFFFF" style="font-size:4px; font-family:Arial" x="65" y="280">SPECIAL TRACKS</text><rect fill="yellow" height="2.6" width="2.6" x="65" y="283" /><text fill="#FFFFFF" style="font-size:3px; font-family:Arial" x="70" y="285.5">Over 20.0 km</text><rect fill="red" height="2.6" width="2.6" x="65" y="287" /><text fill="#FFFFFF" style="font-size:3px; font-family:Arial" x="70" y="289.5">Over 40.0 km</text><text fill="#FFFFFF" style="font-size:4px; font-family:Arial" x="120" y="280">STATISTICS</text><text fill="#FFFFFF" style="font-size:3px; font-family:Arial" x="120" y="285">Number: 15</text><text fill="#FFFFFF" style="font-size:3px; font-family:Arial" x="120" y="290">Weekly: 2.1</text><text fill="#FFFFFF" style="font-size:3px; font-family:Arial" x="141" y="285">Total: 187.2 km</text><text fill="#FFFFFF" style="font-size:3px; font-family:Arial" x="141" y="290">Avg: 12.5 km</text><text fill="#FFFFFF" style="font-size:3px; font-family:Arial" x="167" y="285">Min: 7.7 km</text><text fill="#FFFFFF" style="font-size:3px; font-family:Arial" x="167" y="290">Max: 16.3 km</text><polyline fill="none" points="12.400000000023283,61.36916083730466 13.10819672117941,62.11966726310493 18.2426229508128,62.84742774168262 19.977704918012023,62.301607689936645 20.225573770469055,60.573165365247405 21.146229508100078,59.89088041166542 23.022950819693506,59.04939166874101 25.306885245954618,58.5717880007287 25.749508196720853,62.87017020385247 27.90950819675345,64.89423651891411 31.981639344245195,63.779866065844544 34.08852459024638,64.07551611853705 35.681967213051394,64.7577834068361 39.028196721337736,63.211306752084056 41.04655737709254,63.02936734932882 43.897049180348404,63.415988335444126 44.746885246015154,62.16515238897409 45.59672131156549,61.71030055380834 47.561967213172466,62.75645786107634 49.810491803335026,62.57451794625376 51.45704918040428,61.43738883816695 52.89114754111506,59.913623289816314 54.09508196730167,57.73029238956224 55.15737704921048,55.001087284923415 55.56459016399458,51.61226013515261 54.927213114802726,48.08689473220147 53.88262295094319,45.35752676159609 52.85573770501651,43.97008036998159 50.78426229511388,43.151253958872985 48.65967213117983,43.49243213442969 46.039344262331724,46.22183160659915 44.056393442559056,50.17937895786599 43.45442622946575,53.86390488829056 44.09180327865761,58.207898544409545 45.720655737794004,61.642072668124456 47.57967213122174,62.75645786107634 49.881311475415714,62.57451794625376 51.40393442637287,61.50561681030376 52.92655737721361,59.89088041166542 54.04196721315384,58.00321036511741 55.19278688530903,54.93285656673834 55.582295082043856,51.43030767403252 54.64393442624714,47.040642458814546 53.634754098486155,44.83439263593755 52.466229508281685,43.674393533496186 50.890491803293116,43.12850872158015 49.810491803335026,43.12850872158015 48.44721311482135,43.71988385124132 45.82688524585683,46.49476901831804 44.12721311475616,49.95193633271265 43.43672131153289,53.81841742595134 43.932459016446956,57.66206282364146 44.746885246015154,60.00459477065306 45.738360655726865,61.66481529985322 46.97770491812844,62.50629042535729 48.65967213117983,64.84875216099317 48.110819672234356,64.37116563043674 48.110819672234356,63.393245950122946 48.67737704922911,62.82468527635501 50.5718032787554,62.187894947157474 52.767213114886545,60.00459477065306 54.820983606623486,56.251978679021704 55.60000000009313,51.63500417841715 55.08655737712979,48.587273859768175 54.50229508196935,46.60849280383263 53.13901639345568,44.26576666541223 51.45704918040428,43.21948965158663 50.07606557384133,43.12850872158015 48.535737704951316,43.62890320290171 47.4026229508454,44.561452419817215 45.66754098364618,46.74496124077996 45.508196721435525,47.54102482597227 44.994754098472185,47.88219373347238 44.49901639344171,48.97392939716519 43.84393442631699,51.08914625723264 43.43672131153289,53.909392337795 44.056393442559056,58.139669180091005 45.68524590169545,61.55110210904968 47.0662295082584,62.57451794625376 48.19934426236432,62.801942807782325 50.18229508202057,62.438062875691685 51.06754098366946,61.778528410737636 52.997377049177885,59.77716597271501 54.04196721315384,58.02595350898628 55.45836065581534,53.54549238328764 55.60000000009313,51.589516088730306 55.26360655738972,49.20137339872599 54.5377049180679,46.6994717746129 53.528524590306915,44.67517756589223 52.35999999998603,43.62890320290171 51.262295081978664,43.196744423912605 49.916721311514266,43.12850872158015 48.588852459099144,43.583412859545206 45.57901639351621,46.81319541601988 43.98557377059478,50.247611682949355 43.45442622946575,53.9548797745083 43.64918032789137,56.274722069254494 44.30426229524892,58.95841965029831 45.4550819672877,61.27819012460532 46.76524590176996,62.438062875691685 47.72131147538312,62.801942807782325 48.8190163935069,62.84742774168262 50.323934426298365,62.34709276465583 53.10360655747354,59.64070854036254 55.15737704921048,55.18303572574223 55.51147540996317,50.88444906139921 54.679344262345694,47.10887650914083 53.98885245912243,45.42576152268157 53.192131147603504,44.26576666541223 51.93508196726907,43.401451358091435 50.022950819693506,43.10576348110044 48.535737704951316,43.56066768315213 45.632131147547625,46.76770596906135 43.98557377059478,50.36133282748051 43.43672131153289,53.86390488829056 43.61377049179282,56.11551827013318 44.81770491809584,60.18653757852735 45.75606557377614,61.619330033121514 47.101639344356954,62.57451794625376 48.8190163935069,62.77920033605187 50.07606557384133,62.438062875691685 52.85573770501651,59.936366164838546 54.83868852467276,56.161005085887155 55.52918032789603,52.84043388959253 55.52918032789603,50.92993734955962 54.944918032852,47.85944916200242 54.21901639353018,45.92614889043034 53.28065573773347,44.33400188751693 52.059016393497586,43.44694175259792 50.129180327872746,43.12850872158015 48.606557377032004,43.56066768315213 46.55278688529506,45.448506436674506 45.525901639368385,46.972408379559056" stroke="#4DD2FF" stroke-linecap="round" stroke-linejoin="round" stroke-width="0.5"><title>2024-12-26 16.2km</title><desc>1735171955000</desc></polyline><polyline fill="none" points="78.40000000002328,62.124688478710596 84.06352357321884,62.88201981676684 85.6178660049336,62.40008209948428 85.79652605461888,60.63296495153918 86.22531017370056,60.28871912304021 88.61935483885463,59.18712758865149 90.92406947887503,58.54452909070824 91.17419354838785,58.61337905086111 91.46004962781444,62.53777873542276 93.5682382134255,64.92450195438869 94.56873449136037,64.94745104652247 95.9086848635925,64.12128169344214 98.2491315137595,63.73114471080771 101.55434243183117,64.7868073334248 103.59106699749827,63.59344908234198 105.46699751866981,63.08856411681336 109.82630272954702,63.478702636566595 111.18411910673603,61.94109247322194 114.18560794054065,62.95086794583767 115.82928039703984,62.62957642818219 117.75880893296562,61.13785751903197 120.17071960307658,57.787177610371145 121.18908188596833,54.91839010962576 121.56426799006294,51.45282750460319 120.9568238214124,47.872433822733 119.43821339961141,44.613289174900274 118.31265508686192,43.534543851492344 116.40099255589303,43.052548953462974 114.14987593051046,43.69520850086701 111.70223325060215,46.44943501625676 110.20148883387446,49.24951761888224 109.36178660055157,53.56430487781472 109.61191066994797,57.09867321258935 111.5057071960764,61.50505113179679 112.3454094293993,62.26238534723234 113.59602977673057,62.813171658621286 115.99007444176823,62.56072816350206 117.77667493803892,61.0919582593051 119.25955334992614,59.27892716732458 120.86749379662797,56.02001047854719 121.56426799006294,51.36102352038142 121.01042183628306,47.872433822733 119.8669975186931,45.324798142013606 118.81290322588757,43.85587299197505 117.2585607940564,43.1673097727471 116.06153846159577,43.075501123807044 114.63225806457922,43.39683116892411 113.07791563274805,44.68214501706825 111.68436724576168,46.38057992029644 110.25508684862871,49.15771239424066 109.37965260550845,52.92168422351824 109.55831265507732,56.29541440801404 110.09429280401673,58.65927900810493 111.21985111676622,61.00015970108507 112.16674937971402,62.124688478710596 113.39950372220483,62.721374069253216 115.15037220856175,62.813171658621286 117.5265508685261,61.3444040279428 119.22382133989595,59.27892716732458 120.47444168746006,57.07572301590699 121.34987593058031,53.97741681833577 121.58213399513625,51.315121508872835 120.93895781645551,47.80357932767947 119.75980148883536,45.09527945955051 118.79503722093068,43.83292093152704 117.18709677422885,43.1673097727471 115.50769230769947,43.12140545467264 114.23920595541131,43.62635224197584 112.64913151378278,45.18708697130205 110.21935483871493,49.24951761888224 109.54044665023685,51.82004292462079 109.36178660055157,54.20692299975781 110.09429280401673,58.63632903111284 111.32704714639112,61.183756765851285 112.00595533510204,61.94109247322194 113.02431761787739,62.60662700980902 114.95384615391959,62.859070433929446 116.13300248142332,62.445980991004035 117.2764267991297,61.57389984212932 119.22382133989595,59.25597727749846 120.56377171212807,56.8462208717101 121.38560794049408,53.8856142553268 121.60000000009313,51.38397452124627 120.97468982636929,47.82653082924662 119.7062034739647,44.98051999720337 118.77717121585738,43.78701680091035 116.97270471474621,43.052548953462974 115.43622828787193,43.075501123807044 114.2570719603682,43.603400149178924 112.68486352358013,45.09527945955051 110.14789081888739,49.31837150339561 109.34392059559468,54.22987360015395 109.87990074441768,57.92487814107153 111.55930521094706,61.59684940578882 112.95285359816626,62.56072816350206 114.2570719603682,62.90496919635916 115.70421836234163,62.65252584326663 116.75831265514717,62.03289050178137 119.11662531027105,59.43957630574005 120.20645161287393,57.626526844192995 120.90322580654174,55.92820906534325 121.45707196032163,53.15119189074903 121.56426799006294,51.42987651337171 121.18908188596833,48.74458824387693 120.29578163765837,46.08220750193868 119.38461538462434,44.54443330359936 118.66997518611606,43.64930433148402 117.15136476431508,43.098453290906036 115.77568238216918,43.052548953462974 114.38213399518281,43.51159174578788 112.0595533499727,45.85268988562166 111.46997518616263,46.931419873653795" stroke="#4DD2FF" stroke-linecap="round" stroke-linejoin="round" stroke-width="0.5"><title>2024-12-22 13.5km</title><desc>1734819430000</desc></polyline><polyline fill="none" points="144.40000000002328,61.364523512122105 144.86146261310205,62.002886543486966 150.11503697629087,62.82363531659939 151.92539030406624,62.299268524497165 152.22711585881189,60.2929799122503 157.07247329503298,58.560256117008976 157.3564502876252,58.76544806000311 157.6226787181804,62.07128243337502 158.65209531632718,64.0091539821733 159.75250616285484,64.85269082756713 160.46244864433538,64.921085514492 162.11306491377763,64.12314570431772 164.11865242407657,63.735573521538754 167.84585045196582,64.64750659368292 169.99342645856086,63.46199259896821 171.91027115867473,62.9604263745714 173.75612161064055,62.98322487297992 175.72621199686546,63.46199259896821 177.2170912079746,61.77490003532148 180.3763352506794,62.82363531659939 181.95595727209002,62.43606002515298 183.58882497961167,61.22773110677372 186.33985209534876,57.260701109218644 187.20953163527884,54.77555811982893 187.60000000009313,51.4695748721424 186.80131470842753,47.52510659262771 185.4701725555351,44.62939533453027 184.4230073953513,43.58054226652894 182.8256368120201,43.101715781973326 180.83779786375817,43.375331089337124 179.66639276919886,44.12777080145315 178.0157764997566,46.020255233714124 176.7023829089012,48.30032759466849 175.74396055878606,50.94517133005138 175.42448644223623,53.70397093964857 176.0279375514947,58.37786306053749 177.90928512753453,61.72930269521021 178.99194741167594,62.50445573221077 180.55382087116595,62.800836795708165 182.22218570276164,62.299268524497165 183.30484798690304,61.478517095092684 186.0026294166455,57.99027713383839 186.81906327046454,56.097932529388345 187.44026294176,53.1795746301068 187.52900575194508,51.401174506449024 187.10304026305676,48.64233568093914 185.41692686942406,44.62939533453027 184.33426458516624,43.603343492373824 183.1096138044959,43.238523493433604 181.51224322116468,43.170119652102585 180.00361544790212,43.87695795245236 178.08677074790467,45.974653459124966 176.77337715704925,48.14072357396071 175.70846343471203,50.990771705444786 175.42448644223623,53.43037307693157 175.54872637649532,56.097932529388345 176.22317173390184,58.9250416138384 177.00410846353043,60.47537081272458 177.71405094512738,61.59251059778035 178.95645028771833,62.50445573221077 180.41183237475343,62.82363531659939 181.938208710053,62.45885859739792 184.70698438794352,59.905398567032535 186.71257189824246,56.32592702632246 187.35152013157494,53.840769697751966 187.51125718990806,51.24157354072668 187.10304026305676,48.687936704576714 186.2688578472007,46.24826391390525 185.39917830750346,44.62939533453027 184.21002465090714,43.489337330975104 182.50616269523744,43.101715781973326 180.71355792938266,43.420933595567476 178.0157764997566,46.020255233714124 175.99244042730425,50.1699629843788 175.3889893180458,54.1143668674049 176.20542317186482,58.947840680149966 177.39457682834473,61.1593348608003 178.56598192290403,62.299268524497165 180.41183237475343,62.82363531659939 181.6542317174608,62.57285141036846 183.03861955634784,61.72930269521021 184.77797863609158,59.85980070072401 186.74806902231649,56.18913036661979 187.35152013157494,53.795170124518336 187.49350862787105,51.2871738326794 187.13853738701437,48.93874210494687 186.28660640923772,46.29386561145657 185.4524239936145,44.62939533453027 184.36976170924027,43.557741037453525 182.93212818412576,43.12451707526634 181.33475760079455,43.238523493433604 180.05686113401316,43.831355574540794 179.02744453586638,44.811803870557924 176.64913722279016,48.32312815618934 175.74396055878606,50.89957094179408 175.40673788019922,53.521572415789706 176.08118323760573,58.46905961445009 177.92703368945513,61.820497362612514 178.99194741167594,62.52725429479324 180.71355792938266,62.800836795708165 181.61873459327035,62.61844851315254 183.07411668042187,61.6609066608944 184.6892358259065,59.97379534236097 185.9848808546085,57.99027713383839 187.33377156953793,53.88636925810715 187.52900575194508,51.2871738326794 187.19178307324182,49.25794841670722 186.7835661462741,47.52510659262771 185.41692686942406,44.62939533453027 184.33426458516624,43.557741037453525 182.8256368120201,43.12451707526634 181.4235004109796,43.19292093577678 180.0923582580872,43.78575318372168 177.57206244871486,46.79548343713395 176.66688578471076,48.32312815618934 175.74396055878606,51.036372067959746 175.40673788019922,53.36197353899479 175.58422350056935,56.18913036661979 176.79112571908627,60.13338770590781 177.80279375519603,61.683705342235044 178.99194741167594,62.52725429479324 180.41183237475343,62.82363531659939 181.97370583401062,62.48165716645599 184.72473294998053,59.905398567032535 186.67707477416843,56.39432531280909 187.24502875935286,54.4107632797386 187.52900575194508,51.33277411176823 186.9078060806496,48.04952120583039 185.38142974535003,44.560992080601864 184.2987674610922,43.53493980516214 182.8611339359777,43.078914485522546 181.44124897301663,43.170119652102585 180.07460969605017,43.78575318372168 177.5010682005668,46.95508878320106" stroke="#4DD2FF" stroke-linecap="round" stroke-linejoin="round" stroke-width="0.5"><title>2024-12-20 16.0km</title><desc>1734644952000</desc></polyline><polyline fill="none" points="12.400000000023283,109.91816973206005 17.726515463902615,110.90214726132399 19.65047422691714,110.46736722673813 20.078020618646406,108.47651748382486 22.322639175341465,107.26368902703689 25.06606185575947,106.48564336755953 25.636123711359687,110.8106147191138 26.990020618541166,112.50395841134014 27.666969072190113,112.89296730955539 28.450804123771377,112.91585015688906 29.84032989689149,112.13783153949771 32.084948453702964,111.77170384336205 35.630020618555136,112.73278728761943 38.658474226947874,111.24539383598312 40.04800000006799,111.06232908635866 43.91373195883352,111.47422448328871 45.46358762891032,109.75798678009596 47.74383505154401,110.83349785946484 49.84593814436812,110.71908212530252 52.46465979388449,108.31633311173937 54.70927835057955,104.60916499065934 55.56437113403808,99.52883437086712 54.63802061858587,95.04336549207801 53.60478350520134,92.82347032536927 52.69624742271844,91.81649757716514 51.1998350515496,91.15280758327572 49.810309278429486,91.12992167318589 47.77946391759906,91.97669820424926 45.962391752633266,93.99063548012055 44.64412371139042,96.34782583398919 43.34367010311689,100.85614327354415 43.61088659800589,105.06684464019781 45.42795876285527,109.2545536179532 46.49682474229485,110.3300680269167 47.440989690832794,110.74196527857566 49.810309278429486,110.65043264612905 51.69863917527255,109.14013677294133 53.08816494839266,107.46964166671387 54.90523711347487,103.89975898811826 55.60000000009313,99.32287167359027 55.2080824743025,96.87418406130746 54.24610309279524,94.03640649192675 52.58936082478613,91.70206846111978 50.98606185580138,91.12992167318589 49.11554639181122,91.22146529452584 47.726020618574694,91.97669820424926 46.104907216504216,93.87620789420907 44.270020618569106,97.19457519149 43.59307216492016,99.84922027043649 43.39711340214126,102.45805338259379 44.074061855790205,106.50852711660264 45.392329896916635,109.20878688963421 46.49682474229485,110.28430160121934 47.90416494850069,110.83349785946484 49.77468041249085,110.69619896884251 52.429030927829444,108.31633311173937 54.63802061858587,104.60916499065934 55.36841237114277,102.02325077053683 55.582185567123815,99.25421738321893 54.72709278354887,95.08913620751991 52.820948453620076,91.86226920101035 51.18202061858028,91.15280758327572 49.560907216509804,91.08414984309638 47.95760824740864,91.77072594036872 46.88874226808548,92.82347032536927 44.30564948450774,97.05726478439465 43.361484536202624,101.61133143403276 44.03843298985157,106.27968948170019 44.94696907221805,108.47651748382486 46.193979381467216,110.07835252629593 47.69039175263606,110.74196527857566 49.43620618560817,110.74196527857566 51.80552577332128,109.07148662720283 54.49550515471492,105.06684464019781 55.35059793817345,102.02325077053683 55.56437113403808,99.52883437086712 55.17245360824745,96.78264362238406 54.24610309279524,93.96774996936438 52.83876288670581,91.86226920101035 51.14639175264165,91.15280758327572 49.57872164947912,91.10703575976368 48.028865979402326,91.74784011718293 47.15595876285806,92.68615622690413" stroke="#4DD2FF" stroke-linecap="round" stroke-linejoin="round" stroke-width="0.5"><title>2024-12-15 10.9km</title><desc>1734216782000</desc></polyline><polyline fill="none" points="78.40000000002328,109.27651977393543 79.40424143569544,110.2270347704034 82.54029363789596,110.45334703680419 84.30212071782444,110.90597061434528 86.09918433940038,110.43071582452103 86.39869494293816,108.4391566702252 88.60097879287787,107.3528412822343 91.29657422518358,106.5833634427836 91.57846655801404,106.69652217952535 91.61370309954509,109.23125701484969 92.1070146819111,111.10965080863389 93.86884176183958,112.80697572987992 94.82022838504054,112.82960660787649 96.5115823817905,112.03752398515644 98.52006525290199,111.74332087456423 101.90277324640192,112.71645218624326 104.17553017952014,111.4717482948181 106.39543230016716,110.99649517693615 109.90146818920039,111.38122399973508 111.29331158241257,109.79704058686912 112.17422512243502,109.8875657736935 113.77748776518274,110.74755250709131 115.90929853182752,110.49860945195542 117.33637846657075,109.52546472068934 118.97487765096594,107.78284200068447 120.01435562816914,106.04020039836178 121.14192495925818,103.0301386081992 121.54714518762194,100.02002047734277 121.17716150090564,96.98721289786045 119.97911908652168,93.61484477095655 118.55203915177844,91.84941580360464 116.96639477985445,91.23830126054236 115.32789559545927,91.35147079557646 113.97128874401096,92.03048633332946 112.15660685161129,94.1354162790085 110.16574225132354,97.98306646983838 109.47862969012931,101.96641908944002 109.97194127249531,105.74598631664412 111.75138662324753,109.61599006036704 113.91843393153977,110.72492133620835 116.085481239832,110.43071582452103 119.02773246332072,107.66968402835482 120.08482871134765,105.97230488878267 121.2828711256152,102.48696356278379 121.56476345844567,100.08791849989211 121.21239804243669,96.7835148164886 119.75008156604599,93.09427157767641 118.62251223495696,91.84941580360464 116.71973898867145,91.17039950129401 115.31027732463554,91.26093517389381 114.46460032637697,91.66834506997839 112.70277324633207,93.34324157598894 110.46525285486132,97.12301147532708 109.63719412719365,100.4953060332773 109.70766721048858,104.1843794882443 110.28907014685683,106.96810282264778 112.19184339314234,109.97809090952796 112.19184339314234,110.52124065466342 113.74225122353528,111.38122399973508 114.69363784661982,112.87486835413438 114.14747145201545,112.24120274643064 114.28841761837248,111.33596183305781 114.86982055462431,110.74755250709131 115.76835236547049,110.61176543383044 116.98401305056177,109.81967188832641 118.97487765096594,107.73757882129576 120.08482871134765,105.97230488878267 121.2828711256152,102.46433122942108 121.56476345844567,99.00154669876792 120.52528548124246,94.83705347127398 119.45057096250821,92.64159786576056 118.30538336059544,91.6230773547286 116.71973898867145,91.14776557519508 114.90505709627178,91.50990801084845 113.49559543235227,92.5510629703931 112.10375203914009,94.20331678623916 110.11288743885234,98.16413009303506 109.49624796083663,102.07958107479499 110.35954323003534,107.05862960187369 111.76900489395484,109.59335873027158 113.09037520398851,110.5438718542282 114.46460032637697,110.83807715889998 115.96215334429871,110.52124065466342 119.0101141926134,107.7149472268211 120.7895595432492,104.16174739379494 121.45905383361969,101.76272731510107 121.60000000009313,99.3863042176963 120.96574225125369,96.21768545909435 119.78531810769346,93.27534070558613 118.09396411094349,91.48727413246525 116.84306688420475,91.12513164585107 115.08123980427627,91.39673858731112 113.54845024482347,92.52842923864955 111.92756933125202,94.58808578574099" stroke="#4DD2FF" stroke-linecap="round" stroke-linejoin="round" stroke-width="0.5"><title>2024-12-10 11.3km</title><desc>1733785667000</desc></polyline><polyline fill="none" points="144.40000000002328,110.22497623624804 146.97718120814534,108.75595427706139 147.95973154372768,108.52835801249603 148.8134228188428,109.29390768361918 149.79597315448336,109.45943141273165 153.45234899339266,109.99738224562316 155.0308724833303,109.58357408731536 155.41744966449915,107.76280435554509 159.94362416118383,105.94201207642618 160.1530201342539,106.04546678737097 160.37852349004243,109.66633581215865 162.311409396003,111.81812430710124 163.00402684567962,111.90088477420795 164.48590604035417,111.13534867607814 166.27382550342008,110.80430480468203 169.6563758389675,111.69398351907148 171.92751677858178,110.47326018790773 173.47382550337352,110.1629051828495 176.8402684564353,110.55602141196141 178.32214765105164,109.0249312264059 180.1261744966614,109.83185912207409 182.22013422829332,109.81116871854465 183.86308724840637,108.63181090372382 186.32751677854685,105.34197331749601 187.19731543626403,102.85902828353574 187.53557046985952,100.54157508676872 187.05234899331117,96.56871319041238 185.84429530211492,93.79592304720427 184.87785234907642,92.65782240276167 183.13825503364205,92.11980812207912 181.64026845636545,92.22327255974233 180.89932885911549,92.595743932412 178.41879194637295,95.45132643854595 176.872483221523,99.05176445639518 176.56644295307342,101.41062431622413 176.95302013424225,105.32128228216607 178.3704697987996,108.48697683568753 178.9664429530385,109.2111457491701 180.19060402689502,109.85254952269315 181.33422818797408,109.99738224562316 182.38120805373183,109.74909749042126 184.23355704703135,108.21799890228431 186.1825503356522,105.56957451433118 187.3744966443628,102.17621104816499 187.58389261749107,99.5483696772717 187.03624161082553,96.52732864735299 185.6187919463846,93.48553283611545 184.47516778524732,92.45089406629268 182.6872483222396,92.0991152257775 181.72080536925932,92.1611939058348 180.9315436242614,92.61643675880623 178.9986577181844,94.62362707286957 177.2751677853521,97.74816777078377 176.53422818798572,101.61754004232353 176.9369127517566,105.05229855746438 178.41879194637295,108.54904859658564 179.88456375838723,109.70771665709617 181.07651006721426,109.99738224562316 182.41342281881953,109.7697879026673 184.6201342282584,107.80418573621137 186.16644295305014,105.69372047322395 186.79463087249314,104.328109160444 187.35838926181896,102.19690252612054 187.60000000003492,99.58975336997537 187.03624161082553,96.46525181086326 185.3449664430227,93.071678201959 184.49127516779117,92.43020121660084 182.83221476507606,92.0991152257775 181.17315436253557,92.45089406629268 179.69127516786102,93.83730835915776 178.41879194637295,95.57548094149388 178.88590604026103,96.29971345223021" stroke="#4DD2FF" stroke-linecap="round" stroke-linejoin="round" stroke-width="0.5"><title>2024-12-08 8.9km</title><desc>1733614342000</desc></polyline><polyline fill="none" points="12.400000000023283,157.44911920913728 12.928701144934166,157.0766893249529 13.8326095539378,157.0328739859251 14.719463087269105,157.8872708734125 17.772285827086307,158.10634624310478 19.597157520765904,158.61021842363698 21.28559020924149,158.04062366456492 21.541413343918975,156.22228798898868 23.741492301633116,155.17071067696088 26.12917489145184,154.49156322113413 26.53849190683104,154.6887353684142 26.777260165836196,157.90917842427734 27.647058823495172,159.57414326848811 28.875009869749192,160.4723405934492 33.18989340704866,159.37697730850778 34.5713383340626,159.59605058193847 36.66908803791739,160.4723405934492 39.36375838925596,158.96073723954032 41.12041058036266,158.6540333187877 44.24145282275276,159.15790372664924 45.742281879181974,157.51484203743166 48.64161073823925,158.56640351608803 50.34709830238717,158.12825376310502 52.154915120394435,156.59471991707687 54.21855507307919,153.79050467534398 55.3782866167021,150.39470766248996 55.600000000034925,147.50274470658042 55.2418476116145,145.22419059823733 54.62787208840018,143.20851877745008 53.22937228583032,140.55743240442825 51.540939597354736,139.659120168566 49.85250690882094,139.61529992695432 48.57339123572456,140.05350178858498 46.98728780099191,141.54337889095768 44.54844058438903,145.96910618770926 43.88330043427413,150.50425065778836 44.309672325325664,153.59333139058435 45.486458744620904,156.46327345594182 46.42447690485278,157.69010277702182 47.77181208052207,158.41305124283826 49.32380576391006,158.47877366418834 50.90990919864271,157.75582550358376 52.71772601659177,155.959394326841 54.099170943547506,153.87813716630626 55.32712198974332,150.5699764179153 55.565890248748474,147.5903807370196 55.2418476116145,145.0489158238488 54.372048953780904,142.485499698887 53.1440979076433,140.51361241564155 52.30840900121257,139.92204135967768 50.46648243191885,139.52765940656536 48.55633636005223,140.14114201290067 46.42447690485278,142.28831209463533 44.650769838131964,145.70619521023764 43.88330043427413,149.14591206764453 44.22439794708043,153.11135119856044 45.111251480469946,155.76222378897364 46.0322147650877,157.29576583526796 47.27722068695584,158.21588381243055 48.3346229767194,158.50068113177258 49.59668377414346,158.50068113177258 50.92696407419862,157.82154820235155 53.84334780892823,154.2943908242887 55.34417686541565,150.3289818282501 55.565890248748474,147.83137956634164 55.32712198974332,145.57473955498426 54.95191472565057,143.8438964074885 53.723963679454755,141.28046043845825 52.68361626530532,140.11923196142016 51.57504934858298,139.63721004934632 49.971891038294416,139.57147967292985 48.64161073823925,140.05350178858498 47.294275562569965,141.25855054739804 45.87872088432778,143.23042839410482 44.770153967663646,145.37755586396088 44.10501381766517,147.6780167180841 43.90035530994646,150.3289818282501 44.12206869322108,152.6074612204684 45.65700750099495,156.7918894006434 46.37331227795221,157.64628761063796 47.60126332414802,158.36923627990473 49.170311883150134,158.54449605777336 50.2277141729719,158.25969881849596 51.40450059220893,157.47102682167315 53.12704303197097,155.45551356695069 55.0371891038958,151.709218518954 55.548835373076145,147.45892667291628 55.08835373079637,144.67645627300953 54.40615870512556,142.70459674402082 53.638689301209524,141.21473075597896 52.64950651401887,140.11923196142016 51.06340307940263,139.57147967292985 49.47729964466998,139.659120168566 48.539281484438106,140.11923196142016 46.69735491508618,142.02539490042545 44.718989340704866,145.57473955498426 43.93446506123291,149.3649997386965 44.56549545994494,154.42583911662223 46.45858665619744,157.73391793112387 47.737702329293825,158.41305124283826 49.0850375049049,158.50068113177258 50.2277141729719,158.21588381243055 51.59210422425531,157.1862276187021 53.45108566916315,154.95163117619813 54.79842084489064,152.36646978488716 55.34417686541565,150.37279905413743 55.600000000034925,147.43701765137666 55.15657323336927,144.654546859907 53.34875641524559,140.75462220131885 51.55799447296886,139.6810302848171 50.07422029215377,139.52765940656536 48.76099486777093,139.9658615149383 46.78262929338962,141.89393613678112 46.168653770233504,142.11303401453188" stroke="#4DD2FF" stroke-linecap="round" stroke-linejoin="round" stroke-width="0.5"><title>2024-12-07 13.6km</title><desc>1733525549000</desc></polyline><polyline fill="none" points="78.40000000002328,160.70375094570045 78.73074204940349,162.1090231622802 80.1300353356637,164.13521464569203 81.45300353353377,165.47510575561319 82.44522968190722,165.63850658165757 85.16749116592109,164.49469838515506 87.78798586560879,164.03717352931562 93.20706713781692,165.2790246126242 96.15830388700124,163.71036950897542 98.88056537101511,162.89335744646087 104.73215547704604,163.51428687613225 106.66572438168805,161.22664392658044 111.16890459368005,162.6972741237405 112.61908127204515,162.5665518166643 114.39999999990687,161.6188128896756 117.63109540636651,158.28535559483862 119.84452296816744,154.59235194171197 120.86219081270974,151.48756891745143 121.54911660775542,146.35641545936232 120.53144876321312,141.19246502997703 118.41978798585478,136.42061128142814 116.81696113070939,134.98249914134794 113.73851590103004,134.36149341835699 110.96537102456205,135.27665916738624 107.58162544167135,139.06802170420997 105.19010600703768,143.6437216397171 104.19787985866424,149.72272637933202 105.06289752654266,156.45520183243207 107.40353356883861,160.80179346924706 108.98091872781515,162.0109811906441 111.19434628961608,162.6319129793992 114.12014134274796,161.8475778123393 117.63109540636651,158.28535559483862 119.46289752644952,155.5074379658763 120.63321554765571,152.50071320368443 121.59999999997672,146.35641545936232 120.32791519432794,140.2773225956189 118.39434628968593,136.42061128142814 117.42756183748133,135.40739683702122 115.44310954061802,134.5902851937426 113.00070671376307,134.39417797148053 111.16890459368005,135.1459214240458 109.69328621902969,136.42061128142814 107.55618374561891,139.06802170420997 105.64805653714575,142.4671216962597 104.40141342754941,146.944706323251 104.19787985866424,149.46126708480006 104.80848056520335,155.80157199357927 107.58162544167135,160.99787839229975 109.03180212003645,162.0109811906441 111.19434628961608,162.6645935538254 112.82261484104674,162.5011906354921 114.90883392223623,161.22664392658044 117.52932862192392,158.44876147930336 119.6155477031134,155.11525868279568 121.2183745582588,150.14759710502403 121.54911660775542,146.2583668370644 121.01484098937362,144.78763253591023 121.16749116615392,143.25152232089022 119.89540636038873,139.16607336243032 118.29257950524334,136.25718989591405 116.74063604243565,134.98249914134794 115.01060070679523,134.39417797148053 112.36466431093868,134.4922316033626 110.99081272084732,135.24397473841964 107.19999999983702,139.7870662364876" stroke="#4DD2FF" stroke-linecap="round" stroke-linejoin="round" stroke-width="0.5"><title>2024-12-05 7.7km</title><desc>1733352101000</desc></polyline><polyline fill="none" points="144.40000000002328,158.28055622700776 147.01081081083976,156.73911628243513 147.77297297294717,156.61413396181888 148.3729729729821,157.38485659116122 151.42162162158638,157.67648032344005 153.15675675676903,158.21806573061622 155.03783783782274,157.67648032344005 155.281081081077,155.8850683218334 157.9567567567574,154.67689449842146 159.77297297300538,154.28111127404554 160.0486486486625,154.65606382876285 159.98378378374036,156.8432681356644 160.4864864865085,158.07225446973462 161.36216216214234,159.42621065255662 162.2540540540358,159.96778965828707 166.1621621621889,158.94711988055496 169.50270270270994,159.82198012089066 171.5783783783554,158.71798896313703 173.57297297293553,158.2597260644834 176.86486486485228,158.6554986514093 177.70810810814146,157.40568687683844 178.22702702705283,157.1348929349042 179.08648648648523,157.82229197413835 181.01621621625964,158.11391484462365 182.24864864867413,157.92644306526927 183.33513513510115,157.25987481580523 184.66486486478243,155.8850683218334 186.12432432436617,153.78117305701016 186.88648648641538,151.8438965175592 187.5837837838335,147.6567928607692 186.61081081081647,143.38624174961296 184.92432432435453,140.69885617682303 183.0918918919051,140.07387579434726 181.82702702702954,140.21970478631556 180.85405405407073,140.636358257354 178.9567567567574,142.65711095259758 177.18918918917188,145.84442768296867 176.47567567566875,149.69828108172806 176.89729729725514,153.69784985673323 177.61081081081647,155.48928832777892 178.72972972976277,157.1348929349042 180.22162162163295,157.9681034812529 181.63243243243778,158.05142427791725 183.01081081078155,157.44734743933077 184.34054054063745,156.19752546440577 186.61081081081647,152.71879873954458 187.21081081073498,150.594027229934 187.55135135137243,147.74011946178507 186.6270270270179,143.59456417476758 185.5567567567341,141.4071640866605 184.89189189183526,140.6780235399492 183.0918918919051,140.0530430695071 182.08648648648523,140.1363739513472 181.17837837839033,140.44886434060754 179.96216216211906,141.44882915222843 177.4162162161665,145.30279700097162 176.47567567566875,149.84410059150832 176.88108108111192,153.63535742566455 177.6270270270761,155.55177997610008 178.7459459460224,157.17655357361946 179.68648648646194,157.78063151716196 181.30810810811818,158.13474502769532 182.3945945946034,157.84312219827552 183.70810810808325,156.86409849755 186.52972972969292,152.94793894313625 187.4864864865085,148.90668695050408 187.19459459464997,145.17780502363166 185.47567567566875,141.28216881945264 184.82702702702954,140.65719090015045 183.12432432436617,140.0530430695071 182.00540540541988,140.17803937474673 180.70810810808325,140.78218669509806 178.92432432429632,142.6779433109332 177.44864864856936,145.26113302024896 176.5567567567923,148.53171983179345 176.45945945946733,150.67735217747395 176.83243243244942,153.65618823896511 178.55135135131422,157.00991094844358 180.44864864862757,158.03059408311674 181.94054054049775,157.9681034812529 182.89729729725514,157.50983826105949 184.03243243240286,156.57247316488065 185.54054054053267,154.61440248067083 186.52972972969292,152.9687698531343 186.98378378374036,151.57309240082395 187.55135135137243,147.59429787921545 186.5783783783554,143.42790625810449 185.5081081080716,141.30300137129962 184.25945945945568,140.32386826402217 183.12432432436617,140.0530430695071 181.6486486486392,140.24053748775623 180.07567567570368,141.36549900932005 178.6972972973017,143.03209295398847 177.0918918918469,146.1569060209731 176.6054054053966,148.32340435542574 176.47567567566875,150.7190146335779 176.88108108111192,153.67701904928253 177.65945945947897,155.59344106039498 178.50270270270994,156.98908060706162 179.37837837840198,157.6348198254418 181.03243243240286,158.11391484462365 182.31351351347985,157.8639524193859 183.4162162162247,157.1348929349042 185.1351351350895,155.3226438032143 186.54594594595255,152.92710803015507 187.24324324331246,150.4690397207014 187.55135135137243,147.61512954271166 186.48108108108863,143.24041587756074 185.54054054053267,141.34466646621877 184.9081081080949,140.6780235399492 183.40000000002328,140.03221034172748 182.00540540541988,140.1155412352964 180.5135135134915,140.8446845530416 179.11891891888808,142.4487872079917 177.3513513513608,145.44862084109627 176.45945945946733,150.03158260732016 176.88108108111192,153.65618823896511 177.6756756757386,155.61427159812592 178.5837837837753,157.05157162231626 179.8162162161898,157.88478263760044 181.0000000000582,158.0930846586707 182.52432432433125,157.73897104845673 185.20000000001164,155.28098264271102 186.52972972969292,152.9687698531343 186.9513513513375,151.65641679722467 187.60000000003492,147.3234859876393 186.80540540540824,143.99037597469578 186.0432432432426,142.24046317017928 185.15135135134915,140.948847590902 184.2108108107932,140.32386826402217 182.5567567567341,140.0530430695071 180.95135135139572,140.55302765699162 179.70270270266337,141.67798680337728 178.51891891891137,143.49040299881017" stroke="#4DD2FF" stroke-linecap="round" stroke-linejoin="round" stroke-width="0.5"><title>2024-12-03 16.2km</title><desc>1733178751000</desc></polyline><polyline fill="none" points="12.400000000023283,215.49962450563908 15.386175115127116,214.0383723829873 17.71823568129912,213.7095895219536 20.56221198150888,214.0018409745535 24.00342330476269,215.24390597786987 27.38775510189589,213.30774323744117 30.77208689926192,212.50404880251153 36.659117840696126,213.34427474357653 39.07649769575801,210.4948018300638 40.01500987482723,210.45826992290677 43.143383805057965,212.02913728510612 45.67452271236107,212.02913728510612 47.69374588527717,211.00624798919307 49.684529295424,209.14311784444726 51.24871626065578,207.49916837763158 53.97893350874074,202.71338955374085 55.571560236858204,194.85867582718492 53.97893350874074,186.74797782470705 52.0734693876002,182.8021412162052 50.281764318584464,181.23109698251938 47.665306122391485,180.6099838486989 44.87820934818592,181.01188075204846 42.603028308134526,182.72906960223918 39.474654377787374,186.565301528055 37.398551678750664,190.73028914173483 36.51691902568564,194.31066367469612 36.14720210665837,197.087246662064 36.46003949956503,202.0192616348504 37.11415404872969,205.05149099382106 39.27557603677269,209.36231032019714 40.86820276489016,211.18890708766412 43.9396971691167,212.1752639983606 45.47544437122997,212.1387323277304 47.89282422629185,210.86012061790098 51.220276497653686,207.5357007010607 53.4385780118173,203.99204138785717 55.088084265822545,199.02353037922876 55.59999999997672,193.79918462201022 54.34865042788442,187.62482225877466 52.55694535875227,183.5693919211626 50.93587886763271,181.63299292413285 46.78367346932646,180.50037549436092 43.99657669500448,181.45031302777352 39.474654377787374,186.4922309734102 37.11415404872969,191.6436546840123 36.118762343539856,198.5120606122655 37.02883475960698,204.90536027075723 38.82053982873913,208.74126449174946 40.61224489787128,211.07931164395995 42.6883475970244,211.91954219620675 45.390125082223676,212.10220065203612 49.05885450949427,209.87375871051336 53.69453587883618,203.33444980261265 55.144963791943155,198.11019080271944 55.59999999997672,193.72611610373133 54.092692560865544,186.8941187693854 52.0734693876002,182.838677015563 50.082685977453366,181.0849528494291 46.726793943322264,180.50037549436092 44.62225148116704,181.01188075204846 43.029624753049575,182.1810318416974 39.50309414090589,186.4922309734102 37.37011191563215,190.73028914173483 36.00500329164788,198.25632535092882 37.11415404872969,204.90536027075723 39.04805793275591,208.9604573067627 40.782883475883864,211.07931164395995 42.88742593803909,211.91954219620675 45.418564845225774,211.9926055938995 47.4662277813768,211.2254388918809 49.457011191523634,209.508438534569 53.29637919680681,204.06510701676598 55.17340355482884,198.40245981686166 55.54312047397252,193.8722531198291 54.77524687279947,189.195827795862 53.49545753770508,185.43270561972167 50.67992100061383,181.413777033129 46.66991441720165,180.53691161761526 43.51310072396882,181.7426008002367 39.64529295579996,186.30955449686735" stroke="#4DD2FF" stroke-linecap="round" stroke-linejoin="round" stroke-width="0.5"><title>2024-12-01 10.0km</title><desc>1733006314000</desc></polyline><polyline fill="none" points="97.12027742550708,219.35173924898845 100.59913691133261,219.20278271465213 102.95703056268394,217.86217107489938 110.33994347113185,208.4280932759866 113.08437706506811,198.00066117814276 112.54322114516981,189.50952453908394 109.18032364244573,180.57126519308076 106.89973797975108,178.13803315736004 103.96203441405669,176.7972654766636 100.40586693980731,176.64829097528127 96.84969946555793,178.33666497305967 91.51544825430028,184.64316697779577 88.69370667170733,190.4529942573572 87.37947086594068,195.41858277015854 86.8769689402543,199.73858792855754 87.34081687149592,206.54124744678847 90.355828425847,214.68440462026047 92.36583612882532,217.56425668555312 96.19258156279102,219.45104357035598 98.89836116251536,219.60000000000582 102.0679886941798,218.3090421873494 105.50819418532774,215.28023801039672 109.79878755100071,209.17289806247572 112.4272591623012,202.37028928272775 113.1616850537248,193.63097895632382 111.77014125930145,186.2321890721505 110.33994347113185,182.75619394506793 107.78877984825522,178.932559748966 105.39223220269196,177.1945305057161 100.36721294559538,176.5489746060921 98.51182121993043,177.1945305057161 94.9943077401258,180.22366164403502 91.51544825430028,184.64316697779577 89.31217058026232,188.76467824267456 87.65004882588983,193.9289135542931 86.95427692891099,200.3841013983183 87.34081687149592,206.29297750763362 90.27852043719031,214.68440462026047 92.21122015151195,217.3656469528505 94.72372977994382,218.95452168409247 98.20258926553652,219.55034786375472 101.48817877983674,218.75591273393366 106.78377599688247,213.6913467340055 110.57186743640341,207.73294072333374 112.15668120211922,203.31372461098363 113.23899304214865,193.9289135542931 111.77014125930145,186.08321855484974 110.33994347113185,182.607221960061 107.98204981954768,178.932559748966 105.46954019111581,177.14487240154995 101.10163883701898,176.5489746060921 98.24124325974844,177.34350477639236 96.38585153431632,178.6842703813454 91.39948627143167,184.69282402654062 88.61639868305065,190.50265048837173 87.45677885436453,194.6737489484367 87.26350888307206,205.15093353725388 87.92062678583898,208.92462997499388 90.31717443163507,214.58509895738098 91.82468020869419,216.96842715208186 94.76238377438858,218.95452168409247 97.70008733985014,219.60000000000582 101.21760081965476,218.75591273393366 103.53684047679417,217.26634204460424 107.17031593970023,213.19481674270355 110.99706137366593,206.98813289715326 112.54322114516981,202.12201640859712 113.31630103080533,194.72340458538383 111.77014125930145,186.1328754009155 108.94839967647567,180.32297697869944 106.24262007675134,177.54213703944697 101.0243308483623,176.49931641109288 99.09163113427348,176.94623991503613 96.77239147713408,178.43598083898542 92.94564604293555,182.50790726824198 88.42312871175818,191.09852471610066 87.22485488886014,196.21307044677087 86.95427692891099,201.57581547053996 87.84331879741512,208.7756690387032 89.11890060873702,212.20175466418732 91.78602621448226,216.86912213204778 94.76238377438858,219.0041739041335 97.93201130558737,219.60000000000582 101.3335628027562,218.80556498188525 104.3099203624297,216.52155434183078 108.13666579662822,211.90383549570106 111.73148726508953,205.10127936775098 113.1616850537248,198.79514304053737 113.20033904816955,193.43235575134167 110.49455944797955,182.9051658671524 108.56185973365791,179.5781112870609 106.01069611101411,177.24418860301375 102.45452863676473,176.40000000002328 98.24124325974844,177.44282092206413 94.80103776860051,180.27331931493245 91.43814026587643,184.64316697779577 88.1525507515762,191.79371004307177 86.68369896896183,200.5827206899121 87.65004882588983,208.62670803934452 90.51044440292753,215.28023801039672 92.40449012303725,217.41529939643806 95.45815567160025,219.30208707784186 99.05297713982873,219.45104357035598 102.02933469973505,218.25938986957772 108.0980118024163,211.7548758169578 110.06936551094986,208.82532269100193 112.19533519656397,203.46268785334541 113.27764703659341,194.42547065851977 112.6205291338265,189.65849360977882 110.53321344242431,183.10379499886767 108.36858976236545,179.37948017049348 105.31492421380244,177.0952142905444 101.25625481409952,176.44965820910875 97.39085538568906,177.79042721088626 91.36083227721974,184.74248106835876 92.55910610011779,186.92738398804795" stroke="#4DD2FF" stroke-linecap="round" stroke-linejoin="round" stroke-width="0.5"><title>2024-11-29 13.9km</title><desc>1732833187000</desc></polyline><polyline fill="none" points="144.40000000002328,206.17027065101138 147.00885221315548,204.71324544210802 147.88387096783845,204.60917166371655 148.64546136534773,205.4001305429847 153.42565641412511,206.08701245424163 155.04606151545886,205.52501840048353 155.2729182296316,203.85983829770703 157.39564891229384,202.79827619770367 159.63180795201333,202.11137901441543 160.00450112530962,202.36116017741733 159.95588897232665,204.98383692320203 160.34478619659785,206.06619789771503 161.47906976751983,207.43995234488102 162.69437359343283,207.98112483629666 164.47681920486502,207.14855095245002 166.14583645912353,206.8779634312814 167.86346586648142,207.1277365453425 169.33803450863343,207.77298180467915 171.00705176295014,206.91959231293004 173.24321080278605,206.27434333102428 174.71777944493806,206.1910851928551 176.88912228064146,206.60737541507115 177.90997749438975,205.3168719127425 178.68777194304857,205.10872513217328 180.84291072771885,206.06619789771503 182.5281320330687,205.7123499889276 185.00735183799407,203.46435526857385 186.17404351086589,201.65344578678196 187.22730682673864,198.78092320126598 187.58379594906,195.61692071655125 186.9356339085498,192.22386915658717 185.75273818458663,189.5385155017284 184.2619654914015,188.28949718852527 182.56054013507674,188.0188751636888 181.2642160540563,188.3519483547425 180.16234058520058,189.18462805062882 178.39609902480152,191.47447304136585 177.21320330089657,193.7642825799703 176.5326331583201,197.03240387910046 176.90532633155817,201.5285546604864 178.42850712675136,204.79650441209378 179.48177044268232,205.64990615252464 180.90772693179315,206.04538333830715 181.91237809456652,205.96212507125165 183.0466616654303,205.42094519319653 185.00735183799407,203.42272541452257 186.17404351086589,201.65344578678196 187.24351087782998,198.73929202908766 187.53518379596062,195.2214156468981 186.38469617406372,190.7667065570713 185.62310577649623,189.3719803361164 184.35918979748385,188.28949718852527 183.16009002254577,188.0188751636888 181.81515378848417,188.16459477701574 180.77809452364454,188.72665479799616 179.27111777948448,190.14220390516857 177.19699924986344,193.82673143442662 176.467816954304,198.1356387151318 176.97014253569068,201.632630606342 178.49332333088387,204.81731914730335 179.38454613659997,205.6082769134955 180.32438109529903,205.98293964240293 182.46331582899438,205.7747937990789 185.13698424608447,203.29783578203933 186.78979744942626,200.27963759726845 187.60000000003492,195.72100082230463 187.0652663166402,192.57774933548353 185.57449362339685,189.30952960062132 184.31057764444267,188.28949718852527 183.0466616654303,188.0188751636888 181.6531132783275,188.22704599598364 180.372993248282,188.97645856616145 179.27111777948448,189.99648624029942 177.7479369842331,192.68183157994645 176.87291822960833,195.03407077111478 176.50022505637025,197.32382520157262 176.95393848465756,201.59100023674546 178.23405851470307,204.5050978121144 179.416954238608,205.6082769134955 180.8267066766275,206.06619789771503 181.91237809456652,206.00375421065837 183.1114778695046,205.4001305429847 185.16939234809252,203.31865072813525 186.17404351086589,201.632630606342 187.37314328586217,198.3021640133229 187.56759189796867,195.679368788813 187.35693923482904,194.03489409211033 186.14163540891604,190.079753494967 184.94253563397797,188.6850207956595 183.82445611408912,188.08132644413854 182.5281320330687,188.0188751636888 181.15078769699903,188.43521653526113 179.19009752443526,190.30873820353008 178.68777194304857,191.20385684435314" stroke="#4DD2FF" stroke-linecap="round" stroke-linejoin="round" stroke-width="0.5"><title>2024-11-27 11.3km</title><desc>1732665796000</desc></polyline><polyline fill="none" points="12.400000000023283,254.72712718819093 13.234162643842865,254.54167446344218 15.43186037876876,253.22289275848016 16.249981433385983,253.16107457468752 17.052060898626223,253.9234970179823 21.864537690358702,254.54167446344218 23.388488674361724,254.1089505256532 23.564946156693622,252.5634974521381 23.998069067951292,252.15137387788855 26.275974749354646,251.07984715649218 28.024507983704098,250.72953864306328 28.361381359107327,251.16227256729326 28.537838841497432,254.52106859066407 28.938878574117552,255.0156087376381 39.81507612328278,255.24227241358312 42.06089862610679,254.72712718819093 44.980467879679054,255.09803193315747 46.07129595254082,253.77925523856538 46.84129223920172,253.51137727130845 48.67003342002863,254.45925095483835 50.62710731534753,254.29440379844164 52.21522465656744,252.9962259568565 54.41292239143513,249.92588653381972 55.35937616042793,246.93791051961307 55.55187523213681,245.14509564382024 54.97437801712658,240.9205599939305 54.09209060535068,238.7567262368102 53.32209431868978,237.64388499503548 52.45584849617444,237.04624454087752 50.51481619011611,236.75772758643143 49.08711474190932,237.2935443350725 48.18878574081464,238.05604940417106 46.68087634613039,239.993206585219 45.4937987375306,242.23945250280667 44.707760861492716,245.7427030414401 45.18900854070671,250.46165509671846 46.69691793539096,253.4289531827526 48.20482733019162,254.39743329297926 49.85711102868663,254.54167446344218 50.96398069075076,254.129556456508 52.32751578174066,252.89319547651394 54.79792053473648,248.97798350489757 55.58395841071615,244.85659464789205 54.926253249228466,240.75569759502832 53.97979948017746,238.63307762765908 53.145636836241465,237.52023544609256 51.76606015604921,236.8607694211969 50.25815076130675,236.77833595921402 49.03898997406941,237.33476092679484 47.61128852586262,238.65368573642627 45.525881916168146,242.09519921330502 44.707760861492716,246.34030800002802 44.8360935759265,249.03980345469608 45.34942443371983,250.8119642510719 46.793167471303605,253.55258929818228 48.44545116974041,254.47985683636216 49.93731897516409,254.50046271493193 50.70731526182499,254.29440379844164 52.23126624588622,252.95501377340406 54.65354623098392,249.26647638065333 55.295209803269245,247.1233728745865 55.600000000034925,244.27959095065307 54.76583735609893,240.36414865353436 53.97979948017746,238.61246951593785 52.905012996692676,237.33476092679484 51.653769030817784,236.79894432908623 50.29023393988609,236.75772758643143 49.08711474190932,237.25232773170865 47.69149647234008,238.5300370402838 46.56858522089897,240.07563823719101 45.397549201676156,242.42492080907687 44.804010397347156,244.65052215989272 44.65963609365281,246.85548273085442 45.333382844459265,250.87378342656302 46.64879316755105,253.38774112108513 47.290456739778165,253.94410297489958 48.70211659866618,254.52106859066407 50.46669142221799,254.37682739981392 53.01730412186589,252.00713035286753 54.87812848133035,248.64827666518977 55.600000000034925,244.54748580715386 54.76583735609893,240.32293291461247 53.09751206834335,237.43780235541635 51.846268102526665,236.8607694211969 50.54689936875366,236.75772758643143" stroke="#4DD2FF" stroke-linecap="round" stroke-linejoin="round" stroke-width="0.5"><title>2024-11-24 10.4km</title><desc>1732400098000</desc></polyline><polyline fill="none" points="78.40000000002328,254.3035139968997 80.98876404494513,252.74475527014874 81.79775280907052,252.68240457889624 82.73617977526737,253.40982767232344 87.49303370789858,254.11646381828177 89.09483146073762,253.65922905108891 89.32134831463918,251.91341055594967 90.7451685393462,251.26911518389534 94.06202247197507,251.37303398232325 94.45033707871335,254.09568045051128 95.38876404496841,255.36346053470334 96.27865168545395,255.92460562239285 97.03910112357698,255.9661718402931 99.11011235957267,255.05171234265435 100.64719101128867,254.906229627828 103.60808988771169,255.77912376726454 105.38786516856635,254.76074676969438 107.28089887643,254.24116396371392 110.93752808991121,254.5944804706378 112.21573033707682,253.0980753567128 113.0408988763811,253.78392958255426 114.82067415729398,254.03333032957744 115.92089887638576,253.97098018227553 117.03730337077286,253.49296151209273 119.0597752808826,251.4353852263739 120.12764044944197,249.75189239891188 121.32494382024743,246.3432802594325 121.56764044938609,243.64127571476274 121.17932584270602,240.93922173336614 119.51280898880213,237.23940608928388 118.28314606752247,236.3248306299938 116.5195505618467,236.0338281597069 115.45168539328733,236.34561649881653 114.44853932590922,237.07312006343273 111.82741573039675,240.648228355858 110.69483146071434,244.14011104381643 110.53303370787762,245.84445237195177 110.80808988766512,248.92053083820792 111.61707865167409,251.20676386964624 112.6040449438151,252.93180718594522 113.34831460681744,253.63844561896985 114.95011235959828,254.05411370612273 116.39011235948419,253.84627980878577 117.57123595505254,253.05650833157415 119.07595505617792,251.41460148133046 120.19235955056502,249.68954044421844 120.96898876409978,247.81896956186392 121.53528089891188,244.72208346484695 121.16314606741071,240.87686605784984 120.4350561798201,238.90225604923035 119.14067415730096,236.82369067362742 118.20224719098769,236.30404475827527 116.50337078649318,236.05461406943505 115.38696629210608,236.30404475827527 114.46471910114633,236.98997698028688 112.8791011236026,238.8398995136522 111.73033707874129,240.73136937932577 111.16404494387098,242.12397456521285 110.54921348323114,245.3248381975427 110.85662921349285,248.94131493427267 111.6332584269694,251.26911518389534 112.63640449440572,252.97337424616853 113.55865168542368,253.68001248028304 115.14426966290921,254.07489707978675 116.61662921356037,253.7215793299547 117.49033707869239,253.0980753567128 119.14067415730096,251.352250228505 120.20853932580212,249.62718846312782 121.42202247190289,245.90680595004233 121.56764044938609,243.59970602793328 121.16314606741071,240.89765128598083 120.41887640446657,238.86068502841226 119.3348314606701,236.98997698028688 118.23460674157832,236.28325888370455 116.87550561799435,236.05461406943505 115.4031460674596,236.44954579888145 114.06022471911274,237.40569192783732 112.57168539328268,239.2556092535815 111.27730337087996,241.87455370629323 110.63011235953309,244.57659057459387 110.56539325846825,246.8213220706093 110.90516853932058,249.3362122035469 111.64943820220651,251.352250228505 112.6202247190522,252.97337424616853 114.14112359547289,253.92941340283141 115.8238202247303,253.97098018227553 117.231460674142,253.30591030689538 119.1892134831869,251.28989894941333 120.35415730345994,249.35699624111294 120.96898876409978,247.8605380611407 121.47056179778883,245.42876117867127 121.59999999997672,243.66206055374641 121.17932584270602,240.85608082686667 120.01438202249119,237.96690525069425 119.3348314606701,237.03154852770967 117.86247191019356,236.1793294664967 116.01797752809944,236.13775767922925" stroke="#4DD2FF" stroke-linecap="round" stroke-linejoin="round" stroke-width="0.5"><title>2024-11-21 10.8km</title><desc>1732142576000</desc></polyline><polyline fill="none" points="144.40000000002328,253.93990888108965 146.74835787090706,252.4316371656896 147.51483578712214,252.34784384454542 148.4607021517004,253.14387849104241 151.24937712342944,253.31146419004654 153.01064552663593,253.7723238895269 154.65775764436694,253.43715334050648 155.0165345413261,251.5308564917359 159.56647791620344,249.85497096682957 159.8437146093347,250.21109821944265 160.12095130234957,253.45810152190097 162.0942242355086,256.0975487969117 162.81177802948514,256.39081782771973 162.90962627413683,255.63669629556534 165.61676104192156,254.65214299045329 167.14971687435172,254.69403900843463 169.53069082670845,255.42721741423884 171.53657984145684,254.31697442228324 172.85753114387626,253.96085699174728 174.4883352208999,253.87706453139253 176.83669309172546,254.29602636169875 178.10872027178993,252.87155132784392 180.58754246885655,253.70947946910746 182.44665911665652,253.47904970041418 185.00702151760925,251.17473239627725 186.1975084937876,249.24745780478406 187.2086070215446,246.54504162661033 187.60000000003492,243.21408906721626 187.19229898077901,240.46966334304307 185.46364665904548,236.71956470338046 184.2079275198048,235.81868894424406 182.6260475651361,235.63013286273053 180.53861834655982,236.489108632828 178.45118912798353,238.87745423300657 176.8040770102525,242.69034760679642 176.42899207252776,245.9794134269905 176.62468856177293,248.43045343649283 178.15764439414488,252.15930869954173 179.86998867499642,253.52094604852027 182.15311438281788,253.66758317402855 183.5392978482996,252.76680997860967 185.43103057763074,250.52532744077325 186.60520951304352,248.40950454754056 187.38799546996597,245.79087021613668 187.60000000003492,243.25598830438685 187.24122310301755,240.76296316353546 185.52887882222421,236.80336682237976 183.63714609283488,235.67203423482715 182.08788221969735,235.71393559513672 180.60385050962213,236.46815806330414 179.16874292190187,237.9765915343305 177.68471121182665,240.23921307863202 176.95084937720094,242.18755407107528 176.46160815405892,244.722454177303 176.70622876560083,248.63994216349965 177.70101925253402,251.30042335079634 178.77734994341154,252.89249958886649 180.34292185731465,253.68853132303047 182.12049830128672,253.66758317402855 183.60453001136193,252.6830168460874 185.1211778029683,251.0071442919143 186.57259343157057,248.49330008553807 187.24122310301755,246.39839748493978 187.60000000003492,243.27693791860656 187.3716874292586,241.58000961616926 186.73567383916816,239.0660062008683 185.52887882222421,236.82431734479906 183.76761041901773,235.6929849164153 182.83805209514685,235.60918217228027 181.43556058889953,235.8605902632844 180.65277463197708,236.38435575555195 179.16874292190187,237.93469081098738 177.52163080405444,240.72106322462787 176.77146092866315,242.92079407637357 176.46160815405892,245.05764434835874 176.67361268406967,248.38855565569247 178.1413363533793,252.13836033537518 179.10351075872313,253.14387849104241 180.34292185731465,253.68853132303047 181.8758776896866,253.70947946910746 182.82174405432306,253.35336058538815 185.44733861839632,250.5672246201575 187.07814269541996,247.15256581737776 187.60000000003492,243.19313944411988 186.6215175538091,238.81460352399154 185.49626274069306,236.80336682237976 184.6156285390607,236.09104730693798 183.65345413365867,235.6929849164153 181.81064552662428,235.734886270875 180.78323895810172,236.2377016035025 179.7069082672242,237.32712899717444 178.51642129104584,238.79365328176937 177.17916194797726,241.49621018640755 176.42899207252776,245.64422533150355 176.99977349943947,249.56168906022504 178.549037372577,252.70396513366723 180.22876557189738,253.7304276121722 181.85956964892102,253.7723238895269 182.75651189131895,253.41620515609975 185.33318233292084,250.75576178148913 186.6215175538091,248.49330008553807 187.25753114384133,246.524092472333 187.58369195926934,243.109340922485 187.17599093995523,240.57441334531177 186.24643261614256,238.08134329105087 185.43103057763074,236.71956470338046 184.2894677236909,235.9443928658875 183.08267270668875,235.63013286273053 181.66387315967586,235.81868894424406 180.58754246885655,236.46815806330414 179.1361268403707,237.95564117416507 177.11392978479853,241.55905976316717 176.62468856177293,243.44453472594614 176.41268403170398,246.41934665683948 177.3911664779298,250.6510189435212 178.10872027178993,252.09646359817998 179.1361268403707,253.1648267137498 180.08199320494896,253.64663502211624 181.8921857305104,253.68853132303047 182.7891279728501,253.35336058538815 184.06115515285637,252.26405047623848 185.26795016991673,250.81860744890582 186.76828992075752,248.15811765060062 187.58369195926934,244.05207157085533 187.029218573065,240.00876245749532 185.44733861839632,236.7405152375286 183.58822197059635,235.67203423482715 182.15311438281788,235.6929849164153 181.07678369199857,236.11199792957632 179.2339750849642,237.8508893289254 178.36964892409742,239.19170738008688" stroke="#4DD2FF" stroke-linecap="round" stroke-linejoin="round" stroke-width="0.5"><title>2024-11-17 16.3km</title><desc>1731797391000</desc></polyline></svg>