<?xml version="1.0" encoding="utf-8" ?>
<svg baseProfile="full" height="300mm" version="1.1" viewBox="0,0,200,300" width="200mm" xmlns="http://www.w3.org/2000/svg" xmlns:ev="http://www.w3.org/2001/xml-events" xmlns:xlink="http://www.w3.org/1999/xlink"><defs /><rect fill="#222222" height="300" width="200" x="0" y="0" /><text fill="#FFFFFF" style="font-size:12px; font-family:Arial; font-weight:bold;" x="10" y="20">Over 5km Runs</text><text fill="#FFFFFF" style="font-size:4px; font-family:Arial" x="10" y="280">ATHLETE</text><text fill="#FFFFFF" style="font-size:9px; font-family:Arial" x="10" y="290">sagasw</text><text fill="#FFFFFF" style="font-size:4px; font-family:Arial" x="65" y="280">SPECIAL TRACKS</text><rect fill="yellow" height="2.6" width="2.6" x="65" y="283" /><text fill="#FFFFFF" style="font-size:3px; font-family:Arial" x="70" y="285.5">Over 20.0 km</text><rect fill="red" height="2.6" width="2.6" x="65" y="287" /><text fill="#FFFFFF" style="font-size:3px; font-family:Arial" x="70" y="289.5">Over 40.0 km</text><text fill="#FFFFFF" style="font-size:4px; font-family:Arial" x="120" y="280">STATISTICS</text><text fill="#FFFFFF" style="font-size:3px; font-family:Arial" x="120" y="285">Number: 10</text><text fill="#FFFFFF" style="font-size:3px; font-family:Arial" x="120" y="290">Weekly: 2.5</text><text fill="#FFFFFF" style="font-size:3px; font-family:Arial" x="141" y="285">Total: 119.2 km</text><text fill="#FFFFFF" style="font-size:3px; font-family:Arial" x="141" y="290">Avg: 11.9 km</text><text fill="#FFFFFF" style="font-size:3px; font-family:Arial" x="167" y="285">Min: 7.7 km</text><text fill="#FFFFFF" style="font-size:3px; font-family:Arial" x="167" y="290">Max: 16.3 km</text><polyline fill="none" points="13.0,70.28122029533552 16.221476510167122,68.44494284635584 17.449664429645054,68.16044751564914 18.516778523568064,69.11738460454217 19.744966443045996,69.32428926593275 24.31543624168262,69.99672780703986 26.288590604090132,69.47946760916966 26.771812080638483,67.20350544445682 32.42953020136338,64.92751509555092 32.69127516774461,65.05683348423918 32.97315436252393,69.58291976522014 35.38926174491644,72.27265538388747 36.25503355707042,72.37610596776358 38.10738255036995,71.41918584512314 40.342281879275106,71.00538100585982 44.57046979863662,72.11747939886118 47.409395973198116,70.59157523491012 49.34228187915869,70.20363147858006 53.55033557047136,70.69502676498087 55.40268456377089,68.78116403303284 57.657718120724894,69.7898239026108 60.275167785352096,69.763960898199 62.328859060420655,68.28976362966932 65.4093959730817,64.17746664689912 66.49664429528639,61.0737853544415 66.91946308722254,58.17696885847545 66.31543624168262,53.210891488037305 64.80536912754178,49.744903809027164 63.59731543622911,48.322278003470274 61.42281879205257,47.64976015262073 59.55033557047136,47.7790906996961 58.6241610738216,48.24467991554411 55.523489932878874,51.81415804820426 53.590604026801884,56.314705570519436 53.20805369131267,59.26328039528744 53.69127516774461,64.15160285272577 55.46308724838309,68.1087210446276 56.20805369131267,69.0139321864699 57.73825503361877,69.81568690338463 59.16778523486573,69.99672780703986 60.476510067121126,69.68637186304841 62.791946308803745,67.77249862786266 65.22818791947793,64.46196814293216 66.7181208053371,60.22026381021715 66.97986577183474,56.93546209661872 66.29530201351736,53.15916080919851 64.52348993299529,49.35691604515887 63.0939597315155,48.063617582884035 60.859060402726755,47.62389403223642 59.6510067115305,47.701492382300785 58.664429530268535,48.270545948529616 56.248322147643194,50.77953384110879 54.09395973163191,54.685209713483346 53.16778523486573,59.52192505291896 53.67114093969576,63.81537319684867 55.523489932878874,68.1863107457466 57.355704697896726,69.63464582139568 58.84563758398872,69.99672780703986 60.516778523568064,69.7122348783596 63.27516778523568,67.2552321702824 65.20805369119626,64.61715059154085 65.99328859057277,62.91013645057683 66.69798657717183,60.246128157683415 67.0,56.987191712498316 66.29530201351736,53.08156476360455 64.18120805372018,48.83959775247786 63.11409395968076,48.037751520765596 61.04026845633052,47.62389403223642 58.9664429530967,48.063617582884035 57.114093959797174,49.79663544896175 55.523489932878874,51.96935117690009 56.10738255025353,52.87464181530231" stroke="#4DD2FF" stroke-linecap="round" stroke-linejoin="round" stroke-width="0.5"><title>2024-12-08 8.9km</title><desc>1733614342000</desc></polyline><polyline fill="none" points="73.0,69.3113990114216 73.66087643115316,68.8458616561984 74.79076194239315,68.79109248241002 75.89932885905728,69.85908859175106 79.71535728382878,70.13293280387006 81.99644690100104,70.76277302953531 84.10698776156642,70.05077958070615 84.42676667985506,67.7778599862213 87.17686537699774,66.46338834619382 90.16146861435845,65.6144540264213 90.6731148834806,65.86091921050684 90.97157520719338,69.88647303036123 92.05882352939807,71.96767908560287 93.59376233711373,73.09042574181512 98.98736675875261,71.721221635642 100.7141729175346,71.99506322741217 103.33636004733853,73.09042574181512 106.70469798648264,71.20092154941813 108.90051322535146,70.8175416484737 112.8018160284264,71.44737965830427 114.67785234900657,69.3935525467823 118.30201342271175,70.70800439511368 120.4338728779694,70.160317203874 122.69364390044939,68.24339989633881 125.27319384133443,64.73813084418362 126.72285827086307,60.49338457810518 127.0,56.87843088322552 126.55230951448902,54.03023824779666 125.78484011045657,51.5106484718126 124.03671535721514,48.19679050553532 121.92617449664976,47.07390021071478 119.81563363596797,47.01912490867835 118.21673904464114,47.566877235731226 116.23410975118168,49.429223613697104 113.18555073044263,54.961382734632934 112.35412554279901,60.63031332223909 112.88709040661342,64.49166423823044 114.35807343071792,68.07909181993455 115.53059613110963,69.61262847128091 117.21476510062348,70.51631405354419 119.15475720481481,70.5984670802427 121.13738649827428,69.69478187947243 123.39715752075426,67.44924290855124 125.12396367941983,64.84767145787191 126.65890248713549,60.71247052239778 126.95736281084828,56.98797592127812 126.55230951448902,53.81114477981464 125.46506119216792,50.606874623612384 123.93012238456868,48.14201551955193 122.88551125151571,47.40255169958982 120.58310303988401,46.90957425819943 118.19542045006528,47.67642751612584 115.53059613110963,50.36039011829416 113.31346229766496,54.63274401279341 112.35412554279901,58.93239008456294 112.78049743385054,63.88918899818964 113.88906435051467,67.20277973622433 115.04026845633052,69.11970729408495 116.59652585862204,70.26985476553091 117.91827872081194,70.62585141471936 119.49585471767932,70.62585141471936 121.15870509273373,69.77693525292852 124.80418476113118,65.36798853035725 126.68022108171135,60.411227285308996 126.95736281084828,57.289224457912496 126.65890248713549,54.468424443737604 126.18989340704866,52.3048705093679 124.654954599333,49.10057554807281 123.35452033160254,47.64903995177883 121.96881168568507,47.04651256169018 119.96486379788257,46.96434959115868 118.30201342271175,47.566877235731226 116.6178444531979,49.07318818423664 114.84840110538062,51.538035492631025 113.46269245957956,54.22194482994382 112.63126727205236,57.0975208976015 112.37544413737487,60.411227285308996 112.6525858665118,63.25932652558549 114.57125937612727,68.48986175081518 115.46664034738205,69.55785951329744 117.00157915521413,70.46154534987 118.96288985386491,70.68062007220578 120.28464271617122,70.32462352311995 121.7556257401593,69.33878352708416 123.90880378999282,66.819391958692 126.29648637981154,62.13652314868523 126.93604421627242,56.82365834113443 126.3604421634227,53.34557034126192 125.50769838143606,50.88074593002966 124.5483616264537,49.01841344496643 123.31188314256724,47.64903995177883 121.32925384922419,46.96434959115868 119.34662455576472,47.07390021071478 118.17410185548943,47.64903995177883 115.87169364385772,50.03174362552818 113.39873667585198,54.468424443737604 112.41808132652659,59.20624967338517 113.20686932490207,65.53229889577779 115.57323332026135,69.66739741391211 117.17212791158818,70.51631405354419 118.85629688110203,70.62585141471936 120.28464271617122,70.26985476553091 121.99013028026093,68.98278452338127 124.31385708646849,66.18953897024039 125.99802605609875,62.95808723110531 126.68022108171135,60.46599881765724 127.0,56.796272064209916 126.44571654160973,53.31818357486918 124.18594551901333,48.44327775166312 121.94749309122562,47.101287856014096 120.09277536522131,46.90957425819943 118.45124358474277,47.45732689368015 115.97828661673702,49.86742017096549 115.21081721270457,50.141292518164846" stroke="#4DD2FF" stroke-linecap="round" stroke-linejoin="round" stroke-width="0.5"><title>2024-12-07 13.6km</title><desc>1733525549000</desc></polyline><polyline fill="none" points="133.0,73.37968868212192 133.41342756163795,75.13627895285026 135.16254416957963,77.66901830711868 136.8162544168299,79.34388219451648 138.05653710244223,79.54813322707196 141.45936395740137,78.11837298143655 144.73498233198188,77.54646691164817 151.50883392221294,79.09878076578025 155.19787985866424,77.137961886212 158.60070671362337,76.11669680807972 165.91519434622023,76.89285859517986 168.33215547702275,74.03330490822555 173.96113074198365,75.87159265467199 175.77385158999823,75.70818977081217 177.99999999988358,74.52351611209451 182.03886925789993,70.35669449355919 184.8056537101511,65.74043992714724 186.07773851579987,61.85946114681428 186.93639575957786,55.44551932418835 185.6643109539291,48.99058128747856 183.02473498217296,43.025764101796085 181.02120141335763,41.228123926674016 177.17314487614203,40.45186677292804 173.70671378064435,41.59582395921461 169.47703180194367,46.33502713026246 166.4876325087389,52.054652049642755 165.24734982324298,59.65340797416866 166.328621908091,68.06900229054736 169.25441696099006,73.50224183656974 171.22614840965252,75.01372648830875 173.9929328620201,75.78989122423809 177.65017667831853,74.80947226542048 182.03886925789993,70.35669449355919 184.3286219079746,66.88429745734902 185.79151943454053,63.125891504605534 187.0,55.44551932418835 185.40989399293903,47.84665324451635 182.9929328621365,43.025764101796085 181.78445229679346,41.75924604627653 179.30388692580163,40.73785649216734 176.25088339217473,40.492722464347025 173.96113074198365,41.432401780068176 172.1166077736998,43.025764101796085 169.44522968202364,46.33502713026246 167.06007067137398,50.583902120328275 165.50176678434946,56.1808829040674 165.24734982324298,59.326583855989156 166.0106007065624,67.25196499197045 169.47703180194367,73.74734799037105 171.28975265007466,75.01372648830875 173.9929328620201,75.83074194227811 176.02826855122112,75.62648829436512 178.63604240270797,74.03330490822555 181.9116607772885,70.56095184912556 184.51943462889176,66.39407335349824 186.5229681978235,60.184496381290955 186.93639575957786,55.3229585463414 186.26855123671703,53.48454066988779 186.45936395751778,51.56440290110186 184.8692579504568,46.45759170301608 182.86572438152507,42.82148736988893 180.92579505301546,41.228123926674016 178.76325088343583,40.492722464347025 175.45583038858604,40.61528950420325 173.73851590091363,41.55496842300636 168.99999999976717,47.23383279560949" stroke="#4DD2FF" stroke-linecap="round" stroke-linejoin="round" stroke-width="0.5"><title>2024-12-05 7.7km</title><desc>1733352101000</desc></polyline><polyline fill="none" points="13.0,130.3506952837488 16.26351351349149,128.42389535302937 17.21621621621307,128.26766745225177 17.96621621621307,129.23107073894062 21.777027026982978,129.59560040428187 23.94594594591763,130.272582163263 26.297297297162004,129.59560040428187 26.601351351244375,127.35633540226263 29.945945945801213,125.84611812300864 32.21621621621307,125.35138909255329 32.56081081076991,125.82007978593174 32.47972972958814,128.5540851695696 33.10810810804833,130.09031808715372 34.202702702605166,131.78276331568486 35.317567567457445,132.4597370728443 40.20270270272158,131.18389985067188 44.37837837834377,132.2774751511024 46.97297297290061,130.8974862039031 49.466216216096655,130.32465758058242 53.581081080948934,130.81937331425434 54.635135135031305,129.2571085960226 55.28378378378693,128.91861616862298 56.35810810804833,129.77786496766203 58.770270270179026,130.14239355576865 60.31081081076991,129.90805383156112 61.668918918818235,129.07484351973108 63.331081080948934,127.35633540226263 65.15540540532675,124.72646632124088 66.10810810793191,122.30487064694171 66.97972972970456,117.07099107594695 65.76351351349149,111.73280218699074 63.655405405326746,108.3735702210106 61.36486486485228,107.59234474290861 59.78378378378693,107.7746309828799 58.56756756757386,108.29544782167068 56.19594594591763,110.82138869073242 53.986486486392096,114.80553460369993 53.09459459455684,119.6228513521346 53.621621621539816,124.62231232089107 54.51351351349149,126.86161040970183 55.9121621621307,128.91861616862298 57.77702702698298,129.9601293515443 59.54054054047447,130.06428034738929 61.263513513375074,129.30918429914163 62.9256756757386,127.74690683049266 65.76351351349149,123.39849842441618 66.51351351337507,120.74253403740295 66.93918918911368,117.17514932721679 65.78378378367051,111.99320521843038 64.44594594591763,109.25895510830742 63.614864864735864,108.34752942492196 61.36486486485228,107.5663038368657 60.10810810804833,107.67046743915125 58.97297297290061,108.06108042573032 57.452702702605166,109.31103644026734 54.270270270179026,114.12849625118542 53.09459459455684,119.80512573936721 53.60135135136079,124.54419678205159 54.53378378378693,126.93972497009963 55.93243243242614,128.9706919670134 57.10810810804833,129.72578939644154 59.135135135031305,130.1684312846046 60.49324324319605,129.80390274782258 62.135135135031305,128.58012312192295 65.6621621621307,123.68492367889849 66.85810810804833,118.63335868812283 66.49324324319605,113.97225627952139 64.34459459455684,109.10271102430124 63.53378378378693,108.32148862516624 61.405405405326746,107.5663038368657 60.00675675668754,107.72254921840795 58.385135135031305,108.47773336885439 56.155405405326746,110.84742913863738 54.31081081065349,114.07641627530393 53.19594594591763,118.16464978971635 53.0743243242614,120.84669022183516 53.54054054047447,124.57023529869912 55.68918918911368,128.762388685529 58.06081081076991,130.038242603885 59.92567567550577,129.9601293515443 61.121621621539816,129.3872978263098 62.54054054047447,128.21559145608626 64.42567567562219,125.76800310082035 65.6621621621307,123.71096231639967 66.22972972958814,121.96636550100811 66.93918918911368,116.99287234900112 65.7229729729006,111.78488282259787 64.3851351350313,109.12875171410269 62.8243243242614,107.90483533000224 61.405405405326746,107.5663038368657 59.56081081076991,107.80067185968801 57.59459459455684,109.2068737616355 55.871621621539816,111.2901161924674 53.864864864735864,115.19613252619456 53.25675675668754,117.9042554442567 53.09459459455684,120.89876829195418 53.60135135136079,124.59627381159225 54.5743243242614,126.99180132547917 55.62837837834377,128.73635075880156 56.72297297290061,129.54352478178043 58.79054054047447,130.14239355576865 60.39189189183526,129.82994052421418 61.770270270179026,128.91861616862298 63.918918918818235,126.65330475399969 65.68243243242614,123.65888503768656 66.55405405408237,120.58629965085129 66.93918918911368,117.01891192837502 65.60135135124438,111.55051984693273 64.42567567562219,109.180833082748 63.635135135031305,108.34752942492196 61.75,107.54026292714116 60.00675675668754,107.64442654409504 58.14189189183526,108.55585569128743 56.398648648522794,110.56098400996416 54.18918918911368,114.31077605135215 53.0743243242614,120.03947825913201 53.60135135136079,124.57023529869912 54.59459459455684,127.01783949763922 55.72972972970456,128.81446452786622 57.270270270179026,129.85597829698236 58.75,130.11635582332383 60.65540540544316,129.67371381055273 64.0,126.60122830336331 65.6621621621307,123.71096231639967 66.18918918911368,122.07052099652356 67.0,116.65435748452728 66.00675675668754,112.48796996833698 65.05405405396596,110.30057896272046 63.93918918911368,108.68605948859476 62.763513513375074,107.90483533000224 60.69594594591763,107.5663038368657 58.68918918911368,108.19128457120678 57.12837837822735,109.59748350419977 55.64864864863921,111.86300374849816" stroke="#4DD2FF" stroke-linecap="round" stroke-linejoin="round" stroke-width="0.5"><title>2024-12-03 16.2km</title><desc>1733178751000</desc></polyline><polyline fill="none" points="73.0,141.87453063204885 76.73271889402531,140.0479654787341 79.64779460174032,139.63698690244928 83.20276497700252,140.00230121822096 87.50427913106978,141.5548824723519 91.7346938776318,139.13467904680874 95.96510862419382,138.1300610031467 103.32389730098657,139.18034342949977 106.34562211995944,135.61850228757248 107.51876234379597,135.57283740362618 111.42922975658439,137.53642160640447 114.59315339056775,137.53642160640447 117.11718235677108,136.2578099865059 119.60566161945462,133.92889730556635 121.56089532584883,131.8739604720613 124.97366688610055,125.8917369421979 126.96445029624738,116.07334478400298 124.97366688610055,105.93497228092747 122.59183673467487,101.00267652029288 120.35220539825968,99.03887122817105 117.08163265301846,98.26247981088818 113.5977616852615,98.76485094008967 110.75378538528457,100.9113370027917 106.84331797226332,105.70662691007601 104.24818959855475,110.91286142720492 103.14614878222346,115.38832959337742 102.68400263343938,118.85905832759454 103.07504937448539,125.02407704357756 103.89269256102853,128.81436374227633 106.5944700462278,134.20288790026098 108.58525345637463,136.48613385960925 112.42462146142498,137.71907999797259 114.34430546406657,137.673415409663 117.36603028303944,136.07515077237622 121.52534562232904,131.91962587635498 124.29822251480073,127.49005173484329 126.3601053324528,121.2794129740214 127.0,114.74898077754187 125.43581303511746,107.03102782348287 123.19618169846945,101.96173990145326 121.16984858480282,99.54124115520972 115.97959183668718,98.12546936798026 112.49572086893022,99.31289128473145 106.84331797226332,105.61528871679911 103.89269256102853,112.05456835500081 102.64845292968675,120.64007576534641 103.78604344953783,128.63170033847564 106.02567478595302,133.42658061467228 108.2653061223682,136.34913955497905 110.86043449654244,137.39942774525844 114.2376563528087,137.62775081503787 118.82356813689694,134.84219838812714 124.61816984857433,126.66806225327309 126.43120473995805,120.1377385033993 127.0,114.65764512968599 125.11586570111103,106.11764846174628 122.59183673467487,101.04834626946831 120.10335747199133,98.85619106178638 115.90849242941476,98.12546936798026 113.2778143514879,98.76485094008967 111.2870309415739,100.22628980214358 106.87886767624877,105.61528871679911 104.21263989480212,110.91286142720492 102.50625411467627,120.3204066886683 103.89269256102853,128.63170033847564 106.31007241620682,133.70057163346792 108.47860434511676,136.34913955497905 111.10928242257796,137.39942774525844 114.27320605679415,137.4907569923962 116.8327847267501,136.53179861485842 119.32126398943365,134.38554816824035 124.12047399627045,127.58138377097202 126.46675444371067,120.50307477108436 126.92890059249476,114.84031639978639 125.96905859117396,108.99478474483476 124.36932192230597,104.2908820246812 120.84990125079639,99.26722129140398 115.83739302167669,98.17113952201908 111.89137590513565,99.67825100029586 107.05661619501188,105.38694312109146" stroke="#4DD2FF" stroke-linecap="round" stroke-linejoin="round" stroke-width="0.5"><title>2024-12-01 10.0km</title><desc>1733006314000</desc></polyline><polyline fill="none" points="156.4003467822913,146.6896740612283 160.74892113916576,146.5034783933079 163.69628820358776,144.82771384360967 172.92492933897302,133.03511659495416 176.35547133162618,120.00082647267845 175.67902643186972,109.3869056738331 171.47540455311537,98.21408149131457 168.62467247480527,95.17254144669278 164.95254301768728,93.49658184580039 160.5073336751666,93.31036371906521 156.06212433218025,95.42083121629548 149.3943103181664,103.30395872221561 145.867133339867,110.56624282168923 144.22433858271688,116.77322846266907 143.59621117566712,122.17323491067509 144.17602108977735,130.6765593084565 147.94478553254157,140.85550577531103 150.45729516120628,144.4553208569123 155.24072695383802,146.81380446293042 158.62295145355165,147.0 162.58498586784117,145.3863027341722 166.88524273200892,141.60029751298134 172.24848443898372,133.96612257807283 175.53407395328395,125.46286160338786 176.4521063172724,114.53872369538294 174.71267657447606,105.2902363401663 172.92492933897302,100.94524243130581 169.73597481055185,96.16569968618569 166.74029025365598,93.99316313213785 160.45901618199423,93.186218257586 158.13977652508765,93.99316313213785 153.74288467527367,97.77957705504377 149.3943103181664,103.30395872221561 146.64021322550252,108.45584780329955 144.5625610325951,114.91114194283728 143.69284616131335,122.9801267478615 144.17602108977735,130.36622188449837 147.84815054689534,140.85550577531103 150.26402518968098,144.2070586910413 153.4046622251626,146.19315210508648 157.75323658203706,146.93793482964975 161.86022347491235,145.94489091739524 168.4797199962195,139.6141834174923 173.21483429591171,132.1661759041599 175.19585150294006,126.64215576369315 176.54874130291864,114.91114194283728 174.71267657447606,105.10402319353307 172.92492933897302,100.75902745005442 169.97756227478385,96.16569968618569 166.8369252390694,93.93109050192288 161.37704854644835,93.186218257586 157.8015540749766,94.17938097048318 155.48231441807002,95.85533797668177 149.24935783958063,103.36603003315395 145.77049835422076,110.62831311044283 144.32097356836312,115.84218618553132 144.07938610413112,128.93866692154552 144.90078348270617,133.65578746871324 147.89646803983487,140.7313736967044 149.78085026098415,143.71053394008777 153.45297971810214,146.19315210508648 157.12510917522013,147.0 161.52200102480128,145.94489091739524 164.42105059628375,144.08292755574803 168.9628949246835,138.99352092837216 173.74632671731524,131.23516612139065 175.67902643186972,125.1525205107173 176.6453762887977,115.90425573172979 174.71267657447606,105.16609425109345 171.18549959594384,97.90372122335248 167.80327509599738,94.42767129928689 161.2804135605693,93.1241455138661 158.86453891801648,93.68279989375151 155.96548934676684,95.54497604869539 151.18205755390227,100.63488408530247 145.52891088998877,111.37315589509672 144.03106861142442,117.76633805845631 143.69284616131335,124.46976933817496 144.80414849705994,133.46958629836445 146.3986257610377,137.75219333020505 149.73253276827745,143.5864026650088 153.45297971810214,146.2552173801232 157.41501413215883,147.0 161.66695350361988,146.00695622735657 165.38740045321174,143.15194292724482 170.17083224607632,137.37979436959722 174.66435908176936,128.87659920967417 176.4521063172724,120.99392880062805 176.50042381021194,114.29044468916254 173.11819931026548,101.13145733391866 170.70232466747984,96.97263910880429 167.51337013905868,94.05523575373809 163.06816079630516,93.0 157.8015540749766,94.30352615256561 153.50129721080884,97.84164914363646 149.29767533252016,103.30395872221561 145.1906884398777,112.24213755383971 143.35462371143512,123.22840086236829 144.5625610325951,133.28338504917338 148.13805550406687,141.60029751298134 150.50561265391298,144.26912424553302 154.32269458961673,146.6276088472805 158.81622142507695,146.81380446293042 162.53666837490164,145.3242373369285 170.12251475336961,137.19359477120452 172.58670688886195,133.5316533637233 175.24416899611242,126.82835981665994 176.59705879585817,115.53183832313516 175.77566141728312,109.57311701221624 173.166516803205,101.37974374857731 170.46073720324785,96.7243502131023 166.6436552675441,93.86901786315138 161.57031851774082,93.06207276135683 156.73856923216954,94.73803401360055 149.20104034687392,103.42810133541934 150.69888262543827,106.15922998503083" stroke="#4DD2FF" stroke-linecap="round" stroke-linejoin="round" stroke-width="0.5"><title>2024-11-29 13.9km</title><desc>1732833187000</desc></polyline><polyline fill="none" points="13.0,190.21283831376059 16.261065266444348,188.39155680262775 17.35483870981261,188.26146457964205 18.306826706742868,189.25016317873087 24.282070517656393,190.1087655677984 26.30757689429447,189.40627300059714 26.59114778705407,187.3247978721338 29.244561140309088,185.99784524712595 32.039759940002114,185.13922376801202 32.50562640663702,185.45145022177894 32.444861215306446,188.72979615400254 32.93098274571821,190.08274737214379 34.34883720939979,191.7999404311122 35.86796699173283,192.47640604537446 38.09602400602307,191.43568869057344 40.18229557387531,191.09745428909082 42.32933233305812,191.4096706816781 44.17254313582089,192.21622725584893 46.258814703673124,191.14949039115163 49.054013503482565,190.34292916377308 50.89722430612892,190.23885649106523 53.61140285071451,190.7592192688462 54.887471867958084,189.14608989092812 55.859714928781614,188.88590641522023 58.55363840959035,190.08274737214379 60.66016504133586,189.6404374861595 63.759189797448926,186.83044408571732 65.2175543885678,184.5668072334811 66.5341335333651,180.9761540015752 66.97974493633956,177.02115089568542 66.16954238561448,172.77983644574124 64.69092273071874,169.42314437715686 62.82745686417911,167.8618714856566 60.70067516877316,167.523593954611 59.08027006755583,167.9399354434281 57.70292573142797,168.98078506327874 55.49512378091458,171.84309130170732 54.01650412613526,174.70535322497017 53.16579144785646,178.79050484887557 53.631657914374955,184.41069332561165 55.5356339084683,188.4956305151136 56.852213053382,189.56238269065216 58.63465866469778,190.0567291728803 59.890472618164495,189.9526563390682 61.30832708184607,189.2761814914993 63.759189797448926,186.77840676814958 65.2175543885678,184.5668072334811 66.55438859725837,180.92411503636686 66.91897974489257,176.52676955860807 65.48087021755055,170.95838319633913 64.52888222062029,169.21497542015277 62.94898724684026,167.8618714856566 61.450112528167665,167.523593954611 59.768942235503346,167.70574347127695 58.47261815459933,168.40831849750248 56.588897224282846,170.17775488147163 53.996249062241986,174.7834142930369 53.084771192865446,180.1695483939111 53.7126781695988,184.54078825793113 55.61665416357573,188.52164893412555 56.73068267072085,189.5103461418621 57.905476369080134,189.97867455300002 60.579144786228426,189.71849224883772 63.921230307547376,186.6222947275528 65.98724681173917,182.84954699658556 67.0,177.15125102786988 66.33158289571293,173.2221866693435 64.4681170291733,169.136912000773 62.88822205550969,167.8618714856566 61.30832708184607,167.523593954611 59.56639159785118,167.7838074949832 57.96624156029429,168.72057320769818 56.588897224282846,169.99560780037427 54.68492123030592,173.35228947493306 53.591147786937654,176.29258846388257 53.12528132041916,179.15478150197305 53.692423105821945,184.48875029594637 55.29257314337883,188.13137226513936 56.771192798158154,189.5103461418621 58.53338334581349,190.08274737214379 59.890472618164495,190.0046927633084 61.38934733683709,189.25016317873087 63.96174043510109,186.6483134101727 65.2175543885678,184.54078825793113 66.71642910735682,180.37770501663908 66.95948987244628,177.09921098600898 66.69617404346354,175.04361761514156 65.1770442611305,170.09969186870148 63.67816954245791,168.35627599457803 62.28057014255319,167.60165805518045 60.66016504133586,167.523593954611 58.93848462123424,168.0440206690837 56.48762190551497,170.38592275441624 55.859714928781614,171.50482105545234" stroke="#4DD2FF" stroke-linecap="round" stroke-linejoin="round" stroke-width="0.5"><title>2024-11-27 11.3km</title><desc>1732665796000</desc></polyline><polyline fill="none" points="73.0,190.90890898523503 74.04270330478903,190.67709307928453 76.7898254734464,189.02861594810383 77.81247679167427,188.95134321834485 78.81507612322457,189.9043712724815 84.83067211287562,190.67709307928453 86.7356108429376,190.13618815706286 86.95618269580882,188.204371815169 87.49758633493911,187.68921734736068 90.3449684366351,186.34980894561158 92.53063497960102,185.91192330382182 92.9517266987823,186.45284070911293 93.17229855176993,190.6513357383228 93.67359821754508,191.26951092203672 107.26884515408892,191.55284051697527 110.07612328254618,190.90890898523503 113.72558484959882,191.37253991643956 115.08911994064692,189.72406904819945 116.0516152989585,189.38922158912465 118.33754177496303,190.57406369353703 120.78388414415531,190.36800474803022 122.76903082069475,188.74528244606336 125.5161529892357,184.907358167271 126.69922020053491,181.1723881495127 126.9398440400837,178.9313695547753 126.21797252132092,173.65069999241678 125.11511325661559,170.94590779600549 124.15261789830402,169.5548562437907 123.06981062015984,168.807805676086 120.64352023764513,168.4471594830393 118.85889342729934,169.11693041882245 117.73598217603285,170.07006175520655 115.85109543264844,172.49150823151285 114.36724842188414,175.29931562850834 113.38470107677858,179.67837880179286 113.98626067582518,185.5770688709017 115.87114741920959,189.28619147842983 117.75603416271042,190.49679161621316 119.82138878584374,190.67709307928453 121.20497586333659,190.16194557062408 122.90939472720493,188.61649434563878 125.9974006684497,183.72247938110377 126.97994801332243,178.57074330984324 126.15781656152103,173.4446219937672 124.97474935022183,170.79134703456657 123.93204604531638,169.40029430761933 122.2075751950033,168.57596177649975 120.32268845161889,168.47291994901025 118.79873746749945,169.16845115848992 117.01411065727007,170.8171071705292 114.40735239512287,175.11899901661673 113.38470107677858,180.4253850000241 113.54511696984991,183.7997543183592 114.18678054213524,186.01495531383262 115.9914593390422,189.44073662270966 118.05681396217551,190.5998210454418 119.92164871888235,190.6255783936649 120.88414407719392,190.36800474803022 122.78908280737232,188.69376721674053 125.8169327887008,184.08309547581302 126.61901225405745,181.40421609322948 127.0,177.8494886883127 125.95729669509456,172.9551858169143 124.97474935022183,170.7655868949223 123.6312662458513,169.16845115848992 122.06721128849313,168.49868041134323 120.3627924247412,168.4471594830393 118.85889342729934,169.06540966463217 117.11437059030868,170.66254630034382 115.71073152613826,172.59454779648513 114.24693650205154,175.5311510113388 113.50501299661119,178.3131526998477 113.3245451169787,181.0693534135644 114.16672855545767,186.09222928318195 115.8109914594097,189.23467640134913 116.61307092464995,189.93012871862447 118.37764574831817,190.6513357383228 120.58336427772883,190.47103424975649 123.77163015224505,187.50891294107714 126.09766060160473,183.3103458314872 127.0,178.18435725892778 125.95729669509456,172.90366614326194 123.87189008540008,169.29725294426316 122.30783512815833,168.57596177649975 120.68362421088386,168.4471594830393" stroke="#4DD2FF" stroke-linecap="round" stroke-linejoin="round" stroke-width="0.5"><title>2024-11-24 10.4km</title><desc>1732400098000</desc></polyline><polyline fill="none" points="133.0,190.37939249613555 136.2359550561523,188.4309440876823 137.2471910113236,188.3530057236203 138.42022471909877,189.26228459041158 144.36629213485867,190.14557977285585 146.36853932589293,189.57403631386114 146.65168539329898,187.3917631949298 148.43146067415364,186.5863939798728 152.5775280899834,186.71629247791134 153.06292134837713,190.11960056315002 154.23595505626872,191.7043256683828 155.34831460681744,192.40575702798378 156.29887640452944,192.45771480037365 158.88764044945128,191.31464042831794 160.80898876406718,191.13278703477408 164.51011235965416,192.2239047090843 166.73483146063518,190.95093346212525 169.10112359549385,190.30145495463512 173.67191011237446,190.74310058829724 175.26966292131692,188.87259419588372 176.30112359544728,189.72991197819647 178.52584269666113,190.0416629119718 179.901123595424,189.96372522784804 181.29662921349518,189.36620189010864 183.82471910107415,186.79423153297103 185.15955056180246,184.68986549864348 186.65617977525108,180.42910032428335 186.9595505617326,177.05159464344615 186.47415730333887,173.67402716672223 184.39101123600267,169.04925761160848 182.85393258440308,167.90603828748863 180.64943820226472,167.54228519962635 179.31460674165282,167.93202062351338 178.06067415734287,168.84140007928363 174.7842696630396,173.3102854448225 173.36853932589293,177.67513880477054 173.16629213478882,179.80556546493608 173.51011235953774,183.65066354775627 174.52134831459261,186.50845483705052 175.75505617971066,188.66475898242788 176.6853932584636,189.54805702371232 178.68764044949785,190.06764213264978 180.48764044931158,189.8078497609822 181.96404494380113,188.82063541446405 183.84494382014964,186.76825185165217 185.24044943822082,184.61192555526213 186.21123595512472,182.27371195233718 186.91910112358164,178.40260433105868 186.45393258426338,173.59608257231594 185.54382022470236,171.1278200615343 183.9258426966844,168.52961334203428 182.7528089886764,167.880055947855 180.62921348318923,167.56826758680108 179.23370786511805,167.880055947855 178.08089887641836,168.73747122536588 176.0988764044596,171.0498743920616 174.66292134835385,173.4142117241572 173.9550561797805,175.15496820650878 173.18651685398072,179.15604774691747 173.57078651688062,183.67664366784447 174.5415730336681,186.5863939798728 175.79550561797805,188.71671780772158 176.94831460679416,189.60001560034289 178.9303370786365,190.09362134973344 180.77078651695047,189.6519741624361 181.8629213484237,188.87259419588372 183.9258426966844,186.6903127856349 185.2606741572963,184.53398557890614 186.77752808993682,179.8835074375529 186.9595505617326,176.99963253492024 186.45393258426338,173.62206410746148 185.52359550562687,171.07585628550441 184.16853932582308,168.73747122536588 182.7932584269438,167.85407360462705 181.0943820225075,167.56826758680108 179.25393258430995,168.0619322486018 177.57528089883272,169.25711490980757 175.7146067415597,171.5695115669805 174.09662921354175,174.84319213285926 173.28764044935815,178.2207382182387 173.2067415730562,181.02665258826164 173.6314606742235,184.17026525443362 174.5617977527436,186.6903127856349 175.77528089878615,188.71671780772158 177.67640449432656,189.911766753532 179.77977528097108,189.96372522784804 181.53932584263384,189.13238788361195 183.98651685391087,186.61237368677394 185.44269662932493,184.1962453013839 186.21123595512472,182.32567257643677 186.83820224716328,179.28595147334272 187.0,177.07757569217938 186.47415730333887,173.57010103359062 185.01797752815764,169.95863156336418 184.16853932582308,168.7894356596371 182.32808988774195,167.72416183311725 180.02247191010974,167.67219709903293" stroke="#4DD2FF" stroke-linecap="round" stroke-linejoin="round" stroke-width="0.5"><title>2024-11-21 10.8km</title><desc>1732142576000</desc></polyline><polyline fill="none" points="13.0,249.92488610136206 15.93544733861927,248.0395464571193 16.89354473387357,247.93480480567086 18.075877689640038,248.92984811379574 21.561721404315904,249.13933023753634 23.76330690830946,249.7154048618977 25.82219705544412,249.29644167562947 26.270668176701292,246.9135706146626 31.9580973952543,244.81871370851877 32.304643261712044,245.26387277428876 32.65118912793696,249.32262690237258 35.11778029438574,252.62193599613965 36.01472253690008,252.98852228464966 36.137032842612825,252.04587036944577 39.52095130237285,250.81517873806297 41.437146092997864,250.867548760536 44.413363533327356,251.78402176778764 46.920724801835604,250.39621802784677 48.57191392988898,249.95107123967318 50.61041902611032,249.84633066422248 53.545866364613175,250.3700329521089 55.13590033969376,248.58943915979762 58.234428086085245,249.63684933636978 60.558323895791546,249.3488121255068 63.758776896982454,246.46841549534292 65.2468856171472,244.05932225596916 66.51075877691619,240.6813020332629 67.0,236.51761133401305 66.49037372600287,233.08707917880383 64.32955832383595,228.39945587920374 62.7599093997851,227.2733611802978 60.78255945642013,227.03766607839498 58.17327293322887,228.11138579102408 55.563986410037614,231.09681779124367 53.50509626278654,235.8629345084919 53.03624009061605,239.97426678374177 53.28086070227437,243.03806679560512 55.19705549266655,247.69913587442716 57.337485843803734,249.4011825606285 60.191392978536896,249.58447896753205 61.92412231035996,248.45851247324026 64.28878822200932,245.65665930096293 65.75651189126074,243.0118806844257 66.73499433754478,239.7385877701745 67.0,236.56998538048356 66.55152887885924,233.4537039544084 64.41109852772206,228.50420852797106 62.04643261607271,227.09004279352666 60.10985277465079,227.1424194939027 58.254813136998564,228.08519757911563 56.460928652319126,229.97073941791314 54.605889014783315,232.79901634827547 53.68856172147207,235.23444258882955 53.0770101925591,238.40306772163603 53.38278595695738,243.29992770437093 54.626274065696634,246.62552918848814 55.97168742923532,248.61562448607583 57.92865232157055,249.61066415377718 60.15062287659384,249.58447896753205 62.005662514129654,248.35377105760563 63.90147225372493,246.25893036487105 65.7157417894341,243.11662510692258 66.55152887885924,240.4979968561529 67.0,236.59617239826184 66.71460928651504,234.47501202020794 65.91959229903296,231.33250775106717 64.41109852772206,228.5303966809879 62.20951302384492,227.1162311455264 61.04756511899177,227.01147771535034 59.29445073613897,227.32573782910185 58.31596828997135,227.98044469444721 56.460928652319126,229.91836351373058 54.40203850506805,233.40132903077756 53.464326160843484,236.15099259545968 53.0770101925591,238.82205543543387 53.34201585513074,242.9856945696083 55.176670441636816,247.67295041921898 56.37938844843302,248.92984811379574 57.92865232157055,249.61066415377718 59.84484711207915,249.63684933636978 61.027180067962036,249.19170073172427 64.30917327292264,245.70903077519324 66.3476783692604,241.44070727171493 67.0,236.4914243051462 65.77689694229048,231.01825440497487 64.37032842589542,228.50420852797106 63.26953567378223,227.61380913366156 62.06681766710244,227.1162311455264 59.76330690830946,227.16860783858283 58.47904869762715,227.79712700436357 57.13363533408847,229.15891124645714 55.645526613807306,230.99206660220807 53.97395243495703,234.37026273299125 53.03624009061605,239.5552816643758 53.74971687432844,244.45211132527038 55.68629671575036,248.37995641707676 57.78595696494449,249.66303451520798 59.82446206116583,249.7154048618977 60.945639864192344,249.2702564451174 64.16647791618016,245.94470222685777 65.77689694229048,243.11662510692258 66.57191392977256,240.6551155904017 66.97961494908668,236.38667615309532 66.46998867497314,233.21801668162516 65.3080407702364,230.10167911380995 64.28878822200932,228.39945587920374 62.86183465470094,227.43049108234118 61.35334088339005,227.03766607839498 59.57984144962393,227.2733611802978 58.234428086085245,228.08519757911563 56.42015855049249,229.94455146769178 53.89241223107092,234.44882470394077 53.28086070227437,236.8056684074254 53.01585503958631,240.5241833210457 54.23895809741225,245.8137736794015 55.13590033969376,247.6205794977286 56.42015855049249,248.9560333921836 57.60249150625896,249.5582937776344 59.865232163108885,249.61066415377718 60.98640996601898,249.19170073172427 62.57644394109957,247.8300630952872 64.08493771241046,246.02325931112864 65.96036240097601,242.69764706323622 66.97961494908668,237.5650894635619 66.28652321640402,232.51095307186188 64.30917327292264,228.42564404690347 61.985277463216335,227.09004279352666 60.191392978536896,227.1162311455264 58.845979614998214,227.63999741195585 56.54246885620523,229.81361166115676 55.46206115512177,231.48963422510133" stroke="#4DD2FF" stroke-linecap="round" stroke-linejoin="round" stroke-width="0.5"><title>2024-11-17 16.3km</title><desc>1731797391000</desc></polyline></svg>