<?xml version="1.0" encoding="utf-8" ?>
<svg baseProfile="full" height="300mm" version="1.1" viewBox="0,0,200,300" width="200mm" xmlns="http://www.w3.org/2000/svg" xmlns:ev="http://www.w3.org/2001/xml-events" xmlns:xlink="http://www.w3.org/1999/xlink"><defs /><rect fill="#222222" height="300" width="200" x="0" y="0" /><text fill="#FFFFFF" style="font-size:12px; font-family:Arial; font-weight:bold;" x="10" y="20">Over 5km Runs</text><text fill="#FFFFFF" style="font-size:4px; font-family:Arial" x="10" y="280">ATHLETE</text><text fill="#FFFFFF" style="font-size:9px; font-family:Arial" x="10" y="290">sagasw</text><text fill="#FFFFFF" style="font-size:4px; font-family:Arial" x="65" y="280">SPECIAL TRACKS</text><rect fill="yellow" height="2.6" width="2.6" x="65" y="283" /><text fill="#FFFFFF" style="font-size:3px; font-family:Arial" x="70" y="285.5">Over 20.0 km</text><rect fill="red" height="2.6" width="2.6" x="65" y="287" /><text fill="#FFFFFF" style="font-size:3px; font-family:Arial" x="70" y="289.5">Over 40.0 km</text><text fill="#FFFFFF" style="font-size:4px; font-family:Arial" x="120" y="280">STATISTICS</text><text fill="#FFFFFF" style="font-size:3px; font-family:Arial" x="120" y="285">Number: 25</text><text fill="#FFFFFF" style="font-size:3px; font-family:Arial" x="120" y="290">Weekly: 2.3</text><text fill="#FFFFFF" style="font-size:3px; font-family:Arial" x="141" y="285">Total: 298.1 km</text><text fill="#FFFFFF" style="font-size:3px; font-family:Arial" x="141" y="290">Avg: 11.9 km</text><text fill="#FFFFFF" style="font-size:3px; font-family:Arial" x="167" y="285">Min: 5.1 km</text><text fill="#FFFFFF" style="font-size:3px; font-family:Arial" x="167" y="290">Max: 19.1 km</text><polyline fill="none" points="13.823313905042596,48.6410920816561 18.89508742711041,46.90843969018897 21.86261448787991,47.25497114370228 24.776186511386186,48.433174438381684 28.74188176530879,46.35398835041269 33.328059950028546,45.76488243402855 38.39983347209636,47.42823668758501 39.29009159025736,49.923247003374854 44.20000000006985,50.44303763761127 39.39800166524947,49.88859425537521 38.80449625314213,49.40345527212776 38.02214820985682,47.18566489200748 35.45928393001668,46.04210892310948 32.51873438816983,45.591615719895344 29.06561198993586,46.07676221236761 25.09991673612967,48.19060363258177 21.700749375508167,46.97774601986748 19.299750208156183,46.735173780602054 16.305245628696866,47.324277375941165 13.958201498840936,48.57178622006904 18.139716902631335,46.97774601986748 21.83563696919009,47.25497114370228 24.803164030076005,48.46782739109767 29.874937552027404,45.938149026274914 32.95037468778901,45.69557576300576 35.64812656119466,46.14606877609913 32.73455453792121,45.55696236238873 29.95587010832969,45.7302291009255 24.695253954967484,48.15595064077934 21.99750208167825,47.01239917748899 18.247626977507025,46.83913334104 14.254954204894602,48.36386851816496 16.709908409626223,47.25497114370228 19.623480433016084,46.804480159145896 21.781681931694038,47.116358620813116 24.830141548765823,48.32921555086796 30.44146544544492,45.83418908549356 35.594171523698606,45.903495717648184 32.78850957530085,45.55696236238873 29.847960033337586,45.799535762213054 24.857119067455642,48.19060363258177 19.40766028314829,46.804480159145896 16.22431307239458,47.35893048463913 13.688426311360672,48.6410920816561 12.474437968339771,48.53713328202139 11.800000000046566,47.740114359519794" stroke="#4DD2FF" stroke-linecap="round" stroke-linejoin="round" stroke-width="0.5"><title>2025-02-03 5.1km</title><desc>1738554601000</desc></polyline><polyline fill="none" points="73.82147651002742,56.69024983966665 75.60939597326797,57.279914807440946 76.76912751689088,57.15577494530589 76.9382550335722,55.72816150788276 76.11677852354478,55.01435132406186 76.23758389265276,53.86604313740099 76.96241610741708,52.997049184356 79.23355704708956,41.26529568999831 80.17583892622497,39.55824251148442 79.47516778530553,37.758063027155 78.02550335566048,37.137308073666645 76.76912751689088,37.571836724557215 75.99597315432038,38.50296666496433 75.75436241610441,39.80654197676631 76.21342281869147,40.830774316345924 77.2523489932064,41.5756675756129 78.79865771811455,41.5756675756129 79.71677852363791,40.92388611136994 80.20000000006985,39.682392279137275 79.86174496659078,38.22362809565675 78.58120805374347,37.26145920416457 77.17986577190459,37.32353474322008 75.89932885905728,38.56504185448284 75.80268456379417,40.14795328525361 76.60000000009313,41.23425847744511 73.91812080540694,56.78335493939812 72.58926174498629,56.9385300182912 71.79194630880374,56.56610964566062 71.64697986585088,55.07642186654266 70.53557046980131,54.17639729093935 68.84429530205671,53.431546588850324 66.1865771812154,53.0280847416725 62.99731543625239,53.46258208504878 59.27651006716769,55.51091517473105 59.5906040269183,58.862691926333355 59.32483221485745,55.51091517473105 56.71543624158949,54.393644938551006 52.535570469801314,54.26950345179648 50.38523489946965,55.10745713119104 49.39463087252807,55.94540762710676 51.56912751682103,54.64192770239606 54.66174496640451,54.14536189529463 59.51812080538366,55.41780953791749 62.94899328856263,53.55568854724697 66.69395973160863,53.05912029455067 71.11543624161277,54.48675100770197 71.74362416111398,56.907495011240826 72.44429530203342,57.15577494530589 71.76778523495886,56.504039522391395 71.4053691275185,54.70399834960699 68.36107382562477,53.369475583444 65.80000000004657,52.997049184356 62.99731543625239,53.431546588850324 59.49395973153878,55.35573909152299 54.565100671257824,54.11432649525523 48.54899328853935,55.66609114893072 48.81476510071661,56.31782904780994 51.40000000002328,54.70399834960699 54.22684563754592,54.14536189529463 56.08724832220469,54.30053883010987 59.49395973153878,55.47987996689335 63.842953020124696,53.27636904265091 59.373154362430796,55.324703861741 54.63758389267605,54.08329109077749 52.31812080531381,54.393644938551006 49.32214765099343,55.72816150788276 47.800000000046566,55.88333732908359" stroke="#4DD2FF" stroke-linecap="round" stroke-linejoin="round" stroke-width="0.5"><title>2025-02-01 6.5km</title><desc>1738399435000</desc></polyline><polyline fill="none" points="83.79999999998836,54.17504189573083 86.0436336559942,52.99744179296249 86.48994787788251,52.96645214653108 87.67207743856125,52.02126373986539 88.2993298585643,51.835324081912404 87.84095309011173,51.88180902581371 86.97244973934721,52.40863701886701 86.87594936706591,52.70303979948949 88.05807892774465,51.88180902581371 88.52851824276149,51.77334412611526 89.1075204765657,51.99027381867927 89.13164556963602,51.664879119591205 88.67326880124165,51.370473563234555 88.44408041692805,51.69586913232342 86.87594936706591,52.45512172078452 87.69620253163157,51.09156231011002 88.75770662695868,50.409776272572344 88.61295606853673,50.642203805102326 88.79389426659327,51.06057212722226 88.48026805662084,50.580223177719745 87.73239017126616,51.06057212722226 87.03276247211033,51.97477885482658 86.71913626213791,52.95095731999754 87.05688756518066,53.43129592757032 89.93983618763741,53.75668540678453 90.67565152642783,54.0355899093629 91.89396872674115,53.74119069145672 92.11109456443228,52.22269801502989 94.22204020846402,51.29299828600051 95.5851079672575,51.15354264961934 95.81429635145469,53.818664246187836 97.31005212210584,55.39911286419374 100.27743857033784,54.60889139063511 102.6778853313881,55.32164042138902 105.16276991809718,54.206031202054874 106.73090096801752,54.14405258068291 108.13015636638738,54.391966856841464 109.13134772895137,53.291842999329674 109.99985107971588,53.83415895057988 111.7006701414939,54.06657925492618 112.40029784070794,53.896137746407476 113.4738644825411,53.0439262462678 115.150558451307,50.812650350468175 115.85018615046283,48.90673305050586 116.20000000001164,46.28797986446443 115.59687267319532,43.48321062762261 115.19880863738945,42.38297776920808 114.48711839166936,41.31372685074166 113.19642591214506,40.678369937086245 111.95398361881962,40.64737682315899 110.68741623230744,41.45319495075819 109.77066269546049,42.5689333906048 108.80565897247288,44.196031680759916 108.21459419210441,45.79211425957328 107.98540580790723,47.3881737011543 108.00953090097755,49.4955565510827 108.79359642596683,52.03675869722065 109.52941176469903,53.26085343572777 110.22903946391307,53.78767483084812 111.24229337304132,54.00460055506119 112.38823529414367,53.83415895057988 113.0878629933577,53.40030640325131 114.30618019367103,52.00576878033462 115.18674609088339,50.61121349577297 115.8260610573343,48.78276980705414 116.17587490694132,46.195005233676056 115.88637379003922,44.521448453262565 115.150558451307,42.367481453220535 114.45093075209297,41.31372685074166 113.59448994789273,40.81783884202014 112.44854802679038,40.60088713581354 111.35085629188688,40.92631453477952 109.39672375278315,43.111302159159095 108.78153387940256,44.11855135508813 108.14221891289344,46.04004734116461 107.91303052869625,47.72907660270721 108.10603127325885,50.19284346621862 109.16753536864417,52.765019231970655 109.51734921825118,53.26085343572777 110.38585256884107,53.818664246187836 111.8574832464219,53.97361119205743 112.78629932989134,53.58624341859104 113.92017870442942,52.47061661705084 115.12643335817847,50.73517468074715 115.54862248699646,49.83645292792062 115.99493670888478,47.88403211809782" stroke="#4DD2FF" stroke-linecap="round" stroke-linejoin="round" stroke-width="0.5"><title>2025-01-30 9.1km</title><desc>1738201576000</desc></polyline><polyline fill="none" points="120.05445026181405,42.42290210571082 119.79999999998836,42.926848749193596 119.87421465967782,43.49889311005245 120.61636125651421,45.22862572412123 121.8992146596429,49.95458790487464 123.2138743455289,53.713401691638865 125.84319371724268,52.297054216920515 126.3308900523698,52.32429186383524 126.77617801044835,52.85542444636667 129.14044502616161,52.9916118185356 129.87198952882318,53.31846072983899 130.90039267018437,53.01884926998173 130.9640052355826,51.99743959503394 131.2820680628065,51.67058622233162 132.46950261777965,51.12582814809139 134.04921465966618,50.73087662683247 134.3990837695892,53.263985987970955 135.21544502617326,54.312619383694255 135.60772251308663,54.48966026454582 136.06361256545642,54.51689729440113 136.95418848167174,54.04024816539459 138.15222513087792,53.808732027202495 139.02159685862716,53.86320646246895 140.44227748690173,54.39433059972362 142.00078534032218,53.56359668897494 143.08219895284856,53.35931676616019 145.14960732980398,53.69978306462872 146.17801047116518,52.56943034104188 147.53507853404153,53.25036729768908 148.45746073295595,53.304842047262355 149.14659685862716,53.046086713722616 150.45065445028013,51.72506186110695 151.52146596851526,49.981826211020234 151.96675392671023,48.61990151059581 152.19999999995343,46.45440177129058 151.77591623034095,44.207133823983895 151.05497382197063,42.5591041600419 150.1856020942214,41.714648332694196 148.7543193717138,41.48310270559887 147.74712041881867,41.878091971215326 146.9519633507589,42.68168584504019 145.3828534031054,45.392063427498215 145.08599476434756,46.3999231655398 144.95876963349292,48.42923052301194 145.1284031413379,49.80477708383842 145.69031413609628,51.534396991213725 146.2416230366216,52.48771758432122 146.9519633507589,53.0597054327518 148.14999999996508,53.304842047262355 148.93455497379182,53.1005615783215 149.82513089000713,52.39238594756898 150.81112565443618,51.16668511001626 151.62748691096203,49.66858522709663 152.12578534032218,47.76187910823501 152.19999999995343,46.38630350935273 151.616884816729,43.7031938479704 150.83232984290225,42.245839148446976 149.8993455496966,41.660167058507795 149.23141361254966,45.95047349802917 148.99816753924824,46.19562812089862 148.30903141357703,46.15476906023105 147.80013089004206,46.38630350935273 147.42905759159476,46.99918614178023 147.46086387429386,47.966170846426394 147.9803664921783,48.41561115242075 147.7577225130517,49.88649210584117" stroke="#4DD2FF" stroke-linecap="round" stroke-linejoin="round" stroke-width="0.5"><title>2025-01-29 7.9km</title><desc>1738124973000</desc></polyline><polyline fill="none" points="155.79999999998836,55.39597369307012 156.32475705695106,55.49226874929445 157.98898658028338,55.06856999504089 158.30384081444936,53.4315397569153 162.41193891712464,51.85226850006438 162.74178621004103,52.39153390501451 162.89171679777792,54.95301556173945 164.69088385003852,57.22556817656732 168.30421101342654,56.30114454697468 169.59361406759126,56.39743896640721 171.51272559002973,57.052239221622585 173.68671911151614,56.031519812269835 175.53086534014437,55.58856373782328 178.30458121240372,55.97374301425589 179.20416473853402,54.972274640764226 179.8788523831172,54.62561080415617 180.68847755668685,55.1841243308445 182.17279037483968,55.51152775243099 184.1668671910884,54.87597921861743 185.90606200828915,52.93079718507943 187.18047200370347,50.79299098276533 187.9751041184063,48.23143146478105 188.17001388251083,45.881688090681564 187.5852845904301,42.742213898309274 186.47579824150307,40.14198135655897 185.4562702452531,39.198181027386454 184.04692272091052,38.77443182343268 182.96742248960072,38.88999991827586 181.91790837573353,39.42931640372262 179.99879685329506,41.64434396276192 179.11420638591517,43.03112557536224 178.31957427115412,45.09201117775228 177.97473391948733,47.846230397728505 178.4545118000824,51.544115886092186 179.75890791293932,54.27894608939823 180.6285053215688,55.10708811787481 181.4831096714479,55.41523270973994 182.44266543263802,55.530786752846325 183.59713095793268,55.20338337730209 184.9015270707896,54.22116855159402 186.10097177227726,52.68042521212192 187.7801943544764,49.271468930121046 188.20000000001164,45.727605148393195 187.93012494209688,43.8400750260771 187.16547894489486,41.49025624943897 186.340860712633,39.91084718395723 185.59120777418138,39.275226196215954 184.07690883846954,38.793693179337424 183.02739472466055,38.87073857587529 182.00786672835238,39.46783892849635 180.598519204068,40.79685939227056 178.8143452105578,43.724511111635366 178.2446089773439,45.51574081952276 178.00472003698815,47.86549047687731 178.48449791764142,51.659673197660595 179.174178620975,53.4507990499842 180.02878297079587,54.56783341264236 180.5685330865672,55.06856999504089 182.2327626098995,55.550045750511345 183.55215178162325,55.22264242109668 184.9015270707896,54.18265017948579 187.09051365108462,51.06262603774667 187.73521517816698,49.444807739244425 188.1400277649518,46.941003622458084 187.91513188340468,43.763032427305006 186.5057843590621,40.16124251997098 185.4562702452531,39.21744232362835 184.10689495608676,38.793693179337424 182.9374363720417,38.88999991827586 181.91790837573353,39.48710018685961 180.5685330865672,40.816120463539846 179.74391485424712,42.0873451722" stroke="#4DD2FF" stroke-linecap="round" stroke-linejoin="round" stroke-width="0.5"><title>2025-01-01 8.4km</title><desc>1735690205000</desc></polyline><polyline fill="none" points="11.799999999988358,104.39358178109978 12.473349633219186,105.00412973789935 16.38141809287481,105.61467460187123 16.790709046530537,105.30940255647147 17.635696821496822,105.20764503621467 17.873349633300677,103.76607093576604 20.32909535453655,102.64671915374493 21.5305623470922,102.39231957156153 21.70220048900228,102.51103944338684 21.93985330068972,105.49595778723597 23.378973105107434,107.1240639077223 27.009779951069504,106.29305415665294 29.544743276259396,107.00534857973253 30.746210268931463,106.25913526958902 32.64743276278023,105.7333912995964 35.36723716382403,106.02170279291022 36.46308068459621,104.81757374593144 36.99119804397924,104.85149303868093 38.13985330070136,105.51291733932885 40.04107579460833,105.44507911656547 42.29877750610467,103.20639634427062 43.06454767723335,101.96831907462183 43.88312958437018,99.71261135329405 44.13398533005966,96.79539289545937 43.81711491435999,94.844887673833 43.10415647912305,92.86042822319723 42.51002444984624,91.9275513774337 41.70464547671145,91.23212939405494 40.52958435204346,90.89289770193864 39.169682151579764,91.0794752508009 38.1530562347034,91.893628447011 36.70073349628365,93.69153060281678 35.48606356966775,96.43921603713534 35.11638141813455,99.69565098496969 35.93496332515497,103.18943646757543 36.83276283618761,104.69885614614032 37.690953545155935,105.29244297574041 38.9980440097861,105.63163413727307 40.0674816625542,105.41115999086469 42.35158924199641,103.15551670704735 43.856723716366105,99.89917524758494 44.16039119800553,96.89715751876065 43.26259168697288,93.19965437657811 41.955501222459134,91.36782180354203 40.6220048898831,90.89289770193864 39.43374083127128,91.01162890277192 38.087041564809624,91.96147429841221 36.67432762833778,93.72545302716753 35.38044009776786,96.7445105515435 35.11638141813455,99.54300756245357 35.235207823861856,100.64542793665169 36.265036674798466,103.8678296731523 36.87237163813552,104.732775472301 37.71735941316001,105.34332171081769 38.866014669882134,105.61467460187123 40.014669926604256,105.44507911656547 42.33838630799437,103.15551670704735 43.407823960878886,101.20511442105635 43.896332518255804,99.7465320828851 44.1471882640617,96.77843211651634 43.10415647912305,92.84346689048107 42.3119804400485,91.63920616407995 41.48019559902605,91.0964368318455 40.199511002458166,90.89289770193864 39.15647921751952,91.11339841043082 38.23227383859921,91.82578255740373 36.95158924203133,93.33534457057249 35.76332518341951,95.5233278533633 35.19559902197216,97.94872026097437 35.15599022002425,99.61084910744103 35.34083129587816,101.1711941020476 35.9085574572091,103.00287766658585 36.581907090498134,104.32574292830395 37.51931540342048,105.2246046288783 39.3677261613193,105.61467460187123 40.18630806845613,105.34332171081769 41.75745721266139,103.8678296731523 43.46063569677062,101.12031360564288 43.92273838631809,99.69565098496969 44.20000000001164,97.33813656002167 43.79070904641412,94.72616024972376 42.57603911974002,91.97843575526349 41.90268948650919,91.33389871549298 40.74083129578503,90.89289770193864 39.895843520818744,90.8759360922777 38.65476772614056,91.41870641768037 36.70073349628365,93.79329784724541" stroke="#4DD2FF" stroke-linecap="round" stroke-linejoin="round" stroke-width="0.5"><title>2024-12-31 11.1km</title><desc>1735607974000</desc></polyline><polyline fill="none" points="47.79999999998836,103.9740261600673 48.43322475563036,104.63491453848837 52.377687296364456,105.14328774620662 53.6309446253581,104.82131829716673 53.76286644942593,103.5334318927853 54.09267100971192,103.2284041480525 56.04511400643969,102.27942400120082 57.62817589571932,102.0082854428183 57.733713355031796,104.1943226892181 57.997557003225666,105.07550477582117 59.43550488591427,106.68534001518856 60.01596091198735,106.77006758952484 61.04495114006568,106.19391890821862 62.82589576538885,105.87195226813492 65.38517915306147,106.61755791271571 67.50912052113563,105.5330390854433 69.36921824095771,105.31274500521249 70.72801302926382,105.58387612363731 71.96807817585068,106.14308212756441 72.48257328977343,107.36315894114523 74.80439739412395,107.51566767372424 75.04185667744605,106.82090410556702 74.55374592822045,106.14308212756441 74.72524429962505,105.5160934012456 76.36107491853181,104.73658935172716 77.20537459279876,104.05875564201415 78.23436482081888,102.90642957928503 79.59315960900858,100.29670920257922 80.16042345267488,96.68706767532422 79.32931596087292,93.07731793834682 78.55097719863988,91.53509139514063 77.50879478821298,90.75549683477584 76.00488599343225,90.5012801259727 74.96270358306356,90.84023561853974 73.19495114003075,92.61973629969725 72.31107491848525,94.00942330473481 71.45358306186972,96.29728770411748 71.21612377843121,97.63609189458657 71.40081433218438,99.7205295495296 71.24250814324478,100.31365562119754 71.5459283387172,101.66936138632445 72.45618892501807,103.73678329338873 73.45879478828283,104.83826407908055 74.40863192180404,105.16023348285671 75.58273615629878,105.16023348285671 76.82280130288564,104.43156465451466 78.23436482081888,102.90642957928503 79.57996742666,100.33060203749483 80.0680781758856,98.43258859142225 80.19999999995343,96.70401460196445 79.23697068402544,92.77226370579592 78.44543973938562,91.45035310048843 77.4956026058062,90.73854907089844 76.16319218237186,90.51822792323946 75.01547231263248,90.8571833680544 73.99967426701915,91.7045678055656 72.69364820845658,93.34847660733067 71.41400651459116,96.46675741184299 71.1501628663973,98.77152175808442 71.37442996737082,99.82220851216698 71.25570032565156,100.31365562119754 71.59869706834434,101.7710387033876 72.61449511395767,103.99097206120496 73.92052117257845,105.04161327637121 75.0814332246664,106.78701309726603 74.60651465790579,106.17697331706586 74.80439739412395,105.5160934012456 75.50358306179987,105.4313649446267 75.59592833876377,105.14328774620662 76.91514657973312,104.34683543484425 79.05228013021406,101.61852269558585 79.84381107485387,99.53411789503298 80.1472312703263,97.68693226672622 79.85700325726066,94.65341916132456 78.73566775239306,91.7723583029001 77.91775244293967,90.95886981544754 76.74364820838673,90.5012801259727 75.68827361555304,90.60296687390655 74.85716612375109,90.97581754831481 72.70684039080516,93.31458180710615 71.40081433218438,96.39896955736185 71.25570032565156,100.24586993232515 72.20553745923098,103.26229615784541 72.66726384364301,104.05875564201415 73.73583061882528,104.95688448587316 75.60912052111235,105.16023348285671 76.82280130288564,104.43156465451466 78.19478827359853,102.97421377060527 79.40846905531362,100.80510072461766 80.01530944620026,98.85625490068196 80.19999999995343,96.75485536763881 79.55358306184644,93.50100309030677 78.68289902276592,91.68762017523113 78.11563517909963,91.07750389551802 77.16579804557841,90.61991465689789 76.11042345268652,90.51822792323946 74.97589576541213,90.89107886005513 74.31628664489836,91.43340543438535 72.9970684038708,92.94173837487324 72.00765472307103,94.70426079273602 71.2293159608962,97.77166617254989 71.25570032565156,100.27976278155256 71.82296416931786,102.39804692853795 72.82557003252441,104.26210615551827 74.54055374593008,105.85500663163839 75.09462540713139,106.71923105206224 75.02866449503927,107.43094062391174 75.0814332246664,106.77006758952484 74.61970684037078,106.22781008344464 74.71205211721826,105.5330390854433 75.569543973892,105.38052784204774 77.78583061887184,103.43175606373552 79.43485342018539,100.8220470717497 79.9889250813867,98.87320152203029 80.16042345267488,96.31423468560388 79.28973941365257,92.84005360204901 78.5377850162331,91.53509139514063 77.54837133549154,90.73854907089844 76.09723127033794,90.5012801259727 75.0814332246664,90.78939235545113 73.19495114003075,92.67057878985361 71.65146579802968,95.60245940871391 71.21612377843121,97.44967701328278 71.20293159602443,99.1274005563173 71.49315960909007,101.31349010036502 72.11319218232529,103.04199792368308 72.65407166117802,104.04180975037889 73.60390879475744,104.88910141061933 74.88355048856465,105.21107067841513 75.67508143314626,105.14328774620662 76.71726384363137,104.49934798730828 78.35309446242172,102.80475322084385 79.43485342018539,100.80510072461766 80.08127035823418,98.24617494311678 80.19999999995343,96.63622688110627 79.88338762213243,94.61952472834673 79.30293159600114,92.84005360204901 78.7884364820784,91.78930592130928 77.78583061887184,90.8571833680544 76.62491856666747,90.51822792323946 75.33208469051169,90.70465353599138 74.4350162865594,91.29782401982811 73.26091205206467,92.58584129431983 71.96807817585068,94.63647194603254 71.61188925075112,95.72108891374955 71.17654723126907,99.02572100701946 71.42719869699795,101.09318830105622 72.11319218232529,103.05894395603536 72.65407166117802,104.04180975037889 73.6434853419778,104.87215563585778 74.90993485337822,105.17717921707663 75.886156351713,105.04161327637121 76.71726384363137,104.49934798730828 78.32671009766636,102.83864534987515 79.46123778499896,100.70342259194877 80.02850162860705,98.6698419082386 80.18680781754665,96.70401460196445 79.36889250803506,93.06037050127634 78.48501628660597,91.45035310048843 77.56156351789832,90.73854907089844 76.51938110741321,90.48433232627576 75.18697068397887,90.73854907089844 73.63029315957101,92.11131021722395 72.73322475567693,93.2806869973283" stroke="#4DD2FF" stroke-linecap="round" stroke-linejoin="round" stroke-width="0.5"><title>2024-12-30 19.1km</title><desc>1735521239000</desc></polyline><polyline fill="none" points="83.79999999998836,104.46730819658114 84.19225181598449,104.28255828835245 84.78062953992048,104.98796549030521 88.54624697333202,105.50862051278091 89.85375302663306,105.13912363398413 90.11525423731655,103.74510238382936 93.78934624698013,102.36786058155121 94.19467312347842,105.18950963937095 95.4891041162773,107.02018674214924 96.260532687651,106.9865965894569 98.61404358351137,106.180430089109 100.01307506056037,106.33158672269929 101.55593220342416,106.9026211664168 103.26876513316529,105.97888761325885 104.64164648915175,105.64298273055465 105.54382566583809,105.57580164058163 107.47893462469801,105.92850194108178 108.57723970944062,104.7696256113777 110.27699757873779,105.4246440499046 111.96368038741639,105.2902815862908 112.64358353510033,104.92078403157939 114.10799031483475,103.40919121450133 115.25859564170241,101.52807119511272 115.97772397095105,99.21022182721208 116.20000000001164,97.06029231751018 115.57239709445275,94.10407600132748 114.67021791770821,92.22280930807756 113.72881355934078,91.29896212777385 112.38208232447505,90.97981325785076 111.57142857147846,91.06379988531262 110.59079903148813,91.61811014410341 108.2895883777528,94.6079816870697 107.49200968520017,96.79154840562842 107.26973365619779,98.53837301582098 107.57046004844597,101.66243789404689 108.1457627118798,103.35880445753719 109.17869249399519,104.78642100089928 110.2377723971731,105.44143934719614 111.66295399516821,105.45823464212299 112.51283292978769,105.02155620541453 114.13414043583907,103.42598679540242 115.61162227601744,100.67147993343679 116.18692493950948,97.11068173362582 115.42857142863795,93.65055906500493 114.12106537533691,91.55092115890875 113.03583535109647,91.06379988531262 111.95060532691423,90.97981325785076 110.70847457629861,91.53412390672747 109.88474576274166,92.37398362030217 108.78644067799905,93.75134075534152 107.83196125907125,95.64938002852432 107.25665859563742,98.6727430806568 107.71428571431898,102.16631166770821 108.4726392251905,103.87946658684086 109.30944309930783,104.93757939981879 110.13317191286478,105.4246440499046 111.2968523002346,105.54221108139609 112.81355932203587,104.7528302195642 114.09491525427438,103.42598679540242 115.1147699758294,101.8303960549456 116.08232445525937,98.60555806713091 116.18692493950948,97.16107112849568 115.87312348670093,95.19586896459805 114.85326876520412,92.47476638875378 114.12106537533691,91.51732665217423 112.91815980628598,91.04700256451906 111.92445520579349,90.99661058805214 110.94382566591958,91.38294853056868 108.74721549643436,93.81852850162977 107.51815980632091,96.79154840562842 107.26973365619779,98.87429789424641 107.34818401938537,100.70507186343457 107.74043583543971,102.3342691195794 108.4726392251905,103.91305761395779 108.93026634381386,104.61846699966554 109.88474576274166,105.34066752786748 111.03535108960932,105.57580164058163 112.12058111379156,105.25669094675686 114.17336561746197,103.39239563118463 115.57239709445275,100.72186782486824 115.99079903145321,99.19342565302213 116.17384987894911,97.07708879194979 115.35012106539216,93.36501048011996 113.938014527841,91.41654307515273 112.64358353510033,91.04700256451906 111.62372881360352,91.09739451969654 111.04842615016969,91.31575941300252 109.53171912842663,92.77711418338731 107.88426150125451,95.58219331299188 107.47893462469801,96.80834491782298 107.24358353513526,98.9918713783627 107.60968523001065,101.9311708380119 108.17191283294233,103.34200886717736 109.37481840199325,105.08873760740244 110.35544794192538,105.45823464212299 111.53220338985557,105.54221108139609 113.45423728815513,104.26576282793394 115.3762711865129,101.32652086311282 116.14769975788658,97.88331678320537 115.89927360782167,95.22946243581828 115.5200968523277,93.93610696661926 115.06246973364614,92.86109954598214 114.17336561746197,91.63490738446853 112.80048426153371,91.06379988531262 111.8852300242288,91.04700256451906 110.95690072636353,91.41654307515273 109.81937046011444,92.45796926662297 108.76029055687832,93.80173156858655 107.80581113800872,95.71656670622178 107.25665859563742,98.55516928219004 107.3743341404479,100.75545974074339 107.88426150125451,102.80454872727569 109.29636803874746,104.98796549030521 110.32929782080464,105.47502993470698 111.67602905572858,105.49182522494084 113.40193704608828,104.28255828835245 115.08861985476688,101.96476241347409 116.09539951576153,98.85750167281367 116.18692493950948,97.12747820095683 115.79467312351335,94.89352729782695 115.31089588382747,93.38180747464503 114.42179176752688,91.88686570635036 113.63728813565103,91.28216484003497 112.68280871672323,91.06379988531262 111.76755447941832,91.04700256451906 111.06150121073006,91.3325566959611 108.79951573850121,93.81852850162977 107.50508474581875,96.89232744349283 107.36125907988753,100.58750006707123 108.2895883777528,103.5771469173269 108.93026634381386,104.5680807532699 109.76707021793118,105.27348626772437 111.20532687648665,105.55900636217848 112.13365617441013,105.35746283698973 114.1995157385245,103.39239563118463 115.5593220339506,100.87303137165145 115.99079903145321,99.4117757331478 116.20000000001164,97.11068173362582 115.58547215495491,94.2048573087086 115.07554479420651,92.86109954598214 114.14721549639944,91.56771840876172 112.39515738503542,91.01340791590337 111.57142857147846,91.11419183339603 110.59079903148813,91.70209632231854 108.79951573850121,93.81852850162977" stroke="#4DD2FF" stroke-linecap="round" stroke-linejoin="round" stroke-width="0.5"><title>2024-12-29 18.5km</title><desc>1735432872000</desc></polyline><polyline fill="none" points="119.79999999998836,105.13256957012345 122.31255539139966,103.58031723071326 122.8389955686871,103.51884143636562 123.55686853767838,104.11822895504883 125.6506646971684,104.28728637841414 126.95480059081456,104.62540044011985 128.13929098966764,104.2719175325401 128.34268833085662,102.99629578745953 129.9937961595133,102.16636520643078 131.740620384051,101.72065914333507 132.11152141803177,104.47171236001304 133.37976366322255,105.96247761204722 133.98995568684768,105.97784622000472 135.4855243721977,105.34773151983973 136.58626292471308,105.24015059796511 138.96720827178797,105.87026591878384 140.66617429838516,104.9788822036644 142.74800590839004,104.73298196752876 144.78197932051262,105.42457497056603 145.21270310186082,106.60795728499943 147.09113737073494,106.76164235919714 147.52186115214135,106.00858342947322 147.15096011816058,105.57826170986664 147.1988183160429,104.94814470441634 147.48596750368597,104.62540044011985 148.8140324963024,104.2719175325401 149.44815361889778,103.67253085730044 150.5608567208401,102.39690211149718 150.74032496311702,101.68992072706897 151.44623338256497,100.78313355641149 152.0923190546455,98.32401180954912 151.99660265876446,95.58817379706306 151.47016248153523,93.66689827173104 150.572821270267,92.06837127322797 150.0942392909783,91.65336524562736 148.8618906941847,91.25372832098219 147.95258493354777,91.3152110199444 146.9475627769716,91.88392434457637 144.9853766617598,94.54300410376891 144.12392909900518,97.14053973239061 144.09999999997672,100.16835831076605 144.50679468241287,101.82824353199976 145.29645494825672,103.41125871302938 145.89468242245493,104.10286008544062 146.88774002954597,104.54855642710027 147.94062038406264,104.57929403879098 148.9097488921252,104.13359782252519 150.4412112259306,102.47374763841071 151.26676514028804,101.12125846646086 152.11624815361574,98.17031486184715 152.1880354505265,96.86388207269192 151.9726735597942,95.4652131758703 151.41033973410958,93.54393548720691 150.63264401775086,92.11448295669834 150.07031019200804,91.63799462172756 148.9456425405806,91.23835764081014 148.12008862628136,91.28446967479977 147.04327917279443,91.80707136564888 144.9853766617598,94.54300410376891 144.12392909900518,97.15590958181565 144.0880354504916,100.18372773411102 144.94948301330442,102.76576014755119 145.46395864104852,103.6417929904128 146.42112259968417,104.37949940812541 147.61757754796417,104.59466284140944 148.52688330871752,104.36413057526079 150.345494830166,102.59670036899479 151.73338257014984,99.99929451152275 152.20000000001164,96.84851218212134 151.41033973410958,93.4978244073136 150.6565731166629,92.14522406824108 150.02245199412573,91.60725336743053 148.88581979321316,91.25372832098219 147.43810930580366,91.5765121045115 146.40915805025725,92.49874622858624 145.48788774007699,93.85134218888561" stroke="#4DD2FF" stroke-linecap="round" stroke-linejoin="round" stroke-width="0.5"><title>2024-12-28 9.1km</title><desc>1735368240000</desc></polyline><polyline fill="none" points="155.79999999998836,104.53313241714932 156.397296190029,105.12988151160243 160.2067185578635,105.62432853491191 161.4942236787174,105.21513114235131 161.74641540343873,103.79997950610414 165.48947152798064,102.41891197322548 165.80802949605277,105.60727867113019 167.347726341628,107.1417568015604 167.98484227765584,107.17585609488015 169.0334289225284,106.64731597038917 170.652765260078,106.34042064665118 171.72789840219775,106.4597689204893 173.46669397776714,107.07355818619544 174.76747234730283,106.28927135042613 176.06825071683852,105.86302637570043 177.8601392871351,105.76072735867638 179.42638263001572,106.01647473934281 180.47496927483007,104.92528215318453 181.2580909462995,105.04463182090694 182.24031134776305,105.60727867113019 183.91274067992344,105.41973001140286 185.7709954935708,103.81702962420968 187.0186808684375,101.85625031698146 187.8681687831995,99.69083107963525 188.13363375660265,97.66178108110034 187.81507578853052,95.03590122653986 187.0186808684375,92.71689506799885 185.98336747230496,91.35275306192489 184.5631298646913,90.82414390511258 183.06325276521966,91.02876707813266 180.64752150751883,93.45011504928698 179.4927488733665,96.1953876599 179.1343711593072,98.22446221689461 179.32019664067775,101.29358604780282 179.9042195820366,103.18617365715909 180.67406800482422,104.53313241714932 181.5766489143134,105.33448052458698 182.51904956973158,105.62432853491191 183.78000819328008,105.55612906544411 184.47021712409332,105.14693144256307 186.10282671026653,103.51012713162345 187.0983203604119,101.85625031698146 187.9478082752321,99.52032398418669 188.14690700528445,96.70692226452957 187.68234330188716,94.33679374975327 186.89922163047595,92.3929127324227 186.07628021296114,91.40390866433881 185.0011470708414,90.90940360253444 183.99238017201424,90.82414390511258 183.11634575983044,91.0969747256313 180.99262597289635,93.21139275186579 180.01040557137458,94.84833620192512 179.4927488733665,96.26359239865997 179.09455141332,99.55442542248784 179.4662023760029,101.87330070861208 180.06349856604356,103.51012713162345 180.68734125356423,104.55018243207451 181.68283490365138,105.41973001140286 183.7003687012475,105.60727867113019 184.78877509210724,104.8570822902766 186.14264645631192,103.47602680668206 187.0850471117883,101.92445186908299 187.8681687831995,99.77608453737048 188.19999999995343,97.08204626853694 187.80180253990693,94.9335930672969 187.0717738631065,92.78510176509008 186.2222859483445,91.55737534207583 185.16042605484836,90.96055939221696 183.92601392860524,90.87529973075289 182.9305202785763,91.1992861249455 180.71388775086962,93.62063068797579 179.36001638666494,96.79217782198975 179.1078246619436,99.0429028403887 179.30692339193774,101.25948509901355 180.11659156077076,103.64652833539003 180.7802539942204,104.66953246929916 181.6430151576642,105.36858032650343 182.8774272838491,105.65842825524305 183.76673494459828,105.59022880499106 186.14264645631192,103.4930769703351 187.60270380985457,100.74796971552132 188.05399426457006,99.0088012581109 188.17345350258984,97.08204626853694 187.4434248257894,93.65473378691968 186.6470299056964,92.06892953037459 186.00991396961035,91.38685679925402 184.961327324796,90.90940360253444 183.6738222039421,90.90940360253444 182.95706677588169,91.16518233477109 182.0146661204053,91.93251529139525 180.85989348619478,93.33075395936612 180.59442851279164,94.14922764277435 179.83785333874403,95.17231197112415 179.1078246619436,98.59958152229228 179.29365014337236,101.24243462105369 179.71839410078246,102.67466640775092 180.43514952878468,104.22623173840839 181.2182712003123,105.09578164255072 181.84211388765834,105.45382978927228 183.14289225719403,105.67547811180702 184.5498566161259,105.11283157828439 186.08955346164294,103.5442274469242 187.5363375665038,100.88437402897398 188.01417451858288,99.11110597613151 188.18672675127164,97.15025050812255 187.76198279391974,94.69487369304989 187.0452273657429,92.71689506799885 186.39483818103326,91.72789364484197 185.4657107742387,91.0799228173637 184.03219991794322,90.82414390511258 182.8907005324727,91.1992861249455 182.10757886100328,91.88135991213494 180.740434248175,93.56947602157015 179.9307660794584,95.08705527373968 179.5192953707301,96.09308047981904 179.09455141332,98.87239483306621 179.5989348627627,102.36776102156 180.27587054477772,103.91933028229687 181.12535845959792,105.01053192783002 181.81556739035295,105.45382978927228 183.15616550587583,105.65842825524305 183.83310118800728,105.53907919210178 184.961327324796,104.75478242389363 186.2886521916953,103.25437446062278 187.36378533375682,101.36178791657585 188.08054076193366,98.87239483306621 188.17345350258984,97.18435261350533 187.82834903721232,94.9335930672969 186.55411716498202,91.91546350068529 185.97009422362316,91.33570118962234 184.69586235145107,90.85824779128598 183.55436296592234,90.943507464719 182.66505530505674,91.36980493178999 180.68734125356423,93.6888368762593" stroke="#4DD2FF" stroke-linecap="round" stroke-linejoin="round" stroke-width="0.5"><title>2024-12-27 16.0km</title><desc>1735261057000</desc></polyline><polyline fill="none" points="11.799999999988358,155.52687062797486 12.331147540884558,156.08975044732506 16.181967213051394,156.63557080626197 17.48327868845081,156.22620576745248 17.669180327793583,154.9298740239392 18.359672131075058,154.41816030874907 19.76721311471192,153.7870437515594 21.480163934407756,153.42884100054653 21.812131147482432,156.65262765288935 23.432131147477776,158.17067738918558 26.48622950812569,157.33489954937977 28.066393442626577,157.55663708890643 29.261475409788545,158.06833755512343 31.771147540945094,156.90848006406304 33.2849180327612,156.77202551199298 35.4227868852322,157.0619912515831 36.060163934424054,156.12386429173057 36.69754098361591,155.78272541535262 38.17147540982114,156.56734339580726 39.857868852384854,156.43088845968305 41.0927868852159,155.57804162862158 42.16836065577809,154.43521746736224 43.07131147541804,152.79771929216804 43.86803278687876,150.75081546368892 44.17344262293773,148.20919510136446 43.69540983607294,145.5651710491511 42.91196721314918,143.5181450711898 42.141803278704174,142.47756027748983 40.5881967212772,141.86344046915474 38.99475409835577,142.11932410082227 37.029508196690585,144.166373704953 35.54229508189019,147.13453421839222 35.090819672099315,149.89792866621428 35.5688524589641,153.15592390829988 36.79049180325819,155.73155450109334 38.1847540983581,156.56734339580726 39.91098360653268,156.43088845968305 41.05295081966324,155.62921260772418 42.194918032793794,154.41816030874907 43.03147540980717,153.00240777383442 43.89459016395267,150.69964242505375 44.186721311474685,148.07273075552075 43.48295081965625,144.78048184410727 42.72606557380641,143.12579447695316 41.84967213118216,142.25579515012214 40.66786885244073,141.84638154118875 39.857868852384854,141.84638154118875 38.83540983608691,142.289912888431 36.87016393436352,144.37107676373853 35.595409836038016,146.9639522495272 35.077540983620565,149.86381306946714 35.44934426230611,152.74654711773474 36.060163934424054,154.50344607798615 36.80377049179515,155.7486114748899 37.73327868850902,156.37971781901433 38.99475409835577,158.13656412074488 38.58311475405935,157.77837422282028 38.58311475405935,157.04493446258857 39.00803278683452,156.6185139572699 40.42885245895013,156.1409212103681 42.0754098360776,154.50344607798615 43.61573770490941,151.68898400926992 44.199999999953434,148.22625313381286 43.81491803278914,145.94045539481885 43.376721311418805,144.45636960287084 42.354262295004446,142.6993249990628 41.0927868852159,141.91461723869725 40.05704918032279,141.84638154118875 38.90180327865528,142.22167740217992 38.051967213104945,142.9210893148629 36.75065573770553,144.5587209305886 36.63114754098933,145.1557686194792 36.24606557376683,145.41164530011156 35.87426229508128,146.23044704787026 35.38295081962133,147.81685969292448 35.077540983620565,149.9320442533426 35.54229508189019,153.10475188507553 36.76393442618428,155.66332658178726 37.799672131135594,156.43088845968305 38.64950819668593,156.60145710584038 40.136721311486326,156.3285471567724 40.80065573769389,155.83389630805323 42.248032786883414,154.33287447952898 43.03147540980717,153.01946513173607 44.0937704918324,149.65911928746937 44.199999999953434,148.19213706655137 43.94770491798408,146.40103004904813 43.40327868849272,144.52460383096331 42.646393442642875,143.00638317441917 41.76999999996042,142.22167740217992 40.946721311484,141.89755831793445 39.93754098354839,141.84638154118875 38.94163934432436,142.18755964465527 36.684262295020744,144.60989656201855 35.489180327858776,147.18570876221202 35.090819672099315,149.96615983088122 35.236885245889425,151.70604155193723 35.72819672134938,153.71881473772373 36.59131147537846,155.4586425934467 37.57393442624016,156.3285471567724 38.29098360653734,156.60145710584038 39.11426229507197,156.63557080626197 40.242950819665566,156.26031957349187 42.32770491798874,154.2305314052719 43.86803278687876,150.8872767943103 44.133606557385065,147.66333679605304 43.50950819673017,144.83165738185198 42.99163934425451,143.56932114200754 42.39409836061532,142.6993249990628 41.45131147536449,142.05108851856494 40.01721311471192,141.8293226108217 38.90180327865528,142.17050076236046 36.724098360631615,144.57577947679238 35.489180327858776,147.27099962061038 35.077540983620565,149.89792866621428 35.21032786881551,151.58663870260352 36.113278688455466,154.6399031838955 36.8170491802739,155.7144975248375 37.8262295081513,156.43088845968305 39.11426229507197,156.58440025204618 40.05704918032279,156.3285471567724 42.141803278704174,154.45227462362527 43.62901639344636,151.62075381441537 44.146885245863814,149.13032541720168 44.146885245863814,147.69745301216608 43.70868852455169,145.39458687150182 43.164262295060325,143.94461166783003 42.460491803183686,142.75050141563406 41.54426229506498,142.08520631444117 40.096885245875455,141.84638154118875 38.9549180327449,142.17050076236046 37.41459016391309,143.58637982750224 36.64442622946808,144.72930628466565" stroke="#4DD2FF" stroke-linecap="round" stroke-linejoin="round" stroke-width="0.5"><title>2024-12-26 16.2km</title><desc>1735171955000</desc></polyline><polyline fill="none" points="47.79999999998836,156.09351635904022 52.04764267988503,156.66151486258605 53.2133995036711,156.30006157462776 53.34739454090595,154.97472371366894 53.66898263024632,154.71653934229107 55.46451612905366,153.89034569149953 57.19305210915627,153.4083968180421 57.38064516126178,153.4600342881604 57.595037220802624,156.40333405158162 59.17617866001092,158.19337646579515 59.92655086849118,158.21058828489913 60.93151364766527,157.59096127009252 62.686848635203205,157.2983585331167 65.16575682378607,158.09010550007952 66.6933002480655,157.19508681176376 68.10024813894415,156.81642308761366 71.36972704710206,157.10902697743586 72.38808933005203,155.955819354931 74.63920595531818,156.71315095938917 75.87196029775077,156.4721823211512 77.31910669972422,155.35339313928853 79.12803970224923,152.840383207782 79.89181141438894,150.6887925822375 80.1732009925181,148.08962062846695 79.71761786600109,145.40432536706066 78.57866004965035,142.95996688117884 77.73449131514644,142.15090788863017 76.30074441689067,141.78941171510814 74.61240694788285,142.27140637565753 72.77667493792251,144.33707626219984 71.65111662534764,146.43713821416895 71.02133995038457,149.67322865836468 71.20893300243188,152.32400490945292 72.6292803970282,155.62878834885487 73.25905707199126,156.19678901043517 74.19702233251883,156.60987874397688 75.99255583126796,156.42054612263746 77.33250620344188,155.31896869448246 78.4446650124155,153.9591953755007 79.65062034741277,151.51500785892858 80.1732009925181,148.02076764029334 79.75781637715409,145.40432536706066 78.90024813893251,143.49359860651748 78.10967741935747,142.3919047439922 76.94392059551319,141.87548232957488 76.04615384619683,141.8066258428662 74.97419354843441,142.047623376704 73.80843672453193,143.0116087628121 72.76327543426305,144.28543494023324 71.69131513644243,146.3682842956914 71.03473945410224,149.19126316764596 71.16873449127888,151.72156080602144 71.57071960292524,153.49445925608597 72.41488833748735,155.25011977582471 73.1250620346982,156.09351635904022 74.04962779156631,156.5410305519472 75.3627791563631,156.60987874397688 77.14491315139458,155.50830302096438 78.41786600492196,153.9591953755007 79.35583126550773,152.3067922619448 80.01240694790613,149.98306261376274 80.18660049629398,147.9863411316619 79.70421836228343,145.35268449577416 78.81985111662652,143.32145959467744 78.0962779156398,142.3746906986562 76.89032258064253,141.87548232957488 75.6307692307746,141.84105409101176 74.67940446652938,142.2197641814928 73.48684863524977,143.3903152284911 71.6645161290071,146.43713821416895 71.15533498761943,148.3650321934765 71.02133995038457,150.1551922498329 71.57071960292524,153.4772467733419 72.49528535979334,155.38781757439574 73.00446650123922,155.955819354931 73.76823821337894,156.45497025737131 75.21538461541058,156.644302825458 76.09975186100928,156.3344857432603 76.95732009928906,155.68042488161154 78.41786600492196,153.94198295813112 79.42282878409605,152.1346656537935 80.03920595534146,149.91421069150238 80.20000000001164,148.03798089094198 79.73101736971876,145.36989812194952 78.77965260547353,143.23538999791344 78.08287841186393,142.34026260069368 76.72952853597235,141.78941171510814 75.57717121590395,141.8066258428662 74.69280397018883,142.20255011189147 73.5136476426851,143.32145959467744 71.61091811413644,146.48877862755762 71.0079404466087,150.17240520013002 71.40992555831326,152.9436586058073 72.66947890818119,155.69763705435616 73.71464019850828,156.42054612263746 74.69280397018883,156.67872689727665 75.77816377172712,156.48939438245725 76.56873449130217,156.0246678763433 78.33746898267418,154.0796822293123 79.15483870962635,152.7198951331593 79.6774193548481,151.446156799022 80.09280397021212,149.36339391807996 80.1732009925181,148.07240738503606 79.89181141438894,146.0584411829186 79.22183622821467,144.06165562646493 78.53846153843915,142.90832497771044 78.00248138955794,142.23697824862757 76.863523573149,141.82383996819408 75.83176178653957,141.78941171510814 74.7866004963289,142.13369380935183 73.04466501245042,143.88951741422352 72.60248138959287,144.69856490525126" stroke="#4DD2FF" stroke-linecap="round" stroke-linejoin="round" stroke-width="0.5"><title>2024-12-22 13.5km</title><desc>1734819430000</desc></polyline><polyline fill="none" points="83.79999999998836,155.52339263408066 84.14609695971012,156.00216490761522 88.08627773210173,156.61772648744227 89.44404272793327,156.22445139336196 89.6703368939925,154.71973493418045 93.30435497115832,153.4201920877531 93.51733771566069,153.57408604500233 93.71700903854799,156.053461825024 94.48907148721628,157.50686548661906 95.31437962205382,158.13951812067535 95.84683648310602,158.19081413586537 97.08479868527502,157.59235927824193 98.58898931794101,157.30168014115043 101.38438783888705,157.98562994526583 102.99506984383333,157.09649444922252 104.43270336894784,156.72031978092855 105.8170912078931,156.7374186547313 107.29465899750357,157.09649444922252 108.41281840589363,155.8311750264911 110.78225143795134,156.61772648744227 111.9669679540093,156.32704501886474 113.19161873456324,155.420798330073 115.25488907145336,152.44552583191398 115.90714872634271,150.58166858987533 116.19999999995343,148.1021811541068 115.60098603123333,145.1438299444635 114.60262941656401,142.97204650089407 113.81725554639706,142.18540669990034 112.61922760889865,141.82628683646908 111.12834839767311,142.03149831699557 110.24979457678273,142.5958281010826 109.01183237473015,144.01519142527832 108.02678718161769,145.725245696005 107.30797041906044,147.7088784975349 107.06836483156076,149.77797820473643 107.5209531635046,153.28339729539584 108.93196384550538,155.79697702139674 109.74396055866964,156.37834179915808 110.91536565328715,156.60062759678112 112.16663927695481,156.22445139336196 112.97863599011907,155.60888782131224 115.00197206239682,152.99270785037515 115.61429745273199,151.57344939703762 116.0801972062327,149.3846809725801 116.1467543138424,148.05088087982585 115.82728019717615,145.98175176070072 114.56269515200984,142.97204650089407 113.75069843878737,142.20250761928037 112.83221035334282,141.92889262006793 111.63418241572799,141.8775897390733 110.50271158583928,142.407718464332 109.06507806084119,143.98099009434372 108.08003286767052,145.6055426804669 107.28134757594671,147.74307877907995 107.06836483156076,149.57277980769868 107.16154478222597,151.57344939703762 107.66737880028086,153.69378121037153 108.25308134761872,154.85652810953616 108.78553820872912,155.69438294832798 109.71733771567233,156.37834179915808 110.80887428094866,156.61772648744227 111.95365653245244,156.3441439480448 114.03023829089943,154.42904892526713 115.53442892362364,151.7444452697382 116.01364009856479,149.88057727331034 116.13344289234374,147.93118015553773 115.82728019717615,146.01595252843254 115.20164338528411,144.18619793542166 114.54938373051118,142.97204650089407 113.65751848812215,142.11700299823133 112.37962202134077,141.82628683646908 111.03516844694968,142.06570019666833 109.01183237473015,144.01519142527832 107.49433032044908,147.12747223828046 107.04174198844703,150.08577515055367 107.65406737884041,153.71088051010884 108.54593262117123,155.36950114559295 109.4244864420616,156.22445139336196 110.80887428094866,156.61772648744227 111.74067378800828,156.42963855776907 112.77896466717357,155.79697702139674 114.08348397695227,154.39485052553937 115.56105176662095,151.6418477749612 116.01364009856479,149.8463775933851 116.12013147078687,147.96538037450955 115.85390304023167,146.20405657871015 115.21495480684098,144.22039920858515 114.58931799506536,142.97204650089407 113.77732128184289,142.16830577808287 112.69909613800701,141.84338780644612 111.50106820045039,141.92889262006793 110.54264585039346,142.37351668089832 109.77058340178337,143.10885290292208 107.98685291700531,145.74234611713473 107.30797041906044,147.67467820634192 107.0550534100621,149.64117931183864 107.56088742811698,153.35179471083393 108.94527526706224,155.8653730219521 109.74396055866964,156.3954407210913 111.03516844694968,156.60062759678112 111.71405094489455,156.46383638485713 112.80558751022909,155.74567999566352 114.01692686934257,154.48034650675982 114.98866064089816,152.99270785037515 116.00032867706614,149.91477694358036 116.1467543138424,147.96538037450955 115.89383730478585,146.44346131252678 115.58767460961826,145.1438299444635 114.56269515200984,142.97204650089407 113.75069843878737,142.16830577808287 112.61922760889865,141.84338780644612 111.5676253081183,141.8946907018326 110.56926869350718,142.33931488778035 108.67904683644883,144.5966125778432 108.00016433850396,145.74234611713473 107.30797041906044,147.7772790509698 107.0550534100621,149.5214801542461 107.1881676253397,151.6418477749612 108.09334428922739,154.60004077942722 108.85209531633882,155.76277900667628 109.74396055866964,156.3954407210913 110.80887428094866,156.61772648744227 111.98027937544975,156.36124287483835 114.04354971239809,154.42904892526713 115.50780608050991,151.79574398460682 115.93377156939823,150.30807245980395 116.1467543138424,147.9995805838189 115.6808545603999,145.53714090436551 114.53607230895432,142.9207440604514 113.72407559573185,142.1512048538716 112.64585045195417,141.8091858641419 111.58093672967516,141.8775897390733 110.55595727195032,142.33931488778035 108.625801150396,144.7163165874008" stroke="#4DD2FF" stroke-linecap="round" stroke-linejoin="round" stroke-width="0.5"><title>2024-12-20 16.0km</title><desc>1734644952000</desc></polyline><polyline fill="none" points="119.79999999998836,155.93862729904504 123.79488659789786,156.67661044598935 125.23785567010054,156.35052542005724 125.55851546389749,154.85738811286137 127.24197938141879,153.9477667702813 129.2995463917032,153.364232525666 129.72709278349066,156.60796103932807 130.74251546384767,157.8779688085051 131.25022680411348,158.1697254821629 131.83810309274122,158.1868876176668 132.8802474226104,157.603373654616 134.5637113401899,157.32877788252517 137.22251546388725,158.04959046571457 139.4938556700945,156.9340453769837 140.5360000000219,156.796746814769 143.43529896903783,157.10566836247017 144.59769072162453,155.81849008506833 146.3078762885998,156.62512339460227 147.88445360818878,156.53931159398053 149.84849484532606,154.7372498338009 151.53195876284735,151.95687374298723 152.17327835044125,148.14662577815034 151.4785154638812,144.7825241190585 150.7035876287846,143.11760274402332 150.02218556695152,142.3623731828775 148.899876288604,141.8646056874568 147.8577319587348,141.84744125488942 146.33459793811198,142.4825236531833 144.97179381438764,143.99297661008313 143.9830927834846,145.76086937549553 143.00775257725036,149.14210745516175 143.208164948388,152.30013348014472 144.57096907211235,155.44091521346854 145.37261855666293,156.24755102019117 146.0807422680664,156.55647395893175 147.8577319587348,156.48782448460406 149.2739793813671,155.355102579706 150.3161237112363,154.10223125002813 151.67892783501884,151.4248192410887 152.19999999995343,147.9921537551927 151.90606185566867,146.1556380459806 151.18457731953822,144.02730486894143 149.94202061847318,142.27655134584347 148.73954639176372,141.84744125488942 147.3366597938002,141.91609897089074 146.2945154638728,142.4825236531833 145.07868041231995,143.9071559206568 143.70251546386862,146.39593139362114 143.19480412366102,148.38691520282737 143.04783505154774,150.3435400369417 143.55554639175534,153.38139533744834 144.54424742265837,155.40659016722202 145.37261855666293,156.21322620091814 146.4281237113173,156.62512339460227 147.83101030928083,156.52214922662824 149.82177319581388,154.7372498338009 151.4785154638812,151.95687374298723 152.02630927832797,150.017438077899 152.18663917522645,147.9406630374142 151.54531958757434,144.8168521556363 150.11571134015685,142.3967019007614 148.886515463877,141.8646056874568 147.67068041226594,141.81311238232593 146.46820618549827,142.3280444552729 145.6665567010059,143.11760274402332 143.7292371133226,146.29294858829962 143.02111340203555,149.70849857552093 143.52882474230137,153.2097671112715 144.21022680407623,154.85738811286137 145.1454845360131,156.05876439472195 146.26779381441884,156.55647395893175 147.57715463917702,156.55647395893175 149.35414432990365,155.30361497039848 151.37162886589067,152.30013348014472 152.01294845360098,150.017438077899 152.17327835044125,148.14662577815034 151.87934020609828,146.0869827167844 151.18457731953822,143.97581247702328 150.12907216494204,142.3967019007614 148.85979381436482,141.8646056874568 147.68404123705113,141.83027681981912 146.52164948452264,142.31088008789084 145.86696907208534,143.0146171701781" stroke="#4DD2FF" stroke-linecap="round" stroke-linejoin="round" stroke-width="0.5"><title>2024-12-15 10.9km</title><desc>1734216782000</desc></polyline><polyline fill="none" points="155.79999999998836,155.45738983045158 156.55318107671337,156.1702760778062 158.90522022836376,156.34001027760678 160.22659053833922,156.67947796075896 161.57438825449208,156.3230368683944 161.79902120714542,154.82936750267254 163.4507340946002,154.014630961683 165.47243066882947,153.43752258209133 165.68384991842322,153.522391634644 165.7102773246006,155.42344276114454 166.08026101143332,156.83223810647905 167.40163132135058,158.10523179740994 168.1151712887222,158.12220495591464 169.38368678634288,157.5281429888637 170.8900489396765,157.3074906559341 173.42707993474323,158.03733913968608 175.1316476345528,157.1038112211172 176.79657422512537,156.74737138270575 179.4261011419003,157.03591799980495 180.46998368675122,155.84778044015547 181.13066884176806,155.91567433027376 182.33311582379974,156.56066438031849 183.93197389878333,156.37395708896656 185.00228384986985,155.64409854052064 186.23115823813714,154.33713150052063 187.01076672103954,153.0301502987786 187.85644371941453,150.77260395615303 188.16035889065824,148.51501535801071 187.88287112565013,146.24040967339533 186.98433931480395,143.7111335782174 185.91402936377563,142.38706185270712 184.72479608480353,141.92872594540677 183.49592169653624,142.01360309668962 182.4784665579209,142.5228647499971 181.11745513865026,144.10156220926 179.62430668843444,146.98729985238606 179.10897226759698,149.97481431708002 179.47895595431328,152.8094897374831 180.81353996740654,155.71199254527892 182.4388254485675,156.54369100215263 184.0641109298449,156.3230368683944 186.27079934743233,154.25226302126975 187.06362153345253,152.97922866659064 187.9621533441823,150.36522267208784 188.17357259377604,148.56593887492636 187.90929853182752,146.08763611237373 186.8125611745054,143.32070368326094 185.96688417618861,142.38706185270712 184.53980424144538,141.87779962597415 183.48270799341844,141.94570138042036 182.8484502446954,142.2512588024838 181.52707993471995,143.5074311819917 179.84893964108778,146.34225860649894 179.22789559536614,148.87147952495434 179.28075040783733,151.63828461618687 179.71680261008441,153.7260771169822 181.14388254482765,155.98356818214233 181.14388254482765,156.39093049099756 182.30668841756415,157.03591799980495 183.02022838493576,158.15615126560442 182.61060358892428,157.68090205982298 182.71631321369205,157.001971374797 183.15236541593913,156.56066438031849 183.82626427407376,156.45882407537283 184.73800978792133,155.86475391624845 186.23115823813714,154.30318411597545 187.06362153345253,152.97922866659064 187.9621533441823,150.3482484220658 188.17357259377604,147.75116002408322 187.39396411087364,144.62779010346276 186.58792822185205,142.9811983993277 185.72903752041748,142.2173080160428 184.53980424144538,141.86082418139995 183.17879282217473,142.1324310081327 182.121696574206,142.91329722779483 181.07781402929686,144.15248758967937 179.58466557913925,147.1230975697763 179.12218597059837,150.05968580610352 179.7696574224974,153.79397220140527 180.82675367046613,155.69501904770732 181.81778140296228,156.40790389067115 182.8484502446954,156.62855786918226 183.97161500813672,156.39093049099756 186.25758564437274,154.28621042011946 187.5921696573496,151.62131054534984 188.09429037518566,149.82204548633308 188.20000000001164,148.03972816327587 187.72430668841116,145.66326409432077 186.838988580741,143.45650552919687 185.5704730831785,142.1154555993562 184.63230016315356,141.84384873439558 183.3109298531781,142.0475539404797 182.1613376835594,142.89632192898716 180.9456769983517,144.44106433930574" stroke="#4DD2FF" stroke-linecap="round" stroke-linejoin="round" stroke-width="0.5"><title>2024-12-10 11.3km</title><desc>1733785667000</desc></polyline><polyline fill="none" points="11.799999999988358,207.16873217719694 13.732885906065349,206.0669657078106 14.469798657752108,205.89626850938657 15.110067114059348,206.4704307627253 15.846979865804315,206.59457355955965 18.58926174498629,206.998036684221 19.77315436245408,206.6876805655047 20.0630872483016,205.32210326666973 23.457718120829668,203.95650905733055 23.614765100646764,204.03410009053914 23.783892617444508,206.74975185913354 25.23355704691494,208.36359323033685 25.753020134172402,208.4256635806596 26.86442953022197,207.85151150706952 28.205369127506856,207.6032286035188 30.742281879123766,208.27048763931816 32.44563758390723,207.3549451409417 33.60536912747193,207.12217888714804 36.13020134228282,207.4170160589856 37.24161073821597,206.2686984198226 38.594630872423295,206.87389434156648 40.165100671118125,206.8583765389194 41.39731543621747,205.97385817780014 43.24563758383738,203.50647998813656 43.897986577125266,201.64427121265908 44.15167785232188,199.9061813150838 43.78926174493972,196.92653489282384 42.88322147651343,194.84694228541048 42.15838926174911,193.99336680208216 40.85369127517333,193.5898560915739 39.730201342201326,193.66745441981038 39.17449664429296,193.94680794932356 37.3140939596924,196.08849482891674 36.15436241606949,198.7888233423073 35.92483221477596,200.55796823717537 36.21476510062348,203.49096171163546 37.277852349041495,205.86523262678384 37.72483221476432,206.40835931188485 38.642953020113055,206.88941214203078 39.5006711409078,206.998036684221 40.28590604022611,206.8118231178305 41.675167785200756,205.6634991767205 43.136912751651835,203.6771808857593 44.0308724832139,201.13215828613465 44.1879194630892,199.16127725796832 43.77718120801728,196.89549648552202 42.71409395971568,194.61414962709387 41.85637583886273,193.83817054973042 40.51543624163605,193.5743364193404 39.79060402687173,193.62089542938338 39.19865771813784,193.96232756911922 37.7489932886092,195.46772030466673 36.456375838955864,197.81112582809146 35.90067114093108,200.71315503174992 36.20268456375925,203.2892239181092 37.3140939596924,205.9117864474465 38.41342281870311,206.78078749284032 39.30738255032338,206.998036684221 40.31006711407099,206.82734092701867 41.965100671106484,205.35313930216944 43.124832214729395,203.7702903549216 43.595973154355306,202.74608187034755 44.01879194629146,201.1476768946086 44.199999999953434,199.19231502749608 43.77718120801728,196.84893885815836 42.50872483220883,194.3037586514838 41.86845637578517,193.8226509124579 40.62416107376339,193.5743364193404 39.37986577185802,193.83817054973042 38.268456375808455,194.87798126938287 37.3140939596924,196.1816107061386 37.66442953015212,196.72478508917993" stroke="#4DD2FF" stroke-linecap="round" stroke-linejoin="round" stroke-width="0.5"><title>2024-12-08 8.9km</title><desc>1733614342000</desc></polyline><polyline fill="none" points="47.79999999998836,206.58683940684568 48.19652585865697,206.3075169937074 48.874457165424246,206.2746554894402 49.539597315422725,206.91545315504482 51.82921437028563,207.07975968231767 53.19786814053077,207.45766381771682 54.464192656916566,207.03046774840914 54.65606000786647,205.66671599172696 56.306119226210285,204.87803300771338 58.096881168545224,204.36867241584696 58.40386893012328,204.51655152629974 58.58294512430439,206.931883818208 59.235294117592275,208.1806074513588 60.15625740226824,208.85425544508325 63.392420055228285,208.03273298137356 64.42850375047419,208.19703793644294 66.00181602837984,208.85425544508325 68.02281879191287,207.7205529296407 69.34030793519923,207.49052498907986 71.68108961702092,207.86842779497965 72.80671140935738,206.63613152806647 74.98120805365033,207.42480263706238 76.26032372674672,207.0961903223215 77.61618634028127,205.94603993780038 79.16391630476573,203.84287850649707 80.03371496248292,201.2960307468602 80.20000000001164,199.12705852992804 79.93138570868177,197.41814294866344 79.47090406628558,195.90638908308028 78.42202921432909,193.91807430331392 77.1557046980015,193.24434012641723 75.8893801815575,193.2114749452012 74.93004342674976,193.54012634143146 73.74046585068572,194.657534168211 71.91133043821901,197.9768296407783 71.41247532563284,201.37818799333763 71.7322542439797,203.6949985429237 72.61484405840747,205.8474550919491 73.31835767859593,206.76757708275545 74.32885906036245,207.30978843212506 75.49285432288889,207.35908024813398 76.68243189895293,206.81686912768055 78.03829451242927,205.46954574512347 79.07437820761697,203.90860287471878 79.99534149229294,201.42748231343285 80.17441768653225,199.19278555276105 79.93138570868177,197.28668686788296 79.27903671527747,195.36412477415433 78.35807343071792,193.88520931172388 77.73130675085122,193.44153101975098 76.34986182389548,193.14574455491675 74.91725226998096,193.60585650966823 73.31835767859593,195.21623407096922 71.98807737859897,197.7796464076746 71.41247532563284,200.35943405072612 71.66829846025212,203.33351339890942 72.3334386103088,205.32166784173023 73.02416107378667,206.4718243764437 73.95791551517323,207.16191285930836 74.75096723251045,207.37551084881852 75.6975128306076,207.37551084881852 76.69522305560531,206.86616115175275 78.88251085666707,204.2207931182129 80.00813264900353,201.24673637117667 80.17441768653225,199.37353467474168 79.99534149229294,197.68105466623092 79.71393604419427,196.38292230561638 78.79297275957651,194.4603453288364 78.01271219894988,193.58942397106148 77.18128701142268,193.22790753700247 75.97891827870626,193.17860975468648 74.98120805365033,193.54012634143146 73.97070667188382,194.44391291053762 72.90904066321673,195.92282129557134 72.07761547568953,197.5331668979561 71.57876036321977,199.25851253855217 71.42526648240164,201.24673637117667 71.59155151987216,202.9555959153513 72.742755625688,206.09391705047892 73.27998420840595,206.7347157079712 74.20094749308191,207.27692720991763 75.37773391231894,207.4083720433191 76.17078562971437,207.1947741138647 77.05337544408394,206.6032701162403 78.34528227394912,205.09163517520938 79.77789182786364,202.28191388920823 80.16162652976345,199.0941950046763 79.81626529805362,197.00734220474988 79.30461902881507,195.5284475580047 78.72901697590714,194.41104806696967 77.9871298854705,193.58942397106148 76.79755230952287,193.17860975468648 75.60797473345883,193.24434012641723 74.90446111327037,193.58942397106148 73.52301618625643,195.01904617530818 72.03924200549955,197.68105466623092 71.45084879588103,200.52374980402237 71.9241215948714,204.3193793374594 73.34393999207532,206.80043844833563 74.30327674694126,207.30978843212506 75.31377812864957,207.37551084881852 76.17078562971437,207.16191285930836 77.19407816813327,206.38967071401566 78.58831425185781,204.71372338213405 79.59881563362433,202.77485233865445 80.00813264900353,201.27959929058852 80.20000000001164,199.07776323852158 79.8674299249542,196.9909101449157 78.51156731141964,194.06596665098914 77.16849585471209,193.26077271360555 76.05566521908622,193.14574455491675 75.0707461507991,193.47439613620372 73.586971969984,194.92045210257493 73.12649032764602,195.08477551088436" stroke="#4DD2FF" stroke-linecap="round" stroke-linejoin="round" stroke-width="0.5"><title>2024-12-07 13.6km</title><desc>1733525549000</desc></polyline><polyline fill="none" points="83.80000000004657,209.02781320927897 84.04805653705262,210.08176737171016 85.09752650174778,211.60141098427994 86.08975265012123,212.6063293167099 86.83392226148862,212.72887993624317 88.87561837444082,211.87102378885902 90.8409893992357,211.52788014698308 94.90530035330448,212.45926845946815 97.11872791522183,211.28277713173884 99.16042402817402,210.67001808485657 103.54911660775542,211.13571515709918 104.99929328623693,209.41998294493533 108.37667844526004,210.522955592809 109.46431095397566,210.42491386250185 110.79999999993015,209.7141096672567 113.22332155471668,207.2140166961326 114.88339222606737,204.44426395629125 115.6466431095032,202.11567668808857 116.16183745581657,198.26731159452174 115.39858657238074,194.39434877249005 113.81484098930378,190.81545846107474 112.61272084806114,189.73687435600732 110.30388692568522,189.27112006377138 108.22402826847974,189.95749437554332 105.6862190811662,192.80101627815748 103.89257950522006,196.23279122979147 103.14840989396907,200.79204478449537 103.79717314487789,205.84140137433133 105.55265017657075,209.10134510193893 106.73568904586136,210.00823589299398 108.39575971721206,210.47393473454576 110.59010600706097,209.8856833592581 113.22332155471668,207.2140166961326 114.59717314480804,205.13057847441814 115.47491166077089,202.87553490276332 116.19999999995343,198.26731159452174 115.24593639571685,193.7079919467069 113.79575971723534,190.81545846107474 113.0706713780528,190.05554762776592 111.58233215543441,189.44271389531787 109.7505300353514,189.29563347861404 108.37667844526004,189.859441068038 107.26996466424316,190.81545846107474 105.66713780921418,192.80101627815748 104.2360424028011,195.3503412722057 103.30106007063296,198.70852974243462 103.14840989396907,200.5959503135964 103.60636042396072,205.3511789951881 105.6862190811662,209.24840879422845 106.77385158999823,210.00823589299398 108.39575971721206,210.4984451653727 109.61696113075595,210.37589297661907 111.18162544164807,209.41998294493533 113.14699646644294,207.33657110948116 114.71166077733506,204.83644401210768 115.9137809186941,201.11069782877166 116.16183745581657,198.19377512780193 115.76113074203022,197.09072440193268 115.87561837455723,195.93864174067858 114.92155477032065,192.87455502181547 113.71943462896161,190.69289242193918 112.55547703185584,189.73687435600732 111.25795053003822,189.29563347861404 109.2734982331749,189.36917370252195 108.24310954054818,189.93298105381837 105.39999999990687,193.3402996773657" stroke="#4DD2FF" stroke-linecap="round" stroke-linejoin="round" stroke-width="0.5"><title>2024-12-05 7.7km</title><desc>1733352101000</desc></polyline><polyline fill="none" points="119.79999999998836,207.21041717025219 121.75810810812982,206.05433721182635 122.32972972973948,205.96060047136416 122.77972972975112,206.53864244336728 125.066216216248,206.7573602425764 126.36756756756222,207.16354929796216 127.77837837836705,206.7573602425764 127.96081081079319,205.41380124136776 129.96756756753894,204.50767087381246 131.32972972973948,204.2108334555378 131.53648648649687,204.49204787157214 131.48783783783438,206.13245110174466 131.86486486485228,207.05419085230096 132.5216216216213,208.06965798941383 133.19054054055596,208.47584224370803 136.12162162165623,207.71033991040895 138.6270270270179,208.36648509067163 140.1837837838102,207.53849172234914 141.6797297297162,207.19479454836255 144.1486486486392,207.49162398855697 144.781081081077,206.5542651576252 145.17027027031872,206.35116970117815 145.81486486486392,206.86671898060013 147.26216216216562,207.08543613347138 148.18648648652015,206.9448322989483 149.00135135132587,206.4449061118503 149.99864864861593,205.41380124136776 151.09324324328918,203.83587979275762 151.66486486484064,202.3829223881694 152.18783783784602,199.24259464556962 151.45810810814146,196.03968131220608 150.1932432432659,194.0241421326209 148.81891891895793,193.5554068457568 147.87027027027216,193.66477858973667 147.1405405405676,193.9772686930155 145.71756756759714,195.49283321444818 144.39189189189347,197.88332076223014 143.85675675678067,200.7737108112924 144.17297297291225,203.77338739254628 144.70810810814146,205.11696624582692 145.54729729733663,206.35116970117815 146.6662162162247,206.9760776109324 147.7243243243429,207.03856820843794 148.7581081080716,206.5855105794908 149.7554054054781,205.64814409830433 151.45810810814146,203.03909905465116 151.9081081080949,201.4455204224505 152.16351351351477,199.3050895963388 151.47027027030708,196.1959231310684 150.66756756755058,194.55537306498445 150.16891891887644,194.0085176549619 148.81891891895793,193.53978230211942 148.06486486486392,193.60228046349948 147.38378378382185,193.83664825544838 146.47162162163295,194.58662186416768 144.56216216215398,197.47709775072144 143.85675675678067,200.8830754436276 144.16081081086304,203.72651806924114 144.72027027030708,205.16383498207142 145.55945945950225,206.38241518021096 146.26486486487556,206.83547363786784 147.48108108108863,207.1010587707715 148.29594594595255,206.88234164869937 149.281081081077,206.1480738731625 151.39729729731334,203.2109542073522 152.1148648649105,200.18001521287806 151.89594594598748,197.3833537677201 150.60675675678067,194.46162661458948 150.12027027027216,193.99289317510556 148.84324324328918,193.53978230211942 148.004054054094,193.6335295310564 147.031081081077,194.0866400213199 145.6932432432659,195.50845748319261 144.58648648642702,197.44584976518672 143.91756756760878,199.89878987384145 143.84459459461505,201.50801413310546 144.12432432436617,203.74214117922384 145.41351351351477,206.25743321132177 146.83648648648523,207.02294556233392 147.9554054053733,206.9760776109324 148.67297297297046,206.63237869578734 149.52432432433125,205.9293548736605 150.65540540544316,204.4608018604995 151.39729729731334,203.22657738984708 151.73783783783438,202.1798193006107 152.16351351351477,199.19572340940795 151.4337837838102,196.07092969356745 150.6310810810537,194.4772510284747 149.69459459459176,193.742901198013 148.84324324328918,193.53978230211942 147.7364864864503,193.68040311581717 146.5567567567923,194.52412425699004 145.52297297300538,195.7740697154877 144.31891891889973,198.11767951572256 143.95405405404745,199.7425532665584 143.85675675678067,201.5392609751798 144.16081081086304,203.75776428695826 144.74459459458012,205.19508079529624 145.3770270270761,206.24181045529258 146.03378378378693,206.72611486907408 147.27432432433125,207.08543613347138 148.23513513512444,206.89796431453578 149.06216216215398,206.35116970117815 150.3513513513608,204.9919828524071 151.40945945947897,203.1953310226163 151.93243243248435,201.35177979051514 152.16351351351477,199.21134715703374 151.36081081081647,195.9303119081669 150.65540540544316,194.50849984966044 150.18108108110027,194.0085176549619 149.05000000004657,193.52415775629197 148.004054054094,193.58665592646867 146.88513513514772,194.1335134147812 145.83918918913696,195.33659040598286 144.5135135134915,197.58646563081857 143.84459459461505,201.02368695548648 144.16081081086304,203.74214117922384 144.75675675680395,205.2107036985908 145.43783783784602,206.28867871672992 146.36216216214234,206.9135869781967 147.2500000000582,207.06981349400303 148.39324324327754,206.8042282863389 150.40000000002328,204.96073698202235 151.39729729731334,203.22657738984708 151.71351351350313,202.2423125979185 152.20000000001164,198.9926144907222 151.60405405407073,196.49278198101092 151.03243243240286,195.1803473776381 150.3635135135264,194.2116356931656 149.6581081080949,193.742901198013 148.41756756755058,193.53978230211942 147.21351351356134,193.9147707427328 146.27702702698298,194.75849010252568 145.38918918918353,196.11780224910763" stroke="#4DD2FF" stroke-linecap="round" stroke-linejoin="round" stroke-width="0.5"><title>2024-12-03 16.2km</title><desc>1733178751000</desc></polyline><polyline fill="none" points="155.80000000004657,214.1247183792293 158.03963133634534,213.02877928722592 159.78867676097434,212.78219214147248 161.92165898613166,213.00138073092967 164.50256747857202,213.9329294834024 167.04081632650923,212.4808074280736 169.57906517444644,211.87803660187637 173.9943383805221,212.50820605769695 175.80737327190582,210.37110137254058 176.51125740620773,210.3437024421728 178.85753785388079,211.52185296383686 180.7558920342708,211.52185296383686 182.27030941401608,210.7546859918948 183.7633969716262,209.35733838332817 184.93653719546273,208.1243762832164 186.98420013161376,204.53504216531292 188.17867017770186,198.64400687039597 186.98420013161376,192.56098336854484 185.55510204075836,189.60160591216118 184.21132323890924,188.4233227368968 182.2489795917645,187.95748788652418 180.15865701111034,188.2589105640509 178.4522712311009,189.5468022016721 176.10599078331143,192.42397614603397 174.548913759063,195.5477168563084 173.88768926926423,198.2329977560148 173.61040157999378,200.315434996548 173.84502962464467,204.0144462261378 174.33561553654727,206.2886182453658 175.9566820275504,209.52173274014785 177.15115207375493,210.8916803157481 179.45477287680842,211.63144799876318 180.60658327839337,211.6040492457978 182.4196181697771,210.64509046342573 184.91520737321116,208.15177552579553 186.57893350883387,205.4940310408856 187.81606319942512,201.76764778440702 188.19999999995343,197.84938846650766 187.2614878208842,193.218616694081 185.9177090190351,190.17704394087195 184.70190915069543,188.7247446931142 181.58775510196574,187.8752816207707 179.49743252131157,188.58773477083014 176.10599078331143,192.36917323006492 174.33561553654727,196.23274101299467 173.5890717577422,201.38404545919911 174.27162606967613,206.17902020306792 175.61540487152524,209.05594836879754 176.95918367337435,210.80948373296997 178.5162606977392,211.4396566471405 180.54259381163865,211.5766504890198 183.2941408820916,209.90531903287047 186.77090190909803,205.0008373519522 187.85872284392826,201.08264310203958 188.19999999995343,197.79458707779122 187.06951942062005,192.67058907703904 185.55510204075836,189.62900776167226 184.06201448314823,188.31371463705727 181.545095457579,187.8752816207707 179.96668861084618,188.2589105640509 178.7722185648745,189.13577388128033 176.12732060567942,192.36917323006492 174.52758393681142,195.5477168563084 173.5037524687359,201.1922440132039 174.33561553654727,206.17902020306792 175.78604344965424,209.22034298007202 177.0871626070002,210.80948373296997 178.6655694535002,211.4396566471405 180.56392363400664,211.4944541954319 182.0996708360035,210.9190791689034 183.59275839361362,209.63132890092675 186.47228439769242,205.54883026257448 187.88005266617984,201.30184486263897 188.1573403554503,197.90418983987183 187.5814351545414,194.39687084688921 186.62159315333702,191.5745292148058 184.50994075043127,188.56033277483948 181.50243581295945,187.90268371321145 179.13482554303482,188.80695060016296 176.23396971693728,192.2321658726578" stroke="#4DD2FF" stroke-linecap="round" stroke-linejoin="round" stroke-width="0.5"><title>2024-12-01 10.0km</title><desc>1733006314000</desc></polyline><polyline fill="none" points="25.840208069304936,268.0138044367486 28.44935268361587,267.9020870359964 30.21777292212937,266.89662830616 35.75495760340709,259.82106995698996 37.813282798975706,252.00049588360707 37.40741585905198,245.63214340430568 34.885242731892504,238.92844889478874 33.174803484929726,237.1035248680273 30.97152581065893,236.0979491074686 28.304400205030106,235.98621823143912 25.63727459940128,237.25249872979475 21.63658619078342,241.98237523334683 19.520280003896914,246.33974569302518 18.53460314963013,250.0639370776189 18.15772670530714,253.30394094641088 18.50561265379656,258.40593558506225 20.76687131950166,264.5133034652099 22.2743770966772,266.67319251416484 25.14443617220968,268.08828267775243 27.17377087206114,268.20000000001164 29.550991520751268,267.2317816405266 32.13114563911222,264.960178507783 35.34909066336695,260.3796735468495 37.32044437190052,255.27771696203854 37.87126379041001,248.72323421723559 36.82760594470892,243.1741418041056 35.75495760340709,240.56714545880095 33.84158488630783,237.69941981171723 32.044174152077176,236.39589787929435 28.275409709312953,235.91173095456907 26.883865915006027,236.39589787929435 24.24573080521077,238.66774623302626 21.63658619078342,241.98237523334683 19.984127935254946,245.07350868199137 18.7375366196502,248.94668516569072 18.215707696857862,253.7880760487169 18.50561265379656,258.21973313071067 20.708890328067355,264.5133034652099 22.158415113808587,266.5242352146306 24.042797335074283,267.71589126304025 26.651941949268803,268.1627608978015 29.116134084993973,267.56693455044297 33.08783199777827,263.76851005048957 35.92890057747718,259.2997055425076 37.117510901764035,255.9852934582159 37.9292447817279,248.94668516569072 36.82760594470892,243.0624139161373 35.75495760340709,240.45541647003847 33.98653736477718,237.69941981171723 32.10215514351148,236.358654301177 28.826229127822444,235.91173095456907 26.680932444985956,236.50762858230155 25.28938865091186,237.51320278600906 21.549614703748375,242.0196180198982 19.46229901246261,246.37698786627152 18.59258414094802,249.50531171131297 18.44763166247867,257.36320015293313 18.940470089553855,260.1934724812454 20.737880823900923,264.43882421802846 21.868510156637058,266.22632036404684 24.07178783090785,267.71589126304025 26.27506550506223,268.20000000001164 28.913200614857487,267.56693455044297 30.652630357653834,266.44975653346046 33.37773695483338,263.39611255703494 36.24779603036586,258.7410996728577 37.40741585905198,255.09151230644784 37.987225773278624,249.54255343903787 36.82760594470892,243.09965655067936 34.711299757589586,238.7422327340173 32.68196505762171,236.65660277957795 28.768248136388138,235.87448730831966 27.318723350879736,236.20967993626255 25.579293607966974,237.32698562921723 22.709234532318078,240.38093045118148 19.31734653399326,246.8238935370755 18.418641166761518,250.65980283508543 18.215707696857862,254.68186160290497 18.882489098235965,260.08175177901285 19.83917545666918,262.6513159981405 21.839519660919905,266.15184159902856 24.07178783090785,267.75313042808557 26.449008479248732,268.20000000001164 29.00017210212536,267.60417373641394 31.232440271996893,265.89116575635853 34.10249934764579,262.4278766217467 36.79861544899177,257.3259595257987 37.87126379041001,252.59635728038847 37.90025428624358,248.5742668134917 35.87091958615929,240.67887440035702 34.42139480041806,238.1835834652884 32.50802208343521,236.4331414522312 29.840896477806382,235.80000000001746 26.680932444985956,236.58211569153355 24.10077832650859,238.70498948619934 21.578605199465528,241.98237523334683 19.114413063856773,247.34528253230383 18.01277422683779,253.9370405174268 18.7375366196502,259.97003102951567 20.882833302370273,264.960178507783 22.303367592394352,266.561474547314 24.593616753816605,267.9765653083741 27.289732855046168,268.08828267775243 29.5220010249177,267.19454240216874 34.073508851928636,262.31615686271107 35.552024133270606,260.11899201825145 37.1465013975976,256.0970158900018 37.95823527756147,249.31910299387528 37.46539685036987,245.7438702073414 35.89991008187644,240.82784624915803 34.27644232194871,238.03461012785556 31.986193160526454,236.3214107178792 28.942191110691056,235.83724365683156 26.043141539325006,236.84282040817197 21.520624208147638,242.05686080126907 22.419329575262964,243.69553799100686" stroke="#4DD2FF" stroke-linecap="round" stroke-linejoin="round" stroke-width="0.5"><title>2024-11-29 13.9km</title><desc>1732833187000</desc></polyline><polyline fill="none" points="47.79999999998836,258.1277029882549 49.75663915986661,257.03493408157374 50.412903225864284,256.95687874779105 50.984096024010796,257.55009790723125 54.569242310593836,258.06525934068486 55.78454613656504,257.64376380036265 55.95468867220916,256.39487872328027 57.54673668422038,255.59870714827412 59.22385596396634,255.0835342608043 59.503375843924005,255.270870133063 59.466916729230434,257.2378776924015 59.758589647419285,258.04964842328627 60.609302325581666,259.0799642586644 61.52078019507462,259.48584362722613 62.85761440359056,258.86141321434116 64.10937734431354,258.6584725734574 65.39759939984651,258.84580240900686 66.50352588144597,259.32973635350936 67.75528882222716,258.6896942346939 69.43240810208954,258.2057574982682 70.538334583689,258.1433138946377 72.16684171045199,258.45553156130336 72.93248312076321,257.4876539345569 73.51582895725733,257.3315438491336 75.13218304573093,258.04964842328627 76.39609902480152,257.7842624916884 78.255513878481,256.0982664514304 79.13053263316397,254.74008434008283 79.92048012005398,252.58569240094948 80.18784696178045,250.2126905374098 79.70172543136869,247.66790186744765 78.81455363845453,245.65388662629266 77.69647411850747,244.71712289139396 76.4204051012639,244.5141563727666 75.44816204049857,244.76396126605687 74.62175543885678,245.3884710379716 73.29707426857203,247.1058547810244 72.40990247565787,248.82321193497773 71.89947486872552,251.27430290932534 72.17899474868318,254.64641599536844 73.32138034503441,257.0973783090667 74.11132783198263,257.7374296143971 75.18079519883031,258.034037503734 75.93428357091034,257.9715938034424 76.78499624907272,257.56570889490104 78.255513878481,256.0670440608883 79.13053263316397,254.74008434008283 79.93263315834338,252.55446902182302 80.15138784691226,249.9160617351663 79.28852213051869,246.57502991780348 78.71732933237217,245.5289852520873 77.76939234806923,244.71712289139396 76.87006751686567,244.5141563727666 75.86136534134857,244.6234460827618 75.08357089274796,245.0449910985044 73.95333833456971,246.10665292888007 72.39774943736847,248.87004857581633 71.85086271568434,252.1017290363452 72.22760690172436,254.72447295476013 73.3699924981338,257.1129893604739 74.03840960242087,257.7062076851216 74.74328582145972,257.98720473179856 76.34748687170213,257.83109534930554 78.35273818450514,255.97337683652586 79.59234808705514,253.70972819795134 80.20000000001164,250.29075061672484 79.79894973745104,247.933312001609 78.68087021756219,245.48214720046235 77.73293323331745,244.71712289139396 76.78499624907272,244.5141563727666 75.73983495874563,244.67028449699137 74.7797449362115,245.23234392461745 73.95333833456971,245.99736468022456 72.81095273816027,248.01137368495984 72.15468867216259,249.77555307833245 71.87516879226314,251.49286890118674 72.21545386349317,254.69325017756637 73.1755438860273,256.87882335908944 74.06271567894146,257.7062076851216 75.12003000744153,258.04964842328627 75.93428357091034,258.0028156579865 76.8336084021139,257.55009790723125 78.37704426108394,255.98898804610508 79.13053263316397,254.72447295476013 80.02985746436752,252.2266230099849 80.17569392349105,250.25952659160976 80.01770442607813,249.0261705690864 79.10622655664338,246.05981512121798 78.20690172543982,245.013765596741 77.36834208556684,244.5609948331039 76.39609902480152,244.5141563727666 75.36309077276383,244.82641240144585 73.89257314329734,246.2315536526512 73.51582895725733,246.9028926332685" stroke="#4DD2FF" stroke-linecap="round" stroke-linejoin="round" stroke-width="0.5"><title>2024-11-27 11.3km</title><desc>1732665796000</desc></polyline><polyline fill="none" points="83.79999999998836,258.54534539113956 84.42562198283849,258.4062558475707 86.07389528403291,257.4171695688565 86.68748607492307,257.3708059310011 87.28904567391146,257.9426227634831 90.89840326772537,258.4062558475707 92.04136650572764,258.08171289423626 92.17370961746201,256.92262308909994 92.49855180090526,256.61353040840913 94.20698106195778,255.8098853673655 95.51838098769076,255.54715398229018 95.77103601925774,255.8717044254663 95.90337913105031,258.3908014429908 96.2041589305154,258.76170655321766 104.36130709241843,258.9317043101837 106.04567396949278,258.54534539113956 108.23535090970108,258.8235239498608 109.0534719643183,257.83444142891676 109.63096917932853,257.6335329534704 111.00252506491961,258.34443821611785 112.47033048642334,258.2208028488167 113.66141849232372,257.2471694676351 115.30969179351814,254.94441490036115 116.01953212026274,252.70343288970616 116.1639064240153,251.35882173286518 115.73078351275763,248.19041999544424 115.06906795391114,246.5675446775931 114.49157073895913,245.73291374627297 113.84188637207262,245.28468340564723 112.38611214252887,245.0682956898163 111.31533605634468,245.47015825129347 110.64158930553822,246.04203705312102 109.51065725949593,247.49490493890335 108.62034905306064,249.17958937709773 108.03082064609043,251.8070272810728 108.39175640541362,255.3462413225352 109.5226884514559,257.57171488705353 110.6536204975564,258.29807496972353 111.89283327147132,258.4062558475707 112.72298551799031,258.0971673423701 113.74563683627639,257.1698966073818 115.59844040102325,254.23348762866226 116.18796880793525,251.1424459859045 115.6946899368777,248.06677319626033 114.98484961007489,246.47480822073703 114.35922762710834,245.64017658456578 113.3245451169787,245.14557706589403 112.1936130708782,245.08375196940324 111.27924248046475,245.5010706950925 110.20846639433876,246.49026430231606 108.6444114370388,249.07139940996422 108.03082064609043,252.25523100001737 108.12707018188667,254.27985259101115 108.51206832524622,255.60897318829666 109.59487560339039,257.6644419736258 110.8340883772471,258.3598926272607 111.95298923132941,258.37534703619895 112.53048644628143,258.2208028488167 113.6734496843419,257.21626033004577 115.49015967315063,254.44985728548636 115.97140735242283,252.84252965593623 116.19999999995343,250.70969321298617 115.57437801704509,247.77311149014713 114.98484961007489,246.4593521369461 114.17875974747585,245.5010706950925 113.24032677302603,245.09920824680012 112.21767545485636,245.0682956898163 111.31533605634468,245.43924579877785 110.26862235419685,246.39752778020193 109.42643891560147,247.55672867788235 108.54816190118436,249.31869060680037 108.10300779796671,250.98789161990862 107.9947270701523,252.64161204813718 108.50003713328624,255.65533756990772 109.48659487557597,257.54080584080657 109.96784255478997,257.9580772311674 111.02658744889777,258.3908014429908 112.35001856659073,258.2826205498495 114.2629780913121,256.5053477646434 115.65859636093955,253.98620749888505 116.19999999995343,250.91061435535812 115.57437801704509,247.7421996859557 114.3231340511702,245.578351766555 113.38470107683679,245.14557706589403 112.41017452650703,245.0682956898163" stroke="#4DD2FF" stroke-linecap="round" stroke-linejoin="round" stroke-width="0.5"><title>2024-11-24 10.4km</title><desc>1732400098000</desc></polyline><polyline fill="none" points="119.79999999998836,258.22763549767114 121.74157303367974,257.05856645260064 122.34831460675923,257.0118034341649 123.05213483143598,257.5573707542353 126.61977528088028,258.0873478637077 127.82112359552411,257.7444217883094 127.99101123592118,256.435057916955 129.05887640448054,255.9518363879106 131.54651685396675,256.02977548673516 131.83775280899135,258.0717603378798 132.5415730337263,259.02259540102386 133.20898876409046,259.44345421678736 133.77932584268274,259.4746288802198 135.33258426963584,258.7887842569835 136.48539325839374,258.6796722208601 138.706067415711,259.33434282544476 140.0408988763811,258.5705600772635 141.46067415724974,258.18087297277816 144.20314606738975,258.44586035297107 145.1617977527785,257.32355651752005 145.78067415725673,257.83794718691206 147.11550561792683,258.0249977471685 147.94067415723111,257.97823513669573 148.77797752805054,257.619721134055 150.29483146063285,256.0765389197768 151.09573033702327,254.81391929918027 151.99370786512736,252.2574601945671 152.17573033703957,250.23095678606478 151.88449438195676,248.2044163000246 150.6346067415434,245.429554566952 149.71235955058364,244.74362297248445 148.38966292137047,244.5253711197729 147.58876404492185,244.75921237410512 146.83640449441737,245.30484004756727 144.8705617977539,247.98617126688623 144.02112359547755,250.60508328285505 143.89977528085,251.88333927895292 144.10606741567608,254.19039812864503 144.71280898875557,255.9050729022274 145.45303370780312,257.198855389448 146.01123595505487,257.7288342142274 147.2125842696405,258.04058527958114 148.2925842695986,257.88470985658205 149.17842696624575,257.2923812486697 150.30696629208978,256.06095111098693 151.1442696629092,254.7671553331529 151.72674157301662,253.36422717139067 152.1514606741257,251.04156259862793 151.87235955049982,248.15764954338374 151.32629213482141,246.67669203691185 150.35550561797572,245.1177680052133 149.65168539318256,244.7280335687028 148.37752808985533,244.540960552069 147.5402247190359,244.7280335687028 146.8485393258161,245.24248273521516 145.6593258426292,246.62992463522824 144.7977528090123,248.04852703448705 144.37303370784502,249.09298092390236 143.91191011236515,251.4936286481461 144.1424719101051,254.2059862006936 144.7249438201543,255.9518363879106 145.4773033707752,257.23003068462276 146.1689887640532,257.76000936020137 147.3582022471819,258.0561728098328 148.46247191011207,257.79118449745874 149.1177528090193,257.32355651752005 150.35550561797572,256.0141876713751 151.15640449430794,254.72039134733495 152.06651685392717,251.93010446253174 152.17573033703957,250.19977952093905 151.87235955049982,248.17323846447107 151.31415730330627,246.64551377129828 150.50112359545892,245.24248273521516 149.67595505615463,244.7124441627675 148.6566292134812,244.540960552069 147.55235955055105,244.83715934916108 146.54516853927635,245.55426894587436 145.42876404494746,246.9417069401752 144.45797752810176,248.90591527971264 143.9725842695916,250.93244293093449 143.92404494382208,252.6159915529497 144.1788764044759,254.5021591526529 144.73707865161123,256.0141876713751 145.46516853926005,257.23003068462276 146.605842696561,257.9470600521163 147.86786516854772,257.97823513669573 148.92359550553374,257.47943273016426 150.39191011234652,255.96742421205272 151.26561797753675,254.51774718082743 151.72674157301662,253.39540354585188 152.10292134829797,251.57157088399254 152.19999999995343,250.2465454152989 151.88449438195676,248.14206062015 151.01078651682474,245.97517893801705 150.50112359545892,245.27366139577498 149.39685393258696,244.6344970998689 148.01348314603092,244.60331825941103" stroke="#4DD2FF" stroke-linecap="round" stroke-linejoin="round" stroke-width="0.5"><title>2024-11-21 10.8km</title><desc>1732142576000</desc></polyline><polyline fill="none" points="155.79999999998836,257.9549316608245 157.56126840313664,256.8237278742745 158.1361268403125,256.76088288340543 158.84552661376074,257.3579088682818 160.93703284254298,257.4835981425276 162.2579841449624,257.8292429171488 163.49331823323155,257.5778650053762 163.76240090595093,256.1481423688019 167.17485843709437,254.89122822511854 167.38278595695738,255.15832366458199 167.59071347676218,257.59357614142937 169.07066817663144,259.5731615976838 169.6088335220702,259.7931133707898 169.6822197055444,259.22752222167037 171.71257078141207,258.4891072428436 172.8622876557638,258.5205292563187 174.64801811997313,259.0704130606755 176.15243488107808,258.2377308167124 177.14314835786354,257.9706427438068 178.36625141563127,257.90779839854076 180.12751981877955,258.22201977127406 181.0815402038279,257.15366349588294 182.94065685162786,257.7821096018233 184.33499433746329,257.609287275307 186.25526613817783,255.8810492972043 187.1481313703116,254.4355933535844 187.9064552661148,252.40878121995775 188.19999999995343,249.9105668004122 187.89422423555516,247.85224750728958 186.597734994255,245.03967352752807 185.6559456398245,244.36401670818304 184.46953567379387,244.22259964704426 182.90396375989076,244.86683147462463 181.33839184598764,246.65809067475493 180.10305775766028,249.51776070510095 179.82174405438127,251.98456007024652 179.9685164213297,253.82284007736598 181.1182332956232,256.61948152466357 182.40249150624732,257.64070953638293 184.11483578709885,257.75068738052505 185.15447338618105,257.07510748395 186.57327293319395,255.39399558058358 187.4539071347681,253.80712841065542 188.04099660244538,251.84315266210615 188.19999999995343,249.94199122829014 187.93091732723406,248.07222237264796 186.64665911660995,245.10252511678846 185.22785956959706,244.25402567612036 184.0659116647439,244.2854516963489 182.9528878821875,244.85111854747083 181.8765571913682,245.98244365074788 180.76353340881178,247.67940980896674 180.2131370328716,249.14066555330646 179.84620611550054,251.04184063298453 180.02967157418607,253.97995662262838 180.77576443937141,255.97531751308998 181.58301245752955,257.16937469164986 182.75719139294233,257.7663984922692 184.09037372592138,257.75068738052505 185.2033975084778,257.0122626345692 186.34088335221168,255.75535821892845 187.42944507364882,253.86997506415355 187.93091732723406,252.29879811369756 188.19999999995343,249.95770343895856 188.02876557188574,248.6850072121233 187.55175537936157,246.79950465064758 186.64665911660995,245.11823800859565 185.32570781424874,244.26973868731875 184.62853907136014,244.2068866292102 183.5766704416601,244.39544269746693 182.9895809739246,244.78826681667124 181.8765571913682,245.9510181082369 180.64122310298262,248.0407974184709 180.0785956964828,249.69059555728018 179.84620611550054,251.29323326126905 180.0052095130668,253.79141674176935 181.10600226500537,256.60377025153866 181.82763306901325,257.3579088682818 182.75719139294233,257.7663984922692 183.90690826723585,257.7821096018233 184.6163080407423,257.51502043903747 186.58550396375358,255.4254184651145 187.8086070215213,252.86442436303332 188.19999999995343,249.89485458309355 187.46613816532772,246.61095264299365 186.6221970554907,245.10252511678846 185.96172140428098,244.56828548019985 185.2400906002149,244.26973868731875 183.8579841449391,244.3011647031526 183.08742921851808,244.67827620262688 182.28018120041816,245.4953467478772 181.38731596828438,246.59523996133066 180.3843714609393,248.62215763980203 179.82174405438127,251.7331689986313 180.2498301245505,254.67126679516514 181.41177802940365,257.0279738502577 182.6715741789085,257.79782070912916 183.89467723667622,257.8292429171488 184.56738391844556,257.5621538670748 186.49988674966153,255.56682133612048 187.46613816532772,253.86997506415355 187.9431483578519,252.39306935424975 188.1877689693938,249.8320056918601 187.88199320493732,247.93081000898383 187.18482446210692,246.06100746828452 186.57327293319395,245.03967352752807 185.71710079273907,244.45829464941198 184.81200452998746,244.22259964704426 183.7479048697278,244.36401670818304 182.94065685162786,244.85111854747083 181.85209513024893,245.96673088061652 180.33544733858434,248.66929482237174 179.9685164213297,250.0834010444596 179.80951302376343,252.31450999263325 180.54337485838914,255.4882642076409 181.0815402038279,256.5723476986386 181.85209513024893,257.373620035316 182.56149490369717,257.73497626658354 183.9191392978537,257.7663984922692 184.59184597956482,257.51502043903747 185.54586636461318,256.6980378571752 186.450962627423,255.613955586683 187.57621744053904,253.6185882379432 188.1877689693938,250.5390536781415 187.7719139297842,247.5065718431215 186.58550396375358,245.05538642814645 185.19116647791816,244.25402567612036 184.11483578709885,244.26973868731875 183.30758776894072,244.58399844718224 181.92548131366493,245.88816699670133 181.27723669307306,246.89378053506516" stroke="#4DD2FF" stroke-linecap="round" stroke-linejoin="round" stroke-width="0.5"><title>2024-11-17 16.3km</title><desc>1731797391000</desc></polyline></svg>