<?xml version="1.0" encoding="utf-8" ?>
<svg baseProfile="full" height="300mm" version="1.1" viewBox="0,0,200,300" width="200mm" xmlns="http://www.w3.org/2000/svg" xmlns:ev="http://www.w3.org/2001/xml-events" xmlns:xlink="http://www.w3.org/1999/xlink"><defs /><rect fill="#222222" height="300" width="200" x="0" y="0" /><text fill="#FFFFFF" style="font-size:12px; font-family:Arial; font-weight:bold;" x="10" y="20">Over 5km Runs</text><text fill="#FFFFFF" style="font-size:4px; font-family:Arial" x="10" y="280">ATHLETE</text><text fill="#FFFFFF" style="font-size:9px; font-family:Arial" x="10" y="290">sagasw</text><text fill="#FFFFFF" style="font-size:4px; font-family:Arial" x="65" y="280">SPECIAL TRACKS</text><rect fill="yellow" height="2.6" width="2.6" x="65" y="283" /><text fill="#FFFFFF" style="font-size:3px; font-family:Arial" x="70" y="285.5">Over 20.0 km</text><rect fill="red" height="2.6" width="2.6" x="65" y="287" /><text fill="#FFFFFF" style="font-size:3px; font-family:Arial" x="70" y="289.5">Over 40.0 km</text><text fill="#FFFFFF" style="font-size:4px; font-family:Arial" x="120" y="280">STATISTICS</text><text fill="#FFFFFF" style="font-size:3px; font-family:Arial" x="120" y="285">Number: 11</text><text fill="#FFFFFF" style="font-size:3px; font-family:Arial" x="120" y="290">Weekly: 2.2</text><text fill="#FFFFFF" style="font-size:3px; font-family:Arial" x="141" y="285">Total: 130.5 km</text><text fill="#FFFFFF" style="font-size:3px; font-family:Arial" x="141" y="290">Avg: 11.9 km</text><text fill="#FFFFFF" style="font-size:3px; font-family:Arial" x="167" y="285">Min: 7.7 km</text><text fill="#FFFFFF" style="font-size:3px; font-family:Arial" x="167" y="290">Max: 16.3 km</text><polyline fill="none" points="13.0,69.09564971741929 14.255301794502884,70.2837934630079 18.175367047311738,70.56668379601615 20.377650897251442,71.1324632679316 22.62398042413406,70.53839478065493 22.998368678614497,68.04894583778514 25.751223490922712,66.69105160280014 29.120717781363055,65.72920430348313 29.473083197372034,65.87065272440668 29.51712887431495,69.03907126856211 30.133768352330662,71.38706351078872 32.33605220215395,73.5087196623499 33.52528548124246,73.53700825985288 35.63947797717992,72.54690498144191 38.150081566069275,72.17915109322348 42.37846655782778,73.39556523281499 45.21941272425465,71.83968536852626 47.99429037515074,71.2456189711811 52.376835236442275,71.72652999967977 54.1166394778993,69.74630073359003 55.21778140286915,69.85945721712778 57.22185970633291,70.93444063386414 59.88662316463888,70.623261814937 61.67047308315523,69.40683090085804 63.7185970635619,67.22855250086286 65.0179445350077,65.05025049796677 66.42740619904362,61.28767326025991 66.9339314843528,57.5250255966821 66.47145187598653,53.734016122325556 64.97389885806479,49.518555963688414 63.19004893954843,47.31176975450944 61.20799347467255,46.54787657567067 59.15986949426588,46.68933849448513 57.464110929868184,47.538107916669105 55.19575856439769,50.16927034876426 52.7071778139798,54.97883308729797 51.84828711254522,59.95802386179275 52.464926590560935,64.68248289580515 54.6892332789721,69.51998757546244 57.39804241422098,70.90615167024953 60.1068515497027,70.53839478065493 63.78466557897627,67.08710503544717 65.10603588900995,64.9653811109747 66.60358890693169,60.60870445347973 66.95595432294067,57.60989812486514 66.51549755292945,53.47939352062531 64.68760195747018,48.86783947209187 63.27814029355068,47.31176975450944 60.8996737357229,46.46299937661388 59.137846655678004,46.576168967367266 58.08075040776748,47.08543133747298 55.87846655782778,49.179051969986176 53.08156606846023,53.90376434416976 52.046492658904754,58.119132541600266 52.134584013023414,62.73047436031629 52.86133768351283,66.21012852829881 55.23980424134061,69.97261363689904 55.23980424134061,70.65155081833655 57.17781402927358,71.72652999967977 58.367047308245674,73.59358544267889 57.68433931481559,72.80150343303103 57.86052202282008,71.6699522913259 58.58727569319308,70.93444063386414 59.7104404567508,70.76470679228078 61.230016313144006,69.77458986041893 63.7185970635619,67.17197352662333 65.10603588900995,64.9653811109747 66.60358890693169,60.58041403678362 66.95595432294067,56.25193337346718 65.65660685149487,51.046316839099745 64.31321370298974,48.301997332207975 62.881729200598784,47.02884669339983 60.8996737357229,46.43470696899749 58.63132137025241,46.88738501355692 56.86949429032393,48.18882871299866 55.129690048866905,50.25414598279167 52.64110929844901,55.205162616301095 51.87030995101668,60.09947634350101 52.949429037515074,66.32328700233484 54.711256117443554,69.49169841285038 56.36296900489833,70.67983981777797 58.08075040776748,71.04759644862497 59.952691680169664,70.65155081833655 63.76264274062123,67.14368403352273 65.98694942891598,62.70218424224004 66.82381729199551,59.70340914388362 67.0,56.7328802721313 66.2071778139798,52.77210682386067 64.73164763452951,49.09417588199722 62.61745513859205,46.85909266558883 61.053833605139516,46.40641455732111 58.85154975519981,46.74592323413526 56.935562805854715,48.16053654831194 54.9094616639195,50.73510723217623" stroke="#4DD2FF" stroke-linecap="round" stroke-linejoin="round" stroke-width="0.5"><title>2024-12-10 11.3km</title><desc>1733785667000</desc></polyline><polyline fill="none" points="73.0,70.28122029533552 76.22147651016712,68.44494284635584 77.44966442964505,68.16044751564914 78.51677852356806,69.11738460454217 79.744966443046,69.32428926593275 84.31543624168262,69.99672780703986 86.28859060409013,69.47946760916966 86.77181208063848,67.20350544445682 92.42953020136338,64.92751509555092 92.6912751677446,65.05683348423918 92.97315436252393,69.58291976522014 95.38926174491644,72.27265538388747 96.25503355707042,72.37610596776358 98.10738255036995,71.41918584512314 100.3422818792751,71.00538100585982 104.57046979863662,72.11747939886118 107.40939597319812,70.59157523491012 109.34228187915869,70.20363147858006 113.55033557047136,70.69502676498087 115.40268456377089,68.78116403303284 117.6577181207249,69.7898239026108 120.2751677853521,69.763960898199 122.32885906042065,68.28976362966932 125.4093959730817,64.17746664689912 126.49664429528639,61.0737853544415 126.91946308722254,58.17696885847545 126.31543624168262,53.210891488037305 124.80536912754178,49.744903809027164 123.59731543622911,48.322278003470274 121.42281879205257,47.64976015262073 119.55033557047136,47.7790906996961 118.6241610738216,48.24467991554411 115.52348993287887,51.81415804820426 113.59060402680188,56.314705570519436 113.20805369131267,59.26328039528744 113.6912751677446,64.15160285272577 115.46308724838309,68.1087210446276 116.20805369131267,69.0139321864699 117.73825503361877,69.81568690338463 119.16778523486573,69.99672780703986 120.47651006712113,69.68637186304841 122.79194630880374,67.77249862786266 125.22818791947793,64.46196814293216 126.7181208053371,60.22026381021715 126.97986577183474,56.93546209661872 126.29530201351736,53.15916080919851 124.52348993299529,49.35691604515887 123.0939597315155,48.063617582884035 120.85906040272675,47.62389403223642 119.6510067115305,47.701492382300785 118.66442953026854,48.270545948529616 116.2483221476432,50.77953384110879 114.09395973163191,54.685209713483346 113.16778523486573,59.52192505291896 113.67114093969576,63.81537319684867 115.52348993287887,68.1863107457466 117.35570469789673,69.63464582139568 118.84563758398872,69.99672780703986 120.51677852356806,69.7122348783596 123.27516778523568,67.2552321702824 125.20805369119626,64.61715059154085 125.99328859057277,62.91013645057683 126.69798657717183,60.246128157683415 127.0,56.987191712498316 126.29530201351736,53.08156476360455 124.18120805372018,48.83959775247786 123.11409395968076,48.037751520765596 121.04026845633052,47.62389403223642 118.9664429530967,48.063617582884035 117.11409395979717,49.79663544896175 115.52348993287887,51.96935117690009 116.10738255025353,52.87464181530231" stroke="#4DD2FF" stroke-linecap="round" stroke-linejoin="round" stroke-width="0.5"><title>2024-12-08 8.9km</title><desc>1733614342000</desc></polyline><polyline fill="none" points="133.0,69.3113990114216 133.66087643115316,68.8458616561984 134.79076194239315,68.79109248241002 135.89932885905728,69.85908859175106 139.71535728382878,70.13293280387006 141.99644690100104,70.76277302953531 144.10698776156642,70.05077958070615 144.42676667985506,67.7778599862213 147.17686537699774,66.46338834619382 150.16146861435845,65.6144540264213 150.6731148834806,65.86091921050684 150.97157520719338,69.88647303036123 152.05882352939807,71.96767908560287 153.59376233711373,73.09042574181512 158.98736675875261,71.721221635642 160.7141729175346,71.99506322741217 163.33636004733853,73.09042574181512 166.70469798648264,71.20092154941813 168.90051322535146,70.8175416484737 172.8018160284264,71.44737965830427 174.67785234900657,69.3935525467823 178.30201342271175,70.70800439511368 180.4338728779694,70.160317203874 182.6936439004494,68.24339989633881 185.27319384133443,64.73813084418362 186.72285827086307,60.49338457810518 187.0,56.87843088322552 186.55230951448902,54.03023824779666 185.78484011045657,51.5106484718126 184.03671535721514,48.19679050553532 181.92617449664976,47.07390021071478 179.81563363596797,47.01912490867835 178.21673904464114,47.566877235731226 176.23410975118168,49.429223613697104 173.18555073044263,54.961382734632934 172.354125542799,60.63031332223909 172.88709040661342,64.49166423823044 174.35807343071792,68.07909181993455 175.53059613110963,69.61262847128091 177.21476510062348,70.51631405354419 179.1547572048148,70.5984670802427 181.13738649827428,69.69478187947243 183.39715752075426,67.44924290855124 185.12396367941983,64.84767145787191 186.6589024871355,60.71247052239778 186.95736281084828,56.98797592127812 186.55230951448902,53.81114477981464 185.46506119216792,50.606874623612384 183.93012238456868,48.14201551955193 182.8855112515157,47.40255169958982 180.583103039884,46.90957425819943 178.19542045006528,47.67642751612584 175.53059613110963,50.36039011829416 173.31346229766496,54.63274401279341 172.354125542799,58.93239008456294 172.78049743385054,63.88918899818964 173.88906435051467,67.20277973622433 175.04026845633052,69.11970729408495 176.59652585862204,70.26985476553091 177.91827872081194,70.62585141471936 179.49585471767932,70.62585141471936 181.15870509273373,69.77693525292852 184.80418476113118,65.36798853035725 186.68022108171135,60.411227285308996 186.95736281084828,57.289224457912496 186.6589024871355,54.468424443737604 186.18989340704866,52.3048705093679 184.654954599333,49.10057554807281 183.35452033160254,47.64903995177883 181.96881168568507,47.04651256169018 179.96486379788257,46.96434959115868 178.30201342271175,47.566877235731226 176.6178444531979,49.07318818423664 174.84840110538062,51.538035492631025 173.46269245957956,54.22194482994382 172.63126727205236,57.0975208976015 172.37544413737487,60.411227285308996 172.6525858665118,63.25932652558549 174.57125937612727,68.48986175081518 175.46664034738205,69.55785951329744 177.00157915521413,70.46154534987 178.9628898538649,70.68062007220578 180.28464271617122,70.32462352311995 181.7556257401593,69.33878352708416 183.90880378999282,66.819391958692 186.29648637981154,62.13652314868523 186.93604421627242,56.82365834113443 186.3604421634227,53.34557034126192 185.50769838143606,50.88074593002966 184.5483616264537,49.01841344496643 183.31188314256724,47.64903995177883 181.3292538492242,46.96434959115868 179.34662455576472,47.07390021071478 178.17410185548943,47.64903995177883 175.87169364385772,50.03174362552818 173.39873667585198,54.468424443737604 172.4180813265266,59.20624967338517 173.20686932490207,65.53229889577779 175.57323332026135,69.66739741391211 177.17212791158818,70.51631405354419 178.85629688110203,70.62585141471936 180.28464271617122,70.26985476553091 181.99013028026093,68.98278452338127 184.3138570864685,66.18953897024039 185.99802605609875,62.95808723110531 186.68022108171135,60.46599881765724 187.0,56.796272064209916 186.44571654160973,53.31818357486918 184.18594551901333,48.44327775166312 181.94749309122562,47.101287856014096 180.0927753652213,46.90957425819943 178.45124358474277,47.45732689368015 175.97828661673702,49.86742017096549 175.21081721270457,50.141292518164846" stroke="#4DD2FF" stroke-linecap="round" stroke-linejoin="round" stroke-width="0.5"><title>2024-12-07 13.6km</title><desc>1733525549000</desc></polyline><polyline fill="none" points="13.0,133.37968868212192 13.413427561637945,135.13627895285026 15.162544169579633,137.66901830711868 16.816254416829906,139.34388219451648 18.056537102442235,139.54813322707196 21.459363957401365,138.11837298143655 24.734982331981882,137.54646691164817 31.508833922212943,139.09878076578025 35.19787985866424,137.137961886212 38.60070671362337,136.11669680807972 45.91519434622023,136.89285859517986 48.33215547702275,134.03330490822555 53.96113074198365,135.87159265467199 55.77385158999823,135.70818977081217 57.999999999883585,134.5235161120945 62.03886925789993,130.3566944935592 64.80565371015109,125.74043992714724 66.07773851579987,121.85946114681428 66.93639575957786,115.44551932418835 65.66431095392909,108.99058128747856 63.02473498217296,103.02576410179609 61.02120141335763,101.22812392667402 57.17314487614203,100.45186677292804 53.70671378064435,101.59582395921461 49.47703180194367,106.33502713026246 46.4876325087389,112.05465204964275 45.247349823242985,119.65340797416866 46.32862190809101,128.06900229054736 49.254416960990056,133.50224183656974 51.226148409652524,135.01372648830875 53.9929328620201,135.7898912242381 57.65017667831853,134.80947226542048 62.03886925789993,130.3566944935592 64.3286219079746,126.88429745734902 65.79151943454053,123.12589150460553 67.0,115.44551932418835 65.40989399293903,107.84665324451635 62.99293286213651,103.02576410179609 61.78445229679346,101.75924604627653 59.303886925801635,100.73785649216734 56.25088339217473,100.49272246434703 53.96113074198365,101.43240178006818 52.1166077736998,103.02576410179609 49.44522968202364,106.33502713026246 47.06007067137398,110.58390212032828 45.501766784349456,116.1808829040674 45.247349823242985,119.32658385598916 46.0106007065624,127.25196499197045 49.47703180194367,133.74734799037105 51.28975265007466,135.01372648830875 53.9929328620201,135.8307419422781 56.02826855122112,135.62648829436512 58.63604240270797,134.03330490822555 61.91166077728849,130.56095184912556 64.51943462889176,126.39407335349824 66.5229681978235,120.18449638129096 66.93639575957786,115.3229585463414 66.26855123671703,113.48454066988779 66.45936395751778,111.56440290110186 64.86925795045681,106.45759170301608 62.86572438152507,102.82148736988893 60.92579505301546,101.22812392667402 58.76325088343583,100.49272246434703 55.45583038858604,100.61528950420325 53.738515900913626,101.55496842300636 48.99999999976717,107.23383279560949" stroke="#4DD2FF" stroke-linecap="round" stroke-linejoin="round" stroke-width="0.5"><title>2024-12-05 7.7km</title><desc>1733352101000</desc></polyline><polyline fill="none" points="73.0,130.3506952837488 76.26351351349149,128.42389535302937 77.21621621621307,128.26766745225177 77.96621621621307,129.23107073894062 81.77702702698298,129.59560040428187 83.94594594591763,130.272582163263 86.297297297162,129.59560040428187 86.60135135124438,127.35633540226263 89.94594594580121,125.84611812300864 92.21621621621307,125.35138909255329 92.56081081076991,125.82007978593174 92.47972972958814,128.5540851695696 93.10810810804833,130.09031808715372 94.20270270260517,131.78276331568486 95.31756756745744,132.4597370728443 100.20270270272158,131.18389985067188 104.37837837834377,132.2774751511024 106.9729729729006,130.8974862039031 109.46621621609665,130.32465758058242 113.58108108094893,130.81937331425434 114.6351351350313,129.2571085960226 115.28378378378693,128.91861616862298 116.35810810804833,129.77786496766203 118.77027027017903,130.14239355576865 120.31081081076991,129.90805383156112 121.66891891881824,129.07484351973108 123.33108108094893,127.35633540226263 125.15540540532675,124.72646632124088 126.10810810793191,122.30487064694171 126.97972972970456,117.07099107594695 125.76351351349149,111.73280218699074 123.65540540532675,108.3735702210106 121.36486486485228,107.59234474290861 119.78378378378693,107.7746309828799 118.56756756757386,108.29544782167068 116.19594594591763,110.82138869073242 113.9864864863921,114.80553460369993 113.09459459455684,119.6228513521346 113.62162162153982,124.62231232089107 114.51351351349149,126.86161040970183 115.9121621621307,128.91861616862298 117.77702702698298,129.9601293515443 119.54054054047447,130.06428034738929 121.26351351337507,129.30918429914163 122.9256756757386,127.74690683049266 125.76351351349149,123.39849842441618 126.51351351337507,120.74253403740295 126.93918918911368,117.17514932721679 125.78378378367051,111.99320521843038 124.44594594591763,109.25895510830742 123.61486486473586,108.34752942492196 121.36486486485228,107.5663038368657 120.10810810804833,107.67046743915125 118.9729729729006,108.06108042573032 117.45270270260517,109.31103644026734 114.27027027017903,114.12849625118542 113.09459459455684,119.80512573936721 113.60135135136079,124.54419678205159 114.53378378378693,126.93972497009963 115.93243243242614,128.9706919670134 117.10810810804833,129.72578939644154 119.1351351350313,130.1684312846046 120.49324324319605,129.80390274782258 122.1351351350313,128.58012312192295 125.6621621621307,123.68492367889849 126.85810810804833,118.63335868812283 126.49324324319605,113.97225627952139 124.34459459455684,109.10271102430124 123.53378378378693,108.32148862516624 121.40540540532675,107.5663038368657 120.00675675668754,107.72254921840795 118.3851351350313,108.47773336885439 116.15540540532675,110.84742913863738 114.31081081065349,114.07641627530393 113.19594594591763,118.16464978971635 113.0743243242614,120.84669022183516 113.54054054047447,124.57023529869912 115.68918918911368,128.762388685529 118.06081081076991,130.038242603885 119.92567567550577,129.9601293515443 121.12162162153982,129.3872978263098 122.54054054047447,128.21559145608626 124.42567567562219,125.76800310082035 125.6621621621307,123.71096231639967 126.22972972958814,121.96636550100811 126.93918918911368,116.99287234900112 125.7229729729006,111.78488282259787 124.3851351350313,109.12875171410269 122.8243243242614,107.90483533000224 121.40540540532675,107.5663038368657 119.56081081076991,107.80067185968801 117.59459459455684,109.2068737616355 115.87162162153982,111.2901161924674 113.86486486473586,115.19613252619456 113.25675675668754,117.9042554442567 113.09459459455684,120.89876829195418 113.60135135136079,124.59627381159225 114.5743243242614,126.99180132547917 115.62837837834377,128.73635075880156 116.7229729729006,129.54352478178043 118.79054054047447,130.14239355576865 120.39189189183526,129.82994052421418 121.77027027017903,128.91861616862298 123.91891891881824,126.65330475399969 125.68243243242614,123.65888503768656 126.55405405408237,120.58629965085129 126.93918918911368,117.01891192837502 125.60135135124438,111.55051984693273 124.42567567562219,109.180833082748 123.6351351350313,108.34752942492196 121.75,107.54026292714116 120.00675675668754,107.64442654409504 118.14189189183526,108.55585569128743 116.3986486485228,110.56098400996416 114.18918918911368,114.31077605135215 113.0743243242614,120.03947825913201 113.60135135136079,124.57023529869912 114.59459459455684,127.01783949763922 115.72972972970456,128.81446452786622 117.27027027017903,129.85597829698236 118.75,130.11635582332383 120.65540540544316,129.67371381055273 124.0,126.60122830336331 125.6621621621307,123.71096231639967 126.18918918911368,122.07052099652356 127.0,116.65435748452728 126.00675675668754,112.48796996833698 125.05405405396596,110.30057896272046 123.93918918911368,108.68605948859476 122.76351351337507,107.90483533000224 120.69594594591763,107.5663038368657 118.68918918911368,108.19128457120678 117.12837837822735,109.59748350419977 115.64864864863921,111.86300374849816" stroke="#4DD2FF" stroke-linecap="round" stroke-linejoin="round" stroke-width="0.5"><title>2024-12-03 16.2km</title><desc>1733178751000</desc></polyline><polyline fill="none" points="133.0,141.87453063204885 136.7327188940253,140.0479654787341 139.64779460174032,139.63698690244928 143.20276497700252,140.00230121822096 147.50427913106978,141.5548824723519 151.7346938776318,139.13467904680874 155.96510862419382,138.1300610031467 163.32389730098657,139.18034342949977 166.34562211995944,135.61850228757248 167.51876234379597,135.57283740362618 171.4292297565844,137.53642160640447 174.59315339056775,137.53642160640447 177.11718235677108,136.2578099865059 179.60566161945462,133.92889730556635 181.56089532584883,131.8739604720613 184.97366688610055,125.8917369421979 186.96445029624738,116.07334478400298 184.97366688610055,105.93497228092747 182.59183673467487,101.00267652029288 180.35220539825968,99.03887122817105 177.08163265301846,98.26247981088818 173.5977616852615,98.76485094008967 170.75378538528457,100.9113370027917 166.84331797226332,105.70662691007601 164.24818959855475,110.91286142720492 163.14614878222346,115.38832959337742 162.68400263343938,118.85905832759454 163.0750493744854,125.02407704357756 163.89269256102853,128.81436374227633 166.5944700462278,134.20288790026098 168.58525345637463,136.48613385960925 172.42462146142498,137.71907999797259 174.34430546406657,137.673415409663 177.36603028303944,136.07515077237622 181.52534562232904,131.91962587635498 184.29822251480073,127.49005173484329 186.3601053324528,121.2794129740214 187.0,114.74898077754187 185.43581303511746,107.03102782348287 183.19618169846945,101.96173990145326 181.16984858480282,99.54124115520972 175.97959183668718,98.12546936798026 172.49572086893022,99.31289128473145 166.84331797226332,105.61528871679911 163.89269256102853,112.05456835500081 162.64845292968675,120.64007576534641 163.78604344953783,128.63170033847564 166.02567478595302,133.42658061467228 168.2653061223682,136.34913955497905 170.86043449654244,137.39942774525844 174.2376563528087,137.62775081503787 178.82356813689694,134.84219838812714 184.61816984857433,126.66806225327309 186.43120473995805,120.1377385033993 187.0,114.65764512968599 185.11586570111103,106.11764846174628 182.59183673467487,101.04834626946831 180.10335747199133,98.85619106178638 175.90849242941476,98.12546936798026 173.2778143514879,98.76485094008967 171.2870309415739,100.22628980214358 166.87886767624877,105.61528871679911 164.21263989480212,110.91286142720492 162.50625411467627,120.3204066886683 163.89269256102853,128.63170033847564 166.31007241620682,133.70057163346792 168.47860434511676,136.34913955497905 171.10928242257796,137.39942774525844 174.27320605679415,137.4907569923962 176.8327847267501,136.53179861485842 179.32126398943365,134.38554816824035 184.12047399627045,127.58138377097202 186.46675444371067,120.50307477108436 186.92890059249476,114.84031639978639 185.96905859117396,108.99478474483476 184.36932192230597,104.2908820246812 180.8499012507964,99.26722129140398 175.8373930216767,98.17113952201908 171.89137590513565,99.67825100029586 167.05661619501188,105.38694312109146" stroke="#4DD2FF" stroke-linecap="round" stroke-linejoin="round" stroke-width="0.5"><title>2024-12-01 10.0km</title><desc>1733006314000</desc></polyline><polyline fill="none" points="36.40034678229131,206.6896740612283 40.74892113916576,206.5034783933079 43.696288203587756,204.82771384360967 52.924929338973016,193.03511659495416 56.35547133162618,180.00082647267845 55.679026431869715,169.3869056738331 51.47540455311537,158.21408149131457 48.624672474805266,155.17254144669278 44.952543017687276,153.4965818458004 40.50733367516659,153.3103637190652 36.06212433218025,155.42083121629548 29.39431031816639,163.3039587222156 25.867133339866996,170.56624282168923 24.224338582716882,176.77322846266907 23.596211175667122,182.1732349106751 24.17602108977735,190.6765593084565 27.944785532541573,200.85550577531103 30.457295161206275,204.4553208569123 35.24072695383802,206.81380446293042 38.62295145355165,207.0 42.58498586784117,205.3863027341722 46.88524273200892,201.60029751298134 52.24848443898372,193.96612257807283 55.53407395328395,185.46286160338786 56.45210631727241,174.53872369538294 54.71267657447606,165.2902363401663 52.924929338973016,160.94524243130581 49.73597481055185,156.1656996861857 46.740290253655985,153.99316313213785 40.45901618199423,153.186218257586 38.139776525087655,153.99316313213785 33.74288467527367,157.77957705504377 29.39431031816639,163.3039587222156 26.64021322550252,168.45584780329955 24.562561032595113,174.91114194283728 23.692846161313355,182.9801267478615 24.17602108977735,190.36622188449837 27.84815054689534,200.85550577531103 30.26402518968098,204.2070586910413 33.40466222516261,206.19315210508648 37.75323658203706,206.93793482964975 41.860223474912345,205.94489091739524 48.4797199962195,199.6141834174923 53.214834295911714,192.1661759041599 55.19585150294006,186.64215576369315 56.54874130291864,174.91114194283728 54.71267657447606,165.10402319353307 52.924929338973016,160.75902745005442 49.97756227478385,156.1656996861857 46.83692523906939,153.93109050192288 41.37704854644835,153.186218257586 37.80155407497659,154.17938097048318 35.48231441807002,155.85533797668177 29.249357839580625,163.36603003315395 25.770498354220763,170.62831311044283 24.320973568363115,175.84218618553132 24.079386104131117,188.93866692154552 24.900783482706174,193.65578746871324 27.896468039834872,200.7313736967044 29.780850260984153,203.71053394008777 33.45297971810214,206.19315210508648 37.12510917522013,207.0 41.522001024801284,205.94489091739524 44.42105059628375,204.08292755574803 48.962894924683496,198.99352092837216 53.74632671731524,191.23516612139065 55.679026431869715,185.1525205107173 56.645376288797706,175.9042557317298 54.71267657447606,165.16609425109345 51.18549959594384,157.90372122335248 47.80327509599738,154.42767129928689 41.280413560569286,153.1241455138661 38.86453891801648,153.6827998937515 35.965489346766844,155.5449760486954 31.18205755390227,160.63488408530247 25.528910889988765,171.37315589509672 24.031068611424416,177.7663380584563 23.692846161313355,184.46976933817496 24.80414849705994,193.46958629836445 26.398625761037692,197.75219333020505 29.73253276827745,203.5864026650088 33.45297971810214,206.2552173801232 37.41501413215883,207.0 41.66695350361988,206.00695622735657 45.38740045321174,203.15194292724482 50.170832246076316,197.37979436959722 54.66435908176936,188.87659920967417 56.45210631727241,180.99392880062805 56.50042381021194,174.29044468916254 53.11819931026548,161.13145733391866 50.70232466747984,156.9726391088043 47.51337013905868,154.0552357537381 43.068160796305165,153.0 37.80155407497659,154.3035261525656 33.50129721080884,157.84164914363646 29.297675332520157,163.3039587222156 25.190688439877704,172.2421375538397 23.354623711435124,183.2284008623683 24.562561032595113,193.28338504917338 28.13805550406687,201.60029751298134 30.505612653912976,204.26912424553302 34.32269458961673,206.6276088472805 38.81622142507695,206.81380446293042 42.53666837490164,205.3242373369285 50.122514753369614,197.19359477120452 52.586706888861954,193.5316533637233 55.24416899611242,186.82835981665994 56.597058795858175,175.53183832313516 55.77566141728312,169.57311701221624 53.16651680320501,161.3797437485773 50.460737203247845,156.7243502131023 46.64365526754409,153.86901786315138 41.570318517740816,153.06207276135683 36.73856923216954,154.73803401360055 29.201040346873924,163.42810133541934 30.698882625438273,166.15922998503083" stroke="#4DD2FF" stroke-linecap="round" stroke-linejoin="round" stroke-width="0.5"><title>2024-11-29 13.9km</title><desc>1732833187000</desc></polyline><polyline fill="none" points="73.0,190.21283831376059 76.26106526644435,188.39155680262775 77.35483870981261,188.26146457964205 78.30682670674287,189.25016317873087 84.2820705176564,190.1087655677984 86.30757689429447,189.40627300059714 86.59114778705407,187.3247978721338 89.24456114030909,185.99784524712595 92.03975994000211,185.13922376801202 92.50562640663702,185.45145022177894 92.44486121530645,188.72979615400254 92.93098274571821,190.08274737214379 94.34883720939979,191.7999404311122 95.86796699173283,192.47640604537446 98.09602400602307,191.43568869057344 100.18229557387531,191.09745428909082 102.32933233305812,191.4096706816781 104.17254313582089,192.21622725584893 106.25881470367312,191.14949039115163 109.05401350348257,190.34292916377308 110.89722430612892,190.23885649106523 113.61140285071451,190.7592192688462 114.88747186795808,189.14608989092812 115.85971492878161,188.88590641522023 118.55363840959035,190.08274737214379 120.66016504133586,189.6404374861595 123.75918979744893,186.83044408571732 125.2175543885678,184.5668072334811 126.5341335333651,180.9761540015752 126.97974493633956,177.02115089568542 126.16954238561448,172.77983644574124 124.69092273071874,169.42314437715686 122.82745686417911,167.8618714856566 120.70067516877316,167.523593954611 119.08027006755583,167.9399354434281 117.70292573142797,168.98078506327874 115.49512378091458,171.84309130170732 114.01650412613526,174.70535322497017 113.16579144785646,178.79050484887557 113.63165791437495,184.41069332561165 115.5356339084683,188.4956305151136 116.852213053382,189.56238269065216 118.63465866469778,190.0567291728803 119.8904726181645,189.9526563390682 121.30832708184607,189.2761814914993 123.75918979744893,186.77840676814958 125.2175543885678,184.5668072334811 126.55438859725837,180.92411503636686 126.91897974489257,176.52676955860807 125.48087021755055,170.95838319633913 124.52888222062029,169.21497542015277 122.94898724684026,167.8618714856566 121.45011252816767,167.523593954611 119.76894223550335,167.70574347127695 118.47261815459933,168.40831849750248 116.58889722428285,170.17775488147163 113.99624906224199,174.7834142930369 113.08477119286545,180.1695483939111 113.7126781695988,184.54078825793113 115.61665416357573,188.52164893412555 116.73068267072085,189.5103461418621 117.90547636908013,189.97867455300002 120.57914478622843,189.71849224883772 123.92123030754738,186.6222947275528 125.98724681173917,182.84954699658556 127.0,177.15125102786988 126.33158289571293,173.2221866693435 124.4681170291733,169.136912000773 122.88822205550969,167.8618714856566 121.30832708184607,167.523593954611 119.56639159785118,167.7838074949832 117.96624156029429,168.72057320769818 116.58889722428285,169.99560780037427 114.68492123030592,173.35228947493306 113.59114778693765,176.29258846388257 113.12528132041916,179.15478150197305 113.69242310582194,184.48875029594637 115.29257314337883,188.13137226513936 116.77119279815815,189.5103461418621 118.53338334581349,190.08274737214379 119.8904726181645,190.0046927633084 121.38934733683709,189.25016317873087 123.96174043510109,186.6483134101727 125.2175543885678,184.54078825793113 126.71642910735682,180.37770501663908 126.95948987244628,177.09921098600898 126.69617404346354,175.04361761514156 125.1770442611305,170.09969186870148 123.67816954245791,168.35627599457803 122.28057014255319,167.60165805518045 120.66016504133586,167.523593954611 118.93848462123424,168.0440206690837 116.48762190551497,170.38592275441624 115.85971492878161,171.50482105545234" stroke="#4DD2FF" stroke-linecap="round" stroke-linejoin="round" stroke-width="0.5"><title>2024-11-27 11.3km</title><desc>1732665796000</desc></polyline><polyline fill="none" points="133.0,190.90890898523503 134.04270330478903,190.67709307928453 136.7898254734464,189.02861594810383 137.81247679167427,188.95134321834485 138.81507612322457,189.9043712724815 144.83067211287562,190.67709307928453 146.7356108429376,190.13618815706286 146.95618269580882,188.204371815169 147.49758633493911,187.68921734736068 150.3449684366351,186.34980894561158 152.53063497960102,185.91192330382182 152.9517266987823,186.45284070911293 153.17229855176993,190.6513357383228 153.67359821754508,191.26951092203672 167.26884515408892,191.55284051697527 170.07612328254618,190.90890898523503 173.72558484959882,191.37253991643956 175.08911994064692,189.72406904819945 176.0516152989585,189.38922158912465 178.33754177496303,190.57406369353703 180.7838841441553,190.36800474803022 182.76903082069475,188.74528244606336 185.5161529892357,184.907358167271 186.6992202005349,181.1723881495127 186.9398440400837,178.9313695547753 186.21797252132092,173.65069999241678 185.1151132566156,170.94590779600549 184.15261789830402,169.5548562437907 183.06981062015984,168.807805676086 180.64352023764513,168.4471594830393 178.85889342729934,169.11693041882245 177.73598217603285,170.07006175520655 175.85109543264844,172.49150823151285 174.36724842188414,175.29931562850834 173.38470107677858,179.67837880179286 173.98626067582518,185.5770688709017 175.8711474192096,189.28619147842983 177.75603416271042,190.49679161621316 179.82138878584374,190.67709307928453 181.20497586333659,190.16194557062408 182.90939472720493,188.61649434563878 185.9974006684497,183.72247938110377 186.97994801332243,178.57074330984324 186.15781656152103,173.4446219937672 184.97474935022183,170.79134703456657 183.93204604531638,169.40029430761933 182.2075751950033,168.57596177649975 180.3226884516189,168.47291994901025 178.79873746749945,169.16845115848992 177.01411065727007,170.8171071705292 174.40735239512287,175.11899901661673 173.38470107677858,180.4253850000241 173.54511696984991,183.7997543183592 174.18678054213524,186.01495531383262 175.9914593390422,189.44073662270966 178.0568139621755,190.5998210454418 179.92164871888235,190.6255783936649 180.88414407719392,190.36800474803022 182.78908280737232,188.69376721674053 185.8169327887008,184.08309547581302 186.61901225405745,181.40421609322948 187.0,177.8494886883127 185.95729669509456,172.9551858169143 184.97474935022183,170.7655868949223 183.6312662458513,169.16845115848992 182.06721128849313,168.49868041134323 180.3627924247412,168.4471594830393 178.85889342729934,169.06540966463217 177.11437059030868,170.66254630034382 175.71073152613826,172.59454779648513 174.24693650205154,175.5311510113388 173.50501299661119,178.3131526998477 173.3245451169787,181.0693534135644 174.16672855545767,186.09222928318195 175.8109914594097,189.23467640134913 176.61307092464995,189.93012871862447 178.37764574831817,190.6513357383228 180.58336427772883,190.47103424975649 183.77163015224505,187.50891294107714 186.09766060160473,183.3103458314872 187.0,178.18435725892778 185.95729669509456,172.90366614326194 183.87189008540008,169.29725294426316 182.30783512815833,168.57596177649975 180.68362421088386,168.4471594830393" stroke="#4DD2FF" stroke-linecap="round" stroke-linejoin="round" stroke-width="0.5"><title>2024-11-24 10.4km</title><desc>1732400098000</desc></polyline><polyline fill="none" points="13.0,250.37939249613555 16.235955056152306,248.4309440876823 17.247191011323594,248.3530057236203 18.42022471909877,249.26228459041158 24.366292134858668,250.14557977285585 26.368539325892925,249.57403631386114 26.651685393298976,247.3917631949298 28.43146067415364,246.5863939798728 32.57752808998339,246.71629247791134 33.06292134837713,250.11960056315002 34.23595505626872,251.7043256683828 35.34831460681744,252.40575702798378 36.29887640452944,252.45771480037365 38.88764044945128,251.31464042831794 40.80898876406718,251.13278703477408 44.51011235965416,252.2239047090843 46.73483146063518,250.95093346212525 49.101123595493846,250.30145495463512 53.67191011237446,250.74310058829724 55.26966292131692,248.87259419588372 56.30112359544728,249.72991197819647 58.52584269666113,250.0416629119718 59.901123595424,249.96372522784804 61.29662921349518,249.36620189010864 63.82471910107415,246.79423153297103 65.15955056180246,244.68986549864348 66.65617977525108,240.42910032428335 66.95955056173261,237.05159464344615 66.47415730333887,233.67402716672223 64.39101123600267,229.04925761160848 62.85393258440308,227.90603828748863 60.64943820226472,227.54228519962635 59.314606741652824,227.93202062351338 58.06067415734287,228.84140007928363 54.784269663039595,233.3102854448225 53.368539325892925,237.67513880477054 53.16629213478882,239.80556546493608 53.51011235953774,243.65066354775627 54.521348314592615,246.50845483705052 55.755056179710664,248.66475898242788 56.68539325846359,249.54805702371232 58.68764044949785,250.06764213264978 60.487640449311584,249.8078497609822 61.96404494380113,248.82063541446405 63.84494382014964,246.76825185165217 65.24044943822082,244.61192555526213 66.21123595512472,242.27371195233718 66.91910112358164,238.40260433105868 66.45393258426338,233.59608257231594 65.54382022470236,231.1278200615343 63.92584269668441,228.52961334203428 62.752808988676406,227.880055947855 60.62921348318923,227.56826758680108 59.23370786511805,227.880055947855 58.08089887641836,228.73747122536588 56.09887640445959,231.0498743920616 54.66292134835385,233.4142117241572 53.95505617978051,235.15496820650878 53.18651685398072,239.15604774691747 53.57078651688062,243.67664366784447 54.5415730336681,246.5863939798728 55.79550561797805,248.71671780772158 56.948314606794156,249.60001560034289 58.93033707863651,250.09362134973344 60.770786516950466,249.6519741624361 61.8629213484237,248.87259419588372 63.92584269668441,246.6903127856349 65.26067415729631,244.53398557890614 66.77752808993682,239.8835074375529 66.95955056173261,236.99963253492024 66.45393258426338,233.62206410746148 65.52359550562687,231.07585628550441 64.16853932582308,228.73747122536588 62.793258426943794,227.85407360462705 61.09438202250749,227.56826758680108 59.25393258430995,228.0619322486018 57.575280898832716,229.25711490980757 55.71460674155969,231.5695115669805 54.096629213541746,234.84319213285926 53.28764044935815,238.2207382182387 53.206741573056206,241.02665258826164 53.63146067422349,244.17026525443362 54.56179775274359,246.6903127856349 55.77528089878615,248.71671780772158 57.67640449432656,249.911766753532 59.77977528097108,249.96372522784804 61.53932584263384,249.13238788361195 63.98651685391087,246.61237368677394 65.44269662932493,244.1962453013839 66.21123595512472,242.32567257643677 66.83820224716328,239.28595147334272 67.0,237.07757569217938 66.47415730333887,233.57010103359062 65.01797752815764,229.95863156336418 64.16853932582308,228.7894356596371 62.32808988774195,227.72416183311725 60.02247191010974,227.67219709903293" stroke="#4DD2FF" stroke-linecap="round" stroke-linejoin="round" stroke-width="0.5"><title>2024-11-21 10.8km</title><desc>1732142576000</desc></polyline><polyline fill="none" points="73.0,249.92488610136206 75.93544733861927,248.0395464571193 76.89354473387357,247.93480480567086 78.07587768964004,248.92984811379574 81.5617214043159,249.13933023753634 83.76330690830946,249.7154048618977 85.82219705544412,249.29644167562947 86.27066817670129,246.9135706146626 91.9580973952543,244.81871370851877 92.30464326171204,245.26387277428876 92.65118912793696,249.32262690237258 95.11778029438574,252.62193599613965 96.01472253690008,252.98852228464966 96.13703284261283,252.04587036944577 99.52095130237285,250.81517873806297 101.43714609299786,250.867548760536 104.41336353332736,251.78402176778764 106.9207248018356,250.39621802784677 108.57191392988898,249.95107123967318 110.61041902611032,249.84633066422248 113.54586636461318,250.3700329521089 115.13590033969376,248.58943915979762 118.23442808608525,249.63684933636978 120.55832389579155,249.3488121255068 123.75877689698245,246.46841549534292 125.2468856171472,244.05932225596916 126.51075877691619,240.6813020332629 127.0,236.51761133401305 126.49037372600287,233.08707917880383 124.32955832383595,228.39945587920374 122.7599093997851,227.2733611802978 120.78255945642013,227.03766607839498 118.17327293322887,228.11138579102408 115.56398641003761,231.09681779124367 113.50509626278654,235.8629345084919 113.03624009061605,239.97426678374177 113.28086070227437,243.03806679560512 115.19705549266655,247.69913587442716 117.33748584380373,249.4011825606285 120.1913929785369,249.58447896753205 121.92412231035996,248.45851247324026 124.28878822200932,245.65665930096293 125.75651189126074,243.0118806844257 126.73499433754478,239.7385877701745 127.0,236.56998538048356 126.55152887885924,233.4537039544084 124.41109852772206,228.50420852797106 122.0464326160727,227.09004279352666 120.10985277465079,227.1424194939027 118.25481313699856,228.08519757911563 116.46092865231913,229.97073941791314 114.60588901478332,232.79901634827547 113.68856172147207,235.23444258882955 113.0770101925591,238.40306772163603 113.38278595695738,243.29992770437093 114.62627406569663,246.62552918848814 115.97168742923532,248.61562448607583 117.92865232157055,249.61066415377718 120.15062287659384,249.58447896753205 122.00566251412965,248.35377105760563 123.90147225372493,246.25893036487105 125.7157417894341,243.11662510692258 126.55152887885924,240.4979968561529 127.0,236.59617239826184 126.71460928651504,234.47501202020794 125.91959229903296,231.33250775106717 124.41109852772206,228.5303966809879 122.20951302384492,227.1162311455264 121.04756511899177,227.01147771535034 119.29445073613897,227.32573782910185 118.31596828997135,227.98044469444721 116.46092865231913,229.91836351373058 114.40203850506805,233.40132903077756 113.46432616084348,236.15099259545968 113.0770101925591,238.82205543543387 113.34201585513074,242.9856945696083 115.17667044163682,247.67295041921898 116.37938844843302,248.92984811379574 117.92865232157055,249.61066415377718 119.84484711207915,249.63684933636978 121.02718006796204,249.19170073172427 124.30917327292264,245.70903077519324 126.3476783692604,241.44070727171493 127.0,236.4914243051462 125.77689694229048,231.01825440497487 124.37032842589542,228.50420852797106 123.26953567378223,227.61380913366156 122.06681766710244,227.1162311455264 119.76330690830946,227.16860783858283 118.47904869762715,227.79712700436357 117.13363533408847,229.15891124645714 115.6455266138073,230.99206660220807 113.97395243495703,234.37026273299125 113.03624009061605,239.5552816643758 113.74971687432844,244.45211132527038 115.68629671575036,248.37995641707676 117.78595696494449,249.66303451520798 119.82446206116583,249.7154048618977 120.94563986419234,249.2702564451174 124.16647791618016,245.94470222685777 125.77689694229048,243.11662510692258 126.57191392977256,240.6551155904017 126.97961494908668,236.38667615309532 126.46998867497314,233.21801668162516 125.3080407702364,230.10167911380995 124.28878822200932,228.39945587920374 122.86183465470094,227.43049108234118 121.35334088339005,227.03766607839498 119.57984144962393,227.2733611802978 118.23442808608525,228.08519757911563 116.42015855049249,229.94455146769178 113.89241223107092,234.44882470394077 113.28086070227437,236.8056684074254 113.01585503958631,240.5241833210457 114.23895809741225,245.8137736794015 115.13590033969376,247.6205794977286 116.42015855049249,248.9560333921836 117.60249150625896,249.5582937776344 119.86523216310889,249.61066415377718 120.98640996601898,249.19170073172427 122.57644394109957,247.8300630952872 124.08493771241046,246.02325931112864 125.96036240097601,242.69764706323622 126.97961494908668,237.5650894635619 126.28652321640402,232.51095307186188 124.30917327292264,228.42564404690347 121.98527746321633,227.09004279352666 120.1913929785369,227.1162311455264 118.84597961499821,227.63999741195585 116.54246885620523,229.81361166115676 115.46206115512177,231.48963422510133" stroke="#4DD2FF" stroke-linecap="round" stroke-linejoin="round" stroke-width="0.5"><title>2024-11-17 16.3km</title><desc>1731797391000</desc></polyline></svg>