<?xml version="1.0" encoding="utf-8" ?>
<svg baseProfile="full" height="300mm" version="1.1" viewBox="0,0,200,300" width="200mm" xmlns="http://www.w3.org/2000/svg" xmlns:ev="http://www.w3.org/2001/xml-events" xmlns:xlink="http://www.w3.org/1999/xlink"><defs /><rect fill="#222222" height="300" width="200" x="0" y="0" /><text fill="#FFFFFF" style="font-size:12px; font-family:Arial; font-weight:bold;" x="10" y="20">Over 5km Runs</text><text fill="#FFFFFF" style="font-size:4px; font-family:Arial" x="10" y="280">ATHLETE</text><text fill="#FFFFFF" style="font-size:9px; font-family:Arial" x="10" y="290">sagasw</text><text fill="#FFFFFF" style="font-size:4px; font-family:Arial" x="65" y="280">SPECIAL TRACKS</text><rect fill="yellow" height="2.6" width="2.6" x="65" y="283" /><text fill="#FFFFFF" style="font-size:3px; font-family:Arial" x="70" y="285.5">Over 20.0 km</text><rect fill="red" height="2.6" width="2.6" x="65" y="287" /><text fill="#FFFFFF" style="font-size:3px; font-family:Arial" x="70" y="289.5">Over 40.0 km</text><text fill="#FFFFFF" style="font-size:4px; font-family:Arial" x="120" y="280">STATISTICS</text><text fill="#FFFFFF" style="font-size:3px; font-family:Arial" x="120" y="285">Number: 14</text><text fill="#FFFFFF" style="font-size:3px; font-family:Arial" x="120" y="290">Weekly: 2.3</text><text fill="#FFFFFF" style="font-size:3px; font-family:Arial" x="141" y="285">Total: 171.0 km</text><text fill="#FFFFFF" style="font-size:3px; font-family:Arial" x="141" y="290">Avg: 12.2 km</text><text fill="#FFFFFF" style="font-size:3px; font-family:Arial" x="167" y="285">Min: 7.7 km</text><text fill="#FFFFFF" style="font-size:3px; font-family:Arial" x="167" y="290">Max: 16.3 km</text><polyline fill="none" points="12.400000000023283,62.124688478710596 18.063523573218845,62.88201981676684 19.617866004933603,62.40008209948428 19.79652605461888,60.63296495153918 20.225310173700564,60.28871912304021 22.619354838854633,59.18712758865149 24.924069478875026,58.54452909070824 25.174193548387848,58.61337905086111 25.460049627814442,62.53777873542276 27.568238213425502,64.92450195438869 28.568734491360374,64.94745104652247 29.908684863592498,64.12128169344214 32.249131513759494,63.73114471080771 35.554342431831174,64.7868073334248 37.591066997498274,63.59344908234198 39.466997518669814,63.08856411681336 43.826302729547024,63.478702636566595 45.184119106736034,61.94109247322194 48.18560794054065,62.95086794583767 49.82928039703984,62.62957642818219 51.75880893296562,61.13785751903197 54.17071960307658,57.787177610371145 55.189081885968335,54.91839010962576 55.564267990062945,51.45282750460319 54.9568238214124,47.872433822733 53.43821339961141,44.613289174900274 52.31265508686192,43.534543851492344 50.400992555893026,43.052548953462974 48.14987593051046,43.69520850086701 45.70223325060215,46.44943501625676 44.201488833874464,49.24951761888224 43.36178660055157,53.56430487781472 43.611910669947974,57.09867321258935 45.5057071960764,61.50505113179679 46.3454094293993,62.26238534723234 47.596029776730575,62.813171658621286 49.99007444176823,62.56072816350206 51.77667493803892,61.0919582593051 53.259553349926136,59.27892716732458 54.86749379662797,56.02001047854719 55.564267990062945,51.36102352038142 55.01042183628306,47.872433822733 53.8669975186931,45.324798142013606 52.81290322588757,43.85587299197505 51.25856079405639,43.1673097727471 50.061538461595774,43.075501123807044 48.63225806457922,43.39683116892411 47.077915632748045,44.68214501706825 45.68436724576168,46.38057992029644 44.25508684862871,49.15771239424066 43.379652605508454,52.92168422351824 43.558312655077316,56.29541440801404 44.09429280401673,58.65927900810493 45.21985111676622,61.00015970108507 46.16674937971402,62.124688478710596 47.39950372220483,62.721374069253216 49.15037220856175,62.813171658621286 51.5265508685261,61.3444040279428 53.22382133989595,59.27892716732458 54.47444168746006,57.07572301590699 55.34987593058031,53.97741681833577 55.582133995136246,51.315121508872835 54.93895781645551,47.80357932767947 53.759801488835365,45.09527945955051 52.79503722093068,43.83292093152704 51.18709677422885,43.1673097727471 49.50769230769947,43.12140545467264 48.23920595541131,43.62635224197584 46.64913151378278,45.18708697130205 44.219354838714935,49.24951761888224 43.540446650236845,51.82004292462079 43.36178660055157,54.20692299975781 44.09429280401673,58.63632903111284 45.32704714639112,61.183756765851285 46.005955335102044,61.94109247322194 47.02431761787739,62.60662700980902 48.953846153919585,62.859070433929446 50.13300248142332,62.445980991004035 51.276426799129695,61.57389984212932 53.22382133989595,59.25597727749846 54.56377171212807,56.8462208717101 55.38560794049408,53.8856142553268 55.60000000009313,51.38397452124627 54.974689826369286,47.82653082924662 53.706203473964706,44.98051999720337 52.77717121585738,43.78701680091035 50.972704714746214,43.052548953462974 49.43622828787193,43.075501123807044 48.257071960368194,43.603400149178924 46.684863523580134,45.09527945955051 44.14789081888739,49.31837150339561 43.34392059559468,54.22987360015395 43.87990074441768,57.92487814107153 45.55930521094706,61.59684940578882 46.95285359816626,62.56072816350206 48.257071960368194,62.90496919635916 49.704218362341635,62.65252584326663 50.758312655147165,62.03289050178137 53.11662531027105,59.43957630574005 54.206451612873934,57.626526844192995 54.90322580654174,55.92820906534325 55.45707196032163,53.15119189074903 55.564267990062945,51.42987651337171 55.189081885968335,48.74458824387693 54.295781637658365,46.08220750193868 53.38461538462434,44.54443330359936 52.66997518611606,43.64930433148402 51.151364764315076,43.098453290906036 49.77568238216918,43.052548953462974 48.38213399518281,43.51159174578788 46.0595533499727,45.85268988562166 45.46997518616263,46.931419873653795" stroke="#4DD2FF" stroke-linecap="round" stroke-linejoin="round" stroke-width="0.5"><title>2024-12-22 13.5km</title><desc>1734819430000</desc></polyline><polyline fill="none" points="78.40000000002328,61.364523512122105 78.86146261310205,62.002886543486966 84.11503697629087,62.82363531659939 85.92539030406624,62.299268524497165 86.22711585881189,60.2929799122503 91.07247329503298,58.560256117008976 91.3564502876252,58.76544806000311 91.6226787181804,62.07128243337502 92.65209531632718,64.0091539821733 93.75250616285484,64.85269082756713 94.46244864433538,64.921085514492 96.11306491377763,64.12314570431772 98.11865242407657,63.735573521538754 101.84585045196582,64.64750659368292 103.99342645856086,63.46199259896821 105.91027115867473,62.9604263745714 107.75612161064055,62.98322487297992 109.72621199686546,63.46199259896821 111.21709120797459,61.77490003532148 114.3763352506794,62.82363531659939 115.95595727209002,62.43606002515298 117.58882497961167,61.22773110677372 120.33985209534876,57.260701109218644 121.20953163527884,54.77555811982893 121.60000000009313,51.4695748721424 120.80131470842753,47.52510659262771 119.4701725555351,44.62939533453027 118.4230073953513,43.58054226652894 116.8256368120201,43.101715781973326 114.83779786375817,43.375331089337124 113.66639276919886,44.12777080145315 112.01577649975661,46.020255233714124 110.7023829089012,48.30032759466849 109.74396055878606,50.94517133005138 109.42448644223623,53.70397093964857 110.02793755149469,58.37786306053749 111.90928512753453,61.72930269521021 112.99194741167594,62.50445573221077 114.55382087116595,62.800836795708165 116.22218570276164,62.299268524497165 117.30484798690304,61.478517095092684 120.0026294166455,57.99027713383839 120.81906327046454,56.097932529388345 121.44026294176001,53.1795746301068 121.52900575194508,51.401174506449024 121.10304026305676,48.64233568093914 119.41692686942406,44.62939533453027 118.33426458516624,43.603343492373824 117.1096138044959,43.238523493433604 115.51224322116468,43.170119652102585 114.00361544790212,43.87695795245236 112.08677074790467,45.974653459124966 110.77337715704925,48.14072357396071 109.70846343471203,50.990771705444786 109.42448644223623,53.43037307693157 109.54872637649532,56.097932529388345 110.22317173390184,58.9250416138384 111.00410846353043,60.47537081272458 111.71405094512738,61.59251059778035 112.95645028771833,62.50445573221077 114.41183237475343,62.82363531659939 115.938208710053,62.45885859739792 118.70698438794352,59.905398567032535 120.71257189824246,56.32592702632246 121.35152013157494,53.840769697751966 121.51125718990806,51.24157354072668 121.10304026305676,48.687936704576714 120.2688578472007,46.24826391390525 119.39917830750346,44.62939533453027 118.21002465090714,43.489337330975104 116.50616269523744,43.101715781973326 114.71355792938266,43.420933595567476 112.01577649975661,46.020255233714124 109.99244042730425,50.1699629843788 109.38898931804579,54.1143668674049 110.20542317186482,58.947840680149966 111.39457682834473,61.1593348608003 112.56598192290403,62.299268524497165 114.41183237475343,62.82363531659939 115.65423171746079,62.57285141036846 117.03861955634784,61.72930269521021 118.77797863609158,59.85980070072401 120.74806902231649,56.18913036661979 121.35152013157494,53.795170124518336 121.49350862787105,51.2871738326794 121.13853738701437,48.93874210494687 120.28660640923772,46.29386561145657 119.4524239936145,44.62939533453027 118.36976170924027,43.557741037453525 116.93212818412576,43.12451707526634 115.33475760079455,43.238523493433604 114.05686113401316,43.831355574540794 113.02744453586638,44.811803870557924 110.64913722279016,48.32312815618934 109.74396055878606,50.89957094179408 109.40673788019922,53.521572415789706 110.08118323760573,58.46905961445009 111.92703368945513,61.820497362612514 112.99194741167594,62.52725429479324 114.71355792938266,62.800836795708165 115.61873459327035,62.61844851315254 117.07411668042187,61.6609066608944 118.68923582590651,59.97379534236097 119.98488085460849,57.99027713383839 121.33377156953793,53.88636925810715 121.52900575194508,51.2871738326794 121.19178307324182,49.25794841670722 120.7835661462741,47.52510659262771 119.41692686942406,44.62939533453027 118.33426458516624,43.557741037453525 116.8256368120201,43.12451707526634 115.42350041097961,43.19292093577678 114.09235825808719,43.78575318372168 111.57206244871486,46.79548343713395 110.66688578471076,48.32312815618934 109.74396055878606,51.036372067959746 109.40673788019922,53.36197353899479 109.58422350056935,56.18913036661979 110.79112571908627,60.13338770590781 111.80279375519603,61.683705342235044 112.99194741167594,62.52725429479324 114.41183237475343,62.82363531659939 115.97370583401062,62.48165716645599 118.72473294998053,59.905398567032535 120.67707477416843,56.39432531280909 121.24502875935286,54.4107632797386 121.52900575194508,51.33277411176823 120.9078060806496,48.04952120583039 119.38142974535003,44.560992080601864 118.29876746109221,43.53493980516214 116.8611339359777,43.078914485522546 115.44124897301663,43.170119652102585 114.07460969605017,43.78575318372168 111.5010682005668,46.95508878320106" stroke="#4DD2FF" stroke-linecap="round" stroke-linejoin="round" stroke-width="0.5"><title>2024-12-20 16.0km</title><desc>1734644952000</desc></polyline><polyline fill="none" points="144.40000000002328,61.91816973206005 149.72651546390262,62.90214726132399 151.65047422691714,62.46736722673813 152.0780206186464,60.476517483824864 154.32263917534146,59.26368902703689 157.06606185575947,58.48564336755953 157.6361237113597,62.8106147191138 158.99002061854117,64.50395841134014 159.6669690721901,64.89296730955539 160.45080412377138,64.91585015688906 161.8403298968915,64.13783153949771 164.08494845370296,63.77170384336205 167.63002061855514,64.73278728761943 170.65847422694787,63.24539383598312 172.048000000068,63.06232908635866 175.91373195883352,63.47422448328871 177.46358762891032,61.75798678009596 179.743835051544,62.83349785946484 181.84593814436812,62.71908212530252 184.4646597938845,60.31633311173937 186.70927835057955,56.60916499065934 187.56437113403808,51.528834370867116 186.63802061858587,47.04336549207801 185.60478350520134,44.82347032536927 184.69624742271844,43.81649757716514 183.1998350515496,43.15280758327572 181.8103092784295,43.12992167318589 179.77946391759906,43.97669820424926 177.96239175263327,45.990635480120545 176.64412371139042,48.34782583398919 175.3436701031169,52.85614327354415 175.6108865980059,57.066844640197814 177.42795876285527,61.254553617953206 178.49682474229485,62.330068026916706 179.4409896908328,62.74196527857566 181.8103092784295,62.65043264612905 183.69863917527255,61.14013677294133 185.08816494839266,59.46964166671387 186.90523711347487,55.899758988118265 187.60000000009313,51.32287167359027 187.2080824743025,48.87418406130746 186.24610309279524,46.036406491926755 184.58936082478613,43.70206846111978 182.98606185580138,43.12992167318589 181.11554639181122,43.22146529452584 179.7260206185747,43.97669820424926 178.10490721650422,45.876207894209074 176.2700206185691,49.19457519149 175.59307216492016,51.84922027043649 175.39711340214126,54.45805338259379 176.0740618557902,58.508527116602636 177.39232989691664,61.20878688963421 178.49682474229485,62.28430160121934 179.9041649485007,62.83349785946484 181.77468041249085,62.69619896884251 184.42903092782944,60.31633311173937 186.63802061858587,56.60916499065934 187.36841237114277,54.02325077053683 187.58218556712382,51.25421738321893 186.72709278354887,47.089136207519914 184.82094845362008,43.86226920101035 183.18202061858028,43.15280758327572 181.5609072165098,43.084149843096384 179.95760824740864,43.77072594036872 178.88874226808548,44.82347032536927 176.30564948450774,49.05726478439465 175.36148453620262,53.61133143403276 176.03843298985157,58.27968948170019 176.94696907221805,60.476517483824864 178.19397938146722,62.07835252629593 179.69039175263606,62.74196527857566 181.43620618560817,62.74196527857566 183.80552577332128,61.07148662720283 186.49550515471492,57.066844640197814 187.35059793817345,54.02325077053683 187.56437113403808,51.528834370867116 187.17245360824745,48.78264362238406 186.24610309279524,45.96774996936438 184.8387628867058,43.86226920101035 183.14639175264165,43.15280758327572 181.57872164947912,43.107035759763676 180.02886597940233,43.74784011718293 179.15595876285806,44.68615622690413" stroke="#4DD2FF" stroke-linecap="round" stroke-linejoin="round" stroke-width="0.5"><title>2024-12-15 10.9km</title><desc>1734216782000</desc></polyline><polyline fill="none" points="12.400000000023283,109.27651977393543 13.40424143569544,110.2270347704034 16.540293637895957,110.45334703680419 18.302120717824437,110.90597061434528 20.09918433940038,110.43071582452103 20.398694942938164,108.4391566702252 22.600978792877868,107.3528412822343 25.296574225183576,106.5833634427836 25.578466558014043,106.69652217952535 25.61370309954509,109.23125701484969 26.107014681911096,111.10965080863389 27.868841761839576,112.80697572987992 28.820228385040537,112.82960660787649 30.511582381790504,112.03752398515644 32.520065252901986,111.74332087456423 35.90277324640192,112.71645218624326 38.17553017952014,111.4717482948181 40.39543230016716,110.99649517693615 43.901468189200386,111.38122399973508 45.29331158241257,109.79704058686912 46.17422512243502,109.8875657736935 47.77748776518274,110.74755250709131 49.90929853182752,110.49860945195542 51.33637846657075,109.52546472068934 52.97487765096594,107.78284200068447 54.01435562816914,106.04020039836178 55.141924959258176,103.0301386081992 55.547145187621936,100.02002047734277 55.17716150090564,96.98721289786045 53.97911908652168,93.61484477095655 52.552039151778445,91.84941580360464 50.966394779854454,91.23830126054236 49.32789559545927,91.35147079557646 47.97128874401096,92.03048633332946 46.156606851611286,94.1354162790085 44.165742251323536,97.98306646983838 43.47862969012931,101.96641908944002 43.971941272495314,105.74598631664412 45.75138662324753,109.61599006036704 47.91843393153977,110.72492133620835 50.085481239832006,110.43071582452103 53.02773246332072,107.66968402835482 54.084828711347654,105.97230488878267 55.2828711256152,102.48696356278379 55.56476345844567,100.08791849989211 55.21239804243669,96.7835148164886 53.75008156604599,93.09427157767641 52.62251223495696,91.84941580360464 50.71973898867145,91.17039950129401 49.310277324635535,91.26093517389381 48.46460032637697,91.66834506997839 46.70277324633207,93.34324157598894 44.46525285486132,97.12301147532708 43.63719412719365,100.4953060332773 43.70766721048858,104.1843794882443 44.28907014685683,106.96810282264778 46.191843393142335,109.97809090952796 46.191843393142335,110.52124065466342 47.74225122353528,111.38122399973508 48.69363784661982,112.87486835413438 48.14747145201545,112.24120274643064 48.28841761837248,111.33596183305781 48.86982055462431,110.74755250709131 49.76835236547049,110.61176543383044 50.98401305056177,109.81967188832641 52.97487765096594,107.73757882129576 54.084828711347654,105.97230488878267 55.2828711256152,102.46433122942108 55.56476345844567,99.00154669876792 54.52528548124246,94.83705347127398 53.45057096250821,92.64159786576056 52.30538336059544,91.6230773547286 50.71973898867145,91.14776557519508 48.905057096271776,91.50990801084845 47.495595432352275,92.5510629703931 46.10375203914009,94.20331678623916 44.11288743885234,98.16413009303506 43.49624796083663,102.07958107479499 44.35954323003534,107.05862960187369 45.76900489395484,109.59335873027158 47.090375203988515,110.5438718542282 48.46460032637697,110.83807715889998 49.96215334429871,110.52124065466342 53.0101141926134,107.7149472268211 54.7895595432492,104.16174739379494 55.45905383361969,101.76272731510107 55.60000000009313,99.3863042176963 54.96574225125369,96.21768545909435 53.785318107693456,93.27534070558613 52.09396411094349,91.48727413246525 50.843066884204745,91.12513164585107 49.081239804276265,91.39673858731112 47.54845024482347,92.52842923864955 45.927569331252016,94.58808578574099" stroke="#4DD2FF" stroke-linecap="round" stroke-linejoin="round" stroke-width="0.5"><title>2024-12-10 11.3km</title><desc>1733785667000</desc></polyline><polyline fill="none" points="78.40000000002328,110.22497623624804 80.97718120814534,108.75595427706139 81.95973154372768,108.52835801249603 82.81342281884281,109.29390768361918 83.79597315448336,109.45943141273165 87.45234899339266,109.99738224562316 89.03087248333031,109.58357408731536 89.41744966449915,107.76280435554509 93.94362416118383,105.94201207642618 94.1530201342539,106.04546678737097 94.37852349004243,109.66633581215865 96.311409396003,111.81812430710124 97.00402684567962,111.90088477420795 98.48590604035417,111.13534867607814 100.27382550342008,110.80430480468203 103.6563758389675,111.69398351907148 105.92751677858178,110.47326018790773 107.47382550337352,110.1629051828495 110.8402684564353,110.55602141196141 112.32214765105164,109.0249312264059 114.1261744966614,109.83185912207409 116.22013422829332,109.81116871854465 117.86308724840637,108.63181090372382 120.32751677854685,105.34197331749601 121.19731543626403,102.85902828353574 121.53557046985952,100.54157508676872 121.05234899331117,96.56871319041238 119.84429530211492,93.79592304720427 118.87785234907642,92.65782240276167 117.13825503364205,92.11980812207912 115.64026845636545,92.22327255974233 114.89932885911549,92.595743932412 112.41879194637295,95.45132643854595 110.872483221523,99.05176445639518 110.56644295307342,101.41062431622413 110.95302013424225,105.32128228216607 112.3704697987996,108.48697683568753 112.9664429530385,109.2111457491701 114.19060402689502,109.85254952269315 115.33422818797408,109.99738224562316 116.38120805373183,109.74909749042126 118.23355704703135,108.21799890228431 120.1825503356522,105.56957451433118 121.37449664436281,102.17621104816499 121.58389261749107,99.5483696772717 121.03624161082553,96.52732864735299 119.61879194638459,93.48553283611545 118.47516778524732,92.45089406629268 116.68724832223961,92.0991152257775 115.72080536925932,92.1611939058348 114.9315436242614,92.61643675880623 112.9986577181844,94.62362707286957 111.2751677853521,97.74816777078377 110.53422818798572,101.61754004232353 110.93691275175661,105.05229855746438 112.41879194637295,108.54904859658564 113.88456375838723,109.70771665709617 115.07651006721426,109.99738224562316 116.41342281881953,109.7697879026673 118.6201342282584,107.80418573621137 120.16644295305014,105.69372047322395 120.79463087249314,104.328109160444 121.35838926181896,102.19690252612054 121.60000000003492,99.58975336997537 121.03624161082553,96.46525181086326 119.34496644302271,93.071678201959 118.49127516779117,92.43020121660084 116.83221476507606,92.0991152257775 115.17315436253557,92.45089406629268 113.69127516786102,93.83730835915776 112.41879194637295,95.57548094149388 112.88590604026103,96.29971345223021" stroke="#4DD2FF" stroke-linecap="round" stroke-linejoin="round" stroke-width="0.5"><title>2024-12-08 8.9km</title><desc>1733614342000</desc></polyline><polyline fill="none" points="144.40000000002328,109.44911920913728 144.92870114493417,109.0766893249529 145.8326095539378,109.03287398592511 146.7194630872691,109.88727087341249 149.7722858270863,110.10634624310478 151.5971575207659,110.61021842363698 153.2855902092415,110.04062366456492 153.54141334391898,108.22228798898868 155.74149230163312,107.17071067696088 158.12917489145184,106.49156322113413 158.53849190683104,106.6887353684142 158.7772601658362,109.90917842427734 159.64705882349517,111.57414326848811 160.8750098697492,112.47234059344919 165.18989340704866,111.37697730850778 166.5713383340626,111.59605058193847 168.6690880379174,112.47234059344919 171.36375838925596,110.96073723954032 173.12041058036266,110.6540333187877 176.24145282275276,111.15790372664924 177.74228187918197,109.51484203743166 180.64161073823925,110.56640351608803 182.34709830238717,110.12825376310502 184.15491512039443,108.59471991707687 186.2185550730792,105.79050467534398 187.3782866167021,102.39470766248996 187.60000000003492,99.50274470658042 187.2418476116145,97.22419059823733 186.62787208840018,95.20851877745008 185.22937228583032,92.55743240442825 183.54093959735474,91.659120168566 181.85250690882094,91.61529992695432 180.57339123572456,92.05350178858498 178.9872878009919,93.54337889095768 176.54844058438903,97.96910618770926 175.88330043427413,102.50425065778836 176.30967232532566,105.59333139058435 177.4864587446209,108.46327345594182 178.42447690485278,109.69010277702182 179.77181208052207,110.41305124283826 181.32380576391006,110.47877366418834 182.9099091986427,109.75582550358376 184.71772601659177,107.959394326841 186.0991709435475,105.87813716630626 187.32712198974332,102.56997641791531 187.56589024874847,99.59038073701959 187.2418476116145,97.0489158238488 186.3720489537809,94.485499698887 185.1440979076433,92.51361241564155 184.30840900121257,91.92204135967768 182.46648243191885,91.52765940656536 180.55633636005223,92.14114201290067 178.42447690485278,94.28831209463533 176.65076983813196,97.70619521023764 175.88330043427413,101.14591206764453 176.22439794708043,105.11135119856044 177.11125148046995,107.76222378897364 178.0322147650877,109.29576583526796 179.27722068695584,110.21588381243055 180.3346229767194,110.50068113177258 181.59668377414346,110.50068113177258 182.92696407419862,109.82154820235155 185.84334780892823,106.29439082428871 187.34417686541565,102.32898182825011 187.56589024874847,99.83137956634164 187.32712198974332,97.57473955498426 186.95191472565057,95.8438964074885 185.72396367945476,93.28046043845825 184.68361626530532,92.11923196142016 183.57504934858298,91.63721004934632 181.97189103829442,91.57147967292985 180.64161073823925,92.05350178858498 179.29427556256996,93.25855054739804 177.87872088432778,95.23042839410482 176.77015396766365,97.37755586396088 176.10501381766517,99.67801671808411 175.90035530994646,102.32898182825011 176.12206869322108,104.6074612204684 177.65700750099495,108.79188940064341 178.3733122779522,109.64628761063796 179.60126332414802,110.36923627990473 181.17031188315013,110.54449605777336 182.2277141729719,110.25969881849596 183.40450059220893,109.47102682167315 185.12704303197097,107.45551356695069 187.0371891038958,103.709218518954 187.54883537307614,99.45892667291628 187.08835373079637,96.67645627300953 186.40615870512556,94.70459674402082 185.63868930120952,93.21473075597896 184.64950651401887,92.11923196142016 183.06340307940263,91.57147967292985 181.47729964466998,91.659120168566 180.5392814844381,92.11923196142016 178.69735491508618,94.02539490042545 176.71898934070487,97.57473955498426 175.9344650612329,101.3649997386965 176.56549545994494,106.42583911662223 178.45858665619744,109.73391793112387 179.73770232929382,110.41305124283826 181.0850375049049,110.50068113177258 182.2277141729719,110.21588381243055 183.5921042242553,109.1862276187021 185.45108566916315,106.95163117619813 186.79842084489064,104.36646978488716 187.34417686541565,102.37279905413743 187.60000000003492,99.43701765137666 187.15657323336927,96.65454685990699 185.3487564152456,92.75462220131885 183.55799447296886,91.6810302848171 182.07422029215377,91.52765940656536 180.76099486777093,91.9658615149383 178.78262929338962,93.89393613678112 178.1686537702335,94.11303401453188" stroke="#4DD2FF" stroke-linecap="round" stroke-linejoin="round" stroke-width="0.5"><title>2024-12-07 13.6km</title><desc>1733525549000</desc></polyline><polyline fill="none" points="12.400000000023283,160.70375094570045 12.730742049403489,162.1090231622802 14.130035335663706,164.13521464569203 15.453003533533774,165.47510575561319 16.44522968190722,165.63850658165757 19.167491165921092,164.49469838515506 21.78798586560879,164.03717352931562 27.20706713781692,165.2790246126242 30.15830388700124,163.71036950897542 32.88056537101511,162.89335744646087 38.732155477046035,163.51428687613225 40.66572438168805,161.22664392658044 45.168904593680054,162.6972741237405 46.61908127204515,162.5665518166643 48.39999999990687,161.6188128896756 51.63109540636651,158.28535559483862 53.84452296816744,154.59235194171197 54.86219081270974,151.48756891745143 55.54911660775542,146.35641545936232 54.53144876321312,141.19246502997703 52.41978798585478,136.42061128142814 50.81696113070939,134.98249914134794 47.73851590103004,134.36149341835699 44.965371024562046,135.27665916738624 41.58162544167135,139.06802170420997 39.190106007037684,143.6437216397171 38.19787985866424,149.72272637933202 39.062897526542656,156.45520183243207 41.40353356883861,160.80179346924706 42.98091872781515,162.0109811906441 45.19434628961608,162.6319129793992 48.12014134274796,161.8475778123393 51.63109540636651,158.28535559483862 53.462897526449524,155.5074379658763 54.63321554765571,152.50071320368443 55.59999999997672,146.35641545936232 54.32791519432794,140.2773225956189 52.39434628968593,136.42061128142814 51.427561837481335,135.40739683702122 49.443109540618025,134.5902851937426 47.000706713763066,134.39417797148053 45.168904593680054,135.1459214240458 43.69328621902969,136.42061128142814 41.55618374561891,139.06802170420997 39.64805653714575,142.4671216962597 38.401413427549414,146.944706323251 38.19787985866424,149.46126708480006 38.808480565203354,155.80157199357927 41.58162544167135,160.99787839229975 43.031802120036446,162.0109811906441 45.19434628961608,162.6645935538254 46.82261484104674,162.5011906354921 48.90883392223623,161.22664392658044 51.52932862192392,158.44876147930336 53.61554770311341,155.11525868279568 55.2183745582588,150.14759710502403 55.54911660775542,146.2583668370644 55.014840989373624,144.78763253591023 55.16749116615392,143.25152232089022 53.89540636038873,139.16607336243032 52.29257950524334,136.25718989591405 50.74063604243565,134.98249914134794 49.01060070679523,134.39417797148053 46.36466431093868,134.4922316033626 44.990812720847316,135.24397473841964 41.19999999983702,139.7870662364876" stroke="#4DD2FF" stroke-linecap="round" stroke-linejoin="round" stroke-width="0.5"><title>2024-12-05 7.7km</title><desc>1733352101000</desc></polyline><polyline fill="none" points="78.40000000002328,158.28055622700776 81.01081081083976,156.73911628243513 81.77297297294717,156.61413396181888 82.3729729729821,157.38485659116122 85.42162162158638,157.67648032344005 87.15675675676903,158.21806573061622 89.03783783782274,157.67648032344005 89.28108108107699,155.8850683218334 91.95675675675739,154.67689449842146 93.77297297300538,154.28111127404554 94.04864864866249,154.65606382876285 93.98378378374036,156.8432681356644 94.48648648650851,158.07225446973462 95.36216216214234,159.42621065255662 96.2540540540358,159.96778965828707 100.1621621621889,158.94711988055496 103.50270270270994,159.82198012089066 105.57837837835541,158.71798896313703 107.57297297293553,158.2597260644834 110.86486486485228,158.6554986514093 111.70810810814146,157.40568687683844 112.22702702705283,157.1348929349042 113.08648648648523,157.82229197413835 115.01621621625964,158.11391484462365 116.24864864867413,157.92644306526927 117.33513513510115,157.25987481580523 118.66486486478243,155.8850683218334 120.12432432436617,153.78117305701016 120.88648648641538,151.8438965175592 121.5837837838335,147.6567928607692 120.61081081081647,143.38624174961296 118.92432432435453,140.69885617682303 117.0918918919051,140.07387579434726 115.82702702702954,140.21970478631556 114.85405405407073,140.636358257354 112.95675675675739,142.65711095259758 111.18918918917188,145.84442768296867 110.47567567566875,149.69828108172806 110.89729729725514,153.69784985673323 111.61081081081647,155.48928832777892 112.72972972976277,157.1348929349042 114.22162162163295,157.9681034812529 115.63243243243778,158.05142427791725 117.01081081078155,157.44734743933077 118.34054054063745,156.19752546440577 120.61081081081647,152.71879873954458 121.21081081073498,150.594027229934 121.55135135137243,147.74011946178507 120.6270270270179,143.59456417476758 119.5567567567341,141.4071640866605 118.89189189183526,140.6780235399492 117.0918918919051,140.0530430695071 116.08648648648523,140.1363739513472 115.17837837839033,140.44886434060754 113.96216216211906,141.44882915222843 111.4162162161665,145.30279700097162 110.47567567566875,149.84410059150832 110.88108108111192,153.63535742566455 111.62702702707611,155.55177997610008 112.7459459460224,157.17655357361946 113.68648648646194,157.78063151716196 115.30810810811818,158.13474502769532 116.3945945946034,157.84312219827552 117.70810810808325,156.86409849755 120.52972972969292,152.94793894313625 121.48648648650851,148.90668695050408 121.19459459464997,145.17780502363166 119.47567567566875,141.28216881945264 118.82702702702954,140.65719090015045 117.12432432436617,140.0530430695071 116.00540540541988,140.17803937474673 114.70810810808325,140.78218669509806 112.92432432429632,142.6779433109332 111.44864864856936,145.26113302024896 110.55675675679231,148.53171983179345 110.45945945946733,150.67735217747395 110.83243243244942,153.65618823896511 112.55135135131422,157.00991094844358 114.44864864862757,158.03059408311674 115.94054054049775,157.9681034812529 116.89729729725514,157.50983826105949 118.03243243240286,156.57247316488065 119.54054054053267,154.61440248067083 120.52972972969292,152.9687698531343 120.98378378374036,151.57309240082395 121.55135135137243,147.59429787921545 120.57837837835541,143.42790625810449 119.50810810807161,141.30300137129962 118.25945945945568,140.32386826402217 117.12432432436617,140.0530430695071 115.64864864863921,140.24053748775623 114.07567567570368,141.36549900932005 112.6972972973017,143.03209295398847 111.0918918918469,146.1569060209731 110.6054054053966,148.32340435542574 110.47567567566875,150.7190146335779 110.88108108111192,153.67701904928253 111.65945945947897,155.59344106039498 112.50270270270994,156.98908060706162 113.37837837840198,157.6348198254418 115.03243243240286,158.11391484462365 116.31351351347985,157.8639524193859 117.41621621622471,157.1348929349042 119.13513513508951,155.3226438032143 120.54594594595255,152.92710803015507 121.24324324331246,150.4690397207014 121.55135135137243,147.61512954271166 120.48108108108863,143.24041587756074 119.54054054053267,141.34466646621877 118.9081081080949,140.6780235399492 117.40000000002328,140.03221034172748 116.00540540541988,140.1155412352964 114.51351351349149,140.8446845530416 113.11891891888808,142.4487872079917 111.35135135136079,145.44862084109627 110.45945945946733,150.03158260732016 110.88108108111192,153.65618823896511 111.6756756757386,155.61427159812592 112.58378378377529,157.05157162231626 113.81621621618979,157.88478263760044 115.00000000005821,158.0930846586707 116.52432432433125,157.73897104845673 119.20000000001164,155.28098264271102 120.52972972969292,152.9687698531343 120.95135135133751,151.65641679722467 121.60000000003492,147.3234859876393 120.80540540540824,143.99037597469578 120.04324324324261,142.24046317017928 119.15135135134915,140.948847590902 118.21081081079319,140.32386826402217 116.5567567567341,140.0530430695071 114.95135135139572,140.55302765699162 113.70270270266337,141.67798680337728 112.51891891891137,143.49040299881017" stroke="#4DD2FF" stroke-linecap="round" stroke-linejoin="round" stroke-width="0.5"><title>2024-12-03 16.2km</title><desc>1733178751000</desc></polyline><polyline fill="none" points="144.40000000002328,167.49962450563908 147.38617511512712,166.0383723829873 149.71823568129912,165.7095895219536 152.56221198150888,166.0018409745535 156.0034233047627,167.24390597786987 159.3877551018959,165.30774323744117 162.77208689926192,164.50404880251153 168.65911784069613,165.34427474357653 171.076497695758,162.4948018300638 172.01500987482723,162.45826992290677 175.14338380505797,164.02913728510612 177.67452271236107,164.02913728510612 179.69374588527717,163.00624798919307 181.684529295424,161.14311784444726 183.24871626065578,159.49916837763158 185.97893350874074,154.71338955374085 187.5715602368582,146.85867582718492 185.97893350874074,138.74797782470705 184.0734693876002,134.8021412162052 182.28176431858446,133.23109698251938 179.66530612239148,132.6099838486989 176.87820934818592,133.01188075204846 174.60302830813453,134.72906960223918 171.47465437778737,138.565301528055 169.39855167875066,142.73028914173483 168.51691902568564,146.31066367469612 168.14720210665837,149.087246662064 168.46003949956503,154.0192616348504 169.1141540487297,157.05149099382106 171.2755760367727,161.36231032019714 172.86820276489016,163.18890708766412 175.9396971691167,164.1752639983606 177.47544437122997,164.1387323277304 179.89282422629185,162.86012061790098 183.22027649765369,159.5357007010607 185.4385780118173,155.99204138785717 187.08808426582254,151.02353037922876 187.59999999997672,145.79918462201022 186.34865042788442,139.62482225877466 184.55694535875227,135.5693919211626 182.9358788676327,133.63299292413285 178.78367346932646,132.50037549436092 175.99657669500448,133.45031302777352 171.47465437778737,138.4922309734102 169.1141540487297,143.6436546840123 168.11876234353986,150.5120606122655 169.02883475960698,156.90536027075723 170.82053982873913,160.74126449174946 172.61224489787128,163.07931164395995 174.6883475970244,163.91954219620675 177.39012508222368,164.10220065203612 181.05885450949427,161.87375871051336 185.69453587883618,155.33444980261265 187.14496379194316,150.11019080271944 187.59999999997672,145.72611610373133 186.09269256086554,138.8941187693854 184.0734693876002,134.838677015563 182.08268597745337,133.0849528494291 178.72679394332226,132.50037549436092 176.62225148116704,133.01188075204846 175.02962475304957,134.1810318416974 171.5030941409059,138.4922309734102 169.37011191563215,142.73028914173483 168.00500329164788,150.25632535092882 169.1141540487297,156.90536027075723 171.0480579327559,160.9604573067627 172.78288347588386,163.07931164395995 174.8874259380391,163.91954219620675 177.41856484522577,163.9926055938995 179.4662277813768,163.2254388918809 181.45701119152363,161.508438534569 185.2963791968068,156.06510701676598 187.17340355482884,150.40245981686166 187.54312047397252,145.8722531198291 186.77524687279947,141.195827795862 185.49545753770508,137.43270561972167 182.67992100061383,133.413777033129 178.66991441720165,132.53691161761526 175.51310072396882,133.7426008002367 171.64529295579996,138.30955449686735" stroke="#4DD2FF" stroke-linecap="round" stroke-linejoin="round" stroke-width="0.5"><title>2024-12-01 10.0km</title><desc>1733006314000</desc></polyline><polyline fill="none" points="31.120277425507084,219.35173924898845 34.59913691133261,219.20278271465213 36.95703056268394,217.86217107489938 44.339943471131846,208.4280932759866 47.08437706506811,198.00066117814276 46.54322114516981,189.50952453908394 43.18032364244573,180.57126519308076 40.89973797975108,178.13803315736004 37.96203441405669,176.7972654766636 34.40586693980731,176.64829097528127 30.849699465557933,178.33666497305967 25.51544825430028,184.64316697779577 22.693706671707332,190.4529942573572 21.379470865940675,195.41858277015854 20.8769689402543,199.73858792855754 21.340816871495917,206.54124744678847 24.355828425846994,214.68440462026047 26.365836128825322,217.56425668555312 30.19258156279102,219.45104357035598 32.89836116251536,219.60000000000582 36.0679886941798,218.3090421873494 39.50819418532774,215.28023801039672 43.798787551000714,209.17289806247572 46.4272591623012,202.37028928272775 47.161685053724796,193.63097895632382 45.770141259301454,186.2321890721505 44.339943471131846,182.75619394506793 41.78877984825522,178.932559748966 39.39223220269196,177.1945305057161 34.367212945595384,176.5489746060921 32.511821219930425,177.1945305057161 28.994307740125805,180.22366164403502 25.51544825430028,184.64316697779577 23.31217058026232,188.76467824267456 21.650048825889826,193.9289135542931 20.954276928910986,200.3841013983183 21.340816871495917,206.29297750763362 24.27852043719031,214.68440462026047 26.211220151511952,217.3656469528505 28.723729779943824,218.95452168409247 32.20258926553652,219.55034786375472 35.488178779836744,218.75591273393366 40.78377599688247,213.6913467340055 44.57186743640341,207.73294072333374 46.156681202119216,203.31372461098363 47.23899304214865,193.9289135542931 45.770141259301454,186.08321855484974 44.339943471131846,182.607221960061 41.98204981954768,178.932559748966 39.46954019111581,177.14487240154995 35.10163883701898,176.5489746060921 32.241243259748444,177.34350477639236 30.385851534316316,178.6842703813454 25.39948627143167,184.69282402654062 22.616398683050647,190.50265048837173 21.45677885436453,194.6737489484367 21.263508883072063,205.15093353725388 21.920626785838977,208.92462997499388 24.317174431635067,214.58509895738098 25.82468020869419,216.96842715208186 28.76238377438858,218.95452168409247 31.700087339850143,219.60000000000582 35.21760081965476,218.75591273393366 37.53684047679417,217.26634204460424 41.17031593970023,213.19481674270355 44.99706137366593,206.98813289715326 46.54322114516981,202.12201640859712 47.316301030805334,194.72340458538383 45.770141259301454,186.1328754009155 42.948399676475674,180.32297697869944 40.24262007675134,177.54213703944697 35.0243308483623,176.49931641109288 33.091631134273484,176.94623991503613 30.77239147713408,178.43598083898542 26.94564604293555,182.50790726824198 22.42312871175818,191.09852471610066 21.224854888860136,196.21307044677087 20.954276928910986,201.57581547053996 21.843318797415122,208.7756690387032 23.11890060873702,212.20175466418732 25.786026214482263,216.86912213204778 28.76238377438858,219.0041739041335 31.932011305587366,219.60000000000582 35.333562802756205,218.80556498188525 38.30992036242969,216.52155434183078 42.13666579662822,211.90383549570106 45.73148726508953,205.10127936775098 47.161685053724796,198.79514304053737 47.20033904816955,193.43235575134167 44.494559447979555,182.9051658671524 42.56185973365791,179.5781112870609 40.01069611101411,177.24418860301375 36.454528636764735,176.40000000002328 32.241243259748444,177.44282092206413 28.80103776860051,180.27331931493245 25.438140265876427,184.64316697779577 22.1525507515762,191.79371004307177 20.683698968961835,200.5827206899121 21.650048825889826,208.62670803934452 24.510444402927533,215.28023801039672 26.40449012303725,217.41529939643806 29.458155671600252,219.30208707784186 33.05297713982873,219.45104357035598 36.029334699735045,218.25938986957772 42.098011802416295,211.7548758169578 44.069365510949865,208.82532269100193 46.195335196563974,203.46268785334541 47.27764703659341,194.42547065851977 46.620529133826494,189.65849360977882 44.53321344242431,183.10379499886767 42.368589762365445,179.37948017049348 39.31492421380244,177.0952142905444 35.25625481409952,176.44965820910875 31.390855385689065,177.79042721088626 25.360832277219743,184.74248106835876 26.559106100117788,186.92738398804795" stroke="#4DD2FF" stroke-linecap="round" stroke-linejoin="round" stroke-width="0.5"><title>2024-11-29 13.9km</title><desc>1732833187000</desc></polyline><polyline fill="none" points="78.40000000002328,206.17027065101138 81.00885221315548,204.71324544210802 81.88387096783845,204.60917166371655 82.64546136534773,205.4001305429847 87.42565641412511,206.08701245424163 89.04606151545886,205.52501840048353 89.27291822963161,203.85983829770703 91.39564891229384,202.79827619770367 93.63180795201333,202.11137901441543 94.00450112530962,202.36116017741733 93.95588897232665,204.98383692320203 94.34478619659785,206.06619789771503 95.47906976751983,207.43995234488102 96.69437359343283,207.98112483629666 98.47681920486502,207.14855095245002 100.14583645912353,206.8779634312814 101.86346586648142,207.1277365453425 103.33803450863343,207.77298180467915 105.00705176295014,206.91959231293004 107.24321080278605,206.27434333102428 108.71777944493806,206.1910851928551 110.88912228064146,206.60737541507115 111.90997749438975,205.3168719127425 112.68777194304857,205.10872513217328 114.84291072771885,206.06619789771503 116.52813203306869,205.7123499889276 119.00735183799407,203.46435526857385 120.17404351086589,201.65344578678196 121.22730682673864,198.78092320126598 121.58379594906,195.61692071655125 120.93563390854979,192.22386915658717 119.75273818458663,189.5385155017284 118.2619654914015,188.28949718852527 116.56054013507674,188.0188751636888 115.2642160540563,188.3519483547425 114.16234058520058,189.18462805062882 112.39609902480152,191.47447304136585 111.21320330089657,193.7642825799703 110.5326331583201,197.03240387910046 110.90532633155817,201.5285546604864 112.42850712675136,204.79650441209378 113.48177044268232,205.64990615252464 114.90772693179315,206.04538333830715 115.91237809456652,205.96212507125165 117.04666166543029,205.42094519319653 119.00735183799407,203.42272541452257 120.17404351086589,201.65344578678196 121.24351087782998,198.73929202908766 121.53518379596062,195.2214156468981 120.38469617406372,190.7667065570713 119.62310577649623,189.3719803361164 118.35918979748385,188.28949718852527 117.16009002254577,188.0188751636888 115.81515378848417,188.16459477701574 114.77809452364454,188.72665479799616 113.27111777948448,190.14220390516857 111.19699924986344,193.82673143442662 110.467816954304,198.1356387151318 110.97014253569068,201.632630606342 112.49332333088387,204.81731914730335 113.38454613659997,205.6082769134955 114.32438109529903,205.98293964240293 116.46331582899438,205.7747937990789 119.13698424608447,203.29783578203933 120.78979744942626,200.27963759726845 121.60000000003492,195.72100082230463 121.06526631664019,192.57774933548353 119.57449362339685,189.30952960062132 118.31057764444267,188.28949718852527 117.04666166543029,188.0188751636888 115.65311327832751,188.22704599598364 114.372993248282,188.97645856616145 113.27111777948448,189.99648624029942 111.74793698423309,192.68183157994645 110.87291822960833,195.03407077111478 110.50022505637025,197.32382520157262 110.95393848465756,201.59100023674546 112.23405851470307,204.5050978121144 113.41695423860801,205.6082769134955 114.82670667662751,206.06619789771503 115.91237809456652,206.00375421065837 117.1114778695046,205.4001305429847 119.16939234809252,203.31865072813525 120.17404351086589,201.632630606342 121.37314328586217,198.3021640133229 121.56759189796867,195.679368788813 121.35693923482904,194.03489409211033 120.14163540891604,190.079753494967 118.94253563397797,188.6850207956595 117.82445611408912,188.08132644413854 116.52813203306869,188.0188751636888 115.15078769699903,188.43521653526113 113.19009752443526,190.30873820353008 112.68777194304857,191.20385684435314" stroke="#4DD2FF" stroke-linecap="round" stroke-linejoin="round" stroke-width="0.5"><title>2024-11-27 11.3km</title><desc>1732665796000</desc></polyline><polyline fill="none" points="144.40000000002328,206.72712718819093 145.23416264384286,206.54167446344218 147.43186037876876,205.22289275848016 148.24998143338598,205.16107457468752 149.05206089862622,205.9234970179823 153.8645376903587,206.54167446344218 155.38848867436172,206.1089505256532 155.56494615669362,204.5634974521381 155.9980690679513,204.15137387788855 158.27597474935465,203.07984715649218 160.0245079837041,202.72953864306328 160.36138135910733,203.16227256729326 160.53783884149743,206.52106859066407 160.93887857411755,207.0156087376381 171.81507612328278,207.24227241358312 174.0608986261068,206.72712718819093 176.98046787967905,207.09803193315747 178.07129595254082,205.77925523856538 178.84129223920172,205.51137727130845 180.67003342002863,206.45925095483835 182.62710731534753,206.29440379844164 184.21522465656744,204.9962259568565 186.41292239143513,201.92588653381972 187.35937616042793,198.93791051961307 187.5518752321368,197.14509564382024 186.97437801712658,192.9205599939305 186.09209060535068,190.7567262368102 185.32209431868978,189.64388499503548 184.45584849617444,189.04624454087752 182.5148161901161,188.75772758643143 181.08711474190932,189.2935443350725 180.18878574081464,190.05604940417106 178.6808763461304,191.993206585219 177.4937987375306,194.23945250280667 176.70776086149272,197.7427030414401 177.1890085407067,202.46165509671846 178.69691793539096,205.4289531827526 180.20482733019162,206.39743329297926 181.85711102868663,206.54167446344218 182.96398069075076,206.129556456508 184.32751578174066,204.89319547651394 186.79792053473648,200.97798350489757 187.58395841071615,196.85659464789205 186.92625324922847,192.75569759502832 185.97979948017746,190.63307762765908 185.14563683624147,189.52023544609256 183.7660601560492,188.8607694211969 182.25815076130675,188.77833595921402 181.0389899740694,189.33476092679484 179.61128852586262,190.65368573642627 177.52588191616815,194.09519921330502 176.70776086149272,198.34030800002802 176.8360935759265,201.03980345469608 177.34942443371983,202.8119642510719 178.7931674713036,205.55258929818228 180.4454511697404,206.47985683636216 181.9373189751641,206.50046271493193 182.707315261825,206.29440379844164 184.23126624588622,204.95501377340406 186.65354623098392,201.26647638065333 187.29520980326924,199.1233728745865 187.60000000003492,196.27959095065307 186.76583735609893,192.36414865353436 185.97979948017746,190.61246951593785 184.90501299669268,189.33476092679484 183.65376903081778,188.79894432908623 182.2902339398861,188.75772758643143 181.08711474190932,189.25232773170865 179.69149647234008,190.5300370402838 178.56858522089897,192.07563823719101 177.39754920167616,194.42492080907687 176.80401039734716,196.65052215989272 176.6596360936528,198.85548273085442 177.33338284445927,202.87378342656302 178.64879316755105,205.38774112108513 179.29045673977816,205.94410297489958 180.70211659866618,206.52106859066407 182.466691422218,206.37682739981392 185.0173041218659,204.00713035286753 186.87812848133035,200.64827666518977 187.60000000003492,196.54748580715386 186.76583735609893,192.32293291461247 185.09751206834335,189.43780235541635 183.84626810252666,188.8607694211969 182.54689936875366,188.75772758643143" stroke="#4DD2FF" stroke-linecap="round" stroke-linejoin="round" stroke-width="0.5"><title>2024-11-24 10.4km</title><desc>1732400098000</desc></polyline><polyline fill="none" points="12.400000000023283,254.3035139968997 14.988764044945128,252.74475527014874 15.797752809070516,252.68240457889624 16.736179775267374,253.40982767232344 21.493033707898576,254.11646381828177 23.094831460737623,253.65922905108891 23.32134831463918,251.91341055594967 24.745168539346196,251.26911518389534 28.06202247197507,251.37303398232325 28.450337078713346,254.09568045051128 29.38876404496841,255.36346053470334 30.27865168545395,255.92460562239285 31.039101123576984,255.9661718402931 33.11011235957267,255.05171234265435 34.64719101128867,254.906229627828 37.608089887711685,255.77912376726454 39.38786516856635,254.76074676969438 41.28089887643,254.24116396371392 44.93752808991121,254.5944804706378 46.21573033707682,253.0980753567128 47.04089887638111,253.78392958255426 48.82067415729398,254.03333032957744 49.92089887638576,253.97098018227553 51.03730337077286,253.49296151209273 53.059775280882604,251.4353852263739 54.12764044944197,249.75189239891188 55.32494382024743,246.3432802594325 55.56764044938609,243.64127571476274 55.17932584270602,240.93922173336614 53.512808988802135,237.23940608928388 52.283146067522466,236.3248306299938 50.5195505618467,236.0338281597069 49.451685393287335,236.34561649881653 48.44853932590922,237.07312006343273 45.82741573039675,240.648228355858 44.69483146071434,244.14011104381643 44.53303370787762,245.84445237195177 44.80808988766512,248.92053083820792 45.61707865167409,251.20676386964624 46.6040449438151,252.93180718594522 47.34831460681744,253.63844561896985 48.95011235959828,254.05411370612273 50.39011235948419,253.84627980878577 51.57123595505254,253.05650833157415 53.07595505617792,251.41460148133046 54.192359550565016,249.68954044421844 54.96898876409978,247.81896956186392 55.53528089891188,244.72208346484695 55.16314606741071,240.87686605784984 54.435056179820094,238.90225604923035 53.140674157300964,236.82369067362742 52.20224719098769,236.30404475827527 50.50337078649318,236.05461406943505 49.38696629210608,236.30404475827527 48.46471910114633,236.98997698028688 46.879101123602595,238.8398995136522 45.730337078741286,240.73136937932577 45.16404494387098,242.12397456521285 44.54921348323114,245.3248381975427 44.85662921349285,248.94131493427267 45.633258426969405,251.26911518389534 46.636404494405724,252.97337424616853 47.55865168542368,253.68001248028304 49.14426966290921,254.07489707978675 50.61662921356037,253.7215793299547 51.49033707869239,253.0980753567128 53.140674157300964,251.352250228505 54.20853932580212,249.62718846312782 55.42202247190289,245.90680595004233 55.56764044938609,243.59970602793328 55.16314606741071,240.89765128598083 54.41887640446657,238.86068502841226 53.3348314606701,236.98997698028688 52.23460674157832,236.28325888370455 50.87550561799435,236.05461406943505 49.4031460674596,236.44954579888145 48.06022471911274,237.40569192783732 46.57168539328268,239.2556092535815 45.27730337087996,241.87455370629323 44.630112359533086,244.57659057459387 44.56539325846825,246.8213220706093 44.905168539320584,249.3362122035469 45.64943820220651,251.352250228505 46.6202247190522,252.97337424616853 48.14112359547289,253.92941340283141 49.8238202247303,253.97098018227553 51.231460674142,253.30591030689538 53.189213483186904,251.28989894941333 54.35415730345994,249.35699624111294 54.96898876409978,247.8605380611407 55.47056179778883,245.42876117867127 55.59999999997672,243.66206055374641 55.17932584270602,240.85608082686667 54.01438202249119,237.96690525069425 53.3348314606701,237.03154852770967 51.86247191019356,236.1793294664967 50.017977528099436,236.13775767922925" stroke="#4DD2FF" stroke-linecap="round" stroke-linejoin="round" stroke-width="0.5"><title>2024-11-21 10.8km</title><desc>1732142576000</desc></polyline><polyline fill="none" points="78.40000000002328,253.93990888108965 80.74835787090706,252.4316371656896 81.51483578712214,252.34784384454542 82.46070215170039,253.14387849104241 85.24937712342944,253.31146419004654 87.01064552663593,253.7723238895269 88.65775764436694,253.43715334050648 89.01653454132611,251.5308564917359 93.56647791620344,249.85497096682957 93.84371460933471,250.21109821944265 94.12095130234957,253.45810152190097 96.09422423550859,256.0975487969117 96.81177802948514,256.39081782771973 96.90962627413683,255.63669629556534 99.61676104192156,254.65214299045329 101.14971687435172,254.69403900843463 103.53069082670845,255.42721741423884 105.53657984145684,254.31697442228324 106.85753114387626,253.96085699174728 108.4883352208999,253.87706453139253 110.83669309172546,254.29602636169875 112.10872027178993,252.87155132784392 114.58754246885655,253.70947946910746 116.44665911665652,253.47904970041418 119.00702151760925,251.17473239627725 120.19750849378761,249.24745780478406 121.2086070215446,246.54504162661033 121.60000000003492,243.21408906721626 121.19229898077901,240.46966334304307 119.46364665904548,236.71956470338046 118.2079275198048,235.81868894424406 116.6260475651361,235.63013286273053 114.53861834655982,236.489108632828 112.45118912798353,238.87745423300657 110.80407701025251,242.69034760679642 110.42899207252776,245.9794134269905 110.62468856177293,248.43045343649283 112.15764439414488,252.15930869954173 113.86998867499642,253.52094604852027 116.15311438281788,253.66758317402855 117.53929784829961,252.76680997860967 119.43103057763074,250.52532744077325 120.60520951304352,248.40950454754056 121.38799546996597,245.79087021613668 121.60000000003492,243.25598830438685 121.24122310301755,240.76296316353546 119.52887882222421,236.80336682237976 117.63714609283488,235.67203423482715 116.08788221969735,235.71393559513672 114.60385050962213,236.46815806330414 113.16874292190187,237.9765915343305 111.68471121182665,240.23921307863202 110.95084937720094,242.18755407107528 110.46160815405892,244.722454177303 110.70622876560083,248.63994216349965 111.70101925253402,251.30042335079634 112.77734994341154,252.89249958886649 114.34292185731465,253.68853132303047 116.12049830128672,253.66758317402855 117.60453001136193,252.6830168460874 119.1211778029683,251.0071442919143 120.57259343157057,248.49330008553807 121.24122310301755,246.39839748493978 121.60000000003492,243.27693791860656 121.3716874292586,241.58000961616926 120.73567383916816,239.0660062008683 119.52887882222421,236.82431734479906 117.76761041901773,235.6929849164153 116.83805209514685,235.60918217228027 115.43556058889953,235.8605902632844 114.65277463197708,236.38435575555195 113.16874292190187,237.93469081098738 111.52163080405444,240.72106322462787 110.77146092866315,242.92079407637357 110.46160815405892,245.05764434835874 110.67361268406967,248.38855565569247 112.1413363533793,252.13836033537518 113.10351075872313,253.14387849104241 114.34292185731465,253.68853132303047 115.8758776896866,253.70947946910746 116.82174405432306,253.35336058538815 119.44733861839632,250.5672246201575 121.07814269541996,247.15256581737776 121.60000000003492,243.19313944411988 120.6215175538091,238.81460352399154 119.49626274069306,236.80336682237976 118.61562853906071,236.09104730693798 117.65345413365867,235.6929849164153 115.81064552662428,235.734886270875 114.78323895810172,236.2377016035025 113.70690826722421,237.32712899717444 112.51642129104584,238.79365328176937 111.17916194797726,241.49621018640755 110.42899207252776,245.64422533150355 110.99977349943947,249.56168906022504 112.549037372577,252.70396513366723 114.22876557189738,253.7304276121722 115.85956964892102,253.7723238895269 116.75651189131895,253.41620515609975 119.33318233292084,250.75576178148913 120.6215175538091,248.49330008553807 121.25753114384133,246.524092472333 121.58369195926934,243.109340922485 121.17599093995523,240.57441334531177 120.24643261614256,238.08134329105087 119.43103057763074,236.71956470338046 118.2894677236909,235.9443928658875 117.08267270668875,235.63013286273053 115.66387315967586,235.81868894424406 114.58754246885655,236.46815806330414 113.13612684037071,237.95564117416507 111.11392978479853,241.55905976316717 110.62468856177293,243.44453472594614 110.41268403170398,246.41934665683948 111.3911664779298,250.6510189435212 112.10872027178993,252.09646359817998 113.13612684037071,253.1648267137498 114.08199320494896,253.64663502211624 115.89218573051039,253.68853132303047 116.78912797285011,253.35336058538815 118.06115515285637,252.26405047623848 119.26795016991673,250.81860744890582 120.76828992075752,248.15811765060062 121.58369195926934,244.05207157085533 121.02921857306501,240.00876245749532 119.44733861839632,236.7405152375286 117.58822197059635,235.67203423482715 116.15311438281788,235.6929849164153 115.07678369199857,236.11199792957632 113.23397508496419,237.8508893289254 112.36964892409742,239.19170738008688" stroke="#4DD2FF" stroke-linecap="round" stroke-linejoin="round" stroke-width="0.5"><title>2024-11-17 16.3km</title><desc>1731797391000</desc></polyline></svg>