<?xml version="1.0" encoding="utf-8" ?>
<svg baseProfile="full" height="300mm" version="1.1" viewBox="0,0,200,300" width="200mm" xmlns="http://www.w3.org/2000/svg" xmlns:ev="http://www.w3.org/2001/xml-events" xmlns:xlink="http://www.w3.org/1999/xlink"><defs /><rect fill="#222222" height="300" width="200" x="0" y="0" /><text fill="#FFFFFF" style="font-size:12px; font-family:Arial; font-weight:bold;" x="10" y="20">Over 5km Runs</text><text fill="#FFFFFF" style="font-size:4px; font-family:Arial" x="10" y="280">ATHLETE</text><text fill="#FFFFFF" style="font-size:9px; font-family:Arial" x="10" y="290">sagasw</text><text fill="#FFFFFF" style="font-size:4px; font-family:Arial" x="65" y="280">SPECIAL TRACKS</text><rect fill="yellow" height="2.6" width="2.6" x="65" y="283" /><text fill="#FFFFFF" style="font-size:3px; font-family:Arial" x="70" y="285.5">Over 20.0 km</text><rect fill="red" height="2.6" width="2.6" x="65" y="287" /><text fill="#FFFFFF" style="font-size:3px; font-family:Arial" x="70" y="289.5">Over 40.0 km</text><text fill="#FFFFFF" style="font-size:4px; font-family:Arial" x="120" y="280">STATISTICS</text><text fill="#FFFFFF" style="font-size:3px; font-family:Arial" x="120" y="285">Number: 13</text><text fill="#FFFFFF" style="font-size:3px; font-family:Arial" x="120" y="290">Weekly: 2.2</text><text fill="#FFFFFF" style="font-size:3px; font-family:Arial" x="141" y="285">Total: 157.5 km</text><text fill="#FFFFFF" style="font-size:3px; font-family:Arial" x="141" y="290">Avg: 12.1 km</text><text fill="#FFFFFF" style="font-size:3px; font-family:Arial" x="167" y="285">Min: 7.7 km</text><text fill="#FFFFFF" style="font-size:3px; font-family:Arial" x="167" y="290">Max: 16.3 km</text><polyline fill="none" points="12.400000000023283,61.364523512122105 12.861462613102049,62.002886543486966 18.115036976290867,62.82363531659939 19.92539030406624,62.299268524497165 20.227115858811885,60.2929799122503 25.072473295032978,58.560256117008976 25.356450287625194,58.76544806000311 25.622678718180396,62.07128243337502 26.652095316327177,64.0091539821733 27.752506162854843,64.85269082756713 28.46244864433538,64.921085514492 30.113064913777635,64.12314570431772 32.11865242407657,63.735573521538754 35.845850451965816,64.64750659368292 37.99342645856086,63.46199259896821 39.91027115867473,62.9604263745714 41.75612161064055,62.98322487297992 43.72621199686546,63.46199259896821 45.21709120797459,61.77490003532148 48.3763352506794,62.82363531659939 49.95595727209002,62.43606002515298 51.58882497961167,61.22773110677372 54.33985209534876,57.260701109218644 55.209531635278836,54.77555811982893 55.60000000009313,51.4695748721424 54.801314708427526,47.52510659262771 53.4701725555351,44.62939533453027 52.423007395351306,43.58054226652894 50.82563681202009,43.101715781973326 48.83779786375817,43.375331089337124 47.666392769198865,44.12777080145315 46.01577649975661,46.020255233714124 44.7023829089012,48.30032759466849 43.74396055878606,50.94517133005138 43.42448644223623,53.70397093964857 44.02793755149469,58.37786306053749 45.90928512753453,61.72930269521021 46.99194741167594,62.50445573221077 48.553820871165954,62.800836795708165 50.222185702761635,62.299268524497165 51.30484798690304,61.478517095092684 54.002629416645505,57.99027713383839 54.81906327046454,56.097932529388345 55.44026294176001,53.1795746301068 55.52900575194508,51.401174506449024 55.103040263056755,48.64233568093914 53.41692686942406,44.62939533453027 52.33426458516624,43.603343492373824 51.10961380449589,43.238523493433604 49.51224322116468,43.170119652102585 48.00361544790212,43.87695795245236 46.086770747904666,45.974653459124966 44.773377157049254,48.14072357396071 43.70846343471203,50.990771705444786 43.42448644223623,53.43037307693157 43.548726376495324,56.097932529388345 44.223171733901836,58.9250416138384 45.00410846353043,60.47537081272458 45.71405094512738,61.59251059778035 46.956450287718326,62.50445573221077 48.41183237475343,62.82363531659939 49.938208710053004,62.45885859739792 52.70698438794352,59.905398567032535 54.71257189824246,56.32592702632246 55.351520131574944,53.840769697751966 55.511257189908065,51.24157354072668 55.103040263056755,48.687936704576714 54.26885784720071,46.24826391390525 53.39917830750346,44.62939533453027 52.210024650907144,43.489337330975104 50.506162695237435,43.101715781973326 48.71355792938266,43.420933595567476 46.01577649975661,46.020255233714124 43.992440427304246,50.1699629843788 43.38898931804579,54.1143668674049 44.20542317186482,58.947840680149966 45.394576828344725,61.1593348608003 46.56598192290403,62.299268524497165 48.41183237475343,62.82363531659939 49.65423171746079,62.57285141036846 51.03861955634784,61.72930269521021 52.777978636091575,59.85980070072401 54.748069022316486,56.18913036661979 55.351520131574944,53.795170124518336 55.49350862787105,51.2871738326794 55.13853738701437,48.93874210494687 54.28660640923772,46.29386561145657 53.4524239936145,44.62939533453027 52.369761709240265,43.557741037453525 50.93212818412576,43.12451707526634 49.334757600794546,43.238523493433604 48.05686113401316,43.831355574540794 47.02744453586638,44.811803870557924 44.64913722279016,48.32312815618934 43.74396055878606,50.89957094179408 43.406737880199216,53.521572415789706 44.08118323760573,58.46905961445009 45.92703368945513,61.820497362612514 46.99194741167594,62.52725429479324 48.71355792938266,62.800836795708165 49.61873459327035,62.61844851315254 51.07411668042187,61.6609066608944 52.68923582590651,59.97379534236097 53.98488085460849,57.99027713383839 55.33377156953793,53.88636925810715 55.52900575194508,51.2871738326794 55.19178307324182,49.25794841670722 54.7835661462741,47.52510659262771 53.41692686942406,44.62939533453027 52.33426458516624,43.557741037453525 50.82563681202009,43.12451707526634 49.423500410979614,43.19292093577678 48.09235825808719,43.78575318372168 45.57206244871486,46.79548343713395 44.66688578471076,48.32312815618934 43.74396055878606,51.036372067959746 43.406737880199216,53.36197353899479 43.58422350056935,56.18913036661979 44.79112571908627,60.13338770590781 45.802793755196035,61.683705342235044 46.99194741167594,62.52725429479324 48.41183237475343,62.82363531659939 49.973705834010616,62.48165716645599 52.724732949980535,59.905398567032535 54.67707477416843,56.39432531280909 55.24502875935286,54.4107632797386 55.52900575194508,51.33277411176823 54.90780608064961,48.04952120583039 53.38142974535003,44.560992080601864 52.29876746109221,43.53493980516214 50.861133935977705,43.078914485522546 49.44124897301663,43.170119652102585 48.074609696050175,43.78575318372168 45.501068200566806,46.95508878320106" stroke="#4DD2FF" stroke-linecap="round" stroke-linejoin="round" stroke-width="0.5"><title>2024-12-20 16.0km</title><desc>1734644952000</desc></polyline><polyline fill="none" points="78.40000000002328,61.91816973206005 83.72651546390262,62.90214726132399 85.65047422691714,62.46736722673813 86.0780206186464,60.476517483824864 88.32263917534146,59.26368902703689 91.06606185575947,58.48564336755953 91.63612371135969,62.8106147191138 92.99002061854117,64.50395841134014 93.66696907219011,64.89296730955539 94.45080412377138,64.91585015688906 95.84032989689149,64.13783153949771 98.08494845370296,63.77170384336205 101.63002061855514,64.73278728761943 104.65847422694787,63.24539383598312 106.04800000006799,63.06232908635866 109.91373195883352,63.47422448328871 111.46358762891032,61.75798678009596 113.74383505154401,62.83349785946484 115.84593814436812,62.71908212530252 118.4646597938845,60.31633311173937 120.70927835057955,56.60916499065934 121.56437113403808,51.528834370867116 120.63802061858587,47.04336549207801 119.60478350520134,44.82347032536927 118.69624742271844,43.81649757716514 117.1998350515496,43.15280758327572 115.81030927842949,43.12992167318589 113.77946391759906,43.97669820424926 111.96239175263327,45.990635480120545 110.64412371139042,48.34782583398919 109.34367010311689,52.85614327354415 109.61088659800589,57.066844640197814 111.42795876285527,61.254553617953206 112.49682474229485,62.330068026916706 113.4409896908328,62.74196527857566 115.81030927842949,62.65043264612905 117.69863917527255,61.14013677294133 119.08816494839266,59.46964166671387 120.90523711347487,55.899758988118265 121.60000000009313,51.32287167359027 121.2080824743025,48.87418406130746 120.24610309279524,46.036406491926755 118.58936082478613,43.70206846111978 116.98606185580138,43.12992167318589 115.11554639181122,43.22146529452584 113.7260206185747,43.97669820424926 112.10490721650422,45.876207894209074 110.2700206185691,49.19457519149 109.59307216492016,51.84922027043649 109.39711340214126,54.45805338259379 110.0740618557902,58.508527116602636 111.39232989691664,61.20878688963421 112.49682474229485,62.28430160121934 113.90416494850069,62.83349785946484 115.77468041249085,62.69619896884251 118.42903092782944,60.31633311173937 120.63802061858587,56.60916499065934 121.36841237114277,54.02325077053683 121.58218556712382,51.25421738321893 120.72709278354887,47.089136207519914 118.82094845362008,43.86226920101035 117.18202061858028,43.15280758327572 115.5609072165098,43.084149843096384 113.95760824740864,43.77072594036872 112.88874226808548,44.82347032536927 110.30564948450774,49.05726478439465 109.36148453620262,53.61133143403276 110.03843298985157,58.27968948170019 110.94696907221805,60.476517483824864 112.19397938146722,62.07835252629593 113.69039175263606,62.74196527857566 115.43620618560817,62.74196527857566 117.80552577332128,61.07148662720283 120.49550515471492,57.066844640197814 121.35059793817345,54.02325077053683 121.56437113403808,51.528834370867116 121.17245360824745,48.78264362238406 120.24610309279524,45.96774996936438 118.83876288670581,43.86226920101035 117.14639175264165,43.15280758327572 115.57872164947912,43.107035759763676 114.02886597940233,43.74784011718293 113.15595876285806,44.68615622690413" stroke="#4DD2FF" stroke-linecap="round" stroke-linejoin="round" stroke-width="0.5"><title>2024-12-15 10.9km</title><desc>1734216782000</desc></polyline><polyline fill="none" points="144.40000000002328,61.27651977393543 145.40424143569544,62.22703477040341 148.54029363789596,62.45334703680419 150.30212071782444,62.90597061434528 152.09918433940038,62.43071582452103 152.39869494293816,60.4391566702252 154.60097879287787,59.352841282234294 157.29657422518358,58.58336344278359 157.57846655801404,58.696522179525346 157.6137030995451,61.23125701484969 158.1070146819111,63.10965080863389 159.86884176183958,64.80697572987992 160.82022838504054,64.82960660787649 162.5115823817905,64.03752398515644 164.520065252902,63.74332087456423 167.90277324640192,64.71645218624326 170.17553017952014,63.4717482948181 172.39543230016716,62.99649517693615 175.9014681892004,63.381223999735084 177.29331158241257,61.797040586869116 178.17422512243502,61.887565773693495 179.77748776518274,62.747552507091314 181.90929853182752,62.49860945195542 183.33637846657075,61.52546472068934 184.97487765096594,59.78284200068447 186.01435562816914,58.040200398361776 187.14192495925818,55.030138608199195 187.54714518762194,52.02002047734277 187.17716150090564,48.987212897860445 185.97911908652168,45.61484477095655 184.55203915177844,43.84941580360464 182.96639477985445,43.23830126054236 181.32789559545927,43.35147079557646 179.97128874401096,44.03048633332946 178.1566068516113,46.135416279008496 176.16574225132354,49.98306646983838 175.4786296901293,53.96641908944002 175.97194127249531,57.74598631664412 177.75138662324753,61.61599006036704 179.91843393153977,62.724921336208354 182.085481239832,62.43071582452103 185.02773246332072,59.66968402835482 186.08482871134765,57.97230488878267 187.2828711256152,54.486963562783785 187.56476345844567,52.08791849989211 187.2123980424367,48.783514816488605 185.750081566046,45.09427157767641 184.62251223495696,43.84941580360464 182.71973898867145,43.170399501294014 181.31027732463554,43.26093517389381 180.46460032637697,43.668345069978386 178.70277324633207,45.34324157598894 176.46525285486132,49.123011475327075 175.63719412719365,52.4953060332773 175.70766721048858,56.1843794882443 176.28907014685683,58.96810282264778 178.19184339314234,61.978090909527964 178.19184339314234,62.521240654663416 179.74225122353528,63.381223999735084 180.69363784661982,64.87486835413438 180.14747145201545,64.24120274643064 180.28841761837248,63.33596183305781 180.8698205546243,62.747552507091314 181.7683523654705,62.61176543383044 182.98401305056177,61.81967188832641 184.97487765096594,59.737578821295756 186.08482871134765,57.97230488878267 187.2828711256152,54.46433122942108 187.56476345844567,51.001546698767925 186.52528548124246,46.837053471273975 185.4505709625082,44.64159786576056 184.30538336059544,43.62307735472859 182.71973898867145,43.14776557519508 180.90505709627178,43.50990801084845 179.49559543235227,44.551062970393104 178.1037520391401,46.20331678623916 176.11288743885234,50.164130093035055 175.49624796083663,54.07958107479499 176.35954323003534,59.05862960187369 177.76900489395484,61.593358730271575 179.09037520398851,62.5438718542282 180.46460032637697,62.83807715889998 181.9621533442987,62.521240654663416 185.0101141926134,59.714947226821096 186.7895595432492,56.16174739379494 187.4590538336197,53.762727315101074 187.60000000009313,51.386304217696306 186.9657422512537,48.217685459094355 185.78531810769346,45.27534070558613 184.0939641109435,43.487274132465245 182.84306688420475,43.12513164585107 181.08123980427627,43.39673858731112 179.54845024482347,44.52842923864955 177.92756933125202,46.58808578574099" stroke="#4DD2FF" stroke-linecap="round" stroke-linejoin="round" stroke-width="0.5"><title>2024-12-10 11.3km</title><desc>1733785667000</desc></polyline><polyline fill="none" points="12.400000000023283,110.22497623624804 14.977181208145339,108.75595427706139 15.959731543727685,108.52835801249603 16.81342281884281,109.29390768361918 17.795973154483363,109.45943141273165 21.45234899339266,109.99738224562316 23.030872483330313,109.58357408731536 23.417449664499145,107.76280435554509 27.943624161183834,105.94201207642618 28.153020134253893,106.04546678737097 28.378523490042426,109.66633581215865 30.311409396003,111.81812430710124 31.00402684567962,111.90088477420795 32.485906040354166,111.13534867607814 34.273825503420085,110.80430480468203 37.656375838967506,111.69398351907148 39.927516778581776,110.47326018790773 41.47382550337352,110.1629051828495 44.8402684564353,110.55602141196141 46.32214765105164,109.0249312264059 48.126174496661406,109.83185912207409 50.22013422829332,109.81116871854465 51.86308724840637,108.63181090372382 54.32751677854685,105.34197331749601 55.197315436264034,102.85902828353574 55.53557046985952,100.54157508676872 55.05234899331117,96.56871319041238 53.844295302114915,93.79592304720427 52.87785234907642,92.65782240276167 51.138255033642054,92.11980812207912 49.64026845636545,92.22327255974233 48.899328859115485,92.595743932412 46.41879194637295,95.45132643854595 44.872483221523,99.05176445639518 44.56644295307342,101.41062431622413 44.95302013424225,105.32128228216607 46.370469798799604,108.48697683568753 46.966442953038495,109.2111457491701 48.190604026895016,109.85254952269315 49.33422818797408,109.99738224562316 50.381208053731825,109.74909749042126 52.233557047031354,108.21799890228431 54.182550335652195,105.56957451433118 55.37449664436281,102.17621104816499 55.583892617491074,99.5483696772717 55.03624161082553,96.52732864735299 53.61879194638459,93.48553283611545 52.47516778524732,92.45089406629268 50.68724832223961,92.0991152257775 49.720805369259324,92.1611939058348 48.931543624261394,92.61643675880623 46.998657718184404,94.62362707286957 45.275167785352096,97.74816777078377 44.53422818798572,101.61754004232353 44.93691275175661,105.05229855746438 46.41879194637295,108.54904859658564 47.88456375838723,109.70771665709617 49.07651006721426,109.99738224562316 50.41342281881953,109.7697879026673 52.620134228258394,107.80418573621137 54.16644295305014,105.69372047322395 54.794630872493144,104.328109160444 55.35838926181896,102.19690252612054 55.600000000034925,99.58975336997537 55.03624161082553,96.46525181086326 53.34496644302271,93.071678201959 52.49127516779117,92.43020121660084 50.83221476507606,92.0991152257775 49.17315436253557,92.45089406629268 47.69127516786102,93.83730835915776 46.41879194637295,95.57548094149388 46.885906040261034,96.29971345223021" stroke="#4DD2FF" stroke-linecap="round" stroke-linejoin="round" stroke-width="0.5"><title>2024-12-08 8.9km</title><desc>1733614342000</desc></polyline><polyline fill="none" points="78.40000000002328,109.44911920913728 78.92870114493417,109.0766893249529 79.8326095539378,109.03287398592511 80.7194630872691,109.88727087341249 83.77228582708631,110.10634624310478 85.5971575207659,110.61021842363698 87.28559020924149,110.04062366456492 87.54141334391898,108.22228798898868 89.74149230163312,107.17071067696088 92.12917489145184,106.49156322113413 92.53849190683104,106.6887353684142 92.7772601658362,109.90917842427734 93.64705882349517,111.57414326848811 94.87500986974919,112.47234059344919 99.18989340704866,111.37697730850778 100.5713383340626,111.59605058193847 102.66908803791739,112.47234059344919 105.36375838925596,110.96073723954032 107.12041058036266,110.6540333187877 110.24145282275276,111.15790372664924 111.74228187918197,109.51484203743166 114.64161073823925,110.56640351608803 116.34709830238717,110.12825376310502 118.15491512039443,108.59471991707687 120.21855507307919,105.79050467534398 121.3782866167021,102.39470766248996 121.60000000003492,99.50274470658042 121.2418476116145,97.22419059823733 120.62787208840018,95.20851877745008 119.22937228583032,92.55743240442825 117.54093959735474,91.659120168566 115.85250690882094,91.61529992695432 114.57339123572456,92.05350178858498 112.98728780099191,93.54337889095768 110.54844058438903,97.96910618770926 109.88330043427413,102.50425065778836 110.30967232532566,105.59333139058435 111.4864587446209,108.46327345594182 112.42447690485278,109.69010277702182 113.77181208052207,110.41305124283826 115.32380576391006,110.47877366418834 116.90990919864271,109.75582550358376 118.71772601659177,107.959394326841 120.0991709435475,105.87813716630626 121.32712198974332,102.56997641791531 121.56589024874847,99.59038073701959 121.2418476116145,97.0489158238488 120.3720489537809,94.485499698887 119.1440979076433,92.51361241564155 118.30840900121257,91.92204135967768 116.46648243191885,91.52765940656536 114.55633636005223,92.14114201290067 112.42447690485278,94.28831209463533 110.65076983813196,97.70619521023764 109.88330043427413,101.14591206764453 110.22439794708043,105.11135119856044 111.11125148046995,107.76222378897364 112.0322147650877,109.29576583526796 113.27722068695584,110.21588381243055 114.3346229767194,110.50068113177258 115.59668377414346,110.50068113177258 116.92696407419862,109.82154820235155 119.84334780892823,106.29439082428871 121.34417686541565,102.32898182825011 121.56589024874847,99.83137956634164 121.32712198974332,97.57473955498426 120.95191472565057,95.8438964074885 119.72396367945476,93.28046043845825 118.68361626530532,92.11923196142016 117.57504934858298,91.63721004934632 115.97189103829442,91.57147967292985 114.64161073823925,92.05350178858498 113.29427556256996,93.25855054739804 111.87872088432778,95.23042839410482 110.77015396766365,97.37755586396088 110.10501381766517,99.67801671808411 109.90035530994646,102.32898182825011 110.12206869322108,104.6074612204684 111.65700750099495,108.79188940064341 112.37331227795221,109.64628761063796 113.60126332414802,110.36923627990473 115.17031188315013,110.54449605777336 116.2277141729719,110.25969881849596 117.40450059220893,109.47102682167315 119.12704303197097,107.45551356695069 121.0371891038958,103.709218518954 121.54883537307614,99.45892667291628 121.08835373079637,96.67645627300953 120.40615870512556,94.70459674402082 119.63868930120952,93.21473075597896 118.64950651401887,92.11923196142016 117.06340307940263,91.57147967292985 115.47729964466998,91.659120168566 114.5392814844381,92.11923196142016 112.69735491508618,94.02539490042545 110.71898934070487,97.57473955498426 109.93446506123291,101.3649997386965 110.56549545994494,106.42583911662223 112.45858665619744,109.73391793112387 113.73770232929382,110.41305124283826 115.0850375049049,110.50068113177258 116.2277141729719,110.21588381243055 117.59210422425531,109.1862276187021 119.45108566916315,106.95163117619813 120.79842084489064,104.36646978488716 121.34417686541565,102.37279905413743 121.60000000003492,99.43701765137666 121.15657323336927,96.65454685990699 119.34875641524559,92.75462220131885 117.55799447296886,91.6810302848171 116.07422029215377,91.52765940656536 114.76099486777093,91.9658615149383 112.78262929338962,93.89393613678112 112.1686537702335,94.11303401453188" stroke="#4DD2FF" stroke-linecap="round" stroke-linejoin="round" stroke-width="0.5"><title>2024-12-07 13.6km</title><desc>1733525549000</desc></polyline><polyline fill="none" points="144.40000000002328,112.70375094570045 144.7307420494035,114.10902316228021 146.1300353356637,116.13521464569203 147.45300353353377,117.47510575561319 148.44522968190722,117.63850658165757 151.1674911659211,116.49469838515506 153.7879858656088,116.03717352931562 159.20706713781692,117.2790246126242 162.15830388700124,115.71036950897542 164.8805653710151,114.89335744646087 170.73215547704604,115.51428687613225 172.66572438168805,113.22664392658044 177.16890459368005,114.6972741237405 178.61908127204515,114.56655181666429 180.39999999990687,113.61881288967561 183.6310954063665,110.28535559483862 185.84452296816744,106.59235194171197 186.86219081270974,103.48756891745143 187.54911660775542,98.35641545936232 186.53144876321312,93.19246502997703 184.41978798585478,88.42061128142814 182.8169611307094,86.98249914134794 179.73851590103004,86.36149341835699 176.96537102456205,87.27665916738624 173.58162544167135,91.06802170420997 171.19010600703768,95.64372163971711 170.19787985866424,101.72272637933202 171.06289752654266,108.45520183243207 173.4035335688386,112.80179346924706 174.98091872781515,114.01098119064409 177.19434628961608,114.6319129793992 180.12014134274796,113.8475778123393 183.6310954063665,110.28535559483862 185.46289752644952,107.5074379658763 186.6332155476557,104.50071320368443 187.59999999997672,98.35641545936232 186.32791519432794,92.2773225956189 184.39434628968593,88.42061128142814 183.42756183748133,87.40739683702122 181.44310954061802,86.5902851937426 179.00070671376307,86.39417797148053 177.16890459368005,87.14592142404581 175.6932862190297,88.42061128142814 173.5561837456189,91.06802170420997 171.64805653714575,94.46712169625971 170.40141342754941,98.94470632325101 170.19787985866424,101.46126708480006 170.80848056520335,107.80157199357927 173.58162544167135,112.99787839229975 175.03180212003645,114.01098119064409 177.19434628961608,114.6645935538254 178.82261484104674,114.5011906354921 180.90883392223623,113.22664392658044 183.52932862192392,110.44876147930336 185.6155477031134,107.11525868279568 187.2183745582588,102.14759710502403 187.54911660775542,98.25836683706439 187.01484098937362,96.78763253591023 187.16749116615392,95.25152232089022 185.89540636038873,91.16607336243032 184.29257950524334,88.25718989591405 182.74063604243565,86.98249914134794 181.01060070679523,86.39417797148053 178.36466431093868,86.4922316033626 176.99081272084732,87.24397473841964 173.19999999983702,91.78706623648759" stroke="#4DD2FF" stroke-linecap="round" stroke-linejoin="round" stroke-width="0.5"><title>2024-12-05 7.7km</title><desc>1733352101000</desc></polyline><polyline fill="none" points="12.400000000023283,158.28055622700776 15.010810810839757,156.73911628243513 15.772972972947173,156.61413396181888 16.372972972982097,157.38485659116122 19.421621621586382,157.67648032344005 21.156756756769028,158.21806573061622 23.037837837822735,157.67648032344005 23.28108108107699,155.8850683218334 25.956756756757386,154.67689449842146 27.77297297300538,154.28111127404554 28.048648648662493,154.65606382876285 27.983783783740364,156.8432681356644 28.48648648650851,158.07225446973462 29.36216216214234,159.42621065255662 30.254054054035805,159.96778965828707 34.162162162188906,158.94711988055496 37.50270270270994,159.82198012089066 39.57837837835541,158.71798896313703 41.57297297293553,158.2597260644834 44.86486486485228,158.6554986514093 45.70810810814146,157.40568687683844 46.22702702705283,157.1348929349042 47.08648648648523,157.82229197413835 49.016216216259636,158.11391484462365 50.248648648674134,157.92644306526927 51.335135135101154,157.25987481580523 52.66486486478243,155.8850683218334 54.12432432436617,153.78117305701016 54.88648648641538,151.8438965175592 55.583783783833496,147.6567928607692 54.610810810816474,143.38624174961296 52.92432432435453,140.69885617682303 51.09189189190511,140.07387579434726 49.827027027029544,140.21970478631556 48.85405405407073,140.636358257354 46.956756756757386,142.65711095259758 45.189189189171884,145.84442768296867 44.475675675668754,149.69828108172806 44.897297297255136,153.69784985673323 45.610810810816474,155.48928832777892 46.72972972976277,157.1348929349042 48.22162162163295,157.9681034812529 49.63243243243778,158.05142427791725 51.01081081078155,157.44734743933077 52.34054054063745,156.19752546440577 54.610810810816474,152.71879873954458 55.21081081073498,150.594027229934 55.55135135137243,147.74011946178507 54.6270270270179,143.59456417476758 53.5567567567341,141.4071640866605 52.89189189183526,140.6780235399492 51.09189189190511,140.0530430695071 50.08648648648523,140.1363739513472 49.178378378390335,140.44886434060754 47.96216216211906,141.44882915222843 45.416216216166504,145.30279700097162 44.475675675668754,149.84410059150832 44.881081081111915,153.63535742566455 45.62702702707611,155.55177997610008 46.7459459460224,157.17655357361946 47.686486486461945,157.78063151716196 49.30810810811818,158.13474502769532 50.394594594603404,157.84312219827552 51.70810810808325,156.86409849755 54.52972972969292,152.94793894313625 55.48648648650851,148.90668695050408 55.19459459464997,145.17780502363166 53.475675675668754,141.28216881945264 52.827027027029544,140.65719090015045 51.12432432436617,140.0530430695071 50.00540540541988,140.17803937474673 48.70810810808325,140.78218669509806 46.92432432429632,142.6779433109332 45.44864864856936,145.26113302024896 44.55675675679231,148.53171983179345 44.459459459467325,150.67735217747395 44.83243243244942,153.65618823896511 46.551351351314224,157.00991094844358 48.44864864862757,158.03059408311674 49.94054054049775,157.9681034812529 50.897297297255136,157.50983826105949 52.03243243240286,156.57247316488065 53.540540540532675,154.61440248067083 54.52972972969292,152.9687698531343 54.983783783740364,151.57309240082395 55.55135135137243,147.59429787921545 54.57837837835541,143.42790625810449 53.50810810807161,141.30300137129962 52.259459459455684,140.32386826402217 51.12432432436617,140.0530430695071 49.64864864863921,140.24053748775623 48.07567567570368,141.36549900932005 46.6972972973017,143.03209295398847 45.0918918918469,146.1569060209731 44.605405405396596,148.32340435542574 44.475675675668754,150.7190146335779 44.881081081111915,153.67701904928253 45.65945945947897,155.59344106039498 46.50270270270994,156.98908060706162 47.378378378401976,157.6348198254418 49.03243243240286,158.11391484462365 50.31351351347985,157.8639524193859 51.41621621622471,157.1348929349042 53.13513513508951,155.3226438032143 54.54594594595255,152.92710803015507 55.24324324331246,150.4690397207014 55.55135135137243,147.61512954271166 54.48108108108863,143.24041587756074 53.540540540532675,141.34466646621877 52.90810810809489,140.6780235399492 51.40000000002328,140.03221034172748 50.00540540541988,140.1155412352964 48.51351351349149,140.8446845530416 47.118918918888085,142.4487872079917 45.35135135136079,145.44862084109627 44.459459459467325,150.03158260732016 44.881081081111915,153.65618823896511 45.6756756757386,155.61427159812592 46.58378378377529,157.05157162231626 47.81621621618979,157.88478263760044 49.00000000005821,158.0930846586707 50.524324324331246,157.73897104845673 53.20000000001164,155.28098264271102 54.52972972969292,152.9687698531343 54.95135135133751,151.65641679722467 55.600000000034925,147.3234859876393 54.80540540540824,143.99037597469578 54.043243243242614,142.24046317017928 53.15135135134915,140.948847590902 52.21081081079319,140.32386826402217 50.5567567567341,140.0530430695071 48.951351351395715,140.55302765699162 47.70270270266337,141.67798680337728 46.51891891891137,143.49040299881017" stroke="#4DD2FF" stroke-linecap="round" stroke-linejoin="round" stroke-width="0.5"><title>2024-12-03 16.2km</title><desc>1733178751000</desc></polyline><polyline fill="none" points="78.40000000002328,167.49962450563908 81.38617511512712,166.0383723829873 83.71823568129912,165.7095895219536 86.56221198150888,166.0018409745535 90.00342330476269,167.24390597786987 93.38775510189589,165.30774323744117 96.77208689926192,164.50404880251153 102.65911784069613,165.34427474357653 105.07649769575801,162.4948018300638 106.01500987482723,162.45826992290677 109.14338380505797,164.02913728510612 111.67452271236107,164.02913728510612 113.69374588527717,163.00624798919307 115.684529295424,161.14311784444726 117.24871626065578,159.49916837763158 119.97893350874074,154.71338955374085 121.5715602368582,146.85867582718492 119.97893350874074,138.74797782470705 118.0734693876002,134.8021412162052 116.28176431858446,133.23109698251938 113.66530612239148,132.6099838486989 110.87820934818592,133.01188075204846 108.60302830813453,134.72906960223918 105.47465437778737,138.565301528055 103.39855167875066,142.73028914173483 102.51691902568564,146.31066367469612 102.14720210665837,149.087246662064 102.46003949956503,154.0192616348504 103.11415404872969,157.05149099382106 105.27557603677269,161.36231032019714 106.86820276489016,163.18890708766412 109.9396971691167,164.1752639983606 111.47544437122997,164.1387323277304 113.89282422629185,162.86012061790098 117.22027649765369,159.5357007010607 119.4385780118173,155.99204138785717 121.08808426582254,151.02353037922876 121.59999999997672,145.79918462201022 120.34865042788442,139.62482225877466 118.55694535875227,135.5693919211626 116.93587886763271,133.63299292413285 112.78367346932646,132.50037549436092 109.99657669500448,133.45031302777352 105.47465437778737,138.4922309734102 103.11415404872969,143.6436546840123 102.11876234353986,150.5120606122655 103.02883475960698,156.90536027075723 104.82053982873913,160.74126449174946 106.61224489787128,163.07931164395995 108.6883475970244,163.91954219620675 111.39012508222368,164.10220065203612 115.05885450949427,161.87375871051336 119.69453587883618,155.33444980261265 121.14496379194316,150.11019080271944 121.59999999997672,145.72611610373133 120.09269256086554,138.8941187693854 118.0734693876002,134.838677015563 116.08268597745337,133.0849528494291 112.72679394332226,132.50037549436092 110.62225148116704,133.01188075204846 109.02962475304957,134.1810318416974 105.50309414090589,138.4922309734102 103.37011191563215,142.73028914173483 102.00500329164788,150.25632535092882 103.11415404872969,156.90536027075723 105.04805793275591,160.9604573067627 106.78288347588386,163.07931164395995 108.88742593803909,163.91954219620675 111.41856484522577,163.9926055938995 113.4662277813768,163.2254388918809 115.45701119152363,161.508438534569 119.29637919680681,156.06510701676598 121.17340355482884,150.40245981686166 121.54312047397252,145.8722531198291 120.77524687279947,141.195827795862 119.49545753770508,137.43270561972167 116.67992100061383,133.413777033129 112.66991441720165,132.53691161761526 109.51310072396882,133.7426008002367 105.64529295579996,138.30955449686735" stroke="#4DD2FF" stroke-linecap="round" stroke-linejoin="round" stroke-width="0.5"><title>2024-12-01 10.0km</title><desc>1733006314000</desc></polyline><polyline fill="none" points="163.12027742550708,171.35173924898845 166.5991369113326,171.20278271465213 168.95703056268394,169.86217107489938 176.33994347113185,160.4280932759866 179.0843770650681,150.00066117814276 178.5432211451698,141.50952453908394 175.18032364244573,132.57126519308076 172.89973797975108,130.13803315736004 169.9620344140567,128.7972654766636 166.4058669398073,128.64829097528127 162.84969946555793,130.33666497305967 157.51544825430028,136.64316697779577 154.69370667170733,142.4529942573572 153.37947086594068,147.41858277015854 152.8769689402543,151.73858792855754 153.34081687149592,158.54124744678847 156.355828425847,166.68440462026047 158.36583612882532,169.56425668555312 162.19258156279102,171.45104357035598 164.89836116251536,171.60000000000582 168.0679886941798,170.3090421873494 171.50819418532774,167.28023801039672 175.79878755100071,161.17289806247572 178.4272591623012,154.37028928272775 179.1616850537248,145.63097895632382 177.77014125930145,138.2321890721505 176.33994347113185,134.75619394506793 173.78877984825522,130.932559748966 171.39223220269196,129.1945305057161 166.36721294559538,128.5489746060921 164.51182121993043,129.1945305057161 160.9943077401258,132.22366164403502 157.51544825430028,136.64316697779577 155.31217058026232,140.76467824267456 153.65004882588983,145.9289135542931 152.95427692891099,152.3841013983183 153.34081687149592,158.29297750763362 156.2785204371903,166.68440462026047 158.21122015151195,169.3656469528505 160.72372977994382,170.95452168409247 164.20258926553652,171.55034786375472 167.48817877983674,170.75591273393366 172.78377599688247,165.6913467340055 176.5718674364034,159.73294072333374 178.15668120211922,155.31372461098363 179.23899304214865,145.9289135542931 177.77014125930145,138.08321855484974 176.33994347113185,134.607221960061 173.98204981954768,130.932559748966 171.4695401911158,129.14487240154995 167.10163883701898,128.5489746060921 164.24124325974844,129.34350477639236 162.38585153431632,130.6842703813454 157.39948627143167,136.69282402654062 154.61639868305065,142.50265048837173 153.45677885436453,146.6737489484367 153.26350888307206,157.15093353725388 153.92062678583898,160.92462997499388 156.31717443163507,166.58509895738098 157.8246802086942,168.96842715208186 160.76238377438858,170.95452168409247 163.70008733985014,171.60000000000582 167.21760081965476,170.75591273393366 169.53684047679417,169.26634204460424 173.17031593970023,165.19481674270355 176.99706137366593,158.98813289715326 178.5432211451698,154.12201640859712 179.31630103080533,146.72340458538383 177.77014125930145,138.1328754009155 174.94839967647567,132.32297697869944 172.24262007675134,129.54213703944697 167.0243308483623,128.49931641109288 165.09163113427348,128.94623991503613 162.77239147713408,130.43598083898542 158.94564604293555,134.50790726824198 154.42312871175818,143.09852471610066 153.22485488886014,148.21307044677087 152.95427692891099,153.57581547053996 153.84331879741512,160.7756690387032 155.11890060873702,164.20175466418732 157.78602621448226,168.86912213204778 160.76238377438858,171.0041739041335 163.93201130558737,171.60000000000582 167.3335628027562,170.80556498188525 170.3099203624297,168.52155434183078 174.13666579662822,163.90383549570106 177.73148726508953,157.10127936775098 179.1616850537248,150.79514304053737 179.20033904816955,145.43235575134167 176.49455944797955,134.9051658671524 174.5618597336579,131.5781112870609 172.0106961110141,129.24418860301375 168.45452863676473,128.40000000002328 164.24124325974844,129.44282092206413 160.8010377686005,132.27331931493245 157.43814026587643,136.64316697779577 154.1525507515762,143.79371004307177 152.68369896896183,152.5827206899121 153.65004882588983,160.62670803934452 156.51044440292753,167.28023801039672 158.40449012303725,169.41529939643806 161.45815567160025,171.30208707784186 165.05297713982873,171.45104357035598 168.02933469973505,170.25938986957772 174.0980118024163,163.7548758169578 176.06936551094986,160.82532269100193 178.19533519656397,155.46268785334541 179.2776470365934,146.42547065851977 178.6205291338265,141.65849360977882 176.5332134424243,135.10379499886767 174.36858976236545,131.37948017049348 171.31492421380244,129.0952142905444 167.25625481409952,128.44965820910875 163.39085538568906,129.79042721088626 157.36083227721974,136.74248106835876 158.5591061001178,138.92738398804795" stroke="#4DD2FF" stroke-linecap="round" stroke-linejoin="round" stroke-width="0.5"><title>2024-11-29 13.9km</title><desc>1732833187000</desc></polyline><polyline fill="none" points="12.400000000023283,206.17027065101138 15.008852213155478,204.71324544210802 15.883870967838448,204.60917166371655 16.645461365347728,205.4001305429847 21.425656414125115,206.08701245424163 23.04606151545886,205.52501840048353 23.272918229631614,203.85983829770703 25.395648912293836,202.79827619770367 27.631807952013332,202.11137901441543 28.004501125309616,202.36116017741733 27.955888972326647,204.98383692320203 28.344786196597852,206.06619789771503 29.47906976751983,207.43995234488102 30.69437359343283,207.98112483629666 32.47681920486502,207.14855095245002 34.14583645912353,206.8779634312814 35.86346586648142,207.1277365453425 37.33803450863343,207.77298180467915 39.00705176295014,206.91959231293004 41.24321080278605,206.27434333102428 42.71777944493806,206.1910851928551 44.88912228064146,206.60737541507115 45.90997749438975,205.3168719127425 46.687771943048574,205.10872513217328 48.842910727718845,206.06619789771503 50.52813203306869,205.7123499889276 53.007351837994065,203.46435526857385 54.174043510865886,201.65344578678196 55.22730682673864,198.78092320126598 55.583795949060004,195.61692071655125 54.93563390854979,192.22386915658717 53.75273818458663,189.5385155017284 52.2619654914015,188.28949718852527 50.560540135076735,188.0188751636888 49.264216054056305,188.3519483547425 48.16234058520058,189.18462805062882 46.396099024801515,191.47447304136585 45.213203300896566,193.7642825799703 44.532633158320095,197.03240387910046 44.90532633155817,201.5285546604864 46.428507126751356,204.79650441209378 47.48177044268232,205.64990615252464 48.90772693179315,206.04538333830715 49.91237809456652,205.96212507125165 51.04666166543029,205.42094519319653 53.007351837994065,203.42272541452257 54.174043510865886,201.65344578678196 55.243510877829976,198.73929202908766 55.53518379596062,195.2214156468981 54.38469617406372,190.7667065570713 53.62310577649623,189.3719803361164 52.35918979748385,188.28949718852527 51.16009002254577,188.0188751636888 49.81515378848417,188.16459477701574 48.77809452364454,188.72665479799616 47.271117779484484,190.14220390516857 45.19699924986344,193.82673143442662 44.467816954304,198.1356387151318 44.970142535690684,201.632630606342 46.49332333088387,204.81731914730335 47.384546136599965,205.6082769134955 48.32438109529903,205.98293964240293 50.46331582899438,205.7747937990789 53.13698424608447,203.29783578203933 54.78979744942626,200.27963759726845 55.600000000034925,195.72100082230463 55.06526631664019,192.57774933548353 53.57449362339685,189.30952960062132 52.310577644442674,188.28949718852527 51.04666166543029,188.0188751636888 49.65311327832751,188.22704599598364 48.372993248282,188.97645856616145 47.271117779484484,189.99648624029942 45.74793698423309,192.68183157994645 44.87291822960833,195.03407077111478 44.500225056370255,197.32382520157262 44.953938484657556,201.59100023674546 46.234058514703065,204.5050978121144 47.416954238608014,205.6082769134955 48.82670667662751,206.06619789771503 49.91237809456652,206.00375421065837 51.1114778695046,205.4001305429847 53.169392348092515,203.31865072813525 54.174043510865886,201.632630606342 55.37314328586217,198.3021640133229 55.56759189796867,195.679368788813 55.35693923482904,194.03489409211033 54.141635408916045,190.079753494967 52.94253563397797,188.6850207956595 51.82445611408912,188.08132644413854 50.52813203306869,188.0188751636888 49.15078769699903,188.43521653526113 47.19009752443526,190.30873820353008 46.687771943048574,191.20385684435314" stroke="#4DD2FF" stroke-linecap="round" stroke-linejoin="round" stroke-width="0.5"><title>2024-11-27 11.3km</title><desc>1732665796000</desc></polyline><polyline fill="none" points="78.40000000002328,206.72712718819093 79.23416264384286,206.54167446344218 81.43186037876876,205.22289275848016 82.24998143338598,205.16107457468752 83.05206089862622,205.9234970179823 87.8645376903587,206.54167446344218 89.38848867436172,206.1089505256532 89.56494615669362,204.5634974521381 89.99806906795129,204.15137387788855 92.27597474935465,203.07984715649218 94.0245079837041,202.72953864306328 94.36138135910733,203.16227256729326 94.53783884149743,206.52106859066407 94.93887857411755,207.0156087376381 105.81507612328278,207.24227241358312 108.06089862610679,206.72712718819093 110.98046787967905,207.09803193315747 112.07129595254082,205.77925523856538 112.84129223920172,205.51137727130845 114.67003342002863,206.45925095483835 116.62710731534753,206.29440379844164 118.21522465656744,204.9962259568565 120.41292239143513,201.92588653381972 121.35937616042793,198.93791051961307 121.55187523213681,197.14509564382024 120.97437801712658,192.9205599939305 120.09209060535068,190.7567262368102 119.32209431868978,189.64388499503548 118.45584849617444,189.04624454087752 116.51481619011611,188.75772758643143 115.08711474190932,189.2935443350725 114.18878574081464,190.05604940417106 112.68087634613039,191.993206585219 111.4937987375306,194.23945250280667 110.70776086149272,197.7427030414401 111.18900854070671,202.46165509671846 112.69691793539096,205.4289531827526 114.20482733019162,206.39743329297926 115.85711102868663,206.54167446344218 116.96398069075076,206.129556456508 118.32751578174066,204.89319547651394 120.79792053473648,200.97798350489757 121.58395841071615,196.85659464789205 120.92625324922847,192.75569759502832 119.97979948017746,190.63307762765908 119.14563683624147,189.52023544609256 117.7660601560492,188.8607694211969 116.25815076130675,188.77833595921402 115.03898997406941,189.33476092679484 113.61128852586262,190.65368573642627 111.52588191616815,194.09519921330502 110.70776086149272,198.34030800002802 110.8360935759265,201.03980345469608 111.34942443371983,202.8119642510719 112.7931674713036,205.55258929818228 114.44545116974041,206.47985683636216 115.93731897516409,206.50046271493193 116.70731526182499,206.29440379844164 118.23126624588622,204.95501377340406 120.65354623098392,201.26647638065333 121.29520980326924,199.1233728745865 121.60000000003492,196.27959095065307 120.76583735609893,192.36414865353436 119.97979948017746,190.61246951593785 118.90501299669268,189.33476092679484 117.65376903081778,188.79894432908623 116.2902339398861,188.75772758643143 115.08711474190932,189.25232773170865 113.69149647234008,190.5300370402838 112.56858522089897,192.07563823719101 111.39754920167616,194.42492080907687 110.80401039734716,196.65052215989272 110.65963609365281,198.85548273085442 111.33338284445927,202.87378342656302 112.64879316755105,205.38774112108513 113.29045673977816,205.94410297489958 114.70211659866618,206.52106859066407 116.46669142221799,206.37682739981392 119.01730412186589,204.00713035286753 120.87812848133035,200.64827666518977 121.60000000003492,196.54748580715386 120.76583735609893,192.32293291461247 119.09751206834335,189.43780235541635 117.84626810252666,188.8607694211969 116.54689936875366,188.75772758643143" stroke="#4DD2FF" stroke-linecap="round" stroke-linejoin="round" stroke-width="0.5"><title>2024-11-24 10.4km</title><desc>1732400098000</desc></polyline><polyline fill="none" points="144.40000000002328,206.3035139968997 146.98876404494513,204.74475527014874 147.79775280907052,204.68240457889624 148.73617977526737,205.40982767232344 153.49303370789858,206.11646381828177 155.09483146073762,205.65922905108891 155.32134831463918,203.91341055594967 156.7451685393462,203.26911518389534 160.06202247197507,203.37303398232325 160.45033707871335,206.09568045051128 161.3887640449684,207.36346053470334 162.27865168545395,207.92460562239285 163.03910112357698,207.9661718402931 165.11011235957267,207.05171234265435 166.64719101128867,206.906229627828 169.60808988771169,207.77912376726454 171.38786516856635,206.76074676969438 173.28089887643,206.24116396371392 176.9375280899112,206.5944804706378 178.21573033707682,205.0980753567128 179.0408988763811,205.78392958255426 180.82067415729398,206.03333032957744 181.92089887638576,205.97098018227553 183.03730337077286,205.49296151209273 185.0597752808826,203.4353852263739 186.12764044944197,201.75189239891188 187.32494382024743,198.3432802594325 187.5676404493861,195.64127571476274 187.17932584270602,192.93922173336614 185.51280898880213,189.23940608928388 184.28314606752247,188.3248306299938 182.5195505618467,188.0338281597069 181.45168539328733,188.34561649881653 180.44853932590922,189.07312006343273 177.82741573039675,192.648228355858 176.69483146071434,196.14011104381643 176.53303370787762,197.84445237195177 176.80808988766512,200.92053083820792 177.6170786516741,203.20676386964624 178.6040449438151,204.93180718594522 179.34831460681744,205.63844561896985 180.95011235959828,206.05411370612273 182.3901123594842,205.84627980878577 183.57123595505254,205.05650833157415 185.07595505617792,203.41460148133046 186.19235955056502,201.68954044421844 186.96898876409978,199.81896956186392 187.53528089891188,196.72208346484695 187.1631460674107,192.87686605784984 186.4350561798201,190.90225604923035 185.14067415730096,188.82369067362742 184.2022471909877,188.30404475827527 182.50337078649318,188.05461406943505 181.38696629210608,188.30404475827527 180.46471910114633,188.98997698028688 178.8791011236026,190.8398995136522 177.7303370787413,192.73136937932577 177.16404494387098,194.12397456521285 176.54921348323114,197.3248381975427 176.85662921349285,200.94131493427267 177.6332584269694,203.26911518389534 178.63640449440572,204.97337424616853 179.55865168542368,205.68001248028304 181.1442696629092,206.07489707978675 182.61662921356037,205.7215793299547 183.4903370786924,205.0980753567128 185.14067415730096,203.352250228505 186.20853932580212,201.62718846312782 187.4220224719029,197.90680595004233 187.5676404493861,195.59970602793328 187.1631460674107,192.89765128598083 186.41887640446657,190.86068502841226 185.3348314606701,188.98997698028688 184.23460674157832,188.28325888370455 182.87550561799435,188.05461406943505 181.4031460674596,188.44954579888145 180.06022471911274,189.40569192783732 178.57168539328268,191.2556092535815 177.27730337087996,193.87455370629323 176.6301123595331,196.57659057459387 176.56539325846825,198.8213220706093 176.90516853932058,201.3362122035469 177.6494382022065,203.352250228505 178.6202247190522,204.97337424616853 180.1411235954729,205.92941340283141 181.8238202247303,205.97098018227553 183.231460674142,205.30591030689538 185.1892134831869,203.28989894941333 186.35415730345994,201.35699624111294 186.96898876409978,199.8605380611407 187.47056179778883,197.42876117867127 187.59999999997672,195.66206055374641 187.17932584270602,192.85608082686667 186.0143820224912,189.96690525069425 185.3348314606701,189.03154852770967 183.86247191019356,188.1793294664967 182.01797752809944,188.13775767922925" stroke="#4DD2FF" stroke-linecap="round" stroke-linejoin="round" stroke-width="0.5"><title>2024-11-21 10.8km</title><desc>1732142576000</desc></polyline><polyline fill="none" points="12.400000000023283,253.93990888108965 14.748357870907057,252.4316371656896 15.514835787122138,252.34784384454542 16.46070215170039,253.14387849104241 19.24937712342944,253.31146419004654 21.010645526635926,253.7723238895269 22.65775764436694,253.43715334050648 23.01653454132611,251.5308564917359 27.56647791620344,249.85497096682957 27.84371460933471,250.21109821944265 28.120951302349567,253.45810152190097 30.09422423550859,256.0975487969117 30.81177802948514,256.39081782771973 30.909626274136826,255.63669629556534 33.61676104192156,254.65214299045329 35.149716874351725,254.69403900843463 37.53069082670845,255.42721741423884 39.53657984145684,254.31697442228324 40.85753114387626,253.96085699174728 42.4883352208999,253.87706453139253 44.836693091725465,254.29602636169875 46.108720271789934,252.87155132784392 48.587542468856554,253.70947946910746 50.44665911665652,253.47904970041418 53.007021517609246,251.17473239627725 54.19750849378761,249.24745780478406 55.208607021544594,246.54504162661033 55.600000000034925,243.21408906721626 55.192298980779015,240.46966334304307 53.46364665904548,236.71956470338046 52.2079275198048,235.81868894424406 50.626047565136105,235.63013286273053 48.538618346559815,236.489108632828 46.451189127983525,238.87745423300657 44.80407701025251,242.69034760679642 44.42899207252776,245.9794134269905 44.62468856177293,248.43045343649283 46.15764439414488,252.15930869954173 47.86998867499642,253.52094604852027 50.153114382817876,253.66758317402855 51.53929784829961,252.76680997860967 53.431030577630736,250.52532744077325 54.60520951304352,248.40950454754056 55.38799546996597,245.79087021613668 55.600000000034925,243.25598830438685 55.241223103017546,240.76296316353546 53.528878822224215,236.80336682237976 51.63714609283488,235.67203423482715 50.08788221969735,235.71393559513672 48.603850509622134,236.46815806330414 47.16874292190187,237.9765915343305 45.68471121182665,240.23921307863202 44.95084937720094,242.18755407107528 44.46160815405892,244.722454177303 44.70622876560083,248.63994216349965 45.701019252534024,251.30042335079634 46.77734994341154,252.89249958886649 48.34292185731465,253.68853132303047 50.120498301286716,253.66758317402855 51.60453001136193,252.6830168460874 53.121177802968305,251.0071442919143 54.57259343157057,248.49330008553807 55.241223103017546,246.39839748493978 55.600000000034925,243.27693791860656 55.3716874292586,241.58000961616926 54.73567383916816,239.0660062008683 53.528878822224215,236.82431734479906 51.76761041901773,235.6929849164153 50.83805209514685,235.60918217228027 49.435560588899534,235.8605902632844 48.65277463197708,236.38435575555195 47.16874292190187,237.93469081098738 45.52163080405444,240.72106322462787 44.771460928663146,242.92079407637357 44.46160815405892,245.05764434835874 44.67361268406967,248.38855565569247 46.1413363533793,252.13836033537518 47.10351075872313,253.14387849104241 48.34292185731465,253.68853132303047 49.875877689686604,253.70947946910746 50.82174405432306,253.35336058538815 53.447338618396316,250.5672246201575 55.078142695419956,247.15256581737776 55.600000000034925,243.19313944411988 54.6215175538091,238.81460352399154 53.496262740693055,236.80336682237976 52.61562853906071,236.09104730693798 51.65345413365867,235.6929849164153 49.810645526624285,235.734886270875 48.78323895810172,236.2377016035025 47.70690826722421,237.32712899717444 46.516421291045845,238.79365328176937 45.17916194797726,241.49621018640755 44.42899207252776,245.64422533150355 44.99977349943947,249.56168906022504 46.549037372577004,252.70396513366723 48.228765571897384,253.7304276121722 49.859569648921024,253.7723238895269 50.75651189131895,253.41620515609975 53.33318233292084,250.75576178148913 54.6215175538091,248.49330008553807 55.257531143841334,246.524092472333 55.583691959269345,243.109340922485 55.17599093995523,240.57441334531177 54.246432616142556,238.08134329105087 53.431030577630736,236.71956470338046 52.289467723690905,235.9443928658875 51.082672706688754,235.63013286273053 49.66387315967586,235.81868894424406 48.587542468856554,236.46815806330414 47.13612684037071,237.95564117416507 45.11392978479853,241.55905976316717 44.62468856177293,243.44453472594614 44.412684031703975,246.41934665683948 45.3911664779298,250.6510189435212 46.108720271789934,252.09646359817998 47.13612684037071,253.1648267137498 48.08199320494896,253.64663502211624 49.89218573051039,253.68853132303047 50.78912797285011,253.35336058538815 52.06115515285637,252.26405047623848 53.26795016991673,250.81860744890582 54.768289920757525,248.15811765060062 55.583691959269345,244.05207157085533 55.02921857306501,240.00876245749532 53.447338618396316,236.7405152375286 51.58822197059635,235.67203423482715 50.153114382817876,235.6929849164153 49.07678369199857,236.11199792957632 47.233975084964186,237.8508893289254 46.36964892409742,239.19170738008688" stroke="#4DD2FF" stroke-linecap="round" stroke-linejoin="round" stroke-width="0.5"><title>2024-11-17 16.3km</title><desc>1731797391000</desc></polyline></svg>