<?xml version="1.0" encoding="utf-8" ?>
<svg baseProfile="full" height="300mm" version="1.1" viewBox="0,0,200,300" width="200mm" xmlns="http://www.w3.org/2000/svg" xmlns:ev="http://www.w3.org/2001/xml-events" xmlns:xlink="http://www.w3.org/1999/xlink"><defs /><rect fill="#222222" height="300" width="200" x="0" y="0" /><text fill="#FFFFFF" style="font-size:12px; font-family:Arial; font-weight:bold;" x="10" y="20">Over 5km Runs</text><text fill="#FFFFFF" style="font-size:4px; font-family:Arial" x="10" y="280">ATHLETE</text><text fill="#FFFFFF" style="font-size:9px; font-family:Arial" x="10" y="290">sagasw</text><text fill="#FFFFFF" style="font-size:4px; font-family:Arial" x="65" y="280">SPECIAL TRACKS</text><rect fill="yellow" height="2.6" width="2.6" x="65" y="283" /><text fill="#FFFFFF" style="font-size:3px; font-family:Arial" x="70" y="285.5">Over 20.0 km</text><rect fill="red" height="2.6" width="2.6" x="65" y="287" /><text fill="#FFFFFF" style="font-size:3px; font-family:Arial" x="70" y="289.5">Over 40.0 km</text><text fill="#FFFFFF" style="font-size:4px; font-family:Arial" x="120" y="280">STATISTICS</text><text fill="#FFFFFF" style="font-size:3px; font-family:Arial" x="120" y="285">Number: 23</text><text fill="#FFFFFF" style="font-size:3px; font-family:Arial" x="120" y="290">Weekly: 2.3</text><text fill="#FFFFFF" style="font-size:3px; font-family:Arial" x="141" y="285">Total: 286.5 km</text><text fill="#FFFFFF" style="font-size:3px; font-family:Arial" x="141" y="290">Avg: 12.5 km</text><text fill="#FFFFFF" style="font-size:3px; font-family:Arial" x="167" y="285">Min: 7.7 km</text><text fill="#FFFFFF" style="font-size:3px; font-family:Arial" x="167" y="290">Max: 19.1 km</text><polyline fill="none" points="12.0,56.861157661922334 14.492926284438,55.552713103286806 14.988830975431483,55.5182801628107 16.30230826511979,54.46807082206942 16.999255398404785,54.26147120211681 16.489947877882514,54.3131211397922 15.52494415489491,54.89848557651567 15.417721519013867,55.22559977720812 16.731198808643967,54.3131211397922 17.253909158636816,54.19260458456847 17.89724497392308,54.43363757630141 17.924050632922444,54.072087910652044 17.414743112458382,53.74497062581213 17.160089352168143,54.10652125813067 15.417721519013867,54.95013524531532 16.329113924060948,53.4350692334483 17.50856291881064,52.677529191743815 17.34772896510549,52.93578200566117 17.54877140733879,53.40063569690392 17.200297840696294,52.86691464190517 16.36932241253089,53.40063569690392 15.591958302306011,54.41642094979761 15.243484735721722,55.50106368887646 15.618763961305376,56.03477325285348 18.822040208498947,56.39631711864058 19.63961280719377,56.7062110104016 20.993298585293815,56.379100768281205 21.234549516055267,54.69188668336574 23.58004467608407,53.65888698444178 25.094564408122096,53.50393627734593 25.34921816829592,56.46518249575456 27.011169024568517,58.221236515768396 30.308265078172553,57.34321265626204 32.975428145960905,58.13515602375992 35.736411020101514,56.895590224499756 37.478778853314,56.82672508964606 39.03350707376376,57.102185396484856 40.14594192110235,55.879825554802665 41.11094564414816,56.482398833970365 43.00074460165342,56.74064361658384 43.77810871193651,56.55126416267012 44.97096053615678,55.604362495847454 46.833953834779095,53.12516705607413 47.61131794494577,51.00748116722389 48.0,48.09775540496048 47.32985852577258,44.981345141801285 46.88756515266141,43.75886418799928 46.09679821296595,42.57080761193356 44.66269545798423,41.86485548564815 43.28220402094303,41.83041869239241 41.874906924844254,42.725772167505056 40.85629188385792,43.96548154511402 39.784065524931066,45.77336853417364 39.127326880116016,47.546793621746474 38.872673119883984,49.32019300128013 38.89947877888335,51.66172950119653 39.770662695518695,54.48528744135547 40.58823529415531,55.845392706360144 41.36559940438019,56.430749812047 42.49143708113115,56.671778394505964 43.764705882407725,56.482398833970365 44.542069992632605,56.00034044805216 45.89575577073265,54.45085420036776 46.87416232324904,52.901348328632594 47.5845122859464,50.86974423005449 47.97319434105884,47.994450259633595 47.6515264333575,46.13494272583921 46.833953834779095,43.74164605912665 46.056589724554215,42.57080761193356 45.10498883103719,42.01982093557308 43.831720029818825,41.77876348423888 42.61206254654098,42.14034948308836 40.44080416980432,44.568113510169496 39.75725986598991,45.687279283425596 39.04690990323434,47.822274823513 38.792256143002305,49.69897400300397 39.00670141476439,52.436492740234826 40.18615040957229,55.294465813291026 40.57483246474294,55.845392706360144 41.539836187672336,56.46518249575456 43.17498138494557,56.63734576894785 44.20699925546069,56.206937131770246 45.466865227150265,54.967351796716684 46.80714817577973,53.03908297860471 47.27624720777385,52.040503253243514 47.77215189876733,49.87114679787919" stroke="#4DD2FF" stroke-linecap="round" stroke-linejoin="round" stroke-width="0.5"><title>2025-01-30 9.1km</title><desc>1738201576000</desc></polyline><polyline fill="none" points="58.949389179761056,43.803224561903335 58.66666666668607,44.3631652768745 58.74912739964202,44.998770122278074 59.57373472949257,46.920695249020355 60.99912739964202,52.17176433874556 62.459860383940395,56.34822410182096 65.38132635253714,54.774504685468855 65.92321116931271,54.80476873759471 66.41797556716483,55.394916051511245 69.04493891797028,55.546235353918746 69.85776614310453,55.909400810924126 71.00043630017899,55.576499188864545 71.07111692841863,54.44159955003124 71.42452006979147,54.07842913591594 72.74389179755235,53.47314238676336 74.49912739964202,53.034307363137486 74.88787085516378,55.84887331996288 75.79493891797028,57.01402153743402 76.23080279229907,57.21073362726747 76.73734729492571,57.240996993779845 77.72687609074637,56.71138685043843 79.05802792322356,56.45414669688762 80.0239965096116,56.51467384718126 81.60253054101486,57.1048117774626 83.33420593367191,56.181774098855385 84.53577661426971,55.954796406840615 86.83289703313494,56.33309229402221 87.9755671902094,55.07714482337906 89.48342059337301,55.8337414418711 90.50828970328439,55.89426894139615 91.2739965096116,55.60676301524654 92.72294938919367,54.13895762345055 93.91273996501695,52.20202912334935 94.4075043630437,50.68877945620625 94.66666666668607,48.28266863476165 94.19546247815015,45.78570424886129 93.39441535779042,43.954560177822714 92.42844677134417,43.016275925205264 90.83813263522461,42.75900300621288 89.71902268758276,43.19787996800733 88.83551483420888,44.090762050036574 87.09205933683552,47.10229269721458 86.76221640483709,48.222136850592506 86.6208551482996,50.47692280334013 86.80933682370232,52.0053078709243 87.43368237343384,53.92710776801687 88.04624781844905,54.98635287146317 88.83551483420888,55.621894925279776 90.16666666668607,55.89426894139615 91.03839441534365,55.66729064257379 92.0279232111643,54.88042883062735 93.12347294937354,53.51853901112918 94.03054101223825,51.85398358565726 94.58420593367191,49.73542123136576 94.66666666668607,48.20700389927515 94.01876090746373,45.22577094218286 93.14703315880615,43.60648794271401 92.11038394412026,42.95574117611977 91.36823734728387,47.72274833114352 91.1090750436415,47.99514235655079 90.34336823731428,47.9497434002551 89.7779232111643,48.20700389927515 89.36561954626814,48.88798460196995 89.40095986035885,49.96241205158003 89.97818499128334,50.46179016935639 89.73080279229907,52.09610233981948" stroke="#4DD2FF" stroke-linecap="round" stroke-linejoin="round" stroke-width="0.5"><title>2025-01-29 7.9km</title><desc>1738124973000</desc></polyline><polyline fill="none" points="105.33333333331393,58.217748547845986 105.91639672988094,58.32474305476353 107.76554064475931,57.85396666114684 108.11537868267624,56.03504417433578 112.67993213009322,54.280298333396786 113.04642912227428,54.87948211666662 113.21301866415888,57.72557284636423 115.21209316671593,60.25063130729541 119.22690112597775,59.223493941070046 120.65957118617371,59.33048774044437 122.79191732220352,60.05804357957095 125.20746567944298,58.92391090250749 127.25651704455959,58.431737486462225 130.33842356927926,58.8597144602827 131.3379608205869,57.74697182305681 132.0876137589803,57.36178978237149 132.987197285227,57.982360367605 134.63643374975072,58.346141947142314 136.85207465669373,57.639976909573306 138.7845133425435,55.47866353896097 140.20052444853354,53.10332331417885 141.08344902045792,50.25714607196278 141.3000154249603,47.64632010075729 140.65031621151138,44.15801544254646 139.41755360161187,41.2688681739528 138.2847447168897,40.2202011415211 136.71880302322097,39.74936869269004 135.5193583217333,39.87777768695378 134.35323152859928,40.477018226345535 132.22088539256947,42.93815995861951 131.23800709540956,44.47902841705945 130.35508252348518,46.768901308605564 129.97192657721462,49.829144886360154 130.50501311116386,53.93790654008626 131.95434212544933,56.9766067659948 132.92056146840332,57.896764575416455 133.87012185709318,58.2391474552569 134.9362949251081,58.36754083647975 136.21903439768357,58.003759308106964 137.66836341191083,56.91240950176143 139.00107974698767,55.200472457901924 140.86688261607196,51.4127432556852 141.33333333331393,47.475116831526975 141.03347215784015,45.377861140077584 140.18386549432762,42.76695138824289 139.2676230139914,41.01205242660944 138.43467530456837,40.305806884673075 136.75212093163282,39.770770199247636 135.5859941384988,39.85637619539921 134.4531852537184,40.519821031659376 132.88724356004968,41.99651043584163 130.90482801169856,45.24945679069788 130.27178775257198,47.239712021677406 130.00524448551005,49.85054497430974 130.5383310195757,54.066303552957834 131.30464291217504,56.056443388864864 132.2542033008649,57.29759268069756 132.85392565169604,57.85396666114684 134.7030695665162,58.38893972277583 136.1690575350658,58.02515824565489 137.66836341191083,56.869611310525215 140.10057072341442,53.40291781970882 140.8169057535124,51.605341932488955 141.26669751654845,48.82333735827706 141.01681320375064,45.2922582525498 139.45087151002372,41.29026946662634 138.2847447168897,40.24160258179472 136.78543884004466,39.770770199247636 135.48604041332146,39.87777768695378 134.35323152859928,40.541222429819754 132.85392565169604,42.01791162614245 131.93768317135982,43.43038352466829" stroke="#4DD2FF" stroke-linecap="round" stroke-linejoin="round" stroke-width="0.5"><title>2025-01-01 8.4km</title><desc>1735690205000</desc></polyline><polyline fill="none" points="152.0,55.99286864566966 152.74816625914536,56.671255264329375 157.09046454762574,57.349638446525205 157.54523227387108,57.010447284978 158.48410757945385,56.89738337357994 158.74816625920357,55.29563437307661 161.4767726160935,54.05191017081961 162.81173594121356,53.769243968403316 163.00244498776738,53.901154937106185 163.2665036674589,57.21773087470501 164.86552567232866,59.026737675245386 168.89975550118834,58.103393507393776 171.71638141805306,58.894831755256746 173.05134474328952,58.06570585510053 175.16381418087985,57.48154588844045 178.18581907084445,57.801891992116 179.4034229828394,56.463970828815945 179.9902200488723,56.501658931869315 181.26650366740068,57.236574821479735 183.37897310510743,57.16119901840284 185.88753056235146,54.67377371585462 186.73838630801765,53.29813230513537 187.6479217603919,50.79179039254086 187.92665036668768,47.5504365505185 187.57457212702138,45.38320852648758 186.78239608794684,43.17825358133996 186.12224938865984,42.14172375270573 185.22738386300625,41.36903266006266 183.92176039109472,40.99210855770798 182.41075794619974,41.19941694533918 181.28117359412136,42.104031607785146 179.66748166253092,44.10170066979481 178.3178484107484,47.15468448570755 177.90709046454867,50.77294553886168 178.81662591686472,54.65492940842523 179.81418092903914,56.33206238459388 180.76772616128437,56.99160330637824 182.22004889976233,57.368482374746236 183.40831295837415,57.12351110095915 185.9462102688267,54.617240785606555 187.61858190706698,50.999083608418005 187.9559902199544,47.663508354176884 186.95843520777998,43.555171529529616 185.50611246941844,41.51980200393882 184.02444987767376,40.99210855770798 182.70415647915797,41.12403211419587 181.20782396086724,42.17941588713438 179.638141809206,44.13939225241484 178.2004889975069,47.49390061282611 177.90709046454867,50.60334173605952 178.03911980433622,51.828253262952785 179.18337408307707,55.408699636827805 179.85819070902653,56.36975052478374 180.7970660146093,57.04813523424673 182.0733496331959,57.349638446525205 183.3496332517825,57.16119901840284 185.93154034222243,54.617240785606555 187.11980440095067,52.450127134507056 187.66259168693796,50.8294800920994 187.94132029340835,47.531591240578564 186.78239608794684,43.15940765608684 185.9022004889557,41.82134018231591 184.9779951100354,41.21826314649661 183.55501222494058,40.99210855770798 182.39608801947907,41.23710934491828 181.36919315403793,42.028647286002524 179.9462102689431,43.70593841174559 178.62591687042732,46.13703094818629 177.99511002440704,48.831911401081015 177.95110024447786,50.67872123049165 178.15647921757773,52.41243789116561 178.7872860635398,54.44764185175882 179.53545232274337,55.91749214255833 180.57701711490517,56.916227365421946 182.63080684590386,57.349638446525205 183.54034229827812,57.04813523424673 185.2860635695979,55.408699636827805 187.17848410754232,52.35590400626825 187.6919315403211,50.77294553886168 188.0,48.153485066693975 187.54523227375466,45.251289166364586 186.19559902191395,42.198261950296 185.44743276276859,41.48210968388594 184.15647921751952,40.99210855770798 183.21760391199496,40.973262324754614 181.8386308067711,41.5763404640893 179.66748166253092,44.21477538582985" stroke="#4DD2FF" stroke-linecap="round" stroke-linejoin="round" stroke-width="0.5"><title>2024-12-31 11.1km</title><desc>1735607974000</desc></polyline><polyline fill="none" points="12.0,95.52669573340972 12.703583061869722,96.26101615389052 17.086319218215067,96.825875273571 18.478827361541335,96.46813144130283 18.62540716608055,95.03714654754731 18.991856677515898,94.698226831184 21.16123778495239,93.64380444579001 22.920195439714007,93.34253938093025 23.037459283368662,95.77146965470456 23.3306188925053,96.75056086204131 24.9283387621399,98.53926668355416 25.573289902240504,98.63340843281185 26.716612377844285,97.99324323136534 28.695439739327412,97.63550252016285 31.539087947865482,98.46395323636534 33.89902280131355,97.25893231717055 35.96579804550856,97.01416111690924 37.475570032547694,97.31541791516065 38.85342019540258,97.9367579195241 39.42508143314626,99.29239882349793 42.00488599349046,99.46185297080956 42.26872964162612,98.6898934506462 41.72638436470879,97.9367579195241 41.916938110720366,97.24010377917148 43.7345276872511,96.37398816860514 44.672638436430134,95.62083960225573 45.815960912033916,94.34047731032479 47.32573289895663,91.44078800287389 47.95602605858585,87.43007519481762 47.0325732898782,83.41924215373001 46.16775244293967,81.70565710571827 45.00977198698092,80.83944092754973 43.3387622149894,80.55697791776038 42.180781758972444,80.9335951317189 40.21661237778608,82.91081811078766 39.2345276872511,84.45491478305485 38.281758957658894,86.99698633792286 38.01791530940682,88.48454654956004 38.22312703577336,90.80058838837431 38.04723127029138,91.45961735690071 38.384364820842165,92.9659570959193 39.3957654722617,95.26309254822263 40.50977198698092,96.48696008787374 41.56514657981461,96.84470386985049 42.86970684037078,96.84470386985049 44.247557003225666,96.03507183835609 45.815960912033916,94.34047731032479 47.311074918543454,91.47844670833729 47.85342019540258,89.3695428793726 48.0,87.44890511329868 46.92996742669493,83.08029300645285 46.050488599343225,81.61150344499038 44.99511400645133,80.82061007877928 43.514657980413176,80.5758088036091 42.23941368074156,80.95242596451135 41.110749185609166,81.89396422842401 39.65960912051378,83.72052956371044 38.23778501624474,87.18528601316211 37.94462540716631,89.74613528676855 38.1938110748888,90.91356501352857 38.06188925076276,91.45961735690071 38.442996742611285,93.07893189266906 39.57166123774368,95.54552451246127 41.02280130283907,96.71290364042216 42.31270358298207,98.65223677475296 41.78501628659433,97.97441479675763 42.00488599349046,97.24010377917148 42.78175895760069,97.14596104959492 42.884364820842165,96.825875273571 44.35016286640894,95.94092826095584 46.72475570027018,92.90946966176853 47.604234527621884,90.59346432783059 47.94136807817267,88.54103585192934 47.61889250809327,85.17046573481639 46.372964169306215,81.96928700323042 45.46416938106995,81.06541090607061 44.15960912045557,80.55697791776038 42.98697068396723,80.66996319324244 42.06351791531779,81.08424172035302 39.674267100926954,83.68286867457209 38.22312703577336,87.10996617485944 38.06188925076276,91.38429992481542 39.117263843654655,94.73588461983309 39.63029315962922,95.62083960225573 40.81758957647253,96.61876053987362 42.89902280125534,96.84470386985049 44.247557003225666,96.03507183835609 45.77198697067797,94.41579307845677 47.120521172648296,92.0056674718071 47.79478827357525,89.84028322299127 48.0,87.50539485293848 47.28175895760069,83.89000343368389 46.31433224747889,81.87513352803944 45.68403908790788,81.19722655059013 44.62866449507419,80.68879406322958 43.45602605858585,80.5758088036091 42.19543973932741,80.99008762229641 41.46254071657313,81.59267270487908 39.99674267100636,83.26859819430683 38.89739413675852,85.22695643638144 38.0325732898782,88.63518463617947 38.06188925076276,91.42195864618407 38.69218241039198,93.77560769837874 39.80618892505299,95.84678461725707 41.711726384353824,97.61667403516185 42.32736156345345,98.57692339118512 42.25407166115474,99.36771180435608 42.31270358298207,98.63340843281185 41.79967426712392,98.03090009272273 41.90228013024898,97.25893231717055 42.8550488598994,97.0894753800676 45.317589576530736,94.92417340415705 47.149837133532856,92.02449674639502 47.76547231269069,89.85911280226719 47.95602605858585,87.01581631734734 46.98859934852226,83.15561511339911 46.1530944625265,81.70565710571827 45.053745928336866,80.82061007877928 43.44136807817267,80.55697791776038 42.31270358298207,80.87710261717439 40.21661237778608,82.9673097665218 38.50162866449682,86.22495489858557 38.01791530940682,88.27741890365724 38.00325732893543,90.14155617369397 38.32573289901484,92.57054455597245 39.014657980413176,94.49110880409717 39.61563517909963,95.60201083376887 40.67100977199152,96.5434460118122 42.09283387620235,96.90118964269641 42.97231270355405,96.825875273571 44.13029315957101,96.11038665258093 45.94788273610175,94.227503578717 47.149837133532856,92.0056674718071 47.86807817587396,89.16241660347441 48.0,87.37358542345464 47.648208469036035,85.13280525372829 47.00325732893543,83.15561511339911 46.43159609119175,81.9881176903582 45.317589576530736,80.95242596451135 44.02768729632953,80.5758088036091 42.59120521170553,80.7829483733367 41.59446254069917,81.4420266887173 40.289902280143,82.87315699370811 38.85342019540258,85.15163549559657 38.45765472308267,86.3567654597282 37.97394136805087,90.02857889670122 38.25244299671613,92.32576477895782 39.014657980413176,94.50993772894435 39.61563517909963,95.60201083376887 40.71498371328926,96.52461737318663 42.12214983708691,96.86353246343788 43.20684039086336,96.71290364042216 44.13029315957101,96.11038665258093 45.91856677521719,94.26516149987583 47.179153094417416,91.89269176883681 47.809446254046634,89.63315767583845 47.98534201947041,87.44890511329868 47.07654723117594,83.40041166808805 46.09446254069917,81.61150344499038 45.06840390880825,80.82061007877928 43.910423452733085,80.53814702920499 42.42996742669493,80.82061007877928 40.70032573287608,82.34590024137287 39.70358306186972,83.6452077748254" stroke="#4DD2FF" stroke-linecap="round" stroke-linejoin="round" stroke-width="0.5"><title>2024-12-30 19.1km</title><desc>1735521239000</desc></polyline><polyline fill="none" points="58.66666666668607,96.0747868851031 59.10250201774761,95.86950920929667 59.75625504436903,96.65329498924257 63.940274414781015,97.2318005697598 65.39305891847471,96.82124848221429 65.6836158192018,95.27233598203748 69.76594027440296,93.7420673128363 70.21630347054452,96.87723293264571 71.6545601291582,98.91131860238966 72.51170298625948,98.87399621051736 75.12671509274514,97.97825565458334 76.68119451170787,98.14620746967557 78.39548022596864,98.78069018491078 80.29862792574568,97.75431957030378 81.82405165460659,97.38109192285629 82.82647296198411,97.30644626732101 84.97659402742283,97.69833549010218 86.19693301047664,96.41069512376271 88.08555286523188,97.13849338878936 89.95964487484889,96.98920176255342 90.71509281679755,96.57864892398356 92.3422114608693,94.8991013494524 93.62066182406852,92.80896799456968 94.41969330102438,90.23357980801666 94.66666666668607,87.8447692416812 93.96933010494104,84.5600844459259 92.9669087974471,82.46978812009911 91.92090395482956,81.44329125309014 90.42453591607045,81.0886813976249 89.52380952384556,81.18199987258413 88.43422114604618,81.79790016011975 85.87732041970594,85.11997965231421 84.99112187244464,87.54616489514592 84.74414850689936,89.48708112869645 85.07828894269187,92.95826432673493 85.71751412429148,94.84311606393021 86.86521388217807,96.4293566676788 88.04196933016647,97.15715483023087 89.62550443899818,97.17581626903848 90.5698143664049,96.69061800603231 92.3712671509129,94.91776310601563 94.01291364000645,91.85719992604572 94.65213882166427,87.9007574818097 93.80952380952658,84.05617673890083 92.3567393058911,81.72324573212245 91.15092816785909,81.18199987258413 89.9451170298853,81.0886813976249 88.56497175141703,81.70458211858931 87.64971751411213,82.63775957812322 86.42937853105832,84.16815639483684 85.36884584341897,86.27708892060036 84.72962066181935,89.63638120074756 85.23809523810633,93.51812407524267 86.0807102501858,95.42162954094238 87.01049233251251,96.5973104442528 87.92574656981742,97.13849338878936 89.21872477803845,97.26912342378637 90.90395480225561,96.39203357730003 92.32768361578928,94.91776310601563 93.46085552871227,93.14488450551289 94.53591606137343,89.56173118570587 94.65213882166427,87.956745698335 94.30347054079175,85.77318773845036 93.17029862798518,82.74974043195834 92.3567393058911,81.68591850242228 91.02017756254645,81.16333618281351 89.91606133972527,81.10734509784379 88.82647296210052,81.53660947842582 86.38579499599291,84.24280944626662 85.02017756254645,87.54616489514592 84.74414850689936,89.86033099361521 84.83131557708839,91.89452429271478 85.26715092820814,93.70474346620904 86.0807102501858,95.4589529044024 86.58918482647277,96.2427411107492 87.64971751411213,97.04518614208791 88.92816787731135,97.30644626732101 90.13397901534336,96.95187882974278 92.41485068603652,94.88043959021161 93.96933010494104,91.91318647208391 94.43422114604618,90.21491739225166 94.63761097658426,87.86343199106341 93.72235673933756,83.73890053346986 92.15334947535302,81.57393675018102 90.71509281679755,81.16333618281351 89.58192090399098,81.21932724412181 88.94269572239136,81.46195490335231 87.2574656981742,83.08568242599722 85.4269572236226,86.20243701444997 84.97659402742283,87.5648276864813 84.71509281679755,89.99096819819533 85.12187247781549,93.2568564866815 85.7465698143933,94.82445429687505 87.08313155773794,96.76526400823786 88.1727199354209,97.17581626903848 89.48022598872194,97.26912342378637 91.61581920902245,95.8508475865965 93.75141242943937,92.58502318125102 94.60855528654065,88.7592408702476 94.33252623089356,85.81051381757425 93.91121872479562,84.37345218514383 93.40274414850865,83.17899949554703 92.41485068603652,81.81656376052706 90.88942695723381,81.18199987258413 89.87247780471807,81.16333618281351 88.84100080706412,81.57393675018102 87.5770782889449,82.73107696292573 86.4003228409565,84.22414618732 85.33979015331715,86.35174078471027 84.72962066181935,89.50574364689237 84.860371267132,91.950510823066 85.4269572236226,94.22727636365744 86.9959644874325,96.65329498924257 88.14366424531909,97.1944777052413 89.64003228407819,97.21313913883932 91.55770782893524,95.86950920929667 93.43179983861046,93.29418045943021 94.55044390639523,89.84166852536146 94.65213882166427,87.91942022329022 94.21630347054452,85.43725255315076 93.67877320421394,83.75756386072317 92.6908797416836,82.09651745151496 91.81920903956052,81.42462760004855 90.75867635192117,81.18199987258413 89.74172719934722,81.16333618281351 88.95722356747137,81.48061855108244 86.44390637608012,84.24280944626662 85.00564971752465,87.65814160388254 84.84584342211019,91.76388896342542 85.87732041970594,95.08571879703959 86.58918482647277,96.18675639253343 87.51896690879948,96.9705402974796 89.1170298627112,97.28778484687791 90.14850686042337,97.06384759665525 92.44390637613833,94.88043959021161 93.95480225991923,92.08114596850646 94.43422114604618,90.45752859239292 94.66666666668607,87.9007574818097 93.98385794996284,84.67206367634935 93.41727199353045,83.17899949554703 92.3857949959347,81.7419093430799 90.43906376115046,81.12600879545789 89.52380952384556,81.2379909260053 88.43422114604618,81.89121813591919 86.44390637608012,84.24280944626662" stroke="#4DD2FF" stroke-linecap="round" stroke-linejoin="round" stroke-width="0.5"><title>2024-12-29 18.5km</title><desc>1735432872000</desc></polyline><polyline fill="none" points="105.33333333331393,96.81396618901636 108.12506154598668,95.0892413674519 108.70999507629313,95.02093492928543 109.5076317085186,95.68692106116214 111.8340718857362,95.87476264267752 113.28311176755233,96.2504449334665 114.59921221074183,95.85768614726112 114.82520925649442,94.44032865273039 116.65977351058973,93.5181835626936 118.60068931558635,93.02295460370078 119.01280157559086,96.0796804000056 120.4219596257899,97.73608623559994 121.09995076316409,97.75316246666625 122.76169374689925,97.05303502204333 123.9847365829628,96.93350066440325 126.63023141305894,97.63362879864144 128.5179714426049,96.64320244851115 130.83111767598893,96.36997996392165 133.0910881338641,97.13841663395579 133.56967011321103,98.45328587221593 135.65681930078426,98.62404706577217 136.1354012801312,97.78731492163206 135.7232890201849,97.30917967762798 135.77646479557734,96.60904967156966 136.0955194485141,96.2504449334665 137.57114721805556,95.85768614726112 138.27572624321328,95.19170095254958 139.5120630231104,93.77433567943808 139.71147218119586,92.98880080784875 140.49581486947136,91.98125950711983 141.21368783846265,89.24890201060771 141.10733628756134,86.20908199672704 140.5224027572549,84.07433141303045 139.52535696700215,82.29819030357612 138.99359921214636,81.83707249513827 137.62432299356442,81.39303146775637 136.61398325947812,81.46134557771438 135.4972919743741,82.09324927174748 133.3170851796749,85.04778233751858 132.35992122109747,87.93393303598714 132.33333333331393,91.29817590084713 132.78532742487732,93.14249281332741 133.66272772027878,94.90139857002214 134.3274249138194,95.66984453937039 135.43082225503167,96.16506269676756 136.60068931558635,96.19921559865179 137.67749876901507,95.70399758058193 139.37912358436733,93.85971959822928 140.2964057114441,92.35695385161671 141.24027572624618,89.07812762427056 141.32003938948037,87.62653563632193 141.0807483997778,86.07245908429468 140.45593303785427,83.9377060968909 139.59182668634458,82.34942550744017 138.96701132442104,81.81999402413203 137.71738060063217,81.37595293422783 136.80009847361362,81.42718852755206 135.6036435253336,82.00785707293835 133.3170851796749,85.04778233751858 132.35992122109747,87.9510106464586 132.32003938942216,91.31525303790113 133.27720334811602,94.18417794171546 133.8488429344725,95.15754776712129 134.91235844406765,95.97722156457894 136.2417528310907,96.2162920460105 137.252092565177,95.96014508361986 139.27277203346603,93.99633374332916 140.8148695223499,91.11032723502285 141.33333333331393,87.60945798012835 140.45593303785427,83.8864715636737 139.6184145740699,82.38358229803998 138.91383554897038,81.78583707491634 137.65091088128975,81.39303146775637 136.04234367312165,81.7516801161255 134.8990645002341,82.7763846984235 133.87543082225602,84.27926909875532" stroke="#4DD2FF" stroke-linecap="round" stroke-linejoin="round" stroke-width="0.5"><title>2024-12-28 9.1km</title><desc>1735368240000</desc></polyline><polyline fill="none" points="152.0,96.14792490794207 152.66366243344964,96.81097945733927 156.89635395328514,97.36036503879586 158.32691519864602,96.90570126927923 158.60712822614005,95.33331056234601 162.76607947557932,93.79879108136811 163.12003277341137,97.34142074570991 164.83080704626627,99.04639644618146 165.53871364193037,99.08428454987006 166.70380991394632,98.49701774488494 168.50307251123013,98.15602294073324 169.69766489142785,98.28863213388831 171.62965997541323,98.97062020687736 173.074969274865,98.09919038935914 174.52027857437497,97.62558486188937 176.5112658746075,97.51191928742628 178.25153625558596,97.79608304372232 179.4166325276601,96.58364683686523 180.28676771814935,96.7162575787952 181.37812371982727,97.34142074570991 183.2363785333,97.13303334600641 185.30110610404518,95.35225513801561 186.6874231871916,93.1736114633095 187.63129864807706,90.76759008849331 187.92625972960377,88.51309009011311 187.5723064317135,85.59544580728107 186.6874231871916,83.0187722977862 185.53707496926654,81.5030589576927 183.959033183055,80.91571545012994 182.29250307247275,81.14307453125366 179.60835723066702,83.83346116587927 178.3252765260404,86.8837640665588 177.9270790659357,89.13829135210835 178.13355182303349,92.54842894201283 178.78246620227583,94.65130406351818 179.6378533387906,96.14792490794207 180.6407210159814,97.038311693992 181.68783285532845,97.36036503879586 183.08889799262397,97.28458785050316 183.8557968045934,96.82992382507655 185.6698074559099,95.0112523684802 186.7759115116205,93.1736114633095 187.71978697256418,90.57813776021067 187.94100778375287,87.45213584948215 187.42482589103747,84.81865972196101 186.55469070054824,82.65879192492866 185.64031134778634,81.5598985159304 184.44571896764683,81.01044844726857 183.32486685784534,80.91571545012994 182.3514952887199,81.218860806257 179.99180663662264,83.568214168743 178.90045063494472,85.38704022436286 178.3252765260404,86.95954710962542 177.88283490372123,90.61602824721194 178.29578041785862,93.1925563429104 178.95944285125006,95.0112523684802 179.65260139288148,96.16686936897167 180.75870544859208,97.13303334600641 183.00040966813685,97.34142074570991 184.20975010242546,96.50786921141844 185.71405161818257,94.97336311853724 186.76116345764603,93.24939096564776 187.63129864807706,90.86231615263387 188.0,87.86894029837276 187.55755837773904,85.4817700747808 186.74641540349694,83.0945575167716 185.80253994261147,81.73041704675416 184.62269561650464,81.0672882135841 183.2511265874491,80.97255525639048 182.1450225317967,81.33254013882834 179.68209750100505,84.02292298663815 178.17779598524794,87.54686424665852 177.89758295781212,90.04766982265573 178.1188037688844,92.51053899890394 179.0184350676136,95.16280926155741 179.75583777140127,96.29948052144027 180.71446128631942,97.07620036278968 182.08603031543316,97.39825361693511 183.07414993847487,97.32247644999006 185.71405161818257,94.99230774481839 187.33633756655036,91.94218857280794 187.83777140511665,90.00977917568525 187.97050389181823,87.86894029837276 187.15936091763433,84.06081531880773 186.2744776730542,82.29881058931642 185.5665710773901,81.54095199916628 184.40147480537416,81.01044844726857 182.9709135600133,81.01044844726857 182.17451863992028,81.29464703863778 181.12740680051502,82.14723921265977 179.84432609583018,83.7008377326274 179.54936501430348,84.61025293641433 178.708725931996,85.7470133012539 177.89758295781212,89.55509058032476 178.10405571490992,92.49159402339137 178.57599344535265,94.08296267528203 179.37238836532924,95.80692415378871 180.2425235559349,96.77309071394848 180.9356820974499,97.17092198808677 182.38099139695987,97.4171979020175 183.94428512908053,96.79203508698265 185.65505940187722,95.0491416076984 187.26259729621233,92.09374892107735 187.7935272429022,90.12345108459704 187.9852519459091,87.94472278680769 187.5133142155246,85.21652632561745 186.71691929531517,83.0187722977862 185.9942646456184,81.91988182760542 184.96190086036222,81.19991424151522 183.36911102000158,80.91571545012994 182.10077836952405,81.33254013882834 181.2306431789766,82.09039990237216 179.71159360918682,83.96608446841128 178.8119623105158,85.65228363749338 178.35477263416396,86.77008942203247 177.88283490372123,89.85821648118144 178.44326095865108,93.74195669061737 179.19541171647143,95.46592253589188 180.1392871774151,96.67836880870163 180.90618598932633,97.17092198808677 182.39573945105076,97.39825361693511 183.14789020898752,97.26564354677976 184.40147480537416,96.39420269322 185.8762802130659,94.72708273402532 187.07087259314721,92.62420879620186 187.86726751329843,89.85821648118144 187.97050389181823,87.98261401501077 187.5870544858626,85.4817700747808 186.1712412945344,82.12829277853598 185.52232691517565,81.48411243291048 184.10651372390566,80.95360865698603 182.83818107331172,81.04834162746556 181.8500614501536,81.52200547976827 179.65260139288148,84.0987076402962" stroke="#4DD2FF" stroke-linecap="round" stroke-linejoin="round" stroke-width="0.5"><title>2024-12-27 16.0km</title><desc>1735261057000</desc></polyline><polyline fill="none" points="12.0,136.14096736442298 12.590163934335578,136.7663893859135 16.868852459010668,137.37285645140219 18.314754098304547,136.9180064082757 18.521311475371476,135.47763780437526 19.288524590083398,134.90906700972118 20.85245901637245,134.20782639061508 22.755737704923376,133.80982333394059 23.124590163875837,137.39180850320554 24.924590163864195,139.07853043242358 28.3180327868904,138.14988838820136 30.073770491813775,138.3962634321215 31.401639344228897,138.96481950569432 34.19016393442871,137.67608896007005 35.87213114753831,137.52447279110493 38.24754098360427,137.84665694620344 38.955737704993226,136.8042936574784 39.66393442626577,136.42525046149967 41.30163934431039,137.29704821755877 43.175409836054314,137.14543162187329 44.547540983592626,136.19782403179852 45.74262295087101,134.92801940818026 46.74590163939865,133.1085769913043 47.63114754104754,130.83423940409557 47.97049180325121,128.01021677929384 47.4393442622968,125.07241227684426 46.56885245908052,122.79793896799674 45.713114754122216,121.6417336416489 43.986885245889425,120.95937829905597 42.21639344259165,121.24369344535808 40.03278688527644,123.51819300549687 38.38032786879921,126.816149131555 37.87868852453539,129.88658740690153 38.409836065548006,133.5065821203316 39.76721311477013,136.36839389010856 41.31639344262658,137.29704821755877 43.2344262295519,137.14543162187329 44.50327868858585,136.2546806752507 45.7721311476198,134.90906700972118 46.70163934427546,133.33600863759057 47.660655737738125,130.77738047228195 47.98524590168381,127.85858972836286 47.203278688539285,124.20053538234788 46.36229508201359,122.36199386327644 45.38852459023474,121.39532794457045 44.0754098360776,120.9404239346477 43.175409836054314,120.9404239346477 42.039344262331724,121.43323654269625 39.85573770490009,123.74564084858866 38.4393442622968,126.62661361058417 37.86393442627741,129.84868118829036 38.27704918035306,133.05171901971335 38.955737704993226,135.00382897554664 39.781967213144526,136.387346083211 40.814754098362755,137.08857535445713 42.21639344259165,139.0406268008228 41.75901639345102,138.64263802535424 41.75901639345102,137.8277049584285 42.23114754096605,137.35390439696494 43.80983606557129,136.82324578930275 45.63934426236665,135.00382897554664 47.350819672166836,131.87664889918233 48.0,128.0291701486858 47.57213114760816,125.48939488313044 47.08524590160232,123.8404106698581 45.94918032782152,121.8881388878508 44.547540983592626,121.01624137633189 43.39672131149564,120.9404239346477 42.11311475408729,121.357419335749 41.16885245899903,122.13454368317616 39.72295081970515,123.95413436731906 39.5901639345102,124.61752068830538 39.16229508200195,124.90182811123668 38.74918032786809,125.81160783096857 38.203278688539285,127.57428854769387 37.86393442627741,129.9244936148316 38.38032786879921,133.4497243167425 39.737704918021336,136.29258509087958 40.88852459023474,137.14543162187329 41.83278688520659,137.33495233982103 43.48524590168381,137.03171906307398 44.22295081970515,136.48210700895288 45.83114754100097,134.8143049772625 46.70163934427546,133.35496125748614 47.88196721312124,129.62124365274212 48.0,127.99126340728253 47.719672131119296,126.0011444989359 47.11475409835111,123.91622647884651 46.273770491883624,122.22931463824352 45.29999999998836,121.357419335749 44.38524590164889,120.99728701992717 43.263934426242486,120.9404239346477 42.15737704926869,121.3195107162901 39.649180327833164,124.01099618001899 38.32131147541804,126.87300973579113 37.87868852453539,129.9623998120951 38.040983606595546,131.89560172437632 38.58688524598256,134.13201637525344 39.545901639328804,136.06515843716625 40.63770491810283,137.03171906307398 41.434426229505334,137.33495233982103 42.349180327903014,137.37285645140219 43.60327868850436,136.9559106372035 45.91967213113094,134.70059045030212 47.63114754104754,130.98586310478277 47.92622950824443,127.40370755117328 47.23278688528808,124.25739709094341 46.65737704921048,122.85480126889888 45.99344262294471,121.8881388878508 44.94590163935209,121.16787613173074 43.35245901637245,120.92146956757642 42.11311475408729,121.30055640262435 39.693442622956354,123.973088307539 38.32131147541804,126.96777735624346 37.86393442627741,129.88658740690153 38.01147540984675,131.76293189177522 39.01475409831619,135.15544798210612 39.796721311460715,136.34944169427035 40.918032786867116,137.14543162187329 42.349180327903014,137.31600028004323 43.39672131149564,137.03171906307398 45.713114754122216,134.94697180403455 47.36557377054123,131.80083757157263 47.94098360656062,129.03369490799378 47.94098360656062,127.44161445795908 47.454098360671196,124.88287430166383 46.849180327903014,123.27179074203013 46.06721311470028,121.9450015729235 45.049180327914655,121.20578479382675 43.44098360656062,120.9404239346477 42.17213114752667,121.30055640262435 40.46065573772648,122.873755363893 39.60491803276818,124.14367364962527" stroke="#4DD2FF" stroke-linecap="round" stroke-linejoin="round" stroke-width="0.5"><title>2024-12-26 16.2km</title><desc>1735171955000</desc></polyline><polyline fill="none" points="58.66666666668607,136.77057373226853 63.38626964431023,137.40168318065116 64.68155500409193,137.00006841625145 64.83043837884907,135.52747079296387 65.1877584781032,135.24059926920745 67.18279569898732,134.32260632388352 69.10339123237645,133.78710757559747 69.31182795693167,133.84448254239396 69.55004135647323,137.114815612862 71.30686517781578,139.10375162865967 72.14061207615305,139.12287587211176 73.25723738630768,138.4344014112139 75.20760959474137,138.1092872590234 77.96195202646777,138.9890061111946 79.65922249789583,137.9945409019565 81.22249793214723,137.57380343068507 84.85525227460312,137.89891886380792 85.98676592228003,136.617577061028 88.488006617059,137.45905662153382 89.85773366416106,137.19131369017123 91.46567411080468,135.94821459920786 93.47559966915287,133.15598134197353 94.324234904896,130.76532509137178 94.63688999175793,127.87735625384084 94.13068651780486,124.89369485228963 92.8651778329513,122.17774097908114 91.92721257242374,121.27878654291271 90.33416046318598,120.87712412788824 88.45822994207265,121.41267375073221 86.41852770885453,123.7078625135473 85.16790736152325,126.04126468239701 84.46815550047904,129.6369207315147 84.67659222497605,132.58222767716506 86.25475599669153,136.25420927650703 86.95450785779394,136.88532112269604 87.99669148057001,137.34430971552501 89.99172870139591,137.13394013626385 91.48056244832696,135.90996521609486 92.71629445825238,134.39910597277049 94.0562448304845,131.68334206547297 94.63688999175793,127.80085293365119 94.17535153019708,124.89369485228963 93.22249793220544,122.77066511833982 92.34408602153417,121.54656082665315 91.04880066169426,120.97275814396562 90.05128205131041,120.89625093652285 88.86021505383542,121.1640259741107 87.5649296939373,122.2351208475593 86.40363937144866,123.65048326691613 85.21257237385726,125.96476032854116 84.4830438378849,129.10140351959853 84.63192721252562,131.91284534001898 85.0785773366224,133.8827325067541 86.01654259720817,135.83346641757817 86.80562448303681,136.77057373226853 87.83291976840701,137.26781172437768 89.29197684040992,137.34430971552501 91.27212572377175,136.12033668995718 92.68651778326603,134.39910597277049 93.7287014061585,132.56310251326067 94.45822994213086,129.98118068196345 94.651778329222,127.76260125740373 94.11579818034079,124.83631610640441 93.1331679073628,122.57939954963513 92.3291976840701,121.5274341096083 90.98924731183797,120.97275814396562 89.58974358974956,120.93450454557023 88.53267162945122,121.35529353498714 87.20760959474137,122.65590580942808 85.1827956988709,126.04126468239701 84.61703887517797,128.1833691038628 84.46815550047904,130.1724358331412 85.0785773366224,133.86360752592736 86.1058726219926,135.98646397155244 86.67162944586016,136.617577061028 87.52026468154509,137.1721891748457 89.12820512824692,137.38255869495333 90.1108354011667,137.0383174925082 91.06368899921654,136.31158320179384 92.68651778326603,134.3799810645869 93.80314309347887,132.3718507264275 94.488006617059,129.90467854611052 94.66666666668607,127.81997876771493 94.14557485526893,124.85544235771522 93.08850289497059,122.48376666434342 92.31430934654782,121.48918066742772 90.81058726226911,120.87712412788824 89.53019023989327,120.89625093652285 88.54755996691529,121.33616679099214 87.23738626966951,122.57939954963513 85.12324234907283,126.09864291950362 84.45326716295676,130.19156133347133 84.89991728699533,133.2707317842287 86.29942100908374,136.3307078381622 87.460711331747,137.13394013626385 88.54755996691529,137.42080766364234 89.75351530197076,137.2104382027319 90.63192721258383,136.694075418156 92.5971877585398,134.53298025479307 93.50537634408101,133.02210570350871 94.08602150541265,131.6068408877909 94.54755996691529,129.29265990896965 94.63688999175793,127.85823042780976 94.324234904896,125.6204902032332 93.57981803140137,123.40183958495618 92.82051282050088,122.12036108634493 92.22497932176339,121.37442027624638 90.95947063685162,120.91537774243625 89.81306865176884,120.87712412788824 88.6517783292802,121.25965978816384 86.71629445825238,123.21057490468957 86.22497932176339,124.10951656138059" stroke="#4DD2FF" stroke-linecap="round" stroke-linejoin="round" stroke-width="0.5"><title>2024-12-22 13.5km</title><desc>1734819430000</desc></polyline><polyline fill="none" points="105.33333333331393,136.1371029267466 105.71788551076315,136.66907211956277 110.09586414677324,137.35302943049464 111.60449191991938,136.9160571037355 111.85592988220742,135.2441499268607 115.8937277457444,133.80021343083354 116.13037523964886,133.9712067166547 116.35223226505332,136.72606869446463 117.21007943019504,138.34096165178926 118.12708846892929,139.0439090229629 118.7187072034576,139.10090459539788 120.09422076138435,138.43595475358597 121.76554368657526,138.11297793460835 124.87154204322724,138.8729221613903 126.66118871537037,137.88499383245653 128.258559298818,137.46702197879495 129.7967680087313,137.486020727476 131.43850999727147,137.88499383245653 132.6809093398624,136.47908336276305 135.3136127088219,137.35302943049464 136.62996439333074,137.03005002095597 137.9906874828739,136.02310925563506 140.2832100794185,132.71725092433917 141.00794302928261,130.64629843318835 141.33333333331393,127.89131239344715 140.66776225686772,124.60425549383217 139.55847712949617,122.1911627787631 138.68583949602908,121.31711855543836 137.35469734319486,120.91809648496564 135.69816488632932,121.14610924109002 134.72199397423537,121.77314233452489 133.34648041636683,123.35021269474237 132.25198575732065,125.25027299554495 131.45330046559684,127.45430944170221 131.18707203504164,129.7533091163641 131.6899479594431,133.64821921709517 133.25773760612356,136.44108557932486 134.1599561762996,137.08704644349928 135.46151739254128,137.3340306630853 136.8518214188516,136.9160571037355 137.75403998902766,136.2320975792245 140.0021911804215,133.32523094485805 140.6825527252513,131.7482771078212 141.20021911803633,129.31631219174596 141.27417145983782,127.83431208868569 140.91920021909755,125.53527973410382 139.51410572446184,122.1911627787631 138.6118871542276,121.33611957696849 137.5913448369829,121.03210291118012 136.26020268414868,120.97509971007821 135.00301287311595,121.56413162701938 133.40564228978474,123.31221121593262 132.31114763073856,125.11726964495028 131.42371952882968,127.4923097545252 131.18707203504164,129.52531089742843 131.29060531361029,131.7482771078212 131.85264311142964,134.10420134484593 132.50342371955048,135.39614234391775 133.095042454137,136.32709216480725 134.13037523964886,137.08704644349928 135.34319364553085,137.35302943049464 136.61517392488895,137.0490488311625 138.92248698987532,134.9211654725077 140.59380991512444,131.9382725219184 141.12626677617664,129.86730808144785 141.25938099151244,127.7013112839195 140.91920021909755,125.57328058713756 140.22404820588417,123.54021992823982 139.49931525607826,122.1911627787631 138.50835387565894,121.24111444246955 137.08846891263966,120.91809648496564 135.59463160770247,121.18411132962501 133.34648041636683,123.35021269474237 131.66036702267593,126.8083024869702 131.15749109827448,130.09530572283256 131.83785264316248,134.12320056678436 132.8288140235236,135.96611238399055 133.80498493561754,136.9160571037355 135.34319364553085,137.35302943049464 136.3785264311009,137.14404284195916 137.53218296350678,136.44108557932486 138.98164886329323,134.8831672505912 140.62339085177518,131.82427530550922 141.12626677617664,129.82930843708164 141.24459052307066,127.73931152722798 140.9487811558065,125.78228508745087 140.23883867426775,123.57822134286107 139.543686661229,122.1911627787631 138.64146809087833,121.29811753118702 137.44344015337992,120.93709756270982 136.1122980005457,121.03210291118012 135.04738427820848,121.52612964544096 134.18953711306676,122.34316989211948 132.20761435222812,125.26927346347657 131.45330046559684,127.41630911815446 131.17228156671626,129.6013103464793 131.73431936453562,133.72421634536295 133.27252807450714,136.51708113549103 134.1599561762996,137.1060452456586 135.59463160770247,137.3340306630853 136.34894549433375,137.18204042760772 137.56176390027395,136.3840888840641 138.90769652149174,134.97816278527898 139.98740071209613,133.32523094485805 141.11147630785126,129.90530771507474 141.27417145983782,127.73931152722798 140.99315256089903,126.04829034724389 140.65297178848414,124.60425549383217 139.51410572446184,122.1911627787631 138.6118871542276,121.29811753118702 137.35469734319486,120.93709756270982 136.1862503423472,120.99410077980428 135.07696521497564,121.48812765307957 132.97671870718477,123.99623619759222 132.2224048205535,125.26927346347657 131.45330046559684,127.53031005662342 131.17228156671626,129.46831128248596 131.32018625037745,131.82427530550922 132.32593809912214,135.11115642158256 133.1689947959385,136.40308778519102 134.1599561762996,137.1060452456586 135.34319364553085,137.35302943049464 136.6447548615979,137.06804763870605 138.9372774582007,134.9211654725077 140.56422897835728,131.99527109399787 141.03752396599157,130.34230273310095 141.27417145983782,127.77731175979716 140.756505067111,125.04126767150592 139.48452478769468,122.13416006715852 138.58230621746043,121.27911650428723 137.3842782799038,120.89909540458757 136.20104081073077,120.97509971007821 135.06217474665027,121.48812765307957 132.91755683376687,124.1292406526627" stroke="#4DD2FF" stroke-linecap="round" stroke-linejoin="round" stroke-width="0.5"><title>2024-12-20 16.0km</title><desc>1734644952000</desc></polyline><polyline fill="none" points="152.0,136.598474776707 156.4387628865661,137.4184560510912 158.04206185566727,137.0561393556127 158.39835051546106,135.39709790317283 160.268865979393,134.38640752252832 162.5550515463692,133.73803613962082 163.03010309278034,137.34217893258028 164.15835051541217,138.75329867612163 164.7224742267863,139.07747275795555 165.3756701030652,139.09654179740755 166.53360824740957,138.44819294956687 168.40412371134153,138.1430865361326 171.3583505154238,138.94398940635438 173.88206185569288,137.704494863312 175.04000000003725,137.55194090529403 178.26144329895033,137.89518706939998 179.552989690681,136.46498898341088 181.45319587626727,137.36124821622798 183.2049484535819,137.265901771083 185.38721649482613,135.2636109264422 187.2577319587581,132.17430415887793 187.97030927828746,127.94069530905108 187.19835051544942,124.20280457673653 186.33731958759017,122.35289193780045 185.5802061855211,121.51374798096367 184.33319587627193,120.9606729860534 183.17525773192756,120.94160139431187 181.4828865979216,121.64724850353377 179.96865979378344,123.32552956676227 178.87010309280595,125.28985486166494 177.7863917525392,129.04678606128437 178.0090721649467,132.55570386681939 179.52329896902665,136.04546134828706 180.41402061854023,136.9417233557615 181.20082474232186,137.28497106547002 183.17525773192756,137.20869387176936 184.74886597931618,135.9501139774511 185.90680412366055,134.5580347222567 187.4210309277987,131.5831324900937 188.0,127.76905972798704 187.67340206186054,125.72848671775137 186.87175257730996,123.3636720765935 185.4911340205581,121.41839038426406 184.15505154640414,120.94160139431187 182.59628865984268,121.01788774543093 181.4383505154401,121.64724850353377 180.08742268040078,123.23017324517423 178.55835051543545,125.9954793262441 177.99422680406133,128.20768355869222 177.8309278350789,130.38171115214936 178.39505154639482,133.75710593049007 179.49360824743053,136.00732240801153 180.41402061854023,136.9035846676852 181.58680412371177,137.36124821622798 183.14556701033143,137.24683247401845 185.3575257731136,135.2636109264422 187.19835051544942,132.17430415887793 187.80701030924683,130.01937564210675 187.98515463917283,127.71184781934426 187.27257731952704,124.24094683959265 185.68412371131126,121.55189100083953 184.31835051544476,120.9606729860534 182.96742268034723,120.9034582025779 181.63134020613506,121.47560495029029 180.7406185566797,122.35289193780045 178.58804123703158,125.88105398700282 177.80123711336637,129.67610952834366 178.3653608247987,133.56640790140955 179.12247422675136,135.39709790317283 180.1616494844784,136.73196043857024 181.40865979384398,137.28497106547002 182.86350515461527,137.28497106547002 184.8379381443374,135.89290552266175 187.0795876288321,132.55570386681939 187.79216494841967,130.01937564210675 187.97030927828746,127.94069530905108 187.643711340148,125.6522030186461 186.87175257730996,123.3064583078085 185.69896907213842,121.55189100083953 184.28865979379043,120.9606729860534 182.9822680412326,120.92252979979094 181.69072164944373,121.4565334309882 180.96329896902898,122.23846352241526" stroke="#4DD2FF" stroke-linecap="round" stroke-linejoin="round" stroke-width="0.5"><title>2024-12-15 10.9km</title><desc>1734216782000</desc></polyline><polyline fill="none" points="12.0,176.06376647828438 12.836867862963118,176.85586230868648 15.450244698207825,177.04445586401562 16.91843393148156,177.42164217862592 18.415986949403305,177.02559652044147 18.66557911905693,175.3659638918616 20.500815660634544,174.46070106854313 22.74714518757537,173.81946953566512 22.982055464934092,173.9137684829475 23.011419249523897,176.02604751239414 23.422512234887108,177.5913756738737 24.89070146816084,179.00581310824782 25.683523654181045,179.0246721732401 27.092985318100546,178.36460332096613 28.76672104408499,178.1194340621587 31.58564437192399,178.9303768218815 33.47960848285584,177.8931235790369 35.32952691678656,177.49707931412559 38.25122349098092,177.81768666645803 39.411092985246796,176.49753382240306 40.145187601970974,176.57297147809004 41.48123980424134,177.28962708925246 43.257748776406515,177.08217454330588 44.44698205543682,176.27122060058173 45.812398042413406,174.8190350005898 46.678629690024536,173.36683366532088 47.61827079934301,170.85844884018297 47.95595432294067,168.35001706446928 47.64763458404923,165.8226774148934 46.649265905376524,163.0123706424638 45.46003262640443,161.54117983634933 44.13866231642896,161.03191771713318 42.773246329510584,161.1262256629998 41.64274061995093,161.69207194444607 40.130505709617864,163.44618023252406 38.47145187598653,166.65255539154168 37.898858075088356,169.97201590787154 38.30995106039336,173.1216552638798 39.792822185961995,176.34665838365618 41.5986949428916,177.2707677801809 43.4045676998212,177.02559652044147 45.85644371935632,174.7247366903175 46.73735725937877,173.31025407399284 47.735725937993266,170.40580296899134 47.97063621529378,168.4065987499198 47.67699836863903,165.65292901375506 46.458401305018924,162.57855964807095 45.51876019575866,161.54117983634933 43.93311582383467,160.97533291774744 42.75856443709927,161.05077931158303 42.053833605197724,161.39028755832987 40.58564437186578,162.7860346466623 38.721044045640156,165.93584289611317 38.03099510597531,168.74608836107654 38.08972267532954,171.82031624022056 38.574225122341886,174.1400856855471 40.15986949426588,176.64840909128543 40.15986949426588,177.10103387889103 41.45187601953512,177.81768666645803 42.244698205497116,179.06239029511926 41.7895595432492,178.53433562202554 41.907014681899454,177.77996819422697 42.39151712885359,177.28962708925246 43.140293637872674,177.17647119486355 44.15334420878207,176.51639324027929 45.812398042413406,174.7813156844204 46.73735725937877,173.31025407399284 47.735725937993266,170.38694269119878 47.97063621529378,167.50128891564964 47.10440456768265,164.03087789274286 46.2088091353653,162.20133155481017 45.254486133751925,161.35256446228595 43.93311582383467,160.9564713126747 42.420880913501605,161.25825667571917 41.24632952688262,162.12588580866577 40.086460032558534,163.50276398853748 38.42740619898541,166.80344174421043 37.91353996732505,170.06631756234856 38.63295269163791,174.21552466823778 39.807504078315105,176.32779894190026 40.90864600328496,177.11989321187139 42.053833605197724,177.36506429909787 43.301794453465845,177.10103387889103 45.84176182706142,174.76245602236304 47.324632952630054,171.80145616151276 47.882544861291535,169.80227276259393 48.0,167.82192018142086 47.47145187598653,165.18140454925015 46.487765089725144,162.72945058799814 45.078303425747436,161.23939511040226 44.035889070131816,160.9376097048953 42.56769983685808,161.16394882276654 41.29037520394195,162.1070243655413 39.93964110931847,163.82340482145082" stroke="#4DD2FF" stroke-linecap="round" stroke-linejoin="round" stroke-width="0.5"><title>2024-12-10 11.3km</title><desc>1733785667000</desc></polyline><polyline fill="none" points="58.66666666668607,176.85414686354488 60.81431767344475,175.62996189756086 61.633109619724564,175.44029834375397 62.34451901569264,176.07825640302326 63.163310962030664,176.21619284394546 66.21029082778841,176.6644852046884 67.52572706941282,176.31964507277007 67.84787472040625,174.8023369629591 71.61968680092832,173.2850100637006 71.79418344522128,173.371222322814 71.98210290831048,176.38861317680858 73.59284116333583,178.18177025592013 74.17002237139968,178.25073731184239 75.40492170024663,177.61279056340572 76.894854586164,177.33692067056836 79.71364653244382,178.0783195992335 81.60626398213208,177.06105015659705 82.8948545861058,176.80242098571034 85.70022371370578,177.13001784330845 86.93512304249452,175.85410935535037 88.43847874720814,176.52654926840478 90.18344519019593,176.50930726546358 91.5525727069471,175.5265090864341 93.60626398207387,172.7849777645897 94.33109619683819,170.71585690294887 94.6129753915011,168.78464590564545 94.2102908277302,165.47392765868426 93.20357941836119,163.1632692060084 92.39821029087761,162.2148520023111 90.94854586134898,161.76650676840654 89.70022371364757,161.8527271331186 89.0827740492532,162.1631199436888 87.01565995527199,164.54277203212405 85.72706935124006,167.54313704700326 85.47203579422785,169.50885359685344 85.79418344516307,172.76773523514566 86.97539149894146,175.4058140297493 87.47203579416964,176.00928812431084 88.49217002239311,176.5437912689158 89.44519015663536,176.6644852046884 90.31767337810015,176.45758124202257 91.8612975392025,175.18166575190116 93.4854586130241,172.97464542862144 94.47874720359687,170.14684254013991 94.65324384788983,167.95697473106702 94.19686800899217,165.43944053946325 93.0156599553302,162.9046106967653 92.06263982102973,162.0424117219227 90.57270693517057,161.74926268815034 89.767337807687,161.80099492153386 89.10961968684569,162.18036396567913 87.49888143182034,163.85302256073192 86.06263982108794,166.45680647565314 85.44519015663536,169.68128336860536 85.78076062642504,172.5435821312276 87.01565995527199,175.4575404971547 88.23713646526448,176.42309721425408 89.23042505601188,176.6644852046884 90.34451901569264,176.47482325223245 92.18344519019593,174.83682144685008 93.47203579416964,173.07810039435572 93.99552572704852,171.94009096704394 94.46532438480062,170.1640854384459 94.66666666668607,167.99146114165342 94.19686800899217,165.3877098423909 92.78747203585226,162.55973183497554 92.07606263982598,162.02516768050555 90.69351230422035,161.74926268815034 89.31096196873114,162.0424117219227 88.07606263988419,163.19775696597208 87.01565995527199,164.64623411792127 87.40492170018842,165.24976121019427" stroke="#4DD2FF" stroke-linecap="round" stroke-linejoin="round" stroke-width="0.5"><title>2024-12-08 8.9km</title><desc>1733614342000</desc></polyline><polyline fill="none" points="105.33333333331393,176.20759934093803 105.77391762071056,175.89724110413226 106.52717462822329,175.86072832161153 107.26621923933271,176.57272572783404 109.81023818912217,176.75528853591823 111.33096460060915,177.17518201969506 112.73799184098607,176.70051972047077 112.95117778651183,175.18523999080935 114.78457691794029,174.30892556412437 116.7743124095141,173.74296935094753 117.1154099223204,173.90727947367122 117.31438347144285,176.59098202023597 118.03921568620717,177.97845272373524 119.06250822474249,178.72695049454342 122.65824450575747,177.8141477570898 123.80944861163152,177.99670881827478 125.55757336487295,178.72695049454342 127.80313199094962,177.46728103295027 129.26700881688157,177.21169443232066 131.86787735222606,177.63158643887436 133.11856823263224,176.26236836452154 135.53467561514117,177.1386695967376 136.9559152519214,176.77354480257782 138.46242926694686,175.4955999308877 140.18212922749808,173.15875389611756 141.14857218053658,170.32892305207497 141.33333333331393,167.9189539221552 141.03487300960114,166.0201588318596 140.52322674030438,164.34043231453688 139.35781023814343,162.13119367035688 137.9507829977665,161.38260014046682 136.54375575727317,161.34608327245223 135.47782602970256,161.71125149048748 134.15607316739624,162.95281574246474 132.12370048690354,166.64092182308377 131.56941702845506,170.42020888149273 131.92472693772288,172.9944428254821 132.90538228710648,175.38606121328485 133.6870640873094,176.4084189808491 134.80984340037685,177.01087603569613 136.10317146981834,177.0656447201618 137.42492433212465,176.46318791965314 138.9314383470919,174.966161939039 140.08264245290775,173.23178097190976 141.10593499138486,170.47498034827004 141.30490854056552,167.99198394751875 141.03487300960114,165.87409651986673 140.3100407947204,163.7379164157319 139.2867482563015,162.09467701302492 138.5903408342856,161.60170113305503 137.05540202656994,161.27304950547114 135.46361363329925,161.7842850107554 133.6870640873094,163.57359341219126 132.20897486509057,166.42182934186712 131.56941702845506,169.2882600563753 131.85366495582275,172.5927926654549 132.59270956699038,174.80185315747804 133.3601789708482,176.07980486271845 134.39768390572863,176.84656984369212 135.2788524805219,177.08390094313654 136.3305698117474,177.08390094313654 137.43913672841154,176.51795683529053 139.86945650738198,173.57865902023332 141.12014738772996,170.27415152353933 141.30490854056552,168.19281630527985 141.10593499138486,166.31228296249174 140.79326227126876,164.86991367291193 139.76996973284986,162.7337170320534 138.9030135543435,161.76602663451922 137.9792077904567,161.36434170778375 136.6432425318635,161.3095663941058 135.53467561514117,161.71125149048748 134.41189630207373,162.7154587894911 133.23226740350947,164.35869032841583 132.3084616396227,166.14796321996255 131.75417818134883,168.06501393172948 131.58362942485837,170.27415152353933 131.76839057763573,172.17288435039518 133.0475062507321,175.6599078338768 133.6444268982159,176.37190634220315 134.6677194367512,176.97436356658 135.9752599025378,177.12041338147537 136.85642847738927,176.8830823487515 137.83708382677287,176.22585568472277 139.2725358598982,174.5462613057898 140.8643242531689,171.424348765795 141.2906961441622,167.88243889408477 140.9069614422624,165.56371356084128 140.33846558752703,163.92049728668644 139.69890775094973,162.67894229663943 138.87458876165329,161.76602663451922 137.5528358994634,161.3095663941058 136.23108303715708,161.38260014046682 135.44940123695415,161.76602663451922 133.91446242918028,163.35449575034727 132.26582445052918,166.31228296249174 131.612054217665,169.47083311558526 132.13791288319044,173.68819926385186 133.71548888011603,176.44493160926504 134.78141860768665,177.01087603569613 135.90419792069588,177.08390094313654 136.85642847738927,176.84656984369212 137.9934201868018,175.9885230155778 139.54257139092078,174.1263593134936 140.66535070398822,171.9720581540605 141.12014738772996,170.31066587843816 141.33333333331393,167.86418137614965 140.963811027701,165.54545571657945 139.45729701267555,162.29551850110875 137.9649953941116,161.40085857067606 136.72851691005053,161.27304950547114 135.6341623897315,161.63821792912495 133.9855244110804,163.24494678064366 133.47387814178364,163.42752834543353" stroke="#4DD2FF" stroke-linecap="round" stroke-linejoin="round" stroke-width="0.5"><title>2024-12-07 13.6km</title><desc>1733525549000</desc></polyline><polyline fill="none" points="152.0,178.91979245474795 152.2756183744641,180.0908526352432 153.44169611297548,181.77934553807427 154.54416961118113,182.89592146301584 155.37102473492268,183.03208881804312 157.63957597163972,182.07891532096255 159.8233215546934,181.6976446077606 164.33922261476982,182.73252051051531 166.79858657240402,181.42530792416073 169.06713780912105,180.74446453872952 173.94346289744135,181.2619057301199 175.55477031797636,179.35553660547885 179.30742049473338,180.58106176978617 180.51590105996002,180.47212651387963 181.99999999988358,179.68234407473938 184.69257950526662,176.90446299570613 186.53710247343406,173.8269599514315 187.38515901053324,171.23964076454286 187.9575971730519,166.96367954947345 187.10954063595273,162.6603875249857 185.34982332144864,158.68384273453557 184.01413427561056,157.485415951116 181.44876325083897,156.96791118195688 179.13780918717384,157.73054930615763 176.31802120129578,160.89001808685134 174.32508833915927,164.7031013664382 173.49823321553413,169.76893864944577 174.21908127202187,175.3793348603649 176.1696113073267,179.00149455771316 177.48409893980715,180.00915099220583 179.3286219079746,180.52659414950176 181.76678445225116,179.87298151028517 184.69257950526662,176.90446299570613 186.21908127202187,174.58953163823753 187.19434628961608,172.08392766973702 188.0,166.96367954947345 186.93992932862602,161.8977688296727 185.328621908091,158.68384273453557 184.5229681978235,157.83949736418435 182.86925795057323,157.15857099478308 180.83392226148862,156.99514830956468 179.30742049473338,157.62160118670727 178.07773851579987,158.68384273453557 176.29681978805456,160.89001808685134 174.70671378087718,163.72260141355218 173.66784452286083,167.45392193604494 173.49823321553413,169.55105590399762 174.00706713763066,174.8346433279803 176.31802120129578,179.16489866025222 177.52650176663883,180.00915099220583 179.3286219079746,180.55382796152844 180.68551236740313,180.41765886290523 182.42402826843318,179.35553660547885 184.60777385148685,177.04063456608856 186.3462897525169,174.26271556899883 187.6819787984714,170.12299758753215 187.9575971730519,166.88197236422275 187.5123674911447,165.65636044659186 187.63957597175613,164.37626860075397 186.57950530038215,160.97172780202527 185.24381625442766,158.54765824660717 183.95053003530484,157.485415951116 182.50883392221294,156.99514830956468 180.30388692568522,157.07685966946883 179.1590106006479,157.70331228201394 175.99999999988358,161.48922186373966" stroke="#4DD2FF" stroke-linecap="round" stroke-linejoin="round" stroke-width="0.5"><title>2024-12-05 7.7km</title><desc>1733352101000</desc></polyline><polyline fill="none" points="12.0,216.90046352250647 14.175675675680395,215.6159302353626 14.810810810828116,215.51177830151573 15.310810810828116,216.15404715930345 17.85135135136079,216.39706693620246 19.297297297336627,216.84838810885412 20.86486486485228,216.39706693620246 21.06756756757386,214.90422360152297 23.29729729727842,213.89741208201303 24.810810810828116,213.5675927283737 25.040540540590882,213.88005319063814 24.986486486450303,215.70272344638943 25.40540540544316,216.72687872478127 26.13513513514772,217.85517554380203 26.878378378401976,218.30649138190347 30.13513513520593,217.45593323378853 32.91891891893465,218.18498343408282 34.64864864863921,217.2649908026142 36.31081081076991,216.88310505374102 39.05405405408237,217.21291554284835 39.75675675680395,216.17140573069628 40.18918918923009,215.94574411242502 40.90540540544316,216.51857664511772 42.5135135135497,216.7615957038579 43.54054054059088,216.6053692210553 44.44594594591763,216.04989567984012 45.554054054024164,214.90422360152297 46.77027027029544,213.15097754751332 47.405405405384954,211.53658043130417 47.98648648650851,208.04732738397433 47.1756756757386,204.48853479134414 45.77027027029544,202.24904681402404 44.243243243254256,201.72822982862272 43.18918918923009,201.84975398860115 42.378378378401976,202.19696521446167 40.79729729733663,203.88092579383374 39.324324324319605,206.53702306914784 38.72972972976277,209.74856756810186 39.08108108106535,213.08154154727526 39.675675675680395,214.57440693981334 40.60810810816474,215.94574411242502 41.85135135136079,216.64008623437257 43.027027027041186,216.7095202315977 44.175675675680395,216.20612286610412 45.28378378384514,215.16460455367633 47.1756756757386,212.26566561628715 47.675675675680395,210.49502269161167 47.959459459467325,208.11676621815423 47.18918918923009,204.66213681230147 46.29729729727842,202.83930340554798 45.74324324319605,202.23168628329586 44.243243243254256,201.71086922458198 43.405405405384954,201.78031162612024 42.64864864869742,202.04072028383234 41.63513513514772,202.8740242935237 39.51351351349149,206.08566416746908 38.72972972976277,209.87008382625208 39.06756756763207,213.02946452137985 39.68918918923009,214.62648331341916 40.62162162171444,215.98046131135197 41.405405405384954,216.48385959763982 42.756756756745744,216.77895418975095 43.662162162188906,216.53593516522233 44.756756756745744,215.7200820812941 47.108108108106535,212.45661578595173 47.90540540544316,209.08890579208673 47.662162162188906,205.98150418636214 46.22972972976277,202.73514068288205 45.68918918923009,202.21432575012295 44.27027027029544,201.71086922458198 43.3378378378693,201.81503281228652 42.25675675680395,202.31848891258414 40.77027027029544,203.89828609243705 39.540540540532675,206.05094418354565 38.79729729733663,208.7764331931612 38.71621621627128,210.5644601478998 39.027027027041186,213.04682353247335 40.459459459467325,215.84159245702904 42.040540540532675,216.69216173593304 43.28378378378693,216.64008623437257 44.08108108106535,216.25819855088048 45.027027027041186,215.47706097073387 46.28378378378693,213.84533540056145 47.108108108106535,212.4739748776119 47.4864864864503,211.31091033401754 47.959459459467325,207.9952482326844 47.14864864863921,204.52325521508465 46.256756756745744,202.75250114274968 45.21621621621307,201.93655688668514 44.27027027029544,201.71086922458198 43.040540540532675,201.86711457313504 41.72972972976277,202.80458250777156 40.58108108112356,204.19341079499281 39.243243243254256,206.7974216841394 38.837837837811094,208.6028369628475 38.72972972976277,210.59917886131734 39.06756756763207,213.0641825410712 39.71621621621307,214.66120088366733 40.41891891899286,215.8242338392156 41.14864864869742,216.36234985453484 42.527027027041186,216.7615957038579 43.59459459455684,216.553293682824 44.5135135135497,215.94574411242502 45.94594594591763,214.4355365026713 47.12162162165623,212.43925669180317 47.70270270277979,210.39086643391056 47.959459459467325,208.012607952267 47.06756756757386,204.3670132312982 46.28378378378693,202.78722205517988 45.756756756745744,202.23168628329586 44.50000000005821,201.6935086181038 43.3378378378693,201.76295102941367 42.094594594615046,202.37057046087284 40.93243243242614,203.70732267331914 39.459459459467325,206.2071840342469 38.71621621627128,210.02631883943832 39.06756756763207,213.04682353247335 39.72972972976277,214.6785596651098 40.48648648650851,215.87630968525627 41.51351351349149,216.5706521980028 42.50000000005821,216.74423721556377 43.77027027029544,216.44914254038304 46.00000000005821,214.40081886891858 47.108108108106535,212.4739748776119 47.459459459467325,211.3803473310254 48.0,207.7695716563685 47.3378378378693,204.99197997890587 46.70270270272158,203.53371930848516 45.959459459467325,202.4573729924159 45.175675675680395,201.93655688668514 43.79729729733663,201.71086922458198 42.45945945952553,202.12752304748574 41.41891891893465,203.0649890028144 40.43243243248435,204.57533583234908" stroke="#4DD2FF" stroke-linecap="round" stroke-linejoin="round" stroke-width="0.5"><title>2024-12-03 16.2km</title><desc>1733178751000</desc></polyline><polyline fill="none" points="58.66666666662786,224.58302042137075 61.1551459293114,223.36531031914637 63.09852973441593,223.091324601628 65.46850998466834,223.33486747879942 68.33618608734105,224.3699216482346 71.15646258497145,222.7564526978531 73.97673908271827,222.08670733541658 78.8825982005801,222.78689561966166 80.89708141318988,220.41233485838166 81.67917489574756,220.38189160241745 84.28615317086224,221.69094773760298 86.39543559355661,221.69094773760298 88.07812157110311,220.83853999098937 89.73710774618667,219.28593153702968 91.04059688386042,217.91597364802146 93.31577792391181,213.92782462811738 94.6429668640485,207.38222985599714 93.31577792391181,200.62331485393224 91.7278911563335,197.3351176801807 90.23480359883979,196.02591415210918 88.05442176864017,195.50831987391575 85.73184112343006,195.84323396005493 83.83585692348424,197.27422466852295 81.22887864813674,200.4710846067028 79.49879306566436,203.94190761812206 78.76409918803256,206.92555306224676 78.45600175554864,209.2393722183915 78.71669958299026,213.34938469571352 79.26179504056927,215.87624249485089 81.06298003066331,219.46859193350247 82.3901689708,220.99075590640132 84.94974764087237,221.81271999863384 86.22953697596677,221.78227693977533 88.24402018857654,220.71676718158415 91.01689708139747,217.94641725088877 92.86548167653382,214.99336782321916 94.2400702215964,210.85294198268093 94.66666666662786,206.4993205183564 93.62387535662856,201.35401854896918 92.13078779901844,197.9744932676258 90.7798990564188,196.36082743678708 87.31972789112478,195.41697957862925 84.99714724591468,196.20859418981127 81.22887864813674,200.41019247785152 79.26179504056927,204.70304557000054 78.43230195296928,210.4267171768879 79.19069563294761,215.7544668923074 80.68378319055773,218.9510537431197 82.17687074816786,220.89942636997148 83.90695633087307,221.5996184968244 86.15843756846152,221.7518338766822 89.21571209118702,219.89479892542295 93.07877989904955,214.44537483550084 94.2874698266387,210.09182566893287 94.66666666662786,206.43843008644762 93.41057713399641,200.74509897448297 91.7278911563335,197.36556417963584 90.06890498124994,195.9041273745097 87.2723282861989,195.41697957862925 85.51854290091433,195.84323396005493 84.19135396089405,196.8175265347527 81.2525784507161,200.41019247785152 79.475093263085,203.94190761812206 78.3375027430011,210.21360445911705 79.26179504056927,215.7544668923074 80.87338161072694,219.1337144223071 82.31906956329476,220.89942636997148 84.0728549483465,221.5996184968244 86.18213737104088,221.66050466158777 87.88852315116674,221.02119907656743 89.54750932625029,219.59036544547416 92.74698266398627,215.05425584729528 94.31116962910164,210.33538318071805 94.61926706158556,206.56021093318122 93.97937239392195,202.66318982988014 92.9128812814597,199.5272546831111 90.56660083378665,196.17814752759296 87.22492868104018,195.44742634800787 84.59425060334615,196.45216733352572 81.37107746314723,200.2579620807228" stroke="#4DD2FF" stroke-linecap="round" stroke-linejoin="round" stroke-width="0.5"><title>2024-12-01 10.0km</title><desc>1733006314000</desc></polyline><polyline fill="none" points="120.93356452137232,227.79311604078976 123.83261409273837,227.6689855955192 125.7975254689809,226.551809229044 131.94995289249346,218.69007772995974 134.23698088759556,210.00055098175653 133.78601762105245,202.9246037825651 130.98360303533264,195.47605432753335 129.0831149830483,193.44836096445215 126.63502867834177,192.33105456383782 123.67155578325037,192.20690914604347 120.70808288804255,193.61388747752062 116.26287354528904,198.869305814791 113.91142222634517,203.71082854777342 112.81622572161723,207.8488189750933 112.39747411687858,211.448823273764 112.78401405969635,217.11770620560856 115.29652368824463,223.90367051685462 116.97153010731563,226.30354723794153 120.1604846357368,227.8758696419245 122.4153009688016,228.0 125.05665724514984,226.92420182278147 127.92349515447859,224.40019834198756 131.49898962583393,219.31074838535278 133.6893826352898,213.6419077355822 134.30140421143733,206.3591491302359 133.14178438286763,200.1934908934345 131.94995289249346,197.2968282875372 129.82398320687935,194.11046645743772 127.82686016894877,192.66210875473917 123.63934412132949,192.12414550504764 122.09318434994202,192.66210875473917 119.1619231167715,195.18638470335281 116.26287354528904,198.869305814791 114.42680881684646,202.30389853552333 113.041707354947,206.6074279618624 112.46189744072035,211.986751165241 112.78401405969635,216.91081458967528 115.23210036440287,223.90367051685462 116.8426834596321,226.13803912734147 118.93644148332532,227.46210140336188 121.83549105457496,227.9586232197762 124.57348231656943,227.29659394492046 128.98647999728564,223.0761222783185 132.14322286378592,218.1107839360775 133.46390100184362,214.4281038424524 134.36582753516268,206.6074279618624 133.14178438286763,200.0693487956887 131.94995289249346,197.17268496670295 129.98504151636735,194.11046645743772 127.89128349267412,192.62072700128192 124.25136569747701,192.12414550504764 121.86770271649584,192.78625398030272 120.3215429453412,193.90355865110178 116.1662385596428,198.9106866887596 113.84699890261982,203.75220874027582 112.880649045459,207.22812412367784 112.719590735971,215.95911128103035 113.26718898827676,219.1038583124755 115.26431202644017,223.82091579778353 116.52056684053969,225.80702262671548 118.96865314524621,227.46210140336188 121.41673944995273,228.0 124.34800068312325,227.29659394492046 126.28070039732847,226.05528503714595 129.30859661637805,222.66234728557174 132.49755114479922,217.49011074760347 133.78601762105245,213.43501367379213 134.43025085900445,207.2695038211532 133.14178438286763,200.11072950073867 130.79033306380734,195.26914748223498 128.5355167306261,192.95178086619126 124.18694237363525,192.08276367589133 122.57635927852243,192.45519992915797 120.6436595643172,193.69665069913026 117.45470503577963,197.08992272350588 113.68594059324823,204.24877059672144 112.68737907405011,208.51089203896117 112.46189744072035,212.97984622544027 113.2027656645514,218.97972419889993 114.26575050724205,221.83479555347003 116.48835517873522,225.7242684433295 118.96865314524621,227.50347825340577 121.61000942136161,228.0 124.4446356688859,227.3379708182183 126.92493363539688,225.4346286181535 130.11388816393446,221.58652957971208 133.10957272094674,215.91773280643974 134.30140421143733,210.6626192004187 134.3336158733582,206.19362979277503 132.07879954006057,197.42097155592637 130.46821644483134,194.6484260725265 128.34224675921723,192.70349050246296 125.37877386400942,192.0 121.86770271649584,192.86901743503404 119.00086480716709,195.22776609574794 116.19845022156369,198.869305814791 113.46045895980205,204.8280917025404 112.236415807507,212.15226724155946 113.041707354947,218.85559003276285 115.42537033581175,224.40019834198756 117.00374176923651,226.17941616367898 119.54846305958927,227.75173923152033 122.54414761660155,227.8758696419245 125.02444558311254,226.88282489127596 130.08167650201358,221.46239651410724 131.7244712591637,219.0211022424919 133.49611266388092,214.5522398777539 134.39803919719998,207.02122554872767 133.8504409447778,203.04874467480113 132.11101120198146,197.58649583236547 130.30715813534334,194.4829001420585 127.76243684487417,192.57934524209122 124.38021234504413,192.04138184091426 121.15904615470208,193.15868934238097 116.13402689783834,198.95206755693653 117.13258841680363,200.77281999000115" stroke="#4DD2FF" stroke-linecap="round" stroke-linejoin="round" stroke-width="0.5"><title>2024-11-29 13.9km</title><desc>1732833187000</desc></polyline><polyline fill="none" points="152.0,216.8085588758404 154.1740435109241,215.59437120175426 154.90322580654174,215.50764305309713 155.5378844711231,216.1667754524824 159.52138034510426,216.73917704520136 160.87171792954905,216.27084866706718 161.06076519133057,214.88319858142495 162.82970742689213,213.99856349808397 164.69317329331534,213.42614917867468 165.0037509376998,213.63430014785263 164.9632408102625,215.81986410266836 165.2873218304594,216.72183158143162 166.23255813954165,217.86662695406994 167.2453113278607,218.31760403024964 168.73068267066265,217.62379246037744 170.12153038260294,217.39830285940116 171.55288822203875,217.6064471211139 172.78169542382238,218.14415150390414 174.17254313576268,217.43299359410594 176.0360090023023,216.89528610918205 177.26481620408595,216.82590432737925 179.07426856720122,217.17281284589262 179.9249812453054,216.09739326062117 180.5731432858738,215.92393761014682 182.36909227306023,216.72183158143162 183.77344336087117,216.4269583241039 185.83945986494655,214.55362939048064 186.81170292571187,213.0445381556492 187.68942235561553,210.65076933438831 187.98649662418757,208.01410059712362 187.44636159040965,205.18655763049173 186.4606151538319,202.94876291810942 185.2183045761194,201.90791432376864 183.80045011255424,201.68239596974308 182.72018004499841,201.95995696228783 181.80195048765745,202.65385670885735 180.33008252060972,204.56206086780003 179.34433608403197,206.47023548330617 178.77719429857098,209.19366989925038 179.08777194295544,212.94046221707686 180.3570892722928,215.66375367674482 181.23480870219646,216.37492179377296 182.4231057764846,216.70448611525353 183.26031507877633,216.63510422604304 184.20555138785858,216.18412099433772 185.83945986494655,214.51893784543063 186.81170292571187,213.0445381556492 187.70292573148618,210.6160766909088 187.94598649657564,207.68451303907932 186.98724681168096,203.9722554642285 186.3525881470996,202.80998361343518 185.29932483122684,201.90791432376864 184.30007501877844,201.68239596974308 183.1792948237271,201.80382898084645 182.31507876969408,202.27221233167074 181.05926481616916,203.4518365876429 179.33083270816132,206.52227619535552 178.72318079520483,210.11303226261225 179.1417854463798,213.02719217195408 180.41110277571715,215.68109928941703 181.15378844714724,216.3402307612414 181.93698424607283,216.652449702 183.7194298574468,216.47899483256333 185.94748687167885,214.41486315170187 187.3248312078067,211.89969799773098 188.0,208.1008340185872 187.55438859714195,205.48145777956233 186.31207801948767,202.75794133384625 185.25881470367312,201.90791432376864 184.20555138785858,201.68239596974308 183.04426106525352,201.85587166332698 181.97749437356833,202.48038213846303 181.05926481616916,203.33040520024952 179.78994748689001,205.56819298328628 179.06076519127237,207.52839230925747 178.7501875469461,209.43652100131294 179.12828207056737,212.99250019729516 180.19504876225255,215.4209148434311 181.1807951988303,216.3402307612414 182.3555888971896,216.72183158143162 183.26031507877633,216.66979517554137 184.25956489122473,216.1667754524824 185.97449362342013,214.43220894011756 186.81170292571187,213.02719217195408 187.81095273821848,210.25180334442848 187.97299324831693,208.06614065734175 187.79744936234783,206.6957450767659 186.7846961740288,203.39979457913432 185.7854463615804,202.23751732971868 184.853713428427,201.73443870344636 183.77344336087117,201.68239596974308 182.62565641419496,202.02934711272246 180.99174793699058,203.59061516961083 180.5731432858738,204.33654737029428" stroke="#4DD2FF" stroke-linecap="round" stroke-linejoin="round" stroke-width="0.5"><title>2024-11-27 11.3km</title><desc>1732665796000</desc></polyline><polyline fill="none" points="12.0,257.27260599015426 12.695135536487214,257.11806205285393 14.52655031561153,256.01907729873346 15.208317861077376,255.9675621455608 15.876717415521853,256.60291418164707 19.887114741955884,257.11806205285393 21.157073895272333,256.75745877137524 21.304121797264088,255.46958121011266 21.66505755658727,255.12614489823318 23.56331229110947,254.23320596374106 25.02042331971461,253.94128220254788 25.301151132560335,254.30189380607771 25.44819903455209,257.1008904922128 25.78239881171612,257.5130072813554 34.84589676937321,257.70189367797866 36.71741552173626,257.27260599015426 39.150389899732545,257.5816932776288 40.05941329372581,256.4827126987948 40.70107686595293,256.25948105941643 42.22502785001416,257.0493757956865 43.855922762770206,256.9120031653583 45.17935388046317,255.83018829737557 47.010768659529276,253.27157211150916 47.79948013368994,250.7815920996727 47.95989602676127,249.2875797031811 47.47864834754728,245.76713332827057 46.74340883776313,243.96393853066547 46.10174526553601,243.0365708291938 45.37987374677323,242.53853711738338 43.762346825096756,242.29810632202134 42.572595618257765,242.74462027921254 41.82398811733583,243.3800411701377 40.56739695509896,244.99433882100857 39.578165614570025,246.8662104190007 38.923134051205125,249.78558586785948 39.32417378388345,253.7180459139272 40.580764946120325,256.1907943189508 41.837356108473614,256.9978610774706 43.21425919054309,257.11806205285393 44.13665057561593,256.7746303804088 45.27292981807841,255.74432956375676 47.33160044561373,252.48165292073827 47.986632008862216,249.047162206567 47.43854437436676,245.6297479958448 46.649832900147885,243.86089802304195 45.954697363544255,242.93352953840804 44.8050501300022,242.38397451765923 43.54845896770712,242.31527996600198 42.532491645019036,242.77896743899328 41.34274043823825,243.87807144701947 39.604901596787386,246.7459993444063 38.923134051205125,250.28359000001365 39.03007797989994,252.53316954557522 39.45785369473742,254.00997020921932 40.6609728927142,256.2938244151446 42.037875974783674,257.06654736362543 43.28109914594097,257.0837189291051 43.92276271816809,256.9120031653583 45.192721871542744,255.79584481116035 47.21128852578113,252.72206365054444 47.746008169371635,250.93614406215056 48.0,248.56632579220604 47.30486446339637,245.30345721127378 46.649832900147885,243.84372459660517 45.754177497234195,242.77896743899328 44.71147419232875,242.33245360755973 43.57519494986627,242.29810632202134 42.572595618257765,242.7102731097475 41.409580393577926,243.77503086689103 40.47382101742551,245.06303186431614 39.49795766803436,247.02076734089496 39.00334199774079,248.8754351332318 38.8830300780246,250.71290227570717 39.44448570365785,254.06148618878797 40.540660972939804,256.1564509342279 41.0753806164721,256.6200858124066 42.25176383217331,257.1008904922128 43.72224285179982,256.9806894998328 45.84775343484944,255.00594196071324 47.39844040106982,252.20689722098905 48.0,248.78957150594943 47.30486446339637,245.2691107621722 45.91459339024732,242.86483529617544 44.87189008540008,242.38397451765923 43.78908280731412,242.29810632202134" stroke="#4DD2FF" stroke-linecap="round" stroke-linejoin="round" stroke-width="0.5"><title>2024-11-24 10.4km</title><desc>1732400098000</desc></polyline><polyline fill="none" points="58.66666666668607,256.9195949974164 60.82397003745427,255.62062939178577 61.49812734086299,255.5686704824111 62.280149812751915,256.174856393598 66.24419475655304,256.76371984856814 67.57902621728135,256.38269087590015 67.76779026217991,254.9278421299532 68.95430711610243,254.39092931991036 71.71835205995012,254.47752831859543 72.04194756556535,256.7464003754285 72.82397003745427,257.802883778917 73.56554307119222,258.2705046853225 74.19925093633356,258.3051432002467 75.92509363294812,257.54309361887135 77.20599250937812,257.4218580231827 79.67340823973063,258.1492698060538 81.15655430709012,257.3006223080738 82.7340823970153,256.8676366364234 85.78127340826904,257.16206705886725 86.84644194756402,255.91506279724854 87.53408239700366,256.4866079854619 89.01722846442135,256.69444194130483 89.93408239696873,256.64248348522233 90.86441947566345,256.2441345933985 92.54981273406884,254.52948768864735 93.43970037455438,253.12657699909323 94.43745318352012,250.28606688285072 94.63970037450781,248.0343964289641 94.31610486889258,245.78268477780512 92.92734082398238,242.69950507439353 91.90262172289658,241.93735885831848 90.43295880150981,241.69485679974605 89.54307116108248,241.954680415678 88.70711610489525,242.56093338618666 86.522846442007,245.54019029653864 85.57902621722315,248.4500925365137 85.44419475656468,249.87037697662163 85.67340823967243,252.4337756984969 86.34756554308115,254.33896989135974 87.17003745317925,255.7765059882804 87.79026217234787,256.36537134914397 89.12509363301797,256.7117614217641 90.3250936329132,256.53856650731905 91.30936329590622,255.88042360964027 92.56329588009976,254.51216790109902 93.49363295879448,253.07461703683657 94.14082397008315,251.51580796822236 94.61273408238776,248.93506955403427 94.30262172286166,245.7307217148773 93.69588014984038,244.0852133743465 92.61722846445628,242.3530755613465 91.83520599250915,241.92003729856515 90.41947565542068,241.71217839119345 89.48913857672596,241.92003729856515 88.72059925098438,242.49164748356998 87.3992509363452,244.03324959470046 86.44194756558863,245.6094744827642 85.97003745322581,246.7699788043392 85.45767790265381,249.43736516460922 85.7138576778816,252.45109577855328 86.36104868911207,254.39092931991036 87.1970037453575,255.81114520513802 87.9655430711573,256.40001040022617 89.28689138579648,256.7290808998223 90.51385767792817,256.43464944162406 91.241947565577,255.91506279724854 92.61722846445628,254.46020852374932 93.5071161048254,253.02265705259924 94.51835205993848,249.92233829170436 94.63970037450781,247.99975502327288 94.30262172286166,245.74804273830523 93.68239700375125,244.0505708569981 92.77902621723479,242.49164748356998 91.8621722846292,241.90271573641076 90.72958801500499,241.71217839119345 89.5026217228733,242.0412881657321 88.38352059928002,242.8380766065311 87.1430711610592,244.37967437798216 86.0644194757333,246.562128088568 85.52509363292484,248.81382547882095 85.47116104874294,250.68443505883624 85.75430711609079,252.78017683628423 86.3745318352012,254.46020852374932 87.18352059921017,255.81114520513802 88.45093632955104,256.60784450235224 89.85318352060858,256.64248348522233 91.02621722844196,256.0882585890722 92.65767790266545,254.40824912450626 93.62846441951115,252.7974968675844 94.14082397008315,251.55044838428148 94.55880149814766,249.52396764888545 94.66666666668607,248.05171712811716 94.31610486889258,245.71340068905556 93.34531835204689,243.30575437557854 92.77902621723479,242.5262904397605 91.5520599251613,241.8161078887424 90.0149812733871,241.78146473268134" stroke="#4DD2FF" stroke-linecap="round" stroke-linejoin="round" stroke-width="0.5"><title>2024-11-21 10.8km</title><desc>1732142576000</desc></polyline><polyline fill="none" points="105.33333333331393,256.6165907342438 107.29029822570737,255.35969763807225 107.92902982252417,255.28986987044482 108.71725179301575,255.95323207586625 111.04114760283846,256.09288682502665 112.5088712721481,256.4769365746033 113.88146470359061,256.1976277837457 114.18044545105658,254.6090470764393 117.97206493013073,253.2124758056816 118.20309550774982,253.50924851619493 118.4341260852525,256.21508460158657 120.07852019625716,258.4146239974216 120.67648169118911,258.65901485642826 120.75802189507522,258.0305802462972 123.01396753487643,257.2101191587135 124.29143072862644,257.24503250701673 126.2755756888655,257.85601451186085 127.9471498678322,256.93081201856694 129.04794261982897,256.63404749311303 130.40694601734867,256.564220442815 132.36391090974212,256.9133553014108 133.42393355979584,255.72629277320084 135.48961872403743,256.4245662242465 137.03888259717496,256.23254141700454 139.17251793126343,254.31227699689043 140.16459041141206,252.7062148373152 141.00717251788592,250.45420135550376 141.33333333331393,247.67840755600628 140.9935824839631,245.39138611920498 139.5530388824991,242.266303919474 138.5066062664846,241.5155741201961 137.18837297090795,241.35844405226817 135.44884862209437,242.0742571940209 133.7093242732808,244.0645451941673 132.3367308418383,247.24195633899217 132.0241600603913,249.9828445224921 132.1872404681053,252.02537786373432 133.4647036617389,255.13275724961568 134.89165722910548,256.2674550404263 136.79426198563306,256.3896526450262 137.9494148734957,255.63900831549836 139.52585881465347,253.77110620064195 140.5043412608211,252.00792045627895 141.1566628916189,249.82572518011148 141.33333333331393,247.7133235869842 141.03435258584796,245.63580263627227 139.60739901848137,242.33613901864737 138.0309550773236,241.39336186234868 136.73990184970899,241.42827966260666 135.50320875796024,242.05679838607466 134.30728576821275,243.31382627860876 133.070592676464,245.19934423218365 132.45904114760924,246.82296172589122 132.05134012835333,248.93537848108826 132.25519063795218,252.19995180291153 133.08418271044502,254.41701945898967 133.98112495278474,255.7437496573839 135.28576821438037,256.40710943585145 136.76708191767102,256.3896526450262 138.00377500941977,255.56918070507527 139.26764816913055,254.17262024324737 140.47716119291726,252.0777500712793 141.03435258584796,250.33199790410436 141.33333333331393,247.7307815988388 141.1430728576379,246.3166746801362 140.61306153261103,244.22167183404963 139.60739901848137,242.35359778732527 138.13967534917174,241.41082076368184 137.36504341260297,241.34098514356447 136.1963004907011,241.5504918860679 135.5439788599033,241.9869631296242 134.30728576821275,243.27890900915372 132.93469233665382,245.60088602051837 132.30955077381805,247.43399506364221 132.05134012835333,249.21470362362743 132.22801057004835,251.99046304640797 133.45111362775788,255.11530027948174 134.25292563223047,255.95323207586625 135.28576821438037,256.40710943585145 136.56323140801396,256.4245662242465 137.35145337856375,256.1278004878186 139.5394488486345,253.80602051679307 140.8984522461542,250.9604715144742 141.33333333331393,247.66094953676657 140.5179312948021,244.01216960332385 139.58021895051934,242.33613901864737 138.84635711583542,241.74253942244104 138.04454511136282,241.41082076368184 136.5088712721481,241.44573855905765 135.65269913169323,241.8647513362448 134.7557568893535,242.7726074976381 133.76368440920487,243.9947110681387 132.64930162322707,246.24684182200144 132.0241600603913,249.7035211095863 132.4998112494941,252.96807421684935 133.7908644771087,255.58663761139178 135.19063797657145,256.44202301014593 136.54964137409115,256.4769365746033 137.2970932427561,256.18017096341646 139.44431861070916,253.96313481790276 140.5179312948021,252.0777500712793 141.04794261982897,250.4367437269393 141.3197432993329,247.59111743539688 140.97999244992388,245.47867778775253 140.20536051341332,243.40111940920178 139.52585881465347,242.266303919474 138.57455643638968,241.62032738823473 137.56889392220182,241.35844405226817 136.38656096631894,241.5155741201961 135.48961872403743,242.05679838607466 134.28010570025072,243.29636764512543 132.594941487303,246.2992164692987 132.1872404681053,247.8704456049527 132.01057002635207,250.34945554736623 132.8259720648639,253.87584911959857 133.42393355979584,255.08038633181422 134.28010570025072,255.9706889281224 135.0683276707423,256.37219585175626 136.5768214420532,256.40710943585145 137.32427331065992,256.1278004878186 138.38429596071364,255.22004206352722 139.3899584749015,254.0155062074191 140.64024160057306,251.79843137548596 141.3197432993329,248.37672630904126 140.85768214421114,245.00730204790307 139.5394488486345,242.28376269793807 137.99018497543875,241.39336186234868 136.79426198563306,241.41082076368184 135.89731974329334,241.75999827463966 134.3616459040786,243.20907444076875 133.6413741033757,244.3264228167318" stroke="#4DD2FF" stroke-linecap="round" stroke-linejoin="round" stroke-width="0.5"><title>2024-11-17 16.3km</title><desc>1731797391000</desc></polyline></svg>