<?xml version="1.0" encoding="utf-8" ?>
<svg baseProfile="full" height="300mm" version="1.1" viewBox="0,0,200,300" width="200mm" xmlns="http://www.w3.org/2000/svg" xmlns:ev="http://www.w3.org/2001/xml-events" xmlns:xlink="http://www.w3.org/1999/xlink"><defs /><rect fill="#222222" height="300" width="200" x="0" y="0" /><text fill="#FFFFFF" style="font-size:12px; font-family:Arial; font-weight:bold;" x="10" y="20">Over 5km Runs</text><text fill="#FFFFFF" style="font-size:4px; font-family:Arial" x="10" y="280">ATHLETE</text><text fill="#FFFFFF" style="font-size:9px; font-family:Arial" x="10" y="290">sagasw</text><text fill="#FFFFFF" style="font-size:4px; font-family:Arial" x="65" y="280">SPECIAL TRACKS</text><rect fill="yellow" height="2.6" width="2.6" x="65" y="283" /><text fill="#FFFFFF" style="font-size:3px; font-family:Arial" x="70" y="285.5">Over 20.0 km</text><rect fill="red" height="2.6" width="2.6" x="65" y="287" /><text fill="#FFFFFF" style="font-size:3px; font-family:Arial" x="70" y="289.5">Over 40.0 km</text><text fill="#FFFFFF" style="font-size:4px; font-family:Arial" x="120" y="280">STATISTICS</text><text fill="#FFFFFF" style="font-size:3px; font-family:Arial" x="120" y="285">Number: 19</text><text fill="#FFFFFF" style="font-size:3px; font-family:Arial" x="120" y="290">Weekly: 2.4</text><text fill="#FFFFFF" style="font-size:3px; font-family:Arial" x="141" y="285">Total: 249.9 km</text><text fill="#FFFFFF" style="font-size:3px; font-family:Arial" x="141" y="290">Avg: 13.2 km</text><text fill="#FFFFFF" style="font-size:3px; font-family:Arial" x="167" y="285">Min: 7.7 km</text><text fill="#FFFFFF" style="font-size:3px; font-family:Arial" x="167" y="290">Max: 19.1 km</text><polyline fill="none" points="12.25,58.71753270008776 13.041530944639817,59.54364317310683 17.972109120513778,60.179109682751005 19.538680781784933,59.776647871462046 19.703583061869722,58.16678986597981 20.11583876219811,57.78550518506381 22.556392508151475,56.599280001508305 24.53521986969281,56.26035680352652 24.667141693877056,58.992903361533536 24.99694625410484,60.094380969778285 26.794381107436493,62.10667501899297 27.519951140042394,62.21258448691515 28.8061889251112,61.49239863528055 31.03236970677972,61.08994033516501 34.23147394141415,62.02194739089464 36.88640065147774,60.66629885681323 39.21152280125534,60.39093125652289 40.91001628659433,60.729845154550276 42.460097719857,61.42885265946097 43.103216612304095,62.95394867642608 46.0054967427277,63.1445845921553 46.30232084682211,62.276130131969694 45.69218241039198,61.42885265946097 45.90655537461862,60.645116751562455 47.95134364825208,59.67073668965895 49.006718241027556,58.82344455253042 50.292956026038155,57.38303697411902 51.99144951131893,54.12088650322403 52.700529315916356,49.608834594168 51.661644951149356,45.09664742293535 50.68872149835806,43.16886424392578 49.385993485338986,42.19437104347162 47.506107491848525,41.87660015746951 46.203379478887655,42.30029452317103 43.99368892505299,44.52467037462338 42.88884364819387,46.26177913091669 41.816978827351704,49.12160963015049 41.52015472308267,50.79511486823321 41.75101791525958,53.40066193691746 41.55313517909963,54.142069526496925 41.932410423469264,55.83670173290011 43.070236156345345,58.420979116737726 44.323493485397194,59.797830098847044 45.51078990229871,60.20029185357271 46.97842019540258,60.20029185357271 48.52850162866525,59.289455818143324 50.292956026038155,57.38303697411902 51.97495928342687,54.16325254687399 52.58509771991521,51.790735739283264 52.75,49.630018252457376 51.546213355031796,44.71532963225036 50.55679967429023,43.062941375610535 49.3695032572723,42.173186338623054 47.70399022800848,41.89778490405297 46.26934039086336,42.321479210062535 44.99959283386124,43.3807097569661 43.36706026061438,45.435595759161515 41.76750814332627,49.333446764809196 41.43770358309848,52.21440219759825 41.71803745930083,53.527760640208726 41.56962540716631,54.142069526496925 41.99837133550318,55.963798379234504 43.2681188925053,58.73871507651347 44.90065146575216,60.05201659546583 46.35179153090576,62.23376637158799 45.7581433224841,61.47121664634324 46.0054967427277,60.645116751562455 46.879478827351704,60.53920618077973 46.994910423469264,60.179109682751005 48.643933224724606,59.183544293555315 51.315350162796676,55.77315336948959 52.30476384359645,53.1676473687985 52.684039087966084,50.85866533340595 52.321254071663134,47.06677395165025 50.919584690534975,43.46544787862513 49.89719055371825,42.44858726931852 48.42956026055617,41.87660015746951 47.110342019528616,42.00370859238319 46.071457654761616,42.469771935400786 43.38355048856465,45.39322725888633 41.75101791525958,49.24871194669686 41.56962540716631,54.05733741540462 42.75692182412604,57.82787019730313 43.33407980459742,58.82344455253042 44.66978827357525,59.94610560734873 47.011400651419535,60.20029185357271 48.52850162866525,59.289455818143324 50.243485342070926,57.467767213252955 51.76058631925844,54.75637590578117 52.51913680776488,52.320318625846994 52.75,49.69356920954306 51.941978827351704,45.62625386287982 50.85362377850106,43.35952521904255 50.14454397390364,42.59687986939389 48.95724755700212,42.024893321126 47.63802931597456,41.89778490405297 46.219869706837926,42.36384857507073 45.39535830618115,43.041756792983506 43.74633550492581,44.92717296858609 42.50956840388244,47.13032599091821 41.536644951149356,50.96458271569281 41.56962540716631,54.099703476938885 42.27870521170553,56.74755866067426 43.53196254075738,59.07763269440329 45.67569218244171,61.068758289547986 46.368281758972444,62.14903881508508 46.28583061887184,63.03867577989877 46.35179153090576,62.21258448691515 45.77463355055079,61.534762604307616 45.89006514655193,60.66629885681323 46.961929967452306,60.47565980257059 49.73228827363346,58.03969507967122 51.793566775275394,54.777558839690755 52.48615635180613,52.341501902541495 52.700529315916356,49.142793357008486 51.61217426712392,44.8000670025649 50.672231270349585,43.16886424392578 49.43546416942263,42.173186338623054 47.621539087966084,41.87660015746951 46.35179153090576,42.23674044430663 43.99368892505299,44.58822348731337 42.0643322475953,48.25307426089421 41.52015472308267,50.56209626661439 41.5036644951324,52.6592506954039 41.86644951143535,55.39186262545991 42.64149022795027,57.5524974045984 43.317589576530736,58.80226218797907 44.50488599354867,59.8613767632778 46.104438110778574,60.263838348022546 47.09385179152014,60.179109682751005 48.39657980459742,59.374184984131716 50.441368078114465,57.255941526047536 51.793566775275394,54.75637590578117 52.60158794786548,51.55771867890144 52.75,49.54528360138647 52.3542345277383,47.02440591042978 51.62866449507419,44.8000670025649 50.9855456026271,43.48663240163296 49.73228827363346,42.321479210062535 48.281148208421655,41.89778490405297 46.66510586324148,42.13081691999105 45.54377035831567,42.87228002479242 44.076140065153595,44.48230161789979 42.460097719857,47.045589932546136 42.01486156351166,48.40136114219786 41.47068403911544,52.532151258783415 41.78399837133475,55.116485376333 42.64149022795027,57.5736799450533 43.317589576530736,58.80226218797907 44.5543566775159,59.84019454482768 46.13741856679553,60.22147402135306 47.35769543971401,60.05201659546583 48.39657980459742,59.374184984131716 50.408387622155715,57.29830668734212 51.82654723129235,54.629278239939595 52.53562703583157,52.08730238530552 52.73350977199152,49.630018252457376 51.711115635116585,45.0754631266027 50.60627035831567,43.062941375610535 49.45195439748932,42.173186338623054 48.149226384353824,41.8554154078447 46.483713355031796,42.173186338623054 44.53786644950742,43.88913777153357 43.41653094463982,45.35085874666402" stroke="#4DD2FF" stroke-linecap="round" stroke-linejoin="round" stroke-width="0.5"><title>2024-12-30 19.1km</title><desc>1735521239000</desc></polyline><polyline fill="none" points="57.25,59.33413524572097 57.74031476996606,59.1031978604442 58.47578692488605,59.984956862885156 63.182808716606814,60.63577564098523 64.81719128327677,60.17390454247652 65.14406779658748,58.4313779797958 69.73668280872516,56.709825726939016 70.24334140436258,60.23688704922097 71.86138014530297,62.52523342768836 72.82566585956374,62.48324573681748 75.76755447936011,61.47553761138988 77.51634382567136,61.66448340337956 79.4449152542511,62.37827645802463 81.58595641644206,61.22360951657174 83.30205811141059,60.80372841320059 84.4297820822685,60.719752050732495 86.84866828087252,61.160627426361316 88.22154963680077,59.71203201422759 90.34624697337858,60.53080506238621 92.45460048422683,60.3628519828635 93.30447941890452,59.90098003948515 95.13498789351434,58.011489018128486 96.57324455206981,55.66008899388544 97.47215496370336,52.76277728402056 97.75,50.0753653968859 96.96549636806594,46.380095001659356 95.83777239714982,44.028511635100585 94.66101694916142,42.87370265972277 92.9776029055356,42.47476657232619 91.96428571431898,42.579749856638955 90.73849878931651,43.272637680129264 87.86198547214735,47.00997710884258 86.86501210648566,49.7394355070428 86.58716707024723,51.922966269776225 86.9630750605138,55.828047367569525 87.68220338982064,57.948505571926944 88.97336561745033,59.7330262511241 90.29721549642272,60.55179918400245 92.07869249390205,60.57279330266465 93.14104116224917,60.026945256773615 95.16767554479884,58.032483494258486 97.0145278449636,54.58934991680144 97.73365617432864,50.13835216703592 96.78571428573923,45.81319883126707 95.15133171912748,43.188651448639575 93.79479418887058,42.579749856638955 92.43825665867189,42.47476657232619 90.88559322035871,43.16765488340752 89.85593220335431,44.21747952538135 88.48305084742606,45.939175944178714 87.28995157382451,48.31172503565904 86.57082324451767,52.09092885082646 87.14285714289872,56.45788958463527 88.09079903148813,58.59933323354926 89.13680387410568,59.92197424978076 90.16646489105187,60.53080506238621 91.6210653752787,60.67776385175239 93.51694915257394,59.69103777446435 95.11864406778477,58.032483494258486 96.3934624698013,56.03799506869109 97.602905569016,52.006947583911824 97.73365617432864,50.20133891062869 97.34140435839072,47.74483620574756 96.06658595643239,44.34345798594586 95.15133171912748,43.14665831522143 93.64769975782838,42.558753205652465 92.40556900721276,42.495763235070626 91.17978208238492,42.97868566321267 88.4340193705284,46.02316062703903 86.89769975788658,49.7394355070428 86.58716707024723,52.34287236780801 86.68523002421716,54.63133982929867 87.17554479424143,56.667836399472435 88.09079903148813,58.64132201745815 88.66283292975277,59.523083749591024 89.85593220335431,60.42583440983435 91.294188861968,60.719752050732495 92.6507263922249,60.32086368344608 95.21670702181291,57.99049453898624 96.96549636806594,54.65233478108712 97.48849878931651,52.7417820662813 97.71731234865729,50.09636098994815 96.6876513317111,45.456263100146316 94.9225181597867,43.020678843939095 93.30447941890452,42.558753205652465 92.02966101694619,42.6217431496334 91.31053268769756,42.894699266253156 89.41464891046053,44.72139272923232 87.35532687656814,48.227741641239845 86.84866828087252,49.76043114728236 86.55447941890452,52.48983922295156 87.01210653752787,56.16396354751487 87.71489104116336,57.92751108396624 89.21852300246246,60.11092200926214 90.44430992734851,60.57279330266465 91.91525423730491,60.67776385175239 94.31779661012115,59.08220353492652 96.72033898311201,55.40815107889648 97.68462469731458,51.10414597901399 97.37409200973343,47.78682804477285 96.90012106538052,46.17013370827772 96.32808716705767,44.8263744324795 95.21670702181291,43.293634230591124 93.50060532690259,42.579749856638955 92.3565375302569,42.558753205652465 91.19612590793986,43.020678843939095 89.77421307511395,44.322461583287804 88.45036319608334,46.002164460733184 87.2572639224818,48.395708382784505 86.57082324451767,51.9439616027521 86.71791767555987,54.694324675932876 87.35532687656814,57.25568590909825 89.12046004837612,59.984956862885156 90.4116222760058,60.593787418387365 92.09503631963162,60.614781531185145 94.25242130755214,59.1031978604442 96.36077481840039,56.20595301684807 97.61924939468736,52.321877091017086 97.73365617432864,50.15934775120695 97.24334140436258,47.36690912228369 96.63861985475523,45.47725934331538 95.52723970939405,43.60858213294705 94.54661016952014,42.852706050049164 93.35351089586038,42.579749856638955 92.2094430992729,42.558753205652465 91.32687651336892,42.91569586996047 88.49939467309741,46.02316062703903 86.88135593221523,49.865409304373316 86.70157384983031,54.484375083848136 87.86198547214735,58.221433646656806 88.66283292975277,59.46010094159283 89.70883777237032,60.341857834660914 91.50665859557921,60.69875795271946 92.66707021795446,60.44682854623534 95.24939467315562,57.99049453898624 96.94915254239459,54.84128921457159 97.48849878931651,53.01471966644749 97.75,50.13835216703592 96.98184019367909,46.506071635885746 96.34443099272903,44.8263744324795 95.18401937041199,43.209648010946694 92.99394673126517,42.51675989487558 91.96428571431898,42.642739791757776 90.73849878931651,43.377620402898174 88.49939467309741,46.02316062703903" stroke="#4DD2FF" stroke-linecap="round" stroke-linejoin="round" stroke-width="0.5"><title>2024-12-29 18.5km</title><desc>1735432872000</desc></polyline><polyline fill="none" points="102.25,60.16571196264704 105.39069423929323,58.22539653838612 106.04874446085887,58.148551795457024 106.94608567212708,58.89778619381832 109.5633308714605,59.109107973010396 111.19350073853275,59.531750550158904 112.67411373707,59.08989691566967 112.92836041358532,57.49536973431532 114.99224519939162,56.45795650803484 117.1757754801074,55.90082392915792 117.63940177252516,59.33964045000903 119.22470457904274,61.20309701505175 119.9874446085887,61.22230777499499 121.85690546530532,60.43466439979966 123.23282865586225,60.300188247449114 126.20901033974951,61.087832398479804 128.33271787298145,59.97360275457322 130.9350073855021,59.66622745941277 133.47747415059712,60.53071871319844 134.0158788773697,62.00994660623837 136.36392171343323,62.202052948996425 136.9023264401476,61.26072928683425 136.43870014772983,60.72282713733148 136.49852289503906,59.93518088052224 136.8574593795929,59.531750550158904 138.51754062034888,59.08989691566967 139.31019202363677,58.340663571623736 140.70107090106467,56.7461276393733 140.92540620389627,55.862400908838026 141.80779172823532,54.728916945517994 142.61539881833596,51.65501476194186 142.49575332348468,48.23521724632883 141.83770310197724,45.83362283966562 140.71602658787742,43.83546409153496 140.11779911373742,43.31670655703056 138.57736336777452,42.81716040123138 137.44073116692016,42.8940137749305 136.1844534712145,43.60490543072228 133.73172082717065,46.92875512971659 132.65491137374192,50.17567466548644 132.625,53.960447888457566 133.13349335303064,56.03530441499606 134.12056868535,58.01407339128491 134.86835302808322,58.878575106791686 136.1096750369761,59.43569553387351 137.4257754801074,59.474117548481445 138.63718611520017,58.91699727815285 140.55151403247146,56.8421845480043 141.5834564254037,55.151573083072435 142.64531019201968,51.46289357730711 142.73504431318725,49.829852590861265 142.46584194980096,48.081516469843336 141.76292466762243,45.67991935899772 140.79080502217403,43.89310369586747 140.0878877399955,43.297493277161266 138.68205317575485,42.797947051003575 137.6501107828808,42.8555870935088 136.3040989660076,43.5088392070611 133.73172082717065,46.92875512971659 132.65491137374192,50.19488697727502 132.61004431312904,53.97965966764605 133.68685376667418,57.20720018443535 134.32994830136886,58.30224123802327 135.52640324959066,59.224374260156765 137.02197193499887,59.493328551761806 138.15860413591145,59.20516321907053 140.43186853767838,56.995875461245305 142.16672821267275,53.7491181393998 142.75,49.81064022764622 141.76292466762243,45.62228050913836 140.82071639585774,43.931530085304985 140.02806499262806,43.25906670928816 138.60727474151645,42.81716040123138 136.79763663228368,43.22064013064664 135.5114475628361,44.37343278573826 134.35985967505258,46.064177736101556" stroke="#4DD2FF" stroke-linecap="round" stroke-linejoin="round" stroke-width="0.5"><title>2024-12-28 9.1km</title><desc>1735368240000</desc></polyline><polyline fill="none" points="147.25,59.416415521423914 147.99662023759447,60.16235188949213 152.75839819741668,60.78041066863807 154.36777959845494,60.26891392792459 154.68301925435662,58.49997438261926 159.361839410034,56.77363996653003 159.7600368700805,60.7590983389091 161.68465792707866,62.67719600193959 162.48105284717167,62.719820118596544 163.7917861532187,62.059144962971914 165.81595657515572,61.67552580831398 167.15987300279085,61.82471115060616 169.33336747228168,62.591947732740664 170.9593404341722,61.611589188018115 172.5853133961209,61.07878296962008 174.82517410896253,60.95090919834911 176.78297828754876,61.27059342418215 178.0937115935958,59.906602691466105 179.07261368294712,60.05578977613186 180.30038918479113,60.7590983389091 182.3909258499625,60.5246625142463 184.71374436706537,58.52128703026392 186.2733510856051,56.07031289621955 187.33521097910125,53.363538849545876 187.66704219579697,50.82722635137907 187.26884473569226,47.54487653316755 186.2733510856051,44.6461188349931 184.9792093404103,42.94094132739701 183.20391233096598,42.280179881388904 181.32906595652457,42.53595884765673 178.3094018844422,45.56264381160145 176.8659360917518,48.99423457487137 176.41796394920675,51.53057777110371 176.6502458009054,55.36698255974625 177.3802744775894,57.732717071441584 178.34258500608848,59.416415521423914 179.47081114299363,60.41810065571917 180.64881196222268,60.78041066863807 182.22501024167286,60.69516133180878 183.08777140517486,60.1836643032002 185.12853338790592,58.137658914522035 186.37290045054397,56.07031289621955 187.43476034409832,53.15040498021699 187.68363375670742,49.6336528306565 187.1029291274026,46.670992187195225 186.1240270381095,44.241140915532014 185.09535026625963,43.0048858304217 183.7514338385663,42.38675450316805 182.490475215076,42.280179881388904 181.39543219981715,42.62121840703185 178.7407824661932,45.26424093982496 177.51300696429098,47.31042025239731 176.8659360917518,49.0794904983195 176.36818926665,53.19303177809343 176.8327529700473,56.09162588576146 177.57937320764177,58.137658914522035 178.35917656699894,59.4377280400804 179.603543629637,60.5246625142463 182.12546087661758,60.7590983389091 183.48596886522137,59.821352862840286 185.17830807040446,58.095033508347115 186.35630888980813,56.15556483634282 187.33521097910125,53.470105671702186 187.75,50.1025578356639 187.25225317495642,47.41699133411748 186.33971732895589,44.73137720634986 185.27785743545974,43.19671917759115 183.95053256856045,42.45069924026029 182.40751741081476,42.34412466343201 181.16315034823492,42.74910765617096 178.39235968858702,45.77578835996974 176.70002048340393,49.740222277483554 176.38478082750225,52.55362855047861 176.63365423999494,55.324356373763294 177.64573945105076,58.308160419241176 178.47531749284826,59.58691558660939 179.55376894713845,60.4607254081202 181.09678410488414,60.82303531904472 182.2084186807624,60.73778600622609 185.17830807040446,58.11634621290432 187.00337976234732,54.684962144398014 187.56749283074168,52.511001572638634 187.7168168782955,50.1025578356639 186.80428103229497,45.81841723364778 185.8087873821496,43.836161912971875 185.0123924620566,42.98357099905843 183.70165915600955,42.38675450316805 182.0922777550295,42.38675450316805 181.1963334698812,42.706477918458404 180.01833265053574,43.66564411424042 178.57486685778713,45.4134424491931 178.2430356410914,46.43653455346066 177.2973166735028,47.71538996389427 176.38478082750225,51.99947690285626 176.6170626792591,55.30304327630438 177.14799262600718,57.0933330096741 178.04393691103905,59.03278967300139 179.02283900039038,60.11972705318476 179.80264235963114,60.56728723658307 181.42861532157985,60.844347639751504 183.18732077017194,60.14103947284457 185.11194182711188,58.18028430864797 186.9204219582025,54.8554675362102 187.51771814824315,52.638882470157114 187.73340843914775,50.18781313514046 187.20247849239968,47.11859211631236 186.3065342072514,44.6461188349931 185.49354772630613,43.409867056048824 184.33213846787112,42.59990352169552 182.54024989751633,42.280179881388904 181.11337566567818,42.74910765617096 180.13447357632685,43.6016998901614 178.42554281029152,45.71184502696269 177.4134575993521,47.60881909217278 176.8991192134563,48.86635059976834 176.36818926665,52.340493541327305 176.99866857845336,56.70970127693727 177.8448381810449,58.64916285286017 178.90669807454105,60.01316490977479 179.76945923798485,60.56728723658307 181.4452068823739,60.82303531904472 182.29137648508186,60.67384899011813 183.70165915600955,59.69347802986158 185.36081523966277,57.81796807577484 186.7047316672979,55.45223489571072 187.60067595244618,52.340493541327305 187.7168168782955,50.23044076687074 187.2854362965445,47.41699133411748 185.69264645630028,43.64432937584934 184.96261777955806,42.91962648702611 183.36982793937204,42.322809739096556 181.94295370747568,42.429384330884204 180.8313191314228,42.96225616472657 178.35917656699894,45.86104609532049" stroke="#4DD2FF" stroke-linecap="round" stroke-linejoin="round" stroke-width="0.5"><title>2024-12-27 16.0km</title><desc>1735261057000</desc></polyline><polyline fill="none" points="12.25,108.1585882849613 12.913934426149353,108.86218805913813 17.72745901637245,109.54446350781654 19.354098360578064,109.03275720930833 19.586475409800187,107.41234252990398 20.44959016388748,106.77270038591814 22.209016393404454,105.98380468942923 24.350204918067902,105.53605125065951 24.765163934382144,109.56578456610441 26.790163934405427,111.46334673647652 30.60778688522987,110.41862443671562 32.58299180329777,110.6957963611203 34.07684426225023,111.33542194389156 37.21393442625413,109.8856000800588 39.10614754102426,109.71503188998031 41.778483606583904,110.0774890644534 42.57520491810283,108.90483036465594 43.37192622956354,108.47840676917986 45.21434426232008,109.45917924474634 47.32233606558293,109.28861057460017 48.86598360654898,108.2225520357606 50.21045081975171,106.79402183418279 51.339139344287105,104.7471491151955 52.33504098368576,102.18851932960388 52.71680327865761,99.01149387669284 52.11926229513483,95.70646381142433 51.13995901646558,93.14768133897451 50.17725409840932,91.84695034685137 48.23524590168381,91.07930058642523 46.24344262294471,91.39915512601146 43.78688524593599,93.95796713118034 41.92786885245005,97.66816777297936 41.36352459015325,101.12241083275876 41.96106557379244,105.19490488537122 43.4881147541455,108.41444312635576 45.23094262299128,109.45917924474634 47.38872950820951,109.28861057460017 48.81618852465181,108.28651575963886 50.243647541094106,106.77270038591814 51.289344262331724,105.00300971728575 52.36823770496994,102.12455303130264 52.73340163938701,98.84091344439366 51.853688524628524,94.7256023051159 50.90758196730167,92.65724309618236 49.81209016399225,91.56974393763812 48.33483606559457,91.0579769264732 47.32233606558293,91.0579769264732 46.04426229512319,91.61239111052419 43.58770491799805,94.21384595465497 41.99426229513483,97.45494031190174 41.346926229598466,101.07976633681392 41.8116803279263,104.68318389715569 42.57520491810283,106.87930759746814 43.50471311475849,108.4357643435942 44.66659836069448,109.22464727376064 46.24344262294471,111.42070515091473 45.7288934426615,110.97296777850715 45.7288934426615,110.05616807822662 46.26004098361591,109.52314244657464 48.03606557374587,108.9261515129474 50.094262295169756,106.87930759746814 52.01967213116586,103.36123001156375 52.75,99.03281641725334 52.26864754105918,96.17556924351084 51.72090163931716,94.32046200356854 50.44282786885742,92.12415624881396 48.86598360654898,91.14327154835337 47.57131147541804,91.0579769264732 46.127254098362755,91.52709675270307 45.06495901639573,92.40136164356954 43.43831967219012,94.44840116321575 43.288934426323976,95.19471077433263 42.80758196726674,95.5145566251158 42.342827868880704,96.53805880981963 41.728688524628524,98.5210746161465 41.346926229598466,101.16505531666917 41.92786885245005,105.13093985633168 43.45491803280311,108.32915822722134 44.74959016399225,109.28861057460017 45.81188524590107,109.50182138227683 47.67090163938701,109.16068394594186 48.50081967219012,108.5423703850538 50.31004098360427,106.66609309939668 51.289344262331724,105.02433141465008 52.617213114805054,100.82389910932397 52.75,98.9901713331783 52.43463114753831,96.75128756128834 51.754098360659555,94.40575478869141 50.8079918033327,92.50797896801669 49.712499999965075,91.52709675270307 48.683401639340445,91.12194789740897 47.42192622949369,91.0579769264732 46.17704918043455,91.48444955580635 43.35532786883414,94.512370702505 41.86147540988168,97.73213595275593 41.36352459015325,101.2076997885888 41.54610655741999,103.38255193991063 42.16024590173038,105.8985184221383 43.23913934425218,108.07330324179202 44.467418032872956,109.16068394594186 45.363729508186225,109.50182138227683 46.39282786886906,109.54446350781654 47.80368852458196,109.07539946684847 50.409631147573236,106.53816425657715 52.33504098368576,102.3590959928697 52.667008196760435,98.32917099505721 51.886885245970916,94.78957172730588 51.23954918037634,93.21165142749669 50.4926229508128,92.12415624881396 49.31413934426382,91.31386064819526 47.52151639346266,91.03665326350892 46.127254098362755,91.46312595294148 43.405122950847726,94.46972434598138 41.86147540988168,97.83874952574843 41.346926229598466,101.12241083275876 41.5129098360776,103.23329837823985 42.64159836061299,107.04987897985848 43.521311475429684,108.39312190603232 44.78278688527644,109.28861057460017 46.39282786886906,109.48050031503954 47.57131147541804,109.16068394594186 50.17725409840932,106.8153432795225 52.036270491895266,103.27594226801011 52.68360655743163,100.16290677148208 52.68360655743163,98.37181626519305 52.13586065574782,95.49323358936817 51.45532786886906,93.68076458477299 50.57561475405237,92.18812676952803 49.43032786890399,91.35650789304054 47.62110655743163,91.0579769264732 46.19364754098933,91.46312595294148 44.26823770493502,93.23297478436143 43.30553278687876,94.6616328558157" stroke="#4DD2FF" stroke-linecap="round" stroke-linejoin="round" stroke-width="0.5"><title>2024-12-26 16.2km</title><desc>1735171955000</desc></polyline><polyline fill="none" points="57.25,108.86689544879482 62.55955334979808,109.57689357822528 64.01674937951611,109.12507696826651 64.18424317613244,107.46840464207344 64.5862282877788,107.14567417785292 66.83064516127342,106.11293211435259 68.99131513637258,105.51049602252897 69.22580645151902,105.57504286018957 69.49379652598873,109.25416756446066 71.47022332495544,111.49172058222757 72.40818858559942,111.51323535612028 73.66439205949428,110.7387015876011 75.85856079403311,110.37294816639042 78.95719602971803,111.3626318750903 80.86662531003822,110.24385851468833 82.62531017360743,109.77052885950252 86.71215880889213,110.13628372177482 87.98511166247772,108.69477419364557 90.79900744411862,109.64143869922555 92.33995037217392,109.34022790142626 94.14888337464072,107.94174142410338 96.41004962776788,104.8004790097184 97.36476426798617,102.11099072778597 97.71650124067673,98.86202578556549 97.14702233247226,95.50540670880582 95.72332506201928,92.44995860145718 94.6681141438894,91.43863486078044 92.87593052105512,90.98676464386517 90.76550868479535,91.58925796956464 88.47084367240313,94.17134532773343 87.0638957816409,96.79642276770028 86.27667493798072,100.84153582293948 86.51116625301074,104.15500613680342 88.28660049621249,108.28598543605767 89.07382133998908,108.99598626303487 90.24627791560488,109.51234842995473 92.4906947890413,109.27568265328591 94.16563275433145,107.89871086808853 95.55583126551937,106.19899421936134 97.06327543425141,103.14375982363708 97.71650124067673,98.7759595503594 97.19727047142806,95.50540670880582 96.12531017366564,93.11699825813412 95.13709677412407,91.73988092997752 93.67990074434783,91.09435291195405 92.55769230768783,91.00828230357729 91.21774193551391,91.30952922087454 89.76054590562126,92.51451095350785 88.45409429282881,94.10679367528064 87.11414392053848,96.71035536959243 86.29342431761324,100.23907895955199 86.46091811405495,103.40195100751589 86.96339950361289,105.61807407009474 88.0186104218592,107.81264971976634 88.90632754337275,108.86689544879482 90.06203473941423,109.42628818991943 91.70347394543933,109.51234842995473 93.93114143918501,108.13537877619092 95.52233250607969,106.19899421936134 96.69478908187011,104.13349032741098 97.51550868485356,101.22882826719433 97.73325062036747,98.73292641456646 97.13027295283973,95.44085561970132 96.02481389575405,92.90182449333952 95.12034739449155,91.71836337330751 93.61290322575951,91.09435291195405 92.03846153843915,91.0513176137465 90.84925558307441,91.52470522685326 89.35856079403311,92.98789403559931 87.08064516121522,96.79642276770028 86.44416873448063,99.20629024184018 86.27667493798072,101.4439903122693 86.96339950361289,105.59655846665555 88.11910669971257,107.98477196798194 88.75558312656358,108.69477419364557 89.71029776666546,109.31871282169595 91.51923076919047,109.55537853180431 92.62468982621795,109.16810717906628 93.69665012403857,108.35053110199806 95.52233250607969,106.17747869764571 96.77853598009096,103.91833206723095 97.54900744411862,101.1427633643616 97.75,98.79747611367202 97.16377171210479,95.46237265241507 95.97456575679826,92.79423749737907 95.10359801480081,91.67532825084345 93.41191066999454,90.98676464386517 91.97146401985083,91.00828230357729 90.86600496270694,91.50318763985706 89.39205955329817,92.90182449333952 87.0136476426851,96.8609732844343 86.25992555828998,101.46550650014251 86.76240694784792,104.92957325725001 88.33684863516828,108.37204631793429 89.64330024813535,109.27568265328591 90.86600496270694,109.59840862159035 92.2227047146298,109.36174297805701 93.21091811411316,108.78083484541276 95.42183622828452,106.34960278663493 96.44354838703293,104.64986891642911 97.09677419351647,103.05769599876658 97.61600496270694,100.45424239757995 97.71650124067673,98.84050923127506 97.36476426798617,96.32305147862644 96.52729528525379,93.82706953307206 95.67307692300528,92.38540622212167 95.00310173694743,91.54622281076445 93.57940446643624,91.0297999602335 92.28970223315991,90.98676464386517 90.98325062036747,91.41711726167705 88.80583126551937,93.61189676776121 88.25310173694743,94.62320613155316" stroke="#4DD2FF" stroke-linecap="round" stroke-linejoin="round" stroke-width="0.5"><title>2024-12-22 13.5km</title><desc>1734819430000</desc></polyline><polyline fill="none" points="102.25,108.15424079260265 102.68262119963765,108.75270613451721 107.60784716514172,109.52215810930647 109.30505340994569,109.03056424169336 109.58792111749062,107.14966866771283 114.130443713977,105.52524010968045 114.39667214459041,105.71760755624564 114.64626129821409,108.81682728127635 115.61133935902035,110.63358185827383 116.64297452755272,111.42439765082963 117.30854560394073,111.48851766982989 118.85599835659377,110.74044909779332 120.73623664746992,110.3771001764253 124.23048479866702,111.23203743157501 126.24383730482077,110.12061806152633 128.0408792112139,109.65039972616069 129.77136400988093,109.67177331840503 131.61832374695223,110.12061806152633 133.01602300739614,108.53896878310479 135.97781429742463,109.52215810930647 137.45870994252618,109.15880627356819 138.9895234182477,108.02599791258399 141.5686113393167,104.30690728987975 142.38393590797205,101.97708573733689 142.75,98.87772644263168 142.00123253901256,95.17978743057756 140.75328677071957,92.46505812610849 139.77156943303999,91.48175837486633 138.27403451112332,91.03285854558635 136.4104354971205,91.28937289623718 135.31224322103662,91.99478512634232 133.76479046838358,93.7689892815979 132.53348397702212,95.90655712000444 131.63496302382555,98.38609812190407 131.3354560394655,100.9724727559078 131.90119145438075,105.3542466192448 133.66495480691083,108.49622127674229 134.67995069839526,109.22292724893487 136.1442070666235,109.50078449596185 137.70829909620807,109.03056424169336 138.7232949876343,108.26110977663484 141.25246507802512,104.99088481295621 142.0178718159441,103.21681174630066 142.60024650784908,100.48085121571785 142.6834428923321,98.81360109978414 142.2841002464993,96.2271897008759 140.7033689400414,92.46505812610849 139.68837304849876,91.50313452408591 138.54026294167852,91.161115775074 137.04272801970365,91.09698717383435 135.62838948227,91.7596480804059 133.83134757605148,93.72623761792784 132.6000410846318,95.75692835057271 131.6016844699625,98.42884847384994 131.3354560394655,100.71597475961607 131.45193097781157,103.21681174630066 132.08422350039473,105.86722651295713 132.81635168450885,107.32066013691656 133.48192276095506,108.36797868540452 134.6466721445904,109.22292724893487 136.01109285122948,109.52215810930647 137.44207066553645,109.18017993505055 140.0377978635952,106.78631115658209 141.91803615452955,103.43055658716185 142.51705012324965,101.10072159163246 142.66680361545878,98.66397519441671 142.2841002464993,96.26994066053885 141.5020542316488,93.98274741927162 140.68672966316808,92.46505812610849 139.5718981101527,91.39625374777825 137.97452752670506,91.03285854558635 136.2939605587162,91.33212524582632 133.76479046838358,93.7689892815979 131.8679129005759,97.65934029784694 131.30217748560244,101.35721893818118 132.06758422357962,105.88860063762695 133.1824157764786,107.96187643198937 134.28060805262066,109.03056424169336 136.01109285122948,109.52215810930647 137.17584223503945,109.28704819720588 138.4737058339524,108.49622127674229 140.1043549712631,106.74356315692421 141.9513147082762,103.30230971869605 142.51705012324965,101.05797199172957 142.65016433846904,98.70672546813148 142.31737880030414,96.50507072337496 141.51869350858033,94.02549901072052 140.73664749390446,92.46505812610849 139.7216516023036,91.46038222259085 138.37387017253786,91.05423475804855 136.8763352506212,91.161115775074 135.67830731300637,91.71689585111744 134.71322925225832,92.63606612864533 132.48356614628574,95.9279326464166 131.63496302382555,98.34334775792377 131.31881676259218,100.80147413979284 131.95110928511713,105.4397433885315 133.68159408384236,108.58171627743286 134.67995069839526,109.24430090136593 136.2939605587162,109.50078449596185 137.1425636811182,109.3297954810696 138.50698438781546,108.43209999457758 140.02115858672187,106.85043313344067 141.2358258011518,104.99088481295621 142.50041084637633,101.14347117947182 142.6834428923321,98.70672546813148 142.36729663104052,96.80432664066029 141.98459326208103,95.17978743057756 140.7033689400414,92.46505812610849 139.68837304849876,91.46038222259085 138.27403451112332,91.05423475804855 136.95953163522063,91.11836337728892 135.71158586686943,91.6741436097218 133.34880854561925,94.49576572229853 132.50020542310085,95.9279326464166 131.63496302382555,98.47159881370317 131.31881676259218,100.65185019280761 131.48520953167463,103.30230971869605 132.61668036156334,107.0000509742822 133.56511914543808,108.45347375834535 134.67995069839526,109.24430090136593 136.01109285122948,109.52215810930647 137.4753492193413,109.20155359354976 140.05443714052672,106.78631115658209 141.8847576006665,103.49467998075124 142.4172144617769,101.63509057475312 142.6834428923321,98.74947572976816 142.10106820048532,95.67142613045871 140.67009038617834,92.40093007555697 139.6550944946357,91.43900606733223 138.30731306492817,91.01148233017011 136.97617091209395,91.09698717383435 135.6949465899961,91.6741436097218 133.28225143800955,94.64539573424554" stroke="#4DD2FF" stroke-linecap="round" stroke-linejoin="round" stroke-width="0.5"><title>2024-12-20 16.0km</title><desc>1734644952000</desc></polyline><polyline fill="none" points="147.25,108.6732841237972 152.24360824737232,109.59576305748487 154.04731958766934,109.18815677506791 154.44814432988642,107.32173514108581 156.5524742268608,106.18470846285345 159.1244329896872,105.45529065707524 159.65886597940698,109.50995129915827 160.9281443298678,111.09746101063502 161.5627835051855,111.46215685270727 162.29762886598473,111.48360952208168 163.60030927835032,110.75421706827183 165.7046391752665,110.41097235315829 169.0281443298445,111.31198808214685 171.86731958767632,109.91755672122235 173.1700000000419,109.74593351845397 176.7941237112973,110.13208545307862 178.24711340205977,108.52311260632996 180.3848453608225,109.5314042432583 182.35556701023597,109.42413949247566 184.81061855668668,107.17156229224929 186.91494845360285,103.69609217873949 187.71659793809522,98.9332822226861 186.8481443299097,94.72815514882677 185.87948453600984,92.64700343002914 185.0277319587185,91.70296647859504 183.6248453608132,91.08075710931735 182.3221649484476,91.05930156860268 180.41824742266908,91.85315456647368 178.7147422680282,93.74122076260392 177.47886597941397,95.95108671937487 176.2596907215775,100.17763431894127 176.51020618557232,104.12516685017908 178.213711340155,108.05114401683386 179.2157731958432,109.05943877523532 180.10092783509754,109.44559244866832 182.3221649484476,109.35978060575144 184.09247422678163,107.94387822462886 185.39515463908901,106.37778906253516 187.0986597937881,103.03102405136451 187.75,98.74019219398906 187.3825773196295,96.44454755747574 186.48072164948098,93.78413108616951 184.9275257731788,91.5956891823007 183.42443298973376,91.05930156860268 181.67082474229392,91.14512371360615 180.36814432987012,91.85315456647368 178.8483505154727,93.63394490082283 177.12814432987943,96.74491424202279 176.49350515456172,99.23364400352875 176.30979381443467,101.67942504618259 176.94443298969418,105.47674417179951 178.18030927836662,108.00823770902934 179.2157731958432,109.0165327511495 180.5351546391612,109.5314042432583 182.28876288665924,109.4026865332853 184.7772164947819,107.17156229224929 186.8481443299097,103.69609217873949 187.53288659790996,101.27179759736464 187.73329896910582,98.67582879676775 186.93164948449703,94.7710651945381 185.1446391752106,91.7458773759572 183.608144329919,91.08075710931735 182.08835051540518,91.01639047790377 180.58525773190195,91.66005556908203 179.58319587627193,92.64700343002914 177.161546391726,96.61618573537271 176.2763917525881,100.88562321939389 176.9110309279058,105.26220888909302 177.76278350513894,107.32173514108581 178.93185567006003,108.82345549340243 180.33474226808175,109.44559244866832 181.97144329897128,109.44559244866832 184.19268041237956,107.87951871300174 186.714536082407,104.12516685017908 187.51618556701578,101.27179759736464 187.71659793809522,98.9332822226861 187.3491752576665,96.35872839597869 186.48072164948098,93.71976559628092 185.1613402062212,91.7458773759572 183.57474226801423,91.08075710931735 182.10505154635757,91.0378460247739 180.6520618556533,91.63860010985809 179.83371134015033,92.51827146271535" stroke="#4DD2FF" stroke-linecap="round" stroke-linejoin="round" stroke-width="0.5"><title>2024-12-15 10.9km</title><desc>1734216782000</desc></polyline><polyline fill="none" points="12.25,156.82173728806083 13.191476345877163,157.71284509725228 16.131525285483804,157.92501284701575 17.78323817293858,158.34934745094506 19.467985318100546,157.9037960854912 19.748776508960873,156.0367093783425 21.813417618221138,155.01828870210738 24.34053833602229,154.29690322761599 24.604812398029026,154.402989543305 24.63784665573621,156.7793034514325 25.1003262642771,158.54029763309518 26.75203915167367,160.1315397467697 27.643964110931847,160.15275619488966 29.229608482914045,159.41017873608507 31.112561174551956,159.13436331991397 34.283849918458145,160.04667392460397 36.41455954319099,158.8797640263947 38.49571778142126,158.43421422838583 41.78262642736081,158.7948974997562 43.087479608424474,157.30972555019252 43.91333605221007,157.39459291283856 45.41639477974968,158.2008304753981 47.41496737347916,157.96744636120275 48.75285481236642,157.05512317565444 50.288947797729634,155.42141437565442 51.26345840131398,153.7876878734678 52.32055464928271,150.96575494519493 52.700448613322806,148.1437691975152 52.353588907048106,145.3005120917369 51.23042414354859,142.13891697276267 49.89253670471953,140.48382731588208 48.405995106033515,139.910907431753 46.869902120670304,140.0170038708602 45.59808319743024,140.65358093750547 43.89681892335648,142.62695276158047 42.03038336051395,146.2341248154844 41.386215334467124,149.96851789634093 41.848694942949805,153.5118621718575 43.51692495919997,157.1399906815932 45.54853181075305,158.17961375269806 47.580138662306126,157.9037960854912 50.33849918429041,155.315328776589 51.32952691678656,153.72403583323467 52.45269168022787,150.45652834010252 52.716965742234606,148.20742359365977 52.38662316475529,145.10954514046898 51.01570146816084,141.65087960407254 49.95860522019211,140.48382731588208 48.174755301792175,139.84724953246769 46.8533849917585,139.9321267255291 46.06056280591292,140.31407350310474 44.40884991839994,141.88428897748236 42.31117455137428,145.42782325812732 41.53486949420767,148.58934940618929 41.600938009796664,152.04785577022994 42.146003262663726,154.6575963962241 43.92985318106366,157.47946022768156 43.92985318106366,157.98866311374877 45.38336052198429,158.7948974997562 46.275285481184255,160.19518908200553 45.763254486199,159.60112757477327 45.89539151714416,158.7524642185017 46.440456769953016,158.2008304753981 47.282830342592206,158.07353009421786 48.42251223488711,157.33094239531783 50.288947797729634,155.37898014496022 51.32952691678656,153.72403583323467 52.45269168022787,150.43531052758044 52.716965742234606,147.18895003010402 51.74245513865026,143.28473762932117 50.734910277300514,141.22649799915962 49.66129690047819,140.27163502004987 48.174755301792175,139.82603022674448 46.47349102771841,140.16553876016405 45.152120717742946,141.14162153474172 43.84726753667928,142.69060948709375 41.980831973894965,146.40387196221855 41.40273246326251,150.0746072576294 42.212071778136306,154.74246525175113 43.53344208811177,157.11877380963415 44.77222675370285,158.00987986334076 46.06056280591292,158.28569733646873 47.46451876015635,157.98866311374877 50.32198205549503,155.3577630251384 51.99021207168698,152.02663818169094 52.61786296899663,149.77755685790908 52.75,147.54966020409483 52.15538336051395,144.5790801178955 51.048735725926235,141.8206319114979 49.463091354002245,140.144319499188 48.29037520388374,139.80481091799447 46.63866231648717,140.0594424255978 45.20167210447835,141.1204024112376 43.68209624796873,143.05133042413217" stroke="#4DD2FF" stroke-linecap="round" stroke-linejoin="round" stroke-width="0.5"><title>2024-12-10 11.3km</title><desc>1733785667000</desc></polyline><polyline fill="none" points="57.25,157.710915221498 59.666107382567134,156.33370713476324 60.58724832220469,156.12033563673322 61.38758389261784,156.83803845341026 62.30872483225539,156.99321694945684 65.73657718126196,157.4975458552799 67.2164429530385,157.10960070688452 67.57885906042065,155.40262908334262 71.82214765105164,153.6956363216741 72.01845637580846,153.7926251131721 72.22986577183474,157.18718982391874 74.04194630868733,159.20449153792288 74.6912751677446,159.28207947582996 76.08053691277746,158.56438938384235 77.75671140936902,158.25403575440578 80.92785234894836,159.08810954914952 83.05704697989859,157.94368142617168 84.50671140936902,157.6527236089314 87.66275167785352,158.021270073732 89.05201342276996,156.585873024771 90.74328859057277,157.34236792696174 92.70637583895586,157.32297067366017 94.24664429528639,156.217322722252 96.55704697984038,153.13309998516343 97.37248322140658,150.80533901583112 97.68959731544601,148.63272664386022 97.23657718120376,144.90816861603525 96.10402684565634,142.30867785676674 95.19798657717183,141.24170850260998 93.56711409398122,140.73732011446555 92.16275167779531,140.83431802476116 91.4681208053371,141.18350993665808 89.14261744963005,143.86061853614228 87.69295302010141,147.23602917788958 87.4060402684845,149.4474602964765 87.76845637575025,153.1137021395407 89.09731543628732,156.08154078347434 89.6560402684263,156.76044913985243 90.80369127518497,157.3617651775421 91.8758389261784,157.4975458552799 92.85738255031174,157.26477889728267 94.5939597315155,155.82937397090427 96.42114093957935,153.34647610721004 97.53859060403192,150.16519785767014 97.73489932884695,147.70159657245676 97.2214765100507,144.86937060690252 95.89261744968826,142.01768703387643 94.82046979863662,141.04771318717394 93.14429530204507,140.71792052417004 92.23825503361877,140.77611928673286 91.4983221476432,141.2029094613972 89.6862416107324,143.08465038082795 88.07046979869483,146.01390728511615 87.3758389261784,149.64144378968922 87.75335570471361,152.8615298976365 89.14261744963005,156.13973305930267 90.51677852339344,157.22598436604312 91.63422818796244,157.4975458552799 92.88758389261784,157.28417615877697 94.95637583889766,155.4414241277118 96.4060402684263,153.4628629436629 96.99496644292958,152.1826023379399 97.52348993287887,150.18459611825529 97.75,147.74039378437737 97.2214765100507,144.81117357269977 95.63590604026103,141.62969831435475 94.83557046973146,141.02831364057784 93.28020134218968,140.71792052417004 91.72483221482253,141.04771318717394 90.33557046978967,142.3474765867286 89.14261744963005,143.9770133826678 89.58053691271925,144.6559813614731" stroke="#4DD2FF" stroke-linecap="round" stroke-linejoin="round" stroke-width="0.5"><title>2024-12-08 8.9km</title><desc>1733614342000</desc></polyline><polyline fill="none" points="102.25,156.98354925855529 102.74565732333576,156.63439624213788 103.59307145676576,156.5933193617966 104.42449664429296,157.39431644380966 107.28651796287159,157.5996996028989 108.99733517569257,158.0720797721442 110.58024082117481,157.53808468551142 110.8200750098913,155.83339498966234 112.8826490327483,154.84754125964537 115.12110146071063,154.2108405198087 115.50483616266865,154.39568940787285 115.72868140542414,157.41485477275273 116.54411764704855,158.9757593141985 117.6953217528644,159.81781930635043 121.74052506906446,158.79091622671694 123.03562968812184,158.9962974205555 125.0022700355039,159.81781930635043 127.52852348989109,158.40069116205268 129.1753849190427,158.11315623634437 132.1013620213489,158.5855347437173 133.50838926172582,157.0451644100831 136.22651006706292,158.03100329633162 137.82540465844795,157.62023790289823 139.52023292536614,156.18254992224684 141.45489538100082,153.55359813311952 142.5421437031473,150.37003843356797 142.75,147.6588231624046 142.41423213586677,145.52267868582567 141.83863008284243,143.63298635384126 140.52753651794046,141.14759287914785 138.94463087251643,140.3054251580179 137.36172522697598,140.26434368149785 136.16255428345175,140.6751579267875 134.67558231338626,142.07191771025828 132.38916304783197,146.22103705097106 131.76559415709926,150.47273499166477 132.16531780496007,153.36874817866192 133.26855507306755,156.05931886493636 134.14794709830312,157.20947135344613 135.4110738254385,157.8872355401545 136.86606790364021,157.94885031017475 138.3530398737057,157.27108640960068 140.0478681405075,155.5869321814098 141.34297275956487,153.63575359339302 142.49417686538072,150.53435289178742 142.71802210819442,147.74098194095131 142.41423213586677,145.3583585848537 141.59879589412594,142.9551559676911 140.4475917884265,141.1065116396494 139.66413343860768,140.55191377468873 137.9373272799421,140.18218069363502 136.14656533749076,140.7573206370871 134.14794709830312,142.77029258871335 132.48509672324872,145.97455800959142 131.76559415709926,149.1992925634113 132.0853730753879,152.9168917486386 132.9167982629151,155.40208480216097 133.7802013422479,156.83978047056007 134.94739439402474,157.7023910741409 135.93870904063806,157.96938856103225 137.1218910382595,157.96938856103225 138.3690288195503,157.33270143969276 141.1031385708484,154.0259913977643 142.5101658112835,150.30842046397447 142.71802210819442,147.96691834343073 142.49417686538072,145.85131833278865 142.14242005522829,144.22865288201137 140.99121594947064,141.82543166104006 140.0158902487019,140.7367799638305 138.976608764322,140.28488442125672 137.47364784841193,140.22326219335082 136.22651006706292,140.6751579267875 134.96338333986932,141.80489113817748 133.63630082900636,143.65352661945508 132.59701934462646,145.6664586224506 131.97345045401016,147.82314067319385 131.78158310306026,150.30842046397447 131.98943939985475,152.44449489418184 133.42844453215366,156.36739631310047 134.09998026053654,157.1683946349658 135.2511843664106,157.84615901239158 136.7221673904569,158.01046505414706 137.71348203712841,157.74346764232905 138.81671930517768,157.00408764529857 140.4316028424655,155.1145439690008 142.22236478485866,151.60239236149937 142.70203316223342,147.61774375585082 142.27033162262524,145.0091777559428 141.63077378604794,143.16055944751133 140.91127121989848,141.76381008370663 139.98391235689633,140.7367799638305 138.49694038694724,140.22326219335082 137.00996841688175,140.3054251580179 136.13057639164617,140.7367799638305 134.4037702328642,142.52380771913158 132.5490525069181,145.85131833278865 131.81356099492405,149.40468725502433 132.40515199361835,154.14922417182242 134.1799249901669,157.2505480604159 135.37909593369113,157.8872355401545 136.64222266082652,157.96938856103225 137.71348203712841,157.7023910741409 138.9925977101666,156.73708839251776 140.73539281485137,154.64215422766574 141.99851954204496,152.21856542331807 142.5101658112835,150.349499113232 142.75,147.59720404815744 142.3342874062364,144.98863768114825 140.63945913926,141.33245831372915 138.96061981841922,140.32596589199966 137.56958152388688,140.18218069363502 136.33843268849887,140.59299517024192 134.48371496255277,142.40056512822048 133.90811290952843,142.60596938860544" stroke="#4DD2FF" stroke-linecap="round" stroke-linejoin="round" stroke-width="0.5"><title>2024-12-07 13.6km</title><desc>1733525549000</desc></polyline><polyline fill="none" points="147.25,160.03476651158417 147.56007067125756,161.35220921463042 148.87190812721383,163.25176373032446 150.11219081259333,164.50791164588009 151.04240282683168,164.6610999202967 153.59452296805102,163.58877973606286 156.05123674904462,163.1598501837143 161.1316254416015,164.32408557432063 163.89840989396907,162.85347141466627 166.45053003530484,162.08752260604524 171.93639575969428,162.66964394637034 173.74911660782527,160.52497868116188 177.97084805660415,161.90369449098944 179.33038869255688,161.78114232810913 180.99999999988358,160.8926370840636 184.02915194339585,157.76752087015484 186.10424028267153,154.30532994534587 187.0583038869081,151.39459586009616 187.7022968197707,146.584139493134 186.74823321553413,141.74293596559437 184.76855123671703,137.2693230763398 183.26590106007643,135.92109294499096 180.37985865713563,135.33890007968876 177.78003533557057,136.19686796941096 174.60777385148685,139.7512703476823 172.36572438152507,144.0409890372248 171.43551236751955,149.74005598061194 172.24646643106826,156.05175171789597 174.44081272080075,160.12668137741275 175.9196113073267,161.26029486622429 177.99469964648597,161.84241841817857 180.7376325088553,161.1071041990508 184.02915194339585,157.76752087015484 185.74646643095184,155.1632230929972 186.8436395758763,152.34441862844687 187.75,146.584139493134 186.55742049473338,140.8849899333727 184.74469964660238,137.2693230763398 183.8383392225951,136.31943453470012 181.97791519435123,135.5533923691255 179.68816254416015,135.369541848253 177.97084805660415,136.0743013350293 176.58745583030395,137.2693230763398 174.58392226148862,139.7512703476823 172.79505300347228,142.93792659023893 171.6263250883203,147.13566217804328 171.43551236751955,149.4949378919846 172.0079505299218,155.4389737439633 174.60777385148685,160.31051099277101 175.967314487556,161.26029486622429 177.99469964648597,161.87305645670858 179.52120141335763,161.719866220752 181.47703180206008,160.52497868116188 183.93374558305368,157.9207138868369 185.88957597163972,154.79555501510913 187.39222614839673,150.13837228596094 187.7022968197707,146.4922189097415 187.20141342759598,145.1134055024013 187.34452296816744,143.6733021758264 186.15194346290082,139.84319377726933 184.6492932861438,137.1161155274167 183.1943462897325,135.92109294499096 181.57243816251867,135.369541848253 179.09187279141042,135.4614671281306 177.80388692568522,136.1662263172475 174.24999999988358,140.42537459669984" stroke="#4DD2FF" stroke-linecap="round" stroke-linejoin="round" stroke-width="0.5"><title>2024-12-05 7.7km</title><desc>1733352101000</desc></polyline><polyline fill="none" points="12.25,206.51302146281523 14.697635135089513,205.06792151478294 15.412162162130699,204.9507505891961 15.974662162130699,205.6733030542091 18.832770270237233,205.94670030321868 20.459459459409118,206.45443662245816 22.222972972900607,205.94670030321868 22.45101351349149,204.26725155170425 24.959459459409118,203.13458859226375 26.6621621621307,202.76354181941133 26.920608108106535,203.11505983945972 26.85979729722021,205.1655638771772 27.33108108106535,206.31773856536893 28.152027026982978,207.58707248677092 28.988175675622188,208.0948028046405 32.652027027041186,207.13792488801118 35.78378378378693,207.95810636333772 37.72972972970456,206.9231146529346 39.59966216207249,206.49349318545137 42.68581081076991,206.86452998570167 43.47635135130258,205.69283144702786 43.962837837811094,205.43896212647087 44.76858108100714,206.08339872575016 46.57770270266337,206.3567951668374 47.733108108106535,206.18104037367448 48.75168918911368,205.5561326398165 49.9983108107117,204.26725155170425 51.366554054024164,202.29484974093793 52.08108108100714,200.47865298521356 52.73479729727842,196.5532433069602 51.82263513514772,192.5496016402467 50.241554054024164,190.0301776657725 48.52364864863921,189.444258557196 47.337837837811094,189.58097323717084 46.425675675680395,189.97158586626756 44.64695945940912,191.86604151806387 42.98986486479407,194.85415095278586 42.32094594591763,198.46713851411187 42.716216216096655,202.21673424067558 43.38513513508951,203.89620780728 44.434121621598024,205.43896212647087 45.83277027023723,206.22009701366187 47.155405405384954,206.2982102605456 48.44763513508951,205.73188822435623 49.69425675680395,204.56018012287677 51.82263513514772,201.2988738183194 52.385135135031305,199.30690052805585 52.70439189183526,196.63136199541623 51.837837837811094,192.74490391383006 50.83445945940912,190.6942163312342 50.211148648522794,190.01064706870238 48.52364864863921,189.42472787764564 47.58108108100714,189.50285057937435 46.72972972970456,189.79581031930866 45.58952702698298,190.73327733020415 43.20270270266337,194.34637218840362 42.32094594591763,198.6038443045254 42.70101351349149,202.15814758655324 43.4003378378693,203.95479372759291 44.44932432437781,205.4780189752637 45.33108108100714,206.04434204733116 46.85135135130258,206.376323463468 47.86993243236793,206.10292706087057 49.10135135130258,205.18509234144585 51.746621621598024,201.51369275918114 52.64358108106535,197.7250190160994 52.36993243242614,194.22919220964832 50.75844594591763,190.57703326822957 50.150337837811094,189.99111646888196 48.554054054024164,189.42472787764564 47.50506756751565,189.5419119138096 46.28885135130258,190.1083000266517 44.616554054024164,191.8855718539853 43.23310810799012,194.30731220648158 42.396959459467325,197.37348734229454 42.30574324319605,199.38501766638365 42.655405405384954,202.17767647403525 44.26689189183526,205.32179151415767 46.04560810804833,206.27868195291376 47.44425675668754,206.22009701366187 48.34121621615486,205.790473369736 49.405405405384954,204.9116935920756 50.819256756745744,203.07600232562982 51.746621621598024,201.53322173730703 52.17229729722021,200.22477412575972 52.70439189183526,196.49465426176903 51.79222972970456,192.58866211696295 50.78885135130258,190.5965637855843 49.61824324319605,189.67862649750896 48.554054054024164,189.42472787764564 47.17060810804833,189.60050389477692 45.69594594591763,190.6551553212339 44.40371621615486,192.21758714436146 42.898648648581,195.14709939465683 42.44256756751565,197.17819158319617 42.32094594591763,199.4240762189729 42.70101351349149,202.1972053586942 43.43074324319605,203.99385099411302 44.22128378378693,205.3022630691121 45.04222972970456,205.90764358633896 46.592905405384954,206.3567951668374 47.793918918818235,206.1224553931679 48.82770270266337,205.43896212647087 50.43918918911368,203.73997856549977 51.761824324319605,201.49416377826128 52.415540540532675,199.1897247381421 52.70439189183526,196.51418394628854 51.70101351343328,192.41288988520682 50.819256756745744,190.6356248120719 50.22635135130258,190.01064706870238 48.8125,189.4051971953595 47.50506756751565,189.48331990808947 46.10641891887644,190.16689176847285 44.798986486392096,191.6707380074804 43.14189189183526,194.48308203852503 42.30574324319605,198.77960869435628 42.70101351349149,202.17767647403525 43.445945945975836,204.01337962324033 44.29729729727842,205.36084839591058 45.452702702605166,206.14198372274404 46.5625,206.33726686750015 47.991554054024164,206.00528535792546 50.5,203.70092122752976 51.746621621598024,201.53322173730703 52.14189189183526,200.30289074739267 52.75,196.24076811340638 52.00506756751565,193.11597747626365 51.29054054047447,191.47543422204035 50.454391891893465,190.26454461645335 49.57263513508951,189.67862649750896 48.02195945940912,189.42472787764564 46.516891891893465,189.89346342842327 45.34628378372872,190.94811262816074 44.2364864864503,192.6472528113809" stroke="#4DD2FF" stroke-linecap="round" stroke-linejoin="round" stroke-width="0.5"><title>2024-12-03 16.2km</title><desc>1733178751000</desc></polyline><polyline fill="none" points="57.25,215.15589797403663 60.049539170460775,213.78597410903603 62.23584595124703,213.47774017683696 64.90207373269368,213.75172591365117 68.12820934830233,214.91616185425664 71.30102040816564,213.10100928507745 74.47383146802895,212.34754575234547 79.99292297568172,213.13525757211028 82.25921658985317,210.4638767156721 83.13907175767235,210.42962805271964 86.07192231726367,211.90231620479608 88.4448650428094,211.90231620479608 90.3378867674619,210.9433574898576 92.20424621447455,209.1966729791602 93.67067149432842,207.65547035401687 96.2302501645172,203.16880270664115 97.72333772212733,195.8050085879804 96.2302501645172,188.2012292106665 94.44387755088974,184.50200739019783 92.76415404875297,183.02915342111373 90.31122448970564,182.4468598581443 87.69832126400433,182.8236382050527 85.56533903896343,184.4335027520865 82.6324884792557,188.02997018254246 80.68614219885785,191.93464607038186 79.8596115866676,195.2912471950258 79.51300197502133,197.89429374567408 79.80628703080583,202.51805778266862 80.41951942071319,205.36077280669997 82.44585253449623,209.40216592518846 83.93894009210635,211.1146003946924 86.81846609606873,212.0393099984649 88.25822909804992,212.00506155723997 90.52452271222137,210.8063630792749 93.64400921657216,207.68971940723713 95.72366688610055,204.36753880111792 97.27007899922319,199.70955973051605 97.75,194.81173558313458 96.57685977616347,189.02327086759033 94.89713627391029,185.2213049260754 93.3773864384275,183.40593086638546 89.48469387751538,182.34410202596337 86.87179065158125,183.2346684635413 82.6324884792557,187.96146653758478 80.41951942071319,192.79092626624333 79.48633969714865,199.23005682398798 80.33953258709516,205.2237752538349 82.01925608946476,208.81993546099693 83.69897959183436,211.01185466621246 85.6453258722322,211.79957080892927 88.17824226454832,211.97081311127113 91.6176761026727,209.88164879109536 95.96362738648895,203.75104668994027 97.32340355496854,198.85330387754948 97.75,194.74323384724266 96.33689927577507,188.33823634628789 94.44387755088974,184.53625970208668 92.57751810387708,182.89214329632523 89.43136932200287,182.34410202596337 87.45836076361593,182.8236382050527 85.96527320612222,183.9197173516004 82.65915075712837,187.96146653758478 80.65947992098518,191.93464607038186 79.37969058589078,198.99030501650122 80.41951942071319,205.2237752538349 82.23255431209691,209.02542872510094 83.85895325872116,211.01185466621246 85.83196181699168,211.79957080892927 88.20490454242099,211.86806774428987 90.12458854506258,211.14884896112198 91.99094799207523,209.53916112615843 95.59035549708642,204.43603782821447 97.3500658327248,199.12730607829872 97.69667544437107,194.88023729983252 96.97679394320585,190.49608855860424 95.77699144161306,186.96816151849634 93.13742593803909,183.2004159685457 89.3780447661411,182.37835464150703 86.41853192879353,183.50868825020734 82.7924621461425,187.7902073408186" stroke="#4DD2FF" stroke-linecap="round" stroke-linejoin="round" stroke-width="0.5"><title>2024-12-01 10.0km</title><desc>1733006314000</desc></polyline><polyline fill="none" points="119.80026008654386,218.76725554594304 123.06169085437432,218.62760879498092 125.27221615263261,217.3707853827218 132.19369700411335,208.52633744623745 134.7666034984868,198.75061985451612 134.25926982378587,190.79017925538938 131.10655341483653,182.41056111850776 128.96850435598753,180.12940608503413 126.21440726332366,178.8724363843503 122.88050025631674,178.73277278931346 119.54659324907698,180.3156234122289 114.54573273845017,186.22796904167626 111.90035000466742,191.67468211628147 110.66825393703766,196.3299213470018 110.19715838157572,200.37992618302815 110.63201581733301,206.75741948134964 113.45858914940618,214.39162933151238 115.34297137078829,217.0914906426915 118.9305452152621,218.8603533472051 121.4672135899309,219.0 124.43873940082267,217.78972705063643 127.66393204894848,214.95022313474328 131.68636332917958,209.22459193356917 134.15055546490476,202.84714620254817 134.8390797378961,194.65404277155176 133.53450743085705,187.717677255132 132.19369700411335,184.4589318234939 129.80198110779747,180.87427476464654 127.55521769006737,179.24487234911066 122.84426213661209,178.63966369320406 121.10483239381574,179.24487234911066 117.80716350651346,182.0846827912901 114.54573273845017,186.22796904167626 112.48015991901048,190.09188585251104 110.92192077450454,194.93335645712796 110.26963462098502,200.98509506089613 110.63201581733301,206.52466641340288 113.38611290999688,214.39162933151238 115.19801889220253,216.9052940183028 117.55349666881375,218.39486407881486 120.81492743664421,218.9534511222737 123.89516760618426,218.20866818804643 128.85978999710642,213.46063756314106 132.41112572187558,207.87463192813448 133.89688862720504,203.73161682279897 134.91155597707257,194.93335645712796 133.53450743085705,187.57801739516435 132.19369700411335,184.31927058755537 129.98317170585506,180.87427476464654 127.62769392924383,179.198317876464 123.53278640983626,178.63966369320406 120.85116555611603,179.38453572787694 119.11173581355251,180.64150348250405 114.43701837980188,186.27452252488 111.82787376549095,191.72123483286123 110.74073017621413,195.6316396391776 110.55953957792372,205.45400019118097 111.17558761197142,208.99184060154948 113.42235102970153,214.2985302725283 114.8356376956217,216.53290045508766 117.5897347885184,218.39486407881486 120.3438318814151,219.0 123.64150076848455,218.20866818804643 125.81578794703819,216.81219566683285 129.22217119345441,212.99514069629367 132.80974503792822,207.1763745910721 134.25926982378587,202.61439038306708 134.98403221648186,195.67819179879734 133.53450743085705,187.6245706883492 130.88912469684146,182.17779091754346 128.35245632193983,179.570753474487 123.46031017042696,178.59310913539957 121.64840418845415,179.01209992033546 119.47411700990051,180.4087320365361 115.8865431654267,184.22616306398413 111.64668316743337,192.2798669213371 110.5233014584519,197.0747535438568 110.26963462098502,202.1023270036385 111.10311137279496,208.8521897237806 112.29896932072006,212.06414499765378 114.79939957614988,216.4398019987857 117.5897347885184,218.4414130351215 120.56126059917733,219.0 123.7502151275985,218.25521717051743 126.54055033996701,216.11395719545544 130.12812418444082,211.7848457772052 133.4982693111524,205.40744940727018 134.8390797378961,199.4954466004856 134.87531785760075,194.46783351688646 132.3386494826991,184.598593000439 130.52674350049347,181.4794793316396 128.1350276041776,179.2914268152963 124.80112059717067,178.5 120.85116555611603,179.47764461443876 117.62597290822305,182.13123685773462 114.4732564992737,186.22796904167626 111.39301632973365,192.9316031653725 110.01596778351814,201.17130064679077 110.92192077450454,208.71253878687276 113.60354162799194,214.95022313474328 115.37920949049294,216.95184318415704 118.24202094227076,218.72070663547493 121.6121660687495,218.8603533472051 124.40250128111802,217.74317800271092 130.091886064969,211.6451960784034 131.94003016664647,208.89874002282158 133.9331267469097,203.87126986248768 134.94779409677722,195.39887874235865 134.33174606296234,190.92983775917673 132.37488760240376,184.7848078114621 130.34555290243588,181.293262659834 127.48274145065807,179.15176339738537 123.6777388881892,178.54655457104673 120.05392692401074,179.80352551021497 114.40078026009724,186.3210760015936 115.52416196884587,188.36942248878768" stroke="#4DD2FF" stroke-linecap="round" stroke-linejoin="round" stroke-width="0.5"><title>2024-11-29 13.9km</title><desc>1732833187000</desc></polyline><polyline fill="none" points="147.25,206.40962873533135 149.69579894980416,205.04366760197445 150.51612903230125,204.94609843473881 151.23012002999894,205.6876223840518 155.7115528882132,206.33157417585608 157.23068267072085,205.8047047504515 157.44336084026145,204.24359840410762 159.43342085526092,203.24838393535174 161.52981995494338,202.60441782601993 161.87921980489045,202.83858766633784 161.83364591147983,205.29734711551282 162.19823705928866,206.31206052911875 163.26162790699163,207.59995532334142 164.40097524377052,208.10730453403085 166.0720180044882,207.32676651793008 167.63672168034827,207.07309071683267 169.2469992497936,207.3072530112695 170.62940735177835,207.91217044189398 172.19411102775484,207.1121177933819 174.29051012755372,206.50719687284436 175.67291822953848,206.42914236830256 177.708552138065,206.81941445164557 178.66560390091036,205.60956741819973 179.394786196528,205.4144298114261 181.41522880713455,206.31206052911875 182.9951237809728,205.980328114616 185.3193923480576,203.87283306429163 186.41316579136765,202.17510542512173 187.40060014999472,199.48211550118867 187.73480870219646,196.51586317176407 187.12715678918175,193.33487733431684 186.01819204800995,190.81735828287492 184.62059264810523,189.64640361424244 183.02550637657987,189.39269546596915 181.81020255060866,189.70495158257836 180.77719429857098,190.48558879746997 179.12134283565683,192.63231847628776 178.01237809454324,194.7790149187349 177.37434358586324,197.84287863667123 177.72374343581032,202.05801999421965 179.1517254312639,205.12172288633883 180.1391597899492,205.92178701800003 181.47599399852334,206.29254687967477 182.41785446356516,206.21449225430842 183.48124531132635,205.70713611863903 185.3193923480576,203.8338050761231 186.41316579136765,202.17510542512173 187.41579144785646,199.44308627728606 187.68923480861122,196.1450771689706 186.6106526631047,191.96878739725798 185.896661665407,190.66123156511458 184.7117404351011,189.64640361424244 183.58758439606754,189.39269546596915 182.3267066766275,189.5293076034577 181.3544636158622,190.05623887313413 179.94167291821213,191.383316161111 177.9971867966815,194.83756071978132 177.31357839459088,198.87716129544424 177.7845086271409,202.15559119345562 179.2124906226527,205.1412367005978 180.04801200301154,205.8827596064075 180.929107276781,206.23400591475365 182.934358589584,206.0388691866392 185.44092273066053,203.71672104566824 186.99043510877527,200.88716024745372 187.75,196.61343827091332 187.2486871717847,193.66664000201854 185.85108777187997,190.60268400057976 184.66616654157406,189.64640361424244 183.48124531132635,189.39269546596915 182.17479369835928,189.58785562125558 180.97468117024982,190.29042990577 179.94167291821213,191.2467058502807 178.51369092270033,193.76421710620343 177.69336084020324,195.96944134791556 177.34396099025616,198.1160861264798 177.76931732933735,202.11656272195978 178.96942985750502,204.8485291988618 180.07839459861862,205.8827596064075 181.4000375092728,206.31206052911875 182.41785446356516,206.25351957249222 183.5420105025987,205.6876223840518 185.47130532632582,203.73623505764408 186.41316579136765,202.15559119345562 187.5373218304594,199.03327876249386 187.7196174043347,196.57440823951038 187.52213053259766,195.0327132113598 186.38278319576057,191.32476890154066 185.25862715678522,190.01720699593716 184.210427606944,189.4512435413926 182.9951237809728,189.39269546596915 181.70386346592568,189.7830155018164 179.86571642907802,191.53944206582673 179.394786196528,192.37861579158925" stroke="#4DD2FF" stroke-linecap="round" stroke-linejoin="round" stroke-width="0.5"><title>2024-11-27 11.3km</title><desc>1732665796000</desc></polyline><polyline fill="none" points="12.25,255.681681738919 13.032027478562668,255.50781980945612 15.0923691050848,254.27146196106332 15.859357593755703,254.21350741374772 16.61130709241843,254.92827845434658 21.123004084685817,255.50781980945612 22.551708132203203,255.1021411177935 22.71713702188572,253.65327886136947 23.123189751175232,253.26691301050596 25.25872632744722,252.2623567092087 26.89797623467166,251.9339424778591 27.21379502408672,252.33963053183106 27.379223913827445,255.4885018037312 27.755198663158808,255.95213319151662 37.95163386553759,256.16463038772054 40.05709246190963,255.681681738919 42.79418863717001,256.0294049373333 43.81683995545609,254.79305178613868 44.538711474160664,254.54191619183985 46.25315633119317,255.43054777014186 48.08791310811648,255.2760035610263 49.57677311549196,254.05896183454024 51.637114741955884,251.18051862544962 52.524415150342975,248.37929111212725 52.70488303009188,246.69852716608148 52.16347939101979,242.7380249942944 51.336334942432586,240.70943084699684 50.61446342372801,239.66614218284667 49.802357965148985,239.10585425705358 47.98264017823385,238.8353696122649 46.6441700704745,239.33769781411684 45.80198663199553,240.052546316394 44.38832157442812,241.86863117362373 43.275436316384,243.97448672137398 42.53852580761304,247.2587841013301 42.989695506868884,251.68280165316537 44.40336056437809,254.46464360882237 45.81702562200371,255.37259371214896 47.3660415893537,255.50781980945612 48.40373189753154,255.12145917795715 49.68204604537459,253.96237075922545 51.99805050127907,250.29185953582055 52.73496100999182,246.4280574823788 52.11836242111167,242.58346649532905 51.23106201260816,240.59351027592493 50.44903453392908,239.55022073069995 49.155681396252476,238.9319713323639 47.74201633868506,238.8546899617504 46.59905310062459,239.3763383688638 45.260582992981654,240.6128303778969 43.30551429634215,243.83924926245527 42.53852580761304,247.81903875002172 42.658837727387436,250.34981573876576 43.14008540660143,252.01121648536355 44.49359450431075,254.5805524670286 46.04261047160253,255.44986578407406 47.44123653921997,255.4691837952414 48.163108057924546,255.2760035610263 49.59181210550014,254.02032541255176 51.862699591496494,250.56232160684885 52.46425919054309,248.55316206991847 52.75,245.88711651622725 51.96797252132092,242.21638936268573 51.23106201260816,240.57419017117354 50.22344968438847,239.3763383688638 49.050408466369845,238.87401030850015 47.772094318585005,238.8353696122649 46.6441700704745,239.2990572484705 45.33577794273151,240.49690972524695 44.28304864454549,241.94591084735293 43.18520237650955,244.14836325850047 42.62875974748749,246.23486452488578 42.49340883776313,248.302015060166 43.12504641665146,252.06917196238646 44.358243594528176,254.4260073010082 44.959803193516564,254.94759653895744 46.283234311209526,255.4885018037312 47.93752320826752,255.35327568731736 50.32872261421289,253.13168470580422 52.07324545120355,249.98275937361177 52.75,246.13826794418856 51.96797252132092,242.17774960743554 50.40391756402096,239.47293970819737 49.23087634606054,238.9319713323639 48.012718158192,238.8353696122649" stroke="#4DD2FF" stroke-linecap="round" stroke-linejoin="round" stroke-width="0.5"><title>2024-11-24 10.4km</title><desc>1732400098000</desc></polyline><polyline fill="none" points="57.25,255.28454437210166 59.676966292143334,253.82320806576172 60.43539325846359,253.76475429271522 61.31516853929497,254.44671344281232 65.7747191010858,255.10918482964917 67.2764044944197,254.68052723539586 67.48876404494513,253.0438223962119 68.82359550561523,252.43979548489733 71.93314606742933,252.5372193584335 72.29719101125374,255.08970042236615 73.17696629214333,256.27824425128347 74.01123595511308,256.8043177709915 74.72415730333887,256.84328610028024 76.66573033703025,255.98598032123118 78.10674157302128,255.84959027609148 80.88258426968241,256.66792853182415 82.55112359550549,255.71320009659394 84.32584269659128,255.22609121598362 87.75393258430995,255.5573254412302 88.95224719098769,254.1544456469128 89.72584269661456,254.797433983651 91.39438202243764,255.03124718397157 92.425842696568,254.9727939208824 93.47247191012139,254.52465141758148 95.36853932583472,252.5956736497319 96.36966292135185,251.01739912398625 97.4921348314383,247.82182524321252 97.71966292127036,245.2886959825846 97.35561797750415,242.75552037503803 95.7932584269438,239.28694320870272 94.6404494382441,238.42952871561283 92.98707865172764,238.15671389971976 91.9859550561523,238.44901546764595 91.04550561803626,239.13105005947 88.58820224722149,242.48271408361325 87.52640449436149,245.7563541035779 87.37471910112072,247.35417409871297 87.6325842696242,250.23799766082084 88.39101123594446,252.38134112779517 89.3162921348121,253.9985692368209 90.0140449438477,254.66104276779515 91.51573033712339,255.05073159949097 92.86573033698369,254.85588732073666 93.97303370787995,254.11547656085168 95.38370786514133,252.57618888875004 96.43033707863651,250.9589441664575 97.15842696628533,249.20528396425652 97.68932584265713,246.3019532483013 97.34044943819754,242.6970619292406 96.65786516852677,240.84586504615436 95.4443820224842,238.89721000652935 94.56460674153641,238.4100419608876 92.97191011236282,238.17620069009718 91.92528089880943,238.4100419608876 91.06067415734287,239.05310341902077 89.57415730331559,240.78740579404985 88.49719101126539,242.56065879311063 87.96629213483538,243.86622615488886 87.38988764048554,246.86703581019538 87.67808988760225,250.25748275087972 88.40617977525108,252.43979548489733 89.34662921348354,254.0375383557839 90.21123595506651,254.7000117002608 91.69775280897738,255.07021601230372 93.07808988768375,254.73898062182707 93.89719101128867,254.1544456469128 95.4443820224842,252.5177345892298 96.44550561794313,250.90048918419052 97.58314606739441,247.41263057816832 97.71966292127036,245.24972440119018 97.34044943819754,242.71654808059975 96.64269662916195,240.80689221413922 95.6264044943382,239.05310341902077 94.59494382020785,238.39055520347029 93.32078651682241,238.17620069009718 91.94044943817426,238.546449186455 90.68146067415364,239.44283618235204 89.28595505619887,241.1771336752281 88.07247191015631,243.63239409965172 87.46573033701861,246.16555366368266 87.40505617979215,248.2699894411926 87.72359550563851,250.62769894083613 88.42134831455769,252.5177345892298 89.33146067411872,254.0375383557839 90.75730337074492,254.933825065149 92.3348314606701,254.9727939208824 93.65449438197538,254.34929091270897 95.48988764046226,252.45928026508773 96.58202247193549,250.64718397604884 97.15842696628533,249.24425443232758 97.62865168537246,246.96446360500704 97.75,245.3081817691418 97.35561797750415,242.67757577520388 96.26348314603092,239.96897367252677 95.6264044943382,239.09207674473873 94.24606741574826,238.29312137483794 92.51685393258231,238.25414782427833" stroke="#4DD2FF" stroke-linecap="round" stroke-linejoin="round" stroke-width="0.5"><title>2024-11-21 10.8km</title><desc>1732142576000</desc></polyline><polyline fill="none" points="102.25,254.94366457602882 104.45158550399356,253.52965984283946 105.17015855043428,253.45110360425315 106.05690826720092,254.1973860853468 108.67129105323693,254.35449767817045 110.3224801812321,254.78655364643782 111.86664779158309,254.4723312567221 112.20300113252597,252.6851779610006 116.46857304644072,251.11403528139635 116.72848244628403,251.44790458072384 116.98839184595272,254.49197017679398 118.83833522081841,256.966451997112 119.51104190264596,257.2413917134836 119.60277463198872,256.5344027770916 122.14071347680874,255.6113840535545 123.5778595697484,255.65066157039837 125.81002265005372,256.3380163258553 127.6905436013476,255.297163520896 128.92893544741673,254.96330342975853 130.45781426958274,254.88474799817777 132.6593997735181,255.27752471409622 133.85192525479943,253.94207936985185 136.17582106456393,254.72763700228825 137.91874292190187,254.5116090941301 140.31908267276594,252.35131162150356 141.4351642128895,250.5444916919805 142.38306908268714,248.01097652495082 142.75,244.88820850051707 142.36778029450215,242.31530938411015 140.74716874287697,238.79959190941008 139.56993204983883,237.95502088523062 138.086919592286,237.7782495588035 136.12995469989255,238.58353934327897 134.1729898074991,240.8226133434364 132.6288221970899,244.39720088137256 132.27718006796204,247.48070008780633 132.46064552664757,249.77855009671475 133.89779161952902,253.27435190582764 135.5031143828528,254.55088692047866 137.64354473393178,254.6883592256636 138.94309173274087,253.84388435493747 140.716591166507,251.74249447573675 141.81738391850377,249.75891051332292 142.55124575312948,247.30394082763814 142.75,244.92748903536994 142.41364665911533,242.5902779658063 140.80832389579155,238.87815639599285 139.03482446202543,237.8175320951559 137.582389580959,237.8568146204343 136.19110985280713,238.56389818433672 134.84569648926845,239.97805456344213 133.45441676105838,242.09926226121024 132.76642129110405,243.92583194164035 132.30775764444843,246.30230079122703 132.53708946774714,249.9749457782891 133.46970554930158,252.4691468913661 134.4787655719556,253.9617183645605 135.94648924120702,254.70799811533652 137.61296715744538,254.6883592256636 139.00424688565545,253.76532829321513 140.4261041902937,252.19419777365692 141.78680634207558,249.8374688301992 142.41364665911533,247.87349764212559 142.75,244.94712929870002 142.5359569649445,243.35625901515596 141.9396942242165,240.99938081331493 140.80832389579155,238.89779751074093 139.1571347678546,237.83717335914844 138.28567383921472,237.7586082865164 136.97083805210423,237.99430337183003 136.2369762174785,238.48533352083177 134.84569648926845,239.93877263530158 133.30152887880104,242.55099677309045 132.5982446206035,244.61324444660568 132.30775764444843,246.61654157658631 132.50651189131895,249.73927092720987 133.88250283128582,253.2547128144215 134.78454133635387,254.1973860853468 135.94648924120702,254.70799811533652 137.38363533408847,254.72763700228825 138.27038505091332,254.39377554880048 140.73187995475018,251.78177308139857 142.2607587769744,248.58053045379347 142.75,244.8685682288633 141.83267270668875,240.76369080373843 140.77774631942157,238.87815639599285 139.95215175539488,238.2103568502498 139.05011325032683,237.83717335914844 137.3224801812321,237.87645587894076 136.35928652319126,238.34784525328723 135.35022650053725,239.3691834348574 134.2341449604137,240.74404995166697 132.98046432621777,243.2776970497507 132.27718006796204,247.1664612482855 132.81228765571723,250.8390834939637 134.26472253678367,253.78496731282212 135.83946772367926,254.7472758864169 137.36834654590348,254.78655364643782 138.20922989811515,254.4526923338417 140.624858437106,251.95852667014697 141.83267270668875,249.8374688301992 142.42893544735853,247.99133669280855 142.734711211815,244.7900071148324 142.35249150625896,242.41351251123706 141.4810305776191,240.07625933535746 140.716591166507,238.79959190941008 139.6463759909966,238.07286831176316 138.51500566251343,237.7782495588035 137.18488108721795,237.95502088523062 136.17582106456393,238.56389818433672 134.81511891284026,239.9584136007761 132.9193091733032,243.33661852795922 132.46064552664757,245.1042513055727 132.26189127971884,247.89313749079884 133.17921857303008,251.8603302595584 133.85192525479943,253.2154346233001 134.81511891284026,254.21702504414134 135.7018686296651,254.6687203332258 137.39892412233166,254.70799811533652 138.23980747454334,254.39377554880048 139.43233295582468,253.37254732147267 140.56370328430785,252.01744448335376 141.9702718007029,249.52323529742716 142.734711211815,245.67381709767506 142.21489241230302,241.88321480389277 140.73187995475018,238.81923303518852 138.98895809741225,237.8175320951559 137.64354473393178,237.83717335914844 136.63448471121956,238.22999805897416 134.90685164212482,239.8602087458712 134.09654586634133,241.11722566882963" stroke="#4DD2FF" stroke-linecap="round" stroke-linejoin="round" stroke-width="0.5"><title>2024-11-17 16.3km</title><desc>1731797391000</desc></polyline></svg>