<?xml version="1.0" encoding="utf-8" ?>
<svg baseProfile="full" height="300mm" version="1.1" viewBox="0,0,200,300" width="200mm" xmlns="http://www.w3.org/2000/svg" xmlns:ev="http://www.w3.org/2001/xml-events" xmlns:xlink="http://www.w3.org/1999/xlink"><defs /><rect fill="#222222" height="300" width="200" x="0" y="0" /><text fill="#FFFFFF" style="font-size:12px; font-family:Arial; font-weight:bold;" x="10" y="20">Over 5km Runs</text><text fill="#FFFFFF" style="font-size:4px; font-family:Arial" x="10" y="280">ATHLETE</text><text fill="#FFFFFF" style="font-size:9px; font-family:Arial" x="10" y="290">sagasw</text><text fill="#FFFFFF" style="font-size:4px; font-family:Arial" x="65" y="280">SPECIAL TRACKS</text><rect fill="yellow" height="2.6" width="2.6" x="65" y="283" /><text fill="#FFFFFF" style="font-size:3px; font-family:Arial" x="70" y="285.5">Over 20.0 km</text><rect fill="red" height="2.6" width="2.6" x="65" y="287" /><text fill="#FFFFFF" style="font-size:3px; font-family:Arial" x="70" y="289.5">Over 40.0 km</text><text fill="#FFFFFF" style="font-size:4px; font-family:Arial" x="120" y="280">STATISTICS</text><text fill="#FFFFFF" style="font-size:3px; font-family:Arial" x="120" y="285">Number: 5</text><text fill="#FFFFFF" style="font-size:3px; font-family:Arial" x="120" y="290">Weekly: 1.7</text><text fill="#FFFFFF" style="font-size:3px; font-family:Arial" x="141" y="285">Total: 62.7 km</text><text fill="#FFFFFF" style="font-size:3px; font-family:Arial" x="141" y="290">Avg: 12.5 km</text><text fill="#FFFFFF" style="font-size:3px; font-family:Arial" x="167" y="285">Min: 10.4 km</text><text fill="#FFFFFF" style="font-size:3px; font-family:Arial" x="167" y="290">Max: 16.3 km</text><polyline fill="none" points="45.20046237623319,105.58623208157951 50.99856151896529,105.33797119103838 54.92838427145034,103.10361845808802 67.23323911847547,87.38015545991948 71.80729510867968,70.00110196351307 70.90536857559346,55.8492075651302 65.30053940415382,40.952108655066695 61.499563299585134,36.8967219289043 56.60339069017209,34.66210912767565 50.67644489998929,34.413818292086944 44.74949910957366,37.22777495504124 35.85908042406663,47.73861162958201 31.156177786178887,57.421657095546834 28.965784776723012,65.69763795018662 28.128281567245722,72.89764654752798 28.901361452881247,84.23541241121711 33.92638070997782,97.80734103370924 37.27639354811981,102.60709447588306 43.65430260496214,105.75173928384902 48.16393527109176,106.0 53.446647823788226,103.84840364556294 59.18032364244573,98.80039668397512 66.33131258515641,88.62149677070556 70.71209860406816,77.28381547116442 71.93614175636321,62.718298260471784 69.61690209922381,50.386981786869 67.23323911847547,44.59365657507442 62.98129974724725,38.22093291487545 58.98705367138609,35.32421750947833 50.61202157614753,34.24829101009527 47.519702033372596,35.32421750947833 41.65717956703156,40.37276940670563 35.85908042406663,47.73861162958201 32.186950967181474,54.60779707104666 29.41674804338254,63.214855923724826 28.257128214929253,73.973502330482 28.901361452881247,83.82162917935057 33.79753406229429,97.80734103370924 37.01870025275275,102.27607825468294 41.206216300139204,104.92420280672377 47.00431544263847,105.9172464395524 52.480297966627404,104.59318788984092 61.30629332805984,96.15224455663702 67.6197790610604,86.22156787215499 70.2611353371758,78.8562076849048 72.06498840381391,63.214855923724826 69.61690209922381,50.13869759137742 67.23323911847547,44.34536993340589 63.303416366223246,38.22093291487545 59.11590031883679,35.24145400256384 51.83606472844258,34.24829101009527 47.06873876648024,35.572507960605435 43.97641922417097,37.80711730220355 35.66581045277417,47.821373377519194 31.027331138728186,57.50441748055164 29.094631424406543,64.45624824735569 28.772514805430546,81.91822256206069 29.86771131004207,88.20771662495099 33.861957386368886,97.64183159556706 36.37446701456793,101.61404525343096 41.27063962398097,104.92420280672377 46.16681223339401,106.0 52.029334699735045,104.59318788984092 55.8947341281455,102.1105700742919 61.95052656624466,95.32469457114348 68.32843562308699,84.98022149520693 70.90536857559346,76.87002734758426 72.19383505149744,64.53900764230639 69.61690209922381,50.22145900147734 64.91399946110323,40.53829496446997 60.40436679474078,35.903561732382514 51.70721808075905,34.16552735178266 48.48605189053342,34.91039985831594 44.62065246212296,37.39330139826052 38.242743405047804,44.17984544701176 30.70521451998502,58.497541193442885 28.70809148158878,67.02178407792235 28.257128214929253,75.95969245088054 29.738864662591368,87.95944839779986 31.864834347972646,93.66959110694006 36.31004369095899,101.44853688665899 41.27063962398097,105.00695650681155 46.553352176211774,106.0 52.22260467126034,104.67594163643662 57.18320060428232,100.86925723630702 63.56110966135748,93.17305915942416 69.55247877538204,81.83546561287949 71.93614175636321,71.3252384008374 72.00056508020498,62.387259585550055 67.4909324136097,44.84194311185274 64.26976622315124,39.29685214505298 60.01782685192302,35.40698100492591 54.09088106150739,34.0 47.06873876648024,35.73803487006808 41.335062947822735,40.45553219149588 35.73023377661593,47.73861162958201 30.25425125309266,59.65618340508081 27.806164948502555,74.30453448311891 29.41674804338254,87.7111800655257 34.18407400511205,98.80039668397512 37.34081687196158,102.35883232735796 42.43025945266709,105.50347846304066 48.42162856669165,105.75173928384902 53.38222449971363,103.76564978255192 63.49668633751571,92.92479302821448 66.78227585181594,88.04220448498381 70.3255586612504,79.10447975550778 72.12941172788851,64.04245109745534 71.03421522304416,56.097489349602256 67.55535573745146,45.172991664730944 63.94764960417524,38.965800284116995 58.8582070232369,35.15869048418244 52.09375802357681,34.08276368182851 45.65142564289272,36.317378684761934 35.60138712916523,47.90413511387305 37.59851016709581,51.545639980002306" stroke="#4DD2FF" stroke-linecap="round" stroke-linejoin="round" stroke-width="0.5"><title>2024-11-29 13.9km</title><desc>1732833187000</desc></polyline><polyline fill="none" points="114.0,83.61711775168078 118.34808702184819,81.18874240350851 119.80645161308348,81.01528610619425 121.07576894224621,82.3335509049648 129.04276069020852,83.47835409040272 131.7434358590981,82.54169733413437 132.12153038266115,79.7663971628499 135.65941485378426,77.99712699616794 139.38634658663068,76.85229835734935 140.0075018753996,77.26860029570526 139.926481620525,81.63972820533672 140.5746436609188,83.44366316286323 142.4651162790833,85.73325390813989 144.49062265572138,86.63520806049928 147.4613653413253,85.24758492075489 150.24306076520588,84.79660571880231 153.1057764440775,85.21289424222778 155.56339084764477,86.28830300780828 158.34508627152536,84.86598718821188 162.07201800460462,83.7905722183641 164.5296324081719,83.6518086547585 168.14853713440243,84.34562569178524 169.84996249061078,82.19478652124235 171.14628657174762,81.84787522029364 174.73818454612046,83.44366316286323 177.54688672174234,82.85391664820781 181.6789197298931,79.10725878096127 183.62340585142374,76.08907631129841 185.37884471123107,71.30153866877663 185.97299324837513,66.02820119424723 184.8927231808193,60.37311526098347 182.9212303076638,55.89752583621885 180.43660915223882,53.81582864753727 177.6009002251085,53.36479193948617 175.44036008999683,53.91991392457567 173.6039009753149,55.307713417714695 170.66016504121944,59.124121735600056 168.68867216806393,62.94047096661234 167.55438859714195,68.38733979850076 168.17554388591088,75.88092443415371 170.7141785445856,81.32750735348964 172.46961740439292,82.74984358754591 174.84621155296918,83.40897223050706 176.52063015755266,83.27020845208608 178.41110277571715,82.36824198867544 181.6789197298931,79.03787569086126 183.62340585142374,76.08907631129841 185.40585146297235,71.23215338181762 185.89197299315128,65.36902607815864 183.97449362336192,57.94451092845702 182.7051762941992,55.61996722687036 180.59864966245368,53.81582864753727 178.6001500375569,53.36479193948617 176.3585896474542,53.607657961692894 174.63015753938816,54.54442466334149 172.11852963233832,56.9036731752858 168.66166541632265,63.04455239071103 167.44636159040965,70.2260645252245 168.2835708927596,76.05438434390817 170.8222055514343,81.36219857883407 172.30757689429447,82.6804615224828 173.87396849214565,83.30489940400003 177.43885971489362,82.95798966512666 181.8949737433577,78.82972630340373 184.64966241561342,73.79939599546196 186.0,66.20166803717439 185.1087771942839,60.96291555912467 182.62415603897534,55.515882667692495 180.51762940734625,53.81582864753727 178.41110277571715,53.36479193948617 176.08852213050704,53.71174332665396 173.95498874713667,54.96076427692606 172.11852963233832,56.66081040049903 169.57989497378003,61.13638596657256 168.12153038254473,65.05678461851494 167.50037509389222,68.87304200262588 168.25656414113473,75.98500039459032 170.3900975245051,80.84182968686218 172.36159039766062,82.6804615224828 174.71117779437918,83.44366316286323 176.52063015755266,83.33959035108273 178.51912978244945,82.3335509049648 181.94898724684026,78.86441788023512 183.62340585142374,76.05438434390817 185.62190547643695,70.50360668885696 185.94598649663385,66.1322813146835 185.59489872469567,63.39149015353178 183.5693923480576,56.799589158268645 181.5708927231608,54.47503465943737 179.707426856854,53.468877406892716 177.54688672174234,53.36479193948617 175.25131282838993,54.058694225444924 171.98349587398116,57.181230339221656 171.14628657174762,58.67309474058857" stroke="#4DD2FF" stroke-linecap="round" stroke-linejoin="round" stroke-width="0.5"><title>2024-11-27 11.3km</title><desc>1732665796000</desc></polyline><polyline fill="none" points="14.0,164.54521198030852 15.390271072974429,164.23612410570786 19.05310063122306,162.03815459746693 20.41663572215475,161.9351242911216 21.753434831043705,163.20582836329413 29.774229483911768,164.23612410570786 32.314147790544666,163.51491754275048 32.608243594528176,160.93916242022533 33.33011511317454,160.25228979646636 37.12662458221894,158.4664119274821 40.04084663942922,157.88256440509576 40.60230226512067,158.60378761215543 40.89639806910418,164.20178098442557 41.56479762343224,165.02601456271077 59.691793538746424,165.40378735595732 63.434831043472514,164.54521198030852 68.30077979946509,165.1633865552576 70.11882658745162,162.96542539758957 71.40215373190586,162.51896211883286 74.45005570002832,164.098751591373 77.71184552554041,163.82400633071666 80.35870776092634,161.66037659475114 84.02153731905855,156.54314422301832 85.59896026737988,151.56318419934541 85.91979205352254,148.57515940636222 84.95729669509456,141.53426665654115 83.48681767552625,137.92787706133095 82.20349053107202,136.0731416583876 80.75974749354646,135.07707423476677 77.52469365019351,134.59621264404268 75.14519123651553,135.48924055842508 73.64797623467166,136.7600823402754 71.13479391019791,139.98867764201714 69.15633122914005,143.73242083800142 67.84626810241025,149.57117173571896 68.6483475677669,157.4360918278544 71.16152989224065,162.3815886379016 73.67471221694723,163.99572215494118 76.42851838108618,164.23612410570786 78.27330115123186,163.54926076081756 80.54585963615682,161.48865912751353 84.66320089122746,154.96330584147654 85.97326401772443,148.09432441313402 84.87708874873351,141.25949599168962 83.29966580029577,137.7217960460839 81.90939472708851,135.86705907681608 79.6101002600044,134.76794903531845 77.09691793541424,134.63055993200396 75.06498329003807,135.55793487798655 72.6854808764765,137.75614289403893 69.20980319357477,143.4919986888126 67.84626810241025,150.5671800000273 68.06015595979989,155.06633909115044 68.91570738947485,158.01994041843864 71.3219457854284,162.58764883028925 74.07575194956735,164.13309472725086 76.56219829188194,164.16743785821018 77.84552543633617,163.82400633071666 80.38544374308549,161.5916896223207 84.42257705156226,155.44412730108888 85.49201633874327,151.87228812430112 86.0,147.1326515844121 84.60972892679274,140.60691442254756 83.29966580029577,137.68744919321034 81.50835499446839,135.55793487798655 79.4229483846575,134.66490721511946 77.15038989973255,134.59621264404268 75.14519123651553,135.420546219495 72.81916078715585,137.55006173378206 70.94764203485101,140.1260637286323 68.99591533606872,144.04153468178993 68.00668399548158,147.7508702664636 67.7660601560492,151.42580455141433 68.8889714073157,158.12297237757593 71.08132194587961,162.3129018684558 72.1507612329442,163.24017162481323 74.50352766434662,164.20178098442557 77.44448570359964,163.9613789996656 81.69550686969887,160.0118839214265 84.79688080213964,154.4137944419781 86.0,147.57914301189885 84.60972892679274,140.5382215243444 81.82918678049464,135.72967059235089 79.74378017080016,134.76794903531845 77.57816561462823,134.59621264404268" stroke="#4DD2FF" stroke-linecap="round" stroke-linejoin="round" stroke-width="0.5"><title>2024-11-24 10.4km</title><desc>1732400098000</desc></polyline><polyline fill="none" points="114.0,163.83918999483285 118.31460674153641,161.24125878357154 119.66292134835385,161.13734096482222 121.22696629213169,162.34971278719604 129.15505617973395,163.5274396971363 131.82471910119057,162.7653817518003 132.2022471909877,159.8556842599064 134.57528089883272,158.7818586398207 140.1033707865281,158.95505663719086 140.75056179775856,163.492800750857 142.3146067415364,165.60576755783404 143.7977528090123,166.54100937064504 145.06516853929497,166.61028640049335 148.5168539325241,165.0861872377427 151.0786516853841,164.84371604636544 156.01348314608913,166.29853961210756 158.9797752808081,164.6012446161476 162.13483146065846,163.73527327284683 168.22921348316595,164.3241341177345 170.3595505617559,161.83012559449708 171.73483146063518,162.97321597092377 174.70112359547056,163.38888388260966 176.53483146056533,163.28496697044466 178.39550561795477,162.48826918679697 181.76629213476554,159.0589753772947 183.54606741573662,156.25315399818646 185.5415730336681,150.57213376570144 185.94606741564348,146.0687928579282 185.29887640441302,141.56536955561023 182.52134831459261,135.39901014878706 180.47191011242103,133.87471771663695 177.5325842696475,133.3897135994921 175.75280898879282,133.90936083135603 174.08089887641836,135.12186677237332 169.71235955064185,141.08038059307728 167.82471910107415,146.9001850730274 167.55505617975723,149.74075395324326 168.0134831459727,154.8675513969938 169.36179775279015,158.67793978271948 171.00674157298636,161.5530119765608 172.2471910113236,162.73074269828794 174.9168539326638,163.4235228435282 177.31685393245425,163.0771330146381 179.2853932584403,161.76084721928055 181.79325842682738,159.02433580219804 183.65393258421682,156.14923407367314 184.94831460679416,153.03161593644472 185.89213483140338,147.87013910806854 185.27191011235118,141.46144342975458 184.05842696630862,138.170426748693 181.9011235955404,134.70615112269297 180.33707865164615,133.8400745971303 177.50561797746923,133.4243567823869 175.6449438200798,133.8400745971303 174.10786516859662,134.98329496713995 171.46516853931826,138.06649918940093 169.55056179780513,141.2189489655284 168.6067415730795,143.53995760867838 167.5820224719355,148.87473032921844 168.09438202239107,154.90219155710656 169.388764044852,158.7818586398207 171.06067415734287,161.62229041027604 172.59775280894246,162.80002080045233 175.24044943822082,163.45816179964459 177.6943820224842,162.86929888324812 179.15056179778185,161.83012559449708 181.9011235955404,158.92041704749863 183.68089887627866,156.04531410519849 185.70337078650482,149.84467658340873 185.94606741564348,145.99951004654577 185.27191011235118,141.49608547661046 184.03146067413036,138.10114171399618 182.22471910109743,134.98329496713995 180.39101123588625,133.8054314728215 178.12584269663785,133.4243567823869 175.67191011237446,134.08257633146422 173.4337078651879,135.6761532130622 170.95280898874626,138.7593487559643 168.79550561809447,143.12425617713598 167.71685393247753,147.6276509576419 167.60898876411375,151.3688701176725 168.17528089880943,155.56035367256845 169.41573033703025,158.92041704749863 171.0337078650482,161.62229041027604 173.56853932572994,163.21568900470447 176.37303370784502,163.28496697044466 178.7191011235118,162.17651717814442 181.98202247195877,158.8164982490125 183.92359550565016,155.59499373516883 184.94831460679416,153.10089676856296 185.78426966292318,149.0479352977709 186.0,146.10343425623432 185.29887640441302,141.42680137811112 183.35730337072164,136.6115087511571 182.22471910109743,135.05258087952097 179.77078651695047,133.63221577748482 176.69662921340205,133.56292946536269" stroke="#4DD2FF" stroke-linecap="round" stroke-linejoin="round" stroke-width="0.5"><title>2024-11-21 10.8km</title><desc>1732142576000</desc></polyline><polyline fill="none" points="14.0,243.2331814684876 17.913929784786887,240.7193952761445 19.19139297842048,240.57973974088964 20.767836919403635,241.9064641517325 25.415628539049067,242.1857736500533 28.351075877668336,242.95387314920663 31.096262740553357,242.3952555674914 31.694224235485308,239.21809415287862 39.277463193633594,236.4249516113632 39.73952434887178,237.01849703238986 40.20158550387714,242.43016920317314 43.49037372588646,246.82924799484317 44.68629671575036,247.31802971285651 44.84937712352257,246.06116049259435 49.361268403124996,244.420238317427 51.91619479062501,244.49006501403346 55.88448471110314,245.7120290237217 59.22763306903653,243.86162403713388 61.429218573030084,243.26809498622606 64.14722536806948,243.12844088562997 68.06115515285637,243.82671060282155 70.18120045296382,241.45258554640168 74.312570781447,242.84913244849304 77.41109852772206,242.46508283400908 81.678369195899,238.62455399378086 83.66251415619627,235.4124296746304 85.34767836914398,230.9084027110075 86.0,225.35681511201255 85.32049830129836,220.78277223840996 82.43941109837033,214.53260783894802 80.34654586634133,213.0311482403922 77.71007927518804,212.71688810453634 74.23103057756089,214.1485143880418 70.75198187993374,218.1290903883346 68.00679501704872,224.48391267798434 67.38165345415473,229.96568904498417 67.70781426958274,234.05075572746864 70.26274065684993,240.26551449923136 73.11664779158309,242.53491008085257 76.92185730463825,242.77930529005243 79.23216308036353,241.27801663099672 82.38505096267909,237.5422124012839 84.34201585501432,234.0158409125579 85.64665911660995,229.65145036022295 86.0,225.42664717396838 85.40203850506805,221.27160527254455 82.54813137033489,214.67227803729475 79.39524348801933,212.78672372469737 76.81313703279011,212.8565593252133 74.33975084929261,214.11359677214932 71.94790486979764,216.62765255721752 69.47451868630014,220.3986884643673 68.25141562859062,223.64592345178244 67.4360135900788,227.87075696217653 67.8437146092765,234.39990360582306 69.50169875426218,238.83403891797934 71.29558323894162,241.48749931476777 73.90486976213288,242.8142188717029 76.86749716871418,242.77930529005243 79.34088335221168,241.13836141015054 81.86862967163324,238.34524048649473 84.28765571920667,234.1555001425586 85.40203850506805,230.6639958082087 86.0,225.4615631976776 85.61947904864792,222.6333493602724 84.5594563985942,218.44334366809926 82.54813137033489,214.70719557465054 79.61268403171562,212.82164152736368 78.06342015857808,212.68197028712893 75.72593431477435,213.1009837721358 74.42129105317872,213.9739262592484 71.94790486979764,216.55781801830744 69.20271800667979,221.20177204103675 67.95243488100823,224.86799012728443 67.4360135900788,228.42940724725486 67.78935447346885,233.98092609281593 70.23556058888789,240.2306005589635 71.83918459783308,241.9064641517325 73.90486976213288,242.8142188717029 76.45979614940006,242.84913244849304 78.03624009049963,242.2556009756372 82.41223103064112,237.61204103358614 85.13023782568052,231.9209430289484 86.0,225.32189907353313 84.36919592297636,218.0243392066477 82.49377123441081,214.67227803729475 81.02604756504297,213.48507884488208 79.42242355609778,212.82164152736368 76.35107587766834,212.8914771181153 74.63873159675859,213.72950267248962 72.84484711207915,215.54521499527618 70.86070215178188,217.98942213627743 68.63193657982629,222.49368364400289 67.38165345415473,229.40704221917258 68.33295583236031,235.9361484336987 70.91506228758954,241.17327522278356 73.71460928651504,242.88404602029186 76.43261608155444,242.95387314920663 77.92751981888432,242.36034192683292 82.22197055479046,237.9262696358055 84.36919592297636,234.1555001425586 85.42921857303008,230.87348745387862 85.97281993203796,225.18223487079376 85.2933182332199,220.95735557550506 83.74405436019879,216.80223881840357 82.38505096267909,214.53260783894802 80.48244620615151,213.24065477646946 78.47112117777579,212.71688810453634 76.10645526601002,213.0311482403922 74.312570781447,214.11359677214932 71.89354473387357,216.59273529025086 68.52321630797815,222.5984329385974 67.70781426958274,225.74089120990539 67.35447338607628,230.69891109473247 68.98527746309992,237.75169823919714 70.18120045296382,240.16077266362845 71.89354473387357,241.9413778562448 73.46998867485672,242.74439170351252 76.48697621747851,242.8142188717029 77.98187995469198,242.2556009756372 80.10192525479943,240.44008412705443 82.11325028317515,238.0310124148382 84.61381653451826,233.59686275097192 85.97281993203796,226.75345261808252 85.04869762179442,220.01460409580613 82.41223103064112,214.56752539587615 79.31370328424964,212.78672372469737 76.92185730463825,212.82164152736368 75.12797281995881,213.5199965492793 72.05662514152937,216.4181488815375 70.61608154012356,218.65284563346358" stroke="#4DD2FF" stroke-linecap="round" stroke-linejoin="round" stroke-width="0.5"><title>2024-11-17 16.3km</title><desc>1731797391000</desc></polyline></svg>