<?xml version="1.0" encoding="utf-8" ?>
<svg baseProfile="full" height="300mm" version="1.1" viewBox="0,0,200,300" width="200mm" xmlns="http://www.w3.org/2000/svg" xmlns:ev="http://www.w3.org/2001/xml-events" xmlns:xlink="http://www.w3.org/1999/xlink"><defs /><rect fill="#222222" height="300" width="200" x="0" y="0" /><text fill="#FFFFFF" style="font-size:12px; font-family:Arial; font-weight:bold;" x="10" y="20">Over 5km Runs</text><text fill="#FFFFFF" style="font-size:4px; font-family:Arial" x="10" y="280">ATHLETE</text><text fill="#FFFFFF" style="font-size:9px; font-family:Arial" x="10" y="290">sagasw</text><text fill="#FFFFFF" style="font-size:4px; font-family:Arial" x="65" y="280">SPECIAL TRACKS</text><rect fill="yellow" height="2.6" width="2.6" x="65" y="283" /><text fill="#FFFFFF" style="font-size:3px; font-family:Arial" x="70" y="285.5">Over 20.0 km</text><rect fill="red" height="2.6" width="2.6" x="65" y="287" /><text fill="#FFFFFF" style="font-size:3px; font-family:Arial" x="70" y="289.5">Over 40.0 km</text><text fill="#FFFFFF" style="font-size:4px; font-family:Arial" x="120" y="280">STATISTICS</text><text fill="#FFFFFF" style="font-size:3px; font-family:Arial" x="120" y="285">Number: 16</text><text fill="#FFFFFF" style="font-size:3px; font-family:Arial" x="120" y="290">Weekly: 2.3</text><text fill="#FFFFFF" style="font-size:3px; font-family:Arial" x="141" y="285">Total: 203.2 km</text><text fill="#FFFFFF" style="font-size:3px; font-family:Arial" x="141" y="290">Avg: 12.7 km</text><text fill="#FFFFFF" style="font-size:3px; font-family:Arial" x="167" y="285">Min: 7.7 km</text><text fill="#FFFFFF" style="font-size:3px; font-family:Arial" x="167" y="290">Max: 16.3 km</text><polyline fill="none" points="12.25,59.416415521423914 12.99662023759447,60.16235188949213 17.758398197416682,60.78041066863807 19.367779598454945,60.26891392792459 19.683019254356623,58.49997438261926 24.36183941003401,56.77363996653003 24.760036870080512,60.7590983389091 26.68465792707866,62.67719600193959 27.481052847171668,62.719820118596544 28.79178615321871,62.059144962971914 30.815956575155724,61.67552580831398 32.159873002790846,61.82471115060616 34.33336747228168,62.591947732740664 35.95934043417219,61.611589188018115 37.58531339612091,61.07878296962008 39.82517410896253,60.95090919834911 41.78297828754876,61.27059342418215 43.0937115935958,59.906602691466105 44.07261368294712,60.05578977613186 45.30038918479113,60.7590983389091 47.390925849962514,60.5246625142463 49.713744367065374,58.52128703026392 51.2733510856051,56.07031289621955 52.33521097910125,53.363538849545876 52.66704219579697,50.82722635137907 52.268844735692255,47.54487653316755 51.2733510856051,44.6461188349931 49.97920934041031,42.94094132739701 48.20391233096598,42.280179881388904 46.32906595652457,42.53595884765673 43.309401884442195,45.56264381160145 41.86593609175179,48.99423457487137 41.41796394920675,51.53057777110371 41.650245800905395,55.36698255974625 42.38027447758941,57.732717071441584 43.342585006088484,59.416415521423914 44.470811142993625,60.41810065571917 45.64881196222268,60.78041066863807 47.22501024167286,60.69516133180878 48.08777140517486,60.1836643032002 50.12853338790592,58.137658914522035 51.372900450543966,56.07031289621955 52.43476034409832,53.15040498021699 52.68363375670742,49.6336528306565 52.102929127402604,46.670992187195225 51.12402703810949,44.241140915532014 50.09535026625963,43.0048858304217 48.7514338385663,42.38675450316805 47.490475215076,42.280179881388904 46.39543219981715,42.62121840703185 43.740782466193195,45.26424093982496 42.51300696429098,47.31042025239731 41.86593609175179,49.0794904983195 41.368189266650006,53.19303177809343 41.832752970047295,56.09162588576146 42.579373207641765,58.137658914522035 43.35917656699894,59.4377280400804 44.60354362963699,60.5246625142463 47.12546087661758,60.7590983389091 48.485968865221366,59.821352862840286 50.178308070404455,58.095033508347115 51.35630888980813,56.15556483634282 52.33521097910125,53.470105671702186 52.75,50.1025578356639 52.25225317495642,47.41699133411748 51.339717328955885,44.73137720634986 50.27785743545974,43.19671917759115 48.95053256856045,42.45069924026029 47.40751741081476,42.34412466343201 46.16315034823492,42.74910765617096 43.39235968858702,45.77578835996974 41.70002048340393,49.740222277483554 41.384780827502254,52.55362855047861 41.63365423999494,55.324356373763294 42.64573945105076,58.308160419241176 43.47531749284826,59.58691558660939 44.55376894713845,60.4607254081202 46.09678410488414,60.82303531904472 47.208418680762406,60.73778600622609 50.178308070404455,58.11634621290432 52.00337976234732,54.684962144398014 52.567492830741685,52.511001572638634 52.716816878295504,50.1025578356639 51.804281032294966,45.81841723364778 50.8087873821496,43.836161912971875 50.012392462056596,42.98357099905843 48.701659156009555,42.38675450316805 47.0922777550295,42.38675450316805 46.19633346988121,42.706477918458404 45.01833265053574,43.66564411424042 43.57486685778713,45.4134424491931 43.24303564109141,46.43653455346066 42.29731667350279,47.71538996389427 41.384780827502254,51.99947690285626 41.61706267925911,55.30304327630438 42.14799262600718,57.0933330096741 43.043936911039054,59.03278967300139 44.02283900039038,60.11972705318476 44.802642359631136,60.56728723658307 46.428615321579855,60.844347639751504 48.18732077017194,60.14103947284457 50.11194182711188,58.18028430864797 51.920421958202496,54.8554675362102 52.51771814824315,52.638882470157114 52.73340843914775,50.18781313514046 52.20247849239968,47.11859211631236 51.30653420725139,44.6461188349931 50.49354772630613,43.409867056048824 49.33213846787112,42.59990352169552 47.54024989751633,42.280179881388904 46.11337566567818,42.74910765617096 45.134473576326855,43.6016998901614 43.42554281029152,45.71184502696269 42.413457599352114,47.60881909217278 41.89911921345629,48.86635059976834 41.368189266650006,52.340493541327305 41.99866857845336,56.70970127693727 42.844838181044906,58.64916285286017 43.906698074541055,60.01316490977479 44.76945923798485,60.56728723658307 46.445206882373895,60.82303531904472 47.291376485081855,60.67384899011813 48.701659156009555,59.69347802986158 50.36081523966277,57.81796807577484 51.70473166729789,55.45223489571072 52.60067595244618,52.340493541327305 52.716816878295504,50.23044076687074 52.2854362965445,47.41699133411748 50.69264645630028,43.64432937584934 49.96261777955806,42.91962648702611 48.369827939372044,42.322809739096556 46.94295370747568,42.429384330884204 45.83131913142279,42.96225616472657 43.35917656699894,45.86104609532049" stroke="#4DD2FF" stroke-linecap="round" stroke-linejoin="round" stroke-width="0.5"><title>2024-12-27 16.0km</title><desc>1735261057000</desc></polyline><polyline fill="none" points="57.25,59.4085882849613 57.91393442614935,60.112188059138134 62.72745901637245,60.794463507816545 64.35409836057806,60.28275720930833 64.58647540980019,58.66234252990398 65.44959016388748,58.02270038591814 67.20901639340445,57.233804689429235 69.3502049180679,56.78605125065951 69.76516393438214,60.81578456610441 71.79016393440543,62.713346736476524 75.60778688522987,61.66862443671562 77.58299180329777,61.9457963611203 79.07684426225023,62.58542194389156 82.21393442625413,61.13560008005879 84.10614754102426,60.96503188998031 86.7784836065839,61.3274890644534 87.57520491810283,60.154830364655936 88.37192622956354,59.728406769179855 90.21434426232008,60.70917924474634 92.32233606558293,60.53861057460017 93.86598360654898,59.4725520357606 95.21045081975171,58.044021834182786 96.3391393442871,55.9971491151955 97.33504098368576,53.43851932960388 97.71680327865761,50.26149387669284 97.11926229513483,46.95646381142433 96.13995901646558,44.39768133897451 95.17725409840932,43.09695034685137 93.23524590168381,42.329300586425234 91.24344262294471,42.649155126011465 88.78688524593599,45.20796713118034 86.92786885245005,48.91816777297936 86.36352459015325,52.37241083275876 86.96106557379244,56.444904885371216 88.4881147541455,59.66444312635576 90.23094262299128,60.70917924474634 92.38872950820951,60.53861057460017 93.8161885246518,59.53651575963886 95.2436475410941,58.02270038591814 96.28934426233172,56.25300971728575 97.36823770496994,53.37455303130264 97.73340163938701,50.090913444393664 96.85368852462852,45.9756023051159 95.90758196730167,43.907243096182356 94.81209016399225,42.81974393763812 93.33483606559457,42.3079769264732 92.32233606558293,42.3079769264732 91.04426229512319,42.862391110524186 88.58770491799805,45.46384595465497 86.99426229513483,48.70494031190174 86.34692622959847,52.32976633681392 86.8116803279263,55.933183897155686 87.57520491810283,58.12930759746814 88.50471311475849,59.6857643435942 89.66659836069448,60.47464727376064 91.24344262294471,62.67070515091473 90.7288934426615,62.222967778507154 90.7288934426615,61.30616807822662 91.26004098361591,60.77314244657464 93.03606557374587,60.1761515129474 95.09426229516976,58.12930759746814 97.01967213116586,54.61123001156375 97.75,50.28281641725334 97.26864754105918,47.425569243510836 96.72090163931716,45.57046200356854 95.44282786885742,43.37415624881396 93.86598360654898,42.39327154835337 92.57131147541804,42.3079769264732 91.12725409836276,42.77709675270307 90.06495901639573,43.651361643569544 88.43831967219012,45.69840116321575 88.28893442632398,46.444710774332634 87.80758196726674,46.7645566251158 87.3428278688807,47.78805880981963 86.72868852462852,49.77107461614651 86.34692622959847,52.41505531666917 86.92786885245005,56.38093985633168 88.4549180328031,59.57915822722134 89.74959016399225,60.53861057460017 90.81188524590107,60.75182138227683 92.67090163938701,60.410683945941855 93.50081967219012,59.7923703850538 95.31004098360427,57.916093099396676 96.28934426233172,56.27433141465008 97.61721311480505,52.073899109323975 97.75,50.240171333178296 97.43463114753831,48.001287561288336 96.75409836065955,45.65575478869141 95.8079918033327,43.75797896801669 94.71249999996508,42.77709675270307 93.68340163934045,42.37194789740897 92.42192622949369,42.3079769264732 91.17704918043455,42.73444955580635 88.35532786883414,45.762370702504995 86.86147540988168,48.982135952755925 86.36352459015325,52.4576997885888 86.54610655741999,54.63255193991063 87.16024590173038,57.148518422138295 88.23913934425218,59.32330324179202 89.46741803287296,60.410683945941855 90.36372950818622,60.75182138227683 91.39282786886906,60.794463507816545 92.80368852458196,60.32539946684847 95.40963114757324,57.78816425657715 97.33504098368576,53.6090959928697 97.66700819676043,49.57917099505721 96.88688524597092,46.03957172730588 96.23954918037634,44.46165142749669 95.4926229508128,43.37415624881396 94.31413934426382,42.56386064819526 92.52151639346266,42.286653263508924 91.12725409836276,42.71312595294148 88.40512295084773,45.719724345981376 86.86147540988168,49.088749525748426 86.34692622959847,52.37241083275876 86.5129098360776,54.48329837823985 87.64159836061299,58.29987897985848 88.52131147542968,59.64312190603232 89.78278688527644,60.53861057460017 91.39282786886906,60.730500315039535 92.57131147541804,60.410683945941855 95.17725409840932,58.065343279522494 97.03627049189527,54.52594226801011 97.68360655743163,51.412906771482085 97.68360655743163,49.62181626519305 97.13586065574782,46.743233589368174 96.45532786886906,44.93076458477299 95.57561475405237,43.438126769528026 94.43032786890399,42.60650789304054 92.62110655743163,42.3079769264732 91.19364754098933,42.71312595294148 89.26823770493502,44.48297478436143 88.30553278687876,45.9116328558157" stroke="#4DD2FF" stroke-linecap="round" stroke-linejoin="round" stroke-width="0.5"><title>2024-12-26 16.2km</title><desc>1735171955000</desc></polyline><polyline fill="none" points="102.25,60.11689544879482 107.55955334979808,60.82689357822528 109.01674937951611,60.37507696826651 109.18424317613244,58.71840464207344 109.5862282877788,58.395674177852925 111.83064516127342,57.36293211435259 113.99131513637258,56.76049602252897 114.22580645151902,56.82504286018957 114.49379652598873,60.50416756446066 116.47022332495544,62.74172058222757 117.40818858559942,62.763235356120276 118.66439205949428,61.9887015876011 120.85856079403311,61.622948166390415 123.95719602971803,62.6126318750903 125.86662531003822,61.49385851468833 127.62531017360743,61.02052885950252 131.71215880889213,61.38628372177482 132.98511166247772,59.94477419364557 135.79900744411862,60.891438699225546 137.33995037217392,60.59022790142626 139.14888337464072,59.191741424103384 141.41004962776788,56.0504790097184 142.36476426798617,53.360990727785975 142.71650124067673,50.11202578556549 142.14702233247226,46.75540670880582 140.72332506201928,43.69995860145718 139.6681141438894,42.68863486078044 137.87593052105512,42.23676464386517 135.76550868479535,42.83925796956464 133.47084367240313,45.421345327733434 132.0638957816409,48.04642276770028 131.27667493798072,52.09153582293948 131.51116625301074,55.40500613680342 133.2866004962125,59.53598543605767 134.07382133998908,60.245986263034865 135.24627791560488,60.76234842995473 137.4906947890413,60.52568265328591 139.16563275433145,59.14871086808853 140.55583126551937,57.44899421936134 142.0632754342514,54.39375982363708 142.71650124067673,50.0259595503594 142.19727047142806,46.75540670880582 141.12531017366564,44.36699825813412 140.13709677412407,42.98988092997752 138.67990074434783,42.34435291195405 137.55769230768783,42.25828230357729 136.2177419355139,42.55952922087454 134.76054590562126,43.76451095350785 133.4540942928288,45.35679367528064 132.11414392053848,47.960355369592435 131.29342431761324,51.48907895955199 131.46091811405495,54.65195100751589 131.9633995036129,56.868074070094735 133.0186104218592,59.06264971976634 133.90632754337275,60.11689544879482 135.06203473941423,60.67628818991943 136.70347394543933,60.76234842995473 138.931141439185,59.38537877619092 140.5223325060797,57.44899421936134 141.6947890818701,55.38349032741098 142.51550868485356,52.47882826719433 142.73325062036747,49.982926414566464 142.13027295283973,46.690855619701324 141.02481389575405,44.15182449333952 140.12034739449155,42.96836337330751 138.6129032257595,42.34435291195405 137.03846153843915,42.301317613746505 135.8492555830744,42.77470522685326 134.3585607940331,44.23789403559931 132.08064516121522,48.04642276770028 131.44416873448063,50.45629024184018 131.27667493798072,52.69399031226931 131.9633995036129,56.84655846665555 133.11910669971257,59.23477196798194 133.75558312656358,59.94477419364557 134.71029776666546,60.568712821695954 136.51923076919047,60.80537853180431 137.62468982621795,60.41810717906628 138.69665012403857,59.60053110199806 140.5223325060797,57.42747869764571 141.77853598009096,55.16833206723095 142.54900744411862,52.3927633643616 142.75,50.04747611367202 142.1637717121048,46.71237265241507 140.97456575679826,44.04423749737907 140.1035980148008,42.92532825084345 138.41191066999454,42.23676464386517 136.97146401985083,42.25828230357729 135.86600496270694,42.75318763985706 134.39205955329817,44.15182449333952 132.0136476426851,48.110973284434294 131.25992555828998,52.71550650014251 131.76240694784792,56.17957325725001 133.33684863516828,59.62204631793429 134.64330024813535,60.52568265328591 135.86600496270694,60.84840862159035 137.2227047146298,60.61174297805701 138.21091811411316,60.030834845412755 140.42183622828452,57.59960278663493 141.44354838703293,55.899868916429114 142.09677419351647,54.307695998766576 142.61600496270694,51.70424239757995 142.71650124067673,50.090509231275064 142.36476426798617,47.57305147862644 141.52729528525379,45.07706953307206 140.67307692300528,43.635406222121674 140.00310173694743,42.79622281076445 138.57940446643624,42.279799960233504 137.28970223315991,42.23676464386517 135.98325062036747,42.66711726167705 133.80583126551937,44.86189676776121 133.25310173694743,45.87320613155316" stroke="#4DD2FF" stroke-linecap="round" stroke-linejoin="round" stroke-width="0.5"><title>2024-12-22 13.5km</title><desc>1734819430000</desc></polyline><polyline fill="none" points="147.25,59.40424079260265 147.68262119963765,60.00270613451721 152.60784716514172,60.772158109306474 154.30505340994569,60.280564241693355 154.58792111749062,58.39966866771283 159.130443713977,56.77524010968045 159.3966721445904,56.96760755624564 159.64626129821409,60.066827281276346 160.61133935902035,61.88358185827383 161.64297452755272,62.67439765082963 162.30854560394073,62.73851766982989 163.85599835659377,61.99044909779332 165.73623664746992,61.6271001764253 169.23048479866702,62.48203743157501 171.24383730482077,61.37061806152633 173.0408792112139,60.900399726160686 174.77136400988093,60.92177331840503 176.61832374695223,61.37061806152633 178.01602300739614,59.78896878310479 180.97781429742463,60.772158109306474 182.45870994252618,60.40880627356819 183.9895234182477,59.27599791258399 186.5686113393167,55.556907289879746 187.38393590797205,53.22708573733689 187.75,50.12772644263168 187.00123253901256,46.42978743057756 185.75328677071957,43.71505812610849 184.77156943303999,42.73175837486633 183.27403451112332,42.28285854558635 181.4104354971205,42.53937289623718 180.31224322103662,43.24478512634232 178.76479046838358,45.0189892815979 177.53348397702212,47.156557120004436 176.63496302382555,49.63609812190407 176.3354560394655,52.2224727559078 176.90119145438075,56.604246619244805 178.66495480691083,59.74622127674229 179.67995069839526,60.472927248934866 181.1442070666235,60.75078449596185 182.70829909620807,60.280564241693355 183.7232949876343,59.51110977663484 186.25246507802512,56.24088481295621 187.0178718159441,54.466811746300664 187.60024650784908,51.73085121571785 187.6834428923321,50.06360109978414 187.2841002464993,47.4771897008759 185.7033689400414,43.71505812610849 184.68837304849876,42.75313452408591 183.54026294167852,42.411115775073995 182.04272801970365,42.34698717383435 180.62838948227,43.009648080405896 178.83134757605148,44.976237617927836 177.6000410846318,47.00692835057271 176.6016844699625,49.67884847384994 176.3354560394655,51.965974759616074 176.45193097781157,54.466811746300664 177.08422350039473,57.11722651295713 177.81635168450885,58.57066013691656 178.48192276095506,59.61797868540452 179.6466721445904,60.472927248934866 181.01109285122948,60.772158109306474 182.44207066553645,60.430179935050546 185.0377978635952,58.03631115658209 186.91803615452955,54.680556587161846 187.51705012324965,52.350721591632464 187.66680361545878,49.91397519441671 187.2841002464993,47.51994066053885 186.5020542316488,45.23274741927162 185.68672966316808,43.71505812610849 184.5718981101527,42.646253747778246 182.97452752670506,42.28285854558635 181.2939605587162,42.58212524582632 178.76479046838358,45.0189892815979 176.8679129005759,48.90934029784694 176.30217748560244,52.60721893818118 177.06758422357962,57.13860063762695 178.1824157764786,59.21187643198937 179.28060805262066,60.280564241693355 181.01109285122948,60.772158109306474 182.17584223503945,60.53704819720588 183.4737058339524,59.74622127674229 185.1043549712631,57.99356315692421 186.9513147082762,54.55230971869605 187.51705012324965,52.30797199172957 187.65016433846904,49.95672546813148 187.31737880030414,47.755070723374956 186.51869350858033,45.27549901072052 185.73664749390446,43.71505812610849 184.7216516023036,42.71038222259085 183.37387017253786,42.30423475804855 181.8763352506212,42.411115775073995 180.67830731300637,42.96689585111744 179.71322925225832,43.886066128645325 177.48356614628574,47.17793264641659 176.63496302382555,49.593347757923766 176.31881676259218,52.051474139792845 176.95110928511713,56.6897433885315 178.68159408384236,59.83171627743286 179.67995069839526,60.49430090136593 181.2939605587162,60.75078449596185 182.1425636811182,60.579795481069596 183.50698438781546,59.682099994577584 185.02115858672187,58.100433133440674 186.2358258011518,56.24088481295621 187.50041084637633,52.39347117947182 187.6834428923321,49.95672546813148 187.36729663104052,48.05432664066029 186.98459326208103,46.42978743057756 185.7033689400414,43.71505812610849 184.68837304849876,42.71038222259085 183.27403451112332,42.30423475804855 181.95953163522063,42.368363377288915 180.71158586686943,42.924143609721796 178.34880854561925,45.74576572229853 177.50020542310085,47.17793264641659 176.63496302382555,49.72159881370317 176.31881676259218,51.901850192807615 176.48520953167463,54.55230971869605 177.61668036156334,58.2500509742822 178.56511914543808,59.70347375834535 179.67995069839526,60.49430090136593 181.01109285122948,60.772158109306474 182.4753492193413,60.45155359354976 185.05443714052672,58.03631115658209 186.8847576006665,54.74467998075124 187.4172144617769,52.88509057475312 187.6834428923321,49.999475729768164 187.10106820048532,46.92142613045871 185.67009038617834,43.65093007555697 184.6550944946357,42.68900606733223 183.30731306492817,42.26148233017011 181.97617091209395,42.34698717383435 180.6949465899961,42.924143609721796 178.28225143800955,45.89539573424554" stroke="#4DD2FF" stroke-linecap="round" stroke-linejoin="round" stroke-width="0.5"><title>2024-12-20 16.0km</title><desc>1734644952000</desc></polyline><polyline fill="none" points="12.25,124.9232841237972 17.243608247372322,125.84576305748487 19.047319587669335,125.43815677506791 19.448144329886418,123.57173514108581 21.552474226860795,122.43470846285345 24.124432989687193,121.70529065707524 24.658865979406983,125.75995129915827 25.92814432986779,127.34746101063502 26.562783505185507,127.71215685270727 27.297628865984734,127.73360952208168 28.600309278350323,127.00421706827183 30.704639175266493,126.66097235315829 34.02814432984451,127.56198808214685 36.86731958767632,126.16755672122235 38.17000000004191,125.99593351845397 41.79412371129729,126.38208545307862 43.24711340205977,124.77311260632996 45.38484536082251,125.7814042432583 47.35556701023597,125.67413949247566 49.81061855668668,123.42156229224929 51.91494845360285,119.94609217873949 52.71659793809522,115.1832822226861 51.8481443299097,110.97815514882677 50.87948453600984,108.89700343002914 50.027731958718505,107.95296647859504 48.6248453608132,107.33075710931735 47.32216494844761,107.30930156860268 45.41824742266908,108.10315456647368 43.7147422680282,109.99122076260392 42.47886597941397,112.20108671937487 41.2596907215775,116.42763431894127 41.510206185572315,120.37516685017908 43.21371134015499,124.30114401683386 44.21577319584321,125.30943877523532 45.100927835097536,125.69559244866832 47.32216494844761,125.60978060575144 49.09247422678163,124.19387822462886 50.395154639089014,122.62778906253516 52.0986597937881,119.28102405136451 52.75,114.99019219398906 52.38257731962949,112.69454755747574 51.480721649480984,110.03413108616951 49.927525773178786,107.8456891823007 48.42443298973376,107.30930156860268 46.67082474229392,107.39512371360615 45.36814432987012,108.10315456647368 43.8483505154727,109.88394490082283 42.12814432987943,112.99491424202279 41.49350515456172,115.48364400352875 41.30979381443467,117.92942504618259 41.94443298969418,121.72674417179951 43.18030927836662,124.25823770902934 44.21577319584321,125.2665327511495 45.53515463916119,125.7814042432583 47.28876288665924,125.6526865332853 49.7772164947819,123.42156229224929 51.8481443299097,119.94609217873949 52.532886597909965,117.52179759736464 52.73329896910582,114.92582879676775 51.93164948449703,111.0210651945381 50.144639175210614,107.9958773759572 48.608144329919014,107.33075710931735 47.08835051540518,107.26639047790377 45.58525773190195,107.91005556908203 44.58319587627193,108.89700343002914 42.161546391726006,112.86618573537271 41.2763917525881,117.13562321939389 41.91103092790581,121.51220888909302 42.76278350513894,123.57173514108581 43.93185567006003,125.07345549340243 45.334742268081754,125.69559244866832 46.97144329897128,125.69559244866832 49.19268041237956,124.12951871300174 51.714536082406994,120.37516685017908 52.51618556701578,117.52179759736464 52.71659793809522,115.1832822226861 52.3491752576665,112.60872839597869 51.480721649480984,109.96976559628092 50.16134020622121,107.9958773759572 48.574742268014234,107.33075710931735 47.10505154635757,107.2878460247739 45.6520618556533,107.88860010985809 44.83371134015033,108.76827146271535" stroke="#4DD2FF" stroke-linecap="round" stroke-linejoin="round" stroke-width="0.5"><title>2024-12-15 10.9km</title><desc>1734216782000</desc></polyline><polyline fill="none" points="57.25,124.32173728806083 58.19147634587716,125.21284509725228 61.131525285483804,125.42501284701575 62.78323817293858,125.84934745094506 64.46798531810055,125.4037960854912 64.74877650896087,123.5367093783425 66.81341761822114,122.51828870210738 69.34053833602229,121.79690322761599 69.60481239802903,121.90298954330501 69.63784665573621,124.2793034514325 70.1003262642771,126.04029763309518 71.75203915167367,127.6315397467697 72.64396411093185,127.65275619488966 74.22960848291405,126.91017873608507 76.11256117455196,126.63436331991397 79.28384991845815,127.54667392460397 81.41455954319099,126.3797640263947 83.49571778142126,125.93421422838583 86.78262642736081,126.29489749975619 88.08747960842447,124.80972555019252 88.91333605221007,124.89459291283856 90.41639477974968,125.7008304753981 92.41496737347916,125.46744636120275 93.75285481236642,124.55512317565444 95.28894779772963,122.92141437565442 96.26345840131398,121.2876878734678 97.32055464928271,118.46575494519493 97.7004486133228,115.64376919751521 97.3535889070481,112.80051209173689 96.23042414354859,109.63891697276267 94.89253670471953,107.98382731588208 93.40599510603352,107.410907431753 91.8699021206703,107.51700387086021 90.59808319743024,108.15358093750547 88.89681892335648,110.12695276158047 87.03038336051395,113.73412481548439 86.38621533446712,117.46851789634093 86.8486949429498,121.0118621718575 88.51692495919997,124.63999068159319 90.54853181075305,125.67961375269806 92.58013866230613,125.4037960854912 95.33849918429041,122.81532877658901 96.32952691678656,121.22403583323467 97.45269168022787,117.95652834010252 97.7169657422346,115.70742359365977 97.38662316475529,112.60954514046898 96.01570146816084,109.15087960407254 94.95860522019211,107.98382731588208 93.17475530179217,107.34724953246769 91.8533849917585,107.43212672552909 91.06056280591292,107.81407350310474 89.40884991839994,109.38428897748236 87.31117455137428,112.92782325812732 86.53486949420767,116.08934940618929 86.60093800979666,119.54785577022994 87.14600326266373,122.15759639622411 88.92985318106366,124.97946022768156 88.92985318106366,125.48866311374877 90.38336052198429,126.29489749975619 91.27528548118426,127.69518908200553 90.763254486199,127.10112757477327 90.89539151714416,126.2524642185017 91.44045676995302,125.7008304753981 92.2828303425922,125.57353009421786 93.42251223488711,124.83094239531783 95.28894779772963,122.87898014496022 96.32952691678656,121.22403583323467 97.45269168022787,117.93531052758044 97.7169657422346,114.68895003010402 96.74245513865026,110.78473762932117 95.73491027730051,108.72649799915962 94.66129690047819,107.77163502004987 93.17475530179217,107.32603022674448 91.47349102771841,107.66553876016405 90.15212071774295,108.64162153474172 88.84726753667928,110.19060948709375 86.98083197389496,113.90387196221855 86.40273246326251,117.5746072576294 87.2120717781363,122.24246525175113 88.53344208811177,124.61877380963415 89.77222675370285,125.50987986334076 91.06056280591292,125.78569733646873 92.46451876015635,125.48866311374877 95.32198205549503,122.85776302513841 96.99021207168698,119.52663818169094 97.61786296899663,117.27755685790908 97.75,115.04966020409483 97.15538336051395,112.0790801178955 96.04873572592624,109.32063191149791 94.46309135400224,107.64431949918799 93.29037520388374,107.30481091799447 91.63866231648717,107.55944242559781 90.20167210447835,108.62040241123759 88.68209624796873,110.55133042413217" stroke="#4DD2FF" stroke-linecap="round" stroke-linejoin="round" stroke-width="0.5"><title>2024-12-10 11.3km</title><desc>1733785667000</desc></polyline><polyline fill="none" points="102.25,125.210915221498 104.66610738256713,123.83370713476324 105.58724832220469,123.62033563673322 106.38758389261784,124.33803845341026 107.3087248322554,124.49321694945684 110.73657718126196,124.9975458552799 112.2164429530385,124.60960070688452 112.57885906042065,122.90262908334262 116.82214765105164,121.1956363216741 117.01845637580846,121.29262511317211 117.22986577183474,124.68718982391874 119.04194630868733,126.70449153792288 119.6912751677446,126.78207947582996 121.08053691277746,126.06438938384235 122.75671140936902,125.75403575440578 125.92785234894836,126.58810954914952 128.0570469798986,125.44368142617168 129.50671140936902,125.15272360893141 132.66275167785352,125.52127007373201 134.05201342276996,124.08587302477099 135.74328859057277,124.84236792696174 137.70637583895586,124.82297067366017 139.2466442952864,123.71732272225199 141.55704697984038,120.63309998516343 142.37248322140658,118.30533901583112 142.689597315446,116.13272664386022 142.23657718120376,112.40816861603525 141.10402684565634,109.80867785676674 140.19798657717183,108.74170850260998 138.56711409398122,108.23732011446555 137.1627516777953,108.33431802476116 136.4681208053371,108.68350993665808 134.14261744963005,111.36061853614228 132.6929530201014,114.73602917788958 132.4060402684845,116.94746029647649 132.76845637575025,120.61370213954069 134.09731543628732,123.58154078347434 134.6560402684263,124.26044913985243 135.80369127518497,124.86176517754211 136.8758389261784,124.9975458552799 137.85738255031174,124.76477889728267 139.5939597315155,123.32937397090427 141.42114093957935,120.84647610721004 142.53859060403192,117.66519785767014 142.73489932884695,115.20159657245676 142.2214765100507,112.36937060690252 140.89261744968826,109.51768703387643 139.82046979863662,108.54771318717394 138.14429530204507,108.21792052417004 137.23825503361877,108.27611928673286 136.4983221476432,108.70290946139721 134.6862416107324,110.58465038082795 133.07046979869483,113.51390728511615 132.3758389261784,117.14144378968922 132.7533557047136,120.3615298976365 134.14261744963005,123.63973305930267 135.51677852339344,124.72598436604312 136.63422818796244,124.9975458552799 137.88758389261784,124.78417615877697 139.95637583889766,122.9414241277118 141.4060402684263,120.96286294366291 141.99496644292958,119.6826023379399 142.52348993287887,117.68459611825529 142.75,115.24039378437737 142.2214765100507,112.31117357269977 140.63590604026103,109.12969831435475 139.83557046973146,108.52831364057784 138.28020134218968,108.21792052417004 136.72483221482253,108.54771318717394 135.33557046978967,109.84747658672859 134.14261744963005,111.47701338266779 134.58053691271925,112.1559813614731" stroke="#4DD2FF" stroke-linecap="round" stroke-linejoin="round" stroke-width="0.5"><title>2024-12-08 8.9km</title><desc>1733614342000</desc></polyline><polyline fill="none" points="147.25,124.48354925855529 147.74565732333576,124.13439624213788 148.59307145676576,124.0933193617966 149.42449664429296,124.89431644380966 152.28651796287159,125.09969960289891 153.99733517569257,125.5720797721442 155.5802408211748,125.03808468551142 155.8200750098913,123.33339498966234 157.8826490327483,122.34754125964537 160.12110146071063,121.7108405198087 160.50483616266865,121.89568940787285 160.72868140542414,124.91485477275273 161.54411764704855,126.47575931419851 162.6953217528644,127.31781930635043 166.74052506906446,126.29091622671694 168.03562968812184,126.49629742055549 170.0022700355039,127.31781930635043 172.52852348989109,125.90069116205268 174.1753849190427,125.61315623634437 177.1013620213489,126.08553474371729 178.50838926172582,124.54516441008309 181.22651006706292,125.53100329633162 182.82540465844795,125.12023790289823 184.52023292536614,123.68254992224684 186.45489538100082,121.05359813311952 187.5421437031473,117.87003843356797 187.75,115.15882316240459 187.41423213586677,113.02267868582567 186.83863008284243,111.13298635384126 185.52753651794046,108.64759287914785 183.94463087251643,107.8054251580179 182.36172522697598,107.76434368149785 181.16255428345175,108.1751579267875 179.67558231338626,109.57191771025828 177.38916304783197,113.72103705097106 176.76559415709926,117.97273499166477 177.16531780496007,120.86874817866192 178.26855507306755,123.55931886493636 179.14794709830312,124.70947135344613 180.4110738254385,125.3872355401545 181.86606790364021,125.44885031017475 183.3530398737057,124.77108640960068 185.0478681405075,123.0869321814098 186.34297275956487,121.13575359339302 187.49417686538072,118.03435289178742 187.71802210819442,115.24098194095131 187.41423213586677,112.8583585848537 186.59879589412594,110.4551559676911 185.4475917884265,108.6065116396494 184.66413343860768,108.05191377468873 182.9373272799421,107.68218069363502 181.14656533749076,108.2573206370871 179.14794709830312,110.27029258871335 177.48509672324872,113.47455800959142 176.76559415709926,116.69929256341129 177.0853730753879,120.41689174863859 177.9167982629151,122.90208480216097 178.7802013422479,124.33978047056007 179.94739439402474,125.2023910741409 180.93870904063806,125.46938856103225 182.1218910382595,125.46938856103225 183.3690288195503,124.83270143969276 186.1031385708484,121.5259913977643 187.5101658112835,117.80842046397447 187.71802210819442,115.46691834343073 187.49417686538072,113.35131833278865 187.14242005522829,111.72865288201137 185.99121594947064,109.32543166104006 185.0158902487019,108.23677996383049 183.976608764322,107.78488442125672 182.47364784841193,107.72326219335082 181.22651006706292,108.1751579267875 179.96338333986932,109.30489113817748 178.63630082900636,111.15352661945508 177.59701934462646,113.16645862245059 176.97345045401016,115.32314067319385 176.78158310306026,117.80842046397447 176.98943939985475,119.94449489418184 178.42844453215366,123.86739631310047 179.09998026053654,124.66839463496581 180.2511843664106,125.34615901239158 181.7221673904569,125.51046505414706 182.71348203712841,125.24346764232905 183.81671930517768,124.50408764529857 185.4316028424655,122.6145439690008 187.22236478485866,119.10239236149937 187.70203316223342,115.11774375585082 187.27033162262524,112.5091777559428 186.63077378604794,110.66055944751133 185.91127121989848,109.26381008370663 184.98391235689633,108.23677996383049 183.49694038694724,107.72326219335082 182.00996841688175,107.8054251580179 181.13057639164617,108.23677996383049 179.4037702328642,110.02380771913158 177.5490525069181,113.35131833278865 176.81356099492405,116.90468725502433 177.40515199361835,121.64922417182242 179.1799249901669,124.7505480604159 180.37909593369113,125.3872355401545 181.64222266082652,125.46938856103225 182.71348203712841,125.2023910741409 183.9925977101666,124.23708839251776 185.73539281485137,122.14215422766574 186.99851954204496,119.71856542331807 187.5101658112835,117.84949911323201 187.75,115.09720404815744 187.3342874062364,112.48863768114825 185.63945913926,108.83245831372915 183.96061981841922,107.82596589199966 182.56958152388688,107.68218069363502 181.33843268849887,108.09299517024192 179.48371496255277,109.90056512822048 178.90811290952843,110.10596938860544" stroke="#4DD2FF" stroke-linecap="round" stroke-linejoin="round" stroke-width="0.5"><title>2024-12-07 13.6km</title><desc>1733525549000</desc></polyline><polyline fill="none" points="12.25,192.53476651158417 12.560070671257563,193.85220921463042 13.871908127213828,195.75176373032446 15.112190812593326,197.00791164588009 16.042402826831676,197.1610999202967 18.594522968051024,196.08877973606286 21.05123674904462,195.6598501837143 26.1316254416015,196.82408557432063 28.898409893969074,195.35347141466627 31.450530035304837,194.58752260604524 36.93639575969428,195.16964394637034 38.74911660782527,193.02497868116188 42.970848056604154,194.40369449098944 44.33038869255688,194.28114232810913 45.999999999883585,193.3926370840636 49.029151943395846,190.26752087015484 51.104240282671526,186.80532994534587 52.05830388690811,183.89459586009616 52.70229681977071,179.084139493134 51.74823321553413,174.24293596559437 49.76855123671703,169.7693230763398 48.26590106007643,168.42109294499096 45.37985865713563,167.83890007968876 42.780035335570574,168.69686796941096 39.607773851486854,172.2512703476823 37.36572438152507,176.5409890372248 36.43551236751955,182.24005598061194 37.24646643106826,188.55175171789597 39.44081272080075,192.62668137741275 40.919611307326704,193.76029486622429 42.99469964648597,194.34241841817857 45.73763250885531,193.6071041990508 49.029151943395846,190.26752087015484 50.74646643095184,187.6632230929972 51.843639575876296,184.84441862844687 52.75,179.084139493134 51.55742049473338,173.3849899333727 49.744699646602385,169.7693230763398 48.838339222595096,168.81943453470012 46.977915194351226,168.0533923691255 44.68816254416015,167.869541848253 42.970848056604154,168.5743013350293 41.58745583030395,169.7693230763398 39.583922261488624,172.2512703476823 37.795053003472276,175.43792659023893 36.6263250883203,179.63566217804328 36.43551236751955,181.9949378919846 37.0079505299218,187.9389737439633 39.607773851486854,192.81051099277101 40.967314487555996,193.76029486622429 42.99469964648597,194.37305645670858 44.52120141335763,194.219866220752 46.47703180206008,193.02497868116188 48.93374558305368,190.4207138868369 50.889575971639715,187.29555501510913 52.39222614839673,182.63837228596094 52.70229681977071,178.9922189097415 52.20141342759598,177.6134055024013 52.34452296816744,176.1733021758264 51.15194346290082,172.34319377726933 49.6492932861438,169.6161155274167 48.19434628973249,168.42109294499096 46.572438162518665,167.869541848253 44.091872791410424,167.9614671281306 42.80388692568522,168.6662263172475 39.249999999883585,172.92537459669984" stroke="#4DD2FF" stroke-linecap="round" stroke-linejoin="round" stroke-width="0.5"><title>2024-12-05 7.7km</title><desc>1733352101000</desc></polyline><polyline fill="none" points="57.25,190.26302146281523 59.69763513508951,188.81792151478294 60.4121621621307,188.7007505891961 60.9746621621307,189.4233030542091 63.83277027023723,189.69670030321868 65.45945945940912,190.20443662245816 67.2229729729006,189.69670030321868 67.45101351349149,188.01725155170425 69.95945945940912,186.88458859226375 71.6621621621307,186.51354181941133 71.92060810810653,186.86505983945972 71.85979729722021,188.9155638771772 72.33108108106535,190.06773856536893 73.15202702698298,191.33707248677092 73.98817567562219,191.8448028046405 77.65202702704119,190.88792488801118 80.78378378378693,191.70810636333772 82.72972972970456,190.6731146529346 84.59966216207249,190.24349318545137 87.68581081076991,190.61452998570167 88.47635135130258,189.44283144702786 88.9628378378111,189.18896212647087 89.76858108100714,189.83339872575016 91.57770270266337,190.1067951668374 92.73310810810653,189.93104037367448 93.75168918911368,189.3061326398165 94.9983108107117,188.01725155170425 96.36655405402416,186.04484974093793 97.08108108100714,184.22865298521356 97.73479729727842,180.3032433069602 96.82263513514772,176.2996016402467 95.24155405402416,173.7801776657725 93.52364864863921,173.194258557196 92.3378378378111,173.33097323717084 91.4256756756804,173.72158586626756 89.64695945940912,175.61604151806387 87.98986486479407,178.60415095278586 87.32094594591763,182.21713851411187 87.71621621609665,185.96673424067558 88.38513513508951,187.64620780728 89.43412162159802,189.18896212647087 90.83277027023723,189.97009701366187 92.15540540538495,190.0482102605456 93.44763513508951,189.48188822435623 94.69425675680395,188.31018012287677 96.82263513514772,185.0488738183194 97.3851351350313,183.05690052805585 97.70439189183526,180.38136199541623 96.8378378378111,176.49490391383006 95.83445945940912,174.4442163312342 95.2111486485228,173.76064706870238 93.52364864863921,173.17472787764564 92.58108108100714,173.25285057937435 91.72972972970456,173.54581031930866 90.58952702698298,174.48327733020415 88.20270270266337,178.09637218840362 87.32094594591763,182.3538443045254 87.70101351349149,185.90814758655324 88.4003378378693,187.70479372759291 89.44932432437781,189.2280189752637 90.33108108100714,189.79434204733116 91.85135135130258,190.126323463468 92.86993243236793,189.85292706087057 94.10135135130258,188.93509234144585 96.74662162159802,185.26369275918114 97.64358108106535,181.4750190160994 97.36993243242614,177.97919220964832 95.75844594591763,174.32703326822957 95.1503378378111,173.74111646888196 93.55405405402416,173.17472787764564 92.50506756751565,173.2919119138096 91.28885135130258,173.8583000266517 89.61655405402416,175.6355718539853 88.23310810799012,178.05731220648158 87.39695945946733,181.12348734229454 87.30574324319605,183.13501766638365 87.65540540538495,185.92767647403525 89.26689189183526,189.07179151415767 91.04560810804833,190.02868195291376 92.44425675668754,189.97009701366187 93.34121621615486,189.540473369736 94.40540540538495,188.6616935920756 95.81925675674574,186.82600232562982 96.74662162159802,185.28322173730703 97.17229729722021,183.97477412575972 97.70439189183526,180.24465426176903 96.79222972970456,176.33866211696295 95.78885135130258,174.3465637855843 94.61824324319605,173.42862649750896 93.55405405402416,173.17472787764564 92.17060810804833,173.35050389477692 90.69594594591763,174.4051553212339 89.40371621615486,175.96758714436146 87.898648648581,178.89709939465683 87.44256756751565,180.92819158319617 87.32094594591763,183.1740762189729 87.70101351349149,185.9472053586942 88.43074324319605,187.74385099411302 89.22128378378693,189.0522630691121 90.04222972970456,189.65764358633896 91.59290540538495,190.1067951668374 92.79391891881824,189.8724553931679 93.82770270266337,189.18896212647087 95.43918918911368,187.48997856549977 96.7618243243196,185.24416377826128 97.41554054053267,182.9397247381421 97.70439189183526,180.26418394628854 96.70101351343328,176.16288988520682 95.81925675674574,174.3856248120719 95.22635135130258,173.76064706870238 93.8125,173.1551971953595 92.50506756751565,173.23331990808947 91.10641891887644,173.91689176847285 89.7989864863921,175.4207380074804 88.14189189183526,178.23308203852503 87.30574324319605,182.52960869435628 87.70101351349149,185.92767647403525 88.44594594597584,187.76337962324033 89.29729729727842,189.11084839591058 90.45270270260517,189.89198372274404 91.5625,190.08726686750015 92.99155405402416,189.75528535792546 95.5,187.45092122752976 96.74662162159802,185.28322173730703 97.14189189183526,184.05289074739267 97.75,179.99076811340638 97.00506756751565,176.86597747626365 96.29054054047447,175.22543422204035 95.45439189189347,174.01454461645335 94.57263513508951,173.42862649750896 93.02195945940912,173.17472787764564 91.51689189189347,173.64346342842327 90.34628378372872,174.69811262816074 89.2364864864503,176.3972528113809" stroke="#4DD2FF" stroke-linecap="round" stroke-linejoin="round" stroke-width="0.5"><title>2024-12-03 16.2km</title><desc>1733178751000</desc></polyline><polyline fill="none" points="102.25,198.90589797403663 105.04953917046078,197.53597410903603 107.23584595124703,197.22774017683696 109.90207373269368,197.50172591365117 113.12820934830233,198.66616185425664 116.30102040816564,196.85100928507745 119.47383146802895,196.09754575234547 124.99292297568172,196.88525757211028 127.25921658985317,194.2138767156721 128.13907175767235,194.17962805271964 131.07192231726367,195.65231620479608 133.4448650428094,195.65231620479608 135.3378867674619,194.6933574898576 137.20424621447455,192.9466729791602 138.67067149432842,191.40547035401687 141.2302501645172,186.91880270664115 142.72333772212733,179.5550085879804 141.2302501645172,171.9512292106665 139.44387755088974,168.25200739019783 137.76415404875297,166.77915342111373 135.31122448970564,166.1968598581443 132.69832126400433,166.5736382050527 130.56533903896343,168.1835027520865 127.6324884792557,171.77997018254246 125.68614219885785,175.68464607038186 124.8596115866676,179.0412471950258 124.51300197502133,181.64429374567408 124.80628703080583,186.26805778266862 125.41951942071319,189.11077280669997 127.44585253449623,193.15216592518846 128.93894009210635,194.8646003946924 131.81846609606873,195.7893099984649 133.25822909804992,195.75506155723997 135.52452271222137,194.5563630792749 138.64400921657216,191.43971940723713 140.72366688610055,188.11753880111792 142.2700789992232,183.45955973051605 142.75,178.56173558313458 141.57685977616347,172.77327086759033 139.8971362739103,168.9713049260754 138.3773864384275,167.15593086638546 134.48469387751538,166.09410202596337 131.87179065158125,166.9846684635413 127.6324884792557,171.71146653758478 125.41951942071319,176.54092626624333 124.48633969714865,182.98005682398798 125.33953258709516,188.9737752538349 127.01925608946476,192.56993546099693 128.69897959183436,194.76185466621246 130.6453258722322,195.54957080892927 133.17824226454832,195.72081311127113 136.6176761026727,193.63164879109536 140.96362738648895,187.50104668994027 142.32340355496854,182.60330387754948 142.75,178.49323384724266 141.33689927577507,172.08823634628789 139.44387755088974,168.28625970208668 137.57751810387708,166.64214329632523 134.43136932200287,166.09410202596337 132.45836076361593,166.5736382050527 130.96527320612222,167.6697173516004 127.65915075712837,171.71146653758478 125.65947992098518,175.68464607038186 124.37969058589078,182.74030501650122 125.41951942071319,188.9737752538349 127.23255431209691,192.77542872510094 128.85895325872116,194.76185466621246 130.83196181699168,195.54957080892927 133.204904542421,195.61806774428987 135.12458854506258,194.89884896112198 136.99094799207523,193.28916112615843 140.59035549708642,188.18603782821447 142.3500658327248,182.87730607829872 142.69667544437107,178.63023729983252 141.97679394320585,174.24608855860424 140.77699144161306,170.71816151849634 138.1374259380391,166.9504159685457 134.3780447661411,166.12835464150703 131.41853192879353,167.25868825020734 127.7924621461425,171.5402073408186" stroke="#4DD2FF" stroke-linecap="round" stroke-linejoin="round" stroke-width="0.5"><title>2024-12-01 10.0km</title><desc>1733006314000</desc></polyline><polyline fill="none" points="164.80026008654386,202.51725554594304 168.06169085437432,202.37760879498092 170.2722161526326,201.1207853827218 177.19369700411335,192.27633744623745 179.7666034984868,182.50061985451612 179.25926982378587,174.54017925538938 176.10655341483653,166.16056111850776 173.96850435598753,163.87940608503413 171.21440726332366,162.6224363843503 167.88050025631674,162.48277278931346 164.54659324907698,164.0656234122289 159.54573273845017,169.97796904167626 156.90035000466742,175.42468211628147 155.66825393703766,180.0799213470018 155.19715838157572,184.12992618302815 155.632015817333,190.50741948134964 158.45858914940618,198.14162933151238 160.3429713707883,200.8414906426915 163.9305452152621,202.6103533472051 166.4672135899309,202.75 169.43873940082267,201.53972705063643 172.66393204894848,198.70022313474328 176.68636332917958,192.97459193356917 179.15055546490476,186.59714620254817 179.8390797378961,178.40404277155176 178.53450743085705,171.467677255132 177.19369700411335,168.2089318234939 174.80198110779747,164.62427476464654 172.55521769006737,162.99487234911066 167.8442621366121,162.38966369320406 166.10483239381574,162.99487234911066 162.80716350651346,165.8346827912901 159.54573273845017,169.97796904167626 157.48015991901048,173.84188585251104 155.92192077450454,178.68335645712796 155.26963462098502,184.73509506089613 155.632015817333,190.27466641340288 158.38611290999688,198.14162933151238 160.19801889220253,200.6552940183028 162.55349666881375,202.14486407881486 165.8149274366442,202.7034511222737 168.89516760618426,201.95866818804643 173.85978999710642,197.21063756314106 177.41112572187558,191.62463192813448 178.89688862720504,187.48161682279897 179.91155597707257,178.68335645712796 178.53450743085705,171.32801739516435 177.19369700411335,168.06927058755537 174.98317170585506,164.62427476464654 172.62769392924383,162.948317876464 168.53278640983626,162.38966369320406 165.85116555611603,163.13453572787694 164.1117358135525,164.39150348250405 159.43701837980188,170.02452252488 156.82787376549095,175.47123483286123 155.74073017621413,179.3816396391776 155.55953957792372,189.20400019118097 156.17558761197142,192.74184060154948 158.42235102970153,198.0485302725283 159.8356376956217,200.28290045508766 162.5897347885184,202.14486407881486 165.3438318814151,202.75 168.64150076848455,201.95866818804643 170.8157879470382,200.56219566683285 174.22217119345441,196.74514069629367 177.80974503792822,190.9263745910721 179.25926982378587,186.36439038306708 179.98403221648186,179.42819179879734 178.53450743085705,171.3745706883492 175.88912469684146,165.92779091754346 173.35245632193983,163.320753474487 168.46031017042696,162.34310913539957 166.64840418845415,162.76209992033546 164.4741170099005,164.1587320365361 160.8865431654267,167.97616306398413 156.64668316743337,176.0298669213371 155.5233014584519,180.8247535438568 155.26963462098502,185.8523270036385 156.10311137279496,192.6021897237806 157.29896932072006,195.81414499765378 159.79939957614988,200.1898019987857 162.5897347885184,202.1914130351215 165.56126059917733,202.75 168.7502151275985,202.00521717051743 171.540550339967,199.86395719545544 175.12812418444082,195.5348457772052 178.4982693111524,189.15744940727018 179.8390797378961,183.2454466004856 179.87531785760075,178.21783351688646 177.3386494826991,168.348593000439 175.52674350049347,165.2294793316396 173.1350276041776,163.0414268152963 169.80112059717067,162.25 165.85116555611603,163.22764461443876 162.62597290822305,165.88123685773462 159.4732564992737,169.97796904167626 156.39301632973365,176.6816031653725 155.01596778351814,184.92130064679077 155.92192077450454,192.46253878687276 158.60354162799194,198.70022313474328 160.37920949049294,200.70184318415704 163.24202094227076,202.47070663547493 166.6121660687495,202.6103533472051 169.40250128111802,201.49317800271092 175.091886064969,195.3951960784034 176.94003016664647,192.64874002282158 178.9331267469097,187.62126986248768 179.94779409677722,179.14887874235865 179.33174606296234,174.67983775917673 177.37488760240376,168.5348078114621 175.34555290243588,165.043262659834 172.48274145065807,162.90176339738537 168.6777388881892,162.29655457104673 165.05392692401074,163.55352551021497 159.40078026009724,170.0710760015936 160.52416196884587,172.11942248878768" stroke="#4DD2FF" stroke-linecap="round" stroke-linejoin="round" stroke-width="0.5"><title>2024-11-29 13.9km</title><desc>1732833187000</desc></polyline><polyline fill="none" points="12.25,255.15962873533135 14.695798949804157,253.79366760197445 15.51612903230125,253.69609843473881 16.230120029998943,254.4376223840518 20.71155288821319,255.08157417585608 22.230682670720853,254.5547047504515 22.443360840261448,252.99359840410762 24.43342085526092,251.99838393535174 26.529819954943378,251.35441782601993 26.879219804890454,251.58858766633784 26.833645911479834,254.04734711551282 27.198237059288658,255.06206052911875 28.261627906991635,256.3499553233414 29.400975243770517,256.85730453403085 31.0720180044882,256.0767665179301 32.63672168034827,255.82309071683267 34.24699924979359,256.0572530112695 35.629407351778354,256.662170441894 37.19411102775484,255.8621177933819 39.290510127553716,255.25719687284436 40.67291822953848,255.17914236830256 42.70855213806499,255.56941445164557 43.665603900910355,254.35956741819973 44.394786196528,254.1644298114261 46.415228807134554,255.06206052911875 47.99512378097279,254.730328114616 50.31939234805759,252.62283306429163 51.413165791367646,250.92510542512173 52.400600149994716,248.23211550118867 52.73480870219646,245.26586317176407 52.127156789181754,242.08487733431684 51.01819204800995,239.56735828287492 49.62059264810523,238.39640361424244 48.02550637657987,238.14269546596915 46.810202550608665,238.45495158257836 45.777194298570976,239.23558879746997 44.12134283565683,241.38231847628776 43.01237809454324,243.5290149187349 42.374343585863244,246.59287863667123 42.72374343581032,250.80801999421965 44.15172543126391,253.87172288633883 45.13915978994919,254.67178701800003 46.475993998523336,255.04254687967477 47.41785446356516,254.96449225430842 48.48124531132635,254.45713611863903 50.31939234805759,252.5838050761231 51.413165791367646,250.92510542512173 52.41579144785646,248.19308627728606 52.68923480861122,244.8950771689706 51.6106526631047,240.71878739725798 50.89666166540701,239.41123156511458 49.71174043510109,238.39640361424244 48.58758439606754,238.14269546596915 47.32670667662751,238.2793076034577 46.35446361586219,238.80623887313413 44.941672918212134,240.133316161111 42.99718679668149,243.58756071978132 42.31357839459088,247.62716129544424 42.784508627140895,250.90559119345562 44.212490622652695,253.8912367005978 45.048012003011536,254.6327596064075 45.929107276781,254.98400591475365 47.93435858958401,254.7888691866392 50.44092273066053,252.46672104566824 51.99043510877527,249.63716024745372 52.75,245.36343827091332 52.248687171784695,242.41664000201854 50.851087771879975,239.35268400057976 49.66616654157406,238.39640361424244 48.48124531132635,238.14269546596915 47.17479369835928,238.33785562125558 45.97468117024982,239.04042990577 44.941672918212134,239.9967058502807 43.513690922700334,242.51421710620343 42.69336084020324,244.71944134791556 42.343960990256164,246.8660861264798 42.769317329337355,250.86656272195978 43.96942985750502,253.5985291988618 45.078394598618615,254.6327596064075 46.400037509272806,255.06206052911875 47.41785446356516,255.00351957249222 48.542010502598714,254.4376223840518 50.47130532632582,252.48623505764408 51.413165791367646,250.90559119345562 52.537321830459405,247.78327876249386 52.71961740433471,245.32440823951038 52.52213053259766,243.7827132113598 51.38278319576057,240.07476890154066 50.258627156785224,238.76720699593716 49.210427606943995,238.2012435413926 47.99512378097279,238.14269546596915 46.70386346592568,238.5330155018164 44.86571642907802,240.28944206582673 44.394786196528,241.12861579158925" stroke="#4DD2FF" stroke-linecap="round" stroke-linejoin="round" stroke-width="0.5"><title>2024-11-27 11.3km</title><desc>1732665796000</desc></polyline><polyline fill="none" points="57.25,255.681681738919 58.03202747856267,255.50781980945612 60.0923691050848,254.27146196106332 60.8593575937557,254.21350741374772 61.61130709241843,254.92827845434658 66.12300408468582,255.50781980945612 67.5517081322032,255.1021411177935 67.71713702188572,253.65327886136947 68.12318975117523,253.26691301050596 70.25872632744722,252.2623567092087 71.89797623467166,251.9339424778591 72.21379502408672,252.33963053183106 72.37922391382745,255.4885018037312 72.75519866315881,255.95213319151662 82.95163386553759,256.16463038772054 85.05709246190963,255.681681738919 87.79418863717001,256.0294049373333 88.81683995545609,254.79305178613868 89.53871147416066,254.54191619183985 91.25315633119317,255.43054777014186 93.08791310811648,255.2760035610263 94.57677311549196,254.05896183454024 96.63711474195588,251.18051862544962 97.52441515034297,248.37929111212725 97.70488303009188,246.69852716608148 97.16347939101979,242.7380249942944 96.33633494243259,240.70943084699684 95.61446342372801,239.66614218284667 94.80235796514899,239.10585425705358 92.98264017823385,238.8353696122649 91.6441700704745,239.33769781411684 90.80198663199553,240.052546316394 89.38832157442812,241.86863117362373 88.275436316384,243.97448672137398 87.53852580761304,247.2587841013301 87.98969550686888,251.68280165316537 89.40336056437809,254.46464360882237 90.81702562200371,255.37259371214896 92.3660415893537,255.50781980945612 93.40373189753154,255.12145917795715 94.68204604537459,253.96237075922545 96.99805050127907,250.29185953582055 97.73496100999182,246.4280574823788 97.11836242111167,242.58346649532905 96.23106201260816,240.59351027592493 95.44903453392908,239.55022073069995 94.15568139625248,238.9319713323639 92.74201633868506,238.8546899617504 91.59905310062459,239.3763383688638 90.26058299298165,240.6128303778969 88.30551429634215,243.83924926245527 87.53852580761304,247.81903875002172 87.65883772738744,250.34981573876576 88.14008540660143,252.01121648536355 89.49359450431075,254.5805524670286 91.04261047160253,255.44986578407406 92.44123653921997,255.4691837952414 93.16310805792455,255.2760035610263 94.59181210550014,254.02032541255176 96.8626995914965,250.56232160684885 97.46425919054309,248.55316206991847 97.75,245.88711651622725 96.96797252132092,242.21638936268573 96.23106201260816,240.57419017117354 95.22344968438847,239.3763383688638 94.05040846636984,238.87401030850015 92.772094318585,238.8353696122649 91.6441700704745,239.2990572484705 90.33577794273151,240.49690972524695 89.28304864454549,241.94591084735293 88.18520237650955,244.14836325850047 87.62875974748749,246.23486452488578 87.49340883776313,248.302015060166 88.12504641665146,252.06917196238646 89.35824359452818,254.4260073010082 89.95980319351656,254.94759653895744 91.28323431120953,255.4885018037312 92.93752320826752,255.35327568731736 95.3287226142129,253.13168470580422 97.07324545120355,249.98275937361177 97.75,246.13826794418856 96.96797252132092,242.17774960743554 95.40391756402096,239.47293970819737 94.23087634606054,238.9319713323639 93.012718158192,238.8353696122649" stroke="#4DD2FF" stroke-linecap="round" stroke-linejoin="round" stroke-width="0.5"><title>2024-11-24 10.4km</title><desc>1732400098000</desc></polyline><polyline fill="none" points="102.25,255.28454437210166 104.67696629214333,253.82320806576172 105.43539325846359,253.76475429271522 106.31516853929497,254.44671344281232 110.7747191010858,255.10918482964917 112.2764044944197,254.68052723539586 112.48876404494513,253.0438223962119 113.82359550561523,252.43979548489733 116.93314606742933,252.5372193584335 117.29719101125374,255.08970042236615 118.17696629214333,256.27824425128347 119.01123595511308,256.8043177709915 119.72415730333887,256.84328610028024 121.66573033703025,255.98598032123118 123.10674157302128,255.84959027609148 125.88258426968241,256.66792853182415 127.55112359550549,255.71320009659394 129.32584269659128,255.22609121598362 132.75393258430995,255.5573254412302 133.9522471909877,254.1544456469128 134.72584269661456,254.797433983651 136.39438202243764,255.03124718397157 137.425842696568,254.9727939208824 138.47247191012139,254.52465141758148 140.36853932583472,252.5956736497319 141.36966292135185,251.01739912398625 142.4921348314383,247.82182524321252 142.71966292127036,245.2886959825846 142.35561797750415,242.75552037503803 140.7932584269438,239.28694320870272 139.6404494382441,238.42952871561283 137.98707865172764,238.15671389971976 136.9859550561523,238.44901546764595 136.04550561803626,239.13105005947 133.5882022472215,242.48271408361325 132.5264044943615,245.7563541035779 132.37471910112072,247.35417409871297 132.6325842696242,250.23799766082084 133.39101123594446,252.38134112779517 134.3162921348121,253.9985692368209 135.0140449438477,254.66104276779515 136.5157303371234,255.05073159949097 137.8657303369837,254.85588732073666 138.97303370787995,254.11547656085168 140.38370786514133,252.57618888875004 141.4303370786365,250.9589441664575 142.15842696628533,249.20528396425652 142.68932584265713,246.3019532483013 142.34044943819754,242.6970619292406 141.65786516852677,240.84586504615436 140.4443820224842,238.89721000652935 139.5646067415364,238.4100419608876 137.97191011236282,238.17620069009718 136.92528089880943,238.4100419608876 136.06067415734287,239.05310341902077 134.5741573033156,240.78740579404985 133.4971910112654,242.56065879311063 132.96629213483538,243.86622615488886 132.38988764048554,246.86703581019538 132.67808988760225,250.25748275087972 133.40617977525108,252.43979548489733 134.34662921348354,254.0375383557839 135.2112359550665,254.7000117002608 136.69775280897738,255.07021601230372 138.07808988768375,254.73898062182707 138.89719101128867,254.1544456469128 140.4443820224842,252.5177345892298 141.44550561794313,250.90048918419052 142.5831460673944,247.41263057816832 142.71966292127036,245.24972440119018 142.34044943819754,242.71654808059975 141.64269662916195,240.80689221413922 140.6264044943382,239.05310341902077 139.59494382020785,238.39055520347029 138.3207865168224,238.17620069009718 136.94044943817426,238.546449186455 135.68146067415364,239.44283618235204 134.28595505619887,241.1771336752281 133.0724719101563,243.63239409965172 132.4657303370186,246.16555366368266 132.40505617979215,248.2699894411926 132.7235955056385,250.62769894083613 133.4213483145577,252.5177345892298 134.33146067411872,254.0375383557839 135.75730337074492,254.933825065149 137.3348314606701,254.9727939208824 138.65449438197538,254.34929091270897 140.48988764046226,252.45928026508773 141.5820224719355,250.64718397604884 142.15842696628533,249.24425443232758 142.62865168537246,246.96446360500704 142.75,245.3081817691418 142.35561797750415,242.67757577520388 141.26348314603092,239.96897367252677 140.6264044943382,239.09207674473873 139.24606741574826,238.29312137483794 137.5168539325823,238.25414782427833" stroke="#4DD2FF" stroke-linecap="round" stroke-linejoin="round" stroke-width="0.5"><title>2024-11-21 10.8km</title><desc>1732142576000</desc></polyline><polyline fill="none" points="147.25,254.94366457602882 149.45158550399356,253.52965984283946 150.17015855043428,253.45110360425315 151.05690826720092,254.1973860853468 153.67129105323693,254.35449767817045 155.3224801812321,254.78655364643782 156.8666477915831,254.4723312567221 157.20300113252597,252.6851779610006 161.46857304644072,251.11403528139635 161.72848244628403,251.44790458072384 161.98839184595272,254.49197017679398 163.8383352208184,256.966451997112 164.51104190264596,257.2413917134836 164.60277463198872,256.5344027770916 167.14071347680874,255.6113840535545 168.5778595697484,255.65066157039837 170.81002265005372,256.3380163258553 172.6905436013476,255.297163520896 173.92893544741673,254.96330342975853 175.45781426958274,254.88474799817777 177.6593997735181,255.27752471409622 178.85192525479943,253.94207936985185 181.17582106456393,254.72763700228825 182.91874292190187,254.5116090941301 185.31908267276594,252.35131162150356 186.4351642128895,250.5444916919805 187.38306908268714,248.01097652495082 187.75,244.88820850051707 187.36778029450215,242.31530938411015 185.74716874287697,238.79959190941008 184.56993204983883,237.95502088523062 183.086919592286,237.7782495588035 181.12995469989255,238.58353934327897 179.1729898074991,240.8226133434364 177.6288221970899,244.39720088137256 177.27718006796204,247.48070008780633 177.46064552664757,249.77855009671475 178.89779161952902,253.27435190582764 180.5031143828528,254.55088692047866 182.64354473393178,254.6883592256636 183.94309173274087,253.84388435493747 185.716591166507,251.74249447573675 186.81738391850377,249.75891051332292 187.55124575312948,247.30394082763814 187.75,244.92748903536994 187.41364665911533,242.5902779658063 185.80832389579155,238.87815639599285 184.03482446202543,237.8175320951559 182.582389580959,237.8568146204343 181.19110985280713,238.56389818433672 179.84569648926845,239.97805456344213 178.45441676105838,242.09926226121024 177.76642129110405,243.92583194164035 177.30775764444843,246.30230079122703 177.53708946774714,249.9749457782891 178.46970554930158,252.4691468913661 179.4787655719556,253.9617183645605 180.94648924120702,254.70799811533652 182.61296715744538,254.6883592256636 184.00424688565545,253.76532829321513 185.4261041902937,252.19419777365692 186.78680634207558,249.8374688301992 187.41364665911533,247.87349764212559 187.75,244.94712929870002 187.5359569649445,243.35625901515596 186.9396942242165,240.99938081331493 185.80832389579155,238.89779751074093 184.1571347678546,237.83717335914844 183.28567383921472,237.7586082865164 181.97083805210423,237.99430337183003 181.2369762174785,238.48533352083177 179.84569648926845,239.93877263530158 178.30152887880104,242.55099677309045 177.5982446206035,244.61324444660568 177.30775764444843,246.61654157658631 177.50651189131895,249.73927092720987 178.88250283128582,253.2547128144215 179.78454133635387,254.1973860853468 180.94648924120702,254.70799811533652 182.38363533408847,254.72763700228825 183.27038505091332,254.39377554880048 185.73187995475018,251.78177308139857 187.2607587769744,248.58053045379347 187.75,244.8685682288633 186.83267270668875,240.76369080373843 185.77774631942157,238.87815639599285 184.95215175539488,238.2103568502498 184.05011325032683,237.83717335914844 182.3224801812321,237.87645587894076 181.35928652319126,238.34784525328723 180.35022650053725,239.3691834348574 179.2341449604137,240.74404995166697 177.98046432621777,243.2776970497507 177.27718006796204,247.1664612482855 177.81228765571723,250.8390834939637 179.26472253678367,253.78496731282212 180.83946772367926,254.7472758864169 182.36834654590348,254.78655364643782 183.20922989811515,254.4526923338417 185.624858437106,251.95852667014697 186.83267270668875,249.8374688301992 187.42893544735853,247.99133669280855 187.734711211815,244.7900071148324 187.35249150625896,242.41351251123706 186.4810305776191,240.07625933535746 185.716591166507,238.79959190941008 184.6463759909966,238.07286831176316 183.51500566251343,237.7782495588035 182.18488108721795,237.95502088523062 181.17582106456393,238.56389818433672 179.81511891284026,239.9584136007761 177.9193091733032,243.33661852795922 177.46064552664757,245.1042513055727 177.26189127971884,247.89313749079884 178.17921857303008,251.8603302595584 178.85192525479943,253.2154346233001 179.81511891284026,254.21702504414134 180.7018686296651,254.6687203332258 182.39892412233166,254.70799811533652 183.23980747454334,254.39377554880048 184.43233295582468,253.37254732147267 185.56370328430785,252.01744448335376 186.9702718007029,249.52323529742716 187.734711211815,245.67381709767506 187.21489241230302,241.88321480389277 185.73187995475018,238.81923303518852 183.98895809741225,237.8175320951559 182.64354473393178,237.83717335914844 181.63448471121956,238.22999805897416 179.90685164212482,239.8602087458712 179.09654586634133,241.11722566882963" stroke="#4DD2FF" stroke-linecap="round" stroke-linejoin="round" stroke-width="0.5"><title>2024-11-17 16.3km</title><desc>1731797391000</desc></polyline></svg>