<?xml version="1.0" encoding="utf-8" ?>
<svg baseProfile="full" height="300mm" version="1.1" viewBox="0,0,200,300" width="200mm" xmlns="http://www.w3.org/2000/svg" xmlns:ev="http://www.w3.org/2001/xml-events" xmlns:xlink="http://www.w3.org/1999/xlink"><defs /><rect fill="#222222" height="300" width="200" x="0" y="0" /><text fill="#FFFFFF" style="font-size:12px; font-family:Arial; font-weight:bold;" x="10" y="20">Over 5km Runs</text><text fill="#FFFFFF" style="font-size:4px; font-family:Arial" x="10" y="280">ATHLETE</text><text fill="#FFFFFF" style="font-size:9px; font-family:Arial" x="10" y="290">sagasw</text><text fill="#FFFFFF" style="font-size:4px; font-family:Arial" x="65" y="280">SPECIAL TRACKS</text><rect fill="yellow" height="2.6" width="2.6" x="65" y="283" /><text fill="#FFFFFF" style="font-size:3px; font-family:Arial" x="70" y="285.5">Over 20.0 km</text><rect fill="red" height="2.6" width="2.6" x="65" y="287" /><text fill="#FFFFFF" style="font-size:3px; font-family:Arial" x="70" y="289.5">Over 40.0 km</text><text fill="#FFFFFF" style="font-size:4px; font-family:Arial" x="120" y="280">STATISTICS</text><text fill="#FFFFFF" style="font-size:3px; font-family:Arial" x="120" y="285">Number: 18</text><text fill="#FFFFFF" style="font-size:3px; font-family:Arial" x="120" y="290">Weekly: 2.6</text><text fill="#FFFFFF" style="font-size:3px; font-family:Arial" x="141" y="285">Total: 230.8 km</text><text fill="#FFFFFF" style="font-size:3px; font-family:Arial" x="141" y="290">Avg: 12.8 km</text><text fill="#FFFFFF" style="font-size:3px; font-family:Arial" x="167" y="285">Min: 7.7 km</text><text fill="#FFFFFF" style="font-size:3px; font-family:Arial" x="167" y="290">Max: 18.5 km</text><polyline fill="none" points="12.25,59.33413524572097 12.740314769966062,59.1031978604442 13.475786924886052,59.984956862885156 18.182808716606814,60.63577564098523 19.81719128327677,60.17390454247652 20.14406779658748,58.4313779797958 24.736682808725163,56.709825726939016 25.24334140436258,60.23688704922097 26.861380145302974,62.52523342768836 27.825665859563742,62.48324573681748 30.767554479360115,61.47553761138988 32.516343825671356,61.66448340337956 34.4449152542511,62.37827645802463 36.58595641644206,61.22360951657174 38.30205811141059,60.80372841320059 39.4297820822685,60.719752050732495 41.848668280872516,61.160627426361316 43.22154963680077,59.71203201422759 45.346246973378584,60.53080506238621 47.45460048422683,60.3628519828635 48.30447941890452,59.90098003948515 50.134987893514335,58.011489018128486 51.57324455206981,55.66008899388544 52.47215496370336,52.76277728402056 52.75,50.0753653968859 51.96549636806594,46.380095001659356 50.83777239714982,44.028511635100585 49.66101694916142,42.87370265972277 47.977602905535605,42.47476657232619 46.964285714318976,42.579749856638955 45.73849878931651,43.272637680129264 42.86198547214735,47.00997710884258 41.865012106485665,49.7394355070428 41.58716707024723,51.922966269776225 41.9630750605138,55.828047367569525 42.68220338982064,57.948505571926944 43.97336561745033,59.7330262511241 45.29721549642272,60.55179918400245 47.078692493902054,60.57279330266465 48.14104116224917,60.026945256773615 50.16767554479884,58.032483494258486 52.014527844963595,54.58934991680144 52.733656174328644,50.13835216703592 51.78571428573923,45.81319883126707 50.151331719127484,43.188651448639575 48.79479418887058,42.579749856638955 47.43825665867189,42.47476657232619 45.885593220358714,43.16765488340752 44.855932203354314,44.21747952538135 43.48305084742606,45.939175944178714 42.28995157382451,48.31172503565904 41.57082324451767,52.09092885082646 42.14285714289872,56.45788958463527 43.09079903148813,58.59933323354926 44.13680387410568,59.92197424978076 45.166464891051874,60.53080506238621 46.621065375278704,60.67776385175239 48.51694915257394,59.69103777446435 50.11864406778477,58.032483494258486 51.39346246980131,56.03799506869109 52.602905569016,52.006947583911824 52.733656174328644,50.20133891062869 52.34140435839072,47.74483620574756 51.06658595643239,44.34345798594586 50.151331719127484,43.14665831522143 48.64769975782838,42.558753205652465 47.40556900721276,42.495763235070626 46.17978208238492,42.97868566321267 43.434019370528404,46.02316062703903 41.897699757886585,49.7394355070428 41.58716707024723,52.34287236780801 41.68523002421716,54.63133982929867 42.17554479424143,56.667836399472435 43.09079903148813,58.64132201745815 43.66283292975277,59.523083749591024 44.855932203354314,60.42583440983435 46.294188861967996,60.719752050732495 47.6507263922249,60.32086368344608 50.21670702181291,57.99049453898624 51.96549636806594,54.65233478108712 52.48849878931651,52.7417820662813 52.71731234865729,50.09636098994815 51.687651331711095,45.456263100146316 49.922518159786705,43.020678843939095 48.30447941890452,42.558753205652465 47.02966101694619,42.6217431496334 46.31053268769756,42.894699266253156 44.41464891046053,44.72139272923232 42.35532687656814,48.227741641239845 41.848668280872516,49.76043114728236 41.55447941890452,52.48983922295156 42.01210653752787,56.16396354751487 42.714891041163355,57.92751108396624 44.21852300246246,60.11092200926214 45.44430992734851,60.57279330266465 46.91525423730491,60.67776385175239 49.31779661012115,59.08220353492652 51.720338983112015,55.40815107889648 52.684624697314575,51.10414597901399 52.37409200973343,47.78682804477285 51.90012106538052,46.17013370827772 51.328087167057674,44.8263744324795 50.21670702181291,43.293634230591124 48.50060532690259,42.579749856638955 47.3565375302569,42.558753205652465 46.19612590793986,43.020678843939095 44.77421307511395,44.322461583287804 43.450363196083345,46.002164460733184 42.2572639224818,48.395708382784505 41.57082324451767,51.9439616027521 41.717917675559875,54.694324675932876 42.35532687656814,57.25568590909825 44.12046004837612,59.984956862885156 45.4116222760058,60.593787418387365 47.09503631963162,60.614781531185145 49.25242130755214,59.1031978604442 51.36077481840039,56.20595301684807 52.61924939468736,52.321877091017086 52.733656174328644,50.15934775120695 52.24334140436258,47.36690912228369 51.638619854755234,45.47725934331538 50.52723970939405,43.60858213294705 49.546610169520136,42.852706050049164 48.35351089586038,42.579749856638955 47.2094430992729,42.558753205652465 46.326876513368916,42.91569586996047 43.49939467309741,46.02316062703903 41.88135593221523,49.865409304373316 41.70157384983031,54.484375083848136 42.86198547214735,58.221433646656806 43.66283292975277,59.46010094159283 44.708837772370316,60.341857834660914 46.50665859557921,60.69875795271946 47.66707021795446,60.44682854623534 50.24939467315562,57.99049453898624 51.949152542394586,54.84128921457159 52.48849878931651,53.01471966644749 52.75,50.13835216703592 51.98184019367909,46.506071635885746 51.34443099272903,44.8263744324795 50.18401937041199,43.209648010946694 47.99394673126517,42.51675989487558 46.964285714318976,42.642739791757776 45.73849878931651,43.377620402898174 43.49939467309741,46.02316062703903" stroke="#4DD2FF" stroke-linecap="round" stroke-linejoin="round" stroke-width="0.5"><title>2024-12-29 18.5km</title><desc>1735432872000</desc></polyline><polyline fill="none" points="57.25,60.16571196264704 60.390694239293225,58.22539653838612 61.04874446085887,58.148551795457024 61.94608567212708,58.89778619381832 64.5633308714605,59.109107973010396 66.19350073853275,59.531750550158904 67.67411373707,59.08989691566967 67.92836041358532,57.49536973431532 69.99224519939162,56.45795650803484 72.1757754801074,55.90082392915792 72.63940177252516,59.33964045000903 74.22470457904274,61.20309701505175 74.9874446085887,61.22230777499499 76.85690546530532,60.43466439979966 78.23282865586225,60.300188247449114 81.20901033974951,61.087832398479804 83.33271787298145,59.97360275457322 85.9350073855021,59.66622745941277 88.47747415059712,60.53071871319844 89.01587887736969,62.00994660623837 91.36392171343323,62.202052948996425 91.90232644014759,61.26072928683425 91.43870014772983,60.72282713733148 91.49852289503906,59.93518088052224 91.85745937959291,59.531750550158904 93.51754062034888,59.08989691566967 94.31019202363677,58.340663571623736 95.70107090106467,56.7461276393733 95.92540620389627,55.862400908838026 96.80779172823532,54.728916945517994 97.61539881833596,51.65501476194186 97.49575332348468,48.23521724632883 96.83770310197724,45.83362283966562 95.71602658787742,43.83546409153496 95.11779911373742,43.31670655703056 93.57736336777452,42.81716040123138 92.44073116692016,42.8940137749305 91.18445347121451,43.60490543072228 88.73172082717065,46.92875512971659 87.65491137374192,50.17567466548644 87.625,53.960447888457566 88.13349335303064,56.03530441499606 89.12056868535001,58.01407339128491 89.86835302808322,58.878575106791686 91.10967503697611,59.43569553387351 92.4257754801074,59.474117548481445 93.63718611520017,58.91699727815285 95.55151403247146,56.8421845480043 96.58345642540371,55.151573083072435 97.64531019201968,51.46289357730711 97.73504431318725,49.829852590861265 97.46584194980096,48.081516469843336 96.76292466762243,45.67991935899772 95.79080502217403,43.89310369586747 95.0878877399955,43.297493277161266 93.68205317575485,42.797947051003575 92.6501107828808,42.8555870935088 91.30409896600759,43.5088392070611 88.73172082717065,46.92875512971659 87.65491137374192,50.19488697727502 87.61004431312904,53.97965966764605 88.68685376667418,57.20720018443535 89.32994830136886,58.30224123802327 90.52640324959066,59.224374260156765 92.02197193499887,59.493328551761806 93.15860413591145,59.20516321907053 95.43186853767838,56.995875461245305 97.16672821267275,53.7491181393998 97.75,49.81064022764622 96.76292466762243,45.62228050913836 95.82071639585774,43.931530085304985 95.02806499262806,43.25906670928816 93.60727474151645,42.81716040123138 91.79763663228368,43.22064013064664 90.51144756283611,44.37343278573826 89.35985967505258,46.064177736101556" stroke="#4DD2FF" stroke-linecap="round" stroke-linejoin="round" stroke-width="0.5"><title>2024-12-28 9.1km</title><desc>1735368240000</desc></polyline><polyline fill="none" points="102.25,59.416415521423914 102.99662023759447,60.16235188949213 107.75839819741668,60.78041066863807 109.36777959845494,60.26891392792459 109.68301925435662,58.49997438261926 114.36183941003401,56.77363996653003 114.76003687008051,60.7590983389091 116.68465792707866,62.67719600193959 117.48105284717167,62.719820118596544 118.79178615321871,62.059144962971914 120.81595657515572,61.67552580831398 122.15987300279085,61.82471115060616 124.33336747228168,62.591947732740664 125.95934043417219,61.611589188018115 127.58531339612091,61.07878296962008 129.82517410896253,60.95090919834911 131.78297828754876,61.27059342418215 133.0937115935958,59.906602691466105 134.07261368294712,60.05578977613186 135.30038918479113,60.7590983389091 137.3909258499625,60.5246625142463 139.71374436706537,58.52128703026392 141.2733510856051,56.07031289621955 142.33521097910125,53.363538849545876 142.66704219579697,50.82722635137907 142.26884473569226,47.54487653316755 141.2733510856051,44.6461188349931 139.9792093404103,42.94094132739701 138.20391233096598,42.280179881388904 136.32906595652457,42.53595884765673 133.3094018844422,45.56264381160145 131.8659360917518,48.99423457487137 131.41796394920675,51.53057777110371 131.6502458009054,55.36698255974625 132.3802744775894,57.732717071441584 133.34258500608848,59.416415521423914 134.47081114299363,60.41810065571917 135.64881196222268,60.78041066863807 137.22501024167286,60.69516133180878 138.08777140517486,60.1836643032002 140.12853338790592,58.137658914522035 141.37290045054397,56.07031289621955 142.43476034409832,53.15040498021699 142.68363375670742,49.6336528306565 142.1029291274026,46.670992187195225 141.1240270381095,44.241140915532014 140.09535026625963,43.0048858304217 138.7514338385663,42.38675450316805 137.490475215076,42.280179881388904 136.39543219981715,42.62121840703185 133.7407824661932,45.26424093982496 132.51300696429098,47.31042025239731 131.8659360917518,49.0794904983195 131.36818926665,53.19303177809343 131.8327529700473,56.09162588576146 132.57937320764177,58.137658914522035 133.35917656699894,59.4377280400804 134.603543629637,60.5246625142463 137.12546087661758,60.7590983389091 138.48596886522137,59.821352862840286 140.17830807040446,58.095033508347115 141.35630888980813,56.15556483634282 142.33521097910125,53.470105671702186 142.75,50.1025578356639 142.25225317495642,47.41699133411748 141.33971732895589,44.73137720634986 140.27785743545974,43.19671917759115 138.95053256856045,42.45069924026029 137.40751741081476,42.34412466343201 136.16315034823492,42.74910765617096 133.39235968858702,45.77578835996974 131.70002048340393,49.740222277483554 131.38478082750225,52.55362855047861 131.63365423999494,55.324356373763294 132.64573945105076,58.308160419241176 133.47531749284826,59.58691558660939 134.55376894713845,60.4607254081202 136.09678410488414,60.82303531904472 137.2084186807624,60.73778600622609 140.17830807040446,58.11634621290432 142.00337976234732,54.684962144398014 142.56749283074168,52.511001572638634 142.7168168782955,50.1025578356639 141.80428103229497,45.81841723364778 140.8087873821496,43.836161912971875 140.0123924620566,42.98357099905843 138.70165915600955,42.38675450316805 137.0922777550295,42.38675450316805 136.1963334698812,42.706477918458404 135.01833265053574,43.66564411424042 133.57486685778713,45.4134424491931 133.2430356410914,46.43653455346066 132.2973166735028,47.71538996389427 131.38478082750225,51.99947690285626 131.6170626792591,55.30304327630438 132.14799262600718,57.0933330096741 133.04393691103905,59.03278967300139 134.02283900039038,60.11972705318476 134.80264235963114,60.56728723658307 136.42861532157985,60.844347639751504 138.18732077017194,60.14103947284457 140.11194182711188,58.18028430864797 141.9204219582025,54.8554675362102 142.51771814824315,52.638882470157114 142.73340843914775,50.18781313514046 142.20247849239968,47.11859211631236 141.3065342072514,44.6461188349931 140.49354772630613,43.409867056048824 139.33213846787112,42.59990352169552 137.54024989751633,42.280179881388904 136.11337566567818,42.74910765617096 135.13447357632685,43.6016998901614 133.42554281029152,45.71184502696269 132.4134575993521,47.60881909217278 131.8991192134563,48.86635059976834 131.36818926665,52.340493541327305 131.99866857845336,56.70970127693727 132.8448381810449,58.64916285286017 133.90669807454105,60.01316490977479 134.76945923798485,60.56728723658307 136.4452068823739,60.82303531904472 137.29137648508186,60.67384899011813 138.70165915600955,59.69347802986158 140.36081523966277,57.81796807577484 141.7047316672979,55.45223489571072 142.60067595244618,52.340493541327305 142.7168168782955,50.23044076687074 142.2854362965445,47.41699133411748 140.69264645630028,43.64432937584934 139.96261777955806,42.91962648702611 138.36982793937204,42.322809739096556 136.94295370747568,42.429384330884204 135.8313191314228,42.96225616472657 133.35917656699894,45.86104609532049" stroke="#4DD2FF" stroke-linecap="round" stroke-linejoin="round" stroke-width="0.5"><title>2024-12-27 16.0km</title><desc>1735261057000</desc></polyline><polyline fill="none" points="147.25,59.4085882849613 147.91393442614935,60.112188059138134 152.72745901637245,60.794463507816545 154.35409836057806,60.28275720930833 154.5864754098002,58.66234252990398 155.44959016388748,58.02270038591814 157.20901639340445,57.233804689429235 159.3502049180679,56.78605125065951 159.76516393438214,60.81578456610441 161.79016393440543,62.713346736476524 165.60778688522987,61.66862443671562 167.58299180329777,61.9457963611203 169.07684426225023,62.58542194389156 172.21393442625413,61.13560008005879 174.10614754102426,60.96503188998031 176.7784836065839,61.3274890644534 177.57520491810283,60.154830364655936 178.37192622956354,59.728406769179855 180.21434426232008,60.70917924474634 182.32233606558293,60.53861057460017 183.86598360654898,59.4725520357606 185.2104508197517,58.044021834182786 186.3391393442871,55.9971491151955 187.33504098368576,53.43851932960388 187.7168032786576,50.26149387669284 187.11926229513483,46.95646381142433 186.13995901646558,44.39768133897451 185.17725409840932,43.09695034685137 183.2352459016838,42.329300586425234 181.2434426229447,42.649155126011465 178.786885245936,45.20796713118034 176.92786885245005,48.91816777297936 176.36352459015325,52.37241083275876 176.96106557379244,56.444904885371216 178.4881147541455,59.66444312635576 180.23094262299128,60.70917924474634 182.3887295082095,60.53861057460017 183.8161885246518,59.53651575963886 185.2436475410941,58.02270038591814 186.28934426233172,56.25300971728575 187.36823770496994,53.37455303130264 187.733401639387,50.090913444393664 186.85368852462852,45.9756023051159 185.90758196730167,43.907243096182356 184.81209016399225,42.81974393763812 183.33483606559457,42.3079769264732 182.32233606558293,42.3079769264732 181.0442622951232,42.862391110524186 178.58770491799805,45.46384595465497 176.99426229513483,48.70494031190174 176.34692622959847,52.32976633681392 176.8116803279263,55.933183897155686 177.57520491810283,58.12930759746814 178.5047131147585,59.6857643435942 179.66659836069448,60.47464727376064 181.2434426229447,62.67070515091473 180.7288934426615,62.222967778507154 180.7288934426615,61.30616807822662 181.2600409836159,60.77314244657464 183.03606557374587,60.1761515129474 185.09426229516976,58.12930759746814 187.01967213116586,54.61123001156375 187.75,50.28281641725334 187.26864754105918,47.425569243510836 186.72090163931716,45.57046200356854 185.44282786885742,43.37415624881396 183.86598360654898,42.39327154835337 182.57131147541804,42.3079769264732 181.12725409836276,42.77709675270307 180.06495901639573,43.651361643569544 178.43831967219012,45.69840116321575 178.28893442632398,46.444710774332634 177.80758196726674,46.7645566251158 177.3428278688807,47.78805880981963 176.72868852462852,49.77107461614651 176.34692622959847,52.41505531666917 176.92786885245005,56.38093985633168 178.4549180328031,59.57915822722134 179.74959016399225,60.53861057460017 180.81188524590107,60.75182138227683 182.670901639387,60.410683945941855 183.50081967219012,59.7923703850538 185.31004098360427,57.916093099396676 186.28934426233172,56.27433141465008 187.61721311480505,52.073899109323975 187.75,50.240171333178296 187.4346311475383,48.001287561288336 186.75409836065955,45.65575478869141 185.8079918033327,43.75797896801669 184.71249999996508,42.77709675270307 183.68340163934045,42.37194789740897 182.4219262294937,42.3079769264732 181.17704918043455,42.73444955580635 178.35532786883414,45.762370702504995 176.86147540988168,48.982135952755925 176.36352459015325,52.4576997885888 176.54610655742,54.63255193991063 177.16024590173038,57.148518422138295 178.23913934425218,59.32330324179202 179.46741803287296,60.410683945941855 180.36372950818622,60.75182138227683 181.39282786886906,60.794463507816545 182.80368852458196,60.32539946684847 185.40963114757324,57.78816425657715 187.33504098368576,53.6090959928697 187.66700819676043,49.57917099505721 186.88688524597092,46.03957172730588 186.23954918037634,44.46165142749669 185.4926229508128,43.37415624881396 184.31413934426382,42.56386064819526 182.52151639346266,42.286653263508924 181.12725409836276,42.71312595294148 178.40512295084773,45.719724345981376 176.86147540988168,49.088749525748426 176.34692622959847,52.37241083275876 176.5129098360776,54.48329837823985 177.641598360613,58.29987897985848 178.52131147542968,59.64312190603232 179.78278688527644,60.53861057460017 181.39282786886906,60.730500315039535 182.57131147541804,60.410683945941855 185.17725409840932,58.065343279522494 187.03627049189527,54.52594226801011 187.68360655743163,51.412906771482085 187.68360655743163,49.62181626519305 187.13586065574782,46.743233589368174 186.45532786886906,44.93076458477299 185.57561475405237,43.438126769528026 184.430327868904,42.60650789304054 182.62110655743163,42.3079769264732 181.19364754098933,42.71312595294148 179.26823770493502,44.48297478436143 178.30553278687876,45.9116328558157" stroke="#4DD2FF" stroke-linecap="round" stroke-linejoin="round" stroke-width="0.5"><title>2024-12-26 16.2km</title><desc>1735171955000</desc></polyline><polyline fill="none" points="12.25,108.86689544879482 17.55955334979808,109.57689357822528 19.016749379516114,109.12507696826651 19.18424317613244,107.46840464207344 19.586228287778795,107.14567417785292 21.830645161273424,106.11293211435259 23.991315136372577,105.51049602252897 24.22580645151902,105.57504286018957 24.493796525988728,109.25416756446066 26.47022332495544,111.49172058222757 27.40818858559942,111.51323535612028 28.664392059494276,110.7387015876011 30.85856079403311,110.37294816639042 33.957196029718034,111.3626318750903 35.866625310038216,110.24385851468833 37.62531017360743,109.77052885950252 41.71215880889213,110.13628372177482 42.98511166247772,108.69477419364557 45.799007444118615,109.64143869922555 47.33995037217392,109.34022790142626 49.14888337464072,107.94174142410338 51.410049627767876,104.8004790097184 52.364764267986175,102.11099072778597 52.716501240676735,98.86202578556549 52.14702233247226,95.50540670880582 50.723325062019285,92.44995860145718 49.6681141438894,91.43863486078044 47.875930521055125,90.98676464386517 45.76550868479535,91.58925796956464 43.470843672403134,94.17134532773343 42.063895781640895,96.79642276770028 41.276674937980715,100.84153582293948 41.51116625301074,104.15500613680342 43.286600496212486,108.28598543605767 44.07382133998908,108.99598626303487 45.24627791560488,109.51234842995473 47.4906947890413,109.27568265328591 49.165632754331455,107.89871086808853 50.55583126551937,106.19899421936134 52.06327543425141,103.14375982363708 52.716501240676735,98.7759595503594 52.197270471428055,95.50540670880582 51.12531017366564,93.11699825813412 50.137096774124075,91.73988092997752 48.67990074434783,91.09435291195405 47.55769230768783,91.00828230357729 46.217741935513914,91.30952922087454 44.76054590562126,92.51451095350785 43.45409429282881,94.10679367528064 42.11414392053848,96.71035536959243 41.293424317613244,100.23907895955199 41.46091811405495,103.40195100751589 41.96339950361289,105.61807407009474 43.018610421859194,107.81264971976634 43.906327543372754,108.86689544879482 45.06203473941423,109.42628818991943 46.70347394543933,109.51234842995473 48.93114143918501,108.13537877619092 50.52233250607969,106.19899421936134 51.69478908187011,104.13349032741098 52.51550868485356,101.22882826719433 52.73325062036747,98.73292641456646 52.13027295283973,95.44085561970132 51.02481389575405,92.90182449333952 50.120347394491546,91.71836337330751 48.61290322575951,91.09435291195405 47.03846153843915,91.0513176137465 45.84925558307441,91.52470522685326 44.35856079403311,92.98789403559931 42.080645161215216,96.79642276770028 41.44416873448063,99.20629024184018 41.276674937980715,101.4439903122693 41.96339950361289,105.59655846665555 43.119106699712574,107.98477196798194 43.75558312656358,108.69477419364557 44.71029776666546,109.31871282169595 46.51923076919047,109.55537853180431 47.624689826217946,109.16810717906628 48.69665012403857,108.35053110199806 50.52233250607969,106.17747869764571 51.778535980090965,103.91833206723095 52.549007444118615,101.1427633643616 52.75,98.79747611367202 52.16377171210479,95.46237265241507 50.974565756798256,92.79423749737907 50.10359801480081,91.67532825084345 48.41191066999454,90.98676464386517 46.97146401985083,91.00828230357729 45.86600496270694,91.50318763985706 44.39205955329817,92.90182449333952 42.0136476426851,96.8609732844343 41.25992555828998,101.46550650014251 41.76240694784792,104.92957325725001 43.33684863516828,108.37204631793429 44.64330024813535,109.27568265328591 45.86600496270694,109.59840862159035 47.2227047146298,109.36174297805701 48.210918114113156,108.78083484541276 50.42183622828452,106.34960278663493 51.44354838703293,104.64986891642911 52.09677419351647,103.05769599876658 52.61600496270694,100.45424239757995 52.716501240676735,98.84050923127506 52.364764267986175,96.32305147862644 51.527295285253786,93.82706953307206 50.67307692300528,92.38540622212167 50.00310173694743,91.54622281076445 48.579404466436245,91.0297999602335 47.289702233159915,90.98676464386517 45.98325062036747,91.41711726167705 43.80583126551937,93.61189676776121 43.25310173694743,94.62320613155316" stroke="#4DD2FF" stroke-linecap="round" stroke-linejoin="round" stroke-width="0.5"><title>2024-12-22 13.5km</title><desc>1734819430000</desc></polyline><polyline fill="none" points="57.25,108.15424079260265 57.68262119963765,108.75270613451721 62.60784716514172,109.52215810930647 64.30505340994569,109.03056424169336 64.58792111749062,107.14966866771283 69.130443713977,105.52524010968045 69.39667214459041,105.71760755624564 69.64626129821409,108.81682728127635 70.61133935902035,110.63358185827383 71.64297452755272,111.42439765082963 72.30854560394073,111.48851766982989 73.85599835659377,110.74044909779332 75.73623664746992,110.3771001764253 79.23048479866702,111.23203743157501 81.24383730482077,110.12061806152633 83.0408792112139,109.65039972616069 84.77136400988093,109.67177331840503 86.61832374695223,110.12061806152633 88.01602300739614,108.53896878310479 90.97781429742463,109.52215810930647 92.45870994252618,109.15880627356819 93.9895234182477,108.02599791258399 96.5686113393167,104.30690728987975 97.38393590797205,101.97708573733689 97.75,98.87772644263168 97.00123253901256,95.17978743057756 95.75328677071957,92.46505812610849 94.77156943303999,91.48175837486633 93.27403451112332,91.03285854558635 91.41043549712049,91.28937289623718 90.31224322103662,91.99478512634232 88.76479046838358,93.7689892815979 87.53348397702212,95.90655712000444 86.63496302382555,98.38609812190407 86.3354560394655,100.9724727559078 86.90119145438075,105.3542466192448 88.66495480691083,108.49622127674229 89.67995069839526,109.22292724893487 91.1442070666235,109.50078449596185 92.70829909620807,109.03056424169336 93.72329498763429,108.26110977663484 96.25246507802512,104.99088481295621 97.01787181594409,103.21681174630066 97.60024650784908,100.48085121571785 97.6834428923321,98.81360109978414 97.28410024649929,96.2271897008759 95.7033689400414,92.46505812610849 94.68837304849876,91.50313452408591 93.54026294167852,91.161115775074 92.04272801970365,91.09698717383435 90.62838948227,91.7596480804059 88.83134757605148,93.72623761792784 87.60004108463181,95.75692835057271 86.60168446996249,98.42884847384994 86.3354560394655,100.71597475961607 86.45193097781157,103.21681174630066 87.08422350039473,105.86722651295713 87.81635168450885,107.32066013691656 88.48192276095506,108.36797868540452 89.64667214459041,109.22292724893487 91.01109285122948,109.52215810930647 92.44207066553645,109.18017993505055 95.03779786359519,106.78631115658209 96.91803615452955,103.43055658716185 97.51705012324965,101.10072159163246 97.66680361545878,98.66397519441671 97.28410024649929,96.26994066053885 96.5020542316488,93.98274741927162 95.68672966316808,92.46505812610849 94.57189811015269,91.39625374777825 92.97452752670506,91.03285854558635 91.29396055871621,91.33212524582632 88.76479046838358,93.7689892815979 86.8679129005759,97.65934029784694 86.30217748560244,101.35721893818118 87.06758422357962,105.88860063762695 88.18241577647859,107.96187643198937 89.28060805262066,109.03056424169336 91.01109285122948,109.52215810930647 92.17584223503945,109.28704819720588 93.47370583395241,108.49622127674229 95.10435497126309,106.74356315692421 96.95131470827619,103.30230971869605 97.51705012324965,101.05797199172957 97.65016433846904,98.70672546813148 97.31737880030414,96.50507072337496 96.51869350858033,94.02549901072052 95.73664749390446,92.46505812610849 94.72165160230361,91.46038222259085 93.37387017253786,91.05423475804855 91.8763352506212,91.161115775074 90.67830731300637,91.71689585111744 89.71322925225832,92.63606612864533 87.48356614628574,95.9279326464166 86.63496302382555,98.34334775792377 86.31881676259218,100.80147413979284 86.95110928511713,105.4397433885315 88.68159408384236,108.58171627743286 89.67995069839526,109.24430090136593 91.29396055871621,109.50078449596185 92.14256368111819,109.3297954810696 93.50698438781546,108.43209999457758 95.02115858672187,106.85043313344067 96.2358258011518,104.99088481295621 97.50041084637633,101.14347117947182 97.6834428923321,98.70672546813148 97.36729663104052,96.80432664066029 96.98459326208103,95.17978743057756 95.7033689400414,92.46505812610849 94.68837304849876,91.46038222259085 93.27403451112332,91.05423475804855 91.95953163522063,91.11836337728892 90.71158586686943,91.6741436097218 88.34880854561925,94.49576572229853 87.50020542310085,95.9279326464166 86.63496302382555,98.47159881370317 86.31881676259218,100.65185019280761 86.48520953167463,103.30230971869605 87.61668036156334,107.0000509742822 88.56511914543808,108.45347375834535 89.67995069839526,109.24430090136593 91.01109285122948,109.52215810930647 92.4753492193413,109.20155359354976 95.05443714052672,106.78631115658209 96.88475760066649,103.49467998075124 97.4172144617769,101.63509057475312 97.6834428923321,98.74947572976816 97.10106820048532,95.67142613045871 95.67009038617834,92.40093007555697 94.6550944946357,91.43900606733223 93.30731306492817,91.01148233017011 91.97617091209395,91.09698717383435 90.6949465899961,91.6741436097218 88.28225143800955,94.64539573424554" stroke="#4DD2FF" stroke-linecap="round" stroke-linejoin="round" stroke-width="0.5"><title>2024-12-20 16.0km</title><desc>1734644952000</desc></polyline><polyline fill="none" points="102.25,108.6732841237972 107.24360824737232,109.59576305748487 109.04731958766934,109.18815677506791 109.44814432988642,107.32173514108581 111.5524742268608,106.18470846285345 114.1244329896872,105.45529065707524 114.65886597940698,109.50995129915827 115.92814432986779,111.09746101063502 116.56278350518551,111.46215685270727 117.29762886598473,111.48360952208168 118.60030927835032,110.75421706827183 120.7046391752665,110.41097235315829 124.02814432984451,111.31198808214685 126.86731958767632,109.91755672122235 128.1700000000419,109.74593351845397 131.7941237112973,110.13208545307862 133.24711340205977,108.52311260632996 135.3848453608225,109.5314042432583 137.35556701023597,109.42413949247566 139.81061855668668,107.17156229224929 141.91494845360285,103.69609217873949 142.71659793809522,98.9332822226861 141.8481443299097,94.72815514882677 140.87948453600984,92.64700343002914 140.0277319587185,91.70296647859504 138.6248453608132,91.08075710931735 137.3221649484476,91.05930156860268 135.41824742266908,91.85315456647368 133.7147422680282,93.74122076260392 132.47886597941397,95.95108671937487 131.2596907215775,100.17763431894127 131.51020618557232,104.12516685017908 133.213711340155,108.05114401683386 134.2157731958432,109.05943877523532 135.10092783509754,109.44559244866832 137.3221649484476,109.35978060575144 139.09247422678163,107.94387822462886 140.39515463908901,106.37778906253516 142.0986597937881,103.03102405136451 142.75,98.74019219398906 142.3825773196295,96.44454755747574 141.48072164948098,93.78413108616951 139.9275257731788,91.5956891823007 138.42443298973376,91.05930156860268 136.67082474229392,91.14512371360615 135.36814432987012,91.85315456647368 133.8483505154727,93.63394490082283 132.12814432987943,96.74491424202279 131.49350515456172,99.23364400352875 131.30979381443467,101.67942504618259 131.94443298969418,105.47674417179951 133.18030927836662,108.00823770902934 134.2157731958432,109.0165327511495 135.5351546391612,109.5314042432583 137.28876288665924,109.4026865332853 139.7772164947819,107.17156229224929 141.8481443299097,103.69609217873949 142.53288659790996,101.27179759736464 142.73329896910582,98.67582879676775 141.93164948449703,94.7710651945381 140.1446391752106,91.7458773759572 138.608144329919,91.08075710931735 137.08835051540518,91.01639047790377 135.58525773190195,91.66005556908203 134.58319587627193,92.64700343002914 132.161546391726,96.61618573537271 131.2763917525881,100.88562321939389 131.9110309279058,105.26220888909302 132.76278350513894,107.32173514108581 133.93185567006003,108.82345549340243 135.33474226808175,109.44559244866832 136.97144329897128,109.44559244866832 139.19268041237956,107.87951871300174 141.714536082407,104.12516685017908 142.51618556701578,101.27179759736464 142.71659793809522,98.9332822226861 142.3491752576665,96.35872839597869 141.48072164948098,93.71976559628092 140.1613402062212,91.7458773759572 138.57474226801423,91.08075710931735 137.10505154635757,91.0378460247739 135.6520618556533,91.63860010985809 134.83371134015033,92.51827146271535" stroke="#4DD2FF" stroke-linecap="round" stroke-linejoin="round" stroke-width="0.5"><title>2024-12-15 10.9km</title><desc>1734216782000</desc></polyline><polyline fill="none" points="147.25,108.07173728806083 148.19147634587716,108.96284509725228 151.1315252854838,109.17501284701575 152.78323817293858,109.59934745094506 154.46798531810055,109.1537960854912 154.74877650896087,107.2867093783425 156.81341761822114,106.26828870210738 159.3405383360223,105.54690322761599 159.60481239802903,105.65298954330501 159.6378466557362,108.0293034514325 160.1003262642771,109.79029763309518 161.75203915167367,111.3815397467697 162.64396411093185,111.40275619488966 164.22960848291405,110.66017873608507 166.11256117455196,110.38436331991397 169.28384991845815,111.29667392460397 171.414559543191,110.1297640263947 173.49571778142126,109.68421422838583 176.7826264273608,110.04489749975619 178.08747960842447,108.55972555019252 178.91333605221007,108.64459291283856 180.41639477974968,109.4508304753981 182.41496737347916,109.21744636120275 183.75285481236642,108.30512317565444 185.28894779772963,106.67141437565442 186.26345840131398,105.0376878734678 187.3205546492827,102.21575494519493 187.7004486133228,99.39376919751521 187.3535889070481,96.55051209173689 186.2304241435486,93.38891697276267 184.89253670471953,91.73382731588208 183.40599510603352,91.160907431753 181.8699021206703,91.26700387086021 180.59808319743024,91.90358093750547 178.89681892335648,93.87695276158047 177.03038336051395,97.48412481548439 176.38621533446712,101.21851789634093 176.8486949429498,104.7618621718575 178.51692495919997,108.38999068159319 180.54853181075305,109.42961375269806 182.58013866230613,109.1537960854912 185.3384991842904,106.56532877658901 186.32952691678656,104.97403583323467 187.45269168022787,101.70652834010252 187.7169657422346,99.45742359365977 187.3866231647553,96.35954514046898 186.01570146816084,92.90087960407254 184.9586052201921,91.73382731588208 183.17475530179217,91.09724953246769 181.8533849917585,91.18212672552909 181.06056280591292,91.56407350310474 179.40884991839994,93.13428897748236 177.31117455137428,96.67782325812732 176.53486949420767,99.83934940618929 176.60093800979666,103.29785577022994 177.14600326266373,105.90759639622411 178.92985318106366,108.72946022768156 178.92985318106366,109.23866311374877 180.3833605219843,110.04489749975619 181.27528548118426,111.44518908200553 180.763254486199,110.85112757477327 180.89539151714416,110.0024642185017 181.44045676995302,109.4508304753981 182.2828303425922,109.32353009421786 183.4225122348871,108.58094239531783 185.28894779772963,106.62898014496022 186.32952691678656,104.97403583323467 187.45269168022787,101.68531052758044 187.7169657422346,98.43895003010402 186.74245513865026,94.53473762932117 185.73491027730051,92.47649799915962 184.6612969004782,91.52163502004987 183.17475530179217,91.07603022674448 181.4734910277184,91.41553876016405 180.15212071774295,92.39162153474172 178.84726753667928,93.94060948709375 176.98083197389496,97.65387196221855 176.4027324632625,101.3246072576294 177.2120717781363,105.99246525175113 178.53344208811177,108.36877380963415 179.77222675370285,109.25987986334076 181.06056280591292,109.53569733646873 182.46451876015635,109.23866311374877 185.32198205549503,106.60776302513841 186.99021207168698,103.27663818169094 187.61786296899663,101.02755685790908 187.75,98.79966020409483 187.15538336051395,95.8290801178955 186.04873572592624,93.07063191149791 184.46309135400224,91.39431949918799 183.29037520388374,91.05481091799447 181.63866231648717,91.30944242559781 180.20167210447835,92.37040241123759 178.68209624796873,94.30133042413217" stroke="#4DD2FF" stroke-linecap="round" stroke-linejoin="round" stroke-width="0.5"><title>2024-12-10 11.3km</title><desc>1733785667000</desc></polyline><polyline fill="none" points="12.25,157.710915221498 14.666107382567134,156.33370713476324 15.587248322204687,156.12033563673322 16.38758389261784,156.83803845341026 17.308724832255393,156.99321694945684 20.736577181261964,157.4975458552799 22.216442953038495,157.10960070688452 22.578859060420655,155.40262908334262 26.822147651051637,153.6956363216741 27.018456375808455,153.7926251131721 27.22986577183474,157.18718982391874 29.04194630868733,159.20449153792288 29.691275167744607,159.28207947582996 31.08053691277746,158.56438938384235 32.75671140936902,158.25403575440578 35.92785234894836,159.08810954914952 38.05704697989859,157.94368142617168 39.50671140936902,157.6527236089314 42.66275167785352,158.021270073732 44.05201342276996,156.585873024771 45.743288590572774,157.34236792696174 47.706375838955864,157.32297067366017 49.24664429528639,156.217322722252 51.55704697984038,153.13309998516343 52.37248322140658,150.80533901583112 52.68959731544601,148.63272664386022 52.23657718120376,144.90816861603525 51.104026845656335,142.30867785676674 50.19798657717183,141.24170850260998 48.56711409398122,140.73732011446555 47.16275167779531,140.83431802476116 46.468120805337094,141.18350993665808 44.14261744963005,143.86061853614228 42.69295302010141,147.23602917788958 42.4060402684845,149.4474602964765 42.76845637575025,153.1137021395407 44.09731543628732,156.08154078347434 44.656040268426295,156.76044913985243 45.803691275184974,157.3617651775421 46.8758389261784,157.4975458552799 47.85738255031174,157.26477889728267 49.5939597315155,155.82937397090427 51.421140939579345,153.34647610721004 52.538590604031924,150.16519785767014 52.73489932884695,147.70159657245676 52.22147651005071,144.86937060690252 50.89261744968826,142.01768703387643 49.82046979863662,141.04771318717394 48.144295302045066,140.71792052417004 47.23825503361877,140.77611928673286 46.498322147643194,141.2029094613972 44.686241610732395,143.08465038082795 43.07046979869483,146.01390728511615 42.3758389261784,149.64144378968922 42.75335570471361,152.8615298976365 44.14261744963005,156.13973305930267 45.51677852339344,157.22598436604312 46.634228187962435,157.4975458552799 47.88758389261784,157.28417615877697 49.95637583889766,155.4414241277118 51.406040268426295,153.4628629436629 51.99496644292958,152.1826023379399 52.523489932878874,150.18459611825529 52.75,147.74039378437737 52.22147651005071,144.81117357269977 50.635906040261034,141.62969831435475 49.835570469731465,141.02831364057784 48.280201342189685,140.71792052417004 46.72483221482253,141.04771318717394 45.33557046978967,142.3474765867286 44.14261744963005,143.9770133826678 44.58053691271925,144.6559813614731" stroke="#4DD2FF" stroke-linecap="round" stroke-linejoin="round" stroke-width="0.5"><title>2024-12-08 8.9km</title><desc>1733614342000</desc></polyline><polyline fill="none" points="57.25,156.98354925855529 57.74565732333576,156.63439624213788 58.593071456765756,156.5933193617966 59.42449664429296,157.39431644380966 62.286517962871585,157.5996996028989 63.99733517569257,158.0720797721442 65.58024082117481,157.53808468551142 65.8200750098913,155.83339498966234 67.8826490327483,154.84754125964537 70.12110146071063,154.2108405198087 70.50483616266865,154.39568940787285 70.72868140542414,157.41485477275273 71.54411764704855,158.9757593141985 72.6953217528644,159.81781930635043 76.74052506906446,158.79091622671694 78.03562968812184,158.9962974205555 80.0022700355039,159.81781930635043 82.52852348989109,158.40069116205268 84.1753849190427,158.11315623634437 87.1013620213489,158.5855347437173 88.50838926172582,157.0451644100831 91.22651006706292,158.03100329633162 92.82540465844795,157.62023790289823 94.52023292536614,156.18254992224684 96.45489538100082,153.55359813311952 97.5421437031473,150.37003843356797 97.75,147.6588231624046 97.41423213586677,145.52267868582567 96.83863008284243,143.63298635384126 95.52753651794046,141.14759287914785 93.94463087251643,140.3054251580179 92.36172522697598,140.26434368149785 91.16255428345175,140.6751579267875 89.67558231338626,142.07191771025828 87.38916304783197,146.22103705097106 86.76559415709926,150.47273499166477 87.16531780496007,153.36874817866192 88.26855507306755,156.05931886493636 89.14794709830312,157.20947135344613 90.4110738254385,157.8872355401545 91.86606790364021,157.94885031017475 93.35303987370571,157.27108640960068 95.04786814050749,155.5869321814098 96.34297275956487,153.63575359339302 97.49417686538072,150.53435289178742 97.71802210819442,147.74098194095131 97.41423213586677,145.3583585848537 96.59879589412594,142.9551559676911 95.44759178842651,141.1065116396494 94.66413343860768,140.55191377468873 92.93732727994211,140.18218069363502 91.14656533749076,140.7573206370871 89.14794709830312,142.77029258871335 87.48509672324872,145.97455800959142 86.76559415709926,149.1992925634113 87.0853730753879,152.9168917486386 87.91679826291511,155.40208480216097 88.78020134224789,156.83978047056007 89.94739439402474,157.7023910741409 90.93870904063806,157.96938856103225 92.12189103825949,157.96938856103225 93.3690288195503,157.33270143969276 96.10313857084839,154.0259913977643 97.51016581128351,150.30842046397447 97.71802210819442,147.96691834343073 97.49417686538072,145.85131833278865 97.14242005522829,144.22865288201137 95.99121594947064,141.82543166104006 95.01589024870191,140.7367799638305 93.97660876432201,140.28488442125672 92.47364784841193,140.22326219335082 91.22651006706292,140.6751579267875 89.96338333986932,141.80489113817748 88.63630082900636,143.65352661945508 87.59701934462646,145.6664586224506 86.97345045401016,147.82314067319385 86.78158310306026,150.30842046397447 86.98943939985475,152.44449489418184 88.42844453215366,156.36739631310047 89.09998026053654,157.1683946349658 90.2511843664106,157.84615901239158 91.72216739045689,158.01046505414706 92.71348203712841,157.74346764232905 93.81671930517768,157.00408764529857 95.43160284246551,155.1145439690008 97.22236478485866,151.60239236149937 97.70203316223342,147.61774375585082 97.27033162262524,145.0091777559428 96.63077378604794,143.16055944751133 95.91127121989848,141.76381008370663 94.98391235689633,140.7367799638305 93.49694038694724,140.22326219335082 92.00996841688175,140.3054251580179 91.13057639164617,140.7367799638305 89.40377023286419,142.52380771913158 87.54905250691809,145.85131833278865 86.81356099492405,149.40468725502433 87.40515199361835,154.14922417182242 89.17992499016691,157.2505480604159 90.37909593369113,157.8872355401545 91.64222266082652,157.96938856103225 92.71348203712841,157.7023910741409 93.99259771016659,156.73708839251776 95.73539281485137,154.64215422766574 96.99851954204496,152.21856542331807 97.51016581128351,150.349499113232 97.75,147.59720404815744 97.3342874062364,144.98863768114825 95.63945913926,141.33245831372915 93.96061981841922,140.32596589199966 92.56958152388688,140.18218069363502 91.33843268849887,140.59299517024192 89.48371496255277,142.40056512822048 88.90811290952843,142.60596938860544" stroke="#4DD2FF" stroke-linecap="round" stroke-linejoin="round" stroke-width="0.5"><title>2024-12-07 13.6km</title><desc>1733525549000</desc></polyline><polyline fill="none" points="102.25,160.03476651158417 102.56007067125756,161.35220921463042 103.87190812721383,163.25176373032446 105.11219081259333,164.50791164588009 106.04240282683168,164.6610999202967 108.59452296805102,163.58877973606286 111.05123674904462,163.1598501837143 116.1316254416015,164.32408557432063 118.89840989396907,162.85347141466627 121.45053003530484,162.08752260604524 126.93639575969428,162.66964394637034 128.74911660782527,160.52497868116188 132.97084805660415,161.90369449098944 134.33038869255688,161.78114232810913 135.99999999988358,160.8926370840636 139.02915194339585,157.76752087015484 141.10424028267153,154.30532994534587 142.0583038869081,151.39459586009616 142.7022968197707,146.584139493134 141.74823321553413,141.74293596559437 139.76855123671703,137.2693230763398 138.26590106007643,135.92109294499096 135.37985865713563,135.33890007968876 132.78003533557057,136.19686796941096 129.60777385148685,139.7512703476823 127.36572438152507,144.0409890372248 126.43551236751955,149.74005598061194 127.24646643106826,156.05175171789597 129.44081272080075,160.12668137741275 130.9196113073267,161.26029486622429 132.99469964648597,161.84241841817857 135.7376325088553,161.1071041990508 139.02915194339585,157.76752087015484 140.74646643095184,155.1632230929972 141.8436395758763,152.34441862844687 142.75,146.584139493134 141.55742049473338,140.8849899333727 139.74469964660238,137.2693230763398 138.8383392225951,136.31943453470012 136.97791519435123,135.5533923691255 134.68816254416015,135.369541848253 132.97084805660415,136.0743013350293 131.58745583030395,137.2693230763398 129.58392226148862,139.7512703476823 127.79505300347228,142.93792659023893 126.6263250883203,147.13566217804328 126.43551236751955,149.4949378919846 127.0079505299218,155.4389737439633 129.60777385148685,160.31051099277101 130.967314487556,161.26029486622429 132.99469964648597,161.87305645670858 134.52120141335763,161.719866220752 136.47703180206008,160.52497868116188 138.93374558305368,157.9207138868369 140.88957597163972,154.79555501510913 142.39222614839673,150.13837228596094 142.7022968197707,146.4922189097415 142.20141342759598,145.1134055024013 142.34452296816744,143.6733021758264 141.15194346290082,139.84319377726933 139.6492932861438,137.1161155274167 138.1943462897325,135.92109294499096 136.57243816251867,135.369541848253 134.09187279141042,135.4614671281306 132.80388692568522,136.1662263172475 129.24999999988358,140.42537459669984" stroke="#4DD2FF" stroke-linecap="round" stroke-linejoin="round" stroke-width="0.5"><title>2024-12-05 7.7km</title><desc>1733352101000</desc></polyline><polyline fill="none" points="147.25,157.76302146281523 149.6976351350895,156.31792151478294 150.4121621621307,156.2007505891961 150.9746621621307,156.9233030542091 153.83277027023723,157.19670030321868 155.45945945940912,157.70443662245816 157.2229729729006,157.19670030321868 157.4510135134915,155.51725155170425 159.95945945940912,154.38458859226375 161.6621621621307,154.01354181941133 161.92060810810653,154.36505983945972 161.8597972972202,156.4155638771772 162.33108108106535,157.56773856536893 163.15202702698298,158.83707248677092 163.9881756756222,159.3448028046405 167.65202702704119,158.38792488801118 170.78378378378693,159.20810636333772 172.72972972970456,158.1731146529346 174.5996621620725,157.74349318545137 177.6858108107699,158.11452998570167 178.47635135130258,156.94283144702786 178.9628378378111,156.68896212647087 179.76858108100714,157.33339872575016 181.57770270266337,157.6067951668374 182.73310810810653,157.43104037367448 183.75168918911368,156.8061326398165 184.9983108107117,155.51725155170425 186.36655405402416,153.54484974093793 187.08108108100714,151.72865298521356 187.73479729727842,147.8032433069602 186.82263513514772,143.7996016402467 185.24155405402416,141.2801776657725 183.5236486486392,140.694258557196 182.3378378378111,140.83097323717084 181.4256756756804,141.22158586626756 179.64695945940912,143.11604151806387 177.98986486479407,146.10415095278586 177.32094594591763,149.71713851411187 177.71621621609665,153.46673424067558 178.3851351350895,155.14620780728 179.43412162159802,156.68896212647087 180.83277027023723,157.47009701366187 182.15540540538495,157.5482102605456 183.4476351350895,156.98188822435623 184.69425675680395,155.81018012287677 186.82263513514772,152.5488738183194 187.3851351350313,150.55690052805585 187.70439189183526,147.88136199541623 186.8378378378111,143.99490391383006 185.83445945940912,141.9442163312342 185.2111486485228,141.26064706870238 183.5236486486392,140.67472787764564 182.58108108100714,140.75285057937435 181.72972972970456,141.04581031930866 180.58952702698298,141.98327733020415 178.20270270266337,145.59637218840362 177.32094594591763,149.8538443045254 177.7010135134915,153.40814758655324 178.4003378378693,155.20479372759291 179.4493243243778,156.7280189752637 180.33108108100714,157.29434204733116 181.85135135130258,157.626323463468 182.86993243236793,157.35292706087057 184.10135135130258,156.43509234144585 186.74662162159802,152.76369275918114 187.64358108106535,148.9750190160994 187.36993243242614,145.47919220964832 185.75844594591763,141.82703326822957 185.1503378378111,141.24111646888196 183.55405405402416,140.67472787764564 182.50506756751565,140.7919119138096 181.28885135130258,141.3583000266517 179.61655405402416,143.1355718539853 178.23310810799012,145.55731220648158 177.39695945946733,148.62348734229454 177.30574324319605,150.63501766638365 177.65540540538495,153.42767647403525 179.26689189183526,156.57179151415767 181.04560810804833,157.52868195291376 182.44425675668754,157.47009701366187 183.34121621615486,157.040473369736 184.40540540538495,156.1616935920756 185.81925675674574,154.32600232562982 186.74662162159802,152.78322173730703 187.1722972972202,151.47477412575972 187.70439189183526,147.74465426176903 186.79222972970456,143.83866211696295 185.78885135130258,141.8465637855843 184.61824324319605,140.92862649750896 183.55405405402416,140.67472787764564 182.17060810804833,140.85050389477692 180.69594594591763,141.9051553212339 179.40371621615486,143.46758714436146 177.898648648581,146.39709939465683 177.44256756751565,148.42819158319617 177.32094594591763,150.6740762189729 177.7010135134915,153.4472053586942 178.43074324319605,155.24385099411302 179.22128378378693,156.5522630691121 180.04222972970456,157.15764358633896 181.59290540538495,157.6067951668374 182.79391891881824,157.3724553931679 183.82770270266337,156.68896212647087 185.43918918911368,154.98997856549977 186.7618243243196,152.74416377826128 187.41554054053267,150.4397247381421 187.70439189183526,147.76418394628854 186.70101351343328,143.66288988520682 185.81925675674574,141.8856248120719 185.22635135130258,141.26064706870238 183.8125,140.6551971953595 182.50506756751565,140.73331990808947 181.10641891887644,141.41689176847285 179.7989864863921,142.9207380074804 178.14189189183526,145.73308203852503 177.30574324319605,150.02960869435628 177.7010135134915,153.42767647403525 178.44594594597584,155.26337962324033 179.29729729727842,156.61084839591058 180.45270270260517,157.39198372274404 181.5625,157.58726686750015 182.99155405402416,157.25528535792546 185.5,154.95092122752976 186.74662162159802,152.78322173730703 187.14189189183526,151.55289074739267 187.75,147.49076811340638 187.00506756751565,144.36597747626365 186.29054054047447,142.72543422204035 185.45439189189347,141.51454461645335 184.5726351350895,140.92862649750896 183.02195945940912,140.67472787764564 181.51689189189347,141.14346342842327 180.34628378372872,142.19811262816074 179.2364864864503,143.8972528113809" stroke="#4DD2FF" stroke-linecap="round" stroke-linejoin="round" stroke-width="0.5"><title>2024-12-03 16.2km</title><desc>1733178751000</desc></polyline><polyline fill="none" points="12.25,215.15589797403663 15.049539170460775,213.78597410903603 17.23584595124703,213.47774017683696 19.90207373269368,213.75172591365117 23.128209348302335,214.91616185425664 26.30102040816564,213.10100928507745 29.473831468028948,212.34754575234547 34.99292297568172,213.13525757211028 37.25921658985317,210.4638767156721 38.139071757672355,210.42962805271964 41.07192231726367,211.90231620479608 43.4448650428094,211.90231620479608 45.337886767461896,210.9433574898576 47.20424621447455,209.1966729791602 48.67067149432842,207.65547035401687 51.2302501645172,203.16880270664115 52.723337722127326,195.8050085879804 51.2302501645172,188.2012292106665 49.44387755088974,184.50200739019783 47.76415404875297,183.02915342111373 45.31122448970564,182.4468598581443 42.698321264004335,182.8236382050527 40.56533903896343,184.4335027520865 37.6324884792557,188.02997018254246 35.68614219885785,191.93464607038186 34.8596115866676,195.2912471950258 34.513001975021325,197.89429374567408 34.806287030805834,202.51805778266862 35.419519420713186,205.36077280669997 37.445852534496225,209.40216592518846 38.93894009210635,211.1146003946924 41.81846609606873,212.0393099984649 43.258229098049924,212.00506155723997 45.52452271222137,210.8063630792749 48.64400921657216,207.68971940723713 50.723666886100546,204.36753880111792 52.27007899922319,199.70955973051605 52.75,194.81173558313458 51.576859776163474,189.02327086759033 49.89713627391029,185.2213049260754 48.37738643842749,183.40593086638546 44.48469387751538,182.34410202596337 41.87179065158125,183.2346684635413 37.6324884792557,187.96146653758478 35.419519420713186,192.79092626624333 34.48633969714865,199.23005682398798 35.339532587095164,205.2237752538349 37.01925608946476,208.81993546099693 38.69897959183436,211.01185466621246 40.645325872232206,211.79957080892927 43.17824226454832,211.97081311127113 46.617676102672704,209.88164879109536 50.96362738648895,203.75104668994027 52.323403554968536,198.85330387754948 52.75,194.74323384724266 51.33689927577507,188.33823634628789 49.44387755088974,184.53625970208668 47.57751810387708,182.89214329632523 44.431369322002865,182.34410202596337 42.45836076361593,182.8236382050527 40.96527320612222,183.9197173516004 37.65915075712837,187.96146653758478 35.65947992098518,191.93464607038186 34.379690585890785,198.99030501650122 35.419519420713186,205.2237752538349 37.23255431209691,209.02542872510094 38.85895325872116,211.01185466621246 40.83196181699168,211.79957080892927 43.20490454242099,211.86806774428987 45.12458854506258,211.14884896112198 46.990947992075235,209.53916112615843 50.59035549708642,204.43603782821447 52.350065832724795,199.12730607829872 52.69667544437107,194.88023729983252 51.97679394320585,190.49608855860424 50.77699144161306,186.96816151849634 48.13742593803909,183.2004159685457 44.3780447661411,182.37835464150703 41.41853192879353,183.50868825020734 37.7924621461425,187.7902073408186" stroke="#4DD2FF" stroke-linecap="round" stroke-linejoin="round" stroke-width="0.5"><title>2024-12-01 10.0km</title><desc>1733006314000</desc></polyline><polyline fill="none" points="74.80026008654386,218.76725554594304 78.06169085437432,218.62760879498092 80.27221615263261,217.3707853827218 87.19369700411335,208.52633744623745 89.7666034984868,198.75061985451612 89.25926982378587,190.79017925538938 86.10655341483653,182.41056111850776 83.96850435598753,180.12940608503413 81.21440726332366,178.8724363843503 77.88050025631674,178.73277278931346 74.54659324907698,180.3156234122289 69.54573273845017,186.22796904167626 66.90035000466742,191.67468211628147 65.66825393703766,196.3299213470018 65.19715838157572,200.37992618302815 65.63201581733301,206.75741948134964 68.45858914940618,214.39162933151238 70.34297137078829,217.0914906426915 73.9305452152621,218.8603533472051 76.4672135899309,219.0 79.43873940082267,217.78972705063643 82.66393204894848,214.95022313474328 86.68636332917958,209.22459193356917 89.15055546490476,202.84714620254817 89.8390797378961,194.65404277155176 88.53450743085705,187.717677255132 87.19369700411335,184.4589318234939 84.80198110779747,180.87427476464654 82.55521769006737,179.24487234911066 77.84426213661209,178.63966369320406 76.10483239381574,179.24487234911066 72.80716350651346,182.0846827912901 69.54573273845017,186.22796904167626 67.48015991901048,190.09188585251104 65.92192077450454,194.93335645712796 65.26963462098502,200.98509506089613 65.63201581733301,206.52466641340288 68.38611290999688,214.39162933151238 70.19801889220253,216.9052940183028 72.55349666881375,218.39486407881486 75.81492743664421,218.9534511222737 78.89516760618426,218.20866818804643 83.85978999710642,213.46063756314106 87.41112572187558,207.87463192813448 88.89688862720504,203.73161682279897 89.91155597707257,194.93335645712796 88.53450743085705,187.57801739516435 87.19369700411335,184.31927058755537 84.98317170585506,180.87427476464654 82.62769392924383,179.198317876464 78.53278640983626,178.63966369320406 75.85116555611603,179.38453572787694 74.11173581355251,180.64150348250405 69.43701837980188,186.27452252488 66.82787376549095,191.72123483286123 65.74073017621413,195.6316396391776 65.55953957792372,205.45400019118097 66.17558761197142,208.99184060154948 68.42235102970153,214.2985302725283 69.8356376956217,216.53290045508766 72.5897347885184,218.39486407881486 75.3438318814151,219.0 78.64150076848455,218.20866818804643 80.81578794703819,216.81219566683285 84.22217119345441,212.99514069629367 87.80974503792822,207.1763745910721 89.25926982378587,202.61439038306708 89.98403221648186,195.67819179879734 88.53450743085705,187.6245706883492 85.88912469684146,182.17779091754346 83.35245632193983,179.570753474487 78.46031017042696,178.59310913539957 76.64840418845415,179.01209992033546 74.47411700990051,180.4087320365361 70.8865431654267,184.22616306398413 66.64668316743337,192.2798669213371 65.5233014584519,197.0747535438568 65.26963462098502,202.1023270036385 66.10311137279496,208.8521897237806 67.29896932072006,212.06414499765378 69.79939957614988,216.4398019987857 72.5897347885184,218.4414130351215 75.56126059917733,219.0 78.7502151275985,218.25521717051743 81.54055033996701,216.11395719545544 85.12812418444082,211.7848457772052 88.4982693111524,205.40744940727018 89.8390797378961,199.4954466004856 89.87531785760075,194.46783351688646 87.33864948269911,184.598593000439 85.52674350049347,181.4794793316396 83.1350276041776,179.2914268152963 79.80112059717067,178.5 75.85116555611603,179.47764461443876 72.62597290822305,182.13123685773462 69.4732564992737,186.22796904167626 66.39301632973365,192.9316031653725 65.01596778351814,201.17130064679077 65.92192077450454,208.71253878687276 68.60354162799194,214.95022313474328 70.37920949049294,216.95184318415704 73.24202094227076,218.72070663547493 76.6121660687495,218.8603533472051 79.40250128111802,217.74317800271092 85.091886064969,211.6451960784034 86.94003016664647,208.89874002282158 88.93312674690969,203.87126986248768 89.94779409677722,195.39887874235865 89.33174606296234,190.92983775917673 87.37488760240376,184.7848078114621 85.34555290243588,181.293262659834 82.48274145065807,179.15176339738537 78.6777388881892,178.54655457104673 75.05392692401074,179.80352551021497 69.40078026009724,186.3210760015936 70.52416196884587,188.36942248878768" stroke="#4DD2FF" stroke-linecap="round" stroke-linejoin="round" stroke-width="0.5"><title>2024-11-29 13.9km</title><desc>1732833187000</desc></polyline><polyline fill="none" points="102.25,206.40962873533135 104.69579894980416,205.04366760197445 105.51612903230125,204.94609843473881 106.23012002999894,205.6876223840518 110.71155288821319,206.33157417585608 112.23068267072085,205.8047047504515 112.44336084026145,204.24359840410762 114.43342085526092,203.24838393535174 116.52981995494338,202.60441782601993 116.87921980489045,202.83858766633784 116.83364591147983,205.29734711551282 117.19823705928866,206.31206052911875 118.26162790699163,207.59995532334142 119.40097524377052,208.10730453403085 121.0720180044882,207.32676651793008 122.63672168034827,207.07309071683267 124.24699924979359,207.3072530112695 125.62940735177835,207.91217044189398 127.19411102775484,207.1121177933819 129.29051012755372,206.50719687284436 130.67291822953848,206.42914236830256 132.708552138065,206.81941445164557 133.66560390091036,205.60956741819973 134.394786196528,205.4144298114261 136.41522880713455,206.31206052911875 137.9951237809728,205.980328114616 140.3193923480576,203.87283306429163 141.41316579136765,202.17510542512173 142.40060014999472,199.48211550118867 142.73480870219646,196.51586317176407 142.12715678918175,193.33487733431684 141.01819204800995,190.81735828287492 139.62059264810523,189.64640361424244 138.02550637657987,189.39269546596915 136.81020255060866,189.70495158257836 135.77719429857098,190.48558879746997 134.12134283565683,192.63231847628776 133.01237809454324,194.7790149187349 132.37434358586324,197.84287863667123 132.72374343581032,202.05801999421965 134.1517254312639,205.12172288633883 135.1391597899492,205.92178701800003 136.47599399852334,206.29254687967477 137.41785446356516,206.21449225430842 138.48124531132635,205.70713611863903 140.3193923480576,203.8338050761231 141.41316579136765,202.17510542512173 142.41579144785646,199.44308627728606 142.68923480861122,196.1450771689706 141.6106526631047,191.96878739725798 140.896661665407,190.66123156511458 139.7117404351011,189.64640361424244 138.58758439606754,189.39269546596915 137.3267066766275,189.5293076034577 136.3544636158622,190.05623887313413 134.94167291821213,191.383316161111 132.9971867966815,194.83756071978132 132.31357839459088,198.87716129544424 132.7845086271409,202.15559119345562 134.2124906226527,205.1412367005978 135.04801200301154,205.8827596064075 135.929107276781,206.23400591475365 137.934358589584,206.0388691866392 140.44092273066053,203.71672104566824 141.99043510877527,200.88716024745372 142.75,196.61343827091332 142.2486871717847,193.66664000201854 140.85108777187997,190.60268400057976 139.66616654157406,189.64640361424244 138.48124531132635,189.39269546596915 137.17479369835928,189.58785562125558 135.97468117024982,190.29042990577 134.94167291821213,191.2467058502807 133.51369092270033,193.76421710620343 132.69336084020324,195.96944134791556 132.34396099025616,198.1160861264798 132.76931732933735,202.11656272195978 133.96942985750502,204.8485291988618 135.07839459861862,205.8827596064075 136.4000375092728,206.31206052911875 137.41785446356516,206.25351957249222 138.5420105025987,205.6876223840518 140.47130532632582,203.73623505764408 141.41316579136765,202.15559119345562 142.5373218304594,199.03327876249386 142.7196174043347,196.57440823951038 142.52213053259766,195.0327132113598 141.38278319576057,191.32476890154066 140.25862715678522,190.01720699593716 139.210427606944,189.4512435413926 137.9951237809728,189.39269546596915 136.70386346592568,189.7830155018164 134.86571642907802,191.53944206582673 134.394786196528,192.37861579158925" stroke="#4DD2FF" stroke-linecap="round" stroke-linejoin="round" stroke-width="0.5"><title>2024-11-27 11.3km</title><desc>1732665796000</desc></polyline><polyline fill="none" points="147.25,206.931681738919 148.03202747856267,206.75781980945612 150.0923691050848,205.52146196106332 150.8593575937557,205.46350741374772 151.61130709241843,206.17827845434658 156.12300408468582,206.75781980945612 157.5517081322032,206.3521411177935 157.71713702188572,204.90327886136947 158.12318975117523,204.51691301050596 160.25872632744722,203.5123567092087 161.89797623467166,203.1839424778591 162.21379502408672,203.58963053183106 162.37922391382745,206.7385018037312 162.7551986631588,207.20213319151662 172.9516338655376,207.41463038772054 175.05709246190963,206.931681738919 177.79418863717,207.2794049373333 178.8168399554561,206.04305178613868 179.53871147416066,205.79191619183985 181.25315633119317,206.68054777014186 183.08791310811648,206.5260035610263 184.57677311549196,205.30896183454024 186.63711474195588,202.43051862544962 187.52441515034297,199.62929111212725 187.70488303009188,197.94852716608148 187.1634793910198,193.9880249942944 186.3363349424326,191.95943084699684 185.614463423728,190.91614218284667 184.80235796514899,190.35585425705358 182.98264017823385,190.0853696122649 181.6441700704745,190.58769781411684 180.80198663199553,191.302546316394 179.38832157442812,193.11863117362373 178.275436316384,195.22448672137398 177.53852580761304,198.5087841013301 177.98969550686888,202.93280165316537 179.4033605643781,205.71464360882237 180.8170256220037,206.62259371214896 182.3660415893537,206.75781980945612 183.40373189753154,206.37145917795715 184.6820460453746,205.21237075922545 186.99805050127907,201.54185953582055 187.73496100999182,197.6780574823788 187.11836242111167,193.83346649532905 186.23106201260816,191.84351027592493 185.44903453392908,190.80022073069995 184.15568139625248,190.1819713323639 182.74201633868506,190.1046899617504 181.5990531006246,190.6263383688638 180.26058299298165,191.8628303778969 178.30551429634215,195.08924926245527 177.53852580761304,199.06903875002172 177.65883772738744,201.59981573876576 178.14008540660143,203.26121648536355 179.49359450431075,205.8305524670286 181.04261047160253,206.69986578407406 182.44123653921997,206.7191837952414 183.16310805792455,206.5260035610263 184.59181210550014,205.27032541255176 186.8626995914965,201.81232160684885 187.4642591905431,199.80316206991847 187.75,197.13711651622725 186.96797252132092,193.46638936268573 186.23106201260816,191.82419017117354 185.22344968438847,190.6263383688638 184.05040846636984,190.12401030850015 182.772094318585,190.0853696122649 181.6441700704745,190.5490572484705 180.3357779427315,191.74690972524695 179.2830486445455,193.19591084735293 178.18520237650955,195.39836325850047 177.6287597474875,197.48486452488578 177.49340883776313,199.552015060166 178.12504641665146,203.31917196238646 179.35824359452818,205.6760073010082 179.95980319351656,206.19759653895744 181.28323431120953,206.7385018037312 182.93752320826752,206.60327568731736 185.3287226142129,204.38168470580422 187.07324545120355,201.23275937361177 187.75,197.38826794418856 186.96797252132092,193.42774960743554 185.40391756402096,190.72293970819737 184.23087634606054,190.1819713323639 183.012718158192,190.0853696122649" stroke="#4DD2FF" stroke-linecap="round" stroke-linejoin="round" stroke-width="0.5"><title>2024-11-24 10.4km</title><desc>1732400098000</desc></polyline><polyline fill="none" points="12.25,255.28454437210166 14.676966292143334,253.82320806576172 15.435393258463591,253.76475429271522 16.315168539294973,254.44671344281232 20.774719101085793,255.10918482964917 22.276404494419694,254.68052723539586 22.48876404494513,253.0438223962119 23.82359550561523,252.43979548489733 26.933146067429334,252.5372193584335 27.297191011253744,255.08970042236615 28.176966292143334,256.27824425128347 29.01123595511308,256.8043177709915 29.72415730333887,256.84328610028024 31.665730337030254,255.98598032123118 33.10674157302128,255.84959027609148 35.88258426968241,256.66792853182415 37.55112359550549,255.71320009659394 39.32584269659128,255.22609121598362 42.75393258430995,255.5573254412302 43.95224719098769,254.1544456469128 44.72584269661456,254.797433983651 46.39438202243764,255.03124718397157 47.425842696568,254.9727939208824 48.472471910121385,254.52465141758148 50.36853932583472,252.5956736497319 51.369662921351846,251.01739912398625 52.49213483143831,247.82182524321252 52.719662921270356,245.2886959825846 52.35561797750415,242.75552037503803 50.793258426943794,239.28694320870272 49.640449438244104,238.42952871561283 47.98707865172764,238.15671389971976 46.98595505615231,238.44901546764595 46.04550561803626,239.13105005947 43.58820224722149,242.48271408361325 42.526404494361486,245.7563541035779 42.37471910112072,247.35417409871297 42.6325842696242,250.23799766082084 43.39101123594446,252.38134112779517 44.3162921348121,253.9985692368209 45.01404494384769,254.66104276779515 46.51573033712339,255.05073159949097 47.86573033698369,254.85588732073666 48.97303370787995,254.11547656085168 50.38370786514133,252.57618888875004 51.43033707863651,250.9589441664575 52.15842696628533,249.20528396425652 52.68932584265713,246.3019532483013 52.34044943819754,242.6970619292406 51.65786516852677,240.84586504615436 50.444382022484206,238.89721000652935 49.56460674153641,238.4100419608876 47.97191011236282,238.17620069009718 46.92528089880943,238.4100419608876 46.06067415734287,239.05310341902077 44.57415730331559,240.78740579404985 43.497191011265386,242.56065879311063 42.966292134835385,243.86622615488886 42.38988764048554,246.86703581019538 42.678089887602255,250.25748275087972 43.406179775251076,252.43979548489733 44.34662921348354,254.0375383557839 45.21123595506651,254.7000117002608 46.697752808977384,255.07021601230372 48.078089887683745,254.73898062182707 48.89719101128867,254.1544456469128 50.444382022484206,252.5177345892298 51.44550561794313,250.90048918419052 52.58314606739441,247.41263057816832 52.719662921270356,245.24972440119018 52.34044943819754,242.71654808059975 51.64269662916195,240.80689221413922 50.6264044943382,239.05310341902077 49.594943820207845,238.39055520347029 48.32078651682241,238.17620069009718 46.940449438174255,238.546449186455 45.68146067415364,239.44283618235204 44.28595505619887,241.1771336752281 43.07247191015631,243.63239409965172 42.46573033701861,246.16555366368266 42.405056179792155,248.2699894411926 42.723595505638514,250.62769894083613 43.42134831455769,252.5177345892298 44.331460674118716,254.0375383557839 45.75730337074492,254.933825065149 47.3348314606701,254.9727939208824 48.65449438197538,254.34929091270897 50.48988764046226,252.45928026508773 51.58202247193549,250.64718397604884 52.15842696628533,249.24425443232758 52.62865168537246,246.96446360500704 52.75,245.3081817691418 52.35561797750415,242.67757577520388 51.26348314603092,239.96897367252677 50.6264044943382,239.09207674473873 49.24606741574826,238.29312137483794 47.51685393258231,238.25414782427833" stroke="#4DD2FF" stroke-linecap="round" stroke-linejoin="round" stroke-width="0.5"><title>2024-11-21 10.8km</title><desc>1732142576000</desc></polyline><polyline fill="none" points="57.25,254.94366457602882 59.451585503993556,253.52965984283946 60.17015855043428,253.45110360425315 61.056908267200924,254.1973860853468 63.67129105323693,254.35449767817045 65.3224801812321,254.78655364643782 66.86664779158309,254.4723312567221 67.20300113252597,252.6851779610006 71.46857304644072,251.11403528139635 71.72848244628403,251.44790458072384 71.98839184595272,254.49197017679398 73.83833522081841,256.966451997112 74.51104190264596,257.2413917134836 74.60277463198872,256.5344027770916 77.14071347680874,255.6113840535545 78.5778595697484,255.65066157039837 80.81002265005372,256.3380163258553 82.6905436013476,255.297163520896 83.92893544741673,254.96330342975853 85.45781426958274,254.88474799817777 87.65939977351809,255.27752471409622 88.85192525479943,253.94207936985185 91.17582106456393,254.72763700228825 92.91874292190187,254.5116090941301 95.31908267276594,252.35131162150356 96.4351642128895,250.5444916919805 97.38306908268714,248.01097652495082 97.75,244.88820850051707 97.36778029450215,242.31530938411015 95.74716874287697,238.79959190941008 94.56993204983883,237.95502088523062 93.086919592286,237.7782495588035 91.12995469989255,238.58353934327897 89.1729898074991,240.8226133434364 87.6288221970899,244.39720088137256 87.27718006796204,247.48070008780633 87.46064552664757,249.77855009671475 88.89779161952902,253.27435190582764 90.5031143828528,254.55088692047866 92.64354473393178,254.6883592256636 93.94309173274087,253.84388435493747 95.71659116650699,251.74249447573675 96.81738391850377,249.75891051332292 97.55124575312948,247.30394082763814 97.75,244.92748903536994 97.41364665911533,242.5902779658063 95.80832389579155,238.87815639599285 94.03482446202543,237.8175320951559 92.58238958095899,237.8568146204343 91.19110985280713,238.56389818433672 89.84569648926845,239.97805456344213 88.45441676105838,242.09926226121024 87.76642129110405,243.92583194164035 87.30775764444843,246.30230079122703 87.53708946774714,249.9749457782891 88.46970554930158,252.4691468913661 89.47876557195559,253.9617183645605 90.94648924120702,254.70799811533652 92.61296715744538,254.6883592256636 94.00424688565545,253.76532829321513 95.4261041902937,252.19419777365692 96.78680634207558,249.8374688301992 97.41364665911533,247.87349764212559 97.75,244.94712929870002 97.53595696494449,243.35625901515596 96.93969422421651,240.99938081331493 95.80832389579155,238.89779751074093 94.15713476785459,237.83717335914844 93.28567383921472,237.7586082865164 91.97083805210423,237.99430337183003 91.23697621747851,238.48533352083177 89.84569648926845,239.93877263530158 88.30152887880104,242.55099677309045 87.59824462060351,244.61324444660568 87.30775764444843,246.61654157658631 87.50651189131895,249.73927092720987 88.88250283128582,253.2547128144215 89.78454133635387,254.1973860853468 90.94648924120702,254.70799811533652 92.38363533408847,254.72763700228825 93.27038505091332,254.39377554880048 95.73187995475018,251.78177308139857 97.2607587769744,248.58053045379347 97.75,244.8685682288633 96.83267270668875,240.76369080373843 95.77774631942157,238.87815639599285 94.95215175539488,238.2103568502498 94.05011325032683,237.83717335914844 92.3224801812321,237.87645587894076 91.35928652319126,238.34784525328723 90.35022650053725,239.3691834348574 89.23414496041369,240.74404995166697 87.98046432621777,243.2776970497507 87.27718006796204,247.1664612482855 87.81228765571723,250.8390834939637 89.26472253678367,253.78496731282212 90.83946772367926,254.7472758864169 92.36834654590348,254.78655364643782 93.20922989811515,254.4526923338417 95.62485843710601,251.95852667014697 96.83267270668875,249.8374688301992 97.42893544735853,247.99133669280855 97.73471121181501,244.7900071148324 97.35249150625896,242.41351251123706 96.4810305776191,240.07625933535746 95.71659116650699,238.79959190941008 94.6463759909966,238.07286831176316 93.51500566251343,237.7782495588035 92.18488108721795,237.95502088523062 91.17582106456393,238.56389818433672 89.81511891284026,239.9584136007761 87.91930917330319,243.33661852795922 87.46064552664757,245.1042513055727 87.26189127971884,247.89313749079884 88.17921857303008,251.8603302595584 88.85192525479943,253.2154346233001 89.81511891284026,254.21702504414134 90.70186862966511,254.6687203332258 92.39892412233166,254.70799811533652 93.23980747454334,254.39377554880048 94.43233295582468,253.37254732147267 95.56370328430785,252.01744448335376 96.9702718007029,249.52323529742716 97.73471121181501,245.67381709767506 97.21489241230302,241.88321480389277 95.73187995475018,238.81923303518852 93.98895809741225,237.8175320951559 92.64354473393178,237.83717335914844 91.63448471121956,238.22999805897416 89.90685164212482,239.8602087458712 89.09654586634133,241.11722566882963" stroke="#4DD2FF" stroke-linecap="round" stroke-linejoin="round" stroke-width="0.5"><title>2024-11-17 16.3km</title><desc>1731797391000</desc></polyline></svg>