<?xml version="1.0" encoding="utf-8" ?>
<svg baseProfile="full" height="300mm" version="1.1" viewBox="0,0,200,300" width="200mm" xmlns="http://www.w3.org/2000/svg" xmlns:ev="http://www.w3.org/2001/xml-events" xmlns:xlink="http://www.w3.org/1999/xlink"><defs /><rect fill="#222222" height="300" width="200" x="0" y="0" /><text fill="#FFFFFF" style="font-size:12px; font-family:Arial; font-weight:bold;" x="10" y="20">Over 5km Runs</text><text fill="#FFFFFF" style="font-size:4px; font-family:Arial" x="10" y="280">ATHLETE</text><text fill="#FFFFFF" style="font-size:9px; font-family:Arial" x="10" y="290">sagasw</text><text fill="#FFFFFF" style="font-size:4px; font-family:Arial" x="65" y="280">SPECIAL TRACKS</text><rect fill="yellow" height="2.6" width="2.6" x="65" y="283" /><text fill="#FFFFFF" style="font-size:3px; font-family:Arial" x="70" y="285.5">Over 20.0 km</text><rect fill="red" height="2.6" width="2.6" x="65" y="287" /><text fill="#FFFFFF" style="font-size:3px; font-family:Arial" x="70" y="289.5">Over 40.0 km</text><text fill="#FFFFFF" style="font-size:4px; font-family:Arial" x="120" y="280">STATISTICS</text><text fill="#FFFFFF" style="font-size:3px; font-family:Arial" x="120" y="285">Number: 24</text><text fill="#FFFFFF" style="font-size:3px; font-family:Arial" x="120" y="290">Weekly: 2.4</text><text fill="#FFFFFF" style="font-size:3px; font-family:Arial" x="141" y="285">Total: 293.0 km</text><text fill="#FFFFFF" style="font-size:3px; font-family:Arial" x="141" y="290">Avg: 12.2 km</text><text fill="#FFFFFF" style="font-size:3px; font-family:Arial" x="167" y="285">Min: 6.5 km</text><text fill="#FFFFFF" style="font-size:3px; font-family:Arial" x="167" y="290">Max: 19.1 km</text><polyline fill="none" points="40.91275167779531,59.65583315519325 42.89932885917369,60.31101645271701 44.187919463263825,60.17308327255887 44.3758389261784,58.58684611986973 43.46308724838309,57.793723693393986 43.59731543622911,56.51782570822979 44.40268456377089,55.55227687150182 46.92617449676618,42.51699521111732 47.97315436240751,40.62026945719845 47.19463087245822,38.62007003017061 45.583892617491074,37.9303423040692 44.187919463263825,38.413151916174684 43.328859060420655,39.44774073884764 43.0604026846122,40.8961577519658 43.57046979852021,42.03419368484174 44.724832214647904,42.86185286179534 46.44295302021783,42.86185286179534 47.46308724838309,42.13765123485064 48.0,40.758213643479394 47.62416107393801,39.13736455074104 46.201342281885445,38.068288004622445 44.644295302103274,38.13726082579524 43.22147651005071,39.51671317165892 43.114093959797174,41.27550365027855 44.0,42.48250941938022 41.02013422828168,59.75928326600115 39.543624161044136,59.93170002033003 38.65771812084131,59.517899606289575 38.4966442954028,57.862690962821944 37.261744966497645,56.86266365660413 35.38255033560563,56.035051765386015 32.42953020136338,55.58676082408056 28.885906040202826,56.069535650050966 24.751677852356806,58.34546130525996 25.100671140942723,62.0696576959308 24.80536912754178,58.34546130525996 21.906040268484503,57.104049931731424 17.26174496638123,56.9661149464373 14.872483221581206,57.89717459020903 13.771812080522068,58.82823069678852 16.18791946314741,57.379919669328956 19.62416107370518,56.82817988365423 25.020134228281677,58.24201059769257 28.832214765134268,56.17298727470916 32.99328859068919,55.6212447717262 37.9060402684845,57.20750111967209 38.604026845656335,59.897216679150006 39.38255033548921,60.17308327255887 38.63087248324882,59.44893280266842 38.22818791947793,57.44888705511403 34.84563758398872,55.96608398160606 32.000000000116415,55.55227687150182 28.885906040202826,56.035051765386015 24.993288590572774,58.173043435032014 19.516778523568064,56.79369610584399 12.832214765134268,58.51787905435776 13.12751677853521,59.24203227534599 16.000000000116415,57.44888705511403 19.140939597273245,56.82817988365423 21.20805369131267,57.00059870012046 24.993288590572774,58.31097774099908 29.825503355707042,55.862632269607275 24.859060402726755,58.13855984636757 19.597315436345525,56.7592123230861 17.02013422816526,57.104049931731424 13.691275167861022,58.58684611986973 12.0,58.759263698986615" stroke="#4DD2FF" stroke-linecap="round" stroke-linejoin="round" stroke-width="0.5"><title>2025-02-01 6.5km</title><desc>1738399435000</desc></polyline><polyline fill="none" points="58.66666666668607,56.861157661922334 61.15959295112407,55.552713103286806 61.65549764211755,55.5182801628107 62.96897493180586,54.46807082206942 63.665922065090854,54.26147120211681 63.15661454456858,54.3131211397922 62.19161082158098,54.89848557651567 62.084388185699936,55.22559977720812 63.397865475330036,54.3131211397922 63.920575825322885,54.19260458456847 64.56391164060915,54.43363757630141 64.59071729960851,54.072087910652044 64.08140977914445,53.74497062581213 63.82675601885421,54.10652125813067 62.084388185699936,54.95013524531532 62.99578059074702,53.4350692334483 64.17522958549671,52.677529191743815 64.01439563179156,52.93578200566117 64.21543807402486,53.40063569690392 63.86696450738236,52.86691464190517 63.03598907921696,53.40063569690392 62.25862496899208,54.41642094979761 61.91015140240779,55.50106368887646 62.285430627991445,56.03477325285348 65.48870687518502,56.39631711864058 66.30627947387984,56.7062110104016 67.65996525197988,56.379100768281205 67.90121618274134,54.69188668336574 70.24671134277014,53.65888698444178 71.76123107480817,53.50393627734593 72.01588483498199,56.46518249575456 73.67783569125459,58.221236515768396 76.97493174485862,57.34321265626204 79.64209481264697,58.13515602375992 82.40307768678758,56.895590224499756 84.14544552000007,56.82672508964606 85.70017374044983,57.102185396484856 86.81260858778842,55.879825554802665 87.77761231083423,56.482398833970365 89.66741126833949,56.74064361658384 90.44477537862258,56.55126416267012 91.63762720284285,55.604362495847454 93.50062050146516,53.12516705607413 94.27798461163184,51.00748116722389 94.66666666668607,48.09775540496048 93.99652519245865,44.981345141801285 93.55423181934748,43.75886418799928 92.76346487965202,42.57080761193356 91.3293621246703,41.86485548564815 89.9488706876291,41.83041869239241 88.54157359153032,42.725772167505056 87.52295855054399,43.96548154511402 86.45073219161713,45.77336853417364 85.79399354680208,47.546793621746474 85.53933978657005,49.32019300128013 85.56614544556942,51.66172950119653 86.43732936220476,54.48528744135547 87.25490196084138,55.845392706360144 88.03226607106626,56.430749812047 89.15810374781722,56.671778394505964 90.4313725490938,56.482398833970365 91.20873665931867,56.00034044805216 92.56242243741872,54.45085420036776 93.54082898993511,52.901348328632594 94.25117895263247,50.86974423005449 94.63986100774491,47.994450259633595 94.31819310004357,46.13494272583921 93.50062050146516,43.74164605912665 92.72325639124028,42.57080761193356 91.77165549772326,42.01982093557308 90.4983866965049,41.77876348423888 89.27872921322705,42.14034948308836 87.10747083649039,44.568113510169496 86.42392653267598,45.687279283425596 85.7135765699204,47.822274823513 85.45892280968837,49.69897400300397 85.67336808145046,52.436492740234826 86.85281707625836,55.294465813291026 87.24149913142901,55.845392706360144 88.2065028543584,56.46518249575456 89.84164805163164,56.63734576894785 90.87366592214676,56.206937131770246 92.13353189383633,54.967351796716684 93.4738148424658,53.03908297860471 93.94291387445992,52.040503253243514 94.4388185654534,49.87114679787919" stroke="#4DD2FF" stroke-linecap="round" stroke-linejoin="round" stroke-width="0.5"><title>2025-01-30 9.1km</title><desc>1738201576000</desc></polyline><polyline fill="none" points="105.61605584638892,43.803224561903335 105.33333333331393,44.3631652768745 105.41579406626988,44.998770122278074 106.24040139612043,46.920695249020355 107.66579406626988,52.17176433874556 109.12652705056826,56.34822410182096 112.047993019165,54.774504685468855 112.58987783594057,54.80476873759471 113.08464223379269,55.394916051511245 115.71160558459815,55.546235353918746 116.52443280973239,55.909400810924126 117.66710296680685,55.576499188864545 117.7377835950465,54.44159955003124 118.09118673641933,54.07842913591594 119.41055846418021,53.47314238676336 121.16579406626988,53.034307363137486 121.55453752179164,55.84887331996288 122.46160558459815,57.01402153743402 122.89746945892693,57.21073362726747 123.40401396155357,57.240996993779845 124.39354275737423,56.71138685043843 125.72469458985142,56.45414669688762 126.69066317623947,56.51467384718126 128.26919720764272,57.1048117774626 130.00087260029977,56.181774098855385 131.20244328089757,55.954796406840615 133.4995636997628,56.33309229402221 134.64223385683727,55.07714482337906 136.15008726000087,55.8337414418711 137.17495636991225,55.89426894139615 137.94066317623947,55.60676301524654 139.38961605582153,54.13895762345055 140.57940663164482,52.20202912334935 141.07417102967156,50.68877945620625 141.33333333331393,48.28266863476165 140.862129144778,45.78570424886129 140.06108202441828,43.954560177822714 139.09511343797203,43.016275925205264 137.50479930185247,42.75900300621288 136.38568935421063,43.19787996800733 135.50218150083674,44.090762050036574 133.75872600346338,47.10229269721458 133.42888307146495,48.222136850592506 133.28752181492746,50.47692280334013 133.47600349033019,52.0053078709243 134.1003490400617,53.92710776801687 134.7129144850769,54.98635287146317 135.50218150083674,55.621894925279776 136.83333333331393,55.89426894139615 137.7050610819715,55.66729064257379 138.69458987779217,54.88042883062735 139.7901396160014,53.51853901112918 140.6972076788661,51.85398358565726 141.25087260029977,49.73542123136576 141.33333333331393,48.20700389927515 140.6854275740916,45.22577094218286 139.813699825434,43.60648794271401 138.77705061074812,42.95574117611977 138.03490401391173,47.72274833114352 137.77574171026936,47.99514235655079 137.01003490394214,47.9497434002551 136.44458987779217,48.20700389927515 136.032286212896,48.88798460196995 136.06762652698671,49.96241205158003 136.6448516579112,50.46179016935639 136.39746945892693,52.09610233981948" stroke="#4DD2FF" stroke-linecap="round" stroke-linejoin="round" stroke-width="0.5"><title>2025-01-29 7.9km</title><desc>1738124973000</desc></polyline><polyline fill="none" points="152.0,58.217748547845986 152.583063396567,58.32474305476353 154.43220731144538,57.85396666114684 154.7820453493623,56.03504417433578 159.3465987967793,54.280298333396786 159.71309578896035,54.87948211666662 159.87968533084495,57.72557284636423 161.878759833402,60.25063130729541 165.89356779266382,59.223493941070046 167.32623785285978,59.33048774044437 169.4585839888896,60.05804357957095 171.87413234612904,58.92391090250749 173.92318371124566,58.431737486462225 177.00509023596533,58.8597144602827 178.00462748727296,57.74697182305681 178.75428042566637,57.36178978237149 179.65386395191308,57.982360367605 181.3031004164368,58.346141947142314 183.5187413233798,57.639976909573306 185.45118000922957,55.47866353896097 186.8671911152196,53.10332331417885 187.750115687144,50.25714607196278 187.96668209164636,47.64632010075729 187.31698287819745,44.15801544254646 186.08422026829794,41.2688681739528 184.95141138357576,40.2202011415211 183.38546968990704,39.74936869269004 182.18602498841938,39.87777768695378 181.01989819528535,40.477018226345535 178.88755205925554,42.93815995861951 177.90467376209563,44.47902841705945 177.02174919017125,46.768901308605564 176.6385932439007,49.829144886360154 177.17167977784993,53.93790654008626 178.6210087921354,56.9766067659948 179.5872281350894,57.896764575416455 180.53678852377925,58.2391474552569 181.60296159179416,58.36754083647975 182.88570106436964,58.003759308106964 184.3350300785969,56.91240950176143 185.66774641367374,55.200472457901924 187.53354928275803,51.4127432556852 188.0,47.475116831526975 187.70013882452622,45.377861140077584 186.8505321610137,42.76695138824289 185.93428968067747,41.01205242660944 185.10134197125444,40.305806884673075 183.4187875983189,39.770770199247636 182.25266080518486,39.85637619539921 181.11985192040447,40.519821031659376 179.55391022673575,41.99651043584163 177.57149467838462,45.24945679069788 176.93845441925805,47.239712021677406 176.67191115219612,49.85054497430974 177.20499768626178,54.066303552957834 177.9713095788611,56.056443388864864 178.92086996755097,57.29759268069756 179.5205923183821,57.85396666114684 181.36973623320227,58.38893972277583 182.83572420175187,58.02515824565489 184.3350300785969,56.869611310525215 186.7672373901005,53.40291781970882 187.48357242019847,51.605341932488955 187.93336418323452,48.82333735827706 187.6834798704367,45.2922582525498 186.1175381767098,41.29026946662634 184.95141138357576,40.24160258179472 183.45210550673073,39.770770199247636 182.15270708000753,39.87777768695378 181.01989819528535,40.541222429819754 179.5205923183821,42.01791162614245 178.6043498380459,43.43038352466829" stroke="#4DD2FF" stroke-linecap="round" stroke-linejoin="round" stroke-width="0.5"><title>2025-01-01 8.4km</title><desc>1735690205000</desc></polyline><polyline fill="none" points="12.0,95.99286864566966 12.748166259145364,96.67125526432937 17.090464547625743,97.3496384465252 17.54523227387108,97.010447284978 18.48410757945385,96.89738337357994 18.748166259203572,95.29563437307661 21.476772616093513,94.05191017081961 22.811735941213556,93.76924396840332 23.002444987767376,93.90115493710618 23.266503667458892,97.21773087470501 24.86552567232866,99.02673767524539 28.899755501188338,98.10339350739378 31.71638141805306,98.89483175525675 33.05134474328952,98.06570585510053 35.163814180879854,97.48154588844045 38.185819070844445,97.801891992116 39.4034229828394,96.46397082881595 39.99022004887229,96.50165893186931 41.266503667400684,97.23657482147973 43.378973105107434,97.16119901840284 45.88753056235146,94.67377371585462 46.73838630801765,93.29813230513537 47.64792176039191,90.79179039254086 47.92665036668768,87.5504365505185 47.57457212702138,85.38320852648758 46.782396087946836,83.17825358133996 46.12224938865984,82.14172375270573 45.22738386300625,81.36903266006266 43.92176039109472,80.99210855770798 42.41075794619974,81.19941694533918 41.281173594121356,82.10403160778515 39.66748166253092,84.10170066979481 38.31784841074841,87.15468448570755 37.90709046454867,90.77294553886168 38.81662591686472,94.65492940842523 39.81418092903914,96.33206238459388 40.76772616128437,96.99160330637824 42.22004889976233,97.36848237474624 43.408312958374154,97.12351110095915 45.94621026882669,94.61724078560655 47.61858190706698,90.999083608418 47.9559902199544,87.66350835417688 46.958435207779985,83.55517152952962 45.50611246941844,81.51980200393882 44.02444987767376,80.99210855770798 42.70415647915797,81.12403211419587 41.207823960867245,82.17941588713438 39.63814180920599,84.13939225241484 38.20048899750691,87.49390061282611 37.90709046454867,90.60334173605952 38.039119804336224,91.82825326295279 39.18337408307707,95.4086996368278 39.85819070902653,96.36975052478374 40.7970660146093,97.04813523424673 42.0733496331959,97.3496384465252 43.34963325178251,97.16119901840284 45.93154034222243,94.61724078560655 47.11980440095067,92.45012713450706 47.66259168693796,90.8294800920994 47.94132029340835,87.53159124057856 46.782396087946836,83.15940765608684 45.902200488955714,81.82134018231591 44.97799511003541,81.21826314649661 43.55501222494058,80.99210855770798 42.396088019479066,81.23710934491828 41.36919315403793,82.02864728600252 39.946210268943105,83.70593841174559 38.62591687042732,86.1370309481863 37.99511002440704,88.83191140108102 37.95110024447786,90.67872123049165 38.156479217577726,92.41243789116561 38.787286063539796,94.44764185175882 39.53545232274337,95.91749214255833 40.577017114905175,96.91622736542195 42.63080684590386,97.3496384465252 43.54034229827812,97.04813523424673 45.2860635695979,95.4086996368278 47.17848410754232,92.35590400626825 47.69193154032109,90.77294553886168 48.0,88.15348506669397 47.545232273754664,85.25128916636459 46.19559902191395,82.198261950296 45.447432762768585,81.48210968388594 44.15647921751952,80.99210855770798 43.217603911994956,80.97326232475461 41.83863080677111,81.5763404640893 39.66748166253092,84.21477538582985" stroke="#4DD2FF" stroke-linecap="round" stroke-linejoin="round" stroke-width="0.5"><title>2024-12-31 11.1km</title><desc>1735607974000</desc></polyline><polyline fill="none" points="58.66666666668607,95.52669573340972 59.37024972855579,96.26101615389052 63.752985884901136,96.825875273571 65.1454940282274,96.46813144130283 65.29207383276662,95.03714654754731 65.65852334420197,94.698226831184 67.82790445163846,93.64380444579001 69.58686210640008,93.34253938093025 69.70412595005473,95.77146965470456 69.99728555919137,96.75056086204131 71.59500542882597,98.53926668355416 72.23995656892657,98.63340843281185 73.38327904453035,97.99324323136534 75.36210640601348,97.63550252016285 78.20575461455155,98.46395323636534 80.56568946799962,97.25893231717055 82.63246471219463,97.01416111690924 84.14223669923376,97.31541791516065 85.52008686208865,97.9367579195241 86.09174809983233,99.29239882349793 88.67155266017653,99.46185297080956 88.93539630831219,98.6898934506462 88.39305103139486,97.9367579195241 88.58360477740644,97.24010377917148 90.40119435393717,96.37398816860514 91.3393051031162,95.62083960225573 92.48262757871998,94.34047731032479 93.9923995656427,91.44078800287389 94.62269272527192,87.43007519481762 93.69923995656427,83.41924215373001 92.83441910962574,81.70565710571827 91.67643865366699,80.83944092754973 90.00542888167547,80.55697791776038 88.84744842565851,80.9335951317189 86.88327904447215,82.91081811078766 85.90119435393717,84.45491478305485 84.94842562434496,86.99698633792286 84.68458197609289,88.48454654956004 84.88979370245943,90.80058838837431 84.71389793697745,91.45961735690071 85.05103148752823,92.9659570959193 86.06243213894777,95.26309254822263 87.17643865366699,96.48696008787374 88.23181324650068,96.84470386985049 89.53637350705685,96.84470386985049 90.91422366991173,96.03507183835609 92.48262757871998,94.34047731032479 93.97774158522952,91.47844670833729 94.52008686208865,89.3695428793726 94.66666666668607,87.44890511329868 93.596634093381,83.08029300645285 92.7171552660293,81.61150344499038 91.6617806731374,80.82061007877928 90.18132464709925,80.5758088036091 88.90608034742763,80.95242596451135 87.77741585229523,81.89396422842401 86.32627578719985,83.72052956371044 84.90445168293081,87.18528601316211 84.61129207385238,89.74613528676855 84.86047774157487,90.91356501352857 84.72855591744883,91.45961735690071 85.10966340929735,93.07893189266906 86.23832790442975,95.54552451246127 87.68946796952514,96.71290364042216 88.97937024966814,98.65223677475296 88.4516829532804,97.97441479675763 88.67155266017653,97.24010377917148 89.44842562428676,97.14596104959492 89.55103148752823,96.825875273571 91.016829533095,95.94092826095584 93.39142236695625,92.90946966176853 94.27090119430795,90.59346432783059 94.60803474485874,88.54103585192934 94.28555917477934,85.17046573481639 93.03963083599228,81.96928700323042 92.13083604775602,81.06541090607061 90.82627578714164,80.55697791776038 89.6536373506533,80.66996319324244 88.73018458200386,81.08424172035302 86.34093376761302,83.68286867457209 84.88979370245943,87.10996617485944 84.72855591744883,91.38429992481542 85.78393051034072,94.73588461983309 86.29695982631529,95.62083960225573 87.4842562431586,96.61876053987362 89.56568946794141,96.84470386985049 90.91422366991173,96.03507183835609 92.43865363736404,94.41579307845677 93.78718783933436,92.0056674718071 94.46145494026132,89.84028322299127 94.66666666668607,87.50539485293848 93.94842562428676,83.89000343368389 92.98099891416496,81.87513352803944 92.35070575459395,81.19722655059013 91.29533116176026,80.68879406322958 90.12269272527192,80.5758088036091 88.86210640601348,80.99008762229641 88.1292073832592,81.59267270487908 86.66340933769243,83.26859819430683 85.56406080344459,85.22695643638144 84.69923995656427,88.63518463617947 84.72855591744883,91.42195864618407 85.35884907707805,93.77560769837874 86.47285559173906,95.84678461725707 88.3783930510399,97.61667403516185 88.99402823013952,98.57692339118512 88.92073832784081,99.36771180435608 88.97937024966814,98.63340843281185 88.46634093380999,98.03090009272273 88.56894679693505,97.25893231717055 89.52171552658547,97.0894753800676 91.9842562432168,94.92417340415705 93.81650380021892,92.02449674639502 94.43213897937676,89.85911280226719 94.62269272527192,87.01581631734734 93.65526601520833,83.15561511339911 92.81976112921257,81.70565710571827 91.72041259502294,80.82061007877928 90.10803474485874,80.55697791776038 88.97937024966814,80.87710261717439 86.88327904447215,82.9673097665218 85.16829533118289,86.22495489858557 84.68458197609289,88.27741890365724 84.6699239956215,90.14155617369397 84.99239956570091,92.57054455597245 85.68132464709925,94.49110880409717 86.2823018457857,95.60201083376887 87.33767643867759,96.5434460118122 88.75950054288842,96.90118964269641 89.63897937024012,96.825875273571 90.79695982625708,96.11038665258093 92.61454940278782,94.227503578717 93.81650380021892,92.0056674718071 94.53474484256003,89.16241660347441 94.66666666668607,87.37358542345464 94.3148751357221,85.13280525372829 93.6699239956215,83.15561511339911 93.09826275787782,81.9881176903582 91.9842562432168,80.95242596451135 90.6943539630156,80.5758088036091 89.2578718783916,80.7829483733367 88.26112920738524,81.4420266887173 86.95656894682907,82.87315699370811 85.52008686208865,85.15163549559657 85.12432138976874,86.3567654597282 84.64060803473694,90.02857889670122 84.9191096634022,92.32576477895782 85.68132464709925,94.50993772894435 86.2823018457857,95.60201083376887 87.38165037997533,96.52461737318663 88.78881650377298,96.86353246343788 89.87350705754943,96.71290364042216 90.79695982625708,96.11038665258093 92.58523344190326,94.26516149987583 93.84581976110348,91.89269176883681 94.4761129207327,89.63315767583845 94.65200868615648,87.44890511329868 93.743213897862,83.40041166808805 92.76112920738524,81.61150344499038 91.73507057549432,80.82061007877928 90.57709011941915,80.53814702920499 89.096634093381,80.82061007877928 87.36699239956215,82.34590024137287 86.37024972855579,83.6452077748254" stroke="#4DD2FF" stroke-linecap="round" stroke-linejoin="round" stroke-width="0.5"><title>2024-12-30 19.1km</title><desc>1735521239000</desc></polyline><polyline fill="none" points="105.33333333331393,96.0747868851031 105.76916868437547,95.86950920929667 106.42292171099689,96.65329498924257 110.60694108140888,97.2318005697598 112.05972558510257,96.82124848221429 112.35028248582967,95.27233598203748 116.43260694103083,93.7420673128363 116.88297013717238,96.87723293264571 118.32122679578606,98.91131860238966 119.17836965288734,98.87399621051736 121.793381759373,97.97825565458334 123.34786117833573,98.14620746967557 125.0621468925965,98.78069018491078 126.96529459237354,97.75431957030378 128.49071832123445,97.38109192285629 129.49313962861197,97.30644626732101 131.6432606940507,97.69833549010218 132.8635996771045,96.41069512376271 134.75221953185974,97.13849338878936 136.62631154147675,96.98920176255342 137.3817594834254,96.57864892398356 139.00887812749716,94.8991013494524 140.28732849069638,92.80896799456968 141.08635996765224,90.23357980801666 141.33333333331393,87.8447692416812 140.6359967715689,84.5600844459259 139.63357546407497,82.46978812009911 138.58757062145742,81.44329125309014 137.09120258269832,81.0886813976249 136.19047619047342,81.18199987258413 135.10088781267405,81.79790016011975 132.5439870863338,85.11997965231421 131.6577885390725,87.54616489514592 131.41081517352723,89.48708112869645 131.74495560931973,92.95826432673493 132.38418079091934,94.84311606393021 133.53188054880593,96.4293566676788 134.70863599679433,97.15715483023087 136.29217110562604,97.17581626903848 137.23648103303276,96.69061800603231 139.03793381754076,94.91776310601563 140.6795803066343,91.85719992604572 141.31880548829213,87.9007574818097 140.47619047615444,84.05617673890083 139.02340597251896,81.72324573212245 137.81759483448695,81.18199987258413 136.61178369651316,81.0886813976249 135.2316384180449,81.70458211858931 134.31638418074,82.63775957812322 133.09604519768618,84.16815639483684 132.03551251004683,86.27708892060036 131.39628732844722,89.63638120074756 131.9047619047342,93.51812407524267 132.74737691681366,95.42162954094238 133.67715899914037,96.5973104442528 134.59241323644528,97.13849338878936 135.8853914446663,97.26912342378637 137.57062146888347,96.39203357730003 138.99435028241714,94.91776310601563 140.12752219534013,93.14488450551289 141.2025827280013,89.56173118570587 141.31880548829213,87.956745698335 140.9701372074196,85.77318773845036 139.83696529461304,82.74974043195834 139.02340597251896,81.68591850242228 137.6868442291743,81.16333618281351 136.58272800635314,81.10734509784379 135.4931396287284,81.53660947842582 133.05246166262077,84.24280944626662 131.6868442291743,87.54616489514592 131.41081517352723,89.86033099361521 131.49798224371625,91.89452429271478 131.933817594836,93.70474346620904 132.74737691681366,95.4589529044024 133.25585149310064,96.2427411107492 134.31638418074,97.04518614208791 135.5948345439392,97.30644626732101 136.80064568197122,96.95187882974278 139.08151735266438,94.88043959021161 140.6359967715689,91.91318647208391 141.10088781267405,90.21491739225166 141.30427764321212,87.86343199106341 140.38902340596542,83.73890053346986 138.8200161419809,81.57393675018102 137.3817594834254,81.16333618281351 136.24858757061884,81.21932724412181 135.60936238901922,81.46195490335231 133.92413236480206,83.08568242599722 132.09362389025046,86.20243701444997 131.6432606940507,87.5648276864813 131.3817594834254,89.99096819819533 131.78853914444335,93.2568564866815 132.41323648102116,94.82445429687505 133.7497982243658,96.76526400823786 134.83938660204876,97.17581626903848 136.1468926553498,97.26912342378637 138.2824858756503,95.8508475865965 140.41807909606723,92.58502318125102 141.2752219531685,88.7592408702476 140.99919289752143,85.81051381757425 140.57788539142348,84.37345218514383 140.0694108151365,83.17899949554703 139.08151735266438,81.81656376052706 137.55609362386167,81.18199987258413 136.53914447134594,81.16333618281351 135.50766747369198,81.57393675018102 134.24374495557277,82.73107696292573 133.06698950758437,84.22414618732 132.00645681994502,86.35174078471027 131.39628732844722,89.50574364689237 131.52703793375986,91.950510823066 132.09362389025046,94.22727636365744 133.66263115406036,96.65329498924257 134.81033091194695,97.1944777052413 136.30669895070605,97.21313913883932 138.2243744955631,95.86950920929667 140.09846650523832,93.29418045943021 141.2171105730231,89.84166852536146 141.31880548829213,87.91942022329022 140.88297013717238,85.43725255315076 140.3454398708418,83.75756386072317 139.35754640831146,82.09651745151496 138.48587570618838,81.42462760004855 137.42534301854903,81.18199987258413 136.40839386597509,81.16333618281351 135.62389023409924,81.48061855108244 133.11057304270798,84.24280944626662 131.6723163841525,87.65814160388254 131.51251008873805,91.76388896342542 132.5439870863338,95.08571879703959 133.25585149310064,96.18675639253343 134.18563357542735,96.9705402974796 135.78369652933907,97.28778484687791 136.81517352705123,97.06384759665525 139.1105730427662,94.88043959021161 140.6214689265471,92.08114596850646 141.10088781267405,90.45752859239292 141.33333333331393,87.9007574818097 140.6505246165907,84.67206367634935 140.0839386601583,83.17899949554703 139.05246166256256,81.7419093430799 137.10573042777833,81.12600879545789 136.19047619047342,81.2379909260053 135.10088781267405,81.89121813591919 133.11057304270798,84.24280944626662" stroke="#4DD2FF" stroke-linecap="round" stroke-linejoin="round" stroke-width="0.5"><title>2024-12-29 18.5km</title><desc>1735432872000</desc></polyline><polyline fill="none" points="152.0,96.81396618901636 154.79172821267275,95.0892413674519 155.3766617429792,95.02093492928543 156.17429837520467,95.68692106116214 158.50073855242226,95.87476264267752 159.9497784342384,96.2504449334665 161.2658788774279,95.85768614726112 161.4918759231805,94.44032865273039 163.3264401772758,93.5181835626936 165.26735598227242,93.02295460370078 165.67946824227693,96.0796804000056 167.08862629247596,97.73608623559994 167.76661742985016,97.75316246666625 169.42836041358532,97.05303502204333 170.65140324964887,96.93350066440325 173.296898079745,97.63362879864144 175.18463810929097,96.64320244851115 177.497784342675,96.36997996392165 179.75775480055017,97.13841663395579 180.2363367798971,98.45328587221593 182.32348596747033,98.62404706577217 182.80206794681726,97.78731492163206 182.38995568687096,97.30917967762798 182.4431314622634,96.60904967156966 182.76218611520017,96.2504449334665 184.23781388474163,95.85768614726112 184.94239290989935,95.19170095254958 186.17872968979646,93.77433567943808 186.37813884788193,92.98880080784875 187.16248153615743,91.98125950711983 187.88035450514872,89.24890201060771 187.7740029542474,86.20908199672704 187.18906942394096,84.07433141303045 186.19202363368822,82.29819030357612 185.66026587883243,81.83707249513827 184.2909896602505,81.39303146775637 183.2806499261642,81.46134557771438 182.16395864106016,82.09324927174748 179.98375184636097,85.04778233751858 179.02658788778353,87.93393303598714 179.0,91.29817590084713 179.4519940915634,93.14249281332741 180.32939438696485,94.90139857002214 180.99409158050548,95.66984453937039 182.09748892171774,96.16506269676756 183.26735598227242,96.19921559865179 184.34416543570114,95.70399758058193 186.0457902510534,93.85971959822928 186.96307237813016,92.35695385161671 187.90694239293225,89.07812762427056 187.98670605616644,87.62653563632193 187.74741506646387,86.07245908429468 187.12259970454033,83.9377060968909 186.25849335303064,82.34942550744017 185.6336779911071,81.81999402413203 184.38404726731824,81.37595293422783 183.46676514029969,81.42718852755206 182.27031019201968,82.00785707293835 179.98375184636097,85.04778233751858 179.02658788778353,87.9510106464586 178.98670605610823,91.31525303790113 179.9438700148021,94.18417794171546 180.51550960115856,95.15754776712129 181.57902511075372,95.97722156457894 182.90841949777678,96.2162920460105 183.91875923186308,95.96014508361986 185.9394387001521,93.99633374332916 187.48153618903598,91.11032723502285 188.0,87.60945798012835 187.12259970454033,83.8864715636737 186.28508124075597,82.38358229803998 185.58050221565645,81.78583707491634 184.31757754797582,81.39303146775637 182.70901033980772,81.7516801161255 181.56573116692016,82.7763846984235 180.5420974889421,84.27926909875532" stroke="#4DD2FF" stroke-linecap="round" stroke-linejoin="round" stroke-width="0.5"><title>2024-12-28 9.1km</title><desc>1735368240000</desc></polyline><polyline fill="none" points="12.0,136.14792490794207 12.663662433449645,136.81097945733927 16.896353953285143,137.36036503879586 18.32691519864602,136.90570126927923 18.60712822614005,135.333310562346 22.766079475579318,133.7987910813681 23.120032773411367,137.3414207457099 24.830807046266273,139.04639644618146 25.53871364193037,139.08428454987006 26.703809913946316,138.49701774488494 28.50307251123013,138.15602294073324 29.69766489142785,138.2886321338883 31.629659975413233,138.97062020687736 33.074969274865,138.09919038935914 34.52027857437497,137.62558486188937 36.51126587460749,137.51191928742628 38.25153625558596,137.79608304372232 39.41663252766011,136.58364683686523 40.28676771814935,136.7162575787952 41.37812371982727,137.3414207457099 43.23637853330001,137.1330333460064 45.301106104045175,135.3522551380156 46.6874231871916,133.1736114633095 47.63129864807706,130.7675900884933 47.92625972960377,128.5130900901131 47.572306431713514,125.59544580728107 46.6874231871916,123.0187722977862 45.53707496926654,121.5030589576927 43.959033183055,120.91571545012994 42.292503072472755,121.14307453125366 39.608357230667025,123.83346116587927 38.3252765260404,126.8837640665588 37.927079065935686,129.13829135210835 38.133551823033486,132.54842894201283 38.78246620227583,134.65130406351818 39.63785333879059,136.14792490794207 40.6407210159814,137.038311693992 41.68783285532845,137.36036503879586 43.08889799262397,137.28458785050316 43.85579680459341,136.82992382507655 45.669807455909904,135.0112523684802 46.77591151162051,133.1736114633095 47.71978697256418,130.57813776021067 47.941007783752866,127.45213584948215 47.42482589103747,124.81865972196101 46.554690700548235,122.65879192492866 45.64031134778634,121.5598985159304 44.445718967646826,121.01044844726857 43.324866857845336,120.91571545012994 42.35149528871989,121.218860806257 39.99180663662264,123.568214168743 38.90045063494472,125.38704022436286 38.3252765260404,126.95954710962542 37.88283490372123,130.61602824721194 38.29578041785862,133.1925563429104 38.95944285125006,135.0112523684802 39.65260139288148,136.16686936897167 40.75870544859208,137.1330333460064 43.000409668136854,137.3414207457099 44.20975010242546,136.50786921141844 45.714051618182566,134.97336311853724 46.761163457646035,133.24939096564776 47.63129864807706,130.86231615263387 48.0,127.86894029837276 47.55755837773904,125.4817700747808 46.74641540349694,123.0945575167716 45.802539942611475,121.73041704675416 44.62269561650464,121.0672882135841 43.25112658744911,120.97255525639048 42.14502253179671,121.33254013882834 39.682097501005046,124.02292298663815 38.17779598524794,127.54686424665852 37.89758295781212,130.04766982265573 38.11880376888439,132.51053899890394 39.01843506761361,135.1628092615574 39.755837771401275,136.29948052144027 40.71446128631942,137.07620036278968 42.08603031543316,137.3982536169351 43.074149938474875,137.32247644999006 45.714051618182566,134.9923077448184 47.336337566550355,131.94218857280794 47.837771405116655,130.00977917568525 47.970503891818225,127.86894029837276 47.15936091763433,124.06081531880773 46.27447767305421,122.29881058931642 45.56657107739011,121.54095199916628 44.401474805374164,121.01044844726857 42.97091356001329,121.01044844726857 42.17451863992028,121.29464703863778 41.12740680051502,122.14723921265977 39.84432609583018,123.7008377326274 39.549365014303476,124.61025293641433 38.708725931996014,125.7470133012539 37.89758295781212,129.55509058032476 38.10405571490992,132.49159402339137 38.57599344535265,134.08296267528203 39.37238836532924,135.8069241537887 40.242523555934895,136.77309071394848 40.9356820974499,137.17092198808677 42.38099139695987,137.4171979020175 43.94428512908053,136.79203508698265 45.655059401877224,135.0491416076984 47.262597296212334,132.09374892107735 47.7935272429022,130.12345108459704 47.98525194590911,127.94472278680769 47.51331421552459,125.21652632561745 46.716919295315165,123.0187722977862 45.99426464561839,121.91988182760542 44.96190086036222,121.19991424151522 43.36911102000158,120.91571545012994 42.10077836952405,121.33254013882834 41.23064317897661,122.09039990237216 39.71159360918682,123.96608446841128 38.81196231051581,125.65228363749338 38.354772634163965,126.77008942203247 37.88283490372123,129.85821648118144 38.44326095865108,133.74195669061737 39.195411716471426,135.46592253589188 40.1392871774151,136.67836880870163 40.90618598932633,137.17092198808677 42.39573945105076,137.3982536169351 43.14789020898752,137.26564354677976 44.401474805374164,136.39420269322 45.87628021306591,134.72708273402532 47.070872593147215,132.62420879620186 47.86726751329843,129.85821648118144 47.970503891818225,127.98261401501077 47.58705448586261,125.4817700747808 46.17124129453441,122.12829277853598 45.522326915175654,121.48411243291048 44.106513723905664,120.95360865698603 42.838181073311716,121.04834162746556 41.85006145015359,121.52200547976827 39.65260139288148,124.0987076402962" stroke="#4DD2FF" stroke-linecap="round" stroke-linejoin="round" stroke-width="0.5"><title>2024-12-27 16.0km</title><desc>1735261057000</desc></polyline><polyline fill="none" points="58.66666666668607,136.14096736442298 59.25683060102165,136.7663893859135 63.53551912569674,137.37285645140219 64.98142076499062,136.9180064082757 65.18797814205755,135.47763780437526 65.95519125676947,134.90906700972118 67.51912568305852,134.20782639061508 69.42240437160945,133.80982333394059 69.7912568305619,137.39180850320554 71.59125683055026,139.07853043242358 74.98469945357647,138.14988838820136 76.74043715849984,138.3962634321215 78.06830601091497,138.96481950569432 80.85683060111478,137.67608896007005 82.53879781422438,137.52447279110493 84.91420765029034,137.84665694620344 85.6224043716793,136.8042936574784 86.33060109295184,136.42525046149967 87.96830601099646,137.29704821755877 89.84207650274038,137.14543162187329 91.2142076502787,136.19782403179852 92.40928961755708,134.92801940818026 93.41256830608472,133.1085769913043 94.29781420773361,130.83423940409557 94.63715846993728,128.01021677929384 94.10601092898287,125.07241227684426 93.23551912576659,122.79793896799674 92.37978142080829,121.6417336416489 90.6535519125755,120.95937829905597 88.88306010927772,121.24369344535808 86.6994535519625,123.51819300549687 85.04699453548528,126.816149131555 84.54535519122146,129.88658740690153 85.07650273223408,133.5065821203316 86.4338797814562,136.36839389010856 87.98306010931265,137.29704821755877 89.90109289623797,137.14543162187329 91.16994535527192,136.2546806752507 92.43879781430587,134.90906700972118 93.36830601096153,133.33600863759057 94.3273224044242,130.77738047228195 94.65191256836988,127.85858972836286 93.86994535522535,124.20053538234788 93.02896174869966,122.36199386327644 92.0551912569208,121.39532794457045 90.74207650276367,120.9404239346477 89.84207650274038,120.9404239346477 88.7060109290178,121.43323654269625 86.52240437158616,123.74564084858866 85.10601092898287,126.62661361058417 84.53060109296348,129.84868118829036 84.94371584703913,133.05171901971335 85.6224043716793,135.00382897554664 86.4486338798306,136.387346083211 87.48142076504882,137.08857535445713 88.88306010927772,139.0406268008228 88.42568306013709,138.64263802535424 88.42568306013709,137.8277049584285 88.89781420765212,137.35390439696494 90.47650273225736,136.82324578930275 92.30601092905272,135.00382897554664 94.0174863388529,131.87664889918233 94.66666666668607,128.0291701486858 94.23879781429423,125.48939488313044 93.75191256828839,123.8404106698581 92.61584699450759,121.8881388878508 91.2142076502787,121.01624137633189 90.06338797818171,120.9404239346477 88.77978142077336,121.357419335749 87.8355191256851,122.13454368317616 86.38961748639122,123.95413436731906 86.25683060119627,124.61752068830538 85.82896174868802,124.90182811123668 85.41584699455416,125.81160783096857 84.86994535522535,127.57428854769387 84.53060109296348,129.9244936148316 85.04699453548528,133.4497243167425 86.4043715847074,136.29258509087958 87.5551912569208,137.14543162187329 88.49945355189266,137.33495233982103 90.15191256836988,137.03171906307398 90.88961748639122,136.48210700895288 92.49781420768704,134.8143049772625 93.36830601096153,133.35496125748614 94.54863387980731,129.62124365274212 94.66666666668607,127.99126340728253 94.38633879780537,126.0011444989359 93.78142076503718,123.91622647884651 92.9404371585697,122.22931463824352 91.96666666667443,121.357419335749 91.05191256833496,120.99728701992717 89.93060109292855,120.9404239346477 88.82404371595476,121.3195107162901 86.31584699451923,124.01099618001899 84.98797814210411,126.87300973579113 84.54535519122146,129.9623998120951 84.70765027328162,131.89560172437632 85.25355191266863,134.13201637525344 86.21256830601487,136.06515843716625 87.3043715847889,137.03171906307398 88.1010928961914,137.33495233982103 89.01584699458908,137.37285645140219 90.26994535519043,136.9559106372035 92.586338797817,134.70059045030212 94.29781420773361,130.98586310478277 94.5928961749305,127.40370755117328 93.89945355197415,124.25739709094341 93.32404371589655,122.85480126889888 92.66010928963078,121.8881388878508 91.61256830603816,121.16787613173074 90.01912568305852,120.92146956757642 88.77978142077336,121.30055640262435 86.36010928964242,123.973088307539 84.98797814210411,126.96777735624346 84.53060109296348,129.88658740690153 84.67814207653282,131.76293189177522 85.68142076500226,135.15544798210612 86.46338797814678,136.34944169427035 87.58469945355318,137.14543162187329 89.01584699458908,137.31600028004323 90.06338797818171,137.03171906307398 92.37978142080829,134.94697180403455 94.0322404372273,131.80083757157263 94.60765027324669,129.03369490799378 94.60765027324669,127.44161445795908 94.12076502735727,124.88287430166383 93.51584699458908,123.27179074203013 92.73387978138635,121.9450015729235 91.71584699460072,121.20578479382675 90.10765027324669,120.9404239346477 88.83879781421274,121.30055640262435 87.12732240441255,122.873755363893 86.27158469945425,124.14367364962527" stroke="#4DD2FF" stroke-linecap="round" stroke-linejoin="round" stroke-width="0.5"><title>2024-12-26 16.2km</title><desc>1735171955000</desc></polyline><polyline fill="none" points="105.33333333331393,136.77057373226853 110.0529363109381,137.40168318065116 111.3482216707198,137.00006841625145 111.49710504547693,135.52747079296387 111.85442514473107,135.24059926920745 113.84946236561518,134.32260632388352 115.77005789900431,133.78710757559747 115.97849462355953,133.84448254239396 116.21670802310109,137.114815612862 117.97353184444364,139.10375162865967 118.80727874278091,139.12287587211176 119.92390405293554,138.4344014112139 121.87427626136923,138.1092872590234 124.62861869309563,138.9890061111946 126.32588916452369,137.9945409019565 127.8891645987751,137.57380343068507 131.52191894123098,137.89891886380792 132.6534325889079,136.617577061028 135.15467328368686,137.45905662153382 136.52440033078892,137.19131369017123 138.13234077743255,135.94821459920786 140.14226633578073,133.15598134197353 140.99090157152386,130.76532509137178 141.3035566583858,127.87735625384084 140.79735318443272,124.89369485228963 139.53184449957917,122.17774097908114 138.5938792390516,121.27878654291271 137.00082712981384,120.87712412788824 135.1248966087005,121.41267375073221 133.0851943754824,123.7078625135473 131.8345740281511,126.04126468239701 131.1348221671069,129.6369207315147 131.3432588916039,132.58222767716506 132.9214226633194,136.25420927650703 133.6211745244218,136.88532112269604 134.66335814719787,137.34430971552501 136.65839536802378,137.13394013626385 138.14722911495483,135.90996521609486 139.38296112488024,134.39910597277049 140.72291149711236,131.68334206547297 141.3035566583858,127.80085293365119 140.84201819682494,124.89369485228963 139.8891645988333,122.77066511833982 139.01075268816203,121.54656082665315 137.71546732832212,120.97275814396562 136.71794871793827,120.89625093652285 135.52688172046328,121.1640259741107 134.23159636056516,122.2351208475593 133.07030603807652,123.65048326691613 131.87923904048512,125.96476032854116 131.14971050451277,129.10140351959853 131.2985938791535,131.91284534001898 131.74524400325026,133.8827325067541 132.68320926383603,135.83346641757817 133.47229114966467,136.77057373226853 134.49958643503487,137.26781172437768 135.95864350703778,137.34430971552501 137.9387923903996,136.12033668995718 139.3531844498939,134.39910597277049 140.39536807278637,132.56310251326067 141.12489660875872,129.98118068196345 141.31844499584986,127.76260125740373 140.78246484696865,124.83631610640441 139.79983457399067,122.57939954963513 138.99586435069796,121.5274341096083 137.65591397846583,120.97275814396562 136.25641025637742,120.93450454557023 135.19933829607908,121.35529353498714 133.87427626136923,122.65590580942808 131.84946236549877,126.04126468239701 131.28370554180583,128.1833691038628 131.1348221671069,130.1724358331412 131.74524400325026,133.86360752592736 132.77253928862046,135.98646397155244 133.33829611248802,136.617577061028 134.18693134817295,137.1721891748457 135.79487179487478,137.38255869495333 136.77750206779456,137.0383174925082 137.7303556658444,136.31158320179384 139.3531844498939,134.3799810645869 140.46980976010673,132.3718507264275 141.15467328368686,129.90467854611052 141.33333333331393,127.81997876771493 140.8122415218968,124.85544235771522 139.75516956159845,122.48376666434342 138.98097601317568,121.48918066742772 137.47725392889697,120.87712412788824 136.19685690652113,120.89625093652285 135.21422663354315,121.33616679099214 133.90405293629738,122.57939954963513 131.7899090157007,126.09864291950362 131.11993382958462,130.19156133347133 131.5665839536232,133.2707317842287 132.9660876757116,136.3307078381622 134.12737799837487,137.13394013626385 135.21422663354315,137.42080766364234 136.42018196859863,137.2104382027319 137.2985938792117,136.694075418156 139.26385442516766,134.53298025479307 140.17204301070888,133.02210570350871 140.7526881720405,131.6068408877909 141.21422663354315,129.29265990896965 141.3035566583858,127.85823042780976 140.99090157152386,125.6204902032332 140.24648469802924,123.40183958495618 139.48717948712874,122.12036108634493 138.89164598839125,121.37442027624638 137.62613730347948,120.91537774243625 136.4797353183967,120.87712412788824 135.31844499590807,121.25965978816384 133.38296112488024,123.21057490468957 132.89164598839125,124.10951656138059" stroke="#4DD2FF" stroke-linecap="round" stroke-linejoin="round" stroke-width="0.5"><title>2024-12-22 13.5km</title><desc>1734819430000</desc></polyline><polyline fill="none" points="152.0,136.1371029267466 152.38455217744922,136.66907211956277 156.7625308134593,137.35302943049464 158.27115858660545,136.9160571037355 158.5225965488935,135.2441499268607 162.56039441243047,133.80021343083354 162.79704190633493,133.9712067166547 163.0188989317394,136.72606869446463 163.8767460968811,138.34096165178926 164.79375513561536,139.0439090229629 165.38537387014367,139.10090459539788 166.76088742807042,138.43595475358597 168.43221035326133,138.11297793460835 171.5382087099133,138.8729221613903 173.32785538205644,137.88499383245653 174.92522596550407,137.46702197879495 176.46343467541737,137.486020727476 178.10517666395754,137.88499383245653 179.34757600654848,136.47908336276305 181.98027937550796,137.35302943049464 183.2966310600168,137.03005002095597 184.65735414955998,136.02310925563506 186.94987674610456,132.71725092433917 187.67460969596868,130.64629843318835 188.0,127.89131239344715 187.3344289235538,124.60425549383217 186.22514379618224,122.1911627787631 185.35250616271514,121.31711855543836 184.02136400988093,120.91809648496564 182.3648315530154,121.14610924109002 181.38866064092144,121.77314233452489 180.0131470830529,123.35021269474237 178.91865242400672,125.25027299554495 178.1199671322829,127.45430944170221 177.8537387017277,129.7533091163641 178.35661462612916,133.64821921709517 179.92440427280962,136.44108557932486 180.82662284298567,137.08704644349928 182.12818405922735,137.3340306630853 183.51848808553768,136.9160571037355 184.42070665571373,136.2320975792245 186.66885784710757,133.32523094485805 187.34921939193737,131.7482771078212 187.8668857847224,129.31631219174596 187.9408381265239,127.83431208868569 187.58586688578362,125.53527973410382 186.1807723911479,122.1911627787631 185.27855382091366,121.33611957696849 184.25801150366897,121.03210291118012 182.92686935083475,120.97509971007821 181.66967953980202,121.56413162701938 180.0723089564708,123.31221121593262 178.97781429742463,125.11726964495028 178.09038619551575,127.4923097545252 177.8537387017277,129.52531089742843 177.95727198029635,131.7482771078212 178.5193097781157,134.10420134484593 179.17009038623655,135.39614234391775 179.76170912082307,136.32709216480725 180.79704190633493,137.08704644349928 182.00986031221692,137.35302943049464 183.28184059157502,137.0490488311625 185.5891536565614,134.9211654725077 187.2604765818105,131.9382725219184 187.7929334428627,129.86730808144785 187.9260476581985,127.7013112839195 187.58586688578362,125.57328058713756 186.89071487257024,123.54021992823982 186.16598192276433,122.1911627787631 185.175020542345,121.24111444246955 183.75513557932572,120.91809648496564 182.26129827438854,121.18411132962501 180.0131470830529,123.35021269474237 178.327033689362,126.8083024869702 177.82415776496055,130.09530572283256 178.50451930984855,134.12320056678436 179.49548069020966,135.96611238399055 180.4716516023036,136.9160571037355 182.00986031221692,137.35302943049464 183.04519309778698,137.14404284195916 184.19884963019285,136.44108557932486 185.6483155299793,134.8831672505912 187.29005751846125,131.82427530550922 187.7929334428627,129.82930843708164 187.91125718975672,127.73931152722798 187.61544782249257,125.78228508745087 186.90550534095382,123.57822134286107 186.21035332791507,122.1911627787631 185.3081347575644,121.29811753118702 184.110106820066,120.93709756270982 182.77896466723178,121.03210291118012 181.71405094489455,121.52612964544096 180.85620377975283,122.34316989211948 178.8742810189142,125.26927346347657 178.1199671322829,127.41630911815446 177.83894823340233,129.6013103464793 178.4009860312217,133.72421634536295 179.9391947411932,136.51708113549103 180.82662284298567,137.1060452456586 182.26129827438854,137.3340306630853 183.01561216101982,137.18204042760772 184.22843056696001,136.3840888840641 185.5743631881778,134.97816278527898 186.6540673787822,133.32523094485805 187.77814297453733,129.90530771507474 187.9408381265239,127.73931152722798 187.6598192275851,126.04829034724389 187.3196384551702,124.60425549383217 186.1807723911479,122.1911627787631 185.27855382091366,121.29811753118702 184.02136400988093,120.93709756270982 182.85291700903326,120.99410077980428 181.7436318816617,121.48812765307957 179.64338537387084,123.99623619759222 178.88907148723956,125.26927346347657 178.1199671322829,127.53031005662342 177.83894823340233,129.46831128248596 177.98685291706352,131.82427530550922 178.9926047658082,135.11115642158256 179.83566146262456,136.40308778519102 180.82662284298567,137.1060452456586 182.00986031221692,137.35302943049464 183.31142152828397,137.06804763870605 185.60394412488677,134.9211654725077 187.23089564504335,131.99527109399787 187.70419063267764,130.34230273310095 187.9408381265239,127.77731175979716 187.42317173379706,125.04126767150592 186.15119145438075,122.13416006715852 185.2489728841465,121.27911650428723 184.05094494658988,120.89909540458757 182.86770747741684,120.97509971007821 181.72884141333634,121.48812765307957 179.58422350045294,124.1292406526627" stroke="#4DD2FF" stroke-linecap="round" stroke-linejoin="round" stroke-width="0.5"><title>2024-12-20 16.0km</title><desc>1734644952000</desc></polyline><polyline fill="none" points="12.0,176.598474776707 16.43876288656611,177.4184560510912 18.04206185566727,177.0561393556127 18.39835051546106,175.39709790317283 20.268865979393013,174.38640752252832 22.555051546369214,173.73803613962082 23.030103092780337,177.34217893258028 24.158350515412167,178.75329867612163 24.72247422678629,179.07747275795555 25.375670103065204,179.09654179740755 26.533608247409575,178.44819294956687 28.404123711341526,178.1430865361326 31.35835051542381,178.94398940635438 33.88206185569288,177.704494863312 35.04000000003725,177.55194090529403 38.261443298950326,177.89518706939998 39.55298969068099,176.46498898341088 41.45319587626727,177.36124821622798 43.20494845358189,177.265901771083 45.387216494826134,175.2636109264422 47.257731958758086,172.17430415887793 47.97030927828746,167.94069530905108 47.19835051544942,164.20280457673653 46.33731958759017,162.35289193780045 45.58020618552109,161.51374798096367 44.33319587627193,160.9606729860534 43.17525773192756,160.94160139431187 41.482886597921606,161.64724850353377 39.968659793783445,163.32552956676227 38.87010309280595,165.28985486166494 37.7863917525392,169.04678606128437 38.0090721649467,172.55570386681939 39.523298969026655,176.04546134828706 40.414020618540235,176.9417233557615 41.200824742321856,177.28497106547002 43.17525773192756,177.20869387176936 44.74886597931618,175.9501139774511 45.90680412366055,174.5580347222567 47.42103092779871,171.5831324900937 48.0,167.76905972798704 47.67340206186054,165.72848671775137 46.87175257730996,163.3636720765935 45.49113402055809,161.41839038426406 44.15505154640414,160.94160139431187 42.596288659842685,161.01788774543093 41.438350515440106,161.64724850353377 40.08742268040078,163.23017324517423 38.55835051543545,165.9954793262441 37.99422680406133,168.20768355869222 37.83092783507891,170.38171115214936 38.395051546394825,173.75710593049007 39.49360824743053,176.00732240801153 40.414020618540235,176.9035846676852 41.58680412371177,177.36124821622798 43.14556701033143,177.24683247401845 45.35752577311359,175.2636109264422 47.19835051544942,172.17430415887793 47.807010309246834,170.01937564210675 47.98515463917283,167.71184781934426 47.272577319527045,164.24094683959265 45.68412371131126,161.55189100083953 44.31835051544476,160.9606729860534 42.96742268034723,160.9034582025779 41.631340206135064,161.4756049502903 40.74061855667969,162.35289193780045 38.588041237031575,165.88105398700282 37.80123711336637,169.67610952834366 38.3653608247987,173.56640790140955 39.122474226751365,175.39709790317283 40.1616494844784,176.73196043857024 41.40865979384398,177.28497106547002 42.86350515461527,177.28497106547002 44.837938144337386,175.89290552266175 47.07958762883209,172.55570386681939 47.79216494841967,170.01937564210675 47.97030927828746,167.94069530905108 47.643711340148,165.6522030186461 46.87175257730996,163.3064583078085 45.698969072138425,161.55189100083953 44.28865979379043,160.9606729860534 42.9822680412326,160.92252979979094 41.69072164944373,161.4565334309882 40.96329896902898,162.23846352241526" stroke="#4DD2FF" stroke-linecap="round" stroke-linejoin="round" stroke-width="0.5"><title>2024-12-15 10.9km</title><desc>1734216782000</desc></polyline><polyline fill="none" points="58.66666666668607,176.06376647828438 59.50353452964919,176.85586230868648 62.116911364893895,177.04445586401562 63.58510059816763,177.42164217862592 65.08265361608937,177.02559652044147 65.332245785743,175.3659638918616 67.16748232732061,174.46070106854313 69.41381185426144,173.81946953566512 69.64872213162016,173.9137684829475 69.67808591620997,176.02604751239414 70.08917890157318,177.5913756738737 71.55736813484691,179.00581310824782 72.35019032086711,179.0246721732401 73.75965198478661,178.36460332096613 75.43338771077106,178.1194340621587 78.25231103861006,178.9303768218815 80.1462751495419,177.8931235790369 81.99619358347263,177.49707931412559 84.91789015766699,177.81768666645803 86.07775965193287,176.49753382240306 86.81185426865704,176.57297147809004 88.14790647092741,177.28962708925246 89.92441544309258,177.08217454330588 91.11364872212289,176.27122060058173 92.47906470909948,174.8190350005898 93.3452963567106,173.36683366532088 94.28493746602908,170.85844884018297 94.62262098962674,168.35001706446928 94.3143012507353,165.8226774148934 93.3159325720626,163.0123706424638 92.1266992930905,161.54117983634933 90.80532898311503,161.03191771713318 89.43991299619665,161.1262256629998 88.309407286637,161.69207194444607 86.79717237630393,163.44618023252406 85.1381185426726,166.65255539154168 84.56552474177442,169.97201590787154 84.97661772707943,173.1216552638798 86.45948885264806,176.34665838365618 88.26536160957767,177.2707677801809 90.07123436650727,177.02559652044147 92.52311038604239,174.7247366903175 93.40402392606484,173.31025407399284 94.40239260467933,170.40580296899134 94.63730288197985,168.4065987499198 94.3436650353251,165.65292901375506 93.125067971705,162.57855964807095 92.18542686244473,161.54117983634933 90.59978249052074,160.97533291774744 89.42523110378534,161.05077931158303 88.7205002718838,161.39028755832987 87.25231103855185,162.7860346466623 85.38771071232622,165.93584289611317 84.69766177266138,168.74608836107654 84.75638934201561,171.82031624022056 85.24089178902796,174.1400856855471 86.82653616095195,176.64840909128543 86.82653616095195,177.10103387889103 88.11854268622119,177.81768666645803 88.91136487218319,179.06239029511926 88.45622620993527,178.53433562202554 88.57368134858552,177.77996819422697 89.05818379553966,177.28962708925246 89.80696030455874,177.17647119486355 90.82001087546814,176.51639324027929 92.47906470909948,174.7813156844204 93.40402392606484,173.31025407399284 94.40239260467933,170.38694269119878 94.63730288197985,167.50128891564964 93.77107123436872,164.03087789274286 92.87547580205137,162.20133155481017 91.921152800438,161.35256446228595 90.59978249052074,160.9564713126747 89.08754758018767,161.25825667571917 87.91299619356869,162.12588580866577 86.7531266992446,163.50276398853748 85.09407286567148,166.80344174421043 84.58020663401112,170.06631756234856 85.29961935832398,174.21552466823778 86.47417074500117,176.32779894190026 87.57531266997103,177.11989321187139 88.7205002718838,177.36506429909787 89.96846112015191,177.10103387889103 92.50842849374749,174.76245602236304 93.99129961931612,171.80145616151276 94.5492115279776,169.80227276259393 94.66666666668607,167.82192018142086 94.1381185426726,165.18140454925015 93.15443175641121,162.72945058799814 91.7449700924335,161.23939511040226 90.70255573681789,160.9376097048953 89.23436650354415,161.16394882276654 87.95704187062802,162.1070243655413 86.60630777600454,163.82340482145082" stroke="#4DD2FF" stroke-linecap="round" stroke-linejoin="round" stroke-width="0.5"><title>2024-12-10 11.3km</title><desc>1733785667000</desc></polyline><polyline fill="none" points="105.33333333331393,176.85414686354488 107.48098434007261,175.62996189756086 108.29977628635243,175.44029834375397 109.0111856823205,176.07825640302326 109.82997762865853,176.21619284394546 112.87695749441627,176.6644852046884 114.19239373604069,176.31964507277007 114.51454138703411,174.8023369629591 118.28635346755618,173.2850100637006 118.46085011184914,173.371222322814 118.64876957493834,176.38861317680858 120.2595078299637,178.18177025592013 120.83668903802754,178.25073731184239 122.0715883668745,177.61279056340572 123.56152125279186,177.33692067056836 126.38031319907168,178.0783195992335 128.27293064875994,177.06105015659705 129.56152125273366,176.80242098571034 132.36689038033364,177.13001784330845 133.6017897091224,175.85410935535037 135.105145413836,176.52654926840478 136.8501118568238,176.50930726546358 138.21923937357496,175.5265090864341 140.27293064870173,172.7849777645897 140.99776286346605,170.71585690294887 141.27964205812896,168.78464590564545 140.87695749435807,165.47392765868426 139.87024608498905,163.1632692060084 139.06487695750548,162.2148520023111 137.61521252797684,161.76650676840654 136.36689038027544,161.8527271331186 135.74944071588106,162.1631199436888 133.68232662189985,164.54277203212405 132.39373601786792,167.54313704700326 132.1387024608557,169.50885359685344 132.46085011179093,172.76773523514566 133.64205816556932,175.4058140297493 134.1387024607975,176.00928812431084 135.15883668902097,176.5437912689158 136.11185682326322,176.6644852046884 136.98434004472801,176.45758124202257 138.52796420583036,175.18166575190116 140.15212527965195,172.97464542862144 141.14541387022473,170.14684254013991 141.3199105145177,167.95697473106702 140.86353467562003,165.43944053946325 139.68232662195805,162.9046106967653 138.7293064876576,162.0424117219227 137.23937360179843,161.74926268815034 136.43400447431486,161.80099492153386 135.77628635347355,162.18036396567913 134.1655480984482,163.85302256073192 132.7293064877158,166.45680647565314 132.11185682326322,169.68128336860536 132.4474272930529,172.5435821312276 133.68232662189985,175.4575404971547 134.90380313189235,176.42309721425408 135.89709172263974,176.6644852046884 137.0111856823205,176.47482325223245 138.8501118568238,174.83682144685008 140.1387024607975,173.07810039435572 140.66219239367638,171.94009096704394 141.13199105142849,170.1640854384459 141.33333333331393,167.99146114165342 140.86353467562003,165.3877098423909 139.45413870248012,162.55973183497554 138.74272930645384,162.02516768050555 137.3601789708482,161.74926268815034 135.977628635359,162.0424117219227 134.74272930651205,163.19775696597208 133.68232662189985,164.64623411792127 134.0715883668163,165.24976121019427" stroke="#4DD2FF" stroke-linecap="round" stroke-linejoin="round" stroke-width="0.5"><title>2024-12-08 8.9km</title><desc>1733614342000</desc></polyline><polyline fill="none" points="152.0,176.20759934093803 152.44058428739663,175.89724110413226 153.19384129490936,175.86072832161153 153.93288590601878,176.57272572783404 156.47690485580824,176.75528853591823 157.99763126729522,177.17518201969506 159.40465850767214,176.70051972047077 159.6178444531979,175.18523999080935 161.45124358462635,174.30892556412437 163.44097907620016,173.74296935094753 163.78207658900646,173.90727947367122 163.98105013812892,176.59098202023597 164.70588235289324,177.97845272373524 165.72917489142856,178.72695049454342 169.32491117244354,177.8141477570898 170.4761152783176,177.99670881827478 172.22424003155902,178.72695049454342 174.4697986576357,177.46728103295027 175.93367548356764,177.21169443232066 178.53454401891213,177.63158643887436 179.7852348993183,176.26236836452154 182.20134228182724,177.1386695967376 183.62258191860747,176.77354480257782 185.12909593363293,175.4955999308877 186.84879589418415,173.15875389611756 187.81523884722264,170.32892305207497 188.0,167.9189539221552 187.7015396762872,166.0201588318596 187.18989340699045,164.34043231453688 186.0244769048295,162.13119367035688 184.61744966445258,161.38260014046682 183.21042242395924,161.34608327245223 182.14449269638862,161.71125149048748 180.8227398340823,162.95281574246474 178.7903671535896,166.64092182308377 178.23608369514113,170.42020888149273 178.59139360440895,172.9944428254821 179.57204895379255,175.38606121328485 180.35373075399548,176.4084189808491 181.47651006706292,177.01087603569613 182.7698381365044,177.0656447201618 184.09159099881072,176.46318791965314 185.59810501377797,174.966161939039 186.74930911959382,173.23178097190976 187.77260165807093,170.47498034827004 187.9715752072516,167.99198394751875 187.7015396762872,165.87409651986673 186.97670746140648,163.7379164157319 185.95341492298758,162.09467701302492 185.25700750097167,161.60170113305503 183.722068693256,161.27304950547114 182.13028029998532,161.7842850107554 180.35373075399548,163.57359341219126 178.87564153177664,166.42182934186712 178.23608369514113,169.2882600563753 178.52033162250882,172.5927926654549 179.25937623367645,174.80185315747804 180.02684563753428,176.07980486271845 181.0643505724147,176.84656984369212 181.94551914720796,177.08390094313654 182.99723647843348,177.08390094313654 184.1058033950976,176.51795683529053 186.53612317406805,173.57865902023332 187.78681405441603,170.27415152353933 187.9715752072516,168.19281630527985 187.77260165807093,166.31228296249174 187.45992893795483,164.86991367291193 186.43663639953593,162.7337170320534 185.56968022102956,161.76602663451922 184.64587445714278,161.36434170778375 183.30990919854958,161.3095663941058 182.20134228182724,161.71125149048748 181.0785629687598,162.7154587894911 179.89893407019554,164.35869032841583 178.97512830630876,166.14796321996255 178.4208448480349,168.06501393172948 178.25029609154444,170.27415152353933 178.4350572443218,172.17288435039518 179.71417291741818,175.6599078338768 180.31109356490197,176.37190634220315 181.33438610343728,176.97436356658 182.64192656922387,177.12041338147537 183.52309514407534,176.8830823487515 184.50375049345894,176.22585568472277 185.93920252658427,174.5462613057898 187.53099091985496,171.424348765795 187.95736281084828,167.88243889408477 187.57362810894847,165.56371356084128 187.0051322542131,163.92049728668644 186.3655744176358,162.67894229663943 185.54125542833935,161.76602663451922 184.21950256614946,161.3095663941058 182.89774970384315,161.38260014046682 182.11606790364021,161.76602663451922 180.58112909586634,163.35449575034727 178.93249111721525,166.31228296249174 178.27872088435106,169.47083311558526 178.8045795498765,173.68819926385186 180.3821555468021,176.44493160926504 181.44808527437272,177.01087603569613 182.57086458738195,177.08390094313654 183.52309514407534,176.84656984369212 184.66008685348788,175.9885230155778 186.20923805760685,174.1263593134936 187.3320173706743,171.9720581540605 187.78681405441603,170.31066587843816 188.0,167.86418137614965 187.63047769438708,165.54545571657945 186.12396367936162,162.29551850110875 184.63166206079768,161.40085857067606 183.3951835767366,161.27304950547114 182.30082905641757,161.63821792912495 180.65219107776647,163.24494678064366 180.1405448084697,163.42752834543353" stroke="#4DD2FF" stroke-linecap="round" stroke-linejoin="round" stroke-width="0.5"><title>2024-12-07 13.6km</title><desc>1733525549000</desc></polyline><polyline fill="none" points="12.0,218.91979245474795 12.275618374464102,220.0908526352432 13.441696112975478,221.77934553807427 14.544169611181132,222.89592146301584 15.371024734922685,223.03208881804312 17.639575971639715,222.07891532096255 19.823321554693393,221.6976446077606 24.339222614769824,222.73252051051531 26.79858657240402,221.42530792416073 29.06713780912105,220.74446453872952 33.94346289744135,221.2619057301199 35.55477031797636,219.35553660547885 39.30742049473338,220.58106176978617 40.515901059960015,220.47212651387963 41.999999999883585,219.68234407473938 44.69257950526662,216.90446299570613 46.53710247343406,213.8269599514315 47.38515901053324,211.23964076454286 47.95759717305191,206.96367954947345 47.109540635952726,202.6603875249857 45.34982332144864,198.68384273453557 44.01413427561056,197.485415951116 41.448763250838965,196.96791118195688 39.13780918717384,197.73054930615763 36.31802120129578,200.89001808685134 34.325088339159265,204.7031013664382 33.49823321553413,209.76893864944577 34.21908127202187,215.3793348603649 36.169611307326704,219.00149455771316 37.484098939807154,220.00915099220583 39.32862190797459,220.52659414950176 41.76678445225116,219.87298151028517 44.69257950526662,216.90446299570613 46.21908127202187,214.58953163823753 47.19434628961608,212.08392766973702 48.0,206.96367954947345 46.93992932862602,201.8977688296727 45.32862190809101,198.68384273453557 44.5229681978235,197.83949736418435 42.86925795057323,197.15857099478308 40.833922261488624,196.99514830956468 39.30742049473338,197.62160118670727 38.077738515799865,198.68384273453557 36.29681978805456,200.89001808685134 34.70671378087718,203.72260141355218 33.66784452286083,207.45392193604494 33.49823321553413,209.55105590399762 34.007067137630656,214.8346433279803 36.31802120129578,219.16489866025222 37.52650176663883,220.00915099220583 39.32862190797459,220.55382796152844 40.685512367403135,220.41765886290523 42.424028268433176,219.35553660547885 44.607773851486854,217.04063456608856 46.346289752516896,214.26271556899883 47.68197879847139,210.12299758753215 47.95759717305191,206.88197236422275 47.51236749114469,205.65636044659186 47.63957597175613,204.37626860075397 46.57950530038215,200.97172780202527 45.24381625442766,198.54765824660717 43.95053003530484,197.485415951116 42.50883392221294,196.99514830956468 40.30388692568522,197.07685966946883 39.15901060064789,197.70331228201394 35.999999999883585,201.48922186373966" stroke="#4DD2FF" stroke-linecap="round" stroke-linejoin="round" stroke-width="0.5"><title>2024-12-05 7.7km</title><desc>1733352101000</desc></polyline><polyline fill="none" points="58.66666666668607,216.90046352250647 60.842342342366464,215.6159302353626 61.477477477514185,215.51177830151573 61.977477477514185,216.15404715930345 64.51801801804686,216.39706693620246 65.9639639640227,216.84838810885412 67.53153153153835,216.39706693620246 67.73423423425993,214.90422360152297 69.96396396396449,213.89741208201303 71.47747747751419,213.5675927283737 71.70720720727695,213.88005319063814 71.65315315313637,215.70272344638943 72.07207207212923,216.72687872478127 72.80180180183379,217.85517554380203 73.54504504508805,218.30649138190347 76.801801801892,217.45593323378853 79.58558558562072,218.18498343408282 81.31531531532528,217.2649908026142 82.97747747745598,216.88310505374102 85.72072072076844,217.21291554284835 86.42342342349002,216.17140573069628 86.85585585591616,215.94574411242502 87.57207207212923,216.51857664511772 89.18018018023577,216.7615957038579 90.20720720727695,216.6053692210553 91.1126126126037,216.04989567984012 92.22072072071023,214.90422360152297 93.43693693698151,213.15097754751332 94.07207207207102,211.53658043130417 94.65315315319458,208.04732738397433 93.84234234242467,204.48853479134414 92.43693693698151,202.24904681402404 90.90990990994032,201.72822982862272 89.85585585591616,201.84975398860115 89.04504504508805,202.19696521446167 87.4639639640227,203.88092579383374 85.99099099100567,206.53702306914784 85.39639639644884,209.74856756810186 85.74774774775142,213.08154154727526 86.34234234236646,214.57440693981334 87.27477477485081,215.94574411242502 88.51801801804686,216.64008623437257 89.69369369372725,216.7095202315977 90.84234234236646,216.20612286610412 91.9504504505312,215.16460455367633 93.84234234242467,212.26566561628715 94.34234234236646,210.49502269161167 94.6261261261534,208.11676621815423 93.85585585591616,204.66213681230147 92.96396396396449,202.83930340554798 92.40990990988212,202.23168628329586 90.90990990994032,201.71086922458198 90.07207207207102,201.78031162612024 89.31531531538349,202.04072028383234 88.30180180183379,202.8740242935237 86.18018018017756,206.08566416746908 85.39639639644884,209.87008382625208 85.73423423431814,213.02946452137985 86.35585585591616,214.62648331341916 87.28828828840051,215.98046131135197 88.07207207207102,216.48385959763982 89.42342342343181,216.77895418975095 90.32882882887498,216.53593516522233 91.42342342343181,215.7200820812941 93.7747747747926,212.45661578595173 94.57207207212923,209.08890579208673 94.32882882887498,205.98150418636214 92.89639639644884,202.73514068288205 92.35585585591616,202.21432575012295 90.93693693698151,201.71086922458198 90.00450450455537,201.81503281228652 88.92342342349002,202.31848891258414 87.43693693698151,203.89828609243705 86.20720720721874,206.05094418354565 85.4639639640227,208.7764331931612 85.38288288295735,210.5644601478998 85.69369369372725,213.04682353247335 87.1261261261534,215.84159245702904 88.70720720721874,216.69216173593304 89.950450450473,216.64008623437257 90.74774774775142,216.25819855088048 91.69369369372725,215.47706097073387 92.950450450473,213.84533540056145 93.7747747747926,212.4739748776119 94.15315315313637,211.31091033401754 94.6261261261534,207.9952482326844 93.81531531532528,204.52325521508465 92.92342342343181,202.75250114274968 91.88288288289914,201.93655688668514 90.93693693698151,201.71086922458198 89.70720720721874,201.86711457313504 88.39639639644884,202.80458250777156 87.24774774780963,204.19341079499281 85.90990990994032,206.7974216841394 85.50450450449716,208.6028369628475 85.39639639644884,210.59917886131734 85.73423423431814,213.0641825410712 86.38288288289914,214.66120088366733 87.08558558567893,215.8242338392156 87.81531531538349,216.36234985453484 89.19369369372725,216.7615957038579 90.26126126124291,216.553293682824 91.18018018023577,215.94574411242502 92.6126126126037,214.4355365026713 93.7882882883423,212.43925669180317 94.36936936946586,210.39086643391056 94.6261261261534,208.012607952267 93.73423423425993,204.3670132312982 92.950450450473,202.78722205517988 92.42342342343181,202.23168628329586 91.16666666674428,201.6935086181038 90.00450450455537,201.76295102941367 88.76126126130112,202.37057046087284 87.59909909911221,203.70732267331914 86.1261261261534,206.2071840342469 85.38288288295735,210.02631883943832 85.73423423431814,213.04682353247335 86.39639639644884,214.6785596651098 87.15315315319458,215.87630968525627 88.18018018017756,216.5706521980028 89.16666666674428,216.74423721556377 90.43693693698151,216.44914254038304 92.66666666674428,214.40081886891858 93.7747747747926,212.4739748776119 94.1261261261534,211.3803473310254 94.66666666668607,207.7695716563685 94.00450450455537,204.99197997890587 93.36936936940765,203.53371930848516 92.6261261261534,202.4573729924159 91.84234234236646,201.93655688668514 90.4639639640227,201.71086922458198 89.1261261262116,202.12752304748574 88.08558558562072,203.0649890028144 87.09909909917042,204.57533583234908" stroke="#4DD2FF" stroke-linecap="round" stroke-linejoin="round" stroke-width="0.5"><title>2024-12-03 16.2km</title><desc>1733178751000</desc></polyline><polyline fill="none" points="105.33333333337214,224.58302042137075 107.82181259605568,223.36531031914637 109.76519640116021,223.091324601628 112.13517665141262,223.33486747879942 115.00285275408532,224.3699216482346 117.82312925171573,222.7564526978531 120.64340574946254,222.08670733541658 125.54926486732438,222.78689561966166 127.56374807993416,220.41233485838166 128.34584156249184,220.38189160241745 130.9528198376065,221.69094773760298 133.0621022603009,221.69094773760298 134.7447882378474,220.83853999098937 136.40377441293094,219.28593153702968 137.7072635506047,217.91597364802146 139.9824445906561,213.92782462811738 141.30963353079278,207.38222985599714 139.9824445906561,200.62331485393224 138.39455782307778,197.3351176801807 136.90147026558407,196.02591415210918 134.72108843538444,195.50831987391575 132.39850779017434,195.84323396005493 130.50252359022852,197.27422466852295 127.89554531488102,200.4710846067028 126.16545973240864,203.94190761812206 125.43076585477684,206.92555306224676 125.12266842229292,209.2393722183915 125.38336624973454,213.34938469571352 125.92846170731355,215.87624249485089 127.72964669740759,219.46859193350247 129.05683563754428,220.99075590640132 131.61641430761665,221.81271999863384 132.89620364271104,221.78227693977533 134.91068685532082,220.71676718158415 137.68356374814175,217.94641725088877 139.5321483432781,214.99336782321916 140.90673688834067,210.85294198268093 141.33333333337214,206.4993205183564 140.29054202337284,201.35401854896918 138.7974544657627,197.9744932676258 137.44656572316308,196.36082743678708 133.98639455786906,195.41697957862925 131.66381391265895,196.20859418981127 127.89554531488102,200.41019247785152 125.92846170731355,204.70304557000054 125.09896861971356,210.4267171768879 125.85736229969189,215.7544668923074 127.35044985730201,218.9510537431197 128.84353741491213,220.89942636997148 130.57362299761735,221.5996184968244 132.8251042352058,221.7518338766822 135.8823787579313,219.89479892542295 139.74544656579383,214.44537483550084 140.95413649338298,210.09182566893287 141.33333333337214,206.43843008644762 140.0772438007407,200.74509897448297 138.39455782307778,197.36556417963584 136.73557164799422,195.9041273745097 133.93899495294318,195.41697957862925 132.1852095676586,195.84323396005493 130.85802062763833,196.8175265347527 127.91924511746038,200.41019247785152 126.14175992982928,203.94190761812206 125.00416940974537,210.21360445911705 125.92846170731355,215.7544668923074 127.54004827747121,219.1337144223071 128.98573623003904,220.89942636997148 130.73952161509078,221.5996184968244 132.84880403778516,221.66050466158777 134.555189817911,221.02119907656743 136.21417599299457,219.59036544547416 139.41364933073055,215.05425584729528 140.97783629584592,210.33538318071805 141.28593372832984,206.56021093318122 140.64603906066623,202.66318982988014 139.57954794820398,199.5272546831111 137.23326750053093,196.17814752759296 133.89159534778446,195.44742634800787 131.26091727009043,196.45216733352572 128.0377441298915,200.2579620807228" stroke="#4DD2FF" stroke-linecap="round" stroke-linejoin="round" stroke-width="0.5"><title>2024-12-01 10.0km</title><desc>1733006314000</desc></polyline><polyline fill="none" points="167.6002311881166,227.79311604078976 170.49928075948264,227.6689855955192 172.46419213572517,226.551809229044 178.61661955923773,218.69007772995974 180.90364755433984,210.00055098175653 180.45268428779673,202.9246037825651 177.6502697020769,195.47605432753335 175.74978164979257,193.44836096445215 173.30169534508605,192.33105456383782 170.33822244999465,192.20690914604347 167.37474955478683,193.61388747752062 162.92954021203332,198.869305814791 160.57808889308944,203.71082854777342 159.4828923883615,207.8488189750933 159.06414078362286,211.448823273764 159.45068072644062,217.11770620560856 161.9631903549889,223.90367051685462 163.6381967740599,226.30354723794153 166.82715130248107,227.8758696419245 169.08196763554588,228.0 171.7233239118941,226.92420182278147 174.59016182122286,224.40019834198756 178.1656562925782,219.31074838535278 180.35604930203408,213.6419077355822 180.9680708781816,206.3591491302359 179.8084510496119,200.1934908934345 178.61661955923773,197.2968282875372 176.49064987362362,194.11046645743772 174.49352683569305,192.66210875473917 170.30601078807376,192.12414550504764 168.7598510166863,192.66210875473917 165.82858978351578,195.18638470335281 162.92954021203332,198.869305814791 161.09347548359074,202.30389853552333 159.70837402169127,206.6074279618624 159.12856410746463,211.986751165241 159.45068072644062,216.91081458967528 161.89876703114714,223.90367051685462 163.50935012637638,226.13803912734147 165.6031081500696,227.46210140336188 168.50215772131924,227.9586232197762 171.2401489833137,227.29659394492046 175.65314666402992,223.0761222783185 178.8098895305302,218.1107839360775 180.1305676685879,214.4281038424524 181.03249420190696,206.6074279618624 179.8084510496119,200.0693487956887 178.61661955923773,197.17268496670295 176.65170818311162,194.11046645743772 174.5579501594184,192.62072700128192 170.9180323642213,192.12414550504764 168.53436938324012,192.78625398030272 166.98820961208548,193.90355865110178 162.83290522638708,198.9106866887596 160.5136655693641,203.75220874027582 159.54731571220327,207.22812412367784 159.38625740271527,215.95911128103035 159.93385565502103,219.1038583124755 161.93097869318444,223.82091579778353 163.18723350728396,225.80702262671548 165.63531981199048,227.46210140336188 168.083406116697,228.0 171.01466734986752,227.29659394492046 172.94736706407275,226.05528503714595 175.97526328312233,222.66234728557174 179.1642178115435,217.49011074760347 180.45268428779673,213.43501367379213 181.09691752574872,207.2695038211532 179.8084510496119,200.11072950073867 177.45699973055162,195.26914748223498 175.2021833973704,192.95178086619126 170.85360904037952,192.08276367589133 169.2430259452667,192.45519992915797 167.31032623106148,193.69665069913026 164.1213717025239,197.08992272350588 160.3526072599925,204.24877059672144 159.3540457407944,208.51089203896117 159.12856410746463,212.97984622544027 159.86943233129568,218.97972419889993 160.93241717398632,221.83479555347003 163.1550218454795,225.7242684433295 165.63531981199048,227.50347825340577 168.2766760881059,228.0 171.11130233563017,227.3379708182183 173.59160030214116,225.4346286181535 176.78055483067874,221.58652957971208 179.77623938769102,215.91773280643974 180.9680708781816,210.6626192004187 181.0002825401025,206.19362979277503 178.74546620680485,197.42097155592637 177.13488311157562,194.6484260725265 175.0089134259615,192.70349050246296 172.0454405307537,192.0 168.53436938324012,192.86901743503404 165.66753147391137,195.22776609574794 162.86511688830797,198.869305814791 160.12712562654633,204.8280917025404 158.90308247425128,212.15226724155946 159.70837402169127,218.85559003276285 162.09203700255603,224.40019834198756 163.6704084359808,226.17941616367898 166.21512972633354,227.75173923152033 169.21081428334583,227.8758696419245 171.69111224985681,226.88282489127596 176.74834316875786,221.46239651410724 178.39113792590797,219.0211022424919 180.1627793306252,214.5522398777539 181.06470586394425,207.02122554872767 180.51710761152208,203.04874467480113 178.77767786872573,197.58649583236547 176.97382480208762,194.4829001420585 174.42910351161845,192.57934524209122 171.0468790117884,192.04138184091426 167.82571282144636,193.15868934238097 162.80069356458262,198.95206755693653 163.7992550835479,200.77281999000115" stroke="#4DD2FF" stroke-linecap="round" stroke-linejoin="round" stroke-width="0.5"><title>2024-11-29 13.9km</title><desc>1732833187000</desc></polyline><polyline fill="none" points="12.0,256.8085588758404 14.174043510924093,255.59437120175426 14.903225806541741,255.50764305309713 15.537884471123107,256.1667754524824 19.521380345104262,256.73917704520136 20.87171792954905,256.2708486670672 21.060765191330574,254.88319858142495 22.829707426892128,253.99856349808397 24.69317329331534,253.42614917867468 25.003750937699806,253.63430014785263 24.963240810262505,255.81986410266836 25.287321830459405,256.7218315814316 26.232558139541652,257.86662695406994 27.24531132786069,258.31760403024964 28.730682670662645,257.62379246037744 30.12153038260294,257.39830285940116 31.552888222038746,257.6064471211139 32.781695423822384,258.14415150390414 34.17254313576268,257.43299359410594 36.03600900230231,256.89528610918205 37.264816204085946,256.82590432737925 39.074268567201216,257.1728128458926 39.92498124530539,256.0973932606212 40.57314328587381,255.92393761014682 42.36909227306023,256.7218315814316 43.77344336087117,256.4269583241039 45.83945986494655,254.55362939048064 46.81170292571187,253.0445381556492 47.689422355615534,250.65076933438831 47.986496624187566,248.01410059712362 47.44636159040965,245.18655763049173 46.460615153831895,242.94876291810942 45.21830457611941,241.90791432376864 43.800450112554245,241.68239596974308 42.720180044998415,241.95995696228783 41.80195048765745,242.65385670885735 40.33008252060972,244.56206086780003 39.344336084031966,246.47023548330617 38.777194298570976,249.19366989925038 39.08777194295544,252.94046221707686 40.3570892722928,255.66375367674482 41.23480870219646,256.37492179377296 42.42310577648459,256.70448611525353 43.26031507877633,256.63510422604304 44.20555138785858,256.1841209943377 45.83945986494655,254.51893784543063 46.81170292571187,253.0445381556492 47.702925731486175,250.6160766909088 47.94598649657564,247.68451303907932 46.98724681168096,243.9722554642285 46.352588147099596,242.80998361343518 45.29932483122684,241.90791432376864 44.30007501877844,241.68239596974308 43.179294823727105,241.80382898084645 42.31507876969408,242.27221233167074 41.05926481616916,243.4518365876429 39.330832708161324,246.52227619535552 38.723180795204826,250.11303226261225 39.1417854463798,253.02719217195408 40.411102775717154,255.68109928941703 41.153788447147235,256.3402307612414 41.936984246072825,256.652449702 43.71942985744681,256.47899483256333 45.94748687167885,254.41486315170187 47.32483120780671,251.89969799773098 48.0,248.1008340185872 47.55438859714195,245.48145777956233 46.31207801948767,242.75794133384625 45.258814703673124,241.90791432376864 44.20555138785858,241.68239596974308 43.04426106525352,241.85587166332698 41.977494373568334,242.48038213846303 41.05926481616916,243.33040520024952 39.789947486890014,245.56819298328628 39.06076519127237,247.52839230925747 38.75018754694611,249.43652100131294 39.128282070567366,252.99250019729516 40.195048762252554,255.4209148434311 41.18079519883031,256.3402307612414 42.35558889718959,256.7218315814316 43.26031507877633,256.66979517554137 44.25956489122473,256.1667754524824 45.97449362342013,254.43220894011756 46.81170292571187,253.02719217195408 47.810952738218475,250.25180334442848 47.972993248316925,248.06614065734175 47.797449362347834,246.6957450767659 46.784696174028795,243.39979457913432 45.7854463615804,242.23751732971868 44.853713428427,241.73443870344636 43.77344336087117,241.68239596974308 42.625656414194964,242.02934711272246 40.99174793699058,243.59061516961083 40.57314328587381,244.33654737029428" stroke="#4DD2FF" stroke-linecap="round" stroke-linejoin="round" stroke-width="0.5"><title>2024-11-27 11.3km</title><desc>1732665796000</desc></polyline><polyline fill="none" points="58.66666666668607,257.27260599015426 59.36180220317328,257.11806205285393 61.1932169822976,256.01907729873346 61.874984527763445,255.9675621455608 62.54338408220792,256.60291418164707 66.55378140864195,257.11806205285393 67.8237405619584,256.75745877137524 67.97078846395016,255.46958121011266 68.33172422327334,255.12614489823318 70.22997895779554,254.23320596374106 71.68708998640068,253.94128220254788 71.9678177992464,254.30189380607771 72.11486570123816,257.1008904922128 72.44906547840219,257.5130072813554 81.51256343605928,257.70189367797866 83.38408218842233,257.27260599015426 85.81705656641861,257.5816932776288 86.72607996041188,256.4827126987948 87.367743532639,256.25948105941643 88.89169451670023,257.0493757956865 90.52258942945627,256.9120031653583 91.84602054714924,255.83018829737557 93.67743532621535,253.27157211150916 94.46614680037601,250.7815920996727 94.62656269344734,249.2875797031811 94.14531501423335,245.76713332827057 93.4100755044492,243.96393853066547 92.76841193222208,243.0365708291938 92.0465404134593,242.53853711738338 90.42901349178283,242.29810632202134 89.23926228494383,242.74462027921254 88.4906547840219,243.3800411701377 87.23406362178503,244.99433882100857 86.2448322812561,246.8662104190007 85.5898007178912,249.78558586785948 85.99084045056952,253.7180459139272 87.2474316128064,256.1907943189508 88.50402277515968,256.9978610774706 89.88092585722916,257.11806205285393 90.803317242302,256.7746303804088 91.93959648476448,255.74432956375676 93.9982671122998,252.48165292073827 94.65329867554829,249.047162206567 94.10521104105283,245.6297479958448 93.31649956683395,243.86089802304195 92.62136403023032,242.93352953840804 91.47171679668827,242.38397451765923 90.21512563439319,242.31527996600198 89.1991583117051,242.77896743899328 88.00940710492432,243.87807144701947 86.27156826347345,246.7459993444063 85.5898007178912,250.28359000001365 85.69674464658601,252.53316954557522 86.12452036142349,254.00997020921932 87.32763955940027,256.2938244151446 88.70454264146974,257.06654736362543 89.94776581262704,257.0837189291051 90.58942938485416,256.9120031653583 91.85938853822881,255.79584481116035 93.8779551924672,252.72206365054444 94.4126748360577,250.93614406215056 94.66666666668607,248.56632579220604 93.97153113008244,245.30345721127378 93.31649956683395,243.84372459660517 92.42084416392026,242.77896743899328 91.37814085901482,242.33245360755973 90.24186161655234,242.29810632202134 89.23926228494383,242.7102731097475 88.076247060264,243.77503086689103 87.14048768411158,245.06303186431614 86.16462433472043,247.02076734089496 85.67000866442686,248.8754351332318 85.54969674471067,250.71290227570717 86.11115237034392,254.06148618878797 87.20732763962587,256.1564509342279 87.74204728315817,256.6200858124066 88.91843049885938,257.1008904922128 90.38890951848589,256.9806894998328 92.5144201015355,255.00594196071324 94.06510706775589,252.20689722098905 94.66666666668607,248.78957150594943 93.97153113008244,245.2691107621722 92.58126005693339,242.86483529617544 91.53855675208615,242.38397451765923 90.45574947400019,242.29810632202134" stroke="#4DD2FF" stroke-linecap="round" stroke-linejoin="round" stroke-width="0.5"><title>2024-11-24 10.4km</title><desc>1732400098000</desc></polyline><polyline fill="none" points="105.33333333331393,256.9195949974164 107.49063670408214,255.62062939178577 108.16479400749085,255.5686704824111 108.94681647937978,256.174856393598 112.9108614231809,256.76371984856814 114.24569288390921,256.38269087590015 114.43445692880778,254.9278421299532 115.62097378273029,254.39092931991036 118.38501872657798,254.47752831859543 118.70861423219321,256.7464003754285 119.49063670408214,257.802883778917 120.23220973782009,258.2705046853225 120.86591760296142,258.3051432002467 122.59176029957598,257.54309361887135 123.87265917600598,257.4218580231827 126.3400749063585,258.1492698060538 127.82322097371798,257.3006223080738 129.40074906364316,256.8676366364234 132.4479400748969,257.16206705886725 133.51310861419188,255.91506279724854 134.20074906363152,256.4866079854619 135.6838951310492,256.69444194130483 136.6007490635966,256.64248348522233 137.53108614229131,256.2441345933985 139.2164794006967,254.52948768864735 140.10636704118224,253.12657699909323 141.10411985014798,250.28606688285072 141.30636704113567,248.0343964289641 140.98277153552044,245.78268477780512 139.59400749061024,242.69950507439353 138.56928838952444,241.93735885831848 137.09962546813767,241.69485679974605 136.20973782771034,241.954680415678 135.3737827715231,242.56093338618666 133.18951310863486,245.54019029653864 132.245692883851,248.4500925365137 132.11086142319255,249.87037697662163 132.3400749063003,252.4337756984969 133.014232209709,254.33896989135974 133.8367041198071,255.7765059882804 134.45692883897573,256.36537134914397 135.79176029964583,256.7117614217641 136.99176029954106,256.53856650731905 137.97602996253408,255.88042360964027 139.22996254672762,254.51216790109902 140.16029962542234,253.07461703683657 140.807490636711,251.51580796822236 141.27940074901562,248.93506955403427 140.96928838948952,245.7307217148773 140.36254681646824,244.0852133743465 139.28389513108414,242.3530755613465 138.501872659137,241.92003729856515 137.08614232204854,241.71217839119345 136.15580524335383,241.92003729856515 135.38726591761224,242.49164748356998 134.06591760297306,244.03324959470046 133.1086142322165,245.6094744827642 132.63670411985368,246.7699788043392 132.12434456928167,249.43736516460922 132.38052434450947,252.45109577855328 133.02771535573993,254.39092931991036 133.86367041198537,255.81114520513802 134.63220973778516,256.40001040022617 135.95355805242434,256.7290808998223 137.18052434455603,256.43464944162406 137.90861423220485,255.91506279724854 139.28389513108414,254.46020852374932 140.17378277145326,253.02265705259924 141.18501872656634,249.92233829170436 141.30636704113567,247.99975502327288 140.96928838948952,245.74804273830523 140.3490636703791,244.0505708569981 139.44569288386265,242.49164748356998 138.52883895125706,241.90271573641076 137.39625468163285,241.71217839119345 136.16928838950116,242.0412881657321 135.05018726590788,242.8380766065311 133.80973782768706,244.37967437798216 132.73108614236116,246.562128088568 132.1917602995527,248.81382547882095 132.1378277153708,250.68443505883624 132.42097378271865,252.78017683628423 133.04119850182906,254.46020852374932 133.85018726583803,255.81114520513802 135.1176029961789,256.60784450235224 136.51985018723644,256.64248348522233 137.69288389506983,256.0882585890722 139.32434456929332,254.40824912450626 140.295131086139,252.7974968675844 140.807490636711,251.55044838428148 141.22546816477552,249.52396764888545 141.33333333331393,248.05171712811716 140.98277153552044,245.71340068905556 140.01198501867475,243.30575437557854 139.44569288386265,242.5262904397605 138.21872659178916,241.8161078887424 136.68164794001495,241.78146473268134" stroke="#4DD2FF" stroke-linecap="round" stroke-linejoin="round" stroke-width="0.5"><title>2024-11-21 10.8km</title><desc>1732142576000</desc></polyline><polyline fill="none" points="152.0,256.6165907342438 153.95696489239344,255.35969763807225 154.59569648921024,255.28986987044482 155.38391845970182,255.95323207586625 157.70781426952453,256.09288682502665 159.17553793883417,256.4769365746033 160.54813137027668,256.1976277837457 160.84711211774265,254.6090470764393 164.6387315968168,253.2124758056816 164.8697621744359,253.50924851619493 165.10079275193857,256.21508460158657 166.74518686294323,258.4146239974216 167.34314835787518,258.65901485642826 167.4246885617613,258.0305802462972 169.6806342015625,257.2101191587135 170.9580973953125,257.24503250701673 172.94224235555157,257.85601451186085 174.61381653451826,256.93081201856694 175.71460928651504,256.63404749311303 177.07361268403474,256.564220442815 179.0305775764282,256.9133553014108 180.0906002264819,255.72629277320084 182.1562853907235,256.4245662242465 183.70554926386103,256.23254141700454 185.8391845979495,254.31227699689043 186.83125707809813,252.7062148373152 187.673839184572,250.45420135550376 188.0,247.67840755600628 187.66024915064918,245.39138611920498 186.21970554918516,242.266303919474 185.17327293317067,241.5155741201961 183.85503963759402,241.35844405226817 182.11551528878044,242.0742571940209 180.37599093996687,244.0645451941673 179.00339750852436,247.24195633899217 178.69082672707736,249.9828445224921 178.85390713479137,252.02537786373432 180.13137032842496,255.13275724961568 181.55832389579155,256.2674550404263 183.46092865231913,256.3896526450262 184.61608154018177,255.63900831549836 186.19252548133954,253.77110620064195 187.17100792750716,252.00792045627895 187.82332955830498,249.82572518011148 188.0,247.7133235869842 187.70101925253402,245.63580263627227 186.27406568516744,242.33613901864737 184.69762174400967,241.39336186234868 183.40656851639505,241.42827966260666 182.1698754246463,242.05679838607466 180.97395243489882,243.31382627860876 179.73725934315007,245.19934423218365 179.1257078142953,246.82296172589122 178.7180067950394,248.93537848108826 178.92185730463825,252.19995180291153 179.7508493771311,254.41701945898967 180.6477916194708,255.7437496573839 181.95243488106644,256.40710943585145 183.4337485843571,256.3896526450262 184.67044167610584,255.56918070507527 185.93431483581662,254.17262024324737 187.14382785960333,252.0777500712793 187.70101925253402,250.33199790410436 188.0,247.7307815988388 187.80973952432396,246.3166746801362 187.2797281992971,244.22167183404963 186.27406568516744,242.35359778732527 184.8063420158578,241.41082076368184 184.03171007928904,241.34098514356447 182.86296715738717,241.5504918860679 182.21064552658936,241.9869631296242 180.97395243489882,243.27890900915372 179.6013590033399,245.60088602051837 178.97621744050412,247.43399506364221 178.7180067950394,249.21470362362743 178.89467723673442,251.99046304640797 180.11778029444395,255.11530027948174 180.91959229891654,255.95323207586625 181.95243488106644,256.40710943585145 183.22989807470003,256.4245662242465 184.01812004524982,256.1278004878186 186.20611551532056,253.80602051679307 187.56511891284026,250.9604715144742 188.0,247.66094953676657 187.18459796148818,244.01216960332385 186.2468856172054,242.33613901864737 185.5130237825215,241.74253942244104 184.7112117780489,241.41082076368184 183.17553793883417,241.44573855905765 182.3193657983793,241.8647513362448 181.42242355603958,242.7726074976381 180.43035107589094,243.9947110681387 179.31596828991314,246.24684182200144 178.69082672707736,249.7035211095863 179.16647791618016,252.96807421684935 180.45753114379477,255.58663761139178 181.85730464325752,256.44202301014593 183.21630804077722,256.4769365746033 183.96375990944216,256.18017096341646 186.11098527739523,253.96313481790276 187.18459796148818,252.0777500712793 187.71460928651504,250.4367437269393 187.98640996601898,247.59111743539688 187.64665911660995,245.47867778775253 186.8720271800994,243.40111940920178 186.19252548133954,242.266303919474 185.24122310307575,241.62032738823473 184.2355605888879,241.35844405226817 183.053227633005,241.5155741201961 182.1562853907235,242.05679838607466 180.94677236693678,243.29636764512543 179.26160815398907,246.2992164692987 178.85390713479137,247.8704456049527 178.67723669303814,250.34945554736623 179.49263873154996,253.87584911959857 180.0906002264819,255.08038633181422 180.94677236693678,255.9706889281224 181.73499433742836,256.37219585175626 183.24348810873926,256.40710943585145 183.990939977346,256.1278004878186 185.0509626273997,255.22004206352722 186.05662514158757,254.0155062074191 187.30690826725913,251.79843137548596 187.98640996601898,248.37672630904126 187.5243488108972,245.00730204790307 186.20611551532056,242.28376269793807 184.65685164212482,241.39336186234868 183.46092865231913,241.41082076368184 182.5639864099794,241.75999827463966 181.02831257076468,243.20907444076875 180.30804077006178,244.3264228167318" stroke="#4DD2FF" stroke-linecap="round" stroke-linejoin="round" stroke-width="0.5"><title>2024-11-17 16.3km</title><desc>1731797391000</desc></polyline></svg>