<?xml version="1.0" encoding="utf-8" ?>
<svg baseProfile="full" height="200mm" version="1.1" viewBox="0,0,200,200" width="200mm" xmlns="http://www.w3.org/2000/svg" xmlns:ev="http://www.w3.org/2001/xml-events" xmlns:xlink="http://www.w3.org/1999/xlink"><defs /><rect fill="#1a1a1a" height="200" width="200" x="0" y="0" /><text alignment-baseline="middle" fill="#e1ed5e" style="dominant-baseline: central; font-size:9.0px; font-family:Arial;" text-anchor="middle" x="100.0" y="100.0">2024</text><line stroke="#e1ed5e" stroke-width="0.3" x1="100.0" x2="100.0" y1="15.0" y2="10.0" /><path d="M 100.0 14.0 a86.0,86.0 0 0,1 42.35913384403234,11.155469271406648" fill="none" id="id1" stroke="none" /><text fill="#e1ed5e" style="font-size:6.75px; font-family:Arial;" text-anchor="middle"><textPath startOffset="22.145653131862478" xlink:href="#id1">January</textPath></text><line stroke="#e1ed5e" stroke-width="0.3" x1="143.13028292997686" x2="145.6673583964461" y1="26.7553504044142" y2="22.446841604673864" /><path d="M 143.63769802327073 25.89364864446614 a86.0,86.0 0 0,1 29.32050498858742,28.57503671076993" fill="none" id="id2" stroke="none" /><text fill="#e1ed5e" style="font-size:6.75px; font-family:Arial;" text-anchor="middle"><textPath startOffset="20.669276256404974" xlink:href="#id2">February</textPath></text><line stroke="#e1ed5e" stroke-width="0.3" x1="172.87174338648825" x2="177.1583165268699" y1="56.24261187166439" y2="53.66864786411523" /><path d="M 173.72905801456457 55.72781907015455 a86.0,86.0 0 0,1 12.242430191666344,42.057860355516425" fill="none" id="id3" stroke="none" /><text fill="#e1ed5e" style="font-size:6.75px; font-family:Arial;" text-anchor="middle"><textPath startOffset="22.145653131862474" xlink:href="#id3">March</textPath></text><line stroke="#e1ed5e" stroke-width="0.3" x1="184.99686870605535" x2="189.99668451229388" y1="99.2704041080226" y2="99.22748670261217" /><path d="M 185.99683186730306 99.26182062694052 a86.0,86.0 0 0,1 -10.086455211305974,41.156179273409016" fill="none" id="id4" stroke="none" /><text fill="#e1ed5e" style="font-size:6.75px; font-family:Arial;" text-anchor="middle"><textPath startOffset="21.40746469413373" xlink:href="#id4">April</textPath></text><line stroke="#e1ed5e" stroke-width="0.3" x1="174.33088141563837" x2="178.70328620479359" y1="141.23008692659167" y2="143.65538615756765" /><path d="M 175.20536237346943 141.71514677278685 a86.0,86.0 0 0,1 -30.301960400862466,31.631185727798858" fill="none" id="id5" stroke="none" /><text fill="#e1ed5e" style="font-size:6.75px; font-family:Arial;" text-anchor="middle"><textPath startOffset="22.145653131862474" xlink:href="#id5">May</textPath></text><line stroke="#e1ed5e" stroke-width="0.3" x1="143.1302829299769" x2="145.66735839644613" y1="173.24464959558577" y2="177.55315839532614" /><path d="M 143.63769802327073 174.10635135553383 a86.0,86.0 0 0,1 -40.68552437913181,11.842963189579606" fill="none" id="id6" stroke="none" /><text fill="#e1ed5e" style="font-size:6.75px; font-family:Arial;" text-anchor="middle"><textPath startOffset="21.407464694133747" xlink:href="#id6">June</textPath></text><line stroke="#e1ed5e" stroke-width="0.3" x1="101.45913802915013" x2="101.54496967792366" y1="184.9874750549273" y2="189.98673829345242" /><path d="M 101.47630435890484 185.9873277026323 a86.0,86.0 0 0,1 -42.54439059252881,-10.42667462771756" fill="none" id="id7" stroke="none" /><text fill="#e1ed5e" style="font-size:6.75px; font-family:Arial;" text-anchor="middle"><textPath startOffset="22.145653131862474" xlink:href="#id7">July</textPath></text><line stroke="#e1ed5e" stroke-width="0.3" x1="58.13341422392154" x2="55.67067388415222" y1="173.97424548756322" y2="178.32567169271397" /><path d="M 57.64086615596768 174.84453072859336 a86.0,86.0 0 0,1 -31.369924170532247,-30.572349798747897" fill="none" id="id8" stroke="none" /><text fill="#e1ed5e" style="font-size:6.75px; font-family:Arial;" text-anchor="middle"><textPath startOffset="22.145653131862474" xlink:href="#id8">August</textPath></text><line stroke="#e1ed5e" stroke-width="0.3" x1="26.387840678322732" x2="22.057713659400548" y1="142.50000000000003" y2="145.00000000000006" /><path d="M 25.521815274538298 143.00000000000003 a86.0,86.0 0 0,1 -11.493303480769221,-40.785679425670985" fill="none" id="id9" stroke="none" /><text fill="#e1ed5e" style="font-size:6.75px; font-family:Arial;" text-anchor="middle"><textPath startOffset="21.40746469413373" xlink:href="#id9">September</textPath></text><line stroke="#e1ed5e" stroke-width="0.3" x1="15.003131293944662" x2="10.003315487706104" y1="100.72959589197737" y2="100.7725132973878" /><path d="M 14.003168132696942 100.73817937305945 a86.0,86.0 0 0,1 10.791469493833604,-42.45332614584628" fill="none" id="id10" stroke="none" /><text fill="#e1ed5e" style="font-size:6.75px; font-family:Arial;" text-anchor="middle"><textPath startOffset="22.145653131862435" xlink:href="#id10">October</textPath></text><line stroke="#e1ed5e" stroke-width="0.3" x1="26.387840678322718" x2="22.05771365940052" y1="57.49999999999999" y2="54.99999999999999" /><path d="M 25.521815274538284 56.99999999999999 a86.0,86.0 0 0,1 29.574782752854787,-30.34633250058573" fill="none" id="id11" stroke="none" /><text fill="#e1ed5e" style="font-size:6.75px; font-family:Arial;" text-anchor="middle"><textPath startOffset="21.40746469413373" xlink:href="#id11">November</textPath></text><path d="M 84.58840730492382 85.73525988315684 l -10.813558958628477 -10.008868735045034 a35.734670363028016,35.734670363028016 0 0,0 0.420553110170463,-0.44661282918307044 l 10.640150014721742 10.193023024172616" fill="red" stroke="none" /><path d="M 85.34317274990677 84.96080404539775 l -38.754966362673564 -39.766009614294866 a76.52731704680275,76.52731704680275 0 0,0 0.9486745814377228,-0.9088087891301186 l 38.066619295370536 40.425430533730555" fill="red" stroke="none" /><path d="M 86.40962598614128 83.9905735841838 l -23.88953793762379 -28.141815621132128 a57.91438485640744,57.91438485640744 0 0,0 0.7634375309275448,-0.6368867408964531 l 23.402926072534335 28.547764545940463" fill="red" stroke="none" /><path d="M 87.25179093698888 83.31218511350988 l -21.50135582626187 -28.14596497937122 a56.4189729804171,56.4189729804171 0 0,0 0.774678201315633,-0.5813329644889859 l 21.015024636035488 28.510916971124207" fill="red" stroke="none" /><path d="M 88.12776184653039 82.6780497279521 l -21.81155197280282 -31.823706174447246 a59.580980730663526,59.580980730663526 0 0,0 0.8486139283506292,-0.5709853234306244 l 21.262041756355202 32.19344117193498" fill="red" stroke="none" /><path d="M 88.72937992617638 82.28071324371311 l -25.451274200397673 -40.01363038730626 a68.42212537619741,68.42212537619741 0 0,0 0.996473348785229,-0.6218730684922112 l 24.76063672282275 40.44463925264" fill="red" stroke="none" /><line stroke="#e1ed5e" stroke-width="0.3" x1="56.869717070023135" x2="54.33264160355391" y1="26.7553504044142" y2="22.446841604673864" /><path d="M 56.362301976729285 25.89364864446614 a86.0,86.0 0 0,1 42.16139366436587,-11.88097634709845" fill="none" id="id12" stroke="none" /><text fill="#e1ed5e" style="font-size:6.75px; font-family:Arial;" text-anchor="middle"><textPath startOffset="22.145653131862474" xlink:href="#id12">December</textPath></text><path d="M 89.34428304082924 81.90426304109057 l -17.22726357815091 -29.255659795254164 a54.95102708971756,54.95102708971756 0 0,0 0.8169583122008115,-0.47167110146583835 l 16.722512798089703 29.547077793996177" fill="red" stroke="none" /><path d="M 89.97174638481275 81.54914285379989 l -29.17732215387451 -53.68298645284569 a82.09974764732985,82.09974764732985 0 0,0 1.2440503772610125,-0.6623867544753181 l 28.251482960826934 54.175943675043584" fill="red" stroke="none" /><path d="M 90.28995756902619 81.37971332152246 l -3.4019395604158276 -6.523667669642067 a28.357406651576042,28.357406651576042 0 0,0 0.43356149231520286,-0.22137958722408477 l 3.2894508463870427 6.581105208538985" fill="red" stroke="none" /><path d="M 90.61103034731259 81.2157712731953 l -18.26854525878804 -36.549328130891915 a61.860655069296115,61.860655069296115 0 0,0 0.9539494818155698,-0.4666244945741408 l 17.638435527710417 36.857546375563274" fill="red" stroke="none" /><path d="M 91.26138138417902 80.90454125486306 l -19.336762620750154 -42.25431605637717 a67.46867346980602,67.46867346980602 0 0,0 1.0572874364773264,-0.4729112221830408 l 18.60856178141721 42.58003102947006" fill="red" stroke="none" /><path d="M 91.5904679813234 80.7573450057729 l -12.202366019699618 -27.92140144170724 a51.47133726877918,51.47133726877918 0 0,0 0.8126709558285787,-0.34688090664109306 l 11.721259988700607 28.12675699800774" fill="red" stroke="none" /><path d="M 91.92203290615298 80.6158196554323 l -3.951692748286775 -9.482624032655139 a31.273073255922547,31.273073255922547 0 0,0 0.49730968088951755,-0.20225151781350648 l 3.7883286062068167 9.549062807047935" fill="red" stroke="none" /><path d="M 92.25597844496254 80.48000691201159 l -14.193495840889929 -35.77688139676454 a59.48948644322909,59.48948644322909 0 0,0 0.9524769253442272,-0.36843853625794737 l 13.577246653052171 36.01525982116053" fill="red" stroke="none" /><path d="M 92.93061703081487 80.22567764915836 l -4.397196029885332 -12.29973989438804 a34.062118296617896,34.062118296617896 0 0,0 0.5522835558056497,-0.1921128895755084 l 4.185406702034678 12.373411216532133" fill="red" stroke="none" /><path d="M 93.95794788825049 79.88797359093562 l -13.163695207493939 -43.817660085909644 a66.7522699646708,66.7522699646708 0 0,0 1.100268090431887,-0.32027200564576397 l 12.409567104680429 44.037175785857926" fill="red" stroke="none" /><path d="M 95.70440661134978 79.44403061299748 l -11.151493538560603 -53.363933468115846 a75.51665069802118,75.51665069802118 0 0,0 1.2712095915561954,-0.2542775206122223 l 10.233787461473431 53.54750038539093" fill="red" stroke="none" /><path d="M 96.41257539226777 79.30868818359171 l -7.877361072638801 -45.43452533973701 a67.11235095195136,67.11235095195136 0 0,0 1.136827288409839,-0.1870644976943216 l 7.096256281175889 45.563055835926995" fill="red" stroke="none" /><path d="M 97.84075906011542 79.11130261209362 l -5.682735570467313 -54.97531168213613 a76.26824022991747,76.26824022991747 0 0,0 1.3034621294463762,-0.12343921886303902 l 4.738173877635921 55.06476265650436" fill="red" stroke="none" /><path d="M 98.1996594967304 79.07731436759882 l -4.690551852943586 -54.51132254336651 a75.71275502213437,75.71275502213437 0 0,0 1.2958815069496896,-0.10030942436534498 l 3.75410135121868 54.58380973472691" fill="red" stroke="none" /><path d="M 98.5590905019552 79.04949213459386 l -2.1299238860658494 -30.968625849360098 a52.0417841426373,52.0417841426373 0 0,0 0.8917871404204846,-0.05364769986487126 l 1.597992393512881 31.000625527049664" fill="red" stroke="none" /><path d="M 98.9189461498227 79.02784411241856 l -3.24316155053188 -62.91646766274432 a84.0,84.0 0 0,0 1.4406969575967197,-0.061869726296685634 l 2.1626388323343404 62.96286995746683" fill="red" stroke="none" /></svg>