<?xml version="1.0" encoding="utf-8" ?>
<svg baseProfile="full" height="200mm" version="1.1" viewBox="0,0,200,200" width="200mm" xmlns="http://www.w3.org/2000/svg" xmlns:ev="http://www.w3.org/2001/xml-events" xmlns:xlink="http://www.w3.org/1999/xlink"><defs /><rect fill="#1a1a1a" height="200" width="200" x="0" y="0" /><text alignment-baseline="middle" fill="#e1ed5e" style="dominant-baseline: central; font-size:9.0px; font-family:Arial;" text-anchor="middle" x="100.0" y="100.0">2025</text><line stroke="#e1ed5e" stroke-width="0.3" x1="100.0" x2="100.0" y1="15.0" y2="10.0" /><path d="M 100.0 14.0 a86.0,86.0 0 0,1 42.46469731375804,11.215312516191453" fill="none" id="id13" stroke="none" /><text fill="#e1ed5e" style="font-size:6.75px; font-family:Arial;" text-anchor="middle"><textPath startOffset="22.20632615414155" xlink:href="#id13">January</textPath></text><path d="M 100.0 79.0 l 0.0 -12.364310169196187 a33.36431016919619,33.36431016919619 0 0,0 0.574311753836111,0.004943282581959039 l -0.21283127456358258 12.362478263222787" fill="#ff790b" stroke="none" /><path d="M 104.66035177308747 79.52364482259891 l 1.3395441219784443 -5.8856031803922955 a27.036116570425964,27.036116570425964 0 0,0 0.45288882885694615,0.1071841535392362 l -1.440656637797914 5.8616731147121905" fill="#ff1c02" stroke="none" /><path d="M 106.40334571778207 80.00007090966166 l 2.2139473125976394 -6.914945906908613 a28.260718945010233,28.260718945010233 0 0,0 0.4620185842667218,0.15232026319724548 l -2.3326487191067784 6.875811919452132" fill="#ff2e04" stroke="none" /><path d="M 109.73455568895987 81.39251694778311 l 7.764599868519458 -14.84193681531642 a37.75028655122226,37.75028655122226 0 0,0 0.5731840886587093,0.30617508953942285 l -8.018929003706479 14.706082999275242" fill="#ffb610" stroke="none" /><path d="M 110.05341064243156 81.56283822128135 l 6.448538398596246 -11.826110552910075 a34.469986573409095,34.469986573409095 0 0,0 0.5184875432643008,0.2885377564720311 l -6.651150030932582 11.713357398877864" fill="#ff880c" stroke="none" /><line stroke="#e1ed5e" stroke-width="0.3" x1="143.23703022742887" x2="145.7803849466894" y1="26.81831364943548" y2="22.513508569990506" /><path d="M 143.74570117128098 25.957352633546492 a86.0,86.0 0 0,1 28.547481713284135,27.462654790039103" fill="none" id="id14" stroke="none" /><text fill="#e1ed5e" style="font-size:6.75px; font-family:Arial;" text-anchor="middle"><textPath startOffset="19.985693538727396" xlink:href="#id14">February</textPath></text><path d="M 110.68208982089419 81.91981866633111 l 4.862061214200807 -8.22937738608064 a30.55836238134814,30.55836238134814 0 0,0 0.45057277083491964,0.2714650529348962 l -5.002996051253364 8.14446572368713" fill="#ff5007" stroke="none" /><path d="M 111.2981086023043 82.29822771554956 l 4.0502472779923 -6.34589005420891 a28.528268299748063,28.528268299748063 0 0,0 0.4116669520046044,0.26775963684504644 l -4.158881255781185 6.275231493204335" fill="#ff3204" stroke="none" /><path d="M 113.6212207817346 84.01681056812373 l 4.8923245591455 -5.740671224997593 a28.542555648156238,28.542555648156238 0 0,0 0.3711975690467284,0.32189887403573725 l -4.990415926838993 5.655607357542184" fill="#ff3204" stroke="none" /><path d="M 116.60985879189232 87.15038557335679 l 5.56525700782713 -4.305359102189308 a28.036206546284248,28.036206546284248 0 0,0 0.2920091865008846,0.3842498605030683 l -5.638542134552128 4.2089244658052065" fill="#ff2b04" stroke="none" /><line stroke="#e1ed5e" stroke-width="0.3" x1="172.23445277983987" x2="176.4835382374775" y1="55.19839476539836" y2="52.563006222186495" /><path d="M 173.08426987136738 54.67131705675599 a86.0,86.0 0 0,1 12.851231095245387,41.99856678651699" fill="none" id="id15" stroke="none" /><text fill="#e1ed5e" style="font-size:6.75px; font-family:Arial;" text-anchor="middle"><textPath startOffset="22.20632615414155" xlink:href="#id15">March</textPath></text><path d="M 118.03404312379186 89.2402003453031 l 11.571130185348709 -6.903778687792654 a34.47416839498112,34.47416839498112 0 0,0 0.2996631391040289,0.5122214419625133 l -11.688252998923065 6.703577833476245" fill="#ff880c" stroke="none" /><path d="M 119.85752413597 93.16781622104841 l 9.461962720418391 -3.2554848113409744 a31.00634398166779,31.00634398166779 0 0,0 0.16929863386578187,0.5061813665218358 l -9.516598648055943 3.0921303418968247" fill="#ff5708" stroke="none" /><path d="M 119.97218684219823 93.5106431181261 l 9.270602111196887 -3.0122012218662326 a30.747687915867054,30.747687915867054 0 0,0 0.15922106893605406,0.5047742996079795 l -9.321078663901146 2.852176755831834" fill="#ff5307" stroke="none" /><path d="M 120.08093135843002 93.85539295169968 l 15.919126352675594 -4.8711274513853695 a37.64771655453356,37.64771655453356 0 0,0 0.18428396423886628,0.6213139149475007 l -16.000616214026163 4.596384149691339" fill="#ffb410" stroke="none" /><path d="M 120.18372546131832 94.20196356495316 l 7.5228133729760325 -2.1610255308993773 a28.827052599147777,28.827052599147777 0 0,0 0.13289714557984822,0.4781017417157378 l -7.5588972891222435 2.0312124857646876" fill="#ff3705" stroke="none" /><path d="M 120.37134235888165 94.90015583598534 l 10.679364423299294 -2.673515243623763 a32.00892856928045,32.00892856928045 0 0,0 0.12920510673663615,0.5356385818097289 l -10.72380233029675 2.489291430154628" fill="#ff6509" stroke="none" /><path d="M 120.6074358757038 95.95851677861258 l 4.968845913272307 -0.9744787031862444 a26.063500612501834,26.063500612501834 0 0,0 0.08255213693407136,0.4409968164614202 l -4.984883774116237 0.8888038092622614" fill="#ff0d01" stroke="none" /><path d="M 120.67395015179393 96.31383870115 l 62.02185045538181 -11.058483896549978 a84.0,84.0 0 0,0 0.2415525539191079,1.4256568467366484 l -62.20301487082114 9.98924126149749" fill="#4dd2ff" stroke="none" /><line stroke="#e1ed5e" stroke-width="0.3" x1="184.98032266829074" x2="189.97916517819016" y1="98.17113171792111" y2="98.06355123074" /><path d="M 185.9800911702706 98.14961562048488 a86.0,86.0 0 0,1 -9.607161424134198,41.387399972396054" fill="none" id="id16" stroke="none" /><text fill="#e1ed5e" style="font-size:6.75px; font-family:Arial;" text-anchor="middle"><textPath startOffset="21.466115282336823" xlink:href="#id16">April</textPath></text><path d="M 120.99980553446 99.90962569577887 l 8.211441480153308 -0.03533858012178324 a29.21151752097183,29.21151752097183 0 0,0 -0.002164020808814576,0.5028422243389673 l -8.21083316205499 -0.1060131224208688" fill="#ff3c05" stroke="none" /><path d="M 120.95626037817324 101.35467743843564 l 7.998570993700676 0.5170523494820493 a29.01526550236327,29.01526550236327 0 0,0 -0.03650872218287441,0.4981325078704997 l -7.988485712853464 -0.6546579938493192" fill="#ff3905" stroke="none" /><path d="M 120.92983693683757 101.71520430193887 l 8.856489638843533 0.7257910883139792 a29.886179236703413,29.886179236703413 0 0,0 -0.046430888730149396,0.5123609881136431 l -8.84268415383631 -0.8781334649761928" fill="#ff4606" stroke="none" /><path d="M 120.89721153311464 102.0752229133903 l 9.757734360495574 0.9690036345561247 a30.805730360038407,30.805730360038407 0 0,0 -0.05694321681694587,0.5272234665915787 l -9.739608842177576 -1.1368234230324947" fill="#ff5407" stroke="none" /><path d="M 120.64145759157962 103.86396538481128 l 14.324946542388615 2.68154985341933 a35.57377106512466,35.57377106512466 0 0,0 -0.11785093510995728,0.600919379132405 l -14.276665674302993 -2.9277329596196795" fill="#ff980e" stroke="none" /><path d="M 120.49622156327973 104.57218783832717 l 9.075726327807107 2.024564645335796 a30.298799405320814,30.298799405320814 0 0,0 -0.11793365316069647,0.5080550912058153 l -9.039532108715857 -2.1804883938901765" fill="#ff4c07" stroke="none" /><path d="M 120.23288151984713 105.62410040840565 l 7.146457855571414 1.986488998353839 a28.417411841204398,28.417411841204398 0 0,0 -0.13506033059011172,0.4701627290349543 l -7.1112048880952035 -2.1092092028933753" fill="#ff3004" stroke="none" /><path d="M 120.02730092923936 106.31721596034902 l 19.53386582354779 6.161571615857229 a41.482599414862015,41.482599414862015 0 0,0 -0.22066322869661836,0.6791315862195252 l -19.424910343834924 -6.496902102054549" fill="#ffe715" stroke="none" /><path d="M 119.79798401119884 107.00284435728193 l 14.349229050339515 5.075537874445995 a36.22042900361364,36.22042900361364 0 0,0 -0.21296877323471014,0.5859985974933694 l -14.259736016099579 -5.321784268945495" fill="#ffa10e" stroke="none" /><path d="M 119.41010516605496 108.01547362559984 l 13.593499302670098 5.613485048536052 a35.70695201875053,35.70695201875053 0 0,0 -0.2394899598311579,0.5660835208503838 l -13.494858361646632 -5.8466430950526" fill="#ff9a0e" stroke="none" /><path d="M 119.26925614724726 108.34839909993367 l 16.211273588811146 7.02352912865001 a38.66735273866124,38.66735273866124 0 0,0 -0.26985929874721126,0.6084614779006969 l -16.087973205332663 -7.301538943043394" fill="#ffc212" stroke="none" /><path d="M 119.12269723197855 108.67885076344098 l 17.47655404319274 7.931747418268757 a40.19225256013086,40.19225256013086 0 0,0 -0.29134671647791377,0.6275349078727598 l -17.337432709874992 -8.231402393420348" fill="#ffd714" stroke="none" /><path d="M 118.81262510543309 109.33194174019688 l 17.13367868555865 8.499105807552075 a40.12583971562901,40.12583971562901 0 0,0 -0.31225800487004995,0.6161146675332063 l -16.98484201090233 -8.792774686787975" fill="#ffd614" stroke="none" /><path d="M 118.64920377521936 109.65438752849418 l 11.705905578886407 6.05995570602864 a34.181475205030466,34.181475205030466 0 0,0 -0.2749940238601384,0.5201850589396826 l -11.599859046801374 -6.260555780054457" fill="#ff840c" stroke="none" /><line stroke="#e1ed5e" stroke-width="0.3" x1="174.80103733775053" x2="179.2010983576182" y1="140.37084112569926" y2="142.7455964860345" /><path d="M 175.68104954172406 140.8457921977663 a86.0,86.0 0 0,1 -30.038265399797805,32.042727171017184" fill="none" id="id17" stroke="none" /><text fill="#e1ed5e" style="font-size:6.75px; font-family:Arial;" text-anchor="middle"><textPath startOffset="22.206326154141568" xlink:href="#id17">May</textPath></text><path d="M 118.48025628344425 109.97397251340804 l 17.78126723910658 9.596721386125633 a41.205705283197766,41.205705283197766 0 0,0 -0.3422498603132503,0.6212829096605588 l -17.61344096934182 -9.901374814183997" fill="#ffe415" stroke="none" /><path d="M 118.12598468904814 110.60418214915192 l 3.6534170040165566 2.137345917588047 a25.23269457635058,25.23269457635058 0 0,0 -0.22255131396217837,0.3730088033282729 l -3.616084814356151 -2.199916814802424" fill="#ff0000" stroke="none" /><path d="M 117.94076556474637 110.91462005526583 l 8.051408869820602 4.898234047290023 a30.424323931776595,30.424323931776595 0 0,0 -0.27604331062855586,0.4450697108368131 l -7.965900919524082 -5.03610008949211" fill="#ff4e07" stroke="none" /><path d="M 117.75023020441432 111.22182372390056 l 22.77964002238807 14.401452932231614 a47.95021050212534,47.95021050212534 0 0,0 -0.447067524588706,0.6938587262293043 l -22.528367634422313 -14.791433258382371" fill="#c5ff1e" stroke="none" /><path d="M 117.35343817320211 111.8261652097733 l 10.919785921013256 7.441706425455289 a34.214413308332,34.214413308332 0 0,0 -0.33585372006472825,0.48382233290732907 l -10.790071293786392 -7.628570020549637" fill="#ff850c" stroke="none" /><path d="M 116.498646956653 112.99209946851258 l 24.64490056321337 19.406985333409715 a52.36880940523332,52.36880940523332 0 0,0 -0.5637928463588834,0.7034182629458031 l -24.30718980479963 -19.82833142993377" fill="#91ff24" stroke="none" /><path d="M 116.0416608686014 113.55231037782055 l 11.283847351134298 9.532816010207359 a35.77158732594999,35.77158732594999 0 0,0 -0.40142107132871957,0.4669433945421967 l -11.1180837702348 -9.725636503911085" fill="#ff9b0e" stroke="none" /><path d="M 115.07121518719521 114.62390073753431 l 26.69108782667032 25.89889495345189 a58.190952248913504,58.190952248913504 0 0,0 -0.7037208505027261,0.7128655062071533 l -26.241326351112058 -26.354500953639707" fill="#50ff2b" stroke="none" /><path d="M 114.81725581225074 114.88116024355365 l 9.207044432700114 9.246752928382957 a34.04883546161392,34.04883546161392 0 0,0 -0.41888182205031915,0.40996402581311236 l -9.046512658273999 -9.403867057118642" fill="#ff820c" stroke="none" /><path d="M 114.29624159901734 115.38237550388516 l 4.192109920863284 4.510598712931216 a27.157863780378477,27.157863780378477 0 0,0 -0.3451640989762168,0.3152992206529771 l -4.113846272420203 -4.5820907001707765" fill="#ff1d03" stroke="none" /><path d="M 112.92097659922987 116.55440617244103 l 12.701396590970116 16.27307939995104 a41.6431244853636,41.6431244853636 0 0,0 -0.5688674319342848,0.4361832890554896 l -12.419400430542337 -16.4893020308339" fill="#ffea16" stroke="none" /><path d="M 112.63410532772338 116.77436683061366 l 5.619361159739384 7.460854805470949 a30.340319816361028,30.340319816361028 0 0,0 -0.4198739495686657,0.3106127101224409 l -5.490102239752154 -7.556477464333159" fill="#ff4d07" stroke="none" /><path d="M 111.7513745106137 117.40417183066458 l 5.163028283851065 7.646614558796189 a30.226460603646444,30.226460603646444 0 0,0 -0.43371415940087477,0.28744209514064273 l -5.030639425710226 -7.73435467502815" fill="#ff4b07" stroke="none" /><path d="M 111.45004920935366 117.60387380957326 l 3.387376118538586 5.207920127330298 a27.212628189510262,27.212628189510262 0 0,0 -0.394865858260689,0.2520220731734392 l -3.2972284582309666 -5.265456629327546" fill="#ff1e03" stroke="none" /><line stroke="#e1ed5e" stroke-width="0.3" x1="143.8653032363475" x2="146.44561519142675" y1="172.8068346515853" y2="177.08958963109032" /><path d="M 144.38136562736335 173.6633856474863 a86.0,86.0 0 0,1 -40.68145358897372,12.25698825130547" fill="none" id="id18" stroke="none" /><text fill="#e1ed5e" style="font-size:6.75px; font-family:Arial;" text-anchor="middle"><textPath startOffset="21.466115282336833" xlink:href="#id18">June</textPath></text><path d="M 110.8373102113329 117.98757091392108 l 4.674664511839196 7.758923364357201 a30.058332080036415,30.058332080036415 0 0,0 -0.4454818422193149,0.26319852463550886 l -4.540414798591499 -7.838240461286459" fill="#ff4906" stroke="none" /><path d="M 108.92500713936063 119.00905698771935 l 8.67874823208117 18.48455885241096 a41.42056774049381,41.42056774049381 0 0,0 -0.6479991493445619,0.29746462711284766 l -8.359281086969188 -18.63121054985788" fill="#ffe715" stroke="none" /><path d="M 108.59647513512805 119.15986991738527 l 4.061144866329363 9.051501473733811 a30.920815317014963,30.920815317014963 0 0,0 -0.4874877463899765,0.21370030207307802 l -3.9047364452816318 -9.120066329101343" fill="#ff5507" stroke="none" /><path d="M 106.57524785965236 119.94407469862006 l 2.8538588167655927 8.656338838593637 a30.11464273762693,30.11464273762693 0 0,0 -0.4937061283227181,0.15806911156326464 l -2.7044313433519345 -8.704180796816608" fill="#ff4a06" stroke="none" /><path d="M 106.2309692047433 120.05430185196036 l 5.401663920823775 17.385192449447572 a39.20502374669855,39.20502374669855 0 0,0 -0.6461828498284192,0.1946895919345582 l -5.101606096555109 -17.475597410487854" fill="#ffc912" stroke="none" /><path d="M 105.88484417918355 120.15858648285463 l 2.4623986009031325 8.43496847837571 a29.78704160118305,29.78704160118305 0 0,0 -0.49342777940109817,0.13944761917562085 l -2.3168396533974285 -8.47610489088985" fill="#ff4506" stroke="none" /><path d="M 104.48393922423573 120.51570834832081 l 2.6439062967971885 12.0968656738708 a33.38242301158854,33.38242301158854 0 0,0 -0.5624279190322116,0.11786223881742743 l -2.4352869163355986 -12.14058389341477" fill="#ff790b" stroke="none" /><path d="M 104.13013068566511 120.58985236759428 l 2.8845618829088018 14.380344796454676 a35.666799709590755,35.666799709590755 0 0,0 -0.6029937610232975,0.11556518943736183 l -2.6366005073138 -14.427867184240506" fill="#ff990e" stroke="none" /><path d="M 103.7750983002368 120.6578951692458 l 3.975696567673339 21.755598500461364 a43.115881834362526,43.115881834362526 0 0,0 -0.7312269362475129,0.12713317578590738 l -3.6006206599537762 -21.82081025476828" fill="#fffd17" stroke="none" /><path d="M 103.41894727170886 120.7198165907248 l 2.069241513276014 12.540206452369002 a33.70978120615386,33.70978120615386 0 0,0 -0.5733297567829421,0.0895423168875231 l -1.853075892884555 -12.573967076603632" fill="#ff7e0b" stroke="none" /><path d="M 102.70371172650421 120.8252237178851 l 1.3912650165915708 10.716159173836198 a31.80609484436377,31.80609484436377 0 0,0 -0.5435397723556682,0.06581509689396045 l -1.2065978211845223 -10.73851979945551" fill="#ff6209" stroke="none" /><path d="M 102.34483914955558 120.86867818915974 l 1.5137025009314797 13.471700339041295 a34.55647466291482,34.55647466291482 0 0,0 -0.5916848507146936,0.06133055402997232 l -1.2815850536111835 -13.495760261527025" fill="#ff8a0c" stroke="none" /><path d="M 101.62511606390274 120.93702456842531 l 1.4845466862064642 19.12601267840244 a40.183540857671126,40.183540857671126 0 0,0 -0.6900800589065509,0.04759196115846549 l -1.155103866520983 -19.148732984077192" fill="#ffd614" stroke="none" /><path d="M 101.26447882468166 120.96189622390904 l 1.01068655346178 16.754655147269663 a37.78511115284252,37.78511115284252 0 0,0 -0.6495655220237644,0.03357511788684389 l -0.7221329630245359 -16.76957007191871" fill="#ffb610" stroke="none" /><path d="M 100.90346689309514 120.98055641714683 l 0.3223732812064872 7.486240907580425 a28.493178728601528,28.493178728601528 0 0,0 -0.49019074241621136,0.01688316030482503 l -0.1934621871156236 -7.490680866311343" fill="#ff3204" stroke="none" /><line stroke="#e1ed5e" stroke-width="0.3" x1="102.19456741930631" x2="102.32365962044197" y1="184.97166512339345" y2="189.96999836594603" /><path d="M 102.22038585953345 185.97133177190398 a86.0,86.0 0 0,1 -42.740103519485714,-10.115201625700543" fill="none" id="id19" stroke="none" /><text fill="#e1ed5e" style="font-size:6.75px; font-family:Arial;" text-anchor="middle"><textPath startOffset="22.20632615414155" xlink:href="#id19">July</textPath></text><path d="M 100.18074693466247 120.99922214144158 l 0.12634745977475642 14.679078125289932 a35.67962187145694,35.67962187145694 0 0,0 -0.6141887888744136,0.0 l 0.12634745977474632 -14.679078125289932" fill="#ff990e" stroke="none" /><path d="M 99.81925306533755 120.99922214144158 l -0.1034649177561238 12.020578915290567 a33.02102418464976,33.02102418464976 0 0,0 -0.568339486731501,-0.009784479678781023 l 0.3103640943802927 -12.017016958332627" fill="#ff740a" stroke="none" /><path d="M 99.45781275523022 120.99299961872073 l -0.2877236310466757 11.140398700129046 a32.14411360699897,32.14411360699897 0 0,0 -0.5530006695079481,-0.01904646119173475 l 0.4794446522292668 -11.133795440511218" fill="#ff6709" stroke="none" /><path d="M 99.09653310690486 120.98055641714683 l -0.5134818469672773 11.924216528367332 a32.9352672120298,32.9352672120298 0 0,0 -0.5661916396920363,-0.02926564050071391 l 0.7186615550728026 -11.913611081104415" fill="#ff730a" stroke="none" /><path d="M 98.73552117531835 120.96189622390904 l -1.351085031574971 22.397610516476398 a43.43832408203251,43.43832408203251 0 0,0 -0.7459751082540153,-0.05144681101706029 l 1.7364229006079164 -22.37103536094305" fill="#fdff18" stroke="none" /><path d="M 98.37488393609728 120.93702456842531 l -0.573470760509275 7.388254703003776 a28.41047746569791,28.41047746569791 0 0,0 -0.4872473759498565,-0.04204175382698792 l 0.7005624542006732 -7.377288696898125" fill="#ff3004" stroke="none" /><path d="M 98.01472825383883 120.90594882070398 l -0.837138302767409 8.81550374519136 a29.855162721228968,29.855162721228968 0 0,0 -0.5111877779804661,-0.05298670330839202 l 0.9887586773534685 -8.79978767342721" fill="#ff4606" stroke="none" /><path d="M 97.2962882734958 120.8252237178851 l -2.201034926769013 16.953377207898285 a38.095658908101264,38.095658908101264 0 0,0 -0.6495698216614176,-0.09002445838857341 l 2.4925333396172613 -16.912978184017106" fill="#ffba11" stroke="none" /><path d="M 96.58105272829116 120.7198165907248 l -2.1638299907734733 13.113440184740625 a34.29076648307918,34.29076648307918 0 0,0 -0.5815567500933527,-0.10111109543983336 l 2.389235712338876 -13.074250510779786" fill="#ff860c" stroke="none" /><path d="M 96.22490169976321 120.6578951692458 l -3.8271466974611217 20.942711682108516 a42.28953321338474,42.28953321338474 0 0,0 -0.7149597073998817,-0.13702372954162892 l 4.187074019432698 -20.873730754218418" fill="#fff216" stroke="none" /><path d="M 95.16358092515715 120.4354850818985 l -3.532862887363826 14.927525037408422 a36.33988669851795,36.33988669851795 0 0,0 -0.6074760884913629,-0.14930284273137379 l 3.7892922605983994 -14.864500936363019" fill="#ffa20f" stroke="none" /><path d="M 94.81253420990036 120.34920634021253 l -2.402097997126477 9.422864606881394 a30.724219875517885,30.724219875517885 0 0,0 -0.5113527849359379,-0.1350529181147207 l 2.563941224873904 -9.380120339463092" fill="#ff5307" stroke="none" /><path d="M 94.11515582081647 120.15858648285463 l -3.0282782400671358 10.373394254426916 a31.806376703458078,31.806376703458078 0 0,0 -0.5242372833070285,-0.1579483930763988 l 3.20639049781441 -10.319730492244792" fill="#ff6209" stroke="none" /><path d="M 93.76903079525671 120.05430185196036 l -4.371525018000705 14.069702382359054 a35.73318553847626,35.73318553847626 0 0,0 -0.5858177644191652,-0.18756034865175136 l 4.61306412751081 -13.992369187047597" fill="#ff9a0e" stroke="none" /><path d="M 93.42475214034765 119.94407469862007 l -4.36458354575614 13.238676643519094 a34.93958926222517,34.93958926222517 0 0,0 -0.56956566300958,-0.19322759694863068 l 4.591818941702946 -13.16158605967234" fill="#ff8f0d" stroke="none" /><path d="M 93.08242187328487 119.8279376855182 l -2.038925979541287 5.8441981466895605 a27.18965840154512,27.18965840154512 0 0,0 -0.4405766146288294,-0.15797509904076623 l 2.1392221547998433 -5.8082355066088365" fill="#ff1e03" stroke="none" /><path d="M 92.7421414339146 119.70592522655815 l -2.5643846846806637 6.962600936394915 a28.419830227876652,28.419830227876652 0 0,0 -0.4575995676658176,-0.1730250012526872 l 2.683854473106764 -6.9174276850355945" fill="#ff3004" stroke="none" /><path d="M 92.40401165467489 119.57807347666478 l -3.495483982516482 9.009340079929183 a30.663675126360967,30.663675126360967 0 0,0 -0.4904420098116268,-0.19515699727358804 l 3.6500470683699673 -8.947836238249527" fill="#ff5207" stroke="none" /><line stroke="#e1ed5e" stroke-width="0.3" x1="58.666819895761336" x2="56.23545636021788" y1="174.27360380694188" y2="178.64263932499728" /><path d="M 58.180547188652646 175.14741091055294 a86.0,86.0 0 0,1 -31.652253787137756,-30.449443065178592" fill="none" id="id20" stroke="none" /><text fill="#e1ed5e" style="font-size:6.75px; font-family:Arial;" text-anchor="middle"><textPath startOffset="22.20632615414155" xlink:href="#id20">August</textPath></text><line stroke="#e1ed5e" stroke-width="0.3" x1="26.63291911575756" x2="22.317208475507996" y1="142.92168965132927" y2="145.44649492493687" /><path d="M 25.769776987707644 143.4266507060508 a86.0,86.0 0 0,1 -11.730757126820373,-40.83630448921669" fill="none" id="id21" stroke="none" /><text fill="#e1ed5e" style="font-size:6.75px; font-family:Arial;" text-anchor="middle"><textPath startOffset="21.46611528233685" xlink:href="#id21">September</textPath></text><line stroke="#e1ed5e" stroke-width="0.3" x1="15.007084014347285" x2="10.007500721073583" y1="101.09737516637583" y2="101.16192664675087" /><path d="M 14.007167355692545 101.11028546245083 a86.0,86.0 0 0,1 10.666146001902534,-42.60595125391555" fill="none" id="id22" stroke="none" /><text fill="#e1ed5e" style="font-size:6.75px; font-family:Arial;" text-anchor="middle"><textPath startOffset="22.20632615414155" xlink:href="#id22">October</textPath></text><line stroke="#e1ed5e" stroke-width="0.3" x1="26.266209847984243" x2="21.928928074336255" y1="57.711370442889674" y2="55.22380399835377" /><path d="M 25.398753493254645 57.213857153982495 a86.0,86.0 0 0,1 29.58750427330803,-30.492523968695096" fill="none" id="id23" stroke="none" /><text fill="#e1ed5e" style="font-size:6.75px; font-family:Arial;" text-anchor="middle"><textPath startOffset="21.46611528233685" xlink:href="#id23">November</textPath></text><line stroke="#e1ed5e" stroke-width="0.3" x1="56.762969772571076" x2="54.21961505331055" y1="26.818313649435495" y2="22.513508569990535" /><path d="M 56.25429882871897 25.957352633546506 a86.0,86.0 0 0,1 42.265352541879196,-11.944610805530505" fill="none" id="id24" stroke="none" /><text fill="#e1ed5e" style="font-size:6.75px; font-family:Arial;" text-anchor="middle"><textPath startOffset="22.20632615414155" xlink:href="#id24">December</textPath></text></svg>