<?xml version="1.0" encoding="utf-8" ?>
<svg baseProfile="full" height="200mm" version="1.1" viewBox="0,0,200,200" width="200mm" xmlns="http://www.w3.org/2000/svg" xmlns:ev="http://www.w3.org/2001/xml-events" xmlns:xlink="http://www.w3.org/1999/xlink"><defs /><rect fill="#1a1a1a" height="200" width="200" x="0" y="0" /><text alignment-baseline="middle" fill="#e1ed5e" style="dominant-baseline: central; font-size:9.0px; font-family:Arial;" text-anchor="middle" x="100.0" y="100.0">2024</text><line stroke="#e1ed5e" stroke-width="0.3" x1="100.0" x2="100.0" y1="15.0" y2="10.0" /><path d="M 100.0 14.0 a86.0,86.0 0 0,1 42.35913384403234,11.155469271406648" fill="none" id="id1" stroke="none" /><text fill="#e1ed5e" style="font-size:6.75px; font-family:Arial;" text-anchor="middle"><textPath startOffset="22.145653131862478" xlink:href="#id1">January</textPath></text><line stroke="#e1ed5e" stroke-width="0.3" x1="143.13028292997686" x2="145.6673583964461" y1="26.7553504044142" y2="22.446841604673864" /><path d="M 143.63769802327073 25.89364864446614 a86.0,86.0 0 0,1 29.32050498858742,28.57503671076993" fill="none" id="id2" stroke="none" /><text fill="#e1ed5e" style="font-size:6.75px; font-family:Arial;" text-anchor="middle"><textPath startOffset="20.669276256404974" xlink:href="#id2">February</textPath></text><line stroke="#e1ed5e" stroke-width="0.3" x1="172.87174338648825" x2="177.1583165268699" y1="56.24261187166439" y2="53.66864786411523" /><path d="M 173.72905801456457 55.72781907015455 a86.0,86.0 0 0,1 12.242430191666344,42.057860355516425" fill="none" id="id3" stroke="none" /><text fill="#e1ed5e" style="font-size:6.75px; font-family:Arial;" text-anchor="middle"><textPath startOffset="22.145653131862474" xlink:href="#id3">March</textPath></text><line stroke="#e1ed5e" stroke-width="0.3" x1="184.99686870605535" x2="189.99668451229388" y1="99.2704041080226" y2="99.22748670261217" /><path d="M 185.99683186730306 99.26182062694052 a86.0,86.0 0 0,1 -10.086455211305974,41.156179273409016" fill="none" id="id4" stroke="none" /><text fill="#e1ed5e" style="font-size:6.75px; font-family:Arial;" text-anchor="middle"><textPath startOffset="21.40746469413373" xlink:href="#id4">April</textPath></text><line stroke="#e1ed5e" stroke-width="0.3" x1="174.33088141563837" x2="178.70328620479359" y1="141.23008692659167" y2="143.65538615756765" /><path d="M 175.20536237346943 141.71514677278685 a86.0,86.0 0 0,1 -30.301960400862466,31.631185727798858" fill="none" id="id5" stroke="none" /><text fill="#e1ed5e" style="font-size:6.75px; font-family:Arial;" text-anchor="middle"><textPath startOffset="22.145653131862474" xlink:href="#id5">May</textPath></text><line stroke="#e1ed5e" stroke-width="0.3" x1="143.1302829299769" x2="145.66735839644613" y1="173.24464959558577" y2="177.55315839532614" /><path d="M 143.63769802327073 174.10635135553383 a86.0,86.0 0 0,1 -40.68552437913181,11.842963189579606" fill="none" id="id6" stroke="none" /><text fill="#e1ed5e" style="font-size:6.75px; font-family:Arial;" text-anchor="middle"><textPath startOffset="21.407464694133747" xlink:href="#id6">June</textPath></text><line stroke="#e1ed5e" stroke-width="0.3" x1="101.45913802915013" x2="101.54496967792366" y1="184.9874750549273" y2="189.98673829345242" /><path d="M 101.47630435890484 185.9873277026323 a86.0,86.0 0 0,1 -42.54439059252881,-10.42667462771756" fill="none" id="id7" stroke="none" /><text fill="#e1ed5e" style="font-size:6.75px; font-family:Arial;" text-anchor="middle"><textPath startOffset="22.145653131862474" xlink:href="#id7">July</textPath></text><line stroke="#e1ed5e" stroke-width="0.3" x1="58.13341422392154" x2="55.67067388415222" y1="173.97424548756322" y2="178.32567169271397" /><path d="M 57.64086615596768 174.84453072859336 a86.0,86.0 0 0,1 -31.369924170532247,-30.572349798747897" fill="none" id="id8" stroke="none" /><text fill="#e1ed5e" style="font-size:6.75px; font-family:Arial;" text-anchor="middle"><textPath startOffset="22.145653131862474" xlink:href="#id8">August</textPath></text><line stroke="#e1ed5e" stroke-width="0.3" x1="26.387840678322732" x2="22.057713659400548" y1="142.50000000000003" y2="145.00000000000006" /><path d="M 25.521815274538298 143.00000000000003 a86.0,86.0 0 0,1 -11.493303480769221,-40.785679425670985" fill="none" id="id9" stroke="none" /><text fill="#e1ed5e" style="font-size:6.75px; font-family:Arial;" text-anchor="middle"><textPath startOffset="21.40746469413373" xlink:href="#id9">September</textPath></text><line stroke="#e1ed5e" stroke-width="0.3" x1="15.003131293944662" x2="10.003315487706104" y1="100.72959589197737" y2="100.7725132973878" /><path d="M 14.003168132696942 100.73817937305945 a86.0,86.0 0 0,1 10.791469493833604,-42.45332614584628" fill="none" id="id10" stroke="none" /><text fill="#e1ed5e" style="font-size:6.75px; font-family:Arial;" text-anchor="middle"><textPath startOffset="22.145653131862435" xlink:href="#id10">October</textPath></text><line stroke="#e1ed5e" stroke-width="0.3" x1="26.387840678322718" x2="22.05771365940052" y1="57.49999999999999" y2="54.99999999999999" /><path d="M 25.521815274538284 56.99999999999999 a86.0,86.0 0 0,1 29.574782752854787,-30.34633250058573" fill="none" id="id11" stroke="none" /><text fill="#e1ed5e" style="font-size:6.75px; font-family:Arial;" text-anchor="middle"><textPath startOffset="21.40746469413373" xlink:href="#id11">November</textPath></text><path d="M 84.58840730492382 85.73525988315684 l -10.464610126004606 -9.685886905071964 a35.25918897508279,35.25918897508279 0 0,0 0.41495727916105146,-0.44067025056861037 l 10.296797013107284 9.864098615585085" fill="red" stroke="none" /><path d="M 85.34317274990677 84.96080404539775 l -37.504360496244956 -38.48277782297556 a74.73547473694448,74.73547473694448 0 0,0 0.9264619217116856,-0.8875295635832661 l 36.83822608866797 39.12091951686439" fill="red" stroke="none" /><path d="M 86.40962598614128 83.9905735841838 l -23.1186329647882 -27.233691501544786 a56.72317375264836,56.72317375264836 0 0,0 0.7477347782155528,-0.623786946096356 l 22.64772385241074 27.626540631553024" fill="red" stroke="none" /><path d="M 87.25179093698888 83.31218511350988 l -20.80751644885525 -27.237706961802722 a55.27601816586078,55.27601816586078 0 0,0 0.7589845058590912,-0.5695561228429388 l 20.336878954085407 27.59088211190966" fill="red" stroke="none" /><path d="M 88.12776184653039 82.6780497279521 l -21.107702701000285 -30.796769052097016 a58.33598930471798,58.33598930471798 0 0,0 0.8308814732654989,-0.5590541362750222 l 20.575924939637794 31.154572862429145" fill="red" stroke="none" /><path d="M 88.72937992617638 82.28071324371311 l -24.62997267931684 -38.72240798161045 a66.8918340674916,66.8918340674916 0 0,0 0.9741867785183912,-0.6079646003380942 l 23.961621772008748 39.13950837879008" fill="red" stroke="none" /><line stroke="#e1ed5e" stroke-width="0.3" x1="56.869717070023135" x2="54.33264160355391" y1="26.7553504044142" y2="22.446841604673864" /><path d="M 56.362301976729285 25.89364864446614 a86.0,86.0 0 0,1 42.16139366436587,-11.88097634709845" fill="none" id="id12" stroke="none" /><text fill="#e1ed5e" style="font-size:6.75px; font-family:Arial;" text-anchor="middle"><textPath startOffset="22.145653131862474" xlink:href="#id12">December</textPath></text><path d="M 89.34428304082924 81.90426304109057 l -16.6713472939841 -28.311592409830677 a53.8554422489945,53.8554422489945 0 0,0 0.8006702246116827,-0.4622671697116707 l 16.182884601512015 28.593606476818522" fill="red" stroke="none" /><path d="M 89.97174638481275 81.54914285379989 l -28.23578268998125 -51.950659887082026 a80.12808543170595,80.12808543170595 0 0,0 1.2141739501894615,-0.6464792398561645 l 27.339819924005226 52.42770959466077" fill="red" stroke="none" /><path d="M 90.28995756902619 81.37971332152246 l -3.2921604541284535 -6.313151758418292 a28.119986346935452,28.119986346935452 0 0,0 0.42993153056127137,-0.21952610288802582 l 3.1833017018535994 6.368735812979152" fill="red" stroke="none" /><path d="M 90.61103034731259 81.2157712731953 l -17.679027268810852 -35.36989724849173 a60.54209954643558,60.54209954643558 0 0,0 0.9336161155366508,-0.45667842620914345 l 17.06925090401215 35.668169424798094" fill="red" stroke="none" /><path d="M 91.26138138417902 80.90454125486306 l -18.712773722270846 -40.890787701133156 a65.96914963839157,65.96914963839157 0 0,0 1.0337887129050842,-0.462400542020874 l 18.008071606510143 41.20599199406387" fill="red" stroke="none" /><path d="M 91.5904679813234 80.7573450057729 l -11.808600988768166 -27.020389991584064 a50.48804050134957,50.48804050134957 0 0,0 0.7971458739820094,-0.340254172379224 l 11.343020039615727 27.219118813622693" fill="red" stroke="none" /><path d="M 91.92203290615298 80.6158196554323 l -3.824173346332381 -9.176623889772877 a30.941565661260267,30.941565661260267 0 0,0 0.4920379912552815,-0.20010756753275008 l 3.6660808938866585 9.240918713884918" fill="red" stroke="none" /><path d="M 92.25597844496254 80.48000691201159 l -13.735477918809025 -34.62237703366934 a58.24744749804534,58.24744749804534 0 0,0 0.9325908327521294,-0.36074616844139934 l 13.139114823563366 34.853063090248774" fill="red" stroke="none" /><path d="M 92.93061703081487 80.22567764915836 l -4.2553004312838665 -11.902832650977738 a33.640609434582906,33.640609434582906 0 0,0 0.5454492065411357,-0.18973554813238191 l 4.0503454526977265 11.974126631678706" fill="red" stroke="none" /><path d="M 93.95794788825049 79.88797359093562 l -12.738908502834954 -42.40368330048811 a65.27586416199796,65.27586416199796 0 0,0 1.0759327053720356,-0.3131883297225431 l 12.009115785081294 42.616115324513174" fill="red" stroke="none" /><path d="M 95.70440661134978 79.44403061299748 l -10.791639704389903 -51.64190260305467 a73.75742215056331,73.75742215056331 0 0,0 1.2415956165904531,-0.24835389623133397 l 9.903547602268473 51.81954589594886" fill="red" stroke="none" /><path d="M 96.41257539226777 79.30868818359171 l -7.62316206554311 -43.96837301756647 a65.62432549282289,65.62432549282289 0 0,0 1.1116213773697545,-0.1829168746246497 l 6.867263185120283 44.09275589068679" fill="red" stroke="none" /><path d="M 97.84075906011542 79.11130261209362 l -5.499356171417341 -53.20128234470807 a74.48475821597637,74.48475821597637 0 0,0 1.2729815354702605,-0.12055267492294676 l 4.585275072562065 53.287846775136195" fill="red" stroke="none" /><path d="M 98.1996594967304 79.07731436759882 l -4.539189789842208 -52.752265933136165 a73.94719827364358,73.94719827364358 0 0,0 1.2656626575739065,-0.09797029430629896 l 3.6329581374930844 52.82241399443752" fill="red" stroke="none" /><path d="M 98.5590905019552 79.04949213459386 l -2.061192170960405 -29.9692817962649 a51.040079303316816,51.040079303316816 0 0,0 0.8746219430906894,-0.052615084218455975 l 1.5464258757372318 30.00024885830805" fill="red" stroke="none" /><path d="M 98.9189461498227 79.02784411241856 l -3.138506141392439 -60.8861806843565 a81.96701746951105,81.96701746951105 0 0,0 1.4058289606143064,-0.06037234447850355 l 2.0928514201773125 60.93108559726083" fill="red" stroke="none" /><path d="M 99.27912038922189 79.0123766808444 l -2.1626388323343404 -62.96286995746683 a84.0,84.0 0 0,0 1.4415467437170244,-0.03712913059981959 l 1.081478774546572 62.990716805416696" fill="red" stroke="none" /></svg>