<?xml version="1.0" encoding="utf-8" ?>
<svg baseProfile="full" height="200mm" version="1.1" viewBox="0,0,200,200" width="200mm" xmlns="http://www.w3.org/2000/svg" xmlns:ev="http://www.w3.org/2001/xml-events" xmlns:xlink="http://www.w3.org/1999/xlink"><defs /><rect fill="#1a1a1a" height="200" width="200" x="0" y="0" /><text alignment-baseline="middle" fill="#e1ed5e" style="dominant-baseline: central; font-size:9.0px; font-family:Arial;" text-anchor="middle" x="100.0" y="100.0">2024</text><line stroke="#e1ed5e" stroke-width="0.3" x1="100.0" x2="100.0" y1="15.0" y2="10.0" /><path d="M 100.0 14.0 a86.0,86.0 0 0,1 42.35913384403234,11.155469271406648" fill="none" id="id1" stroke="none" /><text fill="#e1ed5e" style="font-size:6.75px; font-family:Arial;" text-anchor="middle"><textPath startOffset="22.145653131862478" xlink:href="#id1">January</textPath></text><line stroke="#e1ed5e" stroke-width="0.3" x1="143.13028292997686" x2="145.6673583964461" y1="26.7553504044142" y2="22.446841604673864" /><path d="M 143.63769802327073 25.89364864446614 a86.0,86.0 0 0,1 29.32050498858742,28.57503671076993" fill="none" id="id2" stroke="none" /><text fill="#e1ed5e" style="font-size:6.75px; font-family:Arial;" text-anchor="middle"><textPath startOffset="20.669276256404974" xlink:href="#id2">February</textPath></text><line stroke="#e1ed5e" stroke-width="0.3" x1="172.87174338648825" x2="177.1583165268699" y1="56.24261187166439" y2="53.66864786411523" /><path d="M 173.72905801456457 55.72781907015455 a86.0,86.0 0 0,1 12.242430191666344,42.057860355516425" fill="none" id="id3" stroke="none" /><text fill="#e1ed5e" style="font-size:6.75px; font-family:Arial;" text-anchor="middle"><textPath startOffset="22.145653131862474" xlink:href="#id3">March</textPath></text><line stroke="#e1ed5e" stroke-width="0.3" x1="184.99686870605535" x2="189.99668451229388" y1="99.2704041080226" y2="99.22748670261217" /><path d="M 185.99683186730306 99.26182062694052 a86.0,86.0 0 0,1 -10.086455211305974,41.156179273409016" fill="none" id="id4" stroke="none" /><text fill="#e1ed5e" style="font-size:6.75px; font-family:Arial;" text-anchor="middle"><textPath startOffset="21.40746469413373" xlink:href="#id4">April</textPath></text><line stroke="#e1ed5e" stroke-width="0.3" x1="174.33088141563837" x2="178.70328620479359" y1="141.23008692659167" y2="143.65538615756765" /><path d="M 175.20536237346943 141.71514677278685 a86.0,86.0 0 0,1 -30.301960400862466,31.631185727798858" fill="none" id="id5" stroke="none" /><text fill="#e1ed5e" style="font-size:6.75px; font-family:Arial;" text-anchor="middle"><textPath startOffset="22.145653131862474" xlink:href="#id5">May</textPath></text><line stroke="#e1ed5e" stroke-width="0.3" x1="143.1302829299769" x2="145.66735839644613" y1="173.24464959558577" y2="177.55315839532614" /><path d="M 143.63769802327073 174.10635135553383 a86.0,86.0 0 0,1 -40.68552437913181,11.842963189579606" fill="none" id="id6" stroke="none" /><text fill="#e1ed5e" style="font-size:6.75px; font-family:Arial;" text-anchor="middle"><textPath startOffset="21.407464694133747" xlink:href="#id6">June</textPath></text><line stroke="#e1ed5e" stroke-width="0.3" x1="101.45913802915013" x2="101.54496967792366" y1="184.9874750549273" y2="189.98673829345242" /><path d="M 101.47630435890484 185.9873277026323 a86.0,86.0 0 0,1 -42.54439059252881,-10.42667462771756" fill="none" id="id7" stroke="none" /><text fill="#e1ed5e" style="font-size:6.75px; font-family:Arial;" text-anchor="middle"><textPath startOffset="22.145653131862474" xlink:href="#id7">July</textPath></text><line stroke="#e1ed5e" stroke-width="0.3" x1="58.13341422392154" x2="55.67067388415222" y1="173.97424548756322" y2="178.32567169271397" /><path d="M 57.64086615596768 174.84453072859336 a86.0,86.0 0 0,1 -31.369924170532247,-30.572349798747897" fill="none" id="id8" stroke="none" /><text fill="#e1ed5e" style="font-size:6.75px; font-family:Arial;" text-anchor="middle"><textPath startOffset="22.145653131862474" xlink:href="#id8">August</textPath></text><line stroke="#e1ed5e" stroke-width="0.3" x1="26.387840678322732" x2="22.057713659400548" y1="142.50000000000003" y2="145.00000000000006" /><path d="M 25.521815274538298 143.00000000000003 a86.0,86.0 0 0,1 -11.493303480769221,-40.785679425670985" fill="none" id="id9" stroke="none" /><text fill="#e1ed5e" style="font-size:6.75px; font-family:Arial;" text-anchor="middle"><textPath startOffset="21.40746469413373" xlink:href="#id9">September</textPath></text><line stroke="#e1ed5e" stroke-width="0.3" x1="15.003131293944662" x2="10.003315487706104" y1="100.72959589197737" y2="100.7725132973878" /><path d="M 14.003168132696942 100.73817937305945 a86.0,86.0 0 0,1 10.791469493833604,-42.45332614584628" fill="none" id="id10" stroke="none" /><text fill="#e1ed5e" style="font-size:6.75px; font-family:Arial;" text-anchor="middle"><textPath startOffset="22.145653131862435" xlink:href="#id10">October</textPath></text><line stroke="#e1ed5e" stroke-width="0.3" x1="26.387840678322718" x2="22.05771365940052" y1="57.49999999999999" y2="54.99999999999999" /><path d="M 25.521815274538284 56.99999999999999 a86.0,86.0 0 0,1 29.574782752854787,-30.34633250058573" fill="none" id="id11" stroke="none" /><text fill="#e1ed5e" style="font-size:6.75px; font-family:Arial;" text-anchor="middle"><textPath startOffset="21.40746469413373" xlink:href="#id11">November</textPath></text><path d="M 84.58840730492382 85.73525988315684 l -11.149869526889379 -10.320152776202073 a36.192930717633374,36.192930717633374 0 0,0 0.4259462708023993,-0.45234017887997674 l 10.971067422350709 10.510034415026562" fill="red" stroke="none" /><path d="M 85.34317274990677 84.96080404539775 l -39.96027765844847 -41.00276518588961 a78.25426222937028,78.25426222937028 0 0,0 0.97008274079128,-0.92931732151867 l 39.250522431791886 41.682694637713844" fill="red" stroke="none" /><path d="M 86.40962598614128 83.9905735841838 l -24.63252219563089 -29.017049208857152 a59.06245255507698,59.06245255507698 0 0,0 0.7785715597423735,-0.6495120859941701 l 24.13077630172661 29.435623478763205" fill="red" stroke="none" /><path d="M 87.25179093698888 83.31218511350988 l -22.17006565842495 -29.021327615546678 a57.52053214108148,57.52053214108148 0 0,0 0.7898035009116118,-0.5926832712847386 l 21.668609168602583 29.39762991409542" fill="red" stroke="none" /><path d="M 88.12776184653039 82.6780497279521 l -22.489909159987 -32.81344958349911 a60.780880930332664,60.780880930332664 0 0,0 0.8657041475713055,-0.582484385634546 l 21.923308724318705 33.194683643190764" fill="red" stroke="none" /><path d="M 88.72937992617638 82.28071324371311 l -26.242829739332418 -41.25808716839209 a69.89699243841312,69.89699243841312 0 0,0 1.0179527417800918,-0.6352777983300429 l 25.530712868762627 41.70250076356367" fill="red" stroke="none" /><line stroke="#e1ed5e" stroke-width="0.3" x1="56.869717070023135" x2="54.33264160355391" y1="26.7553504044142" y2="22.446841604673864" /><path d="M 56.362301976729285 25.89364864446614 a86.0,86.0 0 0,1 42.16139366436587,-11.88097634709845" fill="none" id="id12" stroke="none" /><text fill="#e1ed5e" style="font-size:6.75px; font-family:Arial;" text-anchor="middle"><textPath startOffset="22.145653131862474" xlink:href="#id12">December</textPath></text><path d="M 89.34428304082924 81.90426304109057 l -17.76304562971362 -30.165534851952188 a56.00693192708596,56.00693192708596 0 0,0 0.8326564761745759,-0.48073444066187404 l 17.242596685678645 30.466016189890237" fill="red" stroke="none" /><path d="M 89.97174638481275 81.54914285379989 l -30.08476084556177 -55.352571438600336 a84.0,84.0 0 0,0 1.2728447368537525,-0.6777181291096981 l 29.130127292921458 55.86086003543261" fill="red" stroke="none" /><path d="M 90.28995756902619 81.37971332152246 l -3.5077426758498795 -6.72655909415055 a28.586228043440162,28.586228043440162 0 0,0 0.4370599837445923,-0.2231659418756694 l 3.391755470391705 6.785782987699053" fill="red" stroke="none" /><path d="M 90.61103034731259 81.2157712731953 l -18.8367120261575 -37.68604226545964 a63.13145501392513,63.13145501392513 0 0,0 0.9735464121634962,-0.47621033522201456 l 18.18700536473195 38.003846350778865" fill="red" stroke="none" /><path d="M 91.26138138417902 80.90454125486306 l -19.9381518257465 -43.5684600027656 a68.9138873943568,68.9138873943568 0 0,0 1.0799350808857118,-0.4830412254605045 l 19.187303342005166 43.904304979135944" fill="red" stroke="none" /><path d="M 91.5904679813234 80.7573450057729 l -12.581869628632932 -28.78977996735522 a52.41902089373002,52.41902089373002 0 0,0 0.8276337486794854,-0.3532676331664842 l 12.085800804783016 29.001522250181107" fill="red" stroke="none" /><path d="M 91.92203290615298 80.6158196554323 l -4.074593639552398 -9.777541431194129 a31.592574274754867,31.592574274754867 0 0,0 0.5023904399316205,-0.2043178182846174 l 3.9061487384303364 9.846046506058038" fill="red" stroke="none" /><path d="M 92.25597844496254 80.48000691201159 l -14.634925223216415 -36.889571803242404 a60.68654109538539,60.68654109538539 0 0,0 0.97164278140928,-0.37585230111339146 l 13.999510179313607 37.135363992493836" fill="red" stroke="none" /></svg>